<svg width="1512" height="102" fill="none" xmlns="http://www.w3.org/2000/svg"><path d="M1261.09 81.8c138.57 48.73 127.58-1.49 265.96-37.41 10.98-2.85 18.95-12.654 18.95-24 0-13.415-10.88-24.29-24.29-24.29H1193.5L196.989-15.019c-58.571-.653-117.069 4.05-175.342 9.986C-24.503-.33-74.108 3.584-110.571 5.975c-18.267-.812-33.354-.72-44.062.542-25.729 3.035-.764 2.397 44.062-.542 112.997 5.018 347.642 44.572 419.7 54.987 83.706 12.1 96.356 8.758 401.372-28.903 92.544-11.426 228.704-38.186 324.429-20.164 107.1 20.164 125.82 34.616 226.16 69.904Z" fill="#F8F8F8"/></svg>