<svg height="700pt" preserveAspectRatio="xMidYMid meet" viewBox="0 0 700 700" width="700pt" xmlns="http://www.w3.org/2000/svg"><path d="m3368 6995c-2-2-37-6-78-9-213-18-483-81-704-166-327-124-622-320-815-541-97-111-102-117-155-198-289-440-353-1061-165-1597 149-427 484-813 969-1116 58-36 133-81 168-99 34-19 62-37 62-41 0-3-35-21-77-38-498-207-1019-610-1209-936-73-125-133-288-158-429-19-106-14-377 9-505 100-556 509-975 1145-1175 121-38 305-80 395-91 22-2 46-7 53-9 7-3 45-7 85-11 40-3 75-8 78-10 16-9 268-19 489-19 246 0 354 7 528 31 694 95 1241 405 1547 877 62 95 160 295 181 367 7 25 22 76 33 113 11 38 22 84 25 103 3 18 10 53 15 77 15 65 24 169 25 297 3 290-57 562-185 835-24 52-129 234-148 257-6 7-39 50-74 95-136 175-301 337-469 461-43 31-77 60-78 63 0 3 8 14 18 25 37 39 132 172 187 259 70 112 157 290 149 307-2 7-25 29-51 48-39 29-47 32-57 19-90-121-269-301-396-398-151-116-318-191-508-227-155-29-436-16-665 31-103 21-312 106-422 172-138 83-313 258-408 409-91 146-161 310-206 486-42 162-42 165-46 423-3 271 7 401 47 605 21 107 61 259 78 295 5 11 20 49 34 84 68 171 193 338 337 454 74 58 236 136 315 151 11 2 37 9 59 14 173 45 455 31 633-32 50-18 175-76 182-85 3-3 23-18 45-32 45-30 108-89 130-122 40-63 47-242 19-517-33-318 22-525 181-686 119-120 268-175 454-168 230 9 424 156 482 364 17 63 21 200 8 294-13 99-65 259-114 351-108 204-302 407-535 560-191 126-492 243-730 285-95 17-98 18-185 31-70 10-518 22-527 14zm-373-3925c307-138 636-316 865-469 175-116 363-283 453-401 23-30 44-57 47-60 11-10 66-106 89-154 29-64 78-211 85-260 4-21 8-41 10-45 8-12 19-158 19-241 0-148-23-333-58-470-14-57-59-168-96-240-180-346-483-520-904-518-363 2-641 125-861 383-145 171-270 422-308 620-1 6-5 24-9 40-35 160-45 292-42 560 2 143 6 271 8 285 3 14 11 68 17 120 40 322 156 556 414 836 49 52 94 93 100 91 6-3 83-37 171-77z" transform="matrix(.1 0 0 -.1 0 700)"/></svg>