<svg width="330" height="522" viewBox="0 0 330 522" fill="none" xmlns="http://www.w3.org/2000/svg">
<path d="M465.231 258.342C456.09 263.1 447.085 267.386 439.688 265.029C435.491 265.137 429.149 268.732 427.526 264.633C424.396 264.768 420.681 265.842 418.827 264.025L412.093 264.56C407.156 264.942 404.209 263.006 401.205 261.154C399.514 260.901 397.849 260.63 396.157 260.377C391.175 261.807 389.066 260.013 387.606 257.48C385.956 257.065 384.281 256.669 382.642 256.269C373.834 253.948 364.806 251.869 360.447 245.135C351.63 245.801 348.757 240.082 342.484 237.998C339.642 235.656 336.775 233.333 333.934 230.992C331.583 237.295 336.576 239.103 339.143 242.387C339.273 246.072 343.685 247.382 342.073 252.02C342.507 252.975 342.916 253.948 343.35 254.903C348.861 257.895 348.502 264.66 351.097 269.537C355.895 273.734 358.122 279.53 358.738 286.298C362.803 290.279 362.628 296.695 364.445 301.96C366.354 304.357 367.273 307.116 363.995 311.483C364.322 311.895 364.435 312.39 364.303 313.034C364.692 313.535 365.071 314.021 365.46 314.522C365.081 317.702 364.702 320.882 364.323 324.061C366.506 326.907 364.617 330.149 359.765 333.652C356.689 336.752 353.639 339.834 350.563 342.935C336.736 352.823 322.802 358.282 308.768 360.542C300.16 362.564 291.684 364.384 285.746 361.447C289.081 360.551 292.4 359.687 295.735 358.791C292.4 359.687 289.081 360.551 285.746 361.447C284.532 361.655 283.345 361.845 282.12 362.039C273.696 365.655 271.494 359.951 265.031 360.651C262.211 361.673 259.38 362.68 258.731 360.308C258.102 360.129 257.592 359.845 257.167 359.458C251.242 361.04 247.633 359.323 243.769 357.962C242.816 357.767 241.838 357.589 240.886 357.394C229.412 354.817 218.017 352.185 209.819 346.015C209.012 346.028 208.513 345.758 208.312 345.192C198.422 343.937 191.385 339.76 185.256 334.66C179.698 333.711 175.455 331.532 173.098 327.549C166.422 326.056 161.646 322.837 158.401 318.195C156.611 319.358 154.848 320.502 153.059 321.665C153.27 322.246 153.456 322.844 153.657 323.41C157.384 332.684 163.729 340.481 163.398 352.063C165.995 352.499 166.646 354.208 166.165 356.687C172.733 364.858 175.498 375.312 178.368 385.694C180.214 388.223 182.191 390.661 181.205 394.751C181.495 395.277 181.795 395.817 182.085 396.343C189.396 401.522 188.398 411.649 191.458 419.358C190.969 418.993 190.439 418.679 189.888 418.446C190.439 418.679 190.969 418.993 191.458 419.358C192.287 420.655 193.142 421.934 193.961 423.216C192.964 423.957 191.968 424.698 190.971 425.439C191.266 425.917 191.572 426.41 191.841 426.906C192.064 429.003 192.251 431.103 192.474 433.199C190.512 434.615 188.56 436.046 187.338 437.298C188.56 436.046 190.486 434.633 192.474 433.199C192.251 431.103 192.064 429.003 191.841 426.906C191.546 426.428 191.266 425.917 190.971 425.439C191.968 424.698 192.964 423.957 193.961 423.216C197.547 429.012 201.441 434.636 200.802 442.833C201.827 445.076 202.815 447.322 203.839 449.565C205.077 453.336 206.201 457.165 207.555 460.878C208.995 464.884 209.159 469.34 202.615 474.424C196.191 479.401 191.204 479.046 187.504 476.532C184.001 477.744 183.482 475.612 181.907 474.638C176.152 473.517 169.884 472.997 166.208 469.517C158.076 467.386 151.354 463.827 145.259 459.609C142.52 457.97 139.817 456.326 137.078 454.686C137.122 453.86 137.14 453.053 137.184 452.227C138.478 451.3 139.762 450.359 141.082 449.413C139.788 450.34 138.494 451.267 137.184 452.227C137.166 453.035 137.122 453.86 137.104 454.668C132.465 454.644 131.162 451.558 128.841 449.405C122.178 448.764 120.099 443.902 115.754 441.132C109.842 438.62 104.205 435.892 101.78 430.367C93.9345 429.868 94.3379 421.946 87.375 420.653C85.8128 418.919 84.2404 417.17 82.6782 415.436C76.5101 414.78 75.9681 409.617 73.1141 406.313C72.2049 405.623 71.2958 404.934 70.3605 404.263C72.2445 402.791 74.1389 401.334 76.0229 399.862L70.3605 404.263L70.3398 404.233C65.2029 403.497 63.9854 399.645 62.1365 396.279C61.3423 395.421 60.5586 394.577 59.7645 393.719C58.9569 392.12 58.1129 390.524 57.3054 388.925C58.1129 390.524 58.9569 392.12 59.7645 393.719C53.8856 392.089 51.8426 387.445 49.3507 383.159C48.946 382.691 48.5412 382.223 48.1365 381.755C47.4495 381.661 47.0183 381.323 46.8115 380.805C40.3691 379.59 39.1247 374.255 36.1007 370.319C34.7637 368.184 30.0971 368.621 30.8788 364.85C30.6299 364.494 30.5583 364.059 30.6275 363.547C24.4724 362.021 22.6123 357.138 20.0947 352.76C18.6111 350.86 17.164 348.957 15.6805 347.058C14.8677 347.229 14.5456 346.99 14.7038 346.327C9.69757 345.389 8.29247 341.602 6.29772 338.249C5.35339 337.121 3.98663 336.222 3.51691 334.828C2.8565 332.772 -1.68577 331.664 3.14646 328.02C8.21347 324.213 10.1687 326.842 11.5048 329.309C16.0838 330.303 19.3325 332.227 17.4521 337.759C17.9522 337.697 18.2746 337.824 18.4716 338.106C19.4657 338.25 20.4598 338.394 21.4539 338.538C25.5836 338.279 26.0541 341.174 27.5477 343.199C26.8434 343.691 26.139 344.184 25.4243 344.661C25.0085 344.4 24.6449 344.102 24.3492 343.735C22.3119 344.21 20.2746 344.685 18.2374 345.159C20.2746 344.685 22.3119 344.21 24.3492 343.735C24.6449 344.102 25.0085 344.4 25.4139 344.646C26.1183 344.154 26.8226 343.661 27.5373 343.184C30.5501 349.159 38.5928 351.551 39.4871 359.052C46.3764 360.573 49.0801 365.439 51.5593 370.485C52.2938 370.369 52.6524 370.604 52.5725 371.212C57.9726 370.991 57.6886 375.474 60.0823 377.731C60.5132 378.18 60.9597 378.597 61.3905 379.046C68.7074 385.678 77.4751 391.162 82.9809 399.259C87.8351 402.313 93.5244 404.673 95.4765 410.131L95.4504 410.149C100.206 409.452 100.243 412.782 101.544 415.031C100.677 415.681 99.8111 416.33 98.9553 416.995L101.544 415.031C109.217 417.394 112.343 423.754 118.507 427.46C125.049 426.706 123.714 432.74 127.437 434.399C134.416 437.38 140.925 440.801 143.91 447.237C144.629 447.154 145.05 447.367 145.174 447.877C159.033 448.146 165.873 455.928 176.071 460.125L176.228 460.016C177.846 460.275 179.459 460.583 181.088 460.857C183.146 462.466 185.213 464.09 187.27 465.699C187.874 465.895 188.357 466.197 188.72 466.606C189.26 467.377 189.982 467.91 190.939 468.168C189.982 467.91 189.26 467.377 188.72 466.606C191.209 464.998 193.068 463.213 193.433 461.014C191.409 458.786 189.349 456.561 187.325 454.333C187.149 453.749 187.063 453.125 187.08 452.428C186.684 445.528 181.036 441.506 181.704 434.017C180.188 430.572 175.204 429.221 177.246 423.642C176.487 419.778 172.776 417.581 173.711 412.754C173.261 411.721 172.801 410.674 172.351 409.642C169.21 406.538 166.278 403.289 167.529 397.578C166.923 396.545 166.306 395.496 165.674 394.481C161.46 391.288 161.848 385.342 159.992 380.744C158.305 378.832 156.092 377.222 157.629 373.475C148.976 360.712 144.126 345.664 139.443 330.523C139.012 330.184 138.971 329.682 139.301 328.987C135.152 327.053 136.881 321.803 135.798 318.144L133.927 315.19C130.838 313.994 132.148 311.09 134.152 307.901C134.048 305.809 131.636 304.691 133.821 301.595C134.206 298.368 134.241 295.252 140.418 292.809C145.261 290.903 149.101 289.896 152 292.153C157.777 296.637 162.693 301.724 166.773 307.505C172.736 305.478 172.418 309.189 173.342 311.789C173.898 312.084 174.387 312.449 174.807 312.884C191.884 322.253 208.961 331.622 226.037 340.991C228.551 341.53 231.08 342.036 233.593 342.575C241.392 341.009 243.352 345.534 246.931 348.375C247.973 348.309 249.051 348.24 250.093 348.174C258.107 347.915 265.41 348.638 271.515 351.038C269.456 351.815 267.408 352.607 265.349 353.384C263.412 351.669 260.621 351.677 257.176 352.805C260.621 351.677 263.422 351.684 265.349 353.384C267.408 352.607 269.456 351.815 271.515 351.038L271.364 351.21C274.755 350.672 278.46 349.693 279.295 352.554L284.756 352.865L299.603 353.768C313.34 349.86 326.694 348.627 341.074 340.251L343.755 338.531C344.052 338.566 344.4 338.565 344.765 338.531C344.4 338.565 344.052 338.566 343.755 338.531C345.905 336.829 348.045 335.112 350.195 333.409C351.016 330.583 350.362 328.037 353.272 324.81L353.679 322.45C354.213 321.657 354.829 320.983 355.518 320.413C354.829 320.983 354.213 321.657 353.679 322.45C351.168 312.414 348.657 302.378 346.145 292.342C343.523 288.258 340.305 284.546 340.531 278.757C339.951 277.705 339.381 276.668 338.801 275.617C336.713 273.742 334.24 272.093 336.21 267.911C335.804 267.775 335.466 267.57 335.196 267.295C331.287 266.87 329.079 265.323 331.513 260.75C328.058 260.251 325.891 258.874 327.454 254.888C324.525 253.866 325.108 250.589 324.031 248.382C323.295 247.44 322.548 246.483 321.811 245.54C316.481 237.917 309.309 231.493 307.871 221.325C307.136 221.552 306.793 221.395 306.831 220.838C302.705 219.77 301.433 216.84 302.034 212.644C299.651 208.458 294.78 205.769 296.57 199.108C294.847 196.977 295.916 194.729 300.265 192.726C305.197 190.448 310.376 189.41 311.663 192.419C315.18 200.559 325.048 203.729 329.061 211.412C328.526 212.647 327.965 213.9 327.43 215.135C327.666 216.251 327.877 217.385 328.113 218.5C327.877 217.385 327.666 216.251 327.43 215.135C327.965 213.9 328.526 212.647 329.061 211.412C337.648 217.972 346.262 224.514 354.849 231.074C359 230.733 359.59 233.633 361.413 235.406C366.287 235.156 367.907 238.306 371.283 239.634C374.994 239.887 373.355 245.097 378.434 244.085C385.977 244.596 391.243 247.517 395.679 251.305C397.13 251.77 398.581 252.234 400.022 252.684C400.668 252.719 401.11 252.962 401.259 253.453C405.487 251.889 407.168 253.96 409.926 254.46C412.615 253.529 413.842 254.284 414.274 255.902C418.44 255.75 423.542 254.103 426.144 256.435C426.481 257.083 426.843 257.713 427.18 258.361C426.817 257.731 426.481 257.083 426.144 256.435C433.21 254.763 437.608 256.943 442.582 258.28C453.911 254.929 465.089 253.694 476.693 245.514C476.786 247.591 476.905 249.65 477.008 251.742C473.049 253.914 469.091 256.085 465.133 258.257L465.231 258.342ZM59.289 387.206C59.009 386.806 58.8281 386.38 58.7096 385.933C58.8281 386.38 59.009 386.806 59.289 387.206C63.3154 386.688 65.6505 387.639 67.2651 389.226C65.6608 387.653 63.3258 386.703 59.289 387.206ZM162.156 459.167C165.74 460.349 169.601 461.204 173.598 461.921C173.694 462.891 173.541 463.727 173.169 464.473C173.541 463.727 173.72 462.873 173.598 461.921C169.601 461.204 165.74 460.349 162.156 459.167ZM181.437 473.354C181.226 472.442 181.14 471.486 181.592 470.354C181.167 471.468 181.226 472.442 181.437 473.354ZM172.335 386.842C172.36 385.544 172.045 384.373 171.909 383.122C172.045 384.373 172.349 385.53 172.335 386.842ZM172.207 387.992C173.305 387.952 174.378 387.931 175.477 387.892C175.233 390.932 175.016 393.955 174.773 396.996C175.267 397.092 175.783 397.107 176.283 397.044C175.757 397.125 175.267 397.092 174.773 396.996C175.016 393.955 175.233 390.932 175.477 387.892C174.378 387.931 173.305 387.952 172.207 387.992ZM140.792 303.788C140.015 304.287 139.263 304.768 138.486 305.267C139.263 304.768 140.015 304.287 140.792 303.788ZM151.624 313.614C151.868 314.129 152.126 314.61 152.396 315.106C150.855 316.625 148.321 318 147.321 319.626C148.321 318 150.855 316.625 152.406 315.121C152.137 314.625 151.894 314.11 151.635 313.629L151.624 313.614ZM156.183 303.913C156.599 304.174 156.926 304.475 157.154 304.802C156.915 304.46 156.562 304.177 156.183 303.913ZM157.185 304.846C157.309 305.024 157.423 305.187 157.496 305.402C157.434 305.202 157.336 305.006 157.185 304.846ZM193.338 328.832C191.797 328.629 190.405 327.748 188.759 327.728C190.405 327.748 191.797 328.629 193.312 328.851C196.008 332.707 200.929 334.19 206.065 335.48C200.929 334.19 195.982 332.725 193.312 328.851L193.338 328.832ZM218.753 339.239C219.345 339.752 219.389 340.649 218.244 342.399C218.638 342.963 219.09 343.442 219.734 343.698C219.116 343.424 218.638 342.963 218.244 342.399C219.389 340.649 219.345 339.752 218.753 339.239ZM272.463 358.06C275.727 358.228 277.924 360.314 281.355 360.167C277.924 360.314 275.727 358.228 272.463 358.06ZM347.113 292.615C347.113 292.615 346.983 292.596 346.806 292.565L347.113 292.615ZM341.196 263.099C340.787 262.458 340.378 261.817 340.077 261.166C340.351 261.835 340.797 262.473 341.196 263.099ZM330.717 237.613C325.836 238.354 324.907 237.414 325.844 235.698C324.917 237.428 325.836 238.354 330.717 237.613ZM310.713 214.502C311.868 214.71 312.684 215.266 312.81 216.613C314.419 216.858 315.838 217.499 317.52 217.626C315.864 217.481 314.445 216.84 312.81 216.613C312.684 215.266 311.858 214.695 310.713 214.502ZM328.99 222.922C328.781 223.178 328.609 223.431 328.436 223.684C328.583 223.449 328.781 223.178 328.99 222.922ZM334.291 230.058L334.128 230.436L334.291 230.058Z" fill="#B5DCD9"/>
</svg>
