<svg width="64" height="64" viewBox="0 0 64 64" fill="none" xmlns="http://www.w3.org/2000/svg">
<path d="M58.7771 0H5.22288C2.33836 0 0 2.33836 0 5.22288V58.7771C0 61.6616 2.33836 64 5.22288 64H58.7771C61.6616 64 64 61.6616 64 58.7771V5.22288C64 2.33836 61.6616 0 58.7771 0Z" fill="#EBEDED"/>
<path d="M32.1325 44.0097L32.1322 44.0098C31.5222 44.2365 30.8788 44.36 30.2284 44.3754V46.4821C30.2427 46.5579 30.2385 46.636 30.2161 46.7098C30.1932 46.7853 30.152 46.854 30.0962 46.9097C30.0403 46.9655 29.9716 47.0066 29.896 47.0294C29.8221 47.0518 29.7439 47.056 29.668 47.0417H29.4187C29.3442 47.0525 29.2683 47.0454 29.197 47.0211C29.1246 46.9964 29.0592 46.9545 29.0065 46.8991C28.9537 46.8436 28.9152 46.7763 28.8942 46.7028C28.8736 46.6309 28.8704 46.5552 28.8847 46.4819V44.3775C28.3076 44.3282 27.7393 44.2047 27.1938 44.0101L27.1935 44.01C26.7116 43.8344 26.2469 43.6151 25.805 43.3549L25.805 43.3549C25.4444 43.1417 25.1037 42.8968 24.7868 42.623C24.5552 42.4288 24.3369 42.2194 24.1333 41.9961C24.0747 41.9516 24.0275 41.8938 23.9956 41.8275C23.9631 41.7597 23.9475 41.6849 23.9503 41.6098C23.9531 41.5346 23.9742 41.4612 24.0117 41.396C24.0485 41.3319 24.1 41.2776 24.1621 41.2375L24.386 41.0388C24.4378 40.9894 24.4997 40.9516 24.5673 40.9278C24.6353 40.904 24.7076 40.895 24.7793 40.9013C24.851 40.9077 24.9206 40.9294 24.9833 40.9648C25.0445 40.9993 25.0977 41.0463 25.1397 41.1026C25.1716 41.1318 25.2045 41.1622 25.2387 41.1937C25.3992 41.3419 25.5867 41.5149 25.8217 41.7084L25.8219 41.7085C26.133 41.9663 26.469 42.1927 26.8248 42.3844C27.2574 42.6158 27.7133 42.8005 28.185 42.9356C28.726 43.0904 29.2865 43.1663 29.8493 43.1609L29.8501 43.1608C30.3412 43.1638 30.8302 43.0965 31.3021 42.9609L31.3027 42.9607C31.7447 42.8396 32.1594 42.6351 32.5244 42.3583L32.5244 42.3583C32.8742 42.0932 33.1611 41.7543 33.3646 41.3658C33.5778 40.9414 33.6836 40.4712 33.6725 39.9965L33.6725 39.9935L33.6725 39.9936C33.6838 39.6859 33.6312 39.3793 33.518 39.093C33.4049 38.8068 33.2337 38.5471 33.0152 38.3301C32.5326 37.8678 31.975 37.4904 31.3661 37.2141L31.3654 37.2138C30.7047 36.9016 29.9782 36.6044 29.1908 36.3222C28.4367 36.0521 27.7056 35.7218 27.0046 35.3346C26.3606 34.9837 25.7908 34.5116 25.3266 33.9444L25.3255 33.9431L25.3255 33.943C24.8534 33.324 24.6136 32.5593 24.6479 31.782C24.6333 31.1574 24.7611 30.5377 25.0215 29.9697L25.0218 29.9691L25.0218 29.9691C25.2619 29.4627 25.599 29.0081 26.0141 28.631C26.4346 28.2469 26.9263 27.9486 27.4614 27.7528L27.4622 27.7525L27.4622 27.7525C28.0272 27.5569 28.6132 27.4287 29.2082 27.3706V25.5179C29.1939 25.4421 29.1981 25.364 29.2205 25.2902C29.2434 25.2147 29.2846 25.146 29.3405 25.0903C29.3963 25.0345 29.465 24.9934 29.5406 24.9706C29.6145 24.9482 29.6928 24.944 29.7686 24.9583H30.0169C30.0927 24.944 30.1709 24.9482 30.2449 24.9706C30.3204 24.9934 30.3892 25.0345 30.445 25.0903C30.5009 25.146 30.5421 25.2147 30.565 25.2902C30.5874 25.364 30.5916 25.4421 30.5772 25.5179V27.3697C31.3885 27.432 32.1828 27.6355 32.924 27.9712C33.3985 28.1846 33.8464 28.4526 34.2586 28.7697L34.2618 28.7722L34.2617 28.7723C34.3649 28.866 34.4291 28.995 34.4415 29.1338C34.4538 29.2726 34.4135 29.4109 34.3284 29.5213L34.3269 29.5233L34.3268 29.5232L34.1549 29.7251L34.1536 29.7267L34.1536 29.7266C34.059 29.8289 33.9294 29.8919 33.7905 29.9032C33.6519 29.9145 33.514 29.8735 33.4043 29.7882C32.9903 29.4868 32.5445 29.2316 32.0749 29.027C31.3427 28.7223 30.5533 28.579 29.7605 28.6069L29.7585 28.607C29.2891 28.6048 28.8212 28.6603 28.3653 28.772C27.9385 28.8797 27.5335 29.06 27.168 29.305C26.8154 29.5491 26.5278 29.8753 26.33 30.2555C26.1156 30.6885 26.0099 31.1671 26.022 31.65L26.022 31.6536L26.0219 31.6536C26.007 31.9669 26.0579 32.2798 26.1711 32.5724C26.2843 32.8647 26.4574 33.1302 26.6793 33.3519C27.1655 33.8127 27.7225 34.193 28.329 34.4782L28.3294 34.4784C29.0362 34.8186 29.7619 35.1178 30.5031 35.3748C30.5031 35.3748 30.5031 35.3748 30.5032 35.3748L30.4868 35.422L32.1325 44.0097ZM32.1325 44.0097C32.6936 43.797 33.2123 43.4862 33.6644 43.0921L33.6644 43.092M32.1325 44.0097L33.6644 43.092M33.6644 43.092C34.0985 42.7126 34.4473 42.2459 34.6881 41.7224L34.6883 41.7219M33.6644 43.092L34.6883 41.7219M34.6883 41.7219C34.9321 41.1742 35.0544 40.5803 35.0466 39.981C35.0819 39.1912 34.8426 38.4135 34.3693 37.7797L34.3693 37.7797M34.6883 41.7219L34.3693 37.7797M34.3693 37.7797L34.3682 37.7783M34.3693 37.7797L34.3682 37.7783M34.3682 37.7783C33.9053 37.2018 33.3357 36.7195 32.6904 36.3577L34.3682 37.7783Z" fill="#00344E" stroke="#00344E" stroke-width="0.1"/>
<path d="M12.6942 35.0199C12.8783 35.0199 13.0548 34.9468 13.185 34.8166C13.3152 34.6864 13.3883 34.5099 13.3883 34.3258V22.6073H35.8156C35.9997 22.6073 36.1762 22.5342 36.3064 22.404C36.4366 22.2738 36.5097 22.0972 36.5097 21.9131C36.5097 21.729 36.4366 21.5525 36.3064 21.4223C36.1762 21.2921 35.9997 21.219 35.8156 21.219H13.3883V18.4677C13.3883 17.5924 13.736 16.7529 14.355 16.134C14.9739 15.515 15.8133 15.1673 16.6886 15.1673H44.8142C45.265 15.1664 45.7112 15.2584 46.1248 15.4375C46.5385 15.6167 46.9108 15.8791 47.2185 16.2085C47.2825 16.2732 47.3587 16.3245 47.4426 16.3596C47.5265 16.3946 47.6166 16.4127 47.7076 16.4127C47.7986 16.4127 47.8886 16.3946 47.9725 16.3596C48.0565 16.3245 48.1327 16.2732 48.1966 16.2085C48.2615 16.144 48.313 16.0673 48.3481 15.9829C48.3832 15.8984 48.4013 15.8078 48.4013 15.7163C48.4013 15.6248 48.3832 15.5342 48.3481 15.4498C48.313 15.3653 48.2615 15.2886 48.1966 15.2241C47.7588 14.765 47.2319 14.4 46.6481 14.1515C46.0644 13.903 45.436 13.7763 44.8016 13.779H16.6886C15.4451 13.779 14.2526 14.273 13.3733 15.1523C12.494 16.0316 12 17.2242 12 18.4677V34.3258C12 34.5099 12.0731 34.6864 12.2033 34.8166C12.3335 34.9468 12.5101 35.0199 12.6942 35.0199V35.0199Z" fill="#00344E"/>
<path d="M48.8151 38.8566C48.631 38.8566 48.4544 38.9298 48.3242 39.0599C48.194 39.1901 48.1209 39.3667 48.1209 39.5508V46.5932C48.1192 47.4691 47.7701 48.3085 47.1502 48.9273C46.5302 49.5461 45.6901 49.8936 44.8142 49.8936H16.6886C15.8133 49.8936 14.9739 49.5459 14.355 48.9269C13.736 48.308 13.3883 47.4685 13.3883 46.5932V37.1276C13.3883 37.0364 13.3703 36.9462 13.3355 36.8619C13.3006 36.7777 13.2494 36.7012 13.185 36.6367C13.1205 36.5723 13.044 36.5211 12.9598 36.4863C12.8756 36.4514 12.7853 36.4334 12.6942 36.4334C12.603 36.4334 12.5127 36.4514 12.4285 36.4863C12.3443 36.5211 12.2678 36.5723 12.2033 36.6367C12.1388 36.7012 12.0877 36.7777 12.0528 36.8619C12.018 36.9462 12 37.0364 12 37.1276V46.5932C12 47.8367 12.494 49.0293 13.3733 49.9086C14.2526 50.7879 15.4451 51.2819 16.6886 51.2819H44.8142C46.0583 51.2819 47.2515 50.7881 48.1318 49.909C49.0121 49.0299 49.5075 47.8373 49.5092 46.5932V39.5571C49.51 39.4654 49.4927 39.3745 49.4582 39.2895C49.4237 39.2046 49.3727 39.1273 49.3081 39.0622C49.2436 38.997 49.1668 38.9453 49.0821 38.9101C48.9975 38.8748 48.9068 38.8566 48.8151 38.8566V38.8566Z" fill="#00344E"/>
<path d="M56.135 17.6662H41.4885C40.6879 17.6662 39.9201 17.9838 39.3534 18.5493C38.7867 19.1148 38.4675 19.882 38.4658 20.6826V31.8205C38.4675 32.6217 38.7865 33.3895 39.353 33.956C39.9195 34.5225 40.6874 34.8415 41.4885 34.8432H44.3535L44.2083 40.1881C44.204 40.3291 44.2428 40.468 44.3195 40.5864C44.3961 40.7047 44.507 40.797 44.6374 40.8507C44.7211 40.8865 44.8115 40.9037 44.9025 40.9012C44.9968 40.9016 45.0902 40.8828 45.177 40.8459C45.2638 40.809 45.3421 40.7548 45.4073 40.6867L51.2697 34.5151L56.1981 34.4141C56.9872 34.3928 57.7372 34.0656 58.2895 33.5015C58.8418 32.9375 59.1531 32.1808 59.1577 31.3914V20.6637C59.1511 19.8664 58.8297 19.104 58.2635 18.5426C57.6974 17.9812 56.9323 17.6662 56.135 17.6662ZM57.7694 31.3914C57.7679 31.8179 57.6004 32.2271 57.3024 32.5322C57.0044 32.8373 56.5992 33.0143 56.1729 33.0258L50.9541 33.1331C50.8615 33.1348 50.7701 33.1553 50.6855 33.1932C50.6009 33.2312 50.5249 33.2859 50.462 33.3539L45.6471 38.4023L45.7607 34.1491C45.7627 33.9607 45.6901 33.7792 45.5587 33.6442C45.4947 33.5784 45.4182 33.5261 45.3337 33.4903C45.2492 33.4546 45.1583 33.4361 45.0665 33.436H41.4885C41.0556 33.4343 40.6408 33.2616 40.3346 32.9554C40.0285 32.6493 39.8558 32.2345 39.8541 31.8016V20.6826C39.8558 20.2502 40.0287 19.8361 40.3351 19.531C40.6414 19.2258 41.0561 19.0545 41.4885 19.0545H56.135C56.5674 19.0545 56.9822 19.2258 57.2885 19.531C57.5948 19.8361 57.7677 20.2502 57.7694 20.6826V31.3914Z" fill="#00344E"/>
<path d="M54.1915 20.2346C54.1091 20.1739 54.0132 20.1341 53.9121 20.1187C53.811 20.1033 53.7076 20.1128 53.6109 20.1462L50.178 21.2569C50.0439 21.2974 49.927 21.3814 49.8459 21.4956C49.7648 21.6099 49.724 21.7479 49.73 21.8879V22.3738H45.0287C44.8614 22.3738 44.7008 22.4403 44.5825 22.5586C44.4642 22.677 44.3977 22.8375 44.3977 23.0048V27.0498C44.3977 27.2172 44.4642 27.3777 44.5825 27.496C44.7008 27.6144 44.8614 27.6809 45.0287 27.6809H45.8933C45.8933 27.6809 45.8933 27.7124 45.8933 27.725L47.4772 31.5113C47.5265 31.636 47.6142 31.7418 47.7277 31.8133C47.8411 31.8848 47.9744 31.9182 48.1082 31.9089C48.1946 31.9067 48.28 31.8896 48.3606 31.8584C48.4405 31.8268 48.5131 31.7793 48.574 31.7186C48.6349 31.658 48.6827 31.5856 48.7146 31.5059C48.7465 31.4261 48.7618 31.3407 48.7595 31.2548C48.7573 31.1689 48.7375 31.0844 48.7014 31.0065L47.3131 27.7061H49.7426V28.1983C49.7366 28.3383 49.7774 28.4763 49.8586 28.5906C49.9397 28.7048 50.0565 28.7889 50.1907 28.8294L53.6236 29.9337C53.689 29.9539 53.757 29.9645 53.8255 29.9652C53.962 29.9652 54.0949 29.921 54.2041 29.839C54.2874 29.7797 54.3551 29.7011 54.4012 29.6098C54.4474 29.5186 54.4707 29.4175 54.4691 29.3153V20.7583C54.4693 20.655 54.4441 20.5531 54.3956 20.4618C54.3472 20.3705 54.2771 20.2924 54.1915 20.2346V20.2346ZM49.7426 26.3935H45.6913V23.6485H49.7426V26.3935ZM53.1755 28.3939L51.0047 27.7061V22.3359L53.144 21.6544L53.1755 28.3939Z" fill="#00344E"/>
</svg>
