<svg width="64" height="64" viewBox="0 0 64 64" fill="none" xmlns="http://www.w3.org/2000/svg">
<path d="M58.7771 0H5.22288C2.33836 0 0 2.33836 0 5.22288V58.7771C0 61.6616 2.33836 64 5.22288 64H58.7771C61.6616 64 64 61.6616 64 58.7771V5.22288C64 2.33836 61.6616 0 58.7771 0Z" fill="#E8EAEA"/>
<path d="M13.2476 34.0931H13.3263C13.5062 34.0937 13.6797 34.0265 13.8123 33.9049C13.9448 33.7833 14.0267 33.6162 14.0415 33.437C14.4537 29.5829 16.0595 25.9538 18.6345 23.0568C18.7612 22.9139 18.8261 22.7267 18.8151 22.5361C18.804 22.3455 18.7178 22.167 18.5755 22.0398C18.5051 21.9762 18.4229 21.9273 18.3334 21.8959C18.244 21.8644 18.1492 21.851 18.0546 21.8565C17.96 21.862 17.8674 21.8863 17.7822 21.9279C17.697 21.9695 17.621 22.0276 17.5585 22.0988C14.7748 25.2067 13.0314 29.1064 12.5718 33.2532C12.5561 33.3535 12.5615 33.456 12.5877 33.554C12.6138 33.6521 12.6603 33.7436 12.7239 33.8227C12.7875 33.9018 12.867 33.9667 12.9572 34.0132C13.0474 34.0598 13.1463 34.087 13.2476 34.0931V34.0931Z" fill="#00344E"/>
<path d="M42.9904 51.1462C40.1615 53.0136 36.8795 54.0796 33.4933 54.231C30.107 54.3823 26.743 53.6133 23.7589 52.0057C23.6749 51.9441 23.5785 51.9014 23.4764 51.8805C23.3743 51.8597 23.2689 51.8612 23.1675 51.8849C23.066 51.9087 22.9709 51.9541 22.8887 52.0181C22.8065 52.0821 22.7391 52.1631 22.6911 52.2557C22.6432 52.3482 22.6159 52.45 22.611 52.554C22.6062 52.6581 22.6239 52.762 22.663 52.8586C22.7021 52.9552 22.7617 53.0421 22.8376 53.1135C22.9135 53.1849 23.0039 53.239 23.1027 53.2721C26.3162 55.0061 29.94 55.8359 33.5878 55.673C37.2357 55.51 40.771 54.3605 43.8171 52.3469C43.9611 52.2354 44.0576 52.0736 44.0873 51.894C44.117 51.7143 44.0777 51.5301 43.9772 51.3782C43.8768 51.2263 43.7227 51.118 43.5457 51.075C43.3688 51.0319 43.1821 51.0574 43.0232 51.1462H42.9904Z" fill="#00344E"/>
<path d="M51.2709 33.4631C51.2873 33.643 51.3705 33.8101 51.5041 33.9316C51.6377 34.0531 51.812 34.12 51.9926 34.1193H52.0714C52.1675 34.1111 52.2611 34.0838 52.3465 34.0388C52.4319 33.9939 52.5074 33.9323 52.5685 33.8577C52.6297 33.783 52.6753 33.6969 52.7026 33.6043C52.7299 33.5118 52.7384 33.4147 52.7275 33.3188C52.2079 28.6279 50.0602 24.2676 46.6582 20.9965C46.5917 20.9292 46.5125 20.8758 46.4252 20.8394C46.3379 20.8029 46.2443 20.7842 46.1497 20.7842C46.0551 20.7842 45.9615 20.8029 45.8742 20.8394C45.7869 20.8758 45.7077 20.9292 45.6412 20.9965C45.5737 21.0635 45.5202 21.1433 45.4837 21.2311C45.4471 21.3189 45.4283 21.4131 45.4283 21.5083C45.4283 21.6034 45.4471 21.6976 45.4837 21.7854C45.5202 21.8732 45.5737 21.953 45.6412 22.02C48.7988 25.0583 50.7909 29.1076 51.2709 33.4631Z" fill="#00344E"/>
<path d="M22.6894 27.886C22.8808 27.886 23.0644 27.8099 23.1998 27.6746C23.3351 27.5392 23.4112 27.3556 23.4112 27.1642C23.4112 26.9728 23.3351 26.7892 23.1998 26.6539C23.0644 26.5185 22.8808 26.4425 22.6894 26.4425C22.2352 26.4425 21.7996 26.262 21.4785 25.9409C21.1573 25.6197 20.9769 25.1841 20.9769 24.7299V21.5411L33.1352 15.0256L43.0167 20.57V24.7365C43.0167 25.1907 42.8362 25.6263 42.5151 25.9474C42.1939 26.2686 41.7583 26.449 41.3042 26.449C41.1127 26.449 40.9291 26.5251 40.7938 26.6604C40.6584 26.7958 40.5824 26.9794 40.5824 27.1708C40.5824 27.3622 40.6584 27.5458 40.7938 27.6811C40.9291 27.8165 41.1127 27.8925 41.3042 27.8925C41.7206 27.8943 42.1332 27.8137 42.5185 27.6556C42.9037 27.4974 43.2539 27.2647 43.5489 26.9709C43.844 26.677 44.0781 26.3278 44.2379 25.9432C44.3976 25.5587 44.4799 25.1464 44.4799 24.7299V10.5048C44.4781 9.6683 44.1451 8.86655 43.5536 8.27505C42.9621 7.68356 42.1603 7.35049 41.3238 7.34875H22.6894C21.8552 7.35395 21.0568 7.68854 20.4682 8.27966C19.8795 8.87079 19.5482 9.67056 19.5465 10.5048V24.7299C19.5482 25.5642 19.8795 26.3639 20.4682 26.9551C21.0568 27.5462 21.8552 27.8808 22.6894 27.886V27.886ZM22.6894 8.79227H41.3042C41.7583 8.79227 42.1939 8.97269 42.5151 9.29386C42.8362 9.61502 43.0167 10.0506 43.0167 10.5048V18.91L33.4961 13.5755C33.3893 13.5175 33.2698 13.4871 33.1483 13.4871C33.0268 13.4871 32.9073 13.5175 32.8006 13.5755L20.9769 19.9139V10.5048C20.9769 10.0506 21.1573 9.61502 21.4785 9.29386C21.7996 8.97269 22.2352 8.79227 22.6894 8.79227V8.79227Z" fill="#00344E"/>
<path d="M25.2812 15.7868C25.803 15.7933 26.3149 15.644 26.7515 15.3581C27.1881 15.0723 27.5296 14.6627 27.7323 14.1818C27.935 13.7009 27.9897 13.1705 27.8895 12.6584C27.7893 12.1462 27.5386 11.6756 27.1696 11.3066C26.8006 10.9375 26.33 10.6869 25.8178 10.5867C25.3056 10.4865 24.7752 10.5412 24.2944 10.7439C23.8135 10.9466 23.4039 11.2881 23.118 11.7247C22.8322 12.1613 22.6829 12.6732 22.6894 13.195C22.6979 13.8797 22.9737 14.534 23.4579 15.0183C23.9421 15.5025 24.5964 15.7783 25.2812 15.7868V15.7868ZM25.2812 12.0468C25.5085 12.0455 25.7312 12.1117 25.9209 12.2371C26.1106 12.3625 26.2588 12.5413 26.3467 12.751C26.4346 12.9607 26.4583 13.1918 26.4147 13.415C26.3711 13.6381 26.2623 13.8434 26.102 14.0046C25.9417 14.1658 25.7371 14.2759 25.5142 14.3207C25.2912 14.3655 25.06 14.3432 24.8498 14.2565C24.6396 14.1698 24.4599 14.0226 24.3335 13.8336C24.207 13.6447 24.1395 13.4224 24.1395 13.195C24.1386 13.0442 24.1675 12.8947 24.2244 12.7551C24.2813 12.6155 24.3651 12.4884 24.4712 12.3812C24.5772 12.2739 24.7033 12.1886 24.8422 12.1301C24.9812 12.0716 25.1304 12.0411 25.2812 12.0402V12.0468Z" fill="#00344E"/>
<path d="M26.7248 47.1503V44.6176C26.7248 44.4262 26.6487 44.2426 26.5134 44.1073C26.378 43.9719 26.1944 43.8959 26.003 43.8959C25.8116 43.8959 25.628 43.9719 25.4926 44.1073C25.3573 44.2426 25.2812 44.4262 25.2812 44.6176V47.1503C25.2812 47.7107 25.0586 48.2481 24.6624 48.6443C24.2662 49.0405 23.7288 49.2631 23.1685 49.2631H9.19267C8.63232 49.2631 8.09493 49.0405 7.69871 48.6443C7.30249 48.2481 7.07989 47.7107 7.07989 47.1503V38.9945C7.07989 38.4359 7.3018 37.9002 7.69679 37.5052C8.09178 37.1102 8.6275 36.8883 9.1861 36.8883H20.2552C20.4466 36.8883 20.6302 36.8122 20.7656 36.6769C20.9009 36.5415 20.977 36.3579 20.977 36.1665C20.977 35.9751 20.9009 35.7915 20.7656 35.6562C20.6302 35.5208 20.4466 35.4448 20.2552 35.4448H9.19267C8.25175 35.4465 7.34988 35.821 6.68455 36.4864C6.01922 37.1517 5.64468 38.0536 5.64294 38.9945V47.1503C5.64294 48.0918 6.01693 48.9947 6.68263 49.6604C7.34834 50.3261 8.25122 50.7 9.19267 50.7H23.1685C24.1105 50.7 25.0141 50.3263 25.6808 49.6608C26.3476 48.9952 26.723 48.0924 26.7248 47.1503V47.1503Z" fill="#00344E"/>
<path d="M54.7156 35.4448H44.4404C44.249 35.4448 44.0654 35.5208 43.9301 35.6562C43.7947 35.7915 43.7187 35.9751 43.7187 36.1665C43.7187 36.3579 43.7947 36.5415 43.9301 36.6769C44.0654 36.8122 44.249 36.8883 44.4404 36.8883H54.7156C55.2748 36.8883 55.8112 37.11 56.2072 37.5048C56.6033 37.8996 56.8266 38.4353 56.8284 38.9945V47.1503C56.8284 47.7107 56.6058 48.2481 56.2095 48.6443C55.8133 49.0405 55.2759 49.2631 54.7156 49.2631H40.7398C40.1806 49.2614 39.6449 49.038 39.2501 48.642C38.8553 48.2459 38.6336 47.7095 38.6336 47.1503C38.6336 46.9589 38.5575 46.7753 38.4222 46.64C38.2868 46.5046 38.1032 46.4286 37.9118 46.4286C37.7204 46.4286 37.5368 46.5046 37.4015 46.64C37.2661 46.7753 37.1901 46.9589 37.1901 47.1503C37.1901 48.0918 37.5641 48.9947 38.2298 49.6604C38.8955 50.3261 39.7983 50.7 40.7398 50.7H54.7156C55.6576 50.7 56.5612 50.3263 57.2279 49.6608C57.8947 48.9952 58.2701 48.0924 58.2719 47.1503V38.9945C58.2701 38.0524 57.8947 37.1496 57.2279 36.4841C56.5612 35.8185 55.6576 35.4448 54.7156 35.4448V35.4448Z" fill="#00344E"/>
<path d="M22.2498 39.8671L23.6933 42.3604C23.8656 42.6611 24.1381 42.8916 24.4632 43.0115C24.7883 43.1315 25.1452 43.1333 25.4715 43.0166L27.1577 42.3998C27.5034 42.6787 27.8697 42.9309 28.2535 43.1544C28.6392 43.3756 29.0405 43.5686 29.4542 43.7318L29.7561 45.4377C29.7977 45.7974 29.9695 46.1294 30.239 46.3711C30.5085 46.6128 30.8572 46.7476 31.2192 46.75H34.0931C34.4446 46.7496 34.7844 46.6238 35.0514 46.3953C35.3184 46.1668 35.4951 45.8505 35.5498 45.5033L35.8582 43.7383C36.2703 43.5765 36.6695 43.3835 37.0523 43.1609C37.4392 42.9391 37.8079 42.6868 38.1547 42.4064L39.8016 43.0035C40.1336 43.1326 40.5012 43.1373 40.8364 43.0167C41.1716 42.8961 41.4519 42.6584 41.6256 42.3473L43.0364 39.9065C43.2231 39.6037 43.2954 39.2441 43.24 38.8926C43.1847 38.5412 43.0054 38.2212 42.7345 37.9905L41.3566 36.8357C41.3598 36.7767 41.3598 36.7176 41.3566 36.6586C41.4085 36.278 41.4348 35.8944 41.4354 35.5103C41.4355 35.1284 41.4092 34.7469 41.3566 34.3686C41.3598 34.3052 41.3598 34.2417 41.3566 34.1784L42.7345 33.0301L42.7739 32.9907C43.0228 32.7638 43.187 32.4588 43.2394 32.1261C43.2919 31.7933 43.2295 31.4527 43.0626 31.1601L41.6256 28.6668C41.6098 28.6415 41.5923 28.6174 41.5732 28.5946C41.3925 28.3165 41.1224 28.1083 40.8074 28.0045C40.4925 27.9007 40.1515 27.9075 39.8409 28.0238L38.1547 28.634C37.8074 28.3573 37.4412 28.1051 37.0589 27.8794C36.6731 27.6602 36.2717 27.4694 35.8582 27.3086L35.5563 25.6026C35.5176 25.2429 35.3476 24.9102 35.0788 24.6681C34.81 24.426 34.4614 24.2915 34.0997 24.2903H31.2192C30.8713 24.2884 30.5339 24.41 30.2672 24.6334C30.0004 24.8569 29.8216 25.1678 29.7626 25.5107L29.4542 27.2757C29.0422 27.4353 28.643 27.6262 28.2601 27.8466C27.8746 28.0707 27.5062 28.3229 27.1577 28.6012L25.5108 28.0041C25.1785 27.8777 24.812 27.8744 24.4774 27.9948C24.1429 28.1151 23.8624 28.3511 23.6867 28.6602L22.276 31.1076C22.0893 31.4104 22.017 31.77 22.0724 32.1214C22.1277 32.4729 22.307 32.7929 22.5779 33.0235L23.9558 34.1718C23.9558 34.2374 23.9558 34.2965 23.9558 34.3555C23.9041 34.7361 23.8778 35.1197 23.877 35.5038C23.8778 35.8857 23.9041 36.2671 23.9558 36.6454C23.9526 36.7066 23.9526 36.768 23.9558 36.8292L22.5844 37.9774C22.3103 38.1992 22.1255 38.5125 22.064 38.8597C22.0026 39.2069 22.0685 39.5647 22.2498 39.8671ZM25.2024 37.6821C25.2967 37.6035 25.3688 37.5016 25.4114 37.3865C25.454 37.2713 25.4656 37.1471 25.4452 37.026C25.4452 36.8554 25.3862 36.6848 25.3599 36.5142C25.3193 36.1964 25.2974 35.8766 25.2943 35.5562C25.2974 35.2337 25.3193 34.9117 25.3599 34.5917C25.3599 34.4211 25.4124 34.2505 25.4452 34.0799C25.4719 33.9539 25.4633 33.8229 25.4205 33.7014C25.3777 33.5799 25.3022 33.4725 25.2024 33.391L23.5162 31.9081L24.2248 30.6811L24.999 29.4345L27.0528 30.1825C27.1757 30.2247 27.3075 30.2343 27.4352 30.2101C27.5629 30.186 27.6821 30.1289 27.7811 30.0447C28.52 29.3889 29.3836 28.889 30.3203 28.5749C30.4442 28.5326 30.5545 28.458 30.6398 28.3588C30.7252 28.2596 30.7825 28.1394 30.8059 28.0106L31.2192 25.8126H34.0997L34.5131 28.0106C34.5339 28.1394 34.5895 28.2601 34.6739 28.3595C34.7583 28.459 34.8683 28.5335 34.9921 28.5749C35.9287 28.889 36.7924 29.3889 37.5313 30.0447C37.6296 30.1301 37.7489 30.1879 37.8768 30.2121C38.0048 30.2363 38.1369 30.2261 38.2596 30.1825L40.3659 29.4345L40.4052 29.4935L41.8028 31.9672V32L40.1428 33.391C40.0447 33.4738 39.9705 33.5814 39.9278 33.7025C39.8851 33.8236 39.8755 33.9539 39.9 34.0799C39.9 34.2505 39.9656 34.4211 39.9853 34.5983C40.0728 35.2339 40.0728 35.8786 39.9853 36.5142C39.9853 36.6914 39.9328 36.8554 39.9 37.0194C39.875 37.1465 39.8843 37.2779 39.927 37.4002C39.9696 37.5224 40.0441 37.6311 40.1428 37.715L41.8356 39.1388V39.2044L41.1335 40.4248L40.3527 41.678L38.2596 40.9104C38.1371 40.8653 38.0047 40.8544 37.8764 40.8786C37.7482 40.9029 37.6289 40.9615 37.5313 41.0481C36.7924 41.7039 35.9287 42.2038 34.9921 42.5179C34.8688 42.5582 34.759 42.6315 34.6746 42.7298C34.5901 42.8281 34.5343 42.9477 34.5131 43.0756L34.0931 45.2803H31.2192L30.8059 43.0756C30.7834 42.9472 30.7264 42.8274 30.6408 42.7291C30.5552 42.6309 30.4444 42.5578 30.3203 42.5179C29.3867 42.197 28.5244 41.6978 27.7811 41.0481C27.6496 40.9298 27.479 40.8643 27.3021 40.8644C27.2168 40.8634 27.1321 40.879 27.0528 40.9104L24.94 41.6518L23.4833 39.106L25.2024 37.6821Z" fill="#00344E"/>
<path d="M20.0976 42.4458L14.7632 39.3685C14.6539 39.3038 14.5293 39.2697 14.4023 39.2697C14.2753 39.2697 14.1507 39.3038 14.0414 39.3685C13.932 39.4317 13.841 39.5225 13.7777 39.6319C13.7143 39.7413 13.6808 39.8654 13.6805 39.9918V46.1595C13.6808 46.2859 13.7143 46.41 13.7777 46.5194C13.841 46.6288 13.932 46.7196 14.0414 46.7828C14.1507 46.8475 14.2753 46.8816 14.4023 46.8816C14.5293 46.8816 14.6539 46.8475 14.7632 46.7828L20.0976 43.7055C20.2081 43.6424 20.2999 43.5512 20.3637 43.4412C20.4276 43.3311 20.4612 43.2062 20.4612 43.0789C20.4612 42.9517 20.4276 42.8267 20.3637 42.7167C20.2999 42.6067 20.2081 42.5155 20.0976 42.4523V42.4458ZM15.1241 44.8997V41.245L18.2932 43.0757L15.1241 44.8997Z" fill="#00344E"/>
<path d="M32.6692 39.047C33.3661 39.047 34.0473 38.8403 34.6268 38.4532C35.2062 38.066 35.6578 37.5157 35.9245 36.8719C36.1912 36.2281 36.261 35.5196 36.125 34.8361C35.9891 34.1526 35.6535 33.5248 35.1607 33.032C34.6679 32.5393 34.0401 32.2037 33.3566 32.0677C32.6731 31.9318 31.9647 32.0016 31.3209 32.2682C30.677 32.5349 30.1267 32.9865 29.7396 33.566C29.3524 34.1454 29.1458 34.8266 29.1458 35.5235C29.1475 36.4575 29.5193 37.3527 30.1797 38.0131C30.8401 38.6735 31.7353 39.0453 32.6692 39.047V39.047ZM32.6692 33.437C33.0822 33.4357 33.4862 33.557 33.8302 33.7854C34.1742 34.0139 34.4427 34.3393 34.6016 34.7205C34.7605 35.1016 34.8028 35.5214 34.723 35.9265C34.6433 36.3317 34.4451 36.7041 34.1535 36.9966C33.862 37.289 33.4902 37.4884 33.0853 37.5694C32.6803 37.6505 32.2605 37.6096 31.8788 37.4518C31.4972 37.2941 31.1709 37.0267 30.9414 36.6834C30.7118 36.3401 30.5893 35.9365 30.5893 35.5235C30.5893 34.9713 30.8082 34.4415 31.1981 34.0504C31.588 33.6593 32.117 33.4387 32.6692 33.437V33.437Z" fill="#00344E"/>
<path d="M53.3114 41.0416C53.5028 41.0416 53.6864 40.9656 53.8218 40.8302C53.9571 40.6949 54.0332 40.5113 54.0332 40.3199C54.0332 40.1284 53.9571 39.9449 53.8218 39.8095C53.6864 39.6742 53.5028 39.5981 53.3114 39.5981H47.7605C47.569 39.5981 47.3854 39.6742 47.2501 39.8095C47.1147 39.9449 47.0387 40.1284 47.0387 40.3199C47.0387 40.5113 47.1147 40.6949 47.2501 40.8302C47.3854 40.9656 47.569 41.0416 47.7605 41.0416H53.3114Z" fill="#00344E"/>
<path d="M44.4799 43.0757C44.4799 43.2671 44.5559 43.4507 44.6913 43.586C44.8266 43.7214 45.0102 43.7974 45.2016 43.7974H53.3312C53.5226 43.7974 53.7062 43.7214 53.8416 43.586C53.9769 43.4507 54.053 43.2671 54.053 43.0757C54.053 42.8843 53.9769 42.7007 53.8416 42.5653C53.7062 42.43 53.5226 42.3539 53.3312 42.3539H45.1819C44.9939 42.359 44.8154 42.4373 44.6843 42.5721C44.5531 42.707 44.4798 42.8876 44.4799 43.0757Z" fill="#00344E"/>
<path d="M40.543 45.8249C40.543 46.0163 40.619 46.1999 40.7544 46.3353C40.8897 46.4706 41.0733 46.5467 41.2647 46.5467H53.2984C53.4898 46.5467 53.6734 46.4706 53.8087 46.3353C53.9441 46.1999 54.0201 46.0163 54.0201 45.8249C54.0201 45.6335 53.9441 45.4499 53.8087 45.3145C53.6734 45.1792 53.4898 45.1031 53.2984 45.1031H41.2778C41.182 45.1014 41.0867 45.1188 40.9976 45.1543C40.9085 45.1898 40.8274 45.2427 40.759 45.3099C40.6906 45.377 40.6362 45.4572 40.5991 45.5456C40.562 45.6341 40.543 45.729 40.543 45.8249V45.8249Z" fill="#00344E"/>
</svg>
