<svg width="14" height="12" viewBox="0 0 14 12" fill="none" xmlns="http://www.w3.org/2000/svg">
<path fill-rule="evenodd" clip-rule="evenodd" d="M6.88634 0.21967C7.17923 -0.0732233 7.6541 -0.0732233 7.947 0.21967L12.947 5.21967C13.0877 5.36032 13.1667 5.55109 13.1667 5.75C13.1667 5.94891 13.0877 6.13968 12.947 6.28033L7.947 11.2803C7.6541 11.5732 7.17923 11.5732 6.88634 11.2803C6.59344 10.9874 6.59344 10.5126 6.88634 10.2197L10.606 6.5H0.75C0.335786 6.5 0 6.16421 0 5.75C0 5.33579 0.335786 5 0.75 5H10.606L6.88634 1.28033C6.59344 0.987437 6.59344 0.512563 6.88634 0.21967Z" fill="#436E82"/>
</svg>
