<svg width="69" height="64" viewBox="0 0 69 64" fill="none" xmlns="http://www.w3.org/2000/svg">
<path d="M62.6753 64H5.5752C4.09657 64 2.67851 63.4493 1.63296 62.4691C0.58741 61.4889 0 60.1595 0 58.7733V5.22673C0 3.84051 0.58741 2.51107 1.63296 1.53086C2.67851 0.550662 4.09657 0 5.5752 0H62.6915C64.1701 0 65.5882 0.550662 66.6337 1.53086C67.6793 2.51107 68.2667 3.84051 68.2667 5.22673V58.7733C68.2667 60.1595 67.6793 61.4889 66.6337 62.4691C65.5882 63.4493 64.1701 64 62.6915 64" fill="#EBEDED"/>
<path d="M25.1351 31.9119C26.6367 31.9119 27.8583 30.6903 27.8583 29.1887C27.8583 28.7493 27.753 28.3342 27.5674 27.9663L31.5834 24.8033C32.0581 25.2055 32.6716 25.4489 33.341 25.4489C34.0063 25.4489 34.6164 25.2087 35.0898 24.811L39.0474 27.9558C38.8585 28.3263 38.7512 28.7451 38.7512 29.1887C38.7512 30.6903 39.9727 31.9119 41.4744 31.9119C42.976 31.9119 44.1976 30.6903 44.1976 29.1887C44.1976 28.4556 43.9059 27.7898 43.4332 27.2997L48.5456 19.8592C48.8721 19.9981 49.2311 20.075 49.6077 20.075C51.1093 20.075 52.3309 18.8534 52.3309 17.3518C52.3309 15.8502 51.1093 14.6286 49.6077 14.6286C48.1061 14.6286 46.8845 15.8502 46.8845 17.3518C46.8845 18.0849 47.1762 18.7507 47.6489 19.2408L42.5364 26.6812C42.2099 26.5424 41.8509 26.4655 41.4743 26.4655C40.809 26.4655 40.199 26.7056 39.7255 27.1034L35.7679 23.9585C35.9568 23.588 36.0642 23.1693 36.0642 22.7257C36.0642 21.2241 34.8426 20.0025 33.341 20.0025C31.8393 20.0025 30.6178 21.224 30.6178 22.7256C30.6178 23.165 30.7231 23.5801 30.9087 23.948L26.8928 27.111C26.418 26.7087 25.8046 26.4654 25.1351 26.4654C23.6335 26.4655 22.4119 27.6871 22.4119 29.1887C22.4119 30.6903 23.6335 31.9119 25.1351 31.9119ZM49.6077 15.7179C50.5087 15.7179 51.2416 16.4508 51.2416 17.3518C51.2416 18.2528 50.5087 18.9857 49.6077 18.9857C48.7067 18.9857 47.9738 18.2528 47.9738 17.3518C47.9738 16.4508 48.7067 15.7179 49.6077 15.7179ZM41.4744 27.5548C42.3754 27.5548 43.1083 28.2877 43.1083 29.1887C43.1083 30.0897 42.3754 30.8226 41.4744 30.8226C40.5734 30.8226 39.8404 30.0897 39.8404 29.1887C39.8404 28.2877 40.5734 27.5548 41.4744 27.5548ZM33.341 21.0917C34.242 21.0917 34.975 21.8246 34.975 22.7256C34.975 23.6266 34.242 24.3595 33.341 24.3595C32.44 24.3595 31.7071 23.6266 31.7071 22.7256C31.7071 21.8246 32.44 21.0917 33.341 21.0917ZM25.1351 27.5548C26.0361 27.5548 26.769 28.2877 26.769 29.1887C26.769 30.0897 26.0361 30.8226 25.1351 30.8226C24.2341 30.8226 23.5012 30.0897 23.5012 29.1887C23.5012 28.2877 24.2341 27.5548 25.1351 27.5548Z" fill="#10334D"/>
<path d="M53.0935 48.1786H35.6286C35.3278 48.1786 35.0839 48.4224 35.0839 48.7232C35.0839 49.024 35.3278 49.2679 35.6286 49.2679H52.5488V50.7202H18.0911C17.9458 50.7202 17.8095 50.6637 17.7058 50.5595C17.603 50.4572 17.5464 50.3208 17.5464 50.1756V43.3131C17.5464 43.0123 17.3026 42.7684 17.0018 42.7684C16.701 42.7684 16.4572 43.0123 16.4572 43.3131V50.1756C16.4572 50.6125 16.6275 51.0229 16.9355 51.3298C17.2438 51.6392 17.6541 51.8095 18.0911 51.8095H53.0935C53.3943 51.8095 53.6381 51.5657 53.6381 51.2649V48.7232C53.6381 48.4224 53.3943 48.1786 53.0935 48.1786Z" fill="#10334D"/>
<path d="M17.0018 41.3887C17.3026 41.3887 17.5464 41.1448 17.5464 40.844V15.7179H18.9988V48.7232C18.9988 49.024 19.2427 49.2679 19.5435 49.2679H33.1595C33.4603 49.2679 33.7042 49.024 33.7042 48.7232C33.7042 48.4224 33.4603 48.1786 33.1595 48.1786H20.0881V15.1732C20.0881 14.8724 19.8443 14.6286 19.5435 14.6286H17.0018C16.701 14.6286 16.4572 14.8724 16.4572 15.1732V40.844C16.4572 41.1448 16.701 41.3887 17.0018 41.3887Z" fill="#10334D"/>
<path d="M23.4649 35.2524C23.1641 35.2524 22.9203 35.4962 22.9203 35.797V45.9637C22.9203 46.2645 23.1641 46.5083 23.4649 46.5083H27.0959C27.3967 46.5083 27.6405 46.2645 27.6405 45.9637V35.797C27.6405 35.4962 27.3967 35.2524 27.0959 35.2524H23.4649ZM26.5512 45.419H24.0096V36.3417H26.5512V45.419Z" fill="#10334D"/>
<path d="M31.5256 28.7893C31.2248 28.7893 30.981 29.0331 30.981 29.3339V45.9637C30.981 46.2645 31.2248 46.5083 31.5256 46.5083H35.1566C35.4573 46.5083 35.7012 46.2645 35.7012 45.9637V29.3339C35.7012 29.0331 35.4573 28.7893 35.1566 28.7893H31.5256ZM34.6119 45.4191H32.0702V29.8786H34.6119V45.4191Z" fill="#10334D"/>
<path d="M39.6589 35.2524C39.3581 35.2524 39.1143 35.4962 39.1143 35.797V45.9637C39.1143 46.2645 39.3581 46.5083 39.6589 46.5083H43.2899C43.5906 46.5083 43.8345 46.2645 43.8345 45.9637V35.797C43.8345 35.4962 43.5906 35.2524 43.2899 35.2524H39.6589ZM42.7452 45.419H40.2035V36.3417H42.7452V45.419Z" fill="#10334D"/>
<path d="M47.7922 23.4155C47.4914 23.4155 47.2476 23.6593 47.2476 23.9601V45.9637C47.2476 46.2645 47.4914 46.5083 47.7922 46.5083H51.4232C51.7239 46.5083 51.9678 46.2645 51.9678 45.9637V23.9601C51.9678 23.6593 51.7239 23.4155 51.4232 23.4155H47.7922ZM50.8785 45.4191H48.3368V24.5048H50.8785V45.4191Z" fill="#10334D"/>
</svg>
