<svg width="64" height="65" viewBox="0 0 64 65" fill="none" xmlns="http://www.w3.org/2000/svg">
<path d="M58.7771 0.539978H5.22288C2.33836 0.539978 0 2.87834 0 5.76286V59.3171C0 62.2016 2.33836 64.54 5.22288 64.54H58.7771C61.6616 64.54 64 62.2016 64 59.3171V5.76286C64 2.87834 61.6616 0.539978 58.7771 0.539978Z" fill="#EBEDED"/>
<path d="M46.6189 12.7573H17.3746C16.0811 12.7591 14.8411 13.2742 13.927 14.1895C13.0129 15.1048 12.4995 16.3454 12.4995 17.639V34.1278C12.4995 34.3193 12.5756 34.5029 12.7109 34.6382C12.8463 34.7736 13.0298 34.8496 13.2213 34.8496H19.5202C19.7117 34.8496 19.8952 34.7736 20.0306 34.6382C20.1659 34.5029 20.242 34.3193 20.242 34.1278C20.242 33.9364 20.1659 33.7528 20.0306 33.6175C19.8952 33.4821 19.7117 33.4061 19.5202 33.4061H13.943V23.4065H50.0308V29.6858C50.0308 29.7806 50.0495 29.8744 50.0857 29.962C50.122 30.0495 50.1752 30.1291 50.2422 30.1961C50.3092 30.2631 50.3888 30.3163 50.4763 30.3526C50.5639 30.3889 50.6578 30.4075 50.7525 30.4075C50.8473 30.4075 50.9412 30.3889 51.0288 30.3526C51.1163 30.3163 51.1959 30.2631 51.2629 30.1961C51.3299 30.1291 51.3831 30.0495 51.4194 29.962C51.4556 29.8744 51.4743 29.7806 51.4743 29.6858V17.639C51.4726 16.3494 50.9613 15.1127 50.0519 14.1983C49.1424 13.2839 47.9085 12.766 46.6189 12.7573ZM13.943 21.9433V17.639C13.943 16.7289 14.3046 15.8561 14.9481 15.2125C15.5917 14.5689 16.4645 14.2074 17.3746 14.2074H46.6189C47.5296 14.2074 48.4031 14.5687 49.0477 15.2121C49.6923 15.8555 50.0553 16.7283 50.057 17.639V21.963L13.943 21.9433Z" fill="#00344E"/>
<path d="M50.7788 40.4465C50.5874 40.4465 50.4038 40.5226 50.2684 40.6579C50.1331 40.7933 50.057 40.9768 50.057 41.1683V46.8833C50.0553 47.7946 49.6925 48.6681 49.0481 49.3125C48.4037 49.9569 47.5302 50.3197 46.6189 50.3214H17.3746C16.4639 50.3197 15.5911 49.9567 14.9477 49.3121C14.3044 48.6675 13.943 47.794 13.943 46.8833V37.0411C13.943 36.8497 13.867 36.6661 13.7316 36.5308C13.5963 36.3954 13.4127 36.3194 13.2213 36.3194C13.0298 36.3194 12.8463 36.3954 12.7109 36.5308C12.5756 36.6661 12.4995 36.8497 12.4995 37.0411V46.8833C12.4995 48.1762 13.0131 49.4162 13.9274 50.3305C14.8417 51.2448 16.0817 51.7584 17.3746 51.7584H46.6189C47.9124 51.7584 49.1531 51.245 50.0684 50.3309C50.9837 49.4168 51.4988 48.1768 51.5005 46.8833V41.1683C51.5005 41.0735 51.4819 40.9796 51.4456 40.8921C51.4093 40.8045 51.3562 40.7249 51.2892 40.6579C51.2221 40.5909 51.1426 40.5377 51.055 40.5015C50.9674 40.4652 50.8736 40.4465 50.7788 40.4465Z" fill="#00344E"/>
<path d="M19.0674 17.5275H17.3942C17.2028 17.5275 17.0192 17.6035 16.8839 17.7389C16.7485 17.8742 16.6725 18.0578 16.6725 18.2492C16.6725 18.4407 16.7485 18.6242 16.8839 18.7596C17.0192 18.8949 17.2028 18.971 17.3942 18.971H19.0674C19.2588 18.971 19.4424 18.8949 19.5778 18.7596C19.7131 18.6242 19.7892 18.4407 19.7892 18.2492C19.7892 18.0578 19.7131 17.8742 19.5778 17.7389C19.4424 17.6035 19.2588 17.5275 19.0674 17.5275Z" fill="#00344E"/>
<path d="M23.7785 17.5275H22.1053C21.9139 17.5275 21.7303 17.6035 21.5949 17.7389C21.4596 17.8742 21.3835 18.0578 21.3835 18.2492C21.3835 18.4407 21.4596 18.6242 21.5949 18.7596C21.7303 18.8949 21.9139 18.971 22.1053 18.971H23.7785C23.9699 18.971 24.1535 18.8949 24.2888 18.7596C24.4242 18.6242 24.5002 18.4407 24.5002 18.2492C24.5002 18.0578 24.4242 17.8742 24.2888 17.7389C24.1535 17.6035 23.9699 17.5275 23.7785 17.5275Z" fill="#00344E"/>
<path d="M41.2714 27.468H22.7222C22.5308 27.468 22.3472 27.544 22.2119 27.6794C22.0765 27.8147 22.0005 27.9983 22.0005 28.1897V43.4712C22.0005 43.6627 22.0765 43.8462 22.2119 43.9816C22.3472 44.117 22.5308 44.193 22.7222 44.193H41.2714C41.4628 44.193 41.6464 44.117 41.7817 43.9816C41.9171 43.8462 41.9931 43.6627 41.9931 43.4712V34.8495H48.0165L45.5625 37.9531C45.4675 38.1055 45.4327 38.2878 45.4648 38.4644C45.497 38.6411 45.5939 38.7994 45.7366 38.9085C45.8793 39.0175 46.0575 39.0695 46.2364 39.0542C46.4153 39.0389 46.5821 38.9574 46.7042 38.8258L50.0899 34.528C50.1867 34.4019 50.2392 34.2474 50.2392 34.0884C50.2392 33.9294 50.1867 33.7749 50.0899 33.6488L46.7042 29.1739C46.651 29.0893 46.5808 29.0166 46.4981 28.9605C46.4154 28.9044 46.3219 28.8661 46.2235 28.848C46.1252 28.83 46.0242 28.8325 45.927 28.8555C45.8297 28.8785 45.7382 28.9215 45.6584 28.9817C45.5786 29.0419 45.5122 29.118 45.4633 29.2052C45.4145 29.2924 45.3843 29.3888 45.3747 29.4883C45.365 29.5878 45.3762 29.6883 45.4074 29.7832C45.4386 29.8782 45.4892 29.9656 45.556 30.04L48.0887 33.406H41.98V28.1897C41.98 28.0005 41.9058 27.8189 41.7733 27.6839C41.6407 27.549 41.4605 27.4714 41.2714 27.468ZM40.5496 42.7626H23.444V28.9115H40.5496V42.7626Z" fill="#00344E"/>
<path d="M36.6978 31.9495H30.4907C30.3489 31.985 30.2229 32.067 30.133 32.1823C30.043 32.2976 29.9941 32.4396 29.9941 32.5859C29.9941 32.7322 30.043 32.8742 30.133 32.9896C30.2229 33.1049 30.3489 33.1868 30.4907 33.2224H35.7989L34.4866 37.0411H29.2375V30.7946C29.2375 30.6206 29.1684 30.4537 29.0453 30.3307C28.9223 30.2076 28.7554 30.1385 28.5814 30.1385H27.2691C27.1272 30.1741 27.0013 30.256 26.9113 30.3713C26.8213 30.4866 26.7725 30.6287 26.7725 30.775C26.7725 30.9212 26.8213 31.0633 26.9113 31.1786C27.0013 31.2939 27.1272 31.3759 27.2691 31.4114H27.9252V37.6579C27.9252 37.8319 27.9944 37.9988 28.1174 38.1218C28.2405 38.2449 28.4074 38.314 28.5814 38.314H34.9066C35.0373 38.3105 35.1639 38.268 35.2703 38.192C35.3767 38.1161 35.4579 38.01 35.5037 37.8875L37.2752 32.7959C37.3075 32.7001 37.3171 32.5981 37.3035 32.498C37.2898 32.3978 37.2532 32.3021 37.1965 32.2185C37.1388 32.1392 37.064 32.0739 36.9777 32.0274C36.8914 31.9808 36.7958 31.9542 36.6978 31.9495Z" fill="#00344E"/>
<path d="M28.9882 39.2326C28.7956 39.2313 28.607 39.2873 28.4463 39.3935C28.2856 39.4998 28.1601 39.6513 28.0858 39.8291C28.0115 40.0068 27.9917 40.2026 28.029 40.3915C28.0662 40.5805 28.1588 40.7542 28.295 40.8904C28.4312 41.0266 28.6049 41.1192 28.7939 41.1564C28.9828 41.1937 29.1786 41.1739 29.3563 41.0996C29.5341 41.0253 29.6856 40.8998 29.7919 40.7391C29.8981 40.5784 29.9541 40.3898 29.9528 40.1972C29.9528 39.9413 29.8512 39.696 29.6703 39.5151C29.4894 39.3342 29.2441 39.2326 28.9882 39.2326Z" fill="#00344E"/>
<path d="M34.3293 39.2326C34.1367 39.2313 33.948 39.2873 33.7873 39.3935C33.6266 39.4998 33.5012 39.6513 33.4269 39.8291C33.3525 40.0068 33.3328 40.2026 33.37 40.3915C33.4073 40.5805 33.4999 40.7542 33.6361 40.8904C33.7723 41.0266 33.9459 41.1192 34.1349 41.1564C34.3239 41.1937 34.5197 41.1739 34.6974 41.0996C34.8751 41.0253 35.0267 40.8998 35.1329 40.7391C35.2391 40.5784 35.2951 40.3898 35.2938 40.1972C35.2938 39.9413 35.1922 39.696 35.0113 39.5151C34.8304 39.3342 34.5851 39.2326 34.3293 39.2326Z" fill="#00344E"/>
</svg>
