<svg width="69" height="64" viewBox="0 0 69 64" fill="none" xmlns="http://www.w3.org/2000/svg">
<path d="M62.6753 64H5.5752C4.09657 64 2.67851 63.4493 1.63296 62.4691C0.58741 61.4889 0 60.1595 0 58.7733V5.22673C0 3.84051 0.58741 2.51107 1.63296 1.53086C2.67851 0.550662 4.09657 0 5.5752 0H62.6915C64.1701 0 65.5882 0.550662 66.6337 1.53086C67.6793 2.51107 68.2667 3.84051 68.2667 5.22673V58.7733C68.2667 60.1595 67.6793 61.4889 66.6337 62.4691C65.5882 63.4493 64.1701 64 62.6915 64" fill="#EBEDED"/>
<path d="M42.9293 35.1656L38.3335 34.0562C38.2577 34.0169 38.1942 33.9574 38.1501 33.8842C38.106 33.8111 38.083 33.7272 38.0836 33.6418V30.6368C38.8669 30.0597 39.5039 29.3069 39.9432 28.4388C40.3825 27.5707 40.612 26.6116 40.6131 25.6387V21.7926C40.6131 21.7926 40.6131 21.7926 40.6131 21.7621C40.616 21.7216 40.616 21.6808 40.6131 21.6402C40.6131 21.6402 40.6131 21.6097 40.6131 21.5915C40.5965 21.5491 40.5762 21.5083 40.5522 21.4696C40.614 21.3784 40.6537 21.274 40.668 21.1648C40.8692 19.4216 41.4055 14.7953 36.8646 14.1979C33.0489 13.6981 30.428 14.2467 29.0688 15.8315C28.6856 16.3001 28.4046 16.8437 28.244 17.4273C28.0834 18.011 28.0467 18.6218 28.1362 19.2204C27.0208 19.7629 26.1308 20.3968 26.3503 21.2806C26.46 21.7256 26.7465 22.1644 28.2215 22.4509V25.6814C28.2231 26.7728 28.5118 27.8447 29.0585 28.7893C29.6051 29.734 30.3907 30.5183 31.3362 31.0635V33.6844C31.3356 33.7703 31.3113 33.8544 31.2662 33.9275C31.2211 34.0006 31.1567 34.0599 31.0802 34.0989L26.4844 35.2082C24.9772 35.5694 23.6353 36.427 22.6746 37.6431C21.7138 38.8592 21.1901 40.3632 21.1876 41.913V48.4837C21.1876 48.6696 21.2615 48.8478 21.3929 48.9793C21.5244 49.1108 21.7027 49.1846 21.8886 49.1846C22.0745 49.1846 22.2528 49.1108 22.3842 48.9793C22.5157 48.8478 22.5895 48.6696 22.5895 48.4837V41.9069C22.5825 40.666 22.9963 39.4594 23.7635 38.4841C24.5307 37.5088 25.6059 36.8224 26.8135 36.537L31.4703 35.4155L31.5739 35.3789C31.9183 35.2392 32.2132 34.9998 32.4207 34.6914C32.6281 34.3829 32.7386 34.0196 32.7381 33.6479V31.6242C33.2926 31.786 33.8672 31.8681 34.4448 31.8681C35.2276 31.868 36.0033 31.719 36.7305 31.4292V33.6479C36.7254 34.0214 36.8348 34.3875 37.044 34.697C37.2532 35.0065 37.5522 35.2444 37.9008 35.3789L37.9983 35.4155L42.655 36.537C43.8627 36.8224 44.9379 37.5088 45.7051 38.4841C46.4723 39.4594 46.8861 40.666 46.8791 41.9069V47.9473C46.8954 48.1227 46.9766 48.2857 47.1069 48.4043C47.2371 48.523 47.4069 48.5887 47.583 48.5887C47.7592 48.5887 47.9291 48.523 48.0593 48.4043C48.1895 48.2857 48.2707 48.1227 48.2871 47.9473V41.9069C48.2832 40.3565 47.7582 38.8525 46.7964 37.6364C45.8346 36.4204 44.492 35.5631 42.9842 35.2021L42.9293 35.1656ZM29.2089 20.2688C29.3635 20.1981 29.4878 20.0745 29.5593 19.9203C29.6309 19.7661 29.645 19.5913 29.599 19.4277C29.4819 18.9666 29.4699 18.4852 29.5638 18.0189C29.6577 17.5526 29.8551 17.1133 30.1415 16.7336C31.1594 15.5511 33.4268 15.1549 36.6817 15.5877C38.9308 15.8802 39.6806 17.4162 39.2661 20.9941C39.2568 21.0588 39.2568 21.1245 39.2661 21.1892C33.4573 21.5427 29.1785 21.3537 27.9351 20.9454C28.3343 20.6785 28.759 20.4519 29.2029 20.2688H29.2089ZM29.6234 25.6753V22.6277C30.5682 22.713 31.7933 22.7618 33.3842 22.7618H33.567C35.8162 22.7618 38.0592 22.6459 39.1868 22.585V25.6326C39.2099 26.2798 39.1023 26.925 38.8705 27.5296C38.6387 28.1343 38.2875 28.6861 37.8378 29.1521C37.3882 29.618 36.8492 29.9886 36.2531 30.2418C35.6571 30.4949 35.0161 30.6254 34.3686 30.6254C33.721 30.6254 33.0801 30.4949 32.484 30.2418C31.888 29.9886 31.349 29.618 30.8993 29.1521C30.4496 28.6861 30.0984 28.1343 29.8666 27.5296C29.6349 26.925 29.5272 26.2798 29.5503 25.6326" fill="#003350"/>
<path d="M40.0768 42.5712L36.4745 42.0531L34.8654 38.7861C34.8217 38.6975 34.7539 38.623 34.6698 38.5712C34.5857 38.5195 34.4887 38.4925 34.3899 38.4935C34.2919 38.4922 34.1955 38.5191 34.1123 38.571C34.0291 38.6228 33.9626 38.6975 33.9206 38.7861L32.3053 42.0531L28.7031 42.5712C28.6058 42.586 28.5145 42.6275 28.4394 42.6912C28.3644 42.7549 28.3086 42.8383 28.2782 42.9319C28.2478 43.0255 28.2441 43.1257 28.2675 43.2214C28.2908 43.317 28.3404 43.4042 28.4105 43.4733L31.0193 46.015L30.4097 49.6051C30.3934 49.7022 30.4041 49.8019 30.4407 49.8932C30.4772 49.9846 30.5382 50.0642 30.617 50.1232C30.7076 50.1879 30.8165 50.2221 30.9278 50.2207C31.0131 50.2224 31.0972 50.2013 31.1716 50.1598L34.396 48.4653L37.6204 50.1598C37.7074 50.2049 37.8051 50.2254 37.9029 50.2189C38.0006 50.2125 38.0948 50.1794 38.1751 50.1232C38.2549 50.0651 38.3167 49.9857 38.3533 49.894C38.39 49.8024 38.4001 49.7022 38.3823 49.6051L37.7728 46.015L40.3815 43.4733C40.4517 43.4042 40.5012 43.317 40.5245 43.2214C40.5479 43.1257 40.5442 43.0255 40.5139 42.9319C40.4835 42.8383 40.4277 42.7549 40.3526 42.6912C40.2776 42.6275 40.1863 42.586 40.089 42.5712H40.0768ZM36.8402 45.4543C36.7787 45.5143 36.7326 45.5883 36.7061 45.6701C36.6795 45.7519 36.6733 45.8389 36.6878 45.9236L37.1693 48.7274L34.6337 47.3925C34.5589 47.352 34.4751 47.3307 34.3899 47.3307C34.3048 47.3307 34.221 47.352 34.1461 47.3925L31.6227 48.7152L32.1042 45.9114C32.1198 45.8267 32.1141 45.7394 32.0875 45.6574C32.0609 45.5755 32.0142 45.5014 31.9518 45.4421L29.9099 43.4611L32.732 43.0527C32.8164 43.0408 32.8965 43.0084 32.9655 42.9585C33.0346 42.9086 33.0904 42.8426 33.1282 42.7662L34.3899 40.2123L35.6516 42.7662C35.6902 42.842 35.7463 42.9075 35.8152 42.9573C35.8841 43.0071 35.9638 43.0398 36.0478 43.0527L38.8699 43.4611L36.8402 45.4543Z" fill="#003350"/>
<path d="M19.6881 32.3312C19.6836 30.1438 20.1697 27.9833 21.1106 26.0086C22.0515 24.0339 23.4234 22.2954 25.125 20.9209C25.1967 20.8625 25.2561 20.7905 25.2999 20.7091C25.3437 20.6277 25.3711 20.5385 25.3804 20.4465C25.3898 20.3546 25.3809 20.2616 25.3543 20.1731C25.3278 20.0845 25.284 20.0021 25.2256 19.9305C25.1672 19.8588 25.0952 19.7994 25.0138 19.7556C24.9324 19.7117 24.8432 19.6844 24.7512 19.675C24.6592 19.6657 24.5663 19.6746 24.4777 19.7011C24.3892 19.7277 24.3068 19.7715 24.2351 19.8299C21.5301 22.0324 19.6114 25.0519 18.7664 28.4363C17.9214 31.8207 18.1956 35.3877 19.5479 38.6032C19.6028 38.7304 19.6939 38.8387 19.8099 38.9145C19.9258 38.9904 20.0615 39.0305 20.2001 39.0299C20.2942 39.0294 20.3873 39.0108 20.4744 38.975C20.5593 38.9391 20.6363 38.8868 20.701 38.8211C20.7656 38.7553 20.8167 38.6775 20.8512 38.592C20.8858 38.5065 20.9031 38.415 20.9022 38.3228C20.9014 38.2306 20.8823 38.1395 20.8462 38.0546C20.078 36.2445 19.684 34.2976 19.6881 32.3312Z" fill="#003350"/>
<path d="M42.9719 18.7023C42.8918 18.653 42.8029 18.6201 42.7101 18.6052C42.6173 18.5904 42.5225 18.5939 42.4311 18.6157C42.3397 18.6375 42.2535 18.6771 42.1774 18.7322C42.1012 18.7873 42.0367 18.8569 41.9875 18.9369C41.9383 19.017 41.9053 19.1059 41.8905 19.1987C41.8756 19.2915 41.8792 19.3863 41.901 19.4777C41.9228 19.5691 41.9624 19.6554 42.0175 19.7315C42.0726 19.8076 42.1421 19.8721 42.2222 19.9213C45.0238 21.6828 47.1495 24.3378 48.2555 27.4568C49.3616 30.5759 49.3834 33.9769 48.3174 37.1099C48.2591 37.2861 48.2724 37.4783 48.3545 37.6448C48.4366 37.8113 48.5809 37.9388 48.7563 37.9998C48.8311 38.0238 48.9093 38.0361 48.9879 38.0364C49.1344 38.0365 49.2773 37.9907 49.3965 37.9055C49.5157 37.8202 49.6051 37.6997 49.6523 37.5609C50.8142 34.1295 50.7884 30.407 49.579 26.992C48.3695 23.577 46.0467 20.668 42.9841 18.7327" fill="#003350"/>
</svg>
