<svg width="68" height="64" viewBox="0 0 68 64" fill="none" xmlns="http://www.w3.org/2000/svg">
<path d="M62.4305 64H5.55342C4.08057 64 2.66804 63.4493 1.62658 62.4691C0.585115 61.4889 0 60.1595 0 58.7733V5.22673C0 3.84051 0.585115 2.51107 1.62658 1.53086C2.66804 0.550662 4.08057 0 5.55342 0H62.4466C63.9194 0 65.332 0.550662 66.3734 1.53086C67.4149 2.51107 68 3.84051 68 5.22673V58.7733C68 60.1595 67.4149 61.4889 66.3734 62.4691C65.332 63.4493 63.9194 64 62.4466 64" fill="#EBEDED"/>
<path d="M43.4608 51.402C43.2559 51.4042 43.0517 51.3776 42.8542 51.3232C42.2346 51.1646 41.7027 50.7679 41.3741 50.2192L34.9867 39.4643C32.0591 40.1445 28.9843 39.743 26.3296 38.3338C23.6748 36.9246 21.6193 34.6029 20.5422 31.797C19.465 28.991 19.439 25.8902 20.4689 23.0666C21.4988 20.243 23.5152 17.8872 26.1459 16.4337C28.7767 14.9802 31.8443 14.5272 34.7829 15.1582C37.7215 15.7892 40.3327 17.4617 42.1348 19.8671C43.9369 22.2724 44.8083 25.2484 44.5883 28.2459C44.3682 31.2434 43.0715 34.0602 40.9374 36.1766L47.2156 46.7495C47.5399 47.2975 47.6358 47.9511 47.4825 48.5693C47.324 49.1888 46.9272 49.7208 46.3785 50.0493L44.6801 51.0563C44.3126 51.2744 43.8941 51.3915 43.4669 51.396L43.4608 51.402ZM35.3385 37.9539C35.4604 37.9531 35.5804 37.984 35.6867 38.0435C35.793 38.1031 35.8821 38.1893 35.9451 38.2936L42.6177 49.4973C42.6824 49.6118 42.7694 49.7121 42.8736 49.7924C42.9778 49.8726 43.097 49.9311 43.2242 49.9644C43.3529 49.9972 43.4868 50.0038 43.618 49.984C43.7493 49.9642 43.8753 49.9184 43.9885 49.8492L45.687 48.8422C45.8011 48.7747 45.9008 48.6853 45.9803 48.5792C46.0598 48.4731 46.1175 48.3523 46.1502 48.2238C46.1829 48.0953 46.1899 47.9616 46.1708 47.8304C46.1517 47.6992 46.1068 47.573 46.0388 47.4592L39.4694 36.4071C39.387 36.2675 39.3552 36.1038 39.3795 35.9435C39.4038 35.7832 39.4827 35.6363 39.6029 35.5275C41.6213 33.7185 42.9045 31.2308 43.2087 28.5375C43.5129 25.8441 42.8167 23.1329 41.2526 20.9193C39.6884 18.7057 37.3654 17.1441 34.7251 16.5313C32.0849 15.9185 29.3114 16.2973 26.9322 17.5956C24.5529 18.894 22.7338 21.0214 21.8205 23.5733C20.9072 26.1253 20.9636 28.9239 21.9789 31.437C22.9941 33.9502 24.8975 36.0026 27.3271 37.2041C29.7567 38.4056 32.5431 38.6725 35.1565 37.9539C35.2189 37.945 35.2822 37.945 35.3446 37.9539" fill="#003350"/>
<path d="M32.5482 32.8282C30.8743 32.8258 29.2304 32.3842 27.7806 31.5475C26.3309 30.7109 25.126 29.5085 24.2864 28.0604C24.224 27.9536 24.1912 27.8322 24.1912 27.7085C24.1912 27.5849 24.224 27.4635 24.2864 27.3567C25.1241 25.9069 26.3285 24.7031 27.7787 23.8661C29.2289 23.0292 30.8738 22.5886 32.5482 22.5886C34.2226 22.5886 35.8675 23.0292 37.3177 23.8661C38.7679 24.7031 39.9723 25.9069 40.81 27.3567C40.8723 27.4635 40.9052 27.5849 40.9052 27.7085C40.9052 27.8322 40.8723 27.9536 40.81 28.0604C39.9695 29.5076 38.7644 30.7094 37.3149 31.5459C35.8653 32.3825 34.2218 32.8246 32.5482 32.8282V32.8282ZM25.7119 27.7085C26.45 28.8503 27.4624 29.789 28.6565 30.439C29.8507 31.089 31.1886 31.4295 32.5482 31.4295C33.9078 31.4295 35.2457 31.089 36.4399 30.439C37.634 29.789 38.6464 28.8503 39.3845 27.7085C38.6474 26.5654 37.6354 25.6254 36.4411 24.9745C35.2468 24.3236 33.9083 23.9825 32.5482 23.9825C31.188 23.9825 29.8496 24.3236 28.6553 24.9745C27.461 25.6254 26.449 26.5654 25.7119 27.7085" fill="#003350"/>
<path d="M32.5481 30.7779C31.9345 30.7791 31.3344 30.5982 30.8238 30.258C30.3131 29.9179 29.9149 29.4339 29.6795 28.8672C29.4441 28.3006 29.3822 27.6768 29.5016 27.075C29.6211 26.4731 29.9164 25.9202 30.3503 25.4864C30.7841 25.0525 31.337 24.7572 31.9388 24.6378C32.5407 24.5183 33.1644 24.5803 33.7311 24.8156C34.2977 25.051 34.7818 25.4492 35.1219 25.9599C35.462 26.4705 35.643 27.0707 35.6418 27.6843C35.6418 28.5048 35.3158 29.2916 34.7357 29.8718C34.1555 30.4519 33.3686 30.7779 32.5481 30.7779V30.7779ZM32.5481 25.9858C32.2119 25.9846 31.883 26.0832 31.6029 26.2691C31.3228 26.455 31.1041 26.7198 30.9746 27.0301C30.8451 27.3403 30.8107 27.682 30.8755 28.0119C30.9404 28.3418 31.1016 28.645 31.3389 28.8831C31.5762 29.1212 31.8788 29.2836 32.2085 29.3496C32.5381 29.4157 32.8799 29.3824 33.1906 29.254C33.5013 29.1256 33.767 28.9079 33.9539 28.6285C34.1408 28.349 34.2405 28.0205 34.2405 27.6843C34.2389 27.2353 34.0603 26.8052 33.7434 26.4872C33.4266 26.1691 32.997 25.989 32.5481 25.9858" fill="#003350"/>
<path d="M43.4607 51.4021C43.2558 51.4042 43.0517 51.3777 42.8541 51.3232C42.5461 51.2475 42.2565 51.1108 42.0023 50.9212C41.748 50.7315 41.5344 50.4928 41.374 50.2192L34.9866 39.4643C32.8444 39.9785 30.6037 39.9115 28.4961 39.2702C28.4084 39.2431 28.327 39.199 28.2564 39.1405C28.1858 39.0819 28.1275 39.01 28.0847 38.9289C28.0419 38.8478 28.0154 38.7591 28.0069 38.6677C27.9984 38.5764 28.008 38.4843 28.0351 38.3967C28.0621 38.3091 28.1062 38.2276 28.1648 38.157C28.2233 38.0865 28.2952 38.0281 28.3763 37.9853C28.4575 37.9425 28.5462 37.9161 28.6375 37.9075C28.7288 37.899 28.8209 37.9086 28.9086 37.9357C30.934 38.5608 33.0965 38.5903 35.1383 38.0206C35.2861 37.9791 35.4435 37.9875 35.5861 38.0445C35.7287 38.1015 35.8484 38.204 35.9268 38.3361L42.5994 49.5459C42.6647 49.6592 42.752 49.7584 42.8562 49.8376C42.9603 49.9167 43.0793 49.9743 43.206 50.0069C43.4652 50.0722 43.7397 50.0329 43.9703 49.8977L45.6687 48.8847C45.7829 48.8172 45.8825 48.7278 45.962 48.6217C46.0415 48.5155 46.0992 48.3948 46.1319 48.2663C46.1646 48.1378 46.1716 48.0041 46.1525 47.8729C46.1334 47.7417 46.0886 47.6155 46.0206 47.5017L39.4511 36.4495C39.3687 36.31 39.3369 36.1462 39.3613 35.986C39.3856 35.8257 39.4645 35.6788 39.5846 35.57C41.739 33.609 43.0356 30.8793 43.1945 27.9705C43.3534 25.0616 42.3618 22.207 40.4338 20.023C40.3729 19.9545 40.326 19.8747 40.296 19.788C40.2659 19.7014 40.2531 19.6097 40.2585 19.5182C40.2638 19.4266 40.2872 19.3371 40.3272 19.2546C40.3671 19.1721 40.423 19.0982 40.4915 19.0373C40.56 18.9763 40.6398 18.9295 40.7264 18.8994C40.813 18.8693 40.9047 18.8566 40.9963 18.8619C41.0878 18.8673 41.1774 18.8906 41.2599 18.9306C41.3424 18.9706 41.4162 19.0264 41.4772 19.0949C42.0025 19.6892 42.4716 20.3309 42.8784 21.0117C44.2903 23.4005 44.8665 26.1914 44.5161 28.944C44.1657 31.6966 42.9087 34.2541 40.9434 36.213L47.2216 46.7859C47.545 47.3363 47.6385 47.9919 47.4818 48.6107C47.3251 49.2295 46.9309 49.7617 46.3845 50.0918L44.6861 51.0988C44.3186 51.3168 43.9001 51.434 43.4729 51.4385" fill="#003350"/>
<path d="M26.743 38.4877C26.6314 38.4854 26.5216 38.4585 26.4215 38.4088C25.1435 37.745 23.9917 36.8622 23.0185 35.8005C22.9556 35.7333 22.9066 35.6543 22.8743 35.5681C22.842 35.4819 22.8271 35.3902 22.8304 35.2982C22.8337 35.2062 22.8553 35.1158 22.8937 35.0322C22.9322 34.9485 22.9868 34.8733 23.0544 34.8109C23.122 34.7485 23.2014 34.7 23.2878 34.6684C23.3742 34.6368 23.4661 34.6225 23.5581 34.6266C23.65 34.6306 23.7403 34.6528 23.8236 34.6918C23.907 34.7309 23.9817 34.7861 24.0437 34.8542C24.9141 35.7934 25.9402 36.5753 27.0766 37.1653C27.2133 37.2393 27.3217 37.3564 27.3848 37.4984C27.4479 37.6405 27.4622 37.7994 27.4255 37.9504C27.3888 38.1014 27.3031 38.236 27.1819 38.3332C27.0606 38.4304 26.9106 38.4847 26.7552 38.4877" fill="#003350"/>
<path d="M22.0724 34.0656C21.9495 34.0682 21.8281 34.0375 21.7213 33.9766C21.6145 33.9157 21.5261 33.827 21.4658 33.7198C20.6294 32.3146 20.0782 30.7582 19.8438 29.1398C19.6094 27.5213 19.6964 25.8725 20.0998 24.2876C20.5032 22.7028 21.215 21.2131 22.1947 19.9037C23.1743 18.5942 24.4025 17.4907 25.809 16.6564C26.3594 16.3255 26.9355 16.0395 27.5317 15.8011C27.617 15.7668 27.7081 15.7497 27.8 15.7506C27.8918 15.7516 27.9826 15.7707 28.0671 15.8067C28.1516 15.8428 28.2281 15.8951 28.2924 15.9608C28.3567 16.0264 28.4074 16.1041 28.4416 16.1893C28.4759 16.2745 28.493 16.3657 28.492 16.4575C28.4911 16.5494 28.472 16.6401 28.436 16.7246C28.3999 16.8091 28.3476 16.8857 28.2819 16.95C28.2163 17.0142 28.1387 17.0649 28.0534 17.0992C27.5259 17.3138 27.0149 17.5673 26.5248 17.8574C24.0034 19.3579 22.1807 21.7979 21.4574 24.6414C20.734 27.4849 21.169 30.4993 22.6669 33.0223C22.7305 33.1287 22.7646 33.2502 22.7657 33.3742C22.7667 33.4982 22.7347 33.6203 22.6729 33.7278C22.6111 33.8353 22.5218 33.9244 22.4141 33.9859C22.3064 34.0474 22.1843 34.0791 22.0603 34.0777" fill="#003350"/>
<path d="M38.0013 17.8514C37.8802 17.8508 37.7613 17.8195 37.6556 17.7604C35.4799 16.5204 32.9482 16.0542 30.4735 16.438C30.3811 16.4508 30.2871 16.4453 30.1968 16.4218C30.1065 16.3982 30.0218 16.3571 29.9474 16.3008C29.873 16.2444 29.8105 16.174 29.7634 16.0934C29.7163 16.0129 29.6855 15.9239 29.6728 15.8314C29.6583 15.7391 29.6627 15.6449 29.6856 15.5543C29.7085 15.4637 29.7496 15.3787 29.8063 15.3045C29.863 15.2302 29.9341 15.1682 30.0154 15.1222C30.0968 15.0762 30.1866 15.0471 30.2794 15.0368C33.0671 14.606 35.9187 15.1297 38.3714 16.523C38.5037 16.6007 38.607 16.7197 38.6655 16.8616C38.724 17.0036 38.7344 17.1607 38.6953 17.3092C38.6561 17.4576 38.5694 17.5892 38.4485 17.6838C38.3276 17.7784 38.1791 17.8308 38.0256 17.8332" fill="#003350"/>
<path d="M27.9198 51.9601C27.8455 51.9599 27.7718 51.9476 27.7014 51.9237C27.6142 51.8959 27.5333 51.851 27.4635 51.7916C27.3937 51.7323 27.3365 51.6596 27.295 51.578L14.0288 25.7796C13.9869 25.6979 13.9614 25.6088 13.954 25.5174C13.9465 25.4259 13.9572 25.3338 13.9854 25.2465C14.0135 25.1592 14.0587 25.0782 14.1182 25.0084C14.1777 24.9385 14.2504 24.8811 14.3321 24.8394L16.528 23.7111C16.6083 23.648 16.7014 23.6034 16.8009 23.5803C16.9003 23.5571 17.0036 23.5561 17.1034 23.5773C17.2033 23.5985 17.2973 23.6413 17.3788 23.7028C17.4603 23.7642 17.5274 23.8429 17.5752 23.9331C17.623 24.0233 17.6504 24.1228 17.6555 24.2248C17.6606 24.3268 17.6433 24.4286 17.6047 24.5231C17.5662 24.6177 17.5073 24.7026 17.4324 24.7719C17.3575 24.8412 17.2682 24.8932 17.171 24.9242L15.5938 25.731L28.217 50.2859L36.7093 45.9185C36.7896 45.8554 36.8828 45.8107 36.9822 45.7876C37.0817 45.7645 37.185 45.7635 37.2848 45.7847C37.3847 45.8059 37.4787 45.8487 37.5602 45.9102C37.6417 45.9716 37.7087 46.0502 37.7565 46.1404C37.8043 46.2306 37.8317 46.3302 37.8368 46.4322C37.842 46.5341 37.8246 46.636 37.7861 46.7305C37.7475 46.825 37.6887 46.91 37.6138 46.9793C37.5388 47.0486 37.4496 47.1006 37.3523 47.1317L28.2534 51.8206C28.1557 51.8707 28.0478 51.8977 27.938 51.8995" fill="#003350"/>
<path d="M46.8697 42.2121C46.7444 42.2086 46.6223 42.172 46.5157 42.1059C46.4092 42.0399 46.322 41.9467 46.2631 41.836C46.1781 41.6703 46.1623 41.4776 46.2192 41.3002C46.276 41.1229 46.4009 40.9752 46.5664 40.8898L52.7598 37.693L40.1366 13.1381L37.9225 14.2724C37.8418 14.3404 37.7467 14.3892 37.6445 14.4151C37.5422 14.441 37.4354 14.4434 37.3321 14.4221C37.2287 14.4008 37.1316 14.3563 37.048 14.292C36.9643 14.2277 36.8963 14.1452 36.8492 14.0509C36.802 13.9565 36.7768 13.8527 36.7756 13.7472C36.7743 13.6417 36.797 13.5373 36.8419 13.4418C36.8869 13.3464 36.9529 13.2624 37.0349 13.1961C37.117 13.1298 37.2131 13.083 37.3159 13.0593L40.1487 11.6035C40.2302 11.5606 40.3195 11.5347 40.4112 11.5274C40.503 11.5201 40.5953 11.5315 40.6825 11.561C40.7698 11.5888 40.8506 11.6337 40.9204 11.6931C40.9902 11.7524 41.0474 11.8251 41.0889 11.9068L54.3551 37.7051C54.3971 37.7868 54.4225 37.8759 54.43 37.9673C54.4374 38.0588 54.4267 38.1509 54.3986 38.2382C54.3704 38.3256 54.3253 38.4065 54.2658 38.4763C54.2063 38.5462 54.1336 38.6036 54.0518 38.6454L47.2034 42.1636C47.1065 42.216 46.998 42.2431 46.8879 42.2425" fill="#003350"/>
</svg>
