<svg width="64" height="64" viewBox="0 0 64 64" fill="none" xmlns="http://www.w3.org/2000/svg">
<path d="M58.7771 0H5.22288C2.33836 0 0 2.33836 0 5.22288V58.7771C0 61.6616 2.33836 64 5.22288 64H58.7771C61.6616 64 64 61.6616 64 58.7771V5.22288C64 2.33836 61.6616 0 58.7771 0Z" fill="#96DBD3"/>
<path d="M44.7374 29.3236C44.5633 29.3236 44.3964 29.3927 44.2734 29.5158C44.1503 29.6388 44.0812 29.8057 44.0812 29.9798V46.6917H15.1322V18.5432H32.7693C32.9486 18.5432 33.1205 18.472 33.2472 18.3453C33.3739 18.2185 33.4452 18.0466 33.4452 17.8674C33.4452 17.6881 33.3739 17.5162 33.2472 17.3895C33.1205 17.2628 32.9486 17.1916 32.7693 17.1916H15.1322V16.5748C15.0968 15.5199 15.4809 14.4939 16.2003 13.7216C16.9198 12.9493 17.9159 12.4936 18.9707 12.4542H32.7497C32.9237 12.4542 33.0906 12.3851 33.2136 12.262C33.3367 12.139 33.4058 11.9721 33.4058 11.7981C33.4058 11.6241 33.3367 11.4572 33.2136 11.3341C33.0906 11.2111 32.9237 11.1419 32.7497 11.1419H18.9707C17.5581 11.1797 16.2182 11.7765 15.2451 12.8012C14.272 13.826 13.7453 15.1949 13.7806 16.6076V49.3425C13.7471 50.7547 14.2744 52.1226 15.2471 53.147C16.2198 54.1713 17.5587 54.7686 18.9707 54.8081H40.2296C41.6405 54.7669 42.9777 54.1689 43.949 53.1447C44.9203 52.1206 45.4467 50.7536 45.4132 49.3425V29.9929C45.415 29.9039 45.3987 29.8155 45.3653 29.7331C45.3319 29.6506 45.2821 29.5758 45.2189 29.5132C45.1556 29.4506 45.0804 29.4015 44.9976 29.3689C44.9148 29.3363 44.8263 29.3209 44.7374 29.3236ZM44.0812 49.3097C44.1149 50.3624 43.731 51.3857 43.0131 52.1564C42.2953 52.9271 41.3018 53.3826 40.2493 53.4237H18.9904C17.9368 53.3843 16.9416 52.9295 16.2223 52.1586C15.5031 51.3877 15.1183 50.3635 15.1519 49.3097V48.0564H44.0812V49.3097Z" fill="#00344E"/>
<path d="M49.8421 9.84277H37.4345C36.7384 9.84277 36.0709 10.1193 35.5787 10.6115C35.0865 11.1037 34.8099 11.7713 34.8099 12.4673V21.9092C34.8099 22.6053 35.0865 23.2728 35.5787 23.7651C36.0709 24.2573 36.7384 24.5338 37.4345 24.5338H39.7704L39.6523 28.9758C39.6425 29.1149 39.6773 29.2535 39.7516 29.3715C39.8259 29.4895 39.9359 29.5807 40.0656 29.632C40.149 29.6657 40.2381 29.6835 40.3281 29.6845C40.4191 29.6851 40.5093 29.6667 40.5929 29.6306C40.6765 29.5944 40.7517 29.5413 40.8136 29.4745L45.7609 24.2713L49.9012 24.186C50.5941 24.1758 51.2558 23.8961 51.7458 23.4061C52.2358 22.916 52.5156 22.2544 52.5257 21.5614V12.487C52.5285 12.1357 52.4606 11.7874 52.3262 11.4627C52.1918 11.1381 51.9936 10.8438 51.7433 10.5972C51.4931 10.3506 51.1958 10.1567 50.8693 10.0271C50.5427 9.89754 50.1934 9.83485 49.8421 9.84277V9.84277ZM51.1544 21.5614C51.1545 21.9028 51.0217 22.2307 50.7841 22.4757C50.5464 22.7207 50.2226 22.8635 49.8815 22.8737L45.4591 22.9656C45.3702 22.9668 45.2826 22.986 45.2013 23.0221C45.1201 23.0582 45.0471 23.1104 44.9867 23.1756L41.0498 27.3092L41.1351 23.9301C41.1383 23.8405 41.123 23.7511 41.0903 23.6676C41.0576 23.5841 41.0081 23.5082 40.9448 23.4446C40.8829 23.3778 40.8078 23.3246 40.7242 23.2885C40.6406 23.2523 40.5504 23.234 40.4593 23.2346H37.4345C37.0865 23.2346 36.7527 23.0964 36.5066 22.8503C36.2605 22.6042 36.1222 22.2704 36.1222 21.9223V12.487C36.1222 12.139 36.2605 11.8052 36.5066 11.5591C36.7527 11.313 37.0865 11.1747 37.4345 11.1747H49.8421C50.1901 11.1747 50.524 11.313 50.7701 11.5591C51.0162 11.8052 51.1544 12.139 51.1544 12.487V21.5614Z" fill="#00344E"/>
<path d="M48.018 14.941L45.3935 14.5604L44.2321 12.1983C44.1691 12.0937 44.0801 12.0072 43.9737 11.9471C43.8674 11.887 43.7473 11.8555 43.6252 11.8555C43.503 11.8555 43.383 11.887 43.2766 11.9471C43.1703 12.0072 43.0813 12.0937 43.0182 12.1983L41.8569 14.5604L39.2323 14.941C39.1041 14.9522 38.982 15.0009 38.8812 15.081C38.7804 15.1611 38.7054 15.269 38.6656 15.3914C38.6257 15.5138 38.6227 15.6452 38.657 15.7693C38.6913 15.8934 38.7613 16.0047 38.8583 16.0892L40.748 17.933L40.3018 20.5576C40.2791 20.6812 40.2923 20.8088 40.34 20.9251C40.3877 21.0414 40.4678 21.1416 40.5708 21.2137C40.6714 21.2896 40.7918 21.3349 40.9174 21.3442C41.0431 21.3535 41.1688 21.3264 41.2795 21.2662L43.6088 20.0392L45.9446 21.2662C46.043 21.3131 46.1505 21.3378 46.2596 21.3384C46.358 21.3404 46.4556 21.3202 46.5451 21.2793C46.6347 21.2385 46.7139 21.178 46.7769 21.1024C46.8399 21.0268 46.8851 20.938 46.9092 20.8425C46.9332 20.7471 46.9354 20.6474 46.9157 20.551L46.4695 17.9264L48.3592 16.0827C48.4562 15.9981 48.5263 15.8868 48.5605 15.7628C48.5948 15.6387 48.5918 15.5073 48.552 15.3849C48.5121 15.2625 48.4371 15.1545 48.3363 15.0744C48.2356 14.9943 48.1134 14.9456 47.9852 14.9344L48.018 14.941ZM45.3082 17.2112C45.228 17.2863 45.168 17.3803 45.1336 17.4847C45.0992 17.589 45.0915 17.7003 45.1113 17.8083L45.3869 19.4028L43.95 18.6482C43.8487 18.5953 43.7361 18.5677 43.6219 18.5677C43.5076 18.5677 43.3951 18.5953 43.2938 18.6482L41.8569 19.4028L42.1324 17.8083C42.1488 17.7003 42.1395 17.59 42.1053 17.4863C42.0711 17.3825 42.013 17.2883 41.9356 17.2112L40.7742 16.0761L42.3818 15.8465C42.4899 15.832 42.5927 15.7909 42.6809 15.7267C42.7691 15.6626 42.84 15.5774 42.887 15.479L43.6022 14.0224L44.324 15.479C44.371 15.5774 44.4418 15.6626 44.53 15.7267C44.6182 15.7909 44.7211 15.832 44.8292 15.8465L46.4367 16.0761L45.3082 17.2112Z" fill="#00344E"/>
<path d="M29.6002 51.6062C29.7936 51.6062 29.9826 51.5488 30.1434 51.4414C30.3041 51.334 30.4295 51.1813 30.5035 51.0026C30.5775 50.824 30.5968 50.6274 30.5591 50.4378C30.5214 50.2481 30.4283 50.0739 30.2915 49.9372C30.1548 49.8005 29.9806 49.7074 29.7909 49.6696C29.6013 49.6319 29.4048 49.6513 29.2261 49.7253C29.0475 49.7993 28.8948 49.9246 28.7874 50.0853C28.6799 50.2461 28.6226 50.4351 28.6226 50.6285C28.6226 50.8878 28.7256 51.1365 28.9089 51.3198C29.0923 51.5031 29.341 51.6062 29.6002 51.6062V51.6062Z" fill="#00344E"/>
<path d="M37.0606 39.4085H37.1393C37.2384 39.4107 37.3367 39.3905 37.4269 39.3492C37.517 39.308 37.5966 39.2469 37.6597 39.1705C37.7229 39.0941 37.7679 39.0044 37.7914 38.9081C37.8149 38.8118 37.8163 38.7115 37.7955 38.6146L35.9058 28.1163C35.8769 27.9764 35.8032 27.8497 35.6958 27.7554C35.6641 27.2936 35.5849 26.8363 35.4596 26.3907V26.3907C35.0255 24.8657 34.0748 23.5391 32.7704 22.6378C31.466 21.7365 29.8888 21.3166 28.3089 21.4499C26.729 21.5833 25.2445 22.2616 24.1096 23.3687C22.9747 24.4759 22.2599 25.9431 22.0874 27.5192C22.0608 27.6247 22.0608 27.7352 22.0874 27.8407C22.0874 27.9392 22.0874 28.031 22.0874 28.1229L20.2043 38.5883C20.1835 38.6852 20.1849 38.7856 20.2084 38.8819C20.2319 38.9782 20.2769 39.0679 20.34 39.1443C20.4031 39.2207 20.4828 39.2818 20.5729 39.323C20.6631 39.3642 20.7614 39.3845 20.8605 39.3823H20.9392L25.2238 38.8705V39.2379C25.2282 39.3769 25.1904 39.5139 25.1155 39.631C25.0405 39.7481 24.9319 39.8398 24.8039 39.894L21.6478 41.2063C20.9852 41.4805 20.3881 41.892 19.8959 42.4136C19.8304 42.475 19.7781 42.5492 19.7424 42.6316C19.7066 42.714 19.6882 42.8028 19.6882 42.8926C19.6882 42.9824 19.7066 43.0713 19.7424 43.1536C19.7781 43.236 19.8304 43.3102 19.8959 43.3716C19.9572 43.4361 20.031 43.4875 20.1128 43.5226C20.1946 43.5577 20.2826 43.5758 20.3716 43.5758C20.4606 43.5758 20.5487 43.5577 20.6305 43.5226C20.7123 43.4875 20.786 43.4361 20.8473 43.3716C21.216 42.9839 21.6635 42.6796 22.1596 42.4792L25.3157 41.167C25.6852 41.0118 26.0007 40.7509 26.2225 40.417C26.4443 40.0832 26.5626 39.6912 26.5623 39.2904V37.6435C28.1334 38.2321 29.868 38.211 31.4243 37.5844V39.2904C31.4238 39.6922 31.5426 40.085 31.7657 40.4191C31.9889 40.7532 32.3063 41.0135 32.6776 41.167L35.827 42.4792C36.4169 42.7289 36.9355 43.1212 37.3362 43.6209C37.398 43.7012 37.4775 43.7661 37.5686 43.8105C37.6597 43.8549 37.7598 43.8776 37.8611 43.8768C38.0136 43.879 38.1621 43.8279 38.281 43.7325C38.3533 43.6791 38.4138 43.6116 38.4589 43.5339C38.5039 43.4562 38.5326 43.3701 38.543 43.2809C38.5535 43.1918 38.5455 43.1014 38.5196 43.0154C38.4938 42.9294 38.4505 42.8497 38.3925 42.7811C37.8508 42.1014 37.1468 41.5689 36.3454 41.2326L33.1959 39.9203C33.065 39.8701 32.9536 39.7794 32.878 39.6613C32.8024 39.5432 32.7667 39.404 32.776 39.2641V38.8967L37.0606 39.4085ZM36.3126 37.9584L32.7563 37.5385V36.8364C34.0479 35.9478 34.9971 34.6444 35.4465 33.1424L36.3126 37.9584ZM28.8916 22.7491C29.979 22.7516 31.0413 23.0764 31.9441 23.6825C32.8469 24.2887 33.5496 25.1489 33.9636 26.1544L25.4338 28.9693L23.4653 27.4536C23.6531 26.1481 24.305 24.9539 25.3016 24.0899C26.2981 23.2259 27.5727 22.7498 28.8916 22.7491V22.7491ZM25.1976 37.5385L21.6609 37.9584L22.4615 33.5164C22.9716 34.9298 23.9332 36.1359 25.1976 36.948V37.5385ZM28.8916 36.6921C27.4351 36.6921 26.0382 36.1135 25.0082 35.0835C23.9783 34.0536 23.3997 32.6567 23.3997 31.2002V29.1005L24.9351 30.2619C25.0537 30.3469 25.1959 30.3927 25.3419 30.3931C25.4113 30.4063 25.4825 30.4063 25.5519 30.3931L34.3179 27.493C34.3544 27.7517 34.3741 28.0125 34.377 28.2738V31.233C34.3718 32.685 33.7917 34.0758 32.7638 35.1013C31.7358 36.1268 30.3436 36.7035 28.8916 36.7052V36.6921Z" fill="#00344E"/>
</svg>
