<svg width="40" height="40" viewBox="0 0 40 40" fill="none" xmlns="http://www.w3.org/2000/svg">
<path d="M20 3.33331C10.8 3.33331 3.33331 10.8 3.33331 20C3.33331 29.2 10.8 36.6666 20 36.6666C29.2 36.6666 36.6666 29.2 36.6666 20C36.6666 10.8 29.2 3.33331 20 3.33331ZM11.7833 30.4666C12.5 28.9666 16.8666 27.5 20 27.5C23.1333 27.5 27.5166 28.9666 28.2166 30.4666C25.95 32.2666 23.1 33.3333 20 33.3333C16.9 33.3333 14.05 32.2666 11.7833 30.4666ZM30.6 28.05C28.2166 25.15 22.4333 24.1666 20 24.1666C17.5666 24.1666 11.7833 25.15 9.39998 28.05C7.6294 25.7397 6.66883 22.9107 6.66665 20C6.66665 12.65 12.65 6.66665 20 6.66665C27.35 6.66665 33.3333 12.65 33.3333 20C33.3333 23.0333 32.3 25.8166 30.6 28.05ZM20 9.99998C16.7666 9.99998 14.1666 12.6 14.1666 15.8333C14.1666 19.0666 16.7666 21.6666 20 21.6666C23.2333 21.6666 25.8333 19.0666 25.8333 15.8333C25.8333 12.6 23.2333 9.99998 20 9.99998ZM20 18.3333C18.6166 18.3333 17.5 17.2166 17.5 15.8333C17.5 14.45 18.6166 13.3333 20 13.3333C21.3833 13.3333 22.5 14.45 22.5 15.8333C22.5 17.2166 21.3833 18.3333 20 18.3333Z" fill="#1C6E85"/>
</svg>
