<svg width="64" height="64" viewBox="0 0 64 64" fill="none" xmlns="http://www.w3.org/2000/svg">
<path d="M58.7771 0H5.22288C2.33836 0 0 2.33836 0 5.22288V58.7771C0 61.6616 2.33836 64 5.22288 64H58.7771C61.6616 64 64 61.6616 64 58.7771V5.22288C64 2.33836 61.6616 0 58.7771 0Z" fill="#EAECEC"/>
<path d="M48.8825 21.6002C48.7085 21.6002 48.5416 21.6693 48.4186 21.7923C48.2955 21.9154 48.2264 22.0823 48.2264 22.2563V46.6516H22.2367V34.0996C22.2367 33.9213 22.1658 33.7502 22.0397 33.6241C21.9135 33.498 21.7425 33.4271 21.5641 33.4271C21.3857 33.4271 21.2147 33.498 21.0885 33.6241C20.9624 33.7502 20.8915 33.9213 20.8915 34.0996V47.3668C20.8915 47.5408 20.9607 47.7077 21.0837 47.8308C21.2068 47.9538 21.3737 48.023 21.5477 48.023H48.8694C49.0434 48.023 49.2103 47.9538 49.3334 47.8308C49.4564 47.7077 49.5255 47.5408 49.5255 47.3668V22.2957C49.5309 22.2073 49.5183 22.1188 49.4885 22.0355C49.4588 21.9522 49.4124 21.8757 49.3524 21.8108C49.2923 21.7458 49.2197 21.6936 49.139 21.6574C49.0582 21.6213 48.971 21.6018 48.8825 21.6002V21.6002Z" fill="#00344E"/>
<path d="M21.5608 23.7392C21.7348 23.7392 21.9017 23.6701 22.0247 23.547C22.1478 23.424 22.2169 23.2571 22.2169 23.0831V11.1741H48.187V12.5717C48.187 12.7509 48.2582 12.9228 48.385 13.0496C48.5117 13.1763 48.6836 13.2475 48.8628 13.2475C49.0421 13.2475 49.214 13.1763 49.3407 13.0496C49.4674 12.9228 49.5387 12.7509 49.5387 12.5717V10.4983C49.5387 10.3243 49.4695 10.1574 49.3465 10.0343C49.2234 9.91126 49.0565 9.84213 48.8825 9.84213H21.5608C21.3868 9.84213 21.2199 9.91126 21.0968 10.0343C20.9738 10.1574 20.9047 10.3243 20.9047 10.4983V23.0634C20.902 23.1512 20.917 23.2386 20.9488 23.3205C20.9806 23.4024 21.0286 23.4771 21.0898 23.5401C21.1509 23.6031 21.2242 23.6532 21.3051 23.6874C21.386 23.7216 21.4729 23.7392 21.5608 23.7392Z" fill="#00344E"/>
<path d="M44.4076 48.2592C44.2336 48.2592 44.0667 48.3283 43.9436 48.4514C43.8206 48.5744 43.7514 48.7413 43.7514 48.9153V50.0964H15.7605V14.5926H19.507C19.681 14.5926 19.8479 14.5234 19.971 14.4004C20.094 14.2773 20.1632 14.1105 20.1632 13.9364C20.1632 13.7624 20.094 13.5955 19.971 13.4725C19.8479 13.3494 19.681 13.2803 19.507 13.2803H15.0912C14.9172 13.2803 14.7503 13.3494 14.6272 13.4725C14.5042 13.5955 14.4351 13.7624 14.4351 13.9364V50.8116C14.4351 50.9856 14.5042 51.1525 14.6272 51.2755C14.7503 51.3986 14.9172 51.4677 15.0912 51.4677H44.4076C44.5816 51.4677 44.7485 51.3986 44.8715 51.2755C44.9946 51.1525 45.0637 50.9856 45.0637 50.8116V48.9547C45.0691 48.8653 45.0561 48.7757 45.0256 48.6915C44.995 48.6073 44.9475 48.5302 44.886 48.4651C44.8246 48.3999 44.7504 48.348 44.6681 48.3126C44.5858 48.2772 44.4972 48.259 44.4076 48.2592Z" fill="#00344E"/>
<path d="M30.1037 43.1872C30.2777 43.1872 30.4446 43.1181 30.5677 42.995C30.6907 42.872 30.7599 42.7051 30.7599 42.5311V33.122C30.7599 32.948 30.6907 32.7811 30.5677 32.658C30.4446 32.535 30.2777 32.4659 30.1037 32.4659H26.1669C25.9929 32.4659 25.826 32.535 25.7029 32.658C25.5799 32.7811 25.5107 32.948 25.5107 33.122V42.5114C25.5107 42.6854 25.5799 42.8523 25.7029 42.9753C25.826 43.0984 25.9929 43.1675 26.1669 43.1675L30.1037 43.1872ZM26.8624 33.7978H29.4279V41.8355H26.8624V33.7978Z" fill="#00344E"/>
<path d="M36.6717 43.1872C36.8457 43.1872 37.0126 43.118 37.1357 42.995C37.2587 42.8719 37.3279 42.7051 37.3279 42.531V27.8663C37.3279 27.6923 37.2587 27.5254 37.1357 27.4023C37.0126 27.2793 36.8457 27.2101 36.6717 27.2101H32.7349C32.5609 27.2101 32.3939 27.2793 32.2709 27.4023C32.1478 27.5254 32.0787 27.6923 32.0787 27.8663V42.5113C32.0787 42.6854 32.1478 42.8523 32.2709 42.9753C32.3939 43.0984 32.5609 43.1675 32.7349 43.1675L36.6717 43.1872ZM33.4304 28.5421H35.9959V41.8355H33.4304V28.5421Z" fill="#00344E"/>
<path d="M43.2397 43.1872C43.4137 43.1872 43.5807 43.1181 43.7037 42.995C43.8268 42.872 43.8959 42.7051 43.8959 42.531V23.0633C43.8959 22.8893 43.8268 22.7224 43.7037 22.5994C43.5807 22.4763 43.4137 22.4072 43.2397 22.4072H39.3029C39.1289 22.4072 38.962 22.4763 38.8389 22.5994C38.7159 22.7224 38.6467 22.8893 38.6467 23.0633V42.5114C38.6467 42.6854 38.7159 42.8523 38.8389 42.9753C38.962 43.0984 39.1289 43.1675 39.3029 43.1675L43.2397 43.1872ZM39.9984 23.7392H42.5639V41.8355H39.9984V23.7392Z" fill="#00344E"/>
<path d="M48.8825 14.2842C48.0751 14.2873 47.3007 14.605 46.7237 15.1697C46.1467 15.7345 45.8125 16.5019 45.792 17.309L37.3869 19.1462C37.3006 19.1646 37.219 19.2003 37.1468 19.251C37.0747 19.3018 37.0135 19.3665 36.9669 19.4415L34.2702 23.6211L24.4871 27.2364C24.1132 26.5908 23.517 26.1034 22.8099 25.8653C22.1028 25.6272 21.3333 25.6546 20.645 25.9425C19.9567 26.2304 19.3967 26.7591 19.0697 27.4297C18.7428 28.1003 18.6712 28.8671 18.8683 29.5867C19.0654 30.3062 19.5177 30.9295 20.1408 31.3399C20.7638 31.7503 21.5151 31.9198 22.254 31.8167C22.9929 31.7137 23.6691 31.3452 24.1561 30.78C24.6431 30.2148 24.9078 29.4916 24.9005 28.7455C24.9005 28.6734 24.9005 28.6077 24.9005 28.529L34.9723 24.8087C35.1108 24.7591 35.2287 24.6643 35.3069 24.5397L37.9774 20.406L46.0807 18.6344C46.3065 19.1445 46.6658 19.5842 47.1208 19.907C47.5758 20.2298 48.1095 20.4237 48.6656 20.4683C49.2217 20.5128 49.7795 20.4063 50.28 20.16C50.7806 19.9138 51.2053 19.5368 51.5094 19.0691C51.8134 18.6014 51.9855 18.0602 52.0074 17.5028C52.0293 16.9454 51.9003 16.3924 51.6339 15.9022C51.3675 15.4121 50.9736 15.003 50.4939 14.7182C50.0143 14.4334 49.4666 14.2834 48.9087 14.2842H48.8825ZM21.8035 30.4974C21.4567 30.4987 21.1174 30.3971 20.8284 30.2054C20.5395 30.0137 20.3139 29.7405 20.1803 29.4205C20.0467 29.1005 20.0111 28.7481 20.0779 28.4078C20.1448 28.0675 20.3111 27.7547 20.5559 27.5091C20.8006 27.2634 21.1128 27.0959 21.4528 27.0278C21.7928 26.9597 22.1454 26.994 22.4659 27.1264C22.7864 27.2588 23.0604 27.4833 23.2532 27.7715C23.4459 28.0598 23.5489 28.3988 23.5489 28.7455C23.5489 29.209 23.3652 29.6536 23.0381 29.982C22.7109 30.3103 22.267 30.4957 21.8035 30.4974V30.4974ZM48.8825 19.1265C48.5373 19.1265 48.1998 19.0241 47.9128 18.8324C47.6258 18.6406 47.4021 18.368 47.27 18.0491C47.1379 17.7302 47.1033 17.3792 47.1707 17.0407C47.238 16.7021 47.4042 16.3911 47.6483 16.147C47.8924 15.9029 48.2034 15.7367 48.542 15.6694C48.8805 15.602 49.2315 15.6366 49.5504 15.7687C49.8693 15.9008 50.1419 16.1245 50.3337 16.4115C50.5255 16.6985 50.6278 17.036 50.6278 17.3812C50.6278 17.8441 50.4439 18.288 50.1166 18.6153C49.7893 18.9426 49.3454 19.1265 48.8825 19.1265V19.1265Z" fill="#00344E"/>
</svg>
