<svg width="69" height="64" viewBox="0 0 69 64" fill="none" xmlns="http://www.w3.org/2000/svg">
<path d="M62.6753 64H5.5752C4.09657 64 2.67851 63.4493 1.63296 62.4691C0.58741 61.4889 0 60.1595 0 58.7733V5.22673C0 3.84051 0.58741 2.51107 1.63296 1.53086C2.67851 0.550662 4.09657 0 5.5752 0H62.6915C64.1701 0 65.5882 0.550662 66.6337 1.53086C67.6793 2.51107 68.2667 3.84051 68.2667 5.22673V58.7733C68.2667 60.1595 67.6793 61.4889 66.6337 62.4691C65.5882 63.4493 64.1701 64 62.6915 64" fill="#EBEDED"/>
<path d="M29.6683 46.5124C26.1409 46.4971 22.6998 45.421 19.7922 43.4239C16.8847 41.4268 14.6452 38.6011 13.365 35.3143C13.3291 35.2201 13.312 35.1197 13.3149 35.0189C13.3177 34.9182 13.3404 34.8189 13.3816 34.7269C13.4229 34.6349 13.4818 34.5519 13.5551 34.4826C13.6284 34.4134 13.7145 34.3592 13.8088 34.3233C13.903 34.2874 14.0034 34.2703 14.1041 34.2732C14.2049 34.276 14.3042 34.2987 14.3962 34.3399C14.4882 34.3812 14.5712 34.4401 14.6405 34.5134C14.7097 34.5867 14.7639 34.6729 14.7998 34.7671C15.963 37.7736 18.0063 40.3591 20.6627 42.1855C23.319 44.012 26.4647 44.9943 29.6883 45.0042C33.003 45.012 36.2362 43.9779 38.931 42.0478C39.0134 41.9891 39.1065 41.9472 39.2051 41.9245C39.3037 41.9018 39.4058 41.8987 39.5056 41.9154C39.6053 41.9321 39.7008 41.9684 39.7866 42.022C39.8724 42.0756 39.9467 42.1457 40.0055 42.228C40.0642 42.3104 40.1061 42.4035 40.1288 42.5021C40.1516 42.6007 40.1546 42.7028 40.1379 42.8026C40.1212 42.9023 40.085 42.9978 40.0313 43.0836C39.9777 43.1694 39.9077 43.2437 39.8253 43.3024C36.8599 45.4109 33.3068 46.5339 29.6683 46.5124Z" fill="#003350"/>
<path d="M12.9646 29.8288C12.8632 29.8296 12.7627 29.8104 12.6688 29.7723C12.5749 29.7341 12.4896 29.6777 12.4176 29.6064C12.3456 29.535 12.2885 29.4501 12.2495 29.3566C12.2105 29.263 12.1904 29.1626 12.1904 29.0613C12.1899 25.2496 13.4354 21.5422 15.7373 18.504C18.0392 15.4658 21.2713 13.2634 24.9409 12.2324C28.6106 11.2014 32.5167 11.3984 36.064 12.7932C39.6114 14.1881 42.6055 16.7044 44.5901 19.9587C44.6427 20.0463 44.6775 20.1435 44.6925 20.2446C44.7076 20.3457 44.7026 20.4487 44.6778 20.5479C44.653 20.647 44.6089 20.7403 44.5481 20.8224C44.4872 20.9045 44.4108 20.9739 44.3232 21.0265C44.2356 21.079 44.1384 21.1138 44.0373 21.1289C43.9363 21.1439 43.8332 21.1389 43.734 21.1141C43.6349 21.0893 43.5416 21.0453 43.4594 20.9844C43.3773 20.9236 43.308 20.8471 43.2554 20.7595C41.446 17.7914 38.7158 15.4963 35.4808 14.224C32.2458 12.9518 28.6836 12.7721 25.3371 13.7125C21.9906 14.6529 19.0432 16.6617 16.9445 19.4328C14.8457 22.2038 13.7105 25.5851 13.712 29.0613C13.7121 29.2614 13.634 29.4537 13.4943 29.597C13.3547 29.7404 13.1646 29.8235 12.9646 29.8288Z" fill="#003350"/>
<path d="M40.0589 53.98C39.9203 53.9809 39.7842 53.944 39.6651 53.8732C39.5166 53.7852 39.4017 53.65 39.3388 53.4891C39.276 53.3283 39.2687 53.1511 39.3181 52.9856L43.4156 39.5519L36.8022 40.2993C36.643 40.3242 36.4799 40.2984 36.3362 40.2254C36.1925 40.1524 36.0754 40.036 36.0016 39.8927C35.9277 39.7495 35.9008 39.5866 35.9248 39.4272C35.9487 39.2678 36.0222 39.12 36.1349 39.0047L52.0711 22.5346C52.1892 22.4111 52.3451 22.3305 52.5142 22.3056C52.6832 22.2808 52.8557 22.313 53.0044 22.3973C53.153 22.4816 53.2693 22.6131 53.3348 22.7709C53.4002 22.9287 53.4111 23.1039 53.3658 23.2686L49.8088 36.5021L55.9817 36.2686C56.1366 36.2606 56.2902 36.3004 56.4215 36.3828C56.5529 36.4652 56.6557 36.5861 56.7158 36.7291C56.7776 36.8707 56.796 37.0274 56.7687 37.1794C56.7414 37.3315 56.6696 37.472 56.5623 37.5832L40.6261 53.7731C40.5549 53.8459 40.4698 53.9035 40.3757 53.9425C40.2817 53.9815 40.1807 54.001 40.0789 54L40.0589 53.98ZM44.51 37.9036C44.6304 37.9038 44.7491 37.9321 44.8566 37.9862C44.9641 38.0403 45.0575 38.1187 45.1295 38.2152C45.2014 38.3118 45.2498 38.4237 45.2709 38.5422C45.2919 38.6607 45.2851 38.7825 45.2508 38.8979L41.7272 50.4563L54.1065 37.8368L48.8278 38.0304C48.7069 38.0364 48.5863 38.0135 48.4761 37.9636C48.3658 37.9137 48.269 37.8382 48.1938 37.7434C48.1215 37.65 48.0713 37.5414 48.0471 37.4259C48.0228 37.3103 48.025 37.1906 48.0537 37.076L51.0968 25.7312L38.7709 38.5042L44.4233 37.8368H44.51" fill="#003350"/>
<path d="M35.0515 33.5368L35.0515 33.5365L31.7719 33.1476V33.3753V33.3786L31.7718 33.3786C31.7653 33.4759 31.7904 33.5728 31.8434 33.6551C31.8964 33.7373 31.9746 33.8006 32.0666 33.8356L32.068 33.8361L32.0679 33.8361L34.5198 34.8503L34.5199 34.8504C35.1512 35.1134 35.7059 35.5299 36.1329 36.0614M35.0515 33.5368L36.0075 36.8285C35.9149 36.9023 35.7993 36.9417 35.6806 36.9401C35.6017 36.9407 35.5238 36.9231 35.4529 36.8888C35.382 36.8545 35.3201 36.8044 35.2719 36.7423M35.0515 33.5368H35.0574M35.0515 33.5368H35.0574M36.1329 36.0614C36.133 36.0616 36.1332 36.0618 36.1333 36.0619L36.0943 36.0932L36.1324 36.0608C36.1325 36.061 36.1327 36.0612 36.1329 36.0614ZM36.1329 36.0614C36.1822 36.1195 36.219 36.187 36.2411 36.2598C36.2633 36.3329 36.2701 36.4097 36.2611 36.4854C36.2522 36.5612 36.2277 36.6343 36.1891 36.7003C36.1507 36.7659 36.0993 36.8231 36.0379 36.8683C35.9365 36.9487 35.8101 36.9918 35.6804 36.9901C35.5941 36.9907 35.5088 36.9714 35.4311 36.9338C35.3534 36.8962 35.2855 36.8413 35.2327 36.7733M35.2327 36.7733C35.2328 36.7735 35.2329 36.7736 35.233 36.7737L35.2719 36.7423M35.2327 36.7733C35.2326 36.7732 35.2325 36.7731 35.2324 36.773L35.2719 36.7423M35.2327 36.7733C34.9261 36.3938 34.5294 36.0959 34.078 35.9062M35.2719 36.7423C34.96 36.3561 34.5563 36.0529 34.0971 35.86M34.0971 35.86L34.078 35.9062M34.0971 35.86L34.0778 35.9061M34.0971 35.86L31.6453 34.8458C31.3562 34.7272 31.1092 34.5261 30.9355 34.2679L34.0778 35.9061M34.078 35.9062L34.0778 35.9061M34.078 35.9062L34.0778 35.9061M34.0778 35.9061L31.6263 34.8921C31.6263 34.8921 31.6263 34.8921 31.6263 34.8921C31.3281 34.7697 31.0732 34.5622 30.894 34.2958C30.7147 34.0293 30.6192 33.716 30.6197 33.3955M34.0778 35.9061L30.6197 33.3955M30.6197 33.3955V32.1504C29.4367 32.6043 28.1284 32.6199 26.9347 32.1942V33.3955V33.3955H26.8847L30.6197 33.3955ZM35.0574 33.5368H35.1182C35.2026 33.5386 35.2864 33.5214 35.3632 33.4865C35.4402 33.4516 35.5083 33.3997 35.5623 33.3349C35.6163 33.27 35.6548 33.1939 35.6749 33.112C35.695 33.0305 35.6962 32.9456 35.6786 32.8635L34.2076 24.7509L34.2076 24.7509L34.2074 24.7497C34.1841 24.6377 34.1268 24.5357 34.0434 24.4574C34.0176 24.1038 33.9558 23.7538 33.8592 23.4126L33.8591 23.4124C33.518 22.2227 32.7709 21.1877 31.7459 20.4846C30.7209 19.7815 29.4816 19.454 28.2402 19.558C26.9988 19.662 25.8324 20.1911 24.9405 21.0548C24.0495 21.9178 23.4879 23.0611 23.3518 24.2895C23.3303 24.376 23.3301 24.4664 23.3511 24.553V24.5531V24.5535V24.554V24.5544V24.5549V24.5553V24.5558V24.5562V24.5566V24.5571V24.5575V24.558V24.5584V24.5589V24.5593V24.5597V24.5602V24.5606V24.5611V24.5615V24.562V24.5624V24.5628V24.5633V24.5637V24.5642V24.5646V24.565V24.5655V24.5659V24.5664V24.5668V24.5673V24.5677V24.5681V24.5686V24.569V24.5695V24.5699V24.5703V24.5708V24.5712V24.5717V24.5721V24.5725V24.573V24.5734V24.5738V24.5743V24.5747V24.5752V24.5756V24.576V24.5765V24.5769V24.5774V24.5778V24.5782V24.5787V24.5791V24.5795V24.58V24.5804V24.5809V24.5813V24.5817V24.5822V24.5826V24.583V24.5835V24.5839V24.5844V24.5848V24.5852V24.5857V24.5861V24.5865V24.587V24.5874V24.5878V24.5883V24.5887V24.5892V24.5896V24.59V24.5905V24.5909V24.5913V24.5918V24.5922V24.5926V24.5931V24.5935V24.5939V24.5944V24.5948V24.5952V24.5957V24.5961V24.5965V24.597V24.5974V24.5978V24.5983V24.5987V24.5991V24.5996V24.6V24.6004V24.6009V24.6013V24.6017V24.6022V24.6026V24.603V24.6035V24.6039V24.6043V24.6048V24.6052V24.6056V24.6061V24.6065V24.6069V24.6074V24.6078V24.6082V24.6087V24.6091V24.6095V24.61V24.6104V24.6108V24.6113V24.6117V24.6121V24.6125V24.613V24.6134V24.6138V24.6143V24.6147V24.6151V24.6156V24.616V24.6164V24.6168V24.6173V24.6177V24.6181V24.6186V24.619V24.6194V24.6199V24.6203V24.6207V24.6211V24.6216V24.622V24.6224V24.6229V24.6233V24.6237V24.6241V24.6246V24.625V24.6254V24.6259V24.6263V24.6267V24.6271V24.6276V24.628V24.6284V24.6289V24.6293V24.6297V24.6301V24.6306V24.631V24.6314V24.6319V24.6323V24.6327V24.6331V24.6336V24.634V24.6344V24.6348V24.6353V24.6357V24.6361V24.6365V24.637V24.6374V24.6378V24.6383V24.6387V24.6391V24.6395V24.64V24.6404V24.6408V24.6412V24.6417V24.6421V24.6425V24.6429V24.6434V24.6438V24.6442V24.6446V24.6451V24.6455V24.6459V24.6463V24.6468V24.6472V24.6476V24.648V24.6485V24.6489V24.6493V24.6497V24.6502V24.6506V24.651V24.6514V24.6519V24.6523V24.6527V24.6531V24.6536V24.654V24.6544V24.6548V24.6553V24.6557V24.6561V24.6565V24.6569V24.6574V24.6578V24.6582V24.6586V24.6591V24.6595V24.6599V24.6603V24.6608V24.6612V24.6616V24.662V24.6624V24.6629V24.6633V24.6637V24.6641V24.6646V24.665V24.6654V24.6658V24.6662V24.6667V24.6671V24.6675V24.6679V24.6684V24.6688V24.6692V24.6696V24.67V24.6705V24.6709V24.6713V24.6717V24.6722V24.6726V24.673V24.6734V24.6738V24.6743V24.6747V24.6751V24.6755V24.6759V24.6764V24.6768V24.6772V24.6776V24.6781V24.6785V24.6789V24.6793V24.6797V24.6802V24.6806V24.681V24.6814V24.6818V24.6823V24.6827V24.6831V24.6835V24.6839V24.6844V24.6848V24.6852V24.6856V24.686V24.6865V24.6869V24.6873V24.6877V24.6881V24.6886V24.689V24.6894V24.6898V24.6902V24.6907V24.6911V24.6915V24.6919V24.6923V24.6928V24.6932V24.6936V24.694V24.6944V24.6949V24.6953V24.6957V24.6961V24.6965V24.6969V24.6974V24.6978V24.6982V24.6986V24.699V24.6995V24.6999V24.7003V24.7007V24.7011V24.7016V24.702V24.7024V24.7028V24.7032V24.7036V24.7041V24.7045V24.7049V24.7053V24.7057V24.7062V24.7066V24.707V24.7074V24.7078V24.7082V24.7087V24.7091V24.7095V24.7099V24.7103V24.7108V24.7112V24.7116V24.712V24.7124V24.7128V24.7133V24.7137V24.7141V24.7145V24.7149V24.7154V24.7158V24.7162V24.7166V24.717V24.7174V24.7179V24.7183V24.7187V24.7191V24.7195V24.7199V24.7204V24.7208V24.7212V24.7216V24.722V24.7224V24.7229V24.7233V24.7237V24.7241V24.7245V24.7249V24.7254V24.7258V24.7262V24.7266V24.727V24.7274V24.7279V24.7283V24.7287V24.7291V24.7295V24.7299V24.7304V24.7308V24.7312V24.7316V24.732V24.7325V24.7329V24.7333V24.7337V24.7341V24.7345V24.735V24.7354V24.7358V24.7362V24.7366V24.737V24.7374V24.7379V24.7383V24.7387V24.7391V24.7395V24.7399V24.7404V24.7408V24.7412V24.7416V24.742V24.7424V24.7429V24.7433V24.7437V24.7441V24.7445V24.7449V24.7454V24.7458V24.7462V24.7466V24.747V24.7474V24.7479V24.7483V24.7487V24.7491V24.7495V24.7499V24.7504V24.7508V24.7512V24.7516V24.752V24.7524V24.7528V24.7533V24.7537V24.7541V24.7545V24.7549V24.7553V24.7558V24.7562V24.7566V24.757V24.7574V24.7578V24.7583V24.7587V24.7591V24.7595V24.7599V24.7603V24.7604L21.886 32.8432C21.8684 32.9253 21.8696 33.0102 21.8897 33.0918C21.9098 33.1736 21.9483 33.2497 22.0023 33.3146C22.0563 33.3795 22.1244 33.4313 22.2014 33.4663C22.2782 33.5011 22.362 33.5183 22.4464 33.5165H22.5072V33.5169L22.5131 33.5162L25.7927 33.1273M35.0574 33.5368L25.7927 33.1273M25.7927 33.1273V33.355H25.7926L25.7927 33.3566C25.7958 33.4538 25.7692 33.5497 25.7163 33.6317C25.6635 33.7137 25.5869 33.7779 25.4965 33.8159C25.4965 33.8159 25.4964 33.816 25.4964 33.816L23.0399 34.83C22.518 35.0444 22.0476 35.366 21.6598 35.7737C21.6043 35.8256 21.56 35.8882 21.5297 35.9577H21.5297C21.4991 36.0277 21.4833 36.1032 21.4833 36.1794C21.4833 36.2557 21.4991 36.3312 21.5297 36.4012H21.5297C21.56 36.4707 21.6044 36.5334 21.6599 36.5853C21.7121 36.6395 21.7748 36.6827 21.8442 36.7123L21.8638 36.6663L21.8442 36.7123C21.9141 36.7421 21.9893 36.7575 22.0654 36.7575C22.1414 36.7575 22.2166 36.7421 22.2864 36.7123L22.2668 36.6663L22.2864 36.7123C22.3563 36.6826 22.4194 36.639 22.4718 36.5842L25.7927 33.1273ZM28.748 31.3375V31.3473C29.8472 31.3331 30.8982 30.8941 31.6773 30.1226C32.4681 29.3394 32.9142 28.2773 32.9183 27.1685C32.9183 27.1685 32.9183 27.1684 32.9183 27.1683M28.748 31.3375L32.9683 27.1685L32.9183 27.1683M28.748 31.3375H28.698C27.5773 31.3375 26.5025 30.8955 25.7101 30.1089C24.9177 29.3222 24.4727 28.2554 24.4727 27.1432V25.6206L25.5879 26.458L25.5879 26.458L25.5889 26.4588C25.6885 26.5296 25.8076 26.5682 25.9299 26.5694C25.9886 26.5799 26.0487 26.5796 26.1073 26.5686L26.1074 26.569L26.1137 26.5669L32.8808 24.3444C32.9038 24.5226 32.9163 24.7021 32.9183 24.8818M28.748 31.3375L32.9183 24.8818M32.9183 27.1683L32.9183 24.8818M32.9183 27.1683L32.9183 24.8818M31.7566 31.5254C32.7051 30.8707 33.416 29.9324 33.7872 28.8495L34.4139 32.3086L31.7566 31.9971V31.5254ZM28.698 20.6619C29.5347 20.6638 30.352 20.9119 31.0466 21.3749C31.7261 21.8278 32.2583 22.4665 32.5793 23.2131L26.0156 25.3633L24.5275 24.2259C24.6774 23.2402 25.1765 22.3395 25.9358 21.686C26.7025 21.0261 27.6831 20.6625 28.698 20.6619ZM25.7722 31.6126V31.9972L23.1303 32.3086L23.7095 29.1181C24.1206 30.14 24.8407 31.0119 25.7722 31.6126Z" fill="#00344E" stroke="#00344E" stroke-width="0.1"/>
</svg>
