<svg width="71" height="67" viewBox="0 0 71 67" fill="none" xmlns="http://www.w3.org/2000/svg">
<path d="M65.4305 67H8.55342C7.08057 67 5.66804 66.4493 4.62658 65.4691C3.58512 64.4889 3 63.1595 3 61.7733V8.22673C3 6.84051 3.58512 5.51107 4.62658 4.53086C5.66804 3.55066 7.08057 3 8.55342 3H65.4466C66.9194 3 68.332 3.55066 69.3734 4.53086C70.4149 5.51107 71 6.84051 71 8.22673V61.7733C71 63.1595 70.4149 64.4889 69.3734 65.4691C68.332 66.4493 66.9194 67 65.4466 67" fill="#EBEDED"/>
<path d="M43.5507 46.8603H43.1373C41.229 46.8581 39.3996 46.0991 38.0503 44.7497C36.7009 43.4004 35.9419 41.571 35.9397 39.6628V26.4997C35.9599 25.7592 35.8316 25.0221 35.5622 24.3321C35.2928 23.642 34.8878 23.013 34.3712 22.4821C33.8546 21.9512 33.2368 21.5292 32.5544 21.241C31.8719 20.9529 31.1387 20.8044 30.398 20.8044C29.6572 20.8044 28.9239 20.9529 28.2415 21.241C27.5591 21.5292 26.9412 21.9512 26.4246 22.4821C25.908 23.013 25.503 23.642 25.2336 24.3321C24.9642 25.0221 24.8359 25.7592 24.8562 26.4997V36.4836C24.8562 36.7029 24.769 36.9132 24.6139 37.0683C24.4589 37.2233 24.2486 37.3104 24.0293 37.3104C23.81 37.3104 23.5997 37.2233 23.4446 37.0683C23.2896 36.9132 23.2025 36.7029 23.2025 36.4836V26.4997C23.1795 25.5402 23.3486 24.5859 23.6999 23.6928C24.0512 22.7997 24.5774 21.9858 25.2479 21.2991C25.9183 20.6124 26.7194 20.0667 27.6038 19.6942C28.4882 19.3216 29.4383 19.1297 30.398 19.1297C31.3577 19.1297 32.3077 19.3216 33.1921 19.6942C34.0766 20.0667 34.8775 20.6124 35.548 21.2991C36.2184 21.9858 36.7448 22.7997 37.0961 23.6928C37.4473 24.5859 37.6163 25.5402 37.5933 26.4997V39.6628C37.5955 41.1324 38.1803 42.5412 39.2195 43.5804C40.2587 44.6196 41.6676 45.2044 43.1373 45.2066H43.5507C45.0203 45.2044 46.4291 44.6196 47.4683 43.5804C48.5075 42.5412 49.0923 41.1324 49.0945 39.6628V27.3224C49.0945 27.1031 49.1817 26.8928 49.3368 26.7377C49.4918 26.5827 49.7021 26.4955 49.9213 26.4955C50.1406 26.4955 50.351 26.5827 50.506 26.7377C50.6611 26.8928 50.7482 27.1031 50.7482 27.3224V39.6628C50.746 41.571 49.987 43.4004 48.6377 44.7497C47.2884 46.0991 45.4589 46.8581 43.5507 46.8603Z" fill="#00334E"/>
<path d="M24.0292 53.5328C22.2816 53.5336 20.5728 53.0161 19.1194 52.0456C17.6659 51.0752 16.5329 49.6954 15.8637 48.0809C15.1945 46.4665 15.0192 44.6898 15.36 42.9756C15.7007 41.2615 16.5423 39.6869 17.7781 38.4511C19.0139 37.2153 20.5884 36.3738 22.3025 36.0331C24.0167 35.6923 25.7934 35.8676 27.4079 36.5368C29.0224 37.206 30.4021 38.339 31.3726 39.7925C32.343 41.246 32.8605 42.9546 32.8597 44.7023C32.8564 47.0433 31.925 49.2875 30.2697 50.9428C28.6144 52.5981 26.3702 53.5295 24.0292 53.5328ZM24.0292 37.5213C22.6088 37.5205 21.22 37.941 20.0385 38.7295C18.8571 39.5181 17.9361 40.6393 17.3919 41.9514C16.8478 43.2635 16.7049 44.7075 16.9815 46.1007C17.2582 47.4939 17.9417 48.7739 18.9459 49.7786C19.95 50.7833 21.2295 51.4676 22.6226 51.745C24.0157 52.0224 25.4597 51.8805 26.7721 51.3371C28.0845 50.7937 29.2063 49.8733 29.9956 48.6923C30.7848 47.5113 31.206 46.1227 31.206 44.7023C31.2039 42.7992 30.4472 40.9746 29.1018 39.6285C27.7565 38.2824 25.9324 37.5246 24.0292 37.5213Z" fill="#00334E"/>
<path d="M50.0702 28.1534C48.3228 28.1534 46.6147 27.6353 45.1619 26.6645C43.709 25.6937 42.5766 24.314 41.908 22.6996C41.2393 21.0853 41.0643 19.309 41.4052 17.5952C41.7461 15.8815 42.5876 14.3073 43.8231 13.0717C45.0587 11.8362 46.6328 10.9948 48.3466 10.6539C50.0603 10.313 51.8367 10.488 53.451 11.1566C55.0654 11.8253 56.4451 12.9577 57.4159 14.4105C58.3867 15.8634 58.9047 17.5714 58.9047 19.3188C58.9025 21.6612 57.9711 23.907 56.3147 25.5634C54.6584 27.2197 52.4126 28.1512 50.0702 28.1534ZM50.0702 12.1419C48.6497 12.1419 47.2611 12.5632 46.0802 13.3524C44.8992 14.1417 43.9787 15.2634 43.4354 16.5758C42.892 17.8882 42.75 19.3323 43.0274 20.7254C43.3048 22.1185 43.9891 23.398 44.9938 24.4021C45.9985 25.4062 47.2785 26.0898 48.6718 26.3664C50.065 26.643 51.5089 26.5002 52.821 25.9561C54.1331 25.4119 55.2544 24.4909 56.0429 23.3094C56.8315 22.128 57.2519 20.7392 57.2511 19.3188C57.2489 17.4153 56.4915 15.5905 55.1452 14.2449C53.7988 12.8994 51.9736 12.143 50.0702 12.1419Z" fill="#00334E"/>
</svg>
