<svg width="64" height="64" fill="none" xmlns="http://www.w3.org/2000/svg"><path d="M58.777 0H5.223A5.223 5.223 0 0 0 0 5.223v53.554A5.223 5.223 0 0 0 5.223 64h53.554A5.223 5.223 0 0 0 64 58.777V5.223A5.223 5.223 0 0 0 58.777 0Z" fill="#EBEDED"/><path d="M32.133 44.01c-.61.227-1.254.35-1.905.365v2.107a.478.478 0 0 1-.56.56h-.25a.475.475 0 0 1-.533-.56v-2.105a6.74 6.74 0 0 1-1.691-.367 8.414 8.414 0 0 1-1.389-.655 7.03 7.03 0 0 1-1.018-.732 6.777 6.777 0 0 1-.654-.627.465.465 0 0 1 .03-.759l.223-.198a.506.506 0 0 1 .754.064c.032.029.064.06.099.09.16.149.348.322.583.515.311.258.647.485 1.003.676.432.232.888.416 1.36.552a5.89 5.89 0 0 0 1.664.225h.001c.491.003.98-.065 1.452-.2a3.593 3.593 0 0 0 1.222-.603c.35-.265.637-.604.84-.992a2.9 2.9 0 0 0 .309-1.37v-.003a2.227 2.227 0 0 0-.658-1.663 5.92 5.92 0 0 0-1.649-1.116 24.27 24.27 0 0 0-2.175-.892c-.754-.27-1.485-.6-2.186-.987a5.68 5.68 0 0 1-1.678-1.39l-.002-.002a3.322 3.322 0 0 1-.677-2.161 4.118 4.118 0 0 1 .373-1.812 4.375 4.375 0 0 1 2.44-2.216l.001-.002a7.592 7.592 0 0 1 1.746-.381v-1.853a.478.478 0 0 1 .56-.56h.249a.48.48 0 0 1 .56.56v1.852a6.985 6.985 0 0 1 2.347.601c.474.214.922.482 1.335.799l.003.002a.555.555 0 0 1 .066.75l-.001.001-.172.202-.001.002a.556.556 0 0 1-.75.061 7.028 7.028 0 0 0-1.33-.761 5.519 5.519 0 0 0-2.313-.42h-.002a5.742 5.742 0 0 0-1.394.165 3.836 3.836 0 0 0-1.197.533c-.353.244-.64.57-.838.95-.214.434-.32.912-.308 1.395v.004a2.25 2.25 0 0 0 .657 1.698c.487.46 1.044.841 1.65 1.126.707.34 1.433.64 2.174.897l-.016.047 1.646 8.588Zm0 0a5.062 5.062 0 0 0 1.531-.918m-1.532.918 1.532-.918m0 0c.434-.38.783-.846 1.024-1.37m-1.024 1.37 1.024-1.37m0 0a4.148 4.148 0 0 0 .359-1.741 3.423 3.423 0 0 0-.678-2.201m.32 3.942-.32-3.942m0 0v-.002m0 .002v-.002m0 0a5.771 5.771 0 0 0-1.679-1.42l1.678 1.42Z" fill="#00344E" stroke="#00344E" stroke-width=".1"/><path d="M12.694 35.02a.694.694 0 0 0 .694-.694V22.607h22.428a.694.694 0 1 0 0-1.388H13.388v-2.751a3.3 3.3 0 0 1 3.3-3.3h28.126a3.282 3.282 0 0 1 2.404 1.04.69.69 0 0 0 1.13-.225.695.695 0 0 0-.151-.759 4.664 4.664 0 0 0-3.395-1.445H16.689A4.688 4.688 0 0 0 12 18.468v15.858a.694.694 0 0 0 .694.694Zm36.121 3.837a.695.695 0 0 0-.694.694v7.042a3.307 3.307 0 0 1-3.307 3.3H16.69a3.3 3.3 0 0 1-3.3-3.3v-9.465a.696.696 0 0 0-.695-.695.694.694 0 0 0-.694.695v9.465a4.689 4.689 0 0 0 4.689 4.689h28.125a4.695 4.695 0 0 0 4.695-4.689v-7.036a.695.695 0 0 0-.694-.7Z" fill="#00344E"/><path d="M56.135 17.666H41.489a3.023 3.023 0 0 0-3.023 3.017V31.82a3.029 3.029 0 0 0 3.023 3.023h2.864l-.145 5.345a.694.694 0 0 0 1.2.499l5.862-6.172 4.928-.1a3.042 3.042 0 0 0 2.96-3.024V20.664a3.022 3.022 0 0 0-3.023-2.998Zm1.634 13.725a1.641 1.641 0 0 1-1.596 1.635l-5.219.107a.688.688 0 0 0-.492.22l-4.815 5.05.114-4.254a.713.713 0 0 0-.427-.659.689.689 0 0 0-.268-.054h-3.578a1.641 1.641 0 0 1-1.634-1.634v-11.12a1.634 1.634 0 0 1 1.635-1.627h14.646a1.634 1.634 0 0 1 1.634 1.628V31.39Z" fill="#00344E"/><path d="M54.191 20.235a.632.632 0 0 0-.58-.089l-3.433 1.11a.631.631 0 0 0-.448.632v.486h-4.701a.631.631 0 0 0-.631.63v4.046a.631.631 0 0 0 .63.63h.865v.045l1.584 3.786a.631.631 0 0 0 .631.398.752.752 0 0 0 .253-.05.63.63 0 0 0 .34-.853l-1.388-3.3h2.43v.492a.63.63 0 0 0 .448.631l3.433 1.105a.63.63 0 0 0 .58-.095.63.63 0 0 0 .265-.524v-8.557a.63.63 0 0 0-.278-.523Zm-4.448 6.159H45.69v-2.745h4.052v2.744Zm3.432 2-2.17-.688v-5.37l2.139-.682.032 6.74Z" fill="#00344E"/></svg>