<svg width="64" height="64" fill="none" xmlns="http://www.w3.org/2000/svg"><path d="M58.777 0H5.223A5.223 5.223 0 0 0 0 5.223v53.554A5.223 5.223 0 0 0 5.223 64h53.554A5.223 5.223 0 0 0 64 58.777V5.223A5.223 5.223 0 0 0 58.777 0Z" fill="#E8EAEA"/><path d="M13.248 34.093h.078a.716.716 0 0 0 .715-.656 18.602 18.602 0 0 1 4.593-10.38.722.722 0 0 0-.852-1.13.715.715 0 0 0-.224.172 20.025 20.025 0 0 0-4.986 11.154.729.729 0 0 0 .676.84ZM42.99 51.146a18.76 18.76 0 0 1-19.231.86.723.723 0 1 0-.656 1.266 20.184 20.184 0 0 0 20.714-.925.722.722 0 0 0-.794-1.2h-.033Zm8.28-17.683a.722.722 0 0 0 .723.656h.078a.722.722 0 0 0 .657-.8 20.176 20.176 0 0 0-6.07-12.323.714.714 0 0 0-1.017 0 .72.72 0 0 0 0 1.024 18.727 18.727 0 0 1 5.63 11.443Zm-28.58-5.577a.722.722 0 0 0 0-1.444 1.713 1.713 0 0 1-1.713-1.712v-3.19l12.158-6.515 9.882 5.544v4.166a1.713 1.713 0 0 1-1.713 1.713.722.722 0 0 0 0 1.443 3.163 3.163 0 0 0 3.176-3.162V10.505a3.163 3.163 0 0 0-3.156-3.156H22.689a3.162 3.162 0 0 0-3.142 3.156V24.73a3.163 3.163 0 0 0 3.142 3.156Zm0-19.094h18.614a1.713 1.713 0 0 1 1.713 1.713v8.405l-9.52-5.335a.729.729 0 0 0-.696 0l-11.824 6.339v-9.41a1.712 1.712 0 0 1 1.712-1.712Z" fill="#00344E"/><path d="M25.281 15.787a2.624 2.624 0 1 0 .065-5.248 2.624 2.624 0 0 0-.065 5.248Zm0-3.74a1.148 1.148 0 1 1-1.141 1.148 1.147 1.147 0 0 1 1.141-1.155v.007Zm1.444 35.103v-2.532a.722.722 0 0 0-1.444 0v2.532a2.113 2.113 0 0 1-2.112 2.113H9.193A2.113 2.113 0 0 1 7.08 47.15v-8.155a2.106 2.106 0 0 1 2.106-2.107h11.07a.722.722 0 0 0 0-1.443H9.192a3.556 3.556 0 0 0-3.55 3.55v8.155a3.55 3.55 0 0 0 3.55 3.55h13.976a3.556 3.556 0 0 0 3.556-3.55Zm27.991-11.705H44.44a.721.721 0 1 0 0 1.443h10.276a2.113 2.113 0 0 1 2.112 2.107v8.155a2.112 2.112 0 0 1-2.112 2.113H40.74a2.113 2.113 0 0 1-2.106-2.113.722.722 0 0 0-1.444 0 3.55 3.55 0 0 0 3.55 3.55h13.976a3.556 3.556 0 0 0 3.556-3.55v-8.155a3.556 3.556 0 0 0-3.556-3.55Z" fill="#00344E"/><path d="m22.25 39.867 1.443 2.493a1.476 1.476 0 0 0 1.778.657l1.687-.617c.345.279.712.53 1.095.754a9.2 9.2 0 0 0 1.201.578l.302 1.706a1.483 1.483 0 0 0 1.463 1.312h2.874a1.476 1.476 0 0 0 1.457-1.247l.308-1.765a8.701 8.701 0 0 0 1.194-.577 8.39 8.39 0 0 0 1.103-.755l1.647.598a1.476 1.476 0 0 0 1.824-.657l1.41-2.44a1.49 1.49 0 0 0-.302-1.916l-1.377-1.155a1.635 1.635 0 0 0 0-.177 8.275 8.275 0 0 0 0-2.29 1.885 1.885 0 0 0 0-.19l1.377-1.149.04-.04a1.482 1.482 0 0 0 .289-1.83l-1.437-2.493a.642.642 0 0 0-.053-.072 1.457 1.457 0 0 0-1.732-.571l-1.686.61a9.551 9.551 0 0 0-1.096-.755 9.127 9.127 0 0 0-1.2-.57l-.303-1.706A1.47 1.47 0 0 0 34.1 24.29h-2.88a1.47 1.47 0 0 0-1.457 1.22l-.309 1.766a8.676 8.676 0 0 0-2.296 1.325l-1.647-.597a1.489 1.489 0 0 0-1.824.656l-1.411 2.448a1.49 1.49 0 0 0 .302 1.915l1.378 1.149v.184a8.37 8.37 0 0 0 0 2.289 1.76 1.76 0 0 0 0 .184l-1.372 1.148a1.463 1.463 0 0 0-.334 1.89Zm2.952-2.185a.702.702 0 0 0 .243-.656c0-.17-.059-.341-.085-.512a8.184 8.184 0 0 1-.066-.958c.003-.322.025-.644.066-.964 0-.17.052-.341.085-.512a.702.702 0 0 0-.243-.689l-1.686-1.483.709-1.227.774-1.247 2.054.748a.748.748 0 0 0 .728-.137 7.341 7.341 0 0 1 2.54-1.47.734.734 0 0 0 .485-.564l.413-2.198h2.88l.414 2.198a.715.715 0 0 0 .48.564 7.33 7.33 0 0 1 2.538 1.47.735.735 0 0 0 .729.137l2.106-.747.04.059 1.397 2.473V32l-1.66 1.391a.722.722 0 0 0-.243.689c0 .17.066.341.085.518.088.636.088 1.28 0 1.916 0 .177-.052.341-.085.505a.728.728 0 0 0 .243.696l1.693 1.424v.065l-.703 1.22-.78 1.254-2.093-.768a.722.722 0 0 0-.729.138 7.342 7.342 0 0 1-2.539 1.47.709.709 0 0 0-.479.558l-.42 2.204H31.22l-.413-2.204a.716.716 0 0 0-.486-.558 7.624 7.624 0 0 1-2.539-1.47.716.716 0 0 0-.728-.138l-2.113.742-1.457-2.546 1.72-1.424Zm-5.104 4.764-5.335-3.078a.708.708 0 0 0-.722 0 .722.722 0 0 0-.36.624v6.168a.721.721 0 0 0 .36.623.708.708 0 0 0 .722 0l5.335-3.078a.72.72 0 0 0 0-1.253v-.006ZM15.124 44.9v-3.655l3.17 1.83-3.17 1.825Z" fill="#00344E"/><path d="M32.67 39.047a3.524 3.524 0 1 0-3.524-3.523 3.53 3.53 0 0 0 3.523 3.523Zm0-5.61a2.087 2.087 0 1 1 .012 4.174 2.087 2.087 0 0 1-.013-4.174Zm20.641 7.605a.722.722 0 1 0 0-1.444h-5.55a.722.722 0 0 0 0 1.444h5.55Zm-8.831 2.034a.721.721 0 0 0 .722.721h8.13a.722.722 0 1 0 0-1.443h-8.15a.721.721 0 0 0-.702.722Zm-3.937 2.749a.722.722 0 0 0 .722.722h12.033a.722.722 0 0 0 0-1.444h-12.02a.723.723 0 0 0-.735.722Z" fill="#00344E"/></svg>