<svg width="69" height="64" fill="none" xmlns="http://www.w3.org/2000/svg"><path d="M62.675 64h-57.1c-1.478 0-2.896-.55-3.942-1.53C.587 61.488 0 60.16 0 58.772V5.227C0 3.84.587 2.51 1.633 1.53S4.097 0 5.575 0h57.116c1.48 0 2.897.55 3.943 1.53 1.045.981 1.633 2.31 1.633 3.697v53.546c0 1.386-.588 2.716-1.633 3.696C65.588 63.45 64.17 64 62.69 64" fill="#EBEDED"/><path d="M25.135 31.912a2.726 2.726 0 0 0 2.723-2.723c0-.44-.105-.855-.29-1.223l4.015-3.163a2.71 2.71 0 0 0 3.507.008l3.957 3.145a2.726 2.726 0 0 0 2.427 3.956 2.726 2.726 0 0 0 2.724-2.723c0-.733-.292-1.4-.765-1.89l5.113-7.44a2.726 2.726 0 0 0 3.785-2.507 2.726 2.726 0 0 0-2.723-2.723 2.726 2.726 0 0 0-2.723 2.723c0 .733.291 1.399.764 1.889l-5.113 7.44a2.71 2.71 0 0 0-2.81.422l-3.958-3.145c.189-.37.296-.789.296-1.232a2.726 2.726 0 0 0-2.723-2.723 2.726 2.726 0 0 0-2.723 2.723c0 .439.105.854.29 1.222l-4.015 3.163a2.71 2.71 0 0 0-1.758-.646 2.726 2.726 0 0 0-2.723 2.724 2.726 2.726 0 0 0 2.723 2.723Zm24.473-16.194c.9 0 1.634.733 1.634 1.634 0 .9-.733 1.634-1.634 1.634a1.636 1.636 0 0 1-1.634-1.634c0-.901.733-1.634 1.634-1.634Zm-8.134 11.837c.901 0 1.634.733 1.634 1.634 0 .9-.733 1.634-1.634 1.634a1.636 1.636 0 0 1-1.634-1.634c0-.901.733-1.634 1.634-1.634Zm-8.133-6.463c.901 0 1.634.733 1.634 1.634 0 .9-.733 1.634-1.634 1.634a1.636 1.636 0 0 1-1.634-1.634c0-.901.733-1.634 1.634-1.634Zm-8.206 6.463c.901 0 1.634.733 1.634 1.634 0 .9-.733 1.634-1.634 1.634a1.636 1.636 0 0 1-1.634-1.634c0-.901.733-1.634 1.634-1.634Zm27.958 20.624H35.63a.545.545 0 1 0 0 1.089h16.92v1.452H18.09a.539.539 0 0 1-.385-.16.538.538 0 0 1-.16-.384v-6.863a.545.545 0 1 0-1.089 0v6.863c0 .436.17.847.479 1.154.308.31.718.48 1.155.48h35.002a.545.545 0 0 0 .545-.545v-2.542c0-.3-.244-.544-.544-.544Z" fill="#10334D"/><path d="M17.002 41.389c.3 0 .544-.244.544-.545V15.718H19v33.005c0 .301.244.545.545.545H33.16a.545.545 0 0 0 0-1.09H20.088V15.174c0-.3-.244-.544-.544-.544h-2.542a.544.544 0 0 0-.545.544v25.671c0 .3.244.545.545.545Z" fill="#10334D"/><path d="M23.465 35.252c-.3 0-.545.244-.545.545v10.167c0 .3.244.544.545.544h3.63a.545.545 0 0 0 .546-.544V35.797c0-.3-.244-.545-.545-.545h-3.631ZM26.55 45.42h-2.54v-9.077h2.541v9.077Zm4.976-16.63a.544.544 0 0 0-.545.544v16.63c0 .3.244.544.545.544h3.63a.545.545 0 0 0 .545-.544v-16.63c0-.3-.244-.545-.544-.545h-3.631Zm3.086 16.63H32.07V29.878h2.542v15.54Zm5.047-10.168c-.3 0-.545.244-.545.545v10.167c0 .3.244.544.545.544h3.63a.544.544 0 0 0 .545-.544V35.797c0-.3-.243-.545-.544-.545h-3.631Zm3.086 10.167h-2.541v-9.077h2.541v9.077Zm5.047-22.003c-.3 0-.544.243-.544.544v22.004c0 .3.243.544.544.544h3.631c.3 0 .545-.244.545-.544V23.96c0-.3-.244-.544-.545-.544h-3.63Zm3.087 22.003h-2.542V24.505h2.541v20.914Z" fill="#10334D"/></svg>