<svg width="64" height="65" fill="none" xmlns="http://www.w3.org/2000/svg"><path d="M58.777.54H5.223A5.223 5.223 0 0 0 0 5.763v53.554a5.223 5.223 0 0 0 5.223 5.223h53.554A5.223 5.223 0 0 0 64 59.317V5.763A5.223 5.223 0 0 0 58.777.54Z" fill="#EBEDED"/><path d="M46.619 12.757H17.375a4.882 4.882 0 0 0-4.876 4.882v16.489a.722.722 0 0 0 .722.722h6.3a.722.722 0 1 0 0-1.444h-5.578v-10h36.088v6.28a.723.723 0 0 0 1.388.276.723.723 0 0 0 .055-.276V17.639a4.888 4.888 0 0 0-4.855-4.882Zm-32.676 9.186V17.64a3.432 3.432 0 0 1 3.432-3.432h29.244a3.438 3.438 0 0 1 3.438 3.432v4.324l-36.114-.02Zm36.836 18.504a.722.722 0 0 0-.722.721v5.715a3.445 3.445 0 0 1-3.438 3.438H17.375a3.438 3.438 0 0 1-3.432-3.438v-9.842a.721.721 0 1 0-1.444 0v9.842a4.875 4.875 0 0 0 4.876 4.875h29.244a4.882 4.882 0 0 0 4.882-4.875v-5.715a.72.72 0 0 0-.722-.721Z" fill="#00344E"/><path d="M19.067 17.527h-1.673a.721.721 0 1 0 0 1.444h1.673a.722.722 0 0 0 0-1.444Zm4.712 0h-1.674a.722.722 0 1 0 0 1.444h1.674a.722.722 0 0 0 0-1.444Zm17.492 9.941H22.722a.721.721 0 0 0-.722.722v15.28a.722.722 0 0 0 .722.722h18.55a.721.721 0 0 0 .721-.722v-8.62h6.023l-2.453 3.103a.722.722 0 0 0 1.141.873l3.386-4.298a.722.722 0 0 0 0-.88l-3.386-4.474a.723.723 0 1 0-1.148.866l2.533 3.366H41.98V28.19a.722.722 0 0 0-.709-.722Zm-.721 15.295H23.444V28.912H40.55v13.85Z" fill="#00344E"/><path d="M36.698 31.95H30.49a.656.656 0 0 0 0 1.272h5.308l-1.312 3.82h-5.25v-6.247a.656.656 0 0 0-.656-.657h-1.31a.656.656 0 0 0 0 1.273h.656v6.247a.656.656 0 0 0 .656.656h6.326a.656.656 0 0 0 .597-.426l1.771-5.092a.656.656 0 0 0-.078-.578.655.655 0 0 0-.5-.269Zm-7.71 7.283a.97.97 0 1 0 .965.964.965.965 0 0 0-.965-.964Zm5.342 0a.971.971 0 1 0 .964.964.965.965 0 0 0-.965-.964Z" fill="#00344E"/></svg>