<svg width="69" height="64" fill="none" xmlns="http://www.w3.org/2000/svg"><path d="M62.675 64h-57.1c-1.478 0-2.896-.55-3.942-1.53C.587 61.488 0 60.16 0 58.772V5.227C0 3.84.587 2.51 1.633 1.53S4.097 0 5.575 0h57.116c1.48 0 2.897.55 3.943 1.53 1.045.981 1.633 2.31 1.633 3.697v53.546c0 1.386-.588 2.716-1.633 3.696C65.588 63.45 64.17 64 62.69 64" fill="#EBEDED"/><path d="m42.93 35.166-4.596-1.11a.463.463 0 0 1-.25-.414v-3.005a6.217 6.217 0 0 0 2.53-4.998v-3.876a.855.855 0 0 0 0-.123v-.049a.75.75 0 0 0-.062-.121.707.707 0 0 0 .116-.305c.201-1.743.738-6.37-3.803-6.967-3.816-.5-6.437.049-7.796 1.633a4.34 4.34 0 0 0-.933 3.39c-1.115.542-2.005 1.176-1.786 2.06.11.445.396.883 1.871 1.17v3.23a6.223 6.223 0 0 0 3.115 5.383v2.62a.47.47 0 0 1-.256.415l-4.596 1.11a6.906 6.906 0 0 0-5.296 6.704v6.57a.701.701 0 0 0 1.402 0v-6.576a5.486 5.486 0 0 1 4.224-5.37l4.656-1.121.104-.037a1.866 1.866 0 0 0 1.164-1.731v-2.024c.555.162 1.13.244 1.707.244.783 0 1.558-.149 2.285-.439v2.219a1.829 1.829 0 0 0 1.17 1.73l.098.038 4.657 1.121a5.486 5.486 0 0 1 4.224 5.37v6.04a.706.706 0 0 0 1.408 0v-6.04a6.912 6.912 0 0 0-5.303-6.705l-.055-.036ZM29.208 20.269a.713.713 0 0 0 .39-.841 3.176 3.176 0 0 1 .543-2.694c1.017-1.183 3.285-1.58 6.54-1.146 2.249.292 2.999 1.828 2.584 5.406a.686.686 0 0 0 0 .195c-5.809.354-10.087.165-11.33-.244a7.196 7.196 0 0 1 1.267-.676h.006Zm.414 5.406v-3.047c.945.085 2.17.134 3.761.134h.183c2.25 0 4.492-.116 5.62-.177v3.048a4.819 4.819 0 0 1-4.818 4.992 4.822 4.822 0 0 1-4.819-4.992" fill="#003350"/><path d="m40.077 42.571-3.602-.518-1.61-3.267a.525.525 0 0 0-.475-.293.512.512 0 0 0-.47.293l-1.615 3.267-3.602.518a.531.531 0 0 0-.293.902l2.61 2.542-.61 3.59a.536.536 0 0 0 .207.518c.09.065.2.1.31.098a.48.48 0 0 0 .245-.061l3.224-1.695 3.224 1.695a.537.537 0 0 0 .555-.037.524.524 0 0 0 .207-.518l-.61-3.59 2.61-2.542a.53.53 0 0 0-.293-.902h-.012Zm-3.237 2.883a.53.53 0 0 0-.152.47l.481 2.803-2.535-1.334a.512.512 0 0 0-.488 0l-2.523 1.322.481-2.804a.519.519 0 0 0-.152-.469l-2.042-1.98 2.822-.41a.523.523 0 0 0 .396-.286l1.262-2.554 1.262 2.554a.536.536 0 0 0 .396.287l2.822.408-2.03 1.993ZM19.688 32.331a14.629 14.629 0 0 1 5.437-11.41.702.702 0 0 0-.111-1.165.704.704 0 0 0-.779.074 16.14 16.14 0 0 0-4.687 18.773.706.706 0 0 0 .926.372.701.701 0 0 0 .372-.92 14.573 14.573 0 0 1-1.158-5.724Zm23.284-13.629a.716.716 0 1 0-.75 1.22 14.708 14.708 0 0 1 6.095 17.188.707.707 0 0 0 .44.89.768.768 0 0 0 .23.036.702.702 0 0 0 .665-.475 16.147 16.147 0 0 0-6.668-18.828" fill="#003350"/></svg>