<svg width="68" height="64" fill="none" xmlns="http://www.w3.org/2000/svg"><path d="M62.43 64H5.553c-1.472 0-2.885-.55-3.926-1.53C.585 61.488 0 60.16 0 58.772V5.227C0 3.84.585 2.51 1.627 1.53 2.668.55 4.08 0 5.553 0h56.894c1.472 0 2.885.55 3.926 1.53C67.415 2.512 68 3.84 68 5.228v53.546c0 1.386-.585 2.716-1.627 3.696-1.041.98-2.453 1.53-3.926 1.53" fill="#EBEDED"/><path d="M43.46 51.402a2.196 2.196 0 0 1-.606-.079 2.426 2.426 0 0 1-1.48-1.104l-6.387-10.755a12.453 12.453 0 1 1 5.95-3.287l6.279 10.572a2.43 2.43 0 0 1 .267 1.82 2.426 2.426 0 0 1-1.104 1.48l-1.699 1.007a2.427 2.427 0 0 1-1.213.34l-.006.006Zm-8.12-13.448a.704.704 0 0 1 .606.34l6.673 11.203a.983.983 0 0 0 1.37.352l1.699-1.007a1.008 1.008 0 0 0 .352-1.383l-6.57-11.052a.704.704 0 0 1 .134-.88 11.052 11.052 0 1 0-4.447 2.427.666.666 0 0 1 .189 0" fill="#003350"/><path d="M32.548 32.828a9.565 9.565 0 0 1-8.262-4.768.697.697 0 0 1 0-.703 9.542 9.542 0 0 1 16.524 0 .698.698 0 0 1 0 .703 9.578 9.578 0 0 1-8.262 4.768Zm-6.836-5.12a8.14 8.14 0 0 0 13.673 0 8.134 8.134 0 0 0-13.673 0" fill="#003350"/><path d="M32.548 30.778a3.099 3.099 0 1 1 3.094-3.094 3.094 3.094 0 0 1-3.094 3.094Zm0-4.792a1.698 1.698 0 1 0-.012 3.396 1.698 1.698 0 0 0 .012-3.396" fill="#003350"/><path d="M43.46 51.402a2.196 2.196 0 0 1-.606-.079 2.371 2.371 0 0 1-1.48-1.104l-6.387-10.755a12.375 12.375 0 0 1-6.49-.194.7.7 0 0 1 .412-1.334 11.06 11.06 0 0 0 6.23.085.698.698 0 0 1 .788.315l6.672 11.21a.983.983 0 0 0 .607.46c.26.066.534.027.764-.108l1.699-1.013a1.006 1.006 0 0 0 .352-1.383l-6.57-11.053a.703.703 0 0 1 .134-.879 11.095 11.095 0 0 0 .849-15.547.697.697 0 0 1 .292-1.124.699.699 0 0 1 .751.196c.526.594.995 1.236 1.401 1.917a12.49 12.49 0 0 1-1.935 15.201l6.279 10.573a2.426 2.426 0 0 1-.837 3.306l-1.699 1.007a2.428 2.428 0 0 1-1.213.34m-16.73-12.951a.758.758 0 0 1-.321-.08 12.32 12.32 0 0 1-3.404-2.608.699.699 0 0 1 .54-1.173.698.698 0 0 1 .486.227c.87.94 1.896 1.721 3.033 2.311a.704.704 0 0 1-.322 1.323m-4.683-4.422a.68.68 0 0 1-.606-.346 12.441 12.441 0 0 1 4.343-17.064c.55-.33 1.127-.616 1.723-.855a.7.7 0 1 1 .521 1.298 11.07 11.07 0 0 0-5.387 15.923.698.698 0 0 1-.606 1.056m15.941-16.227a.715.715 0 0 1-.345-.09 11.076 11.076 0 0 0-7.182-1.323.711.711 0 0 1-.788-.884.69.69 0 0 1 .593-.517c2.788-.431 5.64.093 8.092 1.486a.704.704 0 0 1-.345 1.31" fill="#003350"/><path d="M27.92 51.96a.685.685 0 0 1-.219-.036.691.691 0 0 1-.406-.346L14.029 25.78a.698.698 0 0 1 .303-.94l2.196-1.129a.696.696 0 1 1 .643 1.213l-1.577.807 12.623 24.555 8.492-4.367a.697.697 0 1 1 .643 1.213l-9.099 4.689a.717.717 0 0 1-.315.079m18.932-9.688a.71.71 0 0 1-.607-.376.703.703 0 0 1 .303-.946l6.194-3.197-12.623-24.555-2.215 1.134a.697.697 0 1 1-.606-1.213l2.833-1.455a.68.68 0 0 1 .533-.043.69.69 0 0 1 .407.346l13.266 25.798a.698.698 0 0 1-.303.94l-6.849 3.519a.656.656 0 0 1-.315.078" fill="#003350"/></svg>