<svg width="64" height="64" fill="none" xmlns="http://www.w3.org/2000/svg"><path d="M58.777 0H5.223A5.223 5.223 0 0 0 0 5.223v53.554A5.223 5.223 0 0 0 5.223 64h53.554A5.223 5.223 0 0 0 64 58.777V5.223A5.223 5.223 0 0 0 58.777 0Z" fill="#96DBD3"/><path d="M44.737 29.324a.656.656 0 0 0-.656.656v16.712H15.132V18.543H32.77a.676.676 0 1 0 0-1.351H15.132v-.617a3.99 3.99 0 0 1 3.839-4.12H32.75a.656.656 0 1 0 0-1.313H18.97a5.335 5.335 0 0 0-5.19 5.466v32.734a5.341 5.341 0 0 0 5.19 5.466h21.26a5.34 5.34 0 0 0 5.183-5.465v-19.35a.656.656 0 0 0-.676-.67Zm-.656 19.986a3.99 3.99 0 0 1-3.832 4.114H18.99a3.99 3.99 0 0 1-3.838-4.114v-1.254h28.93v1.254Z" fill="#00344E"/><path d="M49.842 9.843H37.435a2.624 2.624 0 0 0-2.625 2.624v9.442a2.625 2.625 0 0 0 2.624 2.625h2.336l-.118 4.442a.656.656 0 0 0 .414.656.722.722 0 0 0 .262.052.657.657 0 0 0 .486-.21l4.947-5.203 4.14-.085a2.664 2.664 0 0 0 2.625-2.625v-9.074a2.624 2.624 0 0 0-2.684-2.644Zm1.312 11.718a1.313 1.313 0 0 1-1.273 1.313l-4.422.092a.657.657 0 0 0-.472.21l-3.937 4.133.085-3.379a.656.656 0 0 0-.19-.485.655.655 0 0 0-.486-.21h-3.025a1.312 1.312 0 0 1-1.312-1.313v-9.435a1.312 1.312 0 0 1 1.313-1.312h12.407a1.313 1.313 0 0 1 1.312 1.312v9.074Z" fill="#00344E"/><path d="m48.018 14.941-2.624-.38-1.162-2.363a.708.708 0 0 0-1.214 0l-1.161 2.362-2.625.381a.656.656 0 0 0-.374 1.148l1.89 1.844-.446 2.625a.656.656 0 0 0 .269.656.656.656 0 0 0 .709.052l2.329-1.227 2.336 1.227a.741.741 0 0 0 .315.072.655.655 0 0 0 .656-.787l-.447-2.625 1.89-1.843a.656.656 0 0 0-.374-1.149l.033.007Zm-2.71 2.27a.656.656 0 0 0-.197.597l.276 1.595-1.437-.755a.709.709 0 0 0-.656 0l-1.437.755.275-1.595a.695.695 0 0 0-.196-.597l-1.162-1.135 1.608-.23a.656.656 0 0 0 .505-.367l.715-1.457.722 1.457a.655.655 0 0 0 .505.368l1.608.23-1.129 1.134ZM29.6 51.606a.978.978 0 1 0 0-1.956.978.978 0 0 0 0 1.956Zm7.46-12.198h.08a.656.656 0 0 0 .655-.793l-1.89-10.499a.657.657 0 0 0-.21-.36 6.749 6.749 0 0 0-.235-1.365 6.837 6.837 0 0 0-13.373 1.128.658.658 0 0 0 0 .322v.282l-1.883 10.465a.657.657 0 0 0 .656.794h.08l4.284-.511v.367a.69.69 0 0 1-.42.656l-3.156 1.312a5.08 5.08 0 0 0-1.752 1.208.657.657 0 0 0 0 .958.656.656 0 0 0 .951 0 3.749 3.749 0 0 1 1.313-.893l3.156-1.312a2.034 2.034 0 0 0 1.246-1.877v-1.646a6.713 6.713 0 0 0 4.862-.06v1.706a2.028 2.028 0 0 0 1.254 1.877l3.149 1.312c.59.25 1.108.642 1.51 1.142a.656.656 0 0 0 .524.256.656.656 0 0 0 .42-.145.657.657 0 0 0 .111-.95 5.182 5.182 0 0 0-2.047-1.55l-3.15-1.312a.656.656 0 0 1-.419-.656v-.367l4.285.511Zm-.747-1.45-3.557-.42v-.702a6.876 6.876 0 0 0 2.69-3.694l.867 4.816ZM28.892 22.75a5.5 5.5 0 0 1 5.072 3.405l-8.53 2.815-1.969-1.515a5.486 5.486 0 0 1 5.427-4.705Zm-3.694 14.79-3.537.42.8-4.443a6.837 6.837 0 0 0 2.737 3.432v.59Zm3.694-.847A5.492 5.492 0 0 1 23.4 31.2v-2.1l1.535 1.162c.119.085.26.13.407.131a.57.57 0 0 0 .21 0l8.766-2.9c.036.259.056.52.059.78v2.96a5.492 5.492 0 0 1-5.485 5.472v-.013Z" fill="#00344E"/></svg>