<svg width="64" height="64" fill="none" xmlns="http://www.w3.org/2000/svg"><path d="M58.777 0H5.223A5.223 5.223 0 0 0 0 5.223v53.554A5.223 5.223 0 0 0 5.223 64h53.554A5.223 5.223 0 0 0 64 58.777V5.223A5.223 5.223 0 0 0 58.777 0Z" fill="#EAECEC"/><path d="M48.883 21.6a.656.656 0 0 0-.657.656v24.396h-25.99V34.1a.673.673 0 0 0-1.345 0v13.267a.657.657 0 0 0 .657.656h27.321a.657.657 0 0 0 .657-.656V22.296a.654.654 0 0 0-.644-.696ZM21.56 23.74a.656.656 0 0 0 .657-.657V11.174h25.97v1.398a.676.676 0 0 0 1.352 0v-2.074a.657.657 0 0 0-.657-.656H21.561a.656.656 0 0 0-.656.656v12.565a.655.655 0 0 0 .656.676Z" fill="#00344E"/><path d="M44.408 48.26a.656.656 0 0 0-.657.655v1.181h-27.99V14.593h3.746a.657.657 0 0 0 0-1.313h-4.416a.656.656 0 0 0-.656.656v36.876a.656.656 0 0 0 .656.656h29.317a.656.656 0 0 0 .656-.656v-1.857a.657.657 0 0 0-.656-.696Z" fill="#00344E"/><path d="M30.104 43.187a.656.656 0 0 0 .656-.656v-9.409a.657.657 0 0 0-.656-.656h-3.937a.656.656 0 0 0-.656.656v9.39a.656.656 0 0 0 .656.655l3.937.02Zm-3.242-9.39h2.566v8.039h-2.566v-8.038Zm9.81 9.39a.657.657 0 0 0 .656-.656V27.866a.657.657 0 0 0-.656-.656h-3.937a.656.656 0 0 0-.656.656v14.645a.656.656 0 0 0 .656.656l3.937.02ZM33.43 28.542h2.566v13.294H33.43V28.542Zm9.81 14.645a.656.656 0 0 0 .656-.656V23.063a.656.656 0 0 0-.656-.656h-3.937a.656.656 0 0 0-.656.656v19.448a.656.656 0 0 0 .656.656l3.937.02ZM39.998 23.74h2.566v18.097h-2.566V23.739Z" fill="#00344E"/><path d="M48.883 14.284a3.104 3.104 0 0 0-3.091 3.025l-8.405 1.837a.656.656 0 0 0-.42.296l-2.697 4.18-9.783 3.614a3.07 3.07 0 1 0 .414 1.51v-.217l10.071-3.72a.656.656 0 0 0 .335-.27l2.67-4.133 8.104-1.772a3.098 3.098 0 1 0 2.828-4.35h-.026Zm-27.08 16.213a1.752 1.752 0 1 1-.013-3.504 1.752 1.752 0 0 1 .014 3.504Zm27.08-11.37a1.746 1.746 0 1 1 0-3.493 1.746 1.746 0 0 1 0 3.492Z" fill="#00344E"/></svg>