<svg width="69" height="64" fill="none" xmlns="http://www.w3.org/2000/svg"><path d="M62.675 64h-57.1c-1.478 0-2.896-.55-3.942-1.53C.587 61.488 0 60.16 0 58.772V5.227C0 3.84.587 2.51 1.633 1.53S4.097 0 5.575 0h57.116c1.48 0 2.897.55 3.943 1.53 1.045.981 1.633 2.31 1.633 3.697v53.546c0 1.386-.588 2.716-1.633 3.696C65.588 63.45 64.17 64 62.69 64" fill="#EBEDED"/><path d="M29.668 46.512a17.578 17.578 0 0 1-16.303-11.198.768.768 0 1 1 1.435-.547 16.016 16.016 0 0 0 14.888 10.237 15.809 15.809 0 0 0 9.243-2.956.77.77 0 0 1 .894 1.254 17.35 17.35 0 0 1-10.157 3.21ZM12.965 29.829a.77.77 0 0 1-.775-.768 17.478 17.478 0 0 1 32.4-9.102.777.777 0 0 1-1.13 1.025.779.779 0 0 1-.205-.225 15.936 15.936 0 0 0-29.543 8.302.767.767 0 0 1-.747.768Z" fill="#003350"/><path d="M40.059 53.98a.774.774 0 0 1-.74-.994l4.097-13.434-6.614.747a.767.767 0 0 1-.667-1.294l15.936-16.47a.768.768 0 0 1 1.295.734l-3.557 13.233 6.173-.233a.754.754 0 0 1 .734.46.78.78 0 0 1-.154.854l-15.936 16.19a.754.754 0 0 1-.547.227l-.02-.02Zm4.451-16.076a.774.774 0 0 1 .74.994l-3.523 11.558 12.38-12.62-5.28.194a.761.761 0 0 1-.773-.954l3.043-11.345L38.77 38.504l5.652-.667h.087" fill="#003350"/><path d="m35.051 33.537-3.28-.39v.232a.455.455 0 0 0 .296.457h.001l2.452 1.014a4.09 4.09 0 0 1 1.613 1.211m-1.082-2.524.956 3.291a.513.513 0 0 1-.326.112.514.514 0 0 1-.41-.198m-.22-3.205h.006m-.006 0h.006m1.076 2.524-.039.032.038-.032Zm0 0a.556.556 0 0 1-.095.807.564.564 0 0 1-.358.122.563.563 0 0 1-.447-.217m0 0 .039-.03m-.04.03.04-.03m-.04.03a2.956 2.956 0 0 0-1.154-.867m1.194.836a3.006 3.006 0 0 0-1.175-.882m0 0-.019.046m.02-.046-.02.046m.02-.046-2.453-1.014a1.576 1.576 0 0 1-.71-.578l3.143 1.638m0 0-2.452-1.014a1.626 1.626 0 0 1-.732-.596 1.608 1.608 0 0 1-.274-.9m3.458 2.51-3.458-2.51m0 0V32.15a5.311 5.311 0 0 1-3.685.044v1.201h-.05 3.735Zm4.437.14h.061a.563.563 0 0 0 .557-.424.553.553 0 0 0 .004-.248l-1.471-8.113v-.001a.556.556 0 0 0-.165-.293 5.233 5.233 0 0 0-.184-1.044 5.335 5.335 0 0 0-2.113-2.928 5.402 5.402 0 0 0-6.805.57 5.32 5.32 0 0 0-1.59 3.235.553.553 0 0 0 0 .263v.207l-1.465 8.083a.554.554 0 0 0 .315.623.56.56 0 0 0 .245.05h.067l3.28-.389m9.264.41-9.264-.41m0 0v.23a.48.48 0 0 1-.296.459L23.04 34.83a4.005 4.005 0 0 0-1.38.944.554.554 0 0 0-.13.628c.03.069.074.131.13.183a.562.562 0 0 0 .184.127l.02-.046-.02.046a.564.564 0 0 0 .442 0l-.02-.046.02.046a.559.559 0 0 0 .186-.128l3.32-3.457Zm2.955-1.79v.01a4.241 4.241 0 0 0 2.93-1.224 4.18 4.18 0 0 0 1.24-2.954m-4.17 4.168 4.22-4.168h-.05m-4.17 4.168h-.05a4.241 4.241 0 0 1-2.988-1.228 4.179 4.179 0 0 1-1.237-2.966v-1.522l1.115.837c.1.072.22.11.342.111.059.01.119.01.177 0l.007-.002 6.767-2.223c.023.179.035.358.037.538m-4.17 6.455 4.17-6.455m0 2.286v-2.286m0 2.286v-2.286m-1.161 6.643a5.368 5.368 0 0 0 2.03-2.675l.627 3.459-2.657-.312v-.472Zm-3.059-10.863c.837.002 1.654.25 2.349.713a4.207 4.207 0 0 1 1.532 1.838l-6.563 2.15-1.488-1.137a4.181 4.181 0 0 1 1.408-2.54 4.239 4.239 0 0 1 2.762-1.024Zm-2.926 10.95v.385l-2.642.312.58-3.19a5.342 5.342 0 0 0 2.062 2.494Z" fill="#00344E" stroke="#00344E" stroke-width=".1"/></svg>