<svg width="71" height="67" fill="none" xmlns="http://www.w3.org/2000/svg"><path d="M65.43 67H8.553c-1.472 0-2.885-.55-3.926-1.53C3.585 64.488 3 63.16 3 61.772V8.227C3 6.84 3.585 5.51 4.627 4.53 5.668 3.55 7.08 3 8.553 3h56.894c1.472 0 2.885.55 3.926 1.53C70.415 5.512 71 6.84 71 8.228v53.546c0 1.386-.585 2.716-1.627 3.696-1.041.98-2.453 1.53-3.926 1.53" fill="#EBEDED"/><path d="M43.55 46.86h-.413a7.205 7.205 0 0 1-7.197-7.197V26.5a5.544 5.544 0 1 0-11.084 0v9.984a.827.827 0 0 1-1.654 0V26.5a7.197 7.197 0 1 1 14.391 0v13.163a5.552 5.552 0 0 0 5.544 5.544h.414a5.552 5.552 0 0 0 5.543-5.544v-12.34a.827.827 0 0 1 1.654 0v12.34a7.206 7.206 0 0 1-7.197 7.197Z" fill="#00334E"/><path d="M24.03 53.533a8.834 8.834 0 1 1 8.83-8.83 8.843 8.843 0 0 1-8.83 8.83Zm0-16.012a7.182 7.182 0 1 0 7.176 7.181 7.189 7.189 0 0 0-7.177-7.18Zm26.04-9.368a8.834 8.834 0 1 1 8.835-8.834 8.843 8.843 0 0 1-8.835 8.834Zm0-16.011a7.181 7.181 0 1 0 0 14.362 7.181 7.181 0 0 0 0-14.362Z" fill="#00334E"/></svg>