<svg height="700pt" viewBox="0 0 700 700" width="700pt" xmlns="http://www.w3.org/2000/svg"><path d="M336.8.5c-.2.2-3.7.6-7.8.9-21.3 1.8-48.3 8.1-70.4 16.6-32.7 12.4-62.2 32-81.5 54.1-9.7 11.1-10.2 11.7-15.5 19.8-28.9 44-35.3 106.1-16.5 159.7 14.9 42.7 48.4 81.3 96.9 111.6 5.8 3.6 13.3 8.1 16.8 9.9 3.4 1.9 6.2 3.7 6.2 4.1 0 .3-3.5 2.1-7.7 3.8-49.8 20.7-101.9 61-120.9 93.6-7.3 12.5-13.3 28.8-15.8 42.9-1.9 10.6-1.4 37.7.9 50.5 10 55.6 50.9 97.5 114.5 117.5 12.1 3.8 30.5 8 39.5 9.1 2.2.2 4.6.7 5.3.9.7.3 4.5.7 8.5 1.1 4 .3 7.5.8 7.8 1 1.6.9 26.8 1.9 48.9 1.9 24.6 0 35.4-.7 52.8-3.1 69.4-9.5 124.1-40.5 154.7-87.7 6.2-9.5 16-29.5 18.1-36.7.7-2.5 2.2-7.6 3.3-11.3 1.1-3.8 2.2-8.4 2.5-10.3.3-1.8 1-5.3 1.5-7.7 1.5-6.5 2.4-16.9 2.5-29.7.3-29-5.7-56.2-18.5-83.5-2.4-5.2-12.9-23.4-14.8-25.7-.6-.7-3.9-5-7.4-9.5-13.6-17.5-30.1-33.7-46.9-46.1-4.3-3.1-7.7-6-7.8-6.3 0-.3.8-1.4 1.8-2.5 3.7-3.9 13.2-17.2 18.7-25.9 7-11.2 15.7-29 14.9-30.7-.2-.7-2.5-2.9-5.1-4.8-3.9-2.9-4.7-3.2-5.7-1.9-9 12.1-26.9 30.1-39.6 39.8-15.1 11.6-31.8 19.1-50.8 22.7-15.5 2.9-43.6 1.6-66.5-3.1-10.3-2.1-31.2-10.6-42.2-17.2-13.8-8.3-31.3-25.8-40.8-40.9-9.1-14.6-16.1-31-20.6-48.6-4.2-16.2-4.2-16.5-4.6-42.3-.3-27.1.7-40.1 4.7-60.5 2.1-10.7 6.1-25.9 7.8-29.5.5-1.1 2-4.9 3.4-8.4 6.8-17.1 19.3-33.8 33.7-45.4 7.4-5.8 23.6-13.6 31.5-15.1 1.1-.2 3.7-.9 5.9-1.4 17.3-4.5 45.5-3.1 63.3 3.2 5 1.8 17.5 7.6 18.2 8.5.3.3 2.3 1.8 4.5 3.2 4.5 3 10.8 8.9 13 12.2 4 6.3 4.7 24.2 1.9 51.7-3.3 31.8 2.2 52.5 18.1 68.6 11.9 12 26.8 17.5 45.4 16.8 23-.9 42.4-15.6 48.2-36.4 1.7-6.3 2.1-20 .8-29.4-1.3-9.9-6.5-25.9-11.4-35.1-10.8-20.4-30.2-40.7-53.5-56C461.9 20.9 431.8 9.2 408 5c-9.5-1.7-9.8-1.8-18.5-3.1-7-1-51.8-2.2-52.7-1.4zM299.5 393c30.7 13.8 63.6 31.6 86.5 46.9 17.5 11.6 36.3 28.3 45.3 40.1 2.3 3 4.4 5.7 4.7 6 1.1 1 6.6 10.6 8.9 15.4 2.9 6.4 7.8 21.1 8.5 26 .4 2.1.8 4.1 1 4.5.8 1.2 1.9 15.8 1.9 24.1 0 14.8-2.3 33.3-5.8 47-1.4 5.7-5.9 16.8-9.6 24-18 34.6-48.3 52-90.4 51.8-36.3-.2-64.1-12.5-86.1-38.3-14.5-17.1-27-42.2-30.8-62-.1-.6-.5-2.4-.9-4-3.5-16-4.5-29.2-4.2-56 .2-14.3.6-27.1.8-28.5.3-1.4 1.1-6.8 1.7-12 4-32.2 15.6-55.6 41.4-83.6 4.9-5.2 9.4-9.3 10-9.1.6.3 8.3 3.7 17.1 7.7z"/></svg>