<svg width="1512" height="65" fill="none" xmlns="http://www.w3.org/2000/svg"><path d="M122.89 51.475c-153.042 33.129-138.357-2.05-296.361-26.15C-181.184 24.148-187 17.544-187 9.741c0-8.638 7.003-15.64 15.641-15.64h367.763L1376.02-14C1437.13-7.758 1546.91-2.03 1614.8.711c19.87-.543 36.28-.482 47.92.363 27.99 2.032.84 1.605-47.92-.363-122.9 3.36-378.12 29.84-456.49 36.814-91.05 8.1-104.81 5.863-436.565-19.35-100.657-7.65-248.754-25.566-352.866-13.5-116.492 13.5-136.849 23.174-245.989 46.8Z" fill="#fff"/></svg>