<svg width="222" height="189" fill="none" xmlns="http://www.w3.org/2000/svg"><path d="M194.519 87.61c4.514-7.65 1.203-17.126-3.387-23.25-9.626-12.785-30.08-21.767-17.038-41.914 10.296-15.912 29.877-17.86 46.313-19.682.978-.124.999-1.847-.008-1.807-20.45 1.01-54.431 7.151-54.171 35.502.144 14.96 14.347 20.172 21.8 30.49 5.825 8.08 8.108 18.244-6.568 24.39-3.414 1.45-8.027 1.349-11.674 1.842a321.963 321.963 0 0 1-33.084 2.703c-32.544.877-67.884-4.226-97.93 14.652-20.354 12.775-33.514 37.674-26.132 60.11a20.714 20.714 0 0 1-5.019-3.584c-1.17-1.468-2.375-2.93-3.531-4.418-1.735-2.252-4.862.574-3.506 2.9a24.903 24.903 0 0 0 4.871 6.104 212.09 212.09 0 0 0 14.683 15.986c.238.297.554.52.913.647.36.128.752.154 1.136.078.386-.077.75-.253 1.06-.515.308-.26.549-.593.699-.968a2765.575 2765.575 0 0 0 8.853-17.826c1.289-2.621-2.706-3.956-4.018-1.385-2.5 4.886-4.939 9.811-7.38 14.739a252.911 252.911 0 0 1-5.584-5.854c.397.108.822.1 1.228-.027a2.415 2.415 0 0 0 1.067-.689c.29-.323.493-.72.58-1.14a2.259 2.259 0 0 0-.087-1.242c-17.324-36.682 23.321-65.532 55.137-71.26 31.815-5.728 63.073-.6 94.583-4.744 8.29-.97 21.008-1.086 26.194-9.837Z" fill="#ED634D"/></svg>