<svg width="138" height="315" fill="none" xmlns="http://www.w3.org/2000/svg"><path d="M-14.988 68.42c17.114 0 33.845 5.225 48.076 15.013 14.23 9.788 25.321 23.701 31.87 39.978 6.55 16.277 8.264 34.188 4.925 51.467-3.339 17.28-11.58 33.153-23.682 45.61-12.103 12.458-27.521 20.942-44.307 24.379-16.786 3.438-34.185 1.674-49.997-5.069-15.813-6.742-29.327-18.159-38.836-32.808-9.508-14.649-14.583-31.872-14.583-49.49.024-23.617 9.15-46.261 25.372-62.96 16.223-16.7 38.219-26.094 61.162-26.12Zm0-68.42C-45.25-.002-74.831 9.233-99.994 26.538c-25.162 17.305-44.774 41.902-56.356 70.68-11.582 28.78-14.614 60.448-8.712 91.001 5.903 30.553 20.474 58.618 41.871 80.646 21.397 22.028 48.659 37.03 78.338 43.108 29.68 6.078 60.443 2.96 88.401-8.961 27.958-11.92 51.854-32.108 68.666-58.009C129.026 219.102 138 188.651 138 157.5c.002-20.683-3.954-41.163-11.642-60.272-7.688-19.108-18.956-36.471-33.163-51.097C78.99 31.506 62.123 19.904 43.561 11.99 24.998 4.074 5.103 0-14.99 0Z" fill="#10334D"/></svg>