<svg width="202" height="201" fill="none" xmlns="http://www.w3.org/2000/svg"><path d="M67.145 167.42a33.419 33.419 0 0 0-5.657-18.602 33.549 33.549 0 0 0-15.067-12.333 33.66 33.66 0 0 0-19.398-1.905 33.599 33.599 0 0 0-17.19 9.164 33.457 33.457 0 0 0-9.188 17.144 33.401 33.401 0 0 0 1.91 19.346 33.503 33.503 0 0 0 12.365 15.027 33.64 33.64 0 0 0 42.392-4.164 33.438 33.438 0 0 0 9.833-23.677Z" fill="#356D82"/><path d="M134.282 167.42a33.418 33.418 0 0 0-5.657-18.602 33.552 33.552 0 0 0-15.067-12.333 33.658 33.658 0 0 0-19.397-1.905 33.601 33.601 0 0 0-17.19 9.164 33.457 33.457 0 0 0-9.189 17.144 33.402 33.402 0 0 0 1.91 19.346 33.505 33.505 0 0 0 12.366 15.027 33.639 33.639 0 0 0 18.652 5.644 33.643 33.643 0 0 0 12.848-2.547 33.58 33.58 0 0 0 10.894-7.259 33.477 33.477 0 0 0 7.277-10.864 33.39 33.39 0 0 0 2.553-12.815Z" fill="#356D82"/><path d="M201.42 167.42a33.42 33.42 0 0 0-5.658-18.602 33.547 33.547 0 0 0-15.067-12.333 33.657 33.657 0 0 0-19.397-1.905 33.6 33.6 0 0 0-17.19 9.164 33.463 33.463 0 0 0-9.188 17.144 33.405 33.405 0 0 0 1.911 19.346 33.503 33.503 0 0 0 12.365 15.027 33.64 33.64 0 0 0 18.652 5.644 33.643 33.643 0 0 0 12.848-2.547 33.575 33.575 0 0 0 10.893-7.259 33.41 33.41 0 0 0 9.831-23.679ZM67.145 100.453a33.42 33.42 0 0 0-5.657-18.603A33.554 33.554 0 0 0 46.42 69.518a33.657 33.657 0 0 0-19.398-1.906 33.6 33.6 0 0 0-17.19 9.164A33.46 33.46 0 0 0 .645 93.92a33.402 33.402 0 0 0 1.91 19.346 33.503 33.503 0 0 0 12.365 15.027 33.638 33.638 0 0 0 18.652 5.643 33.62 33.62 0 0 0 23.74-9.807 33.44 33.44 0 0 0 9.833-23.677Z" fill="#356D82"/><path d="M134.282 100.453a33.42 33.42 0 0 0-5.657-18.603 33.558 33.558 0 0 0-15.067-12.332 33.656 33.656 0 0 0-19.397-1.906 33.603 33.603 0 0 0-17.19 9.164 33.46 33.46 0 0 0-9.189 17.145 33.403 33.403 0 0 0 1.91 19.346 33.505 33.505 0 0 0 12.366 15.027 33.638 33.638 0 0 0 18.652 5.643 33.624 33.624 0 0 0 23.742-9.805 33.488 33.488 0 0 0 7.277-10.864 33.395 33.395 0 0 0 2.553-12.815Z" fill="#356D82"/><path d="M201.42 100.453a33.421 33.421 0 0 0-5.658-18.603 33.552 33.552 0 0 0-15.067-12.332 33.655 33.655 0 0 0-19.397-1.906 33.602 33.602 0 0 0-17.19 9.164 33.465 33.465 0 0 0-9.188 17.145 33.406 33.406 0 0 0 1.911 19.346 33.503 33.503 0 0 0 12.365 15.027 33.638 33.638 0 0 0 18.652 5.643 33.624 33.624 0 0 0 23.741-9.805 33.413 33.413 0 0 0 9.831-23.679ZM67.145 33.484a33.421 33.421 0 0 0-5.657-18.603A33.553 33.553 0 0 0 46.42 2.549 33.657 33.657 0 0 0 27.023.643a33.6 33.6 0 0 0-17.19 9.164A33.457 33.457 0 0 0 .645 26.951a33.404 33.404 0 0 0 1.91 19.347A33.503 33.503 0 0 0 14.92 61.325a33.636 33.636 0 0 0 42.39-4.167 33.446 33.446 0 0 0 9.835-23.674Z" fill="#356D82"/><path d="M134.282 33.485a33.42 33.42 0 0 0-5.657-18.603A33.556 33.556 0 0 0 113.558 2.55 33.655 33.655 0 0 0 94.161.644a33.602 33.602 0 0 0-17.19 9.164 33.456 33.456 0 0 0-9.189 17.145 33.404 33.404 0 0 0 1.91 19.346 33.505 33.505 0 0 0 12.366 15.027 33.636 33.636 0 0 0 18.652 5.643 33.621 33.621 0 0 0 23.74-9.807 33.438 33.438 0 0 0 9.832-23.677Z" fill="#356D82"/><path d="M201.42 33.485a33.421 33.421 0 0 0-5.658-18.603A33.551 33.551 0 0 0 180.695 2.55 33.655 33.655 0 0 0 161.298.644a33.602 33.602 0 0 0-17.19 9.164 33.462 33.462 0 0 0-9.188 17.145 33.407 33.407 0 0 0 1.911 19.346 33.503 33.503 0 0 0 12.365 15.027 33.636 33.636 0 0 0 18.652 5.643 33.617 33.617 0 0 0 23.739-9.807 33.44 33.44 0 0 0 9.833-23.677Z" fill="#356D82"/></svg>