<svg width="333" height="248" fill="none" xmlns="http://www.w3.org/2000/svg"><path d="M3.302 55.024 1.88 56.23a3.628 3.628 0 0 0-.945 1.23 3.76 3.76 0 0 0-.353 1.528c-.009.53.096 1.054.304 1.535.21.481.519.906.905 1.246-.328.789-.474 1.66-.618 2.531a24.2 24.2 0 0 1-.217 1.18c-.665 2.908 2.34 4.432 4.604 3.822l43.698-12.777c3.792-1.067 2.122-7.307-1.611-6.785a9759.217 9759.217 0 0 0-32.19 4.233C45.874 29.485 77.008 9.8 116.99 7.656c43.931-1.929 87.456 8.49 126.043 30.174 72.497 40.774 118.758 120.826 112.662 208.014-.107 1.665 2.326 2.053 2.499.33 8.856-86.478-35.982-168.44-106.996-210.964C212.036 11.83 167.505-.07 122.252.747c-43.643.985-77.128 20.89-110.357 47.412l6.426-28.088c1.018-4.551-5.789-5.495-6.825-.996L3.302 55.024Z" fill="#ED634D" stroke="#ED634D"/></svg>