<svg width="98" height="212" fill="none" xmlns="http://www.w3.org/2000/svg"><path d="M30.93 199.428c7.674-.981 15.294-2.238 23.002-3.578 2.718-.491 3.276 5.73.555 6.46-13.592 3.554-27.33 5.572-41.068 6.03-2.961 1.096-5.775 2.108-8.733 2.925a1.973 1.973 0 0 1-1.66-.11c-.52-.28-.952-.786-1.23-1.441a4.498 4.498 0 0 1-.304-2.191c.08-.766.341-1.488.745-2.055l.541-.774c.066-.792.326-1.543.738-2.132l28.148-39.487c2.406-3.382 6.047 1.5 3.67 4.921l-23.106 33.152 1.326-.046c62.23-25.006 98.553-118.313 67.68-197.692a2.02 2.02 0 0 1-.095-1.179c.086-.402.285-.748.554-.963.269-.215.585-.28.879-.183.294.098.542.352.69.705 32.607 73.476 2.145 162.845-52.331 197.638Z" fill="#ED634D" stroke="#ED634D"/></svg>