<svg width="233" height="240" fill="none" xmlns="http://www.w3.org/2000/svg"><path d="M116.509 52.13c13.032 0 25.771 3.98 36.607 11.438 10.835 7.458 19.281 18.058 24.268 30.46a69.761 69.761 0 0 1 3.749 39.213c-2.542 13.165-8.818 25.258-18.033 34.75-9.215 9.492-20.955 15.956-33.736 18.575-12.782 2.618-26.03 1.274-38.07-3.862-12.04-5.137-22.33-13.836-29.57-24.998-7.241-11.161-11.105-24.283-11.105-37.706.018-17.994 6.967-35.246 19.32-47.97 12.352-12.724 29.1-19.88 46.57-19.9Zm0-52.13C93.467-.002 70.942 7.034 51.783 20.22 32.623 33.403 17.69 52.144 8.87 74.071.05 95.999-2.257 120.126 2.237 143.404c4.495 23.278 15.59 44.661 31.882 61.445 16.292 16.783 37.05 28.213 59.65 32.843 22.599 4.631 46.024 2.256 67.312-6.827 21.288-9.082 39.483-24.463 52.285-44.197C226.167 166.935 233 143.734 233 120a123.126 123.126 0 0 0-8.865-45.921c-5.854-14.56-14.434-27.788-25.251-38.931-10.817-11.144-23.66-19.983-37.794-26.014A113.55 113.55 0 0 0 116.509 0Z" fill="#B5DCD9"/></svg>