<svg width="440" height="235" fill="none" xmlns="http://www.w3.org/2000/svg"><path d="M422.812 26.965c-10.217 1.337-20.052 2.98-24.771 9.14-3.503 2.311-10.76 2.998-9.748 7.278-2.643 1.68-6.304 2.926-6.785 5.473l-5.829 3.414c-4.267 2.51-5.577 5.78-6.981 9.013-1.243 1.174-2.454 2.348-3.697 3.522-4.902 1.68-5.606 4.353-5.356 7.26-1.115 1.283-2.263 2.566-3.378 3.83-5.897 6.936-12.112 13.8-11.837 21.8-7.612 4.498-6.698 10.82-10.651 16.112-.992 3.54-2.015 7.081-3.007 10.621-5.531-3.811-2.47-8.146-2.242-12.301-2-3.088.869-6.682-3.105-9.554-.189-1.03-.41-2.059-.6-3.089 2.808-5.6-1.353-10.927-2.013-16.4 1.536-6.178.049-12.192-3.316-18.08 1.058-5.582-2.754-10.73-4.273-16.076.195-3.052-.629-5.834-5.813-7.531.032-.524-.158-.994-.635-1.445l.099-1.879-6.387-7.152c.165-3.577-3.238-5.148-9.22-5.238-4.295-.777-8.558-1.554-12.853-2.33-16.993-.181-31.54 3.323-44.342 9.5-8.214 3.27-16.206 6.629-19.397 12.427 3.248-1.174 6.464-2.366 9.711-3.54-3.247 1.174-6.463 2.366-9.711 3.54a277.087 277.087 0 0 0-3.311 1.59c-8.977 1.86-7.521 7.784-13.222 10.909-2.897.776-5.794 1.571-4.969 3.883a3.804 3.804 0 0 0-.798 1.59c-5.763 2.095-7.741 5.563-10.132 8.886-.669.705-1.37 1.409-2.04 2.113-7.936 8.67-15.776 17.34-18.972 27.075-.669.452-.924.958-.766 1.536-7.392 6.683-10.776 14.124-12.887 21.801-4.015 3.955-6.248 8.164-5.905 12.769-4.621 5.04-6.697 10.404-6.705 16.058l-6.365.216c-.158-.596-.348-1.192-.506-1.77-2.246-9.717-1.5-19.724-8.392-29.007 1.88-1.843 1.437-3.613-.374-5.365.714-10.44-2.994-20.572-6.576-30.705.068-3.125.295-6.25-2.851-9.031l-.189-1.806c3.035-8.417-3.573-16.13-5.471-24.186-.061-1.535-.091-3.07-.152-4.587l-3.723-.109c-.031-.56-.062-1.138-.125-1.698-1.016-1.842-2.064-3.666-3.08-5.508-2.418-.037-4.836-.09-6.554-.416 1.718.325 4.105.38 6.555.416 1.015 1.842 2.063 3.666 3.079 5.508.031.56.094 1.138.125 1.698l3.723.109c-.373-6.792-.395-13.62-5.605-19.959-.442-2.42-.916-4.822-1.358-7.243-1.14-3.793-2.408-7.568-3.42-11.379C94.6 4.568 92.186.83 83.913.414c-8.114-.398-12 2.745-13.597 6.918-3.566 1.011-2.773 3.052-3.508 4.75-4.079 4.208-8.921 8.218-9.947 13.167-5.45 6.394-8.928 13.15-11.516 20.085-1.308 2.908-2.585 5.798-3.894 8.706.508.65.985 1.3 1.493 1.95 1.59.019 3.182.055 4.805.073a436.9 436.9 0 0 1-4.805-.072c-.477-.65-.985-1.3-1.461-1.951-3.79 2.673-3.096 5.942-3.768 9.031-5.098 4.335-4.023 9.5-6.003 14.25-3.412 5.438-6.475 10.892-5.306 16.799-6.148 4.894-1.288 11.144-6.26 16.183-.29 2.312-.579 4.642-.869 6.954-4.683 4.064-2.176 8.598-2.627 12.933-.352 1.083-.704 2.167-1.087 3.251 2.387.126 4.773.235 7.16.361l-7.16-.361v.036c-3.792 3.54-2.588 7.387-2.18 11.198-.16 1.156-.321 2.294-.482 3.45.252 1.77.473 3.558.725 5.328-.253-1.77-.473-3.558-.725-5.328-3.889 4.696-2.91 9.663-2.502 14.594l-.194 1.843c-.51.469-.67.993-.543 1.535-4.59 4.678-2.56 9.753-2.79 14.702.124 2.511-3.952 4.823-1.156 7.46 0 .433.19.831.54 1.21-4.176 4.769-2.91 9.826-2.471 14.847-.131 2.402-.23 4.787-.36 7.189-.765.325-.893.704-.384 1.156-3.57 3.63-2.557 7.532-2.276 11.415-.129 1.463-.736 2.98-.324 4.389.633 2.059-2.458 5.563 3.588 5.78 6.332.217 6.432-3.053 6.118-5.834 3.187-3.432 4.75-6.864.046-10.314.446-.234.637-.523.638-.867l2.198-2.059c3.536-2.149 2.267-4.786 2.334-7.297-.86 0-1.719 0-2.578.018-.191.452-.32.904-.352 1.373l-5.827 2.33 5.827-2.33c.033-.469.16-.921.352-1.355.86 0 1.718 0 2.578-.018-.946-6.61 4.282-13.167.728-19.814 4.78-5.183 4.215-10.71 3.364-16.255.669-.326.828-.723.415-1.175 4.555-2.908 1.76-6.412 2.432-9.627.097-.614.225-1.21.321-1.824 2.21-9.609 6.264-19.109 6.15-28.881 2.236-5.274 5.552-10.458 4.033-16.039h-.032c4.299-2.15 2.425-4.895 2.206-7.478a195.53 195.53 0 0 1-3.246-.126l3.246.126c4.941-6.322 3.87-13.312 6.806-19.868 5.796-3.125 1.252-7.297 3.357-10.783 4.019-6.43 7.4-12.95 6.17-19.922.636-.344.86-.76.67-1.247C63.196 46.833 64.356 36.556 70.32 27.29h.191c1.18-1.138 2.326-2.312 3.505-3.468.768-2.492 1.535-5.003 2.302-7.496.383-.505.606-1.03.67-1.57 2.96-.11 5.505.288 7.063 1.878-.387 2.98-.805 5.978-1.19 8.958a5.98 5.98 0 0 0 .888 1.698c3.62 5.87 1.287 12.39 6.116 18.134.727 3.685-2.588 7.64 2.276 11.036 1.586 3.595-.202 7.514 3.326 10.928.22 1.102.442 2.221.663 3.323-.802 4.335-1.349 8.67 2.942 12.626.093 1.192.187 2.402.25 3.594-1.63 5.021 2.086 9.663 3.193 14.486-.29 2.528-1.185 5.111 2.217 7.297.201 15.389 4.826 30.47 9.641 45.534-.159.524.095.957.762 1.337-2.296 3.955 2.122 7.261 3.326 10.873l.154 3.486c-1.849 2.745.885 4.371 4.352 5.834 1.111 1.77-.229 4.064 3.334 5.346 2.16 2.421 3.97 4.949 10.432 3.414 5.062-1.21 8.787-2.583 9.874-6.087 2.173-6.972 3.297-13.944 3.339-21.006 6.049-1.752 3.666-4.606 2.938-7.261a5.81 5.81 0 0 0 .575-1.734l25.945-52.29c1.753-1.878 3.537-3.738 5.29-5.617 7.292-3.179 6.312-8.001 7.623-12.372l2.707-1.644c6.721-4.37 12.296-9.14 15.932-14.594-2.133.542-4.266 1.066-6.399 1.608-.608 2.51-2.901 4.1-6.371 5.147 3.47-1.047 5.763-2.655 6.371-5.147 2.133-.542 4.266-1.066 6.399-1.608l-.223-.054c3.089-1.5 6.687-2.818 5.736-5.636l4.301-3.377 11.66-9.23c13.499-4.66 25.155-11.289 41.736-12.661l3.182-.127c2.737.163 5.473.344 8.21.506 2.288 1.842 3.208 4.299 7.438 5.274l1.685 1.698 11.033 28.935c.184 4.841-.332 9.718 3.162 14.324.125 1.192.251 2.366.377 3.558-.641 2.727-1.726 5.49 2.28 7.784a2.506 2.506 0 0 0-.479 1.084c-2.963 2.583-3.89 5.112.721 7.46-2.549 2.384-3.539 4.75.022 7.116-1.817 2.511.534 4.859.913 7.279-.066 1.192-.131 2.403-.196 3.595-.013 9.284-2.222 18.64 2.411 27.779-.732.235-.924.56-.574.994-2.773 3.233-2.141 6.357.75 9.446.439 4.786-2.019 9.772 3.258 14.197-.195 2.727 1.967 3.955 6.678 3.106 5.347-.957 10.187-3.07 9.523-6.267-1.769-8.67 4.511-16.906 3.409-25.486-1.144-.704-2.321-1.409-3.465-2.113-.444-1.048-.92-2.095-1.364-3.143.444 1.048.92 2.095 1.364 3.143 1.144.704 2.321 1.409 3.465 2.113 3.293-10.277 6.617-20.554 9.909-30.832 3.599-2.095 2.425-4.804 2.906-7.297 4.14-2.583 3.668-6.087 5.677-9.103 2.899-2.33-1.424-5.653 3.32-7.73 5.894-4.733 8.543-10.133 10.015-15.769.924-1.21 1.849-2.42 2.773-3.612.51-.397.733-.849.575-1.337 4.361-1.138 4.556-3.793 6.532-5.78 2.737-.776 3.312-2.095 2.741-3.666 3.504-2.258 8.63-3.83 9.43-7.225-.094-.722-.157-1.445-.252-2.167.063.722.158 1.445.252 2.167 6.75-2.673 9.111-6.972 12.426-10.91 11.206-3.738 21.079-9.12 35.271-9.067-1.111-1.752-2.19-3.504-3.302-5.274l-13.462 1.463.032-.126ZM16.236 153.724c3.598-1.878 4.97-3.991 5.386-6.213-.416 2.204-1.788 4.317-5.386 6.213Zm43.22-117.692c2.264-3.016 4.941-5.924 7.81-8.796-.477-.849-1.08-1.445-1.812-1.842a4.362 4.362 0 0 1 1.811 1.842c-2.868 2.872-5.545 5.78-7.808 8.796ZM67.159 13.4c.348.867.825 1.698 1.842 2.367-.986-.669-1.494-1.5-1.842-2.367Zm41.993 75.97c.762 1.047 1.174 2.185 1.777 3.287-.603-1.102-1.015-2.222-1.777-3.288Zm-.763-.868c.924-.596 1.816-1.192 2.739-1.788-1.937-2.348-3.843-4.696-5.781-7.044.35-.361.764-.668 1.21-.903a4.32 4.32 0 0 0-1.21.903c1.938 2.348 3.844 4.696 5.781 7.044-.923.596-1.815 1.192-2.739 1.788Zm22.376 86.843-2.737.108 2.737-.108Zm3.266-14.233a29.546 29.546 0 0 1-.221-1.662c-2.131-.361-4.996-.036-6.745-.795 1.749.759 4.614.434 6.745.777.063.56.158 1.12.221 1.662v.018Zm9.284 5.328c.192-.452.288-.885.288-1.282 0 .415-.128.849-.288 1.282Zm.288-1.337c.001-.216.001-.415-.062-.632.063.199.095.416.062.632Zm15.936-40.296c-1.147 1.048-1.785 2.565-3.123 3.522 1.338-.957 1.976-2.474 3.092-3.522.006-4.696 3.194-8.724 6.668-12.716-3.474 3.992-6.694 8.02-6.668 12.716h.031Zm14.894-23.047c.192-.759-.284-1.517-2.225-2.294.001-.686.098-1.337.481-1.915-.351.578-.48 1.229-.481 1.915 1.941.777 2.417 1.535 2.225 2.294Zm33.287-46.113c2.58-2.004 3.189-4.966 6.087-6.809-2.898 1.843-3.507 4.805-6.087 6.81Zm98.632 10.838s-.095.09-.223.216l.223-.216Zm12.022 27.526c.031.759.062 1.517.188 2.222-.158-.705-.157-1.481-.188-2.222Zm5.977 26.84c-4.427 2.186-4.651 3.486-2.902 4.353-1.749-.885-1.525-2.167 2.902-4.353Zm-3.194 30.345c.829-.831 1.18-1.752.514-2.926 1.179-1.12 1.976-2.457 3.282-3.522-1.274 1.065-2.072 2.402-3.282 3.522.666 1.174.315 2.113-.514 2.926Zm10.176-17.34c-.318-.09-.604-.199-.891-.307.255.108.573.217.891.307Zm.267-8.868-.35-.217.35.217Z" fill="#fff"/></svg>