<svg width="192" height="146" fill="none" xmlns="http://www.w3.org/2000/svg"><path d="m174.697 140.603-.248.968a1.998 1.998 0 0 1-.37.747 2.07 2.07 0 0 1-.648.54 2 2 0 0 1-.804.231 1.86 1.86 0 0 1-.803-.123c-.301.347-.683.629-1.066.91a13.35 13.35 0 0 0-.514.391c-1.235 1.025-2.656-.025-2.887-1.246l-3.974-23.801c-.365-2.055 3.001-2.788 3.612-.894 1.81 5.421 3.61 10.843 5.401 16.268 4.682-20.376 6.904-39.918-1.291-59.364-9.209-21.262-24.221-39.316-43.474-52.282C91.442-1.405 42.544-3.747 2.311 20.43c-.77.458-1.517-.599-.734-1.102C40.835-5.981 90.317-4.779 127 18.444c20.195 12.824 36.147 30.992 46.191 52.609 9.593 20.894 7.808 41.603 2.803 63.807l11.933-9.901c1.939-1.594 3.959 1.397 2.049 2.986l-15.279 12.658Z" fill="#ED634D" stroke="#ED634D"/></svg>