<svg width="1512" height="58" fill="none" xmlns="http://www.w3.org/2000/svg"><path d="M1451.11 13.525c153.04-33.129 138.36 2.05 296.36 26.15 7.71 1.177 13.53 7.781 13.53 15.584 0 8.638-7 15.64-15.64 15.64H1377.6L197.98 79C136.871 72.758 27.093 67.029-40.8 64.288c-19.867.543-36.278.482-47.924-.363-27.985-2.031-.831-1.605 47.924.363 122.903-3.36 378.12-29.84 456.495-36.813 91.044-8.1 104.803-5.864 436.56 19.35 100.657 7.65 248.755 25.565 352.865 13.5 116.49-13.5 136.85-23.175 245.99-46.8Z" fill="#DFE9EC"/></svg>