<svg width="196" height="60" fill="none" xmlns="http://www.w3.org/2000/svg"><path d="M6.253 26.766 33.098 53.36V26.765H6.253Z" fill="#003072"/><path d="M33.098.174v26.592h26.844L33.098.174Z" fill="#017FCA"/><path d="M33.098 26.766V53.36l26.844-26.593H33.098Z" fill="#0057AA"/><path d="M70.133 37.248v-21.38h15.872v4.138H75.514v3.901h9.8v4.14h-9.8v5.032h11.393v4.17H70.133Zm24.92-12.983c-2.254 0-3.246 1.935-3.246 4.973 0 2.62.601 4.973 3.247 4.973 2.435 0 3.306-2.263 3.306-5.3-.03-2.83-.871-4.646-3.306-4.646Zm8.027 12.983h-4.54V35.7h-.06c-1.052 1.31-2.645 2.025-4.328 1.995-3.878 0-6.974-2.501-7.065-8.279-.09-6.372 3.608-8.516 6.854-8.516a5.981 5.981 0 0 1 4.45 1.667v-6.67h4.719v21.351h-.03Zm12.596-9.916a3.013 3.013 0 0 0-2.976-3.067h-.241c-1.713.03-3.126 1.37-3.216 3.067h6.433Zm-6.343 2.889c0 3.067 1.984 4.02 3.517 4.02 1.774 0 2.585-.894 3.938-2.83l3.547 1.817c-1.623 3.008-4.208 4.407-7.816 4.407-4.99 0-7.936-3.424-7.936-7.92 0-5.629 3.006-8.875 7.936-8.875 5.892 0 7.906 4.437 7.937 9.38h-11.123Zm12.776-14.354h4.75v21.381h-4.72v-21.38h-.03Zm7.395 5.42h4.72v1.4c1.232-1.4 3.216-1.817 4.659-1.817a4.978 4.978 0 0 1 4.269 2.144 7.092 7.092 0 0 1 5.2-2.144c1.564 0 4.961.536 4.961 4.199v12.18h-4.72v-9.351c0-2.263-.601-3.276-2.435-3.276-1.563 0-2.405 1.162-2.405 2.8v9.826h-4.72V27.243c0-1.549-.481-2.62-2.314-2.62-1.834 0-2.525 1.22-2.525 2.68v9.945h-4.72V21.287h.03Zm35.563 8.19-3.187.892c-1.172.328-2.285.775-2.285 2.085s1.053 1.816 2.225 1.816c1.834 0 3.247-1.22 3.247-3.662v-1.132Zm4.539 4.436a9.601 9.601 0 0 0 .421 3.335h-4.359a6.25 6.25 0 0 1-.301-1.637h-.06c-.782 1.25-3.156 2.084-4.84 2.084-3.096 0-5.411-1.668-5.411-4.735 0-3.841 3.127-5.181 8.267-5.926l1.744-.238v-1.31c0-1.221-.962-1.727-2.255-1.727-1.503 0-2.225.536-2.495 2.144h-4.539c.15-4.586 4.449-5.003 6.643-5.003 4.389 0 7.155 1.012 7.185 4.616v8.397Zm2.765-12.626h4.69v1.4c1.233-1.4 3.217-1.817 4.66-1.817 3.817 0 4.87 2.204 4.87 4.586v11.792h-4.72V27.243c0-1.549-.481-2.62-2.315-2.62s-2.525 1.22-2.525 2.68v9.945h-4.72V21.287" fill="#017FC9"/></svg>