<svg height="384" viewBox="0 0 416 384" width="416" xmlns="http://www.w3.org/2000/svg"><path d="m198.9 306.173c-7.322-17.575-21.855-31.39-32.043-47.557s-15.734-37.26-4.462-55.285c10.573-16.892 33.418-27.015 42.081-44.581 9.152-18.55-.77-38.676 5.913-57.788 7.867-22.51 34.996-35.81 55.534-51.93 29.555-23.163 47.553-55.178 64.65-86.101 4.048-7.325 7.99-16.472 2.777-22.137-5.722-6.206-17.654-3.282-26.963.065l-222.629 80.128c-33.392 12.019-69.826 26.316-88.043 54.24-21.233 32.548-9.397 70.17 3.025 102.553 16.197 42.212 32.393 84.426 48.588 126.64 8.921 23.252 18.003 46.788 33.602 66.544 17.168 21.74 56.233 54.288 88.165 28.409 29.161-23.602 42.055-63.812 29.804-93.218" fill="#f6f5f5" transform="matrix(.90682344 .42151068 -.42151068 .90682344 100.310776 -69.784322)"/><path d="m246.772 218.505a30.885 30.885 0 0 0 -9.634-27.387c-9.059-8.156-22.092-10.16-32.294-16.83-13.205-8.65-20.215-24.003-30.71-35.824-12.505-14.083-29.751-22.883-46.573-31.355-11.167-5.63-23.068-11.413-35.532-10.34-17.006 1.431-31.485 17.433-31.215 34.504.453 28.96 35.595 47.1 39.333 75.819 1.917 14.882-5.03 30.856 1.05 44.572 7.206 16.256 28.132 20.196 45.89 21.138 13.503.718 27.018.965 40.533 1.212 10.949.201 22.437.287 32.151-4.814 11.97-6.318 10.334-14.509 13.383-25.158 2.698-9.385 11.907-14.87 13.641-25.508" fill="#abded9" transform="matrix(.98522912 .17124132 -.17124132 .98522912 33.820047 -24.081424)"/><g fill="#1c6e85"><path d="m196.55 302.876a6.774 6.774 0 1 0 -13.55-.003 6.774 6.774 0 0 0 13.55.003"/><path d="m210.1 302.876a6.775 6.775 0 1 0 -13.55-.003 6.775 6.775 0 0 0 13.55.003"/><path d="m223.65 302.876a6.775 6.775 0 1 0 -13.55-.003 6.775 6.775 0 0 0 13.55.003"/><path d="m196.55 289.326a6.774 6.774 0 1 0 -13.55-.003 6.774 6.774 0 0 0 13.55.003"/><path d="m210.1 289.326a6.775 6.775 0 1 0 -13.55-.003 6.775 6.775 0 0 0 13.55.003"/><path d="m223.65 289.326a6.775 6.775 0 1 0 -13.55-.003 6.775 6.775 0 0 0 13.55.003z"/></g></svg>