<svg xmlns="http://www.w3.org/2000/svg" viewBox="0 0 123 95"><path fill="#b5dcd9" d="M122.93 47.5c0 26.233-21.267 47.5-47.5 47.5s-47.5-21.267-47.5-47.5S49.197 0 75.43 0s47.5 21.267 47.5 47.5z" opacity=".3"/><path fill="#356d82" d="M75.55 45.627a1.222 1.222 0 01-.124 1.577L38.863 83.766a1.22 1.22 0 01-1.724 0L.576 47.203a1.22 1.22 0 01-.13-1.57L12.635 28.57a1.22 1.22 0 01.992-.51h48.598a1.216 1.216 0 01.987.504zm-47.713-15.13l-6.27 14.625h32.867l-6.269-14.624zM3.807 45.123h15.108l6.27-14.625H14.253zM33.553 76.73L18.967 47.56H4.38zM54.31 47.56H21.69L38 80.178zm17.31 0H57.036L42.449 76.73zm.557-2.438L61.6 30.498H50.818l6.269 14.625zM62.379 23.183h3.656v3.656a1.218 1.218 0 102.438 0v-3.656h3.656a1.218 1.218 0 100-2.438h-3.657v-3.656a1.219 1.219 0 10-2.437 0v3.656h-3.656a1.219 1.219 0 100 2.437zM14.687 65.844H12.4v-2.285a1.219 1.219 0 00-2.437 0v2.285H7.679a1.219 1.219 0 100 2.437h2.285v2.438a1.219 1.219 0 102.437 0V68.28h2.286a1.219 1.219 0 000-2.437z"/></svg>