<svg xmlns="http://www.w3.org/2000/svg" viewBox="0 0 63 53"><path fill="#356d82" d="M59.434.09a3.559 3.559 0 013.555 3.555v45.703a3.559 3.559 0 01-3.555 3.554H3.574A3.559 3.559 0 01.02 49.348V3.645A3.559 3.559 0 013.575.09zm1.524 8.125H2.05v41.133a1.525 1.525 0 001.524 1.523h55.86a1.524 1.524 0 001.522-1.523zm0-4.57a1.524 1.524 0 00-1.524-1.524H3.574a1.525 1.525 0 00-1.523 1.524v2.539h58.907z"/><path fill="#356d82" d="M4.076 5.171H5.09a1.016 1.016 0 100-2.031H4.076a1.016 1.016 0 000 2.031zM8.146 5.171H9.16a1.016 1.016 0 100-2.031H8.146a1.016 1.016 0 000 2.031zM12.206 5.171h1.015a1.016 1.016 0 100-2.031h-1.015a1.016 1.016 0 000 2.031zM36.45 24.471a1.015 1.015 0 011.003 1.183l-1.016 6.094a1.016 1.016 0 01-1.002.848h-7.998a1.016 1.016 0 01-1.016-1.015v-7.11h-1.015a1.016 1.016 0 010-2.031h2.03a1.016 1.016 0 011.017 1.016v1.015zm-1.198 2.032h-6.8v4.062h6.123zM34.546 35.641a1.016 1.016 0 100-2.031 1.016 1.016 0 000 2.031zM28.583 33.61c-.561 0-1.143.455-1.143 1.016a1.016 1.016 0 102.031 0c0-.561-.328-1.016-.888-1.016z"/><path fill="#356d82" d="M58.558 27.755a1.015 1.015 0 010 1.562l-6.094 5.078a1.016 1.016 0 01-1.665-.78v-2.032h-8.125v7.11a1.016 1.016 0 01-1.016 1.015H21.346a1.016 1.016 0 01-1.016-1.016v-7.109H5.096a1.016 1.016 0 01-1.016-1.016v-4.062a1.016 1.016 0 011.016-1.016H20.33v-6.093a1.016 1.016 0 011.016-1.016h20.312a1.016 1.016 0 011.016 1.016v6.093h8.125v-2.03a1.015 1.015 0 011.665-.782zm-38.228-.234H6.111v2.03H20.33zm20.313-7.11H22.36v17.266h18.281zm15.678 8.125l-3.491-2.91v.879a1.016 1.016 0 01-1.016 1.016h-9.14v2.03h9.14a1.016 1.016 0 011.016 1.017v.878z"/></svg>