<svg viewBox="0 0 322 322" xmlns="http://www.w3.org/2000/svg"><path d="m8.51 0h-8.51v195.73h8.51zm17.02 0h-8.51v195.73h8.51zm17.02 0h-8.51v195.73h8.51zm17.02 0h-8.51v195.73h8.51zm17.02 0h-8.51v195.73h8.51zm17.02 0h-8.51v195.73h8.51zm17.02 0h-8.51v195.73h8.51zm17.02 0h-8.51v195.73h8.51zm17.02 0h-8.51v195.73h8.51zm17.02 0h-8.51v195.73h8.51zm17.02 0h-8.51v195.73h8.51zm17.02 0h-8.51v195.73h8.51z" fill="#aadcd8"/><path d="m111 216.508a105.5 105.5 0 1 1 211-.016 105.5 105.5 0 0 1 -211 .016" fill="#003350"/></svg>