<svg xmlns="http://www.w3.org/2000/svg" viewBox="0 0 424 404"><path fill="#356d82" d="M168.52.469a52.848 52.848 0 00-25.21 6.704c-7.738 4.314-14.32 10.506-19.163 18.031-11.487 18.242-11.292 41.709-19.903 61.533-11.17 25.715-35.604 42.359-52.988 64.167-20.71 25.984-31.017 58.791-40.878 90.76-6.555 21.222-13.172 43.78-7.845 65.37 7.206 29.466 38.75 50.339 68.01 44.996 49.641-9.057 71-75.966 119.309-90.722 25.04-7.614 54.429.035 76.302-14.558 25.922-17.294 26.85-55.18 23.51-86.645-2.537-23.927-5.886-47.74-9.236-71.552-2.712-19.29-5.772-39.498-17.25-55.108-14.2-19.227-27.819-14.017-46.97-16.336C199.324 15.046 187.327.433 168.562.42"/><path fill="#aadcd8" d="M324.092 217.455c-15.25-8.031-32.44-12.14-46.81-21.724-19.37-12.936-31.44-34.26-45.91-52.725-14.47-18.464-34.66-35.63-57.76-34.169-30.79 1.962-49.59 34.435-62.88 62.882l-42.36 90.716c-7.5 16.042-15.19 33.719-11.24 50.998 5 22.01 26.7 35.16 46.87 44.428 80.09 36.785 297.75 106.38 274.5-62.146-4.54-32.912-25.51-63.025-54.41-78.26"/><path fill="#1c6e83" d="M334.219 265.174a5.28 5.28 0 00-.854-2.884 5.105 5.105 0 00-2.28-1.914 4.979 4.979 0 00-2.934-.297c-.986.2-1.891.694-2.602 1.42a5.226 5.226 0 00-1.391 2.657 5.296 5.296 0 00.288 3 5.168 5.168 0 001.871 2.33c.835.57 1.818.874 2.822.874a5.025 5.025 0 003.59-1.518 5.248 5.248 0 001.49-3.668M364.169 265.174a5.28 5.28 0 00-.854-2.884 5.105 5.105 0 00-2.279-1.914 4.979 4.979 0 00-2.935-.297c-.986.2-1.891.694-2.602 1.42a5.226 5.226 0 00-1.391 2.657 5.296 5.296 0 00.288 3 5.168 5.168 0 001.871 2.33c.836.57 1.818.874 2.823.874a5.025 5.025 0 003.59-1.518 5.248 5.248 0 001.489-3.668M394.109 265.174c0-1.027-.297-2.03-.855-2.885a5.105 5.105 0 00-2.279-1.913 4.979 4.979 0 00-2.936-.296c-.985.2-1.89.694-2.601 1.42a5.226 5.226 0 00-1.39 2.659 5.296 5.296 0 00.29 3 5.167 5.167 0 001.872 2.328 5 5 0 002.823.873 5.021 5.021 0 003.59-1.519 5.244 5.244 0 001.486-3.667M424.059 265.174a5.28 5.28 0 00-.854-2.884 5.105 5.105 0 00-2.28-1.914 4.979 4.979 0 00-2.934-.297c-.986.2-1.891.694-2.602 1.42a5.226 5.226 0 00-1.391 2.657 5.296 5.296 0 00.288 3 5.168 5.168 0 001.871 2.33c.835.57 1.818.874 2.822.874a5.025 5.025 0 003.59-1.518 5.248 5.248 0 001.49-3.668zM334.219 295.76a5.27 5.27 0 00-.856-2.883 5.105 5.105 0 00-2.28-1.912 4.98 4.98 0 00-2.935-.295 5.04 5.04 0 00-2.6 1.42 5.226 5.226 0 00-1.39 2.658 5.295 5.295 0 00.289 2.998 5.168 5.168 0 001.87 2.33 5.002 5.002 0 004.767.48 5.07 5.07 0 001.648-1.125 5.195 5.195 0 001.101-1.684c.255-.63.386-1.305.386-1.987M364.169 295.76a5.27 5.27 0 00-.856-2.883 5.105 5.105 0 00-2.28-1.912 4.979 4.979 0 00-2.934-.295c-.986.2-1.89.694-2.601 1.42a5.226 5.226 0 00-1.39 2.658 5.295 5.295 0 00.289 2.998 5.168 5.168 0 001.87 2.33 5.002 5.002 0 004.767.48 5.07 5.07 0 001.648-1.125 5.195 5.195 0 001.101-1.684c.255-.63.387-1.305.386-1.987M394.109 295.76a5.27 5.27 0 00-.856-2.884 5.105 5.105 0 00-2.28-1.911 4.979 4.979 0 00-2.936-.295c-.985.2-1.89.695-2.6 1.422a5.226 5.226 0 00-1.39 2.658 5.296 5.296 0 00.29 3 5.167 5.167 0 001.873 2.328 5.003 5.003 0 004.767.477 5.07 5.07 0 001.647-1.125 5.195 5.195 0 001.1-1.684 5.29 5.29 0 00.385-1.986zM424.059 295.76a5.27 5.27 0 00-.856-2.883 5.105 5.105 0 00-2.28-1.912 4.98 4.98 0 00-2.935-.295 5.04 5.04 0 00-2.6 1.42 5.226 5.226 0 00-1.39 2.658 5.295 5.295 0 00.289 2.998 5.168 5.168 0 001.87 2.33 5.002 5.002 0 004.767.48 5.07 5.07 0 001.648-1.125 5.195 5.195 0 001.101-1.684c.255-.63.386-1.305.386-1.987M334.219 326.37a5.27 5.27 0 00-.856-2.883 5.105 5.105 0 00-2.28-1.912 4.98 4.98 0 00-2.935-.295 5.04 5.04 0 00-2.6 1.42 5.226 5.226 0 00-1.39 2.658 5.295 5.295 0 00.289 2.998 5.167 5.167 0 001.87 2.33c.836.57 1.818.874 2.822.874a5.02 5.02 0 003.592-1.52 5.248 5.248 0 001.488-3.67zM364.169 326.37a5.27 5.27 0 00-.856-2.883 5.105 5.105 0 00-2.28-1.912 4.979 4.979 0 00-2.934-.295c-.986.2-1.89.694-2.601 1.42a5.226 5.226 0 00-1.39 2.658 5.295 5.295 0 00.289 2.998 5.168 5.168 0 001.87 2.33c.836.57 1.818.874 2.822.874a5.02 5.02 0 003.592-1.52 5.248 5.248 0 001.488-3.67zM394.109 326.37c0-1.026-.298-2.03-.856-2.884a5.105 5.105 0 00-2.28-1.911 4.979 4.979 0 00-2.936-.295c-.985.2-1.89.695-2.6 1.422a5.226 5.226 0 00-1.39 2.658 5.295 5.295 0 00.29 3 5.167 5.167 0 001.873 2.328 5.003 5.003 0 004.767.477 5.07 5.07 0 001.647-1.125 5.195 5.195 0 001.1-1.684 5.29 5.29 0 00.385-1.986zM424.059 326.37a5.27 5.27 0 00-.856-2.883 5.105 5.105 0 00-2.28-1.912 4.98 4.98 0 00-2.935-.295 5.04 5.04 0 00-2.6 1.42 5.226 5.226 0 00-1.39 2.658 5.295 5.295 0 00.289 2.998 5.167 5.167 0 001.87 2.33c.836.57 1.818.874 2.822.874a5.02 5.02 0 003.592-1.52 5.248 5.248 0 001.488-3.67zM334.219 356.974a5.28 5.28 0 00-.854-2.884 5.105 5.105 0 00-2.28-1.914 4.979 4.979 0 00-2.934-.297c-.986.2-1.891.694-2.602 1.42a5.226 5.226 0 00-1.391 2.657 5.296 5.296 0 00.288 3 5.168 5.168 0 001.871 2.33c.835.57 1.818.874 2.822.874a5.025 5.025 0 003.59-1.518 5.248 5.248 0 001.49-3.668M364.169 356.974a5.28 5.28 0 00-.854-2.884 5.105 5.105 0 00-2.279-1.914 4.979 4.979 0 00-2.935-.297c-.986.2-1.891.694-2.602 1.42a5.226 5.226 0 00-1.391 2.657 5.296 5.296 0 00.288 3 5.168 5.168 0 001.871 2.33c.836.57 1.818.874 2.823.874a5.025 5.025 0 003.59-1.518 5.248 5.248 0 001.489-3.668zM394.109 356.974c0-1.027-.297-2.03-.855-2.885a5.105 5.105 0 00-2.279-1.913 4.979 4.979 0 00-2.936-.296c-.985.2-1.89.694-2.601 1.42a5.226 5.226 0 00-1.39 2.659 5.296 5.296 0 00.29 3 5.167 5.167 0 001.872 2.328 5 5 0 002.823.873 5.021 5.021 0 003.59-1.519 5.244 5.244 0 001.486-3.667zM424.059 356.974a5.28 5.28 0 00-.854-2.884 5.105 5.105 0 00-2.28-1.914 4.979 4.979 0 00-2.934-.297c-.986.2-1.891.694-2.602 1.42a5.226 5.226 0 00-1.391 2.657 5.296 5.296 0 00.288 3 5.168 5.168 0 001.871 2.33c.835.57 1.818.874 2.822.874a5.025 5.025 0 003.59-1.518 5.248 5.248 0 001.49-3.668"/></svg>