<svg xmlns="http://www.w3.org/2000/svg" viewBox="0 0 57 57"><path fill="#356d82" d="M21.563 39.646a.89.89 0 111.78 0v7.708a2.717 2.717 0 01-.86 1.985c-.49.463-1.15.75-1.873.75H2.744a2.716 2.716 0 01-1.931-.804 2.718 2.718 0 01-.803-1.93v-13.61c0-.754.306-1.438.803-1.932a2.72 2.72 0 011.93-.803h10.781a.891.891 0 010 1.78H2.744a.951.951 0 00-.954.954v13.61c0 .261.11.5.28.674a.95.95 0 00.674.28H20.61a.958.958 0 00.64-.248.955.955 0 00.313-.706zM13.997 21.747a.89.89 0 110 1.78 3.2 3.2 0 01-2.267-.94 3.198 3.198 0 01-.94-2.266V3.206c0-.882.36-1.684.94-2.266A3.2 3.2 0 0113.997 0H43.03c.882 0 1.684.36 2.267.941.58.582.94 1.383.94 2.266v17.114c0 .883-.36 1.686-.94 2.266a3.202 3.202 0 01-2.267.94.89.89 0 110-1.78c.391 0 .747-.16 1.007-.42.26-.257.42-.615.42-1.006V3.207c0-.39-.16-.747-.42-1.006a1.42 1.42 0 00-1.007-.42H13.997c-.391 0-.747.16-1.007.42a1.42 1.42 0 00-.42 1.006v17.114c0 .39.161.749.42 1.006.26.26.616.42 1.007.42z"/><path fill="#356d82" d="M18.49 3.58a3.52 3.52 0 012.496 1.034.702.702 0 01.051.057c.61.634.984 1.494.984 2.44 0 .974-.395 1.856-1.035 2.495a3.523 3.523 0 01-4.99-.002l-.003.002a3.518 3.518 0 01-1.033-2.495 3.52 3.52 0 011.035-2.496l-.002-.001A3.526 3.526 0 0118.49 3.58zm1.238 2.293a1.75 1.75 0 00-2.474 0l-.002-.002-.002.002a1.754 1.754 0 00.004 2.474h-.002l.002.002a1.754 1.754 0 002.474-.001c.315-.317.51-.756.51-1.237a1.742 1.742 0 00-.51-1.238zM31.531 19.454a9.509 9.509 0 013.293 1.905l2.454-.893a.885.885 0 011.07.39l.003-.002.848 1.472.027.05.823 1.424a.891.891 0 01-.199 1.122v.002L37.854 26.6a9.9 9.9 0 01.191 1.902c0 .406-.027.821-.083 1.244a9.13 9.13 0 01-.108.659l1.996 1.677a.89.89 0 01.183 1.155L39.2 34.68l-.847 1.47a.89.89 0 01-1.1.381l-2.427-.883a9.566 9.566 0 01-3.293 1.905l-.453 2.567a.889.889 0 01-.875.737h-3.399a.892.892 0 01-.883-.772l-.444-2.532a9.535 9.535 0 01-3.293-1.905l-2.455.894a.891.891 0 01-1.072-.392l-.848-1.47-.85-1.471a.886.886 0 01.2-1.127h-.003l1.999-1.677a9.369 9.369 0 01-.109-.66 9.513 9.513 0 01-.084-1.243c0-.403.029-.82.084-1.241a9.48 9.48 0 01.109-.66l-1.999-1.676a.892.892 0 01-.18-1.155l.833-1.443.848-1.472a.89.89 0 011.097-.38l2.43.883a9.648 9.648 0 011.554-1.12 9.434 9.434 0 011.739-.784l.45-2.567a.893.893 0 01.878-.737h3.398c.452 0 .824.336.881.772zm.851 2.323a7.706 7.706 0 00-1.828-.762.89.89 0 01-.679-.715l-.418-2.369h-1.905l-.417 2.37a.89.89 0 01-.647.706 7.767 7.767 0 00-3.453 1.986.888.888 0 01-.944.223l-2.267-.826-.477.828-.476.823 1.845 1.549a.887.887 0 01.288.907c-.086.328-.154.66-.197.995a7.768 7.768 0 00-.062 1.01 7.687 7.687 0 00.249 1.97.888.888 0 01-.278.944l-1.845 1.549.476.824.477.827 2.267-.826a.884.884 0 01.928.206c.478.475 1.02.892 1.608 1.233a7.8 7.8 0 001.828.762c.34.077.615.35.679.715l.417 2.37h1.905l.416-2.37h.002A.89.89 0 0130.52 36a7.764 7.764 0 003.453-1.988.892.892 0 01.945-.22l2.266.825.478-.827.475-.824-1.845-1.549a.887.887 0 01-.288-.908 7.74 7.74 0 00.198-.992c.041-.318.062-.655.062-1.014a7.86 7.86 0 00-.062-1.011 7.746 7.746 0 00-.19-.96.891.891 0 01.28-.942l1.846-1.55-.449-.777c-.01-.014-.018-.03-.028-.045l-.477-.827-2.267.825a.885.885 0 01-.928-.206 7.856 7.856 0 00-1.607-1.233zm-3.878 1.271c1.506 0 2.869.612 3.857 1.598a5.438 5.438 0 011.598 3.856 5.439 5.439 0 01-1.598 3.857 5.445 5.445 0 01-3.858 1.598 5.44 5.44 0 01-3.855-1.598 5.444 5.444 0 01-1.598-3.857 5.44 5.44 0 011.598-3.856 5.437 5.437 0 013.855-1.598zm2.598 2.857a3.666 3.666 0 00-2.598-1.076c-1.013 0-1.93.412-2.596 1.076a3.66 3.66 0 00-1.077 2.597c0 1.015.412 1.932 1.077 2.598a3.659 3.659 0 002.596 1.076 3.664 3.664 0 002.598-1.076 3.666 3.666 0 000-5.194zM45.327 48.546a.888.888 0 011.218 1.295 26.33 26.33 0 01-8.337 5.31 26.269 26.269 0 01-9.696 1.847c-3.415 0-6.688-.657-9.694-1.848a26.338 26.338 0 01-8.338-5.31.888.888 0 01-.036-1.255.887.887 0 011.255-.039 24.55 24.55 0 007.774 4.955 24.462 24.462 0 009.039 1.715c3.2 0 6.25-.607 9.041-1.715a24.513 24.513 0 007.774-4.955zM4.017 31.86a.888.888 0 01-1.775.076 37.026 37.026 0 01-.033-1.24 26.209 26.209 0 012.313-10.794 26.352 26.352 0 016.57-8.908.887.887 0 011.177 1.328 24.614 24.614 0 00-6.125 8.31 24.422 24.422 0 00-2.153 10.064 20.473 20.473 0 00.027 1.164zM44.76 12.321a.888.888 0 011.176-1.328 26.366 26.366 0 016.57 8.908 26.21 26.21 0 012.313 10.793c0 .117-.005.33-.01.623-.007.227-.015.43-.023.618a.889.889 0 11-1.775-.076c.01-.213.02-.408.024-.584.002-.106.004-.296.004-.583 0-3.588-.77-6.994-2.154-10.062a24.637 24.637 0 00-6.125-8.31zM44.862 37.63a.89.89 0 110-1.78h6.599a.89.89 0 110 1.78zM39.97 41.47a.89.89 0 010-1.78h11.494a.89.89 0 110 1.78zM39.97 45.313a.89.89 0 110-1.783h11.494a.892.892 0 010 1.783zM8.852 34.885l8.086 4.902a.888.888 0 01-.014 1.525l-8.146 4.936a.886.886 0 01-1.344-.757H7.43v-9.892a.888.888 0 011.422-.714zm5.916 5.66L9.21 37.176v6.737z"/><path fill="#356d82" d="M45.844 15.214c.407.276.51.83.233 1.235a.888.888 0 01-1.235.233L31.937 7.83 12.35 20.878a.889.889 0 11-.982-1.483L31.435 6.029a.895.895 0 011.011-.004zM33.68 39.646a.89.89 0 111.78 0v7.708a.96.96 0 00.313.707.954.954 0 00.64.247H54.28a.945.945 0 00.67-.28.953.953 0 00.284-.674v-13.61c0-.26-.11-.5-.283-.673a.946.946 0 00-.671-.28H43.5a.892.892 0 010-1.781h10.78c.753 0 1.438.306 1.931.803a2.72 2.72 0 01.803 1.931v13.61c0 .753-.306 1.437-.803 1.931a2.717 2.717 0 01-1.93.803H36.413a2.724 2.724 0 01-1.873-.75 2.718 2.718 0 01-.86-1.984z"/></svg>