<svg viewBox="0 0 537 511" xmlns="http://www.w3.org/2000/svg"><path d="m256.02 110.994c28.636 0 56.63 8.475 80.44 24.353a144.57 144.57 0 0 1 53.327 64.853 144.248 144.248 0 0 1 8.239 83.492 144.412 144.412 0 0 1 -39.625 73.989 144.87 144.87 0 0 1 -74.135 39.548 145.044 145.044 0 0 1 -83.655-8.223 144.723 144.723 0 0 1 -64.978-53.223 144.301 144.301 0 0 1 -24.402-80.283c.041-38.313 15.309-75.045 42.453-102.136s63.948-42.329 102.336-42.37zm-142.231-67.944a255.608 255.608 0 0 0 -94.297 114.661 255.037 255.037 0 0 0 -14.575 147.623 255.347 255.347 0 0 0 70.057 130.825 256.156 256.156 0 0 0 131.076 69.93 256.464 256.464 0 0 0 147.913-14.536 255.898 255.898 0 0 0 114.892-94.103 255.148 255.148 0 0 0 43.145-141.95 255.037 255.037 0 0 0 -19.48-97.774 255.445 255.445 0 0 0 -55.488-82.89 256.023 256.023 0 0 0 -83.048-55.387 256.42 256.42 0 0 0 -97.964-19.449 256.354 256.354 0 0 0 -142.231 43.05z" fill="#b5dcd9" opacity=".3"/><g fill="#1c6e85"><path d="m438.144 122.858a24.572 24.572 0 1 0 -24.567 24.566 24.567 24.567 0 0 0 24.567-24.567"/><path d="m487.284 122.858a24.572 24.572 0 1 0 -49.144-.012 24.572 24.572 0 0 0 49.144.012"/><path d="m536.424 122.858a24.572 24.572 0 1 0 -49.144-.012 24.572 24.572 0 0 0 49.144.012m-98.28-49.14a24.571 24.571 0 1 0 -24.567 24.566 24.566 24.566 0 0 0 24.567-24.567"/><path d="m487.284 73.718a24.572 24.572 0 1 0 -49.144-.012 24.572 24.572 0 0 0 49.144.011"/><path d="m536.424 73.718a24.572 24.572 0 1 0 -49.144-.012 24.572 24.572 0 0 0 49.144.011zm-98.28-49.146a24.572 24.572 0 1 0 -49.145 0 24.572 24.572 0 0 0 49.145 0"/><path d="m487.284 24.572a24.572 24.572 0 1 0 -49.144 0 24.572 24.572 0 0 0 49.144 0z"/><path d="m536.424 24.572a24.572 24.572 0 1 0 -49.144 0 24.572 24.572 0 0 0 49.144 0"/></g></svg>