<svg fill="none" xmlns="http://www.w3.org/2000/svg" viewBox="0 0 73 190"><path d="M-30.748 6.544c-3.503.035-6.943.95-10.017 2.664a21.535 21.535 0 00-7.615 7.164c-4.564 7.249-4.486 16.573-7.908 24.45-4.438 10.218-14.147 16.831-21.054 25.496-8.23 10.325-12.325 23.361-16.243 36.063-2.605 8.433-5.234 17.396-3.118 25.975 2.864 11.708 15.398 20.002 27.024 17.879 19.725-3.599 28.211-30.185 47.407-36.048 9.949-3.025 21.627.014 30.318-5.785 10.3-6.871 10.669-21.925 9.342-34.427-1.008-9.508-2.34-18.97-3.67-28.431-1.078-7.666-2.293-15.695-6.854-21.897-5.643-7.64-11.054-5.57-18.664-6.491-6.708-.82-11.475-6.627-18.931-6.631" fill="#356D82"/><path d="M33.392 116.106c-6.07-3.185-12.91-4.814-18.628-8.614-7.708-5.13-12.511-13.586-18.27-20.908-5.758-7.322-13.792-14.129-22.984-13.55-12.253.779-19.734 13.655-25.023 24.936l-16.857 35.972c-2.984 6.361-6.044 13.371-4.472 20.223 1.99 8.727 10.625 13.942 18.651 17.617 31.871 14.586 118.486 42.183 109.234-24.643-1.806-13.051-10.151-24.992-21.651-31.033z" fill="#AADCD8"/><path d="M37.09 93.724c0-.408-.117-.807-.339-1.146a2.027 2.027 0 00-.905-.76 1.978 1.978 0 00-1.167-.118c-.391.08-.751.275-1.033.564a2.076 2.076 0 00-.553 1.056c-.078.4-.038.815.114 1.192.153.376.412.699.744.925a1.988 1.988 0 002.548-.255c.378-.387.591-.911.591-1.458zM48.991 93.724c0-.408-.117-.807-.34-1.146a2.028 2.028 0 00-.905-.76 1.978 1.978 0 00-1.166-.118c-.391.08-.751.275-1.034.564a2.076 2.076 0 00-.552 1.056c-.078.4-.038.815.114 1.192.153.376.412.699.744.925a1.987 1.987 0 002.548-.255c.378-.387.59-.911.591-1.458zM61.037 94.064c0-.408-.118-.807-.34-1.146a2.029 2.029 0 00-.906-.76 1.979 1.979 0 00-1.166-.118c-.392.08-.752.276-1.034.564a2.077 2.077 0 00-.552 1.057c-.078.4-.038.815.115 1.192.153.376.412.698.744.925a1.987 1.987 0 002.548-.257c.378-.386.59-.91.59-1.457zM72.936 94.064c0-.408-.118-.807-.34-1.146a2.028 2.028 0 00-.905-.76 1.978 1.978 0 00-1.166-.118c-.392.08-.752.275-1.034.564a2.076 2.076 0 00-.553 1.056c-.078.4-.038.815.115 1.191.153.377.411.7.743.926a1.988 1.988 0 002.548-.256c.379-.386.592-.91.592-1.457zM37.09 105.877c0-.408-.118-.807-.34-1.146a2.036 2.036 0 00-.906-.76 1.983 1.983 0 00-2.199.447 2.08 2.08 0 00-.552 1.056c-.078.4-.038.815.114 1.192.153.377.412.699.744.926a1.992 1.992 0 002.549-.256 2.095 2.095 0 00.59-1.459zM48.991 105.877c0-.408-.118-.807-.34-1.146a2.036 2.036 0 00-.906-.76 1.983 1.983 0 00-2.2.447 2.08 2.08 0 00-.552 1.056c-.077.4-.038.815.115 1.192s.412.699.744.926a1.992 1.992 0 002.549-.256 2.095 2.095 0 00.59-1.459zM61.037 106.217c0-.408-.119-.807-.34-1.146a2.03 2.03 0 00-.907-.76 1.976 1.976 0 00-1.166-.117c-.392.08-.751.276-1.033.565a2.074 2.074 0 00-.552 1.056c-.078.4-.038.815.115 1.192s.412.699.744.925a1.986 1.986 0 002.548-.257 2.072 2.072 0 00.59-1.458zM72.936 106.217c0-.408-.119-.807-.34-1.146a2.03 2.03 0 00-.906-.76 1.975 1.975 0 00-1.166-.117 2.004 2.004 0 00-1.034.564 2.078 2.078 0 00-.552 1.056c-.078.4-.038.815.115 1.192s.411.699.743.925a1.986 1.986 0 002.55-.256 2.095 2.095 0 00.59-1.458zM37.09 118.04c0-.408-.118-.806-.34-1.145a2.023 2.023 0 00-.906-.76 1.975 1.975 0 00-1.166-.117 2.004 2.004 0 00-1.033.564 2.075 2.075 0 00-.552 1.056c-.078.4-.038.815.114 1.192.153.376.412.698.744.925a1.986 1.986 0 002.548-.256c.379-.387.591-.912.591-1.459zM48.991 118.04c0-.408-.118-.806-.34-1.145a2.023 2.023 0 00-.906-.76 1.975 1.975 0 00-1.166-.117 2.004 2.004 0 00-1.033.564 2.075 2.075 0 00-.553 1.056c-.077.4-.038.815.115 1.192.153.376.412.698.744.925a1.985 1.985 0 002.548-.256c.379-.387.591-.912.591-1.459zM61.037 118.38c0-.408-.119-.807-.34-1.146a2.028 2.028 0 00-.907-.759 1.976 1.976 0 00-1.166-.117 2.003 2.003 0 00-1.033.564 2.101 2.101 0 00-.437 2.248c.153.377.412.699.744.926a1.985 1.985 0 002.548-.258c.188-.191.336-.419.438-.669.1-.25.153-.518.153-.789zM72.936 118.38c0-.408-.119-.806-.34-1.146a2.028 2.028 0 00-.906-.759 1.984 1.984 0 00-2.2.447 2.102 2.102 0 00-.438 2.247c.154.377.412.699.744.926a1.985 1.985 0 002.549-.257c.378-.386.59-.911.59-1.458zM37.09 130.199c0-.408-.117-.807-.339-1.146a2.027 2.027 0 00-.905-.76 1.968 1.968 0 00-1.167-.118 1.998 1.998 0 00-1.033.564 2.1 2.1 0 00-.438 2.247c.152.377.41.7.743.926a1.986 1.986 0 002.548-.256c.378-.386.591-.91.591-1.457zM48.991 130.199c0-.408-.118-.807-.34-1.146a2.028 2.028 0 00-.905-.76 1.969 1.969 0 00-1.166-.118 1.998 1.998 0 00-1.034.564 2.102 2.102 0 00-.438 2.247c.153.377.412.7.743.926a1.986 1.986 0 002.549-.256c.378-.386.59-.91.591-1.457zM61.037 130.539c0-.408-.118-.807-.34-1.146a2.031 2.031 0 00-.906-.761 1.977 1.977 0 00-1.166-.117 2.005 2.005 0 00-1.034.564 2.078 2.078 0 00-.552 1.056c-.078.401-.038.815.115 1.192s.412.699.744.926c.332.226.722.347 1.122.347.535 0 1.048-.217 1.426-.604.378-.386.59-.911.59-1.457zM72.936 130.539c0-.408-.118-.807-.34-1.146a2.021 2.021 0 00-.905-.76 1.968 1.968 0 00-1.166-.118 1.997 1.997 0 00-1.034.564 2.072 2.072 0 00-.553 1.055c-.078.401-.038.815.115 1.192s.411.699.743.926a1.986 1.986 0 002.548-.256c.379-.386.592-.91.592-1.457z" fill="#1C6E83"/></svg>