<svg xmlns="http://www.w3.org/2000/svg" viewBox="0 0 183 186"><path fill="#ed634d" d="M59.413 55.908c0-.844-.245-1.67-.704-2.371a4.198 4.198 0 00-1.874-1.572 4.094 4.094 0 00-2.413-.243 4.15 4.15 0 00-2.139 1.168 4.297 4.297 0 00-1.143 2.185 4.354 4.354 0 00.238 2.466 4.25 4.25 0 001.538 1.915 4.114 4.114 0 005.275-.53 4.27 4.27 0 00.906-1.384c.21-.518.317-1.074.316-1.634M84.023 55.908c0-.844-.245-1.67-.704-2.371a4.198 4.198 0 00-1.874-1.572 4.094 4.094 0 00-2.413-.243 4.15 4.15 0 00-2.139 1.168 4.297 4.297 0 00-1.143 2.185 4.354 4.354 0 00.238 2.466 4.25 4.25 0 001.538 1.915 4.113 4.113 0 005.276-.53 4.27 4.27 0 00.905-1.384c.21-.518.317-1.074.316-1.634M108.643 55.908c0-.844-.245-1.67-.704-2.371a4.197 4.197 0 00-1.874-1.572 4.094 4.094 0 00-2.413-.243 4.15 4.15 0 00-2.139 1.168 4.297 4.297 0 00-1.143 2.185 4.354 4.354 0 00.238 2.466 4.25 4.25 0 001.538 1.915 4.114 4.114 0 005.275-.53 4.27 4.27 0 00.906-1.384c.21-.518.317-1.074.316-1.634M133.233 55.908c0-.844-.245-1.67-.704-2.371a4.198 4.198 0 00-1.874-1.572 4.094 4.094 0 00-2.413-.243 4.15 4.15 0 00-2.139 1.168 4.297 4.297 0 00-1.143 2.185 4.354 4.354 0 00.238 2.466 4.25 4.25 0 001.538 1.915 4.113 4.113 0 005.276-.53 4.27 4.27 0 00.905-1.384c.21-.518.317-1.074.316-1.634M157.863 55.908c0-.844-.245-1.67-.704-2.371a4.198 4.198 0 00-1.874-1.572 4.094 4.094 0 00-2.413-.243 4.15 4.15 0 00-2.139 1.168 4.297 4.297 0 00-1.143 2.185 4.354 4.354 0 00.238 2.466 4.25 4.25 0 001.538 1.915c.687.47 1.495.72 2.32.72 1.108 0 2.17-.45 2.954-1.25a4.315 4.315 0 001.223-3.018zM182.473 55.908c0-.845-.245-1.67-.704-2.372a4.198 4.198 0 00-1.875-1.572 4.094 4.094 0 00-2.414-.242 4.15 4.15 0 00-2.138 1.17 4.298 4.298 0 00-1.142 2.186 4.354 4.354 0 00.24 2.466 4.25 4.25 0 001.54 1.915 4.113 4.113 0 005.273-.534 4.27 4.27 0 00.904-1.384c.21-.518.317-1.073.316-1.633M59.413 81.058c0-.844-.245-1.67-.704-2.371a4.198 4.198 0 00-1.874-1.572 4.094 4.094 0 00-2.413-.243 4.15 4.15 0 00-2.139 1.168 4.297 4.297 0 00-1.143 2.185 4.354 4.354 0 00.238 2.466 4.25 4.25 0 001.538 1.915 4.114 4.114 0 005.275-.529 4.27 4.27 0 00.906-1.385c.21-.518.317-1.074.316-1.634M84.023 81.058c0-.844-.245-1.67-.704-2.371a4.198 4.198 0 00-1.874-1.572 4.094 4.094 0 00-2.413-.243 4.15 4.15 0 00-2.139 1.168 4.297 4.297 0 00-1.143 2.185 4.354 4.354 0 00.238 2.466 4.25 4.25 0 001.538 1.915 4.113 4.113 0 005.276-.529 4.27 4.27 0 00.905-1.385c.21-.518.317-1.074.316-1.634M108.643 81.058c0-.844-.245-1.67-.704-2.371a4.197 4.197 0 00-1.874-1.572 4.094 4.094 0 00-2.413-.243 4.15 4.15 0 00-2.139 1.168 4.297 4.297 0 00-1.143 2.185 4.354 4.354 0 00.238 2.466 4.25 4.25 0 001.538 1.915 4.114 4.114 0 005.275-.529 4.27 4.27 0 00.906-1.385c.21-.518.317-1.074.316-1.634M133.233 81.058c0-.844-.245-1.67-.704-2.371a4.198 4.198 0 00-1.874-1.572 4.094 4.094 0 00-2.413-.243 4.15 4.15 0 00-2.139 1.168 4.297 4.297 0 00-1.143 2.185 4.354 4.354 0 00.238 2.466 4.25 4.25 0 001.538 1.915 4.113 4.113 0 005.276-.529 4.27 4.27 0 00.905-1.385c.21-.518.317-1.074.316-1.634M157.863 81.058c0-.844-.245-1.67-.704-2.371a4.198 4.198 0 00-1.874-1.572 4.094 4.094 0 00-2.413-.243 4.15 4.15 0 00-2.139 1.168 4.297 4.297 0 00-1.143 2.185 4.354 4.354 0 00.238 2.466 4.25 4.25 0 001.538 1.915 4.099 4.099 0 003.919.394 4.172 4.172 0 001.355-.924c.388-.397.696-.867.905-1.385.21-.518.318-1.073.318-1.633zM182.473 81.058c0-.844-.245-1.67-.704-2.372a4.198 4.198 0 00-1.875-1.572 4.094 4.094 0 00-2.414-.242 4.15 4.15 0 00-2.138 1.17 4.297 4.297 0 00-1.142 2.186 4.354 4.354 0 00.24 2.467 4.24 4.24 0 001.54 1.914 4.113 4.113 0 005.273-.534 4.27 4.27 0 00.904-1.384c.21-.518.317-1.073.316-1.633M59.413 106.208c0-.844-.245-1.67-.704-2.371a4.197 4.197 0 00-1.874-1.572 4.094 4.094 0 00-2.413-.243 4.15 4.15 0 00-2.139 1.168 4.297 4.297 0 00-1.143 2.185 4.354 4.354 0 00.238 2.466 4.25 4.25 0 001.538 1.915 4.114 4.114 0 005.275-.53 4.27 4.27 0 00.906-1.384c.21-.518.317-1.074.316-1.634M84.023 106.208c0-.844-.245-1.67-.704-2.371a4.197 4.197 0 00-1.874-1.572 4.094 4.094 0 00-2.413-.243 4.15 4.15 0 00-2.139 1.168 4.297 4.297 0 00-1.143 2.185 4.354 4.354 0 00.238 2.466 4.25 4.25 0 001.538 1.915 4.113 4.113 0 005.276-.53 4.27 4.27 0 00.905-1.384c.21-.518.317-1.074.316-1.634M108.643 106.208c0-.844-.245-1.67-.704-2.371a4.197 4.197 0 00-1.874-1.572 4.094 4.094 0 00-2.413-.243 4.15 4.15 0 00-2.139 1.168 4.297 4.297 0 00-1.143 2.185 4.354 4.354 0 00.238 2.466 4.25 4.25 0 001.538 1.915 4.114 4.114 0 005.275-.53 4.27 4.27 0 00.906-1.384c.21-.518.317-1.074.316-1.634M133.233 106.208c0-.844-.245-1.67-.704-2.371a4.197 4.197 0 00-1.874-1.572 4.094 4.094 0 00-2.413-.243 4.15 4.15 0 00-2.139 1.168 4.297 4.297 0 00-1.143 2.185 4.354 4.354 0 00.238 2.466 4.25 4.25 0 001.538 1.915 4.113 4.113 0 005.276-.53 4.27 4.27 0 00.905-1.384c.21-.518.317-1.074.316-1.634M157.863 106.208c0-.844-.245-1.67-.704-2.371a4.197 4.197 0 00-1.874-1.572 4.094 4.094 0 00-2.413-.243 4.15 4.15 0 00-2.139 1.168 4.297 4.297 0 00-1.143 2.185 4.354 4.354 0 00.238 2.466 4.25 4.25 0 001.538 1.915c.687.47 1.495.72 2.32.72 1.108 0 2.17-.45 2.954-1.25a4.315 4.315 0 001.223-3.018zM182.473 106.208c0-.845-.245-1.67-.704-2.372a4.198 4.198 0 00-1.875-1.572 4.094 4.094 0 00-2.414-.242 4.15 4.15 0 00-2.138 1.17 4.298 4.298 0 00-1.142 2.186 4.354 4.354 0 00.24 2.466c.316.78.852 1.446 1.54 1.915a4.114 4.114 0 005.273-.534 4.27 4.27 0 00.904-1.384c.21-.518.317-1.073.316-1.633M59.413 131.358c0-.844-.245-1.67-.704-2.371a4.198 4.198 0 00-1.874-1.572 4.094 4.094 0 00-2.413-.243 4.15 4.15 0 00-2.139 1.168 4.297 4.297 0 00-1.143 2.185 4.354 4.354 0 00.238 2.466 4.25 4.25 0 001.538 1.915 4.114 4.114 0 005.275-.529 4.27 4.27 0 00.906-1.385c.21-.518.317-1.074.316-1.634M84.023 131.358c0-.844-.245-1.67-.704-2.371a4.198 4.198 0 00-1.874-1.572 4.094 4.094 0 00-2.413-.243 4.15 4.15 0 00-2.139 1.168 4.297 4.297 0 00-1.143 2.185 4.354 4.354 0 00.238 2.466 4.25 4.25 0 001.538 1.915 4.113 4.113 0 005.276-.529 4.27 4.27 0 00.905-1.385c.21-.518.317-1.074.316-1.634M108.643 131.358c0-.844-.245-1.67-.704-2.371a4.197 4.197 0 00-1.874-1.572 4.094 4.094 0 00-2.413-.243 4.15 4.15 0 00-2.139 1.168 4.297 4.297 0 00-1.143 2.185 4.354 4.354 0 00.238 2.466 4.25 4.25 0 001.538 1.915 4.114 4.114 0 005.275-.529 4.27 4.27 0 00.906-1.385c.21-.518.317-1.074.316-1.634M133.233 131.358c0-.844-.245-1.67-.704-2.371a4.198 4.198 0 00-1.874-1.572 4.094 4.094 0 00-2.413-.243 4.15 4.15 0 00-2.139 1.168 4.297 4.297 0 00-1.143 2.185 4.354 4.354 0 00.238 2.466 4.25 4.25 0 001.538 1.915 4.113 4.113 0 005.276-.529 4.27 4.27 0 00.905-1.385c.21-.518.317-1.074.316-1.634M157.863 131.358c0-.844-.245-1.67-.704-2.371a4.198 4.198 0 00-1.874-1.572 4.094 4.094 0 00-2.413-.243 4.15 4.15 0 00-2.139 1.168 4.297 4.297 0 00-1.143 2.185 4.354 4.354 0 00.238 2.466 4.25 4.25 0 001.538 1.915c.687.47 1.495.72 2.32.72 1.108 0 2.17-.45 2.954-1.25a4.316 4.316 0 001.223-3.018zM182.473 131.358c0-.845-.245-1.67-.704-2.372a4.198 4.198 0 00-1.875-1.572 4.094 4.094 0 00-2.414-.242 4.15 4.15 0 00-2.138 1.17 4.297 4.297 0 00-1.142 2.186 4.354 4.354 0 00.24 2.467 4.24 4.24 0 001.54 1.914 4.113 4.113 0 005.273-.534 4.27 4.27 0 00.904-1.384c.21-.518.317-1.073.316-1.633M59.413 156.503a4.335 4.335 0 00-.701-2.373 4.198 4.198 0 00-1.874-1.574 4.094 4.094 0 00-2.413-.245 4.15 4.15 0 00-2.14 1.167 4.297 4.297 0 00-1.144 2.185 4.354 4.354 0 00.236 2.467 4.25 4.25 0 001.539 1.916c.687.47 1.494.72 2.32.72a4.132 4.132 0 002.952-1.249 4.315 4.315 0 001.225-3.014M84.023 156.503a4.334 4.334 0 00-.701-2.373 4.198 4.198 0 00-1.873-1.574 4.094 4.094 0 00-2.414-.245 4.15 4.15 0 00-2.14 1.167 4.297 4.297 0 00-1.144 2.185 4.354 4.354 0 00.236 2.467 4.25 4.25 0 001.539 1.916c.687.47 1.494.72 2.32.72a4.132 4.132 0 002.952-1.249 4.315 4.315 0 001.225-3.014M108.643 156.503a4.334 4.334 0 00-.701-2.373 4.198 4.198 0 00-1.874-1.574 4.094 4.094 0 00-2.413-.245 4.15 4.15 0 00-2.14 1.167 4.297 4.297 0 00-1.144 2.185 4.354 4.354 0 00.236 2.467 4.25 4.25 0 001.539 1.916c.687.47 1.494.72 2.32.72a4.132 4.132 0 002.952-1.249 4.315 4.315 0 001.225-3.014M133.233 156.503a4.334 4.334 0 00-.701-2.373 4.198 4.198 0 00-1.874-1.574 4.094 4.094 0 00-2.413-.245 4.15 4.15 0 00-2.14 1.167 4.297 4.297 0 00-1.144 2.185 4.354 4.354 0 00.236 2.467 4.25 4.25 0 001.539 1.916c.687.47 1.494.72 2.32.72a4.132 4.132 0 002.952-1.249 4.315 4.315 0 001.225-3.014M157.863 156.503a4.334 4.334 0 00-.701-2.373 4.198 4.198 0 00-1.873-1.574 4.094 4.094 0 00-2.414-.245 4.15 4.15 0 00-2.14 1.167 4.297 4.297 0 00-1.144 2.185 4.354 4.354 0 00.236 2.467 4.25 4.25 0 001.539 1.916c.687.47 1.494.72 2.32.72a4.137 4.137 0 002.95-1.25 4.32 4.32 0 001.227-3.013M182.473 156.503a4.334 4.334 0 00-.701-2.373 4.198 4.198 0 00-1.875-1.574 4.094 4.094 0 00-2.414-.244 4.15 4.15 0 00-2.14 1.168 4.297 4.297 0 00-1.143 2.186 4.354 4.354 0 00.239 2.467 4.25 4.25 0 001.54 1.915 4.113 4.113 0 002.323.717 4.132 4.132 0 002.948-1.25 4.315 4.315 0 001.223-3.012M59.413 181.663a4.335 4.335 0 00-.701-2.373 4.198 4.198 0 00-1.874-1.574 4.094 4.094 0 00-2.413-.245 4.15 4.15 0 00-2.14 1.167 4.297 4.297 0 00-1.144 2.185 4.354 4.354 0 00.236 2.467 4.25 4.25 0 001.539 1.916 4.114 4.114 0 005.274-.527 4.27 4.27 0 00.905-1.384 4.34 4.34 0 00.318-1.632M84.023 181.663a4.334 4.334 0 00-.701-2.373 4.197 4.197 0 00-1.873-1.574 4.094 4.094 0 00-2.414-.245 4.15 4.15 0 00-2.14 1.167 4.297 4.297 0 00-1.144 2.185 4.354 4.354 0 00.236 2.467 4.25 4.25 0 001.539 1.916 4.113 4.113 0 005.274-.527 4.27 4.27 0 00.905-1.384 4.34 4.34 0 00.318-1.632M108.643 181.663a4.334 4.334 0 00-.701-2.373 4.198 4.198 0 00-1.874-1.574 4.094 4.094 0 00-2.413-.245 4.15 4.15 0 00-2.14 1.167 4.297 4.297 0 00-1.144 2.185 4.354 4.354 0 00.236 2.467 4.25 4.25 0 001.539 1.916 4.114 4.114 0 005.274-.527 4.27 4.27 0 00.905-1.384 4.34 4.34 0 00.318-1.632M133.233 181.663a4.334 4.334 0 00-.701-2.373 4.198 4.198 0 00-1.874-1.574 4.094 4.094 0 00-2.413-.245 4.15 4.15 0 00-2.14 1.167 4.297 4.297 0 00-1.144 2.185 4.354 4.354 0 00.236 2.467 4.25 4.25 0 001.539 1.916 4.114 4.114 0 005.274-.527 4.27 4.27 0 00.905-1.384 4.34 4.34 0 00.318-1.632M157.863 181.663a4.334 4.334 0 00-.701-2.373 4.197 4.197 0 00-1.873-1.574 4.094 4.094 0 00-2.414-.245 4.15 4.15 0 00-2.14 1.167 4.297 4.297 0 00-1.144 2.185 4.354 4.354 0 00.236 2.467 4.25 4.25 0 001.539 1.916c.687.47 1.494.72 2.32.72a4.132 4.132 0 002.952-1.249 4.315 4.315 0 001.225-3.014M182.473 181.663a4.334 4.334 0 00-.701-2.373 4.198 4.198 0 00-1.875-1.574 4.094 4.094 0 00-2.414-.244 4.15 4.15 0 00-2.14 1.168 4.297 4.297 0 00-1.143 2.186 4.354 4.354 0 00.239 2.467 4.25 4.25 0 001.54 1.915 4.113 4.113 0 005.272-.531 4.31 4.31 0 001.222-3.014"/><g><path fill="#356d82" d="M53.564 24.298a29.802 29.802 0 0116.81 5.21c4.977 3.398 8.855 8.227 11.146 13.877a31.545 31.545 0 011.721 17.863c-1.167 5.998-4.05 11.507-8.28 15.831-4.233 4.324-9.624 7.269-15.494 8.462a29.66 29.66 0 01-17.482-1.76c-5.53-2.34-10.255-6.303-13.58-11.387a31.4 31.4 0 01-5.1-17.177c.01-8.198 3.2-16.057 8.873-21.853 5.672-5.797 13.364-9.057 21.386-9.066zm0-23.748C42.983.55 32.64 3.755 23.84 9.76 15.041 15.768 8.184 24.306 4.134 34.295A55.775 55.775 0 001.088 65.88c2.062 10.603 7.158 20.344 14.64 27.99 7.482 7.646 17.015 12.853 27.393 14.962a52.433 52.433 0 0030.912-3.11c9.776-4.137 18.132-11.144 24.01-20.134 5.879-8.99 9.017-19.56 9.017-30.371a55.693 55.693 0 00-4.071-20.92 54.753 54.753 0 00-11.596-17.735 53.435 53.435 0 00-17.356-11.85A52.507 52.507 0 0053.564.55z"/></g></svg>