<svg width="360" height="159" fill="none" xmlns="http://www.w3.org/2000/svg"><path d="m357.093 96.635 1.114-1.11c.311-.307.539-.669.67-1.06.129-.392.157-.803.081-1.204a2.55 2.55 0 0 0-.523-1.116 3.073 3.073 0 0 0-1.028-.814c.175-.64.17-1.319.163-1.997a15.68 15.68 0 0 1 .012-.92c.147-2.289-2.854-3.018-4.833-2.24l-38.067 15.759c-3.31 1.336-.783 5.812 2.559 4.896 9.63-2.555 19.251-5.122 28.865-7.7-24.013 22.741-49.451 41.958-85.8 49.172-40.007 7.604-81.606 5.831-120.466-5.135C66.823 122.537 11.632 68.588 3.35 1.924 3.184.653.89.7 1.004 2.024c5.637 66.514 59.827 122.104 131.76 144.263 39.658 12.165 82.416 14.915 123.813 7.965 39.892-6.852 67.452-26.563 93.724-51.233l-1.427 22.1c-.21 3.578 6.186 3.338 6.421-.203l1.798-28.281Z" fill="#ED634D" stroke="#ED634D"/></svg>