<svg fill="none" viewBox="0 0 1018 1081" xmlns="http://www.w3.org/2000/svg" xmlns:xlink="http://www.w3.org/1999/xlink"><mask id="a" fill="#fff"><path d="m295.417 734.011c15.076-29.46 37.534-54.871 49.52-85.788 16.152-41.701 11.575-88.486 13.909-133.431 2.333-44.944 15.099-94.181 52.995-117.395 50.512-30.937 115.868-.781 168.126 29.168l166.633 95.49c29.477 16.9 61.02 36.066 73.926 67.595 16.407 40.076-3.127 84.643-24.583 121.46-85.137 146.195-350.157 495.81-499.608 205.769-29.175-56.66-29.5-127.039-.918-182.868z" fill="#fff"/></mask><path d="m1017.85 388.38c-2.91 51.928-33.129 101.675-77.56 127.643-53.651 31.371-120.202 27.469-177.874 50.115-74.795 29.374-126.053 99.209-190.847 147.511-77.159 57.532-171.938 83.344-264.252 107.987-61.306 16.371-126.403 32.714-186.78 14.061-82.413-25.462-136.368-121.615-116.356-207.343 33.952-145.394 227.439-198.987 277.207-339.707 25.763-72.909 8.981-160.826 54.01-223.42 53.366-74.14 161.073-71.518 249.715-57.217 67.425 10.877 134.445 24.137 201.428 37.407 54.286 10.738 111.075 22.655 153.344 58.755 52.188 44.576 35.074 84.154 38.515 141.088 3.046 50.179 42.53 87.706 39.43 143.139" fill="#f6f5f5"/><path d="m344.937 648.223.933.361zm66.904-250.826-.522-.853zm168.126 29.168-.497.867zm166.633 95.49.497-.868zm73.926 67.595-.925.379zm-24.583 121.46-.864-.504v.001zm-499.608 205.769-.889.458zm-.028-182.412c7.508-14.672 16.851-28.33 25.868-42.26 9.002-13.906 17.662-28.061 23.695-43.623l-1.865-.723c-5.953 15.356-14.515 29.365-23.509 43.259-8.977 13.869-18.401 27.647-25.969 42.435zm49.563-85.883c8.131-20.994 11.033-43.237 12.202-65.808.584-11.286.736-22.67.887-34.025.152-11.361.303-22.693.885-33.907l-1.997-.103c-.584 11.258-.736 22.629-.887 33.983-.152 11.362-.303 22.707-.885 33.948-1.165 22.483-4.05 44.483-12.07 65.19zm13.974-133.74c2.331-44.893 15.078-93.659 52.52-116.595l-1.045-1.705c-38.352 23.493-51.136 73.2-53.472 118.197zm52.52-116.595c24.941-15.275 53.6-15.509 82.639-8.131 29.047 7.38 58.353 22.349 84.467 37.314l.994-1.735c-26.144-14.983-55.645-30.067-84.969-37.518-29.331-7.452-58.606-7.296-84.176 8.365zm167.106 29.183 166.632 95.49.995-1.735-166.633-95.49zm166.632 95.49c29.53 16.931 60.743 35.945 73.499 67.107l1.851-.757c-13.057-31.898-44.93-51.215-74.355-68.085zm73.499 67.107c8.096 19.775 7.344 40.699 1.866 61.316-5.481 20.625-15.676 40.88-26.388 59.261l1.728 1.007c10.744-18.436 21.044-38.873 26.593-59.754 5.55-20.89 6.363-42.287-1.948-62.588zm-24.522 120.578c-42.545 73.056-130 196.866-225.41 266.166-47.711 34.657-97.251 55.567-144.072 49.877-46.751-5.67-91.101-37.896-128.373-110.229l-1.778.916c37.454 72.686 82.275 105.523 129.91 111.303 47.563 5.77 97.621-15.48 145.488-50.248 95.747-69.545 183.371-193.64 225.963-266.779zm-497.855 205.814c-29.03-56.378-29.35-126.417-.917-181.954l-1.78-.912c-28.732 56.121-28.401 126.841.919 183.782z" fill="#b5dcd9" mask="url(#a)"/></svg>