<svg width="126" height="190" fill="none" xmlns="http://www.w3.org/2000/svg"><path d="M62.668 158.331A31.67 31.67 0 1 0 31 190a31.661 31.661 0 0 0 31.668-31.669Z" fill="#10334D"/><path d="M125.999 158.331a31.67 31.67 0 1 0-63.34.001 31.67 31.67 0 0 0 63.34-.001ZM62.668 95A31.668 31.668 0 1 0 31 126.67 31.66 31.66 0 0 0 62.668 95Z" fill="#10334D"/><path d="M125.999 95a31.669 31.669 0 1 0-63.337.002A31.669 31.669 0 0 0 125.999 95ZM62.668 31.67a31.668 31.668 0 1 0-63.337-.002 31.668 31.668 0 0 0 63.337.001Z" fill="#10334D"/><path d="M125.999 31.67a31.669 31.669 0 1 0-63.337.001 31.669 31.669 0 0 0 63.337-.002Z" fill="#10334D"/></svg>