<svg xmlns="http://www.w3.org/2000/svg" viewBox="0 0 382 338"><defs><clipPath id="a"><path fill="#fff" d="M243.364 249.72a28.16 28.16 0 0013.62.088 28.116 28.116 0 0012.06-6.31c8.21-7.45 11.21-19.05 18.177-27.666 9.034-11.152 23.577-16.096 35.236-24.51 13.892-10.026 23.43-24.818 32.632-39.255 6.113-9.584 12.433-19.817 12.593-31.182.251-15.502-12.925-30.043-28.41-31.348-26.27-2.218-45.892 27.903-72.241 28.675-13.652.383-27.487-7.346-40.463-3.094-15.376 5.038-20.847 23.597-23.315 39.564-1.877 12.141-3.33 24.336-4.782 36.53-1.178 9.879-2.3 20.256 1.436 29.5 4.634 11.395 12.2 10.658 21.568 14.38 8.254 3.291 12.385 12.113 21.861 14.646"/></clipPath></defs><path fill="#f6f5f5" d="M381.95 207.18c.843-19.996-8.918-40.17-25.045-51.797-19.495-14.031-45.266-15.04-66.635-25.881-27.704-14.066-44.813-42.738-67.936-63.669-27.548-24.936-63.091-38.407-97.713-51.3-22.996-8.577-47.456-17.284-71.42-12.414C20.49 8.764-3.938 43.557.528 77.137c7.574 56.953 80.086 84.758 93.927 140.516 7.17 28.894-2.63 61.924 12.348 87.587 17.744 30.398 59.341 33.45 94.03 31.31 26.388-1.627 52.709-4.182 79.023-6.733 21.316-2.068 43.646-4.496 61.297-16.73 21.791-15.106 16.694-30.902 20.178-52.576 3.073-19.098 19.704-31.984 20.608-53.327"/><path fill="none" stroke="#ed634d" stroke-miterlimit="20" stroke-width="2" d="M243.364 249.72a28.16 28.16 0 0013.62.088 28.116 28.116 0 0012.06-6.31c8.21-7.45 11.21-19.05 18.177-27.666 9.034-11.152 23.577-16.096 35.236-24.51 13.892-10.026 23.43-24.818 32.632-39.255 6.113-9.584 12.433-19.817 12.593-31.182.251-15.502-12.925-30.043-28.41-31.348-26.27-2.218-45.892 27.903-72.241 28.675-13.652.383-27.487-7.346-40.463-3.094-15.376 5.038-20.847 23.597-23.315 39.564-1.877 12.141-3.33 24.336-4.782 36.53-1.178 9.879-2.3 20.256 1.436 29.5 4.634 11.395 12.2 10.658 21.568 14.38 8.254 3.291 12.385 12.113 21.861 14.646" clip-path="url(&quot;#a&quot;)"/></svg>