<svg width="1512" height="118" fill="none" xmlns="http://www.w3.org/2000/svg"><path d="M1261.09 97.799c138.57 48.731 127.58-1.49 265.96-37.41 10.98-2.85 18.95-12.653 18.95-24 0-13.415-10.88-24.29-24.29-24.29H1193.5L196.989.982C138.418.329 79.92 5.032 21.647 10.968c-46.15 4.7-95.755 8.615-132.218 11.006-18.267-.81-33.354-.72-44.062.543-25.729 3.034-.764 2.397 44.062-.543 112.997 5.019 347.642 44.573 419.7 54.988 83.706 12.099 96.356 8.758 401.372-28.903 92.544-11.426 228.704-38.186 324.429-20.164 107.1 20.164 125.82 34.616 226.16 69.904Z" fill="#E8F0F0"/></svg>