<svg width="40" height="40" fill="none" xmlns="http://www.w3.org/2000/svg"><path d="M20 3.333C10.8 3.333 3.333 10.8 3.333 20c0 9.2 7.467 16.667 16.667 16.667 9.2 0 16.666-7.467 16.666-16.667C36.666 10.8 29.2 3.334 20 3.334Zm-8.217 27.134C12.5 28.967 16.866 27.5 20 27.5c3.133 0 7.516 1.467 8.216 2.967A13.154 13.154 0 0 1 20 33.334c-3.1 0-5.95-1.067-8.217-2.867ZM30.6 28.05c-2.384-2.9-8.167-3.883-10.6-3.883-2.434 0-8.217.983-10.6 3.883A13.25 13.25 0 0 1 6.666 20C6.666 12.65 12.65 6.667 20 6.667S33.333 12.65 33.333 20a13.25 13.25 0 0 1-2.733 8.05ZM20 10a5.818 5.818 0 0 0-5.834 5.834c0 3.233 2.6 5.833 5.834 5.833 3.233 0 5.833-2.6 5.833-5.834C25.833 12.6 23.233 10 20 10Zm0 8.334a2.497 2.497 0 0 1-2.5-2.5c0-1.384 1.116-2.5 2.5-2.5 1.383 0 2.5 1.116 2.5 2.5 0 1.383-1.117 2.5-2.5 2.5Z" fill="#1C6E85"/></svg>