<svg width="201" height="60" fill="none" xmlns="http://www.w3.org/2000/svg"><path d="m192.319 31.795-2.141.16-30.988 26.77c-3.888 3.343-9.814-1.883-5.91-5.285l24.234-20.901c-15.662.715-248.767-.002-263.66-1.096l1.74-7.172c14.516.943 247.17 1.538 262.241.788a12034.013 12034.013 0 0 1-33.621-16.965c-3.918-1.94-1.509-8.58 2.817-7.088l50.163 16.764c2.565.914 4.47 4.21 1.962 6.373-.332.292-.65.602-.968.912-.698.685-1.399 1.367-2.221 1.86a3.74 3.74 0 0 1 .067 1.693 3.841 3.841 0 0 1-.695 1.564c-.35.466-.801.854-1.323 1.136a4.217 4.217 0 0 1-1.697.487Z" fill="#10334D"/></svg>