<svg width="202" height="202" fill="none" xmlns="http://www.w3.org/2000/svg"><path d="M67.145 167.864A33.573 33.573 0 1 0 0 167.863a33.573 33.573 0 0 0 67.145.001Z" fill="#356D82"/><path d="M134.282 167.864a33.572 33.572 0 1 0-33.572 33.572 33.576 33.576 0 0 0 31.019-20.723 33.564 33.564 0 0 0 2.553-12.849Z" fill="#356D82"/><path d="M201.42 167.864a33.573 33.573 0 1 0-20.724 31.019 33.565 33.565 0 0 0 20.724-31.019ZM67.145 100.719a33.573 33.573 0 1 0-67.145 0 33.573 33.573 0 0 0 67.145 0Z" fill="#356D82"/><path d="M134.282 100.719a33.572 33.572 0 1 0-33.572 33.572 33.564 33.564 0 0 0 33.572-33.572Z" fill="#356D82"/><path d="M201.42 100.719a33.573 33.573 0 1 0-20.724 31.019 33.578 33.578 0 0 0 18.171-18.171 33.574 33.574 0 0 0 2.553-12.848ZM67.145 33.572a33.573 33.573 0 1 0-33.573 33.573 33.58 33.58 0 0 0 33.573-33.573Z" fill="#356D82"/><path d="M134.282 33.573a33.572 33.572 0 1 0-64.59 12.849 33.573 33.573 0 0 0 64.59-12.849Z" fill="#356D82"/><path d="M201.42 33.573a33.573 33.573 0 1 0-67.145 0 33.573 33.573 0 0 0 67.145 0Z" fill="#356D82"/></svg>