<svg width="333" height="356" fill="none" xmlns="http://www.w3.org/2000/svg"><path d="M149.007 33.179c-13.274-6.569-29.044.6-39.049 9.448C89.071 61.169 75.431 97.738 40.39 78.455 12.715 63.231 7.946 29.867 3.625 1.892 3.343.229.428.46.571 2.186c3.25 35.005 16.194 92.475 64.1 87.61 25.278-2.58 33.018-27.814 49.896-42.236 13.22-11.276 30.231-16.784 41.728 7.49 2.709 5.644 2.884 13.593 3.993 19.786a555.515 555.515 0 0 1 7.065 56.464c3.936 55.821-2.025 117.38 32.153 166.098 23.131 33.006 66.213 51.753 103.584 35.562a38.117 38.117 0 0 1-5.681 9.19c-2.393 2.241-4.774 4.54-7.202 6.76-3.676 3.334 1.337 8.269 5.167 5.576a45.403 45.403 0 0 0 9.951-9.328 388.553 388.553 0 0 0 25.917-27.738 3.743 3.743 0 0 0 1.025-1.67 3.8 3.8 0 0 0 .046-1.966 3.91 3.91 0 0 0-2.64-2.791 4381.081 4381.081 0 0 0-30.802-12.445c-4.528-1.807-6.483 5.27-2.038 7.125 8.447 3.535 16.958 6.962 25.473 10.39a465.69 465.69 0 0 1-9.476 10.515 3.804 3.804 0 0 0-.137-2.107 3.912 3.912 0 0 0-3.217-2.545 3.826 3.826 0 0 0-2.093.342c-60.703 35.504-112.537-29.885-124.619-83.696-12.082-53.811-5.77-108.357-15.153-161.888-2.266-14.103-3.42-35.953-18.604-43.505Z" fill="#ED634D"/></svg>