<svg width="80" height="60" fill="none" xmlns="http://www.w3.org/2000/svg"><path d="m1.384 10.732-.341.23a.779.779 0 0 0-.341.566.767.767 0 0 0 .224.62 2.347 2.347 0 0 0-.183.53c-.022.083-.044.167-.07.249-.2.61.451.996.972.91l10.08-1.872c.873-.153.605-1.524-.246-1.486-2.446.086-4.89.175-7.334.269C11.43 6.102 18.795 2.5 27.852 2.833A55.924 55.924 0 0 1 55.757 11.8C71.4 21.977 80.442 40.053 77.55 58.62c-.053.355.489.486.558.12 3.501-18.36-5.187-36.817-20.465-47.34a57.472 57.472 0 0 0-28.485-9.943C19.298.802 11.399 4.405 3.442 9.43L5.38 3.538c.309-.956-1.21-1.293-1.522-.35l-2.474 7.544Z" fill="#00344E" stroke="#00344E"/></svg>