<svg fill="none" xmlns="http://www.w3.org/2000/svg" viewBox="0 0 161 232"><path d="M-11.92 10.853a36.187 36.187 0 00-29.879 16.3c-7.734 12.02-7.603 27.485-13.401 40.549-7.521 16.945-23.974 27.913-35.68 42.284-13.945 17.123-20.885 38.742-27.525 59.809-4.414 13.985-8.869 28.85-5.282 43.077 4.852 19.418 26.092 33.173 45.794 29.652 33.426-5.968 47.807-50.06 80.336-59.784 16.86-5.017 36.65.023 51.379-9.593 17.454-11.397 18.079-36.363 15.83-57.098-1.708-15.767-3.964-31.459-6.22-47.15-1.825-12.713-3.886-26.029-11.614-36.316-9.562-12.67-18.732-9.237-31.628-10.764C8.823 20.459.744 10.829-11.89 10.82" fill="#356D82"/><path d="M92.832 153.845c-10.268-5.293-21.843-8-31.52-14.316-13.042-8.524-21.17-22.577-30.912-34.745C20.655 92.617 7.06 81.304-8.494 82.268c-20.733 1.292-33.392 22.691-42.34 41.437l-28.523 59.78c-5.05 10.572-10.228 22.221-7.569 33.607 3.367 14.504 17.979 23.17 31.56 29.277 53.928 24.241 200.489 70.102 184.834-40.953-3.057-21.688-17.177-41.532-36.637-51.571z" fill="#AADCD8"/><path d="M99.651 185.289a3.42 3.42 0 10-6.84-.006 3.42 3.42 0 006.84.006zM119.818 185.289a3.413 3.413 0 00-4.085-3.358 3.422 3.422 0 00-1.235 6.199 3.418 3.418 0 004.318-.424 3.42 3.42 0 001.002-2.417zM139.981 185.289a3.419 3.419 0 00-4.087-3.357 3.422 3.422 0 00-1.232 6.199 3.417 3.417 0 005.319-2.842zM160.146 185.289a3.421 3.421 0 10-5.321 2.841 3.418 3.418 0 004.318-.424 3.425 3.425 0 001.003-2.417zM99.651 205.443a3.422 3.422 0 00-4.087-3.354 3.423 3.423 0 00-2.493 4.663 3.421 3.421 0 006.58-1.309zM119.818 205.443a3.42 3.42 0 10-6.84 0 3.42 3.42 0 006.84 0zM139.981 205.443a3.421 3.421 0 10-6.842.003 3.421 3.421 0 006.842-.003zM160.146 205.443a3.421 3.421 0 10-6.842.003 3.421 3.421 0 006.842-.003zM99.651 225.616a3.417 3.417 0 00-2.111-3.16 3.42 3.42 0 102.111 3.16zM119.818 225.616a3.415 3.415 0 00-2.111-3.16 3.419 3.419 0 00-3.209 6.004 3.42 3.42 0 005.32-2.844zM139.981 225.616a3.422 3.422 0 00-5.84-2.418 3.417 3.417 0 00-.74 3.728 3.422 3.422 0 006.58-1.31zM160.146 225.616a3.416 3.416 0 00-2.112-3.16 3.419 3.419 0 00-3.209 6.004 3.42 3.42 0 005.321-2.844z" fill="#1C6E83"/></svg>