<svg xmlns="http://www.w3.org/2000/svg" viewBox="0 0 88 120"><path fill="#ed634d" d="M39.184 35.427a2.757 2.757 0 10-5.514 0 2.757 2.757 0 005.514 0M55.424 35.427a2.757 2.757 0 10-5.514 0 2.757 2.757 0 005.514 0M71.674 35.427a2.757 2.757 0 10-5.514 0 2.757 2.757 0 005.514 0M87.914 35.427a2.757 2.757 0 10-5.514 0 2.757 2.757 0 005.514 0M39.184 51.667a2.757 2.757 0 10-5.514 0 2.757 2.757 0 005.514 0M55.424 51.667a2.757 2.757 0 10-5.514 0 2.757 2.757 0 005.514 0M71.674 51.667a2.757 2.757 0 10-5.514 0 2.757 2.757 0 005.514 0M87.914 51.667a2.757 2.757 0 10-5.514 0 2.757 2.757 0 005.514 0M39.184 67.917a2.757 2.757 0 10-5.514 0 2.757 2.757 0 005.514 0M55.424 67.917a2.757 2.757 0 10-5.514 0 2.757 2.757 0 005.514 0M71.674 67.917a2.757 2.757 0 10-5.514 0 2.757 2.757 0 005.514 0M87.914 67.917a2.757 2.757 0 10-5.514 0 2.757 2.757 0 005.514 0M39.184 84.167a2.757 2.757 0 10-5.514 0 2.757 2.757 0 005.514 0M55.424 84.167a2.757 2.757 0 10-5.514 0 2.757 2.757 0 005.514 0M71.674 84.167a2.757 2.757 0 10-5.514 0 2.757 2.757 0 005.514 0M87.914 84.167a2.757 2.757 0 10-5.514 0 2.757 2.757 0 005.514 0M39.184 100.42a2.757 2.757 0 10-5.514-.006 2.757 2.757 0 005.514.006M55.424 100.42a2.757 2.757 0 10-5.514-.006 2.757 2.757 0 005.514.006M71.674 100.42a2.757 2.757 0 10-5.514-.006 2.757 2.757 0 005.514.006M87.914 100.42a2.757 2.757 0 10-5.514-.006 2.757 2.757 0 005.514.006M39.184 116.67a2.757 2.757 0 10-5.514-.006 2.757 2.757 0 005.514.006M55.424 116.67a2.757 2.757 0 10-5.514-.006 2.757 2.757 0 005.514.006M71.674 116.67a2.757 2.757 0 10-5.514-.006 2.757 2.757 0 005.514.006M87.914 116.67a2.757 2.757 0 10-5.514-.006 2.757 2.757 0 005.514.006"/><g clip-path="url(#clip-696:368)"><path fill="#356d82" d="M35.503 15.205c3.97 0 7.853 1.16 11.155 3.336a19.86 19.86 0 017.395 8.884 19.537 19.537 0 011.142 11.437A19.71 19.71 0 0149.7 48.997a20.168 20.168 0 01-10.28 5.418 20.345 20.345 0 01-11.6-1.126 20.02 20.02 0 01-9.012-7.291A19.597 19.597 0 0115.425 35a19.676 19.676 0 015.887-13.991 20.246 20.246 0 0114.19-5.804zm0-15.205a35.862 35.862 0 00-19.724 5.897A35.112 35.112 0 002.703 21.604 34.542 34.542 0 00.682 41.827a34.85 34.85 0 009.715 17.92 35.66 35.66 0 0018.176 9.58 35.972 35.972 0 0020.512-1.991 35.396 35.396 0 0015.932-12.89A34.65 34.65 0 0071 35c0-4.596-.917-9.147-2.701-13.394a34.967 34.967 0 00-7.695-11.355 35.535 35.535 0 00-11.516-7.587A35.938 35.938 0 0035.503 0z"/></g></svg>