<svg xmlns="http://www.w3.org/2000/svg" viewBox="0 0 62 57"><path fill="#003350" d="M54.005 0a7.462 7.462 0 017.452 7.452v41.446a7.462 7.462 0 01-7.452 7.452H12.56a7.462 7.462 0 01-7.453-7.453v-7.88l-3.241 3.194a1.096 1.096 0 01-1.54-1.559l5.104-5.047a1.093 1.093 0 011.512 0l5.447 5.038a1.095 1.095 0 01.057 1.55 1.055 1.055 0 01-.799.35 1.14 1.14 0 01-.75-.284l-3.604-3.337v8.014a5.266 5.266 0 005.267 5.256h41.445a5.266 5.266 0 005.256-5.257V16.692H7.293v12.956a1.093 1.093 0 01-2.186 0V7.471A7.462 7.462 0 0112.56.02h41.445zm5.085 14.496h.171V7.452a5.266 5.266 0 00-5.256-5.266H12.56a5.276 5.276 0 00-5.267 5.266v7.025H59.09z"/><path fill="#003350" d="M32.59 45.237a1.083 1.083 0 00.95-.514l13.146-20.712a1.085 1.085 0 00-.333-1.512 1.102 1.102 0 00-1.51.333l-12.197 19.22-6.502-10.865a1.104 1.104 0 10-1.9 1.122l7.414 12.358a1.093 1.093 0 00.95.532"/></svg>