<svg fill="none" xmlns="http://www.w3.org/2000/svg" viewBox="0 0 40 40"><path d="M20 39A19 19 0 101 20a19.02 19.02 0 0019 19zm0-36.783A17.783 17.783 0 112.217 20 17.804 17.804 0 0120 2.217z" fill="currentColor"/><path d="M20 39A19 19 0 101 20a19.02 19.02 0 0019 19v0zm0-36.783A17.783 17.783 0 112.217 20 17.804 17.804 0 0120 2.21v.007z" stroke="currentColor" stroke-width=".3" stroke-miterlimit="10"/><path d="M16.816 15.455c1.868-.057 4.103.976 5.849 2.899 1.628 1.802 2.448 3.938 2.358 5.708M17.645 10.39c2.875-.09 6.308 1.503 8.988 4.455 2.502 2.758 3.76 6.05 3.623 8.793M10.426 30.109l3.5-11.35 8.513 8.796-12.013 2.554z" stroke="currentColor" stroke-width="2" stroke-linecap="round" stroke-linejoin="round"/></svg>