<svg fill="none" xmlns="http://www.w3.org/2000/svg" viewBox="0 0 38 38"><mask id="a" fill="#fff"><path d="M19.011 37A18 18 0 101 19a18.02 18.02 0 0018 18h.011zM19 2.15A16.85 16.85 0 112.15 19 16.87 16.87 0 0119 2.15z"/></mask><path d="M19.011 37A18 18 0 101 19a18.02 18.02 0 0018 18h.011zM19 2.15A16.85 16.85 0 112.15 19 16.87 16.87 0 0119 2.15z" fill="currentColor"/><path d="M19.011 37v1h.001v-1zM1 19H0v.001h1zm18 18l-.001 1H19v-1zM2.15 19h-1 1zm16.862 19a19 19 0 0010.553-3.208l-1.113-1.662A17 17 0 0119.011 36l.001 2zm10.553-3.208a19 19 0 006.992-8.53l-1.848-.764a17 17 0 01-6.257 7.632l1.113 1.662zm6.992-8.53a19 19 0 001.076-10.976l-1.961.391a17 17 0 01-.963 9.821l1.848.765zm1.076-10.976a19 19 0 00-5.202-9.725l-1.414 1.415a17 17 0 014.655 8.701l1.961-.39zm-5.202-9.725A19 19 0 0022.702.364l-.39 1.962a17 17 0 018.705 4.65l1.414-1.415zM22.702.364a19 19 0 00-10.976 1.084l.766 1.847a17 17 0 019.82-.969l.39-1.962zM11.726 1.448a19 19 0 00-8.525 6.998l1.663 1.11a17 17 0 017.628-6.26l-.766-1.848zM3.201 8.446A19 19 0 000 19h2a17 17 0 012.864-9.443L3.201 8.446zM0 19A19.02 19.02 0 005.57 32.43l1.415-1.414A17.02 17.02 0 012 19l-2 .002zM5.57 32.43A19.02 19.02 0 0019 38L19 36a17.02 17.02 0 01-12.016-4.985L5.571 32.43zM19 38h.011v-2H19v2zm0-34.85c3.135 0 6.2.93 8.806 2.671l1.111-1.663A17.85 17.85 0 0019 1.15v2zm8.806 2.671a15.85 15.85 0 015.838 7.114l1.847-.766a17.85 17.85 0 00-6.574-8.01L27.806 5.82zm5.838 7.114a15.85 15.85 0 01.901 9.157l1.962.39a17.85 17.85 0 00-1.016-10.313l-1.847.766zm.901 9.157a15.85 15.85 0 01-4.337 8.116l1.414 1.414a17.85 17.85 0 004.885-9.14l-1.962-.39zm-4.337 8.116a15.85 15.85 0 01-8.116 4.338l.39 1.961a17.85 17.85 0 009.14-4.885l-1.414-1.414zm-8.116 4.338a15.85 15.85 0 01-9.158-.902l-.765 1.848a17.85 17.85 0 0010.313 1.015l-.39-1.961zm-9.158-.902a15.85 15.85 0 01-7.113-5.838l-1.663 1.111a17.85 17.85 0 008.011 6.575l.765-1.848zm-7.113-5.838A15.85 15.85 0 013.15 19h-2a17.85 17.85 0 003.008 9.917l1.663-1.11zM3.15 19.001A15.87 15.87 0 017.798 7.798L6.384 6.384A17.87 17.87 0 001.15 19l2 .002zM7.798 7.798A15.87 15.87 0 0119.001 3.15l-.002-2A17.87 17.87 0 006.384 6.384l1.414 1.414z" fill="currentColor" mask="url(#a)"/><path d="M19.011 37A18 18 0 101 19a18.02 18.02 0 0018.011 18v0zm0-34.85A16.85 16.85 0 112.161 19a16.87 16.87 0 0116.85-16.85v0z" stroke="currentColor" stroke-width=".5" stroke-miterlimit="10"/><mask id="b" fill="#fff"><path d="M23.571 15.001l-4.676 7.97a.474.474 0 01-.384.233h-.023a.476.476 0 01-.382-.19l-2.203-2.986a.476.476 0 11.763-.57l1.776 2.406 4.31-7.35a.475.475 0 01.82.479"/></mask><path d="M23.571 15.001l-4.676 7.97a.474.474 0 01-.384.233h-.023a.476.476 0 01-.382-.19l-2.203-2.986a.476.476 0 11.763-.57l1.776 2.406 4.31-7.35a.475.475 0 01.82.479" fill="currentColor"/><path d="M18.895 22.97l.861.508.001-.001-.862-.506zm-.384.234v1h.026l.027-.001-.053-.999zm-.023 0v-1h-.002l.002 1zm-.382-.19l-.804.593.003.005.801-.598zm-2.203-2.986l.805-.594-.003-.004-.802.598zm.763-.57l.805-.593-.003-.005-.802.599zm1.776 2.406l-.804.594.9 1.219.767-1.308-.863-.505zm4.31-7.35l-.833-.553-.016.023-.014.025.862.505zm-.043-.019l-4.677 7.97 1.725 1.012 4.677-7.97-1.725-1.012zm-4.676 7.968a.525.525 0 01.18-.182l1.038 1.71c.208-.127.382-.303.505-.513l-1.723-1.015zm.18-.182a.524.524 0 01.244-.075l.107 1.997c.243-.013.479-.086.687-.212l-1.038-1.71zm.297-.077h-.022v2h.023v-2zm-.024 0c.082 0 .162.02.236.056l-.895 1.788c.206.103.432.157.662.156l-.003-2zm.236.056c.073.036.136.09.185.155l-1.602 1.197c.138.185.317.334.522.437l.895-1.79zm.189.16l-2.203-2.986-1.61 1.188 2.204 2.985 1.609-1.187zm-2.206-2.99a.524.524 0 01.098.389l-1.979-.288c-.056.387.044.781.278 1.095l1.603-1.196zm.098.389a.524.524 0 01-.205.344l-1.196-1.603a1.476 1.476 0 00-.578.971l1.98.288zm-.205.344a.524.524 0 01-.389.099l.288-1.98a1.476 1.476 0 00-1.095.278l1.196 1.603zm-.389.099a.524.524 0 01-.344-.205l1.603-1.197a1.476 1.476 0 00-.971-.577l-.288 1.979zm-.347-.21l1.776 2.406 1.609-1.188-1.776-2.405-1.61 1.188zm3.443 2.317l4.31-7.349-1.726-1.011-4.31 7.349 1.726 1.011zm4.279-7.3a.524.524 0 01-.318.22l-.452-1.948a1.475 1.475 0 00-.895.62l1.665 1.107zm-.318.22a.524.524 0 01-.383-.058l1.008-1.727a1.475 1.475 0 00-1.077-.163l.452 1.948zm-.383-.058a.525.525 0 01-.239-.305l1.918-.566a1.476 1.476 0 00-.671-.856l-1.008 1.727zm-.239-.305a.525.525 0 01.035-.385l1.784.904c.17-.336.206-.724.1-1.085l-1.919.566z" fill="currentColor" mask="url(#b)"/><path d="M23.571 15.001l-4.676 7.97a.474.474 0 01-.384.233h-.023a.476.476 0 01-.382-.19l-2.203-2.986a.476.476 0 11.763-.57l1.776 2.406 4.31-7.35a.475.475 0 01.82.479V15z" stroke="currentColor" stroke-miterlimit="10"/><mask id="c" fill="#fff"><path d="M11.173 12.033l1.3-.223a12.1 12.1 0 005.707-2.62l.829-.69.725.61a12.123 12.123 0 005.556 2.624l1.557.284v1.788a.477.477 0 00.665.472.475.475 0 00.283-.472v-2.183a.47.47 0 00-.384-.464l-1.933-.356a11.19 11.19 0 01-5.123-2.42l-1.028-.853a.472.472 0 00-.609 0l-1.138.942a11.165 11.165 0 01-5.26 2.416l-1.708.285a.476.476 0 00-.396.467v7.244a.475.475 0 10.948 0l.009-6.851z"/></mask><path d="M11.173 12.033l1.3-.223a12.1 12.1 0 005.707-2.62l.829-.69.725.61a12.123 12.123 0 005.556 2.624l1.557.284v1.788a.477.477 0 00.665.472.475.475 0 00.283-.472v-2.183a.47.47 0 00-.384-.464l-1.933-.356a11.19 11.19 0 01-5.123-2.42l-1.028-.853a.472.472 0 00-.609 0l-1.138.942a11.165 11.165 0 01-5.26 2.416l-1.708.285a.476.476 0 00-.396.467v7.244a.475.475 0 10.948 0l.009-6.851z" fill="currentColor"/><path d="M11.173 12.033l-.169-.986-.83.142-.001.842 1 .002zm1.3-.223l-.167-.985.167.986zm5.707-2.62l.64.768-.64-.769zm.829-.69l.642-.766-.64-.537-.642.534.64.77zm.725.61l-.643.765h.001l.642-.766zm5.556 2.624l-.184.983h.004l.18-.983zm1.557.284h1v-.833l-.82-.15-.18.983zm0 1.788l.997.077.003-.038v-.04h-1zm.474.512v1-1zm.474-.512h-1v.039l.003.038.997-.077zm0-2.183l-1-.005v.005h1zm-.384-.464l.182-.984h-.001l-.181.984zm-1.933-.356l-.184.983h.003l.181-.983zm-5.123-2.42l.642-.766-.003-.002-.64.769zm-1.028-.853l-.644.764.005.005.64-.77zm-.304-.112v1-1zm-.305.112l.638.77.007-.006-.645-.764zm-1.138.942l-.638-.77h-.001l.639.77zm-5.26 2.416l.164.987h.003l-.167-.987zm-1.708.285l-.164-.986h-.004l.168.986zm-.396.467l-1-.004v.004h1zm0 7.244l.997.077.003-.039v-.038h-1zm.474.512v1-1zm.474-.512l-1-.002v.04l.003.039.997-.077zm.177-5.866l1.3-.222-.336-1.971-1.3.222.336 1.971zm1.3-.222a13.1 13.1 0 006.178-2.838L17.541 8.42a11.1 11.1 0 01-5.235 2.405l.335 1.972zm6.179-2.838l.828-.689-1.279-1.538-.828.69 1.279 1.537zm-.454-.692l.726.61 1.285-1.533-.726-.609-1.285 1.532zm.726.61a13.123 13.123 0 006.014 2.84l.368-1.965a11.122 11.122 0 01-5.097-2.408l-1.285 1.533zm6.018 2.841l1.557.285.36-1.967-1.557-.285-.36 1.967zm.737-.699v1.788h2v-1.788h-2zm.003 1.71c-.016.203.01.407.078.6l1.889-.658c.023.069.033.141.027.213l-1.994-.154zm.078.6c.066.191.172.367.31.517l1.468-1.359c.05.053.087.116.11.184l-1.888.657zm.31.517c.139.149.306.268.492.35l.801-1.833a.525.525 0 01.175.124l-1.468 1.359zm.492.35c.187.08.388.123.591.123v-2c.072 0 .144.015.21.044l-.8 1.832zm.591.123c.203 0 .405-.042.591-.124l-.801-1.832a.524.524 0 01.21-.044v2zm.591-.124c.186-.081.354-.2.492-.35l-1.468-1.358a.525.525 0 01.175-.124l.801 1.832zm.492-.35c.138-.149.244-.325.31-.517l-1.888-.657a.523.523 0 01.11-.184l1.468 1.359zm.31-.517c.067-.192.094-.396.078-.598l-1.994.154a.524.524 0 01.028-.213l1.889.657zm.081-.521v-2.183h-2v2.183h2zm0-2.179a1.47 1.47 0 00-.338-.944l-1.54 1.276a.53.53 0 01-.122-.34l2 .008zm-.338-.944a1.47 1.47 0 00-.864-.508l-.364 1.967a.53.53 0 01-.312-.183l1.54-1.276zm-.865-.508l-1.933-.356-.362 1.967 1.933.356.362-1.967zm-1.93-.355a10.188 10.188 0 01-4.665-2.203L19.713 9.15a12.19 12.19 0 005.581 2.636l.368-1.966zm-4.668-2.205l-1.027-.854-1.279 1.538 1.028.854 1.278-1.538zm-1.022-.85a1.473 1.473 0 00-.95-.347v2a.528.528 0 01-.34-.124l1.29-1.529zm-.95-.347c-.347 0-.683.123-.948.347l1.289 1.53a.528.528 0 01-.34.123v-2zm-.941.341l-1.139.942 1.275 1.541 1.139-.942-1.275-1.54zm-1.14.943a10.166 10.166 0 01-4.789 2.2l.335 1.972a12.166 12.166 0 005.731-2.633l-1.277-1.539zm-4.786 2.2l-1.707.285.328 1.972 1.708-.284-.329-1.973zm-1.71.285a1.475 1.475 0 00-.879.5l1.526 1.294a.524.524 0 01-.312.178l-.336-1.972zm-.879.5c-.224.266-.348.602-.35.949l2 .008a.525.525 0 01-.124.337l-1.526-1.293zm-.35.953v7.244h2V11.64h-2zm.003 7.166c-.015.203.011.407.078.599l1.889-.657c.024.068.033.14.027.213l-1.994-.155zm.078.599c.067.192.172.368.31.517l1.468-1.358c.05.053.087.116.11.184l-1.888.657zm.31.517c.139.15.306.269.492.35l.801-1.832a.525.525 0 01.175.124l-1.468 1.358zm.492.35c.187.082.388.124.591.124v-2c.072 0 .144.015.21.044l-.8 1.832zm.591.124c.204 0 .405-.042.591-.124l-.8-1.832a.524.524 0 01.21-.044v2zm.591-.124c.186-.081.354-.2.492-.35l-1.468-1.358a.525.525 0 01.175-.124l.801 1.832zm.492-.35c.138-.149.244-.325.31-.517l-1.888-.657a.523.523 0 01.11-.184l1.468 1.358zm.31-.517c.067-.192.094-.396.078-.599l-1.994.155a.524.524 0 01.028-.213l1.889.657zm.081-.52l.009-6.851-2-.003-.009 6.851 2 .003z" fill="currentColor" mask="url(#c)"/><path d="M11.173 12.033l1.3-.223a12.1 12.1 0 005.707-2.62l.829-.69.725.61a12.123 12.123 0 005.556 2.624l1.557.284v1.788a.477.477 0 00.665.472.475.475 0 00.283-.472v-2.183a.47.47 0 00-.384-.464l-1.933-.356a11.19 11.19 0 01-5.123-2.42l-1.028-.853a.472.472 0 00-.609 0l-1.138.942a11.165 11.165 0 01-5.26 2.416l-1.708.285a.476.476 0 00-.396.467v7.244a.475.475 0 10.948 0l.009-6.851z" stroke="currentColor" stroke-miterlimit="10"/><path d="M26.98 17.378l.336.335-.335-.335z" fill="currentColor" stroke="currentColor"/><path d="M26.847 21.838a4.91 4.91 0 01-3.236 4.608l-.117.043-4.483 1.933-4.54-1.979h-.03a4.913 4.913 0 01-3.194-3.748.473.473 0 00-.464-.396v0a.48.48 0 00-.467.57 5.864 5.864 0 003.785 4.457l4.714 2.052a.472.472 0 00.378 0l4.646-1.992.088-.032a5.852 5.852 0 003.865-5.502v-4.138a.476.476 0 00-.95 0l.005 4.124z" stroke="currentColor" stroke-miterlimit="10"/><mask id="d" fill="#fff"><path d="M23.4 14.355a.475.475 0 00-.649.168l-4.309 7.35-1.787-2.406a.475.475 0 10-.763.57l2.203 2.985a.475.475 0 00.381.19h.023a.476.476 0 00.384-.233l4.677-7.97a.472.472 0 00-.171-.645"/></mask><path d="M23.4 14.355a.475.475 0 00-.649.168l-4.309 7.35-1.787-2.406a.475.475 0 10-.763.57l2.203 2.985a.475.475 0 00.381.19h.023a.476.476 0 00.384-.233l4.677-7.97a.472.472 0 00-.171-.645" fill="currentColor"/><path d="M22.751 14.523l-.86-.51-.002.004.862.506zm-4.309 7.35l-.802.596.9 1.212.765-1.303-.863-.506zm-1.787-2.406l.802-.596v-.002l-.802.598zm-.763.57l.805-.594-.004-.005-.801.598zm2.203 2.985l-.805.594.004.005.8-.599zm.381.19v-1h-.001l.001 1zm.023 0v1h.053l-.053-1zm.384-.233l.862.508v-.002l-.862-.506zm4.677-7.97l.862.507.002-.003-.864-.503zm.345-1.517a1.475 1.475 0 00-1.114-.155l.5 1.936a.525.525 0 01-.396-.055l1.01-1.726zm-1.114-.155c-.378.098-.701.34-.9.676l1.72 1.02a.524.524 0 01-.32.24l-.5-1.936zm-.902.68l-4.31 7.35 1.726 1.011 4.31-7.35-1.726-1.01zm-2.644 7.259l-1.788-2.405-1.605 1.193 1.788 2.405 1.605-1.193zm-1.789-2.407a1.476 1.476 0 00-.428-.386l-1.023 1.719a.523.523 0 01-.152-.137l1.603-1.196zm-.428-.386a1.476 1.476 0 00-.543-.192l-.287 1.98a.524.524 0 01-.193-.069l1.023-1.719zm-.543-.192a1.474 1.474 0 00-.575.03l.492 1.939a.524.524 0 01-.204.01l.287-1.979zm-.575.03a1.477 1.477 0 00-.52.248l1.197 1.603a.524.524 0 01-.185.088l-.492-1.939zm-.52.248a1.477 1.477 0 00-.385.428l1.719 1.023a.524.524 0 01-.137.152l-1.197-1.603zm-.385.428c-.1.166-.164.35-.192.543l1.979.287a.524.524 0 01-.068.193l-1.719-1.023zm-.192.543c-.028.191-.018.387.03.575l1.938-.492c.017.067.02.136.01.204l-1.978-.288zm.03.575c.047.188.132.364.247.52l1.603-1.197a.525.525 0 01.088.185l-1.938.492zm.244.515l2.203 2.986 1.61-1.188-2.203-2.985-1.61 1.187zm2.207 2.99c.138.185.316.334.522.437l.894-1.789c.073.037.137.09.186.155l-1.602 1.198zm.522.437c.205.103.432.156.662.156l-.003-2c.081 0 .162.019.235.055l-.894 1.789zm.66.156h.023v-2h-.023v2zm.076-.002c.243-.013.48-.085.688-.212L18.2 22.29a.524.524 0 01.245-.075l.106 1.997zM19.24 24c.208-.126.381-.302.505-.512l-1.723-1.015a.525.525 0 01.18-.182L19.24 24zm.506-.514l4.676-7.97-1.725-1.011-4.676 7.97 1.725 1.011zm4.678-7.972c.097-.167.16-.352.187-.544l-1.982-.268a.528.528 0 01.066-.194l1.729 1.006zm.187-.544a1.47 1.47 0 00-.036-.573l-1.934.51a.527.527 0 01-.012-.205l1.982.268zm-.036-.573a1.472 1.472 0 00-.252-.517l-1.591 1.213a.528.528 0 01-.09-.185l1.933-.511zm-.252-.517a1.473 1.473 0 00-.431-.38l-1.006 1.729a.527.527 0 01-.154-.136l1.59-1.213z" fill="currentColor" mask="url(#d)"/><path d="M23.4 14.355a.475.475 0 00-.649.168l-4.309 7.35-1.787-2.406a.475.475 0 10-.763.57l2.203 2.985a.475.475 0 00.381.19h.023a.476.476 0 00.384-.233l4.677-7.97a.474.474 0 00-.16-.654v0z" stroke="currentColor" stroke-miterlimit="10"/></svg>