<svg viewBox="0 0 479 479" xmlns="http://www.w3.org/2000/svg"><path d="m239.5 104.043a135.456 135.456 0 0 1 95.776 231.246 135.465 135.465 0 0 1 -69.361 37.068 135.464 135.464 0 0 1 -139.052-57.614 135.465 135.465 0 0 1 -22.82-75.262 135.583 135.583 0 0 1 135.457-135.438zm0-104.043a239.5 239.5 0 1 0 239.5 239.481 239.479 239.479 0 0 0 -239.5-239.481z" fill="#b5dcd9" opacity=".3"/><g fill="#ed634d"><path d="m49.928 3.464a3.464 3.464 0 1 0 -6.927 0 3.464 3.464 0 0 0 6.927 0m20.42 0a3.464 3.464 0 1 0 -6.927 0 3.464 3.464 0 0 0 6.927 0m20.41 0a3.464 3.464 0 1 0 -6.928 0 3.464 3.464 0 0 0 6.928 0m20.4 0a3.464 3.464 0 1 0 -6.927 0 3.464 3.464 0 0 0 6.927 0m20.43 0a3.464 3.464 0 1 0 -6.927 0 3.464 3.464 0 0 0 6.927 0zm20.41 0a3.464 3.464 0 1 0 -6.928 0 3.464 3.464 0 0 0 6.928 0m-102.07 20.42a3.464 3.464 0 1 0 -6.928 0 3.464 3.464 0 0 0 6.928 0m20.42 0a3.464 3.464 0 1 0 -6.928 0 3.464 3.464 0 0 0 6.928 0m20.41 0a3.464 3.464 0 1 0 -6.928 0 3.464 3.464 0 0 0 6.928 0m20.4 0a3.464 3.464 0 1 0 -6.928 0 3.464 3.464 0 0 0 6.928 0m20.43 0a3.464 3.464 0 1 0 -6.928 0 3.464 3.464 0 0 0 6.928 0zm20.41 0a3.464 3.464 0 1 0 -6.928 0 3.464 3.464 0 0 0 6.928 0m-102.07 20.41a3.464 3.464 0 1 0 -6.928 0 3.464 3.464 0 0 0 6.928 0m20.42 0a3.464 3.464 0 1 0 -6.928 0 3.464 3.464 0 0 0 6.928 0m20.41 0a3.464 3.464 0 1 0 -6.928 0 3.464 3.464 0 0 0 6.928 0m20.4 0a3.464 3.464 0 1 0 -6.928 0 3.464 3.464 0 0 0 6.928 0m20.43 0a3.464 3.464 0 1 0 -6.928 0 3.464 3.464 0 0 0 6.928 0zm20.41 0a3.464 3.464 0 1 0 -6.928 0 3.464 3.464 0 0 0 6.928 0m-102.07 20.42a3.464 3.464 0 1 0 -6.927 0 3.464 3.464 0 0 0 6.927 0m20.42 0a3.464 3.464 0 1 0 -6.927 0 3.464 3.464 0 0 0 6.927 0m20.41 0a3.464 3.464 0 1 0 -6.928 0 3.464 3.464 0 0 0 6.928 0m20.4 0a3.464 3.464 0 1 0 -6.927 0 3.464 3.464 0 0 0 6.927 0m20.43 0a3.464 3.464 0 1 0 -6.927 0 3.464 3.464 0 0 0 6.927 0zm20.41 0a3.464 3.464 0 1 0 -6.927 0 3.464 3.464 0 0 0 6.927 0m-102.07 20.414a3.464 3.464 0 1 0 -6.928-.008 3.464 3.464 0 0 0 6.928.008"/><path d="m70.348 85.128a3.464 3.464 0 1 0 -6.928-.008 3.464 3.464 0 0 0 6.928.008"/><path d="m90.758 85.128a3.464 3.464 0 1 0 -6.928-.008 3.464 3.464 0 0 0 6.928.008"/><path d="m111.158 85.128a3.464 3.464 0 1 0 -6.928-.008 3.464 3.464 0 0 0 6.928.008"/><path d="m131.588 85.128a3.464 3.464 0 1 0 -6.928-.008 3.464 3.464 0 0 0 6.928.008"/><path d="m151.998 85.128a3.464 3.464 0 1 0 -6.928-.008 3.464 3.464 0 0 0 6.928.008"/><path d="m49.928 105.538a3.464 3.464 0 1 0 -6.928-.008 3.464 3.464 0 0 0 6.928.008"/><path d="m70.348 105.538a3.464 3.464 0 1 0 -6.928-.008 3.464 3.464 0 0 0 6.928.008"/><path d="m90.758 105.538a3.464 3.464 0 1 0 -6.928-.008 3.464 3.464 0 0 0 6.928.008z"/><path d="m111.158 105.538a3.464 3.464 0 1 0 -6.928-.008 3.464 3.464 0 0 0 6.928.008"/><path d="m131.588 105.538a3.464 3.464 0 1 0 -6.928-.008 3.464 3.464 0 0 0 6.928.008"/><path d="m151.998 105.538a3.464 3.464 0 1 0 -6.928-.008 3.464 3.464 0 0 0 6.928.008"/></g></svg>