<svg xmlns="http://www.w3.org/2000/svg" viewBox="0 0 34 31"><defs><clipPath id="a"><path fill="#fff" d="M21.455.857a14.877 14.877 0 00-2.92-.287A15.05 15.05 0 003.513 15.386L1.23 12.815a.448.448 0 00-.636 0 .457.457 0 00-.045.636l3.055 3.43.053.063a.465.465 0 00.332.153.484.484 0 00.34-.153l3.037-3.43.054-.063a.448.448 0 00-.146-.734.449.449 0 00-.49.098l-2.339 2.634A14.144 14.144 0 0120.64 1.618a14.154 14.154 0 0112.066 13.983 14.144 14.144 0 01-14.135 14.126A14.036 14.036 0 015.869 21.79a.448.448 0 00-.6-.206.448.448 0 00-.215.6 14.941 14.941 0 0013.517 8.448A15.05 15.05 0 0033.61 15.6 15.057 15.057 0 0021.49.857"/></clipPath><clipPath id="b"><path fill="#fff" d="M18.098 7.65a.448.448 0 00-.448.448v9.2a.457.457 0 00.188.366l4.147 2.912a.467.467 0 00.467.032.45.45 0 00.052-.767l-3.958-2.777V8.107a.448.448 0 00-.448-.448"/></clipPath><clipPath id="c"><path fill="#fff" d="M21.455.857a14.877 14.877 0 00-2.92-.287A15.05 15.05 0 003.513 15.386L1.23 12.815a.448.448 0 00-.636 0 .457.457 0 00-.045.636l3.055 3.43.053.063a.465.465 0 00.332.153.484.484 0 00.34-.153l3.037-3.43.054-.063a.448.448 0 00-.146-.734.449.449 0 00-.49.098l-2.339 2.634A14.144 14.144 0 0120.64 1.618a14.154 14.154 0 0112.066 13.983 14.144 14.144 0 01-14.135 14.126A14.036 14.036 0 015.869 21.79a.448.448 0 00-.6-.206.448.448 0 00-.215.6 14.941 14.941 0 0013.517 8.448A15.05 15.05 0 0033.61 15.6 15.057 15.057 0 0021.49.857"/></clipPath><clipPath id="d"><path fill="#fff" d="M18.098 7.65a.448.448 0 00-.448.448v9.2a.457.457 0 00.188.366l4.147 2.912a.467.467 0 00.467.032.45.45 0 00.052-.767l-3.958-2.777V8.107a.448.448 0 00-.448-.448"/></clipPath></defs><path fill="currentColor" d="M21.455.857a14.877 14.877 0 00-2.92-.287A15.05 15.05 0 003.513 15.386L1.23 12.815a.448.448 0 00-.636 0 .457.457 0 00-.045.636l3.055 3.43.053.063a.465.465 0 00.332.153.484.484 0 00.34-.153l3.037-3.43.054-.063a.448.448 0 00-.146-.734.449.449 0 00-.49.098l-2.339 2.634A14.144 14.144 0 0120.64 1.618a14.154 14.154 0 0112.066 13.983 14.144 14.144 0 01-14.135 14.126A14.036 14.036 0 015.869 21.79a.448.448 0 00-.6-.206.448.448 0 00-.215.6 14.941 14.941 0 0013.517 8.448A15.05 15.05 0 0033.61 15.6 15.057 15.057 0 0021.49.857"/><path fill="none" stroke="currentColor" stroke-miterlimit="20" stroke-width="2" d="M21.455.857a14.877 14.877 0 00-2.92-.287A15.05 15.05 0 003.513 15.386L1.23 12.815a.448.448 0 00-.636 0 .457.457 0 00-.045.636l3.055 3.43v0l.053.063a.465.465 0 00.332.153.484.484 0 00.34-.153l3.037-3.43v0l.054-.063a.448.448 0 00-.146-.734.449.449 0 00-.49.098l-2.339 2.634A14.144 14.144 0 0120.64 1.618a14.154 14.154 0 0112.066 13.983 14.144 14.144 0 01-14.135 14.126A14.036 14.036 0 015.869 21.79a.448.448 0 00-.6-.206.448.448 0 00-.215.6 14.941 14.941 0 0013.517 8.448A15.05 15.05 0 0033.61 15.6 15.057 15.057 0 0021.49.857" clip-path="url(&quot;#a&quot;)"/><path fill="currentColor" d="M21.455.857a14.877 14.877 0 00-2.92-.287A15.05 15.05 0 003.513 15.386L1.23 12.815a.448.448 0 00-.636 0 .457.457 0 00-.045.636l3.055 3.43.053.063a.465.465 0 00.332.153.484.484 0 00.34-.153l3.037-3.43.054-.063a.448.448 0 00-.146-.734.449.449 0 00-.49.098l-2.339 2.634A14.144 14.144 0 0120.64 1.618a14.154 14.154 0 0112.066 13.983 14.144 14.144 0 01-14.135 14.126A14.036 14.036 0 015.869 21.79a.448.448 0 00-.6-.206.448.448 0 00-.215.6 14.941 14.941 0 0013.517 8.448A15.05 15.05 0 0033.61 15.6 15.058 15.058 0 0021.455.857z"/><path fill="none" stroke="currentColor" stroke-miterlimit="20" stroke-width=".8" d="M21.455.857a14.877 14.877 0 00-2.92-.287A15.05 15.05 0 003.513 15.386L1.23 12.815a.448.448 0 00-.636 0 .457.457 0 00-.045.636l3.055 3.43v0l.053.063a.465.465 0 00.332.153.484.484 0 00.34-.153l3.037-3.43v0l.054-.063a.448.448 0 00-.146-.734.449.449 0 00-.49.098l-2.339 2.634A14.144 14.144 0 0120.64 1.618a14.154 14.154 0 0112.066 13.983 14.144 14.144 0 01-14.135 14.126A14.036 14.036 0 015.869 21.79a.448.448 0 00-.6-.206.448.448 0 00-.215.6 14.941 14.941 0 0013.517 8.448A15.05 15.05 0 0033.61 15.6 15.058 15.058 0 0021.455.857z"/><g><path fill="currentColor" d="M18.098 7.65a.448.448 0 00-.448.448v9.2a.457.457 0 00.188.366l4.147 2.912a.467.467 0 00.467.032.45.45 0 00.052-.767l-3.958-2.777V8.107a.448.448 0 00-.448-.448"/><path fill="none" stroke="currentColor" stroke-miterlimit="20" stroke-width="2" d="M18.098 7.65a.448.448 0 00-.448.448v9.2a.457.457 0 00.188.366l4.147 2.912a.467.467 0 00.467.032.45.45 0 00.052-.767l-3.958-2.777v0-8.957a.448.448 0 00-.448-.448" clip-path="url(&quot;#b&quot;)"/></g><g><path fill="currentColor" d="M18.098 7.65a.448.448 0 00-.448.448v9.2a.457.457 0 00.188.366l4.147 2.912a.467.467 0 00.467.032.45.45 0 00.052-.767l-3.958-2.777V8.107a.448.448 0 00-.448-.457z"/><path fill="none" stroke="currentColor" stroke-miterlimit="20" stroke-width=".8" d="M18.098 7.65a.448.448 0 00-.448.448v9.2a.457.457 0 00.188.366l4.147 2.912a.467.467 0 00.467.032.45.45 0 00.052-.767l-3.958-2.777v0-8.957a.448.448 0 00-.448-.457z"/></g><g><path fill="currentColor" d="M21.455.857a14.877 14.877 0 00-2.92-.287A15.05 15.05 0 003.513 15.386L1.23 12.815a.448.448 0 00-.636 0 .457.457 0 00-.045.636l3.055 3.43.053.063a.465.465 0 00.332.153.484.484 0 00.34-.153l3.037-3.43.054-.063a.448.448 0 00-.146-.734.449.449 0 00-.49.098l-2.339 2.634A14.144 14.144 0 0120.64 1.618a14.154 14.154 0 0112.066 13.983 14.144 14.144 0 01-14.135 14.126A14.036 14.036 0 015.869 21.79a.448.448 0 00-.6-.206.448.448 0 00-.215.6 14.941 14.941 0 0013.517 8.448A15.05 15.05 0 0033.61 15.6 15.057 15.057 0 0021.49.857"/><path fill="none" stroke="currentColor" stroke-miterlimit="20" stroke-width="2" d="M21.455.857a14.877 14.877 0 00-2.92-.287A15.05 15.05 0 003.513 15.386L1.23 12.815a.448.448 0 00-.636 0 .457.457 0 00-.045.636l3.055 3.43v0l.053.063a.465.465 0 00.332.153.484.484 0 00.34-.153l3.037-3.43v0l.054-.063a.448.448 0 00-.146-.734.449.449 0 00-.49.098l-2.339 2.634A14.144 14.144 0 0120.64 1.618a14.154 14.154 0 0112.066 13.983 14.144 14.144 0 01-14.135 14.126A14.036 14.036 0 015.869 21.79a.448.448 0 00-.6-.206.448.448 0 00-.215.6 14.941 14.941 0 0013.517 8.448A15.05 15.05 0 0033.61 15.6 15.057 15.057 0 0021.49.857" clip-path="url(&quot;#c&quot;)"/><path fill="currentColor" d="M21.455.857a14.877 14.877 0 00-2.92-.287A15.05 15.05 0 003.513 15.386L1.23 12.815a.448.448 0 00-.636 0 .457.457 0 00-.045.636l3.055 3.43.053.063a.465.465 0 00.332.153.484.484 0 00.34-.153l3.037-3.43.054-.063a.448.448 0 00-.146-.734.449.449 0 00-.49.098l-2.339 2.634A14.144 14.144 0 0120.64 1.618a14.154 14.154 0 0112.066 13.983 14.144 14.144 0 01-14.135 14.126A14.036 14.036 0 015.869 21.79a.448.448 0 00-.6-.206.448.448 0 00-.215.6 14.941 14.941 0 0013.517 8.448A15.05 15.05 0 0033.61 15.6 15.058 15.058 0 0021.455.857z"/><path fill="none" stroke="currentColor" stroke-miterlimit="20" stroke-width=".8" d="M21.455.857a14.877 14.877 0 00-2.92-.287A15.05 15.05 0 003.513 15.386L1.23 12.815a.448.448 0 00-.636 0 .457.457 0 00-.045.636l3.055 3.43v0l.053.063a.465.465 0 00.332.153.484.484 0 00.34-.153l3.037-3.43v0l.054-.063a.448.448 0 00-.146-.734.449.449 0 00-.49.098l-2.339 2.634A14.144 14.144 0 0120.64 1.618a14.154 14.154 0 0112.066 13.983 14.144 14.144 0 01-14.135 14.126A14.036 14.036 0 015.869 21.79a.448.448 0 00-.6-.206.448.448 0 00-.215.6 14.941 14.941 0 0013.517 8.448A15.05 15.05 0 0033.61 15.6 15.058 15.058 0 0021.455.857z"/><g><path fill="currentColor" d="M18.098 7.65a.448.448 0 00-.448.448v9.2a.457.457 0 00.188.366l4.147 2.912a.467.467 0 00.467.032.45.45 0 00.052-.767l-3.958-2.777V8.107a.448.448 0 00-.448-.448"/><path fill="none" stroke="currentColor" stroke-miterlimit="20" stroke-width="2" d="M18.098 7.65a.448.448 0 00-.448.448v9.2a.457.457 0 00.188.366l4.147 2.912a.467.467 0 00.467.032.45.45 0 00.052-.767l-3.958-2.777v0-8.957a.448.448 0 00-.448-.448" clip-path="url(&quot;#d&quot;)"/></g><g><path fill="currentColor" d="M18.098 7.65a.448.448 0 00-.448.448v9.2a.457.457 0 00.188.366l4.147 2.912a.467.467 0 00.467.032.45.45 0 00.052-.767l-3.958-2.777V8.107a.448.448 0 00-.448-.457z"/><path fill="none" stroke="currentColor" stroke-miterlimit="20" stroke-width=".8" d="M18.098 7.65a.448.448 0 00-.448.448v9.2a.457.457 0 00.188.366l4.147 2.912a.467.467 0 00.467.032.45.45 0 00.052-.767l-3.958-2.777v0-8.957a.448.448 0 00-.448-.457z"/></g></g></svg>