<svg viewBox="0 0 652 822" xmlns="http://www.w3.org/2000/svg"><path d="m532.751 236.194c-28.477-16.983-61.063-26.634-87.698-46.507-35.901-26.82-56.967-68.992-82.92-105.919-25.953-36.926-63.011-71.95-107.489-71.52-59.285.602-98.562 60.998-126.869 114.233l-90.228 169.765c-15.973 30.021-32.473 63.16-26.593 96.731 7.43 42.759 47.782 70.23 85.58 90.091 150.087 78.836 560.968 234.786 532.937-91.071-5.473-63.638-42.755-123.591-96.72-155.803z" fill="#f6f5f5"/><path d="m103.754 668.843a53.739 53.739 0 0 0 45.224 22.577c21.214-.777 39.949-14.062 60.791-18.085 27.034-5.217 54.365 5.525 81.814 7.591 32.704 2.462 64.941-7.431 96.25-17.219 20.789-6.492 42.686-13.68 56.98-30.126 19.545-22.395 18.28-59.954-2.733-80.976-35.644-35.669-101.584-15.771-141.045-47.16-20.424-16.289-31.079-44.684-55.3-54.47-28.703-11.599-59.659 8.831-83.018 29.171-17.765 15.464-34.974 31.532-52.183 47.6-13.943 13.015-28.421 26.828-34.398 44.978-7.325 22.407 4.643 30.668 13.727 47.68 7.991 15.007 3.112 33.026 13.827 48.431" fill="#e9f5f4"/><g fill="#1c6e85"><path d="m234.001 714.499a14.497 14.497 0 0 0 -17.328-14.225 14.497 14.497 0 0 0 -10.568 19.773 14.497 14.497 0 0 0 13.399 8.95 14.497 14.497 0 0 0 14.497-14.498z"/><path d="m263.002 714.499a14.497 14.497 0 0 0 -17.327-14.225 14.51 14.51 0 0 0 -7.426 3.967 14.506 14.506 0 0 0 -3.144 15.803 14.505 14.505 0 0 0 13.397 8.953 14.503 14.503 0 0 0 14.5-14.498z"/><path d="m292 714.499a14.497 14.497 0 0 0 -17.327-14.225 14.505 14.505 0 0 0 -7.426 3.967 14.506 14.506 0 0 0 -3.145 15.803 14.507 14.507 0 0 0 13.397 8.953 14.503 14.503 0 0 0 14.501-14.498zm-57.999-28.997a14.498 14.498 0 0 0 -17.328-14.226 14.505 14.505 0 0 0 -11.394 11.394 14.496 14.496 0 0 0 6.168 14.886 14.5 14.5 0 0 0 22.554-12.054z"/><path d="m263.002 685.502a14.497 14.497 0 0 0 -8.949-13.399 14.5 14.5 0 1 0 8.949 13.399z"/><path d="m292 685.502a14.497 14.497 0 0 0 -8.949-13.399 14.501 14.501 0 1 0 8.949 13.399zm-57.999-29.001a14.497 14.497 0 0 0 -8.952-13.398 14.504 14.504 0 0 0 -19.771 10.571 14.501 14.501 0 1 0 28.723 2.827z"/><path d="m263.002 656.501a14.502 14.502 0 1 0 -27.897 5.549 14.495 14.495 0 0 0 5.341 6.507 14.5 14.5 0 0 0 22.556-12.056z"/><path d="m292 656.501a14.5 14.5 0 0 0 -28.722-2.829 14.493 14.493 0 0 0 6.165 14.885 14.5 14.5 0 0 0 22.557-12.056z"/></g></svg>