<svg fill="none" xmlns="http://www.w3.org/2000/svg" viewBox="0 0 36 36"><g fill="currentColor"><path d="M18 9.892a17.983 17.983 0 00-15.512 8.959.561.561 0 000 .561 17.907 17.907 0 0031.024 0 .547.547 0 000-.561 17.976 17.976 0 00-15.51-8.959H18zm.003 17.353A16.842 16.842 0 013.63 19.132a16.786 16.786 0 0128.744 0 16.843 16.843 0 01-14.372 8.113z"/><path d="M18 28.767a18.378 18.378 0 01-15.855-9.16.966.966 0 010-.963 18.319 18.319 0 0131.71 0 .967.967 0 010 .963A18.378 18.378 0 0118 28.767zm0-18.476A17.575 17.575 0 002.834 19.05a.16.16 0 000 .165 17.512 17.512 0 0030.335 0 .166.166 0 000-.165 17.575 17.575 0 00-15.166-8.758H18zm.003 17.35A17.294 17.294 0 013.29 19.336l-.124-.204.125-.207a17.182 17.182 0 0129.42 0l.126.207-.127.203a17.29 17.29 0 01-14.708 8.306zm-13.905-8.51a16.384 16.384 0 0027.81 0 16.384 16.384 0 00-27.81 0z"/><path d="M18 13.881a5.263 5.263 0 100 10.525 5.263 5.263 0 000-10.525zm0 9.399a4.137 4.137 0 110-8.274 4.137 4.137 0 010 8.274z"/><path d="M18 24.79a5.657 5.657 0 115.658-5.658A5.667 5.667 0 0118 24.79zm0-10.525a4.866 4.866 0 10.009 0H18zm.009 9.4a4.535 4.535 0 110-9.072 4.535 4.535 0 010 9.071zm0-8.274a3.74 3.74 0 100 7.481 3.74 3.74 0 000-7.481z"/><path d="M18 35.604A17.605 17.605 0 10.396 18 17.625 17.625 0 0018 35.604zm0-34.082A16.478 16.478 0 111.522 18 16.499 16.499 0 0118 1.522z"/><path d="M18 36a18 18 0 1118-18 18.023 18.023 0 01-18 18zM18 .792A17.208 17.208 0 1035.205 18 17.229 17.229 0 0018 .792zm0 34.082a16.878 16.878 0 01-3.295-33.43A16.877 16.877 0 0134.875 18 16.895 16.895 0 0118 34.874zm0-32.956A16.082 16.082 0 1034.082 18 16.103 16.103 0 0018 1.918z"/></svg>