<svg xmlns="http://www.w3.org/2000/svg" viewBox="0 0 62 62"><path fill="#003350" d="M30.953 61.93a30.83 30.83 0 01-21.69-8.86 1.153 1.153 0 011.62-1.64 28.68 28.68 0 0042-2 1.16 1.16 0 111.77 1.5 30.92 30.92 0 01-23.7 11M57.861 45.051a1.131 1.131 0 01-1.084-.77 1.15 1.15 0 01.054-.88 28.76 28.76 0 00-1.19-27.07 1.161 1.161 0 112-1.18 31 31 0 011.31 29.25 1.16 1.16 0 01-1 .65M6.946 14.5a1.19 1.19 0 01-.69-.23 1.15 1.15 0 01-.24-1.61 31 31 0 0145.8-4.64 1.154 1.154 0 11-1.55 1.71 28.67 28.67 0 00-42.39 4.3 1.18 1.18 0 01-.93.47M4.69 46.21a1.15 1.15 0 01-1-.61A31 31 0 010 30.93a30.69 30.69 0 013.21-13.75 1.16 1.16 0 012.07 1 28.37 28.37 0 00-3 12.72 28.7 28.7 0 003.39 13.54 1.14 1.14 0 01-1 1.7"/><path fill="#003350" d="M30.417 43.5a11.65 11.65 0 01-6.27-2.05 9.05 9.05 0 01-3.22-4.29.92.92 0 01.43-1.13l.27-.14a.89.89 0 011.25.52 7.12 7.12 0 002.4 3.32 9.86 9.86 0 005.14 2V30.62a32.704 32.704 0 01-4.66-1.26 7.29 7.29 0 01-3-2.05 5.43 5.43 0 01-1.21-3.72 6.9 6.9 0 011.06-3.72 7.68 7.68 0 013.1-2.76 11 11 0 014.74-1.13v-3.32a.9.9 0 111.8 0v3.32a10 10 0 015.37 1.65 9.32 9.32 0 013 3.65.92.92 0 01-.24 1.11l-.19.15a.91.91 0 01-1.39-.35 7.41 7.41 0 00-2.17-2.88 7.94 7.94 0 00-4.37-1.53v11.37c1.576.302 3.127.723 4.64 1.26a7.22 7.22 0 013 2 5.49 5.49 0 011.22 3.76 6.33 6.33 0 01-2.41 5.14 10.6 10.6 0 01-6.46 2.14v3.32a.9.9 0 11-1.8 0zm0-25.76a8.15 8.15 0 00-5.06 1.67 5 5 0 00-1.84 4 4 4 0 00.92 2.72 5.839 5.839 0 002.35 1.59c1.185.43 2.398.781 3.63 1.05zm6.8 22.52a4.55 4.55 0 001.9-3.87 4.05 4.05 0 00-.92-2.74 5.81 5.81 0 00-2.34-1.63c-1.183-.435-2.4-.77-3.64-1v10.79a8.88 8.88 0 005-1.52z"/><path fill="#003350" d="M31.323 47.988a1.17 1.17 0 01-1.16-1.17v-3.07a11.871 11.871 0 01-6.17-2.09 9.27 9.27 0 01-3.31-4.41 1.18 1.18 0 01.55-1.45l.28-.14a1.1 1.1 0 01.94-.05 1.2 1.2 0 01.69.72 6.86 6.86 0 002.3 3.19 9.59 9.59 0 004.72 1.92v-10.61a33.123 33.123 0 01-4.49-1.22 7.58 7.58 0 01-3.14-2.12 5.73 5.73 0 01-1.28-3.9 7.16 7.16 0 011.11-3.86 8 8 0 013.19-2.86 11.27 11.27 0 014.61-1.14v-3.07a1.17 1.17 0 112.33 0v3.07a10.16 10.16 0 015.26 1.69 9.5 9.5 0 013.07 3.75 1.17 1.17 0 01-.32 1.43l-.18.15a1.171 1.171 0 01-1 .22 1.18 1.18 0 01-.81-.67 7.23 7.23 0 00-2.09-2.78 7.58 7.58 0 00-3.94-1.45v10.86c1.517.3 3.011.708 4.47 1.22a7.61 7.61 0 013.11 2.12 5.78 5.78 0 011.28 3.94 6.61 6.61 0 01-2.5 5.35 10.79 10.79 0 01-6.36 2.18v3.07a1.17 1.17 0 01-1.17 1.17zm-9.3-11.94a.579.579 0 00-.28.07l-.27.14a.66.66 0 00-.3.8 8.75 8.75 0 003.13 4.16 11.33 11.33 0 006.13 2h.25v3.57a.63.63 0 001.26 0v-3.58h.26a10.4 10.4 0 006.3-2.07 6.1 6.1 0 002.31-4.94 5.3 5.3 0 00-1.15-3.59 7.1 7.1 0 00-2.9-2 32.734 32.734 0 00-4.6-1.25h-.22v-11.87h.29a8.26 8.26 0 014.51 1.59 7.85 7.85 0 012.26 3 .63.63 0 00.44.37.59.59 0 00.54-.12l.18-.14a.66.66 0 00.17-.79 9 9 0 00-2.9-3.55 9.9 9.9 0 00-5.23-1.6h-.26v-3.57a.63.63 0 00-1.26 0v3.58h-.26a10.64 10.64 0 00-4.63 1.1 7.41 7.41 0 00-3 2.66 6.71 6.71 0 00-1 3.58 5.23 5.23 0 001.15 3.55 7.11 7.11 0 002.92 2c1.512.528 3.059.945 4.63 1.25h.21v11.64h-.3a10.251 10.251 0 01-5.27-2.07 7.39 7.39 0 01-2.49-3.44.67.67 0 00-.37-.4.618.618 0 00-.23 0zm9.94 6.08v-11.46l.33.06c1.252.232 2.483.566 3.68 1a6.19 6.19 0 012.44 1.7 4.3 4.3 0 011 2.92 4.819 4.819 0 01-2 4.08 9.23 9.23 0 01-5.15 1.58zm.54-.56a8.38 8.38 0 004.57-1.46 4.23 4.23 0 001.79-3.65 3.8 3.8 0 00-.85-2.57 5.64 5.64 0 00-2.24-1.55 22.102 22.102 0 00-3.27-.95zm-1.8-12.39l-.33-.07a27.425 27.425 0 01-3.67-1.06 6.16 6.16 0 01-2.45-1.66 4.26 4.26 0 01-1-2.9 5.28 5.28 0 011.93-4.21 8.45 8.45 0 015.22-1.74h.28zm-.53-11.09a7.75 7.75 0 00-4.63 1.59 4.72 4.72 0 00-1.74 3.81 3.77 3.77 0 00.85 2.55 5.561 5.561 0 002.24 1.51c1.07.405 2.166.74 3.28 1zM9.605 59.98a1.14 1.14 0 01-1.14-1l-.75-7.51a1.16 1.16 0 011-1.26l7.72-1.11a1.17 1.17 0 011.283 1.452 1.15 1.15 0 01-.973.848l-6.63 1 .63 6.41a1.15 1.15 0 01-1 1.26h-.12M43.67 10.85a1.16 1.16 0 01-1.15-1.15 1.14 1.14 0 011.14-1.16l6.7-.05.24-6.44a1.16 1.16 0 012.31.08l-.28 7.55a1.16 1.16 0 01-1.15 1.11l-7.8.06zM14.507 21h-5.64a.87.87 0 010-1.73h5.64a.87.87 0 010 1.73"/><path fill="#003350" d="M11.695 23.823a.87.87 0 01-.87-.86v-5.64a.87.87 0 111.73 0v5.61a.86.86 0 01-.86.86M52.49 43.59a1.47 1.47 0 11-2.94.02 1.47 1.47 0 012.94-.02"/></svg>