<svg xmlns="http://www.w3.org/2000/svg" viewBox="0 0 67 67"><path fill="#003350" d="M48.646 65.737a3.624 3.624 0 01-1-.13 4 4 0 01-2.44-1.82l-10.53-17.73a20.53 20.53 0 119.81-5.42l10.35 17.43a4 4 0 01.44 3 4 4 0 01-1.82 2.44l-2.8 1.66a4 4 0 01-2 .56zm-13.38-22.17h-.01zm.564.148c.175.098.322.24.426.412l11 18.47a1.619 1.619 0 002.26.58l2.8-1.66a1.659 1.659 0 00.58-2.28l-10.83-18.22a1.16 1.16 0 01.22-1.45 18.22 18.22 0 10-7.33 4 1.15 1.15 0 01.31 0c.198 0 .392.052.564.148z"/><path fill="#003350" d="M30.657 35.12a15.77 15.77 0 01-13.62-7.86 1.15 1.15 0 010-1.16 15.73 15.73 0 0127.24 0 1.15 1.15 0 010 1.16 15.79 15.79 0 01-13.62 7.86zm-11.27-8.44a13.42 13.42 0 0022.54 0 13.41 13.41 0 00-17.688-4.507z"/><path fill="#003350" d="M30.66 31.74a5.11 5.11 0 115.1-5.1 5.1 5.1 0 01-5.1 5.1zm0-7.9a2.8 2.8 0 102.79 2.8 2.81 2.81 0 00-.82-1.973z"/><path fill="#003350" d="M48.651 65.736a3.621 3.621 0 01-1-.13 3.91 3.91 0 01-2.44-1.82l-10.53-17.73a20.4 20.4 0 01-10.7-.32 1.15 1.15 0 01-.546-1.835 1.151 1.151 0 011.226-.365 18.22 18.22 0 0010.27.14 1.15 1.15 0 011.3.52l11 18.48a1.62 1.62 0 001 .76c.428.108.88.043 1.26-.18l2.8-1.67a1.662 1.662 0 00.58-2.28l-10.83-18.22a1.16 1.16 0 01.22-1.45 18.29 18.29 0 001.4-25.63 1.15 1.15 0 111.72-1.53c.866.98 1.64 2.038 2.31 3.16a20.59 20.59 0 01-3.19 25.06l10.35 17.43a4 4 0 01-1.38 5.45l-2.8 1.66a4 4 0 01-2 .56M21.09 44.446a1.25 1.25 0 01-.53-.13 20.31 20.31 0 01-5.61-4.3 1.15 1.15 0 111.69-1.56 18.34 18.34 0 005 3.81 1.16 1.16 0 01-.53 2.18M13.386 37.163a1.12 1.12 0 01-1-.57 20.51 20.51 0 017.16-28.13 19.747 19.747 0 012.84-1.41 1.153 1.153 0 11.86 2.14 18.25 18.25 0 00-8.88 26.25 1.15 1.15 0 01-1 1.74M39.644 10.432a1.18 1.18 0 01-.57-.15 18.26 18.26 0 00-11.84-2.18 1.17 1.17 0 01-1.32-1 1.14 1.14 0 011-1.31 20.63 20.63 0 0113.34 2.45 1.16 1.16 0 01-.57 2.16"/><path fill="#003350" d="M23.027 66.656c-.122 0-.244-.021-.36-.06a1.139 1.139 0 01-.67-.57L.127 23.496a1.15 1.15 0 01.5-1.55l3.62-1.86a1.15 1.15 0 111.06 2l-2.6 1.33 20.81 40.48 14-7.2a1.148 1.148 0 011.859.846 1.15 1.15 0 01-.799 1.154l-15 7.73a1.178 1.178 0 01-.52.13M54.27 50.589a1.17 1.17 0 01-1-.62 1.16 1.16 0 01.5-1.56l10.21-5.27-20.81-40.48-3.65 1.87a1.15 1.15 0 11-1-2l4.67-2.4a1.12 1.12 0 01.88-.07 1.14 1.14 0 01.67.57l21.87 42.53a1.15 1.15 0 01-.5 1.55l-11.29 5.8a1.08 1.08 0 01-.52.13"/></svg>