<svg fill="none" xmlns="http://www.w3.org/2000/svg" viewBox="0 0 37 37"><path d="M18.508 36A17.5 17.5 0 101 18.5 17.519 17.519 0 0018.497 36h.011zm-.01-33.89A16.382 16.382 0 112.114 18.49 16.398 16.398 0 0118.497 2.11z" fill="currentColor"/><path d="M18.508 36A17.5 17.5 0 101 18.5 17.519 17.519 0 0018.508 36v0zm0-33.89A16.382 16.382 0 112.126 18.49 16.398 16.398 0 0118.508 2.12v-.01z" stroke="currentColor" stroke-width=".5" stroke-miterlimit="10"/><path d="M19.03 9.102l2.549 4.982a.57.57 0 00.181.207.598.598 0 00.261.101l5.703.801c.107.016.209.06.292.128a.545.545 0 01.03.834L23.92 20.03a.558.558 0 00-.169.5l.973 5.476a.545.545 0 01-.035.307.568.568 0 01-.197.244.598.598 0 01-.615.043l-5.091-2.584a.593.593 0 00-.537 0L13.16 26.6a.602.602 0 01-.617-.041.567.567 0 01-.198-.245.545.545 0 01-.034-.308l.94-5.474a.542.542 0 00-.169-.5l-4.127-3.876a.545.545 0 01.031-.835.594.594 0 01.294-.126l5.702-.801a.602.602 0 00.26-.102.574.574 0 00.182-.206l2.549-4.983a.57.57 0 01.215-.237.6.6 0 01.627-.002.57.57 0 01.216.237v0z" stroke="currentColor" stroke-width="2" stroke-miterlimit="10"/></svg>