<svg xmlns="http://www.w3.org/2000/svg" viewBox="0 0 67 65"><path fill="#003350" d="M14.49 40.315a1.16 1.16 0 01-1.15-1.16V4.865a1.16 1.16 0 011.15-1.16h32.89a1.16 1.16 0 110 2.31H15.65v33.14a1.16 1.16 0 01-1.16 1.16M56.72 64.732H14.49a1.16 1.16 0 01-1.15-1.16v-5.6a1.16 1.16 0 012.31 0v4.45h40v-43.93a1.16 1.16 0 012.31 0v45.06a1.16 1.16 0 01-1.16 1.16"/><path fill="#003350" d="M37.887 34.04a1.1 1.1 0 01-.7-.24 1.15 1.15 0 01-.21-1.61l16.17-21a1.16 1.16 0 111.83 1.41l-16.17 21a1.149 1.149 0 01-.92.45M14.078 46.405a1.16 1.16 0 01-.39-2.24l13.18-4.76a1.16 1.16 0 11.78 2.18l-13.18 4.75a1.07 1.07 0 01-.39.07z"/><path fill="#003350" d="M7.518 55.88a7.49 7.49 0 11-.056-14.98 7.49 7.49 0 01.056 14.98zm0-12.54a7 7 0 00-.79.06 5.13 5.13 0 00-4.28 5.84 5.11 5.11 0 107.82-5.083zM33.518 44.796a7.42 7.42 0 01-1.12-14.75 7.42 7.42 0 112.25 14.67 7.17 7.17 0 01-1.13.08zm0-12.53c-.264 0-.528.02-.79.06a5 5 0 00-3.34 2 5.11 5.11 0 107.14-1.1 5 5 0 00-3-1zM58.608 14.98A7.49 7.49 0 1158.552 0a7.49 7.49 0 01.056 14.98zm0-12.54a5.11 5.11 0 104.958 6.334c.16-.653.188-1.33.082-1.994a5.11 5.11 0 00-5-4.34zM21.44 58.495a1.11 1.11 0 01-1.11-1.11v-5.33a1.11 1.11 0 012.21 0v5.33a1.11 1.11 0 01-1.1 1.11zM28.53 58.49a1.11 1.11 0 01-1.11-1.11v-7.84a1.11 1.11 0 112.22 0v7.84a1.11 1.11 0 01-1.11 1.11zM35.615 58.485a1.11 1.11 0 01-1.1-1.11v-9.55a1.11 1.11 0 112.21 0v9.55a1.11 1.11 0 01-1.11 1.11M42.715 58.485a1.112 1.112 0 01-1.11-1.11v-15.67a1.11 1.11 0 112.21 0v15.68a1.11 1.11 0 01-1.1 1.1M49.81 58.49a1.11 1.11 0 01-1.09-1.1V26.03a1.11 1.11 0 012.22 0v31.36a1.11 1.11 0 01-1.11 1.11"/></svg>