<svg xmlns="http://www.w3.org/2000/svg" viewBox="0 0 67 64"><path fill="#003350" d="M26.186 52.34a26.34 26.34 0 01-24.43-16.78 1.15 1.15 0 112.15-.82 24 24 0 0022.31 15.34 23.69 23.69 0 0013.85-4.43 1.157 1.157 0 011.61.27 1.155 1.155 0 01-.27 1.61 26 26 0 01-15.22 4.81M1.16 27.344A1.15 1.15 0 010 26.194a26.19 26.19 0 0148.55-13.64 1.165 1.165 0 11-2 1.2 23.88 23.88 0 00-44.27 12.44 1.15 1.15 0 01-1.12 1.15z"/><path fill="#003350" d="M30.17 36.349a1.14 1.14 0 01-1-.64l-9-18.07-8.94 18.07a1.15 1.15 0 01-2.07-1l10-20.16a1.15 1.15 0 012.06 0l10 20.16a1.142 1.142 0 01-.52 1.54c-.16.078-.334.119-.51.12M36.86 36.342a1.15 1.15 0 01-1.15-1.15v-13.5a1.16 1.16 0 012.31 0v13.5a1.15 1.15 0 01-1.16 1.15M38.31 15.28a1.31 1.31 0 11-1.3-1.31 1.3 1.3 0 011.3 1.31zM41.758 63.535a1.16 1.16 0 01-1.11-1.49l6.14-20.13-9.91 1.12a1.15 1.15 0 01-1-1.94l23.88-24.68a1.15 1.15 0 011.94 1.1l-5.33 19.83 9.25-.35a1.13 1.13 0 011.1.69 1.17 1.17 0 01-.23 1.28l-23.88 24.26a1.13 1.13 0 01-.82.34zm6.67-24.09a1.16 1.16 0 011.11 1.49l-5.28 17.32 18.55-18.91-7.91.29a1.14 1.14 0 01-.95-.43 1.168 1.168 0 01-.21-1l4.56-17-18.47 19.14 8.47-1h.13z"/></svg>