<svg xmlns="http://www.w3.org/2000/svg" viewBox="0 0 34 38"><g fill="currentColor"><path d="M22.177 33.974c-.187 0-.373-.023-.554-.07a2.21 2.21 0 01-1.365-1.012l-5.901-9.93a11.504 11.504 0 115.494-3.033l5.814 9.766a2.221 2.221 0 01-.779 3.048l-1.567.933a2.212 2.212 0 01-1.132.314zm-7.502-12.4a.645.645 0 01.556.316l6.15 10.35a.932.932 0 001.278.324l1.568-.93a.935.935 0 00.326-1.279l-6.066-10.209a.647.647 0 01.123-.81 10.213 10.213 0 10-4.11 2.261z"/><path d="M22.18 34.23a2.43 2.43 0 01-.617-.078 2.455 2.455 0 01-1.517-1.135l-5.813-9.776a11.753 11.753 0 115.937-3.286l5.702 9.604a2.48 2.48 0 01-.867 3.397l-1.567.933a2.482 2.482 0 01-1.264.349zm-7.702-11.555l5.995 10.092a1.95 1.95 0 001.208.902c.508.13 1.046.052 1.497-.215l1.567-.93a1.974 1.974 0 00.69-2.704l-5.902-9.936.139-.139a11.253 11.253 0 10-5.37 2.968zm7.694 10.269a1.172 1.172 0 01-1.011-.579l-6.15-10.35a.397.397 0 00-.442-.177 10.46 10.46 0 114.208-2.318.397.397 0 00-.076.493l6.066 10.209a1.188 1.188 0 01-.414 1.625l-1.567.93a1.17 1.17 0 01-.604.167zm-7.5-11.627a.906.906 0 01.774.44l6.15 10.35a.677.677 0 00.677.324.666.666 0 00.245-.089l1.57-.93a.68.68 0 00.237-.933l-6.066-10.208a.905.905 0 01.172-1.127 9.958 9.958 0 10-4.006 2.206.848.848 0 01.24-.033z"/><path d="M6.73 22.03a.632.632 0 01-.295-.073 11.374 11.374 0 01-3.144-2.404.646.646 0 11.95-.875 10.13 10.13 0 002.78 2.134.644.644 0 01-.3 1.218M2.418 17.945a.649.649 0 01-.556-.316A11.51 11.51 0 017.47 1.074a.647.647 0 01.483 1.2 10.209 10.209 0 00-4.98 14.693.647.647 0 01-.555.978M17.13 2.968a.667.667 0 01-.322-.084 10.264 10.264 0 00-6.634-1.223.647.647 0 11-.2-1.276 11.57 11.57 0 017.474 1.375.647.647 0 01-.319 1.208zM17.857 9.346H6.958a.758.758 0 110-1.516h10.899a.758.758 0 110 1.516M16.447 13.766H5.548a.758.758 0 010-1.516h10.899a.758.758 0 110 1.516z"/><path d="M6.619 17.01a.758.758 0 01-.723-.99l3.48-10.9a.758.758 0 011.444.463L7.34 16.482a.758.758 0 01-.721.528M13.3 17.007a.758.758 0 01-.723-.99l3.48-10.9a.759.759 0 011.446.463l-3.483 10.9a.758.758 0 01-.72.528"/><path d="M17.094 37.898A16.934 16.934 0 01.16 20.964a.885.885 0 011.77 0A15.165 15.165 0 1023.596 7.27a.884.884 0 01.758-1.597 16.934 16.934 0 01-7.274 32.218"/><g><path d="M22.177 33.974c-.187 0-.373-.023-.554-.07a2.21 2.21 0 01-1.365-1.012l-5.901-9.93a11.504 11.504 0 115.494-3.033l5.814 9.766a2.221 2.221 0 01-.779 3.048l-1.567.933a2.212 2.212 0 01-1.132.314zm-7.502-12.4a.645.645 0 01.556.316l6.15 10.35a.932.932 0 001.278.324l1.568-.93a.935.935 0 00.326-1.279l-6.066-10.209a.647.647 0 01.123-.81 10.213 10.213 0 10-4.11 2.261z"/><path d="M22.18 34.23a2.43 2.43 0 01-.617-.078 2.455 2.455 0 01-1.517-1.135l-5.813-9.776a11.753 11.753 0 115.937-3.286l5.702 9.604a2.48 2.48 0 01-.867 3.397l-1.567.933a2.482 2.482 0 01-1.264.349zm-7.702-11.555l5.995 10.092a1.95 1.95 0 001.208.902c.508.13 1.046.052 1.497-.215l1.567-.93a1.974 1.974 0 00.69-2.704l-5.902-9.936.139-.139a11.253 11.253 0 10-5.37 2.968zm7.694 10.269a1.172 1.172 0 01-1.011-.579l-6.15-10.35a.397.397 0 00-.442-.177 10.46 10.46 0 114.208-2.318.397.397 0 00-.076.493l6.066 10.209a1.188 1.188 0 01-.414 1.625l-1.567.93a1.17 1.17 0 01-.604.167zm-7.5-11.627a.906.906 0 01.774.44l6.15 10.35a.677.677 0 00.677.324.666.666 0 00.245-.089l1.57-.93a.68.68 0 00.237-.933l-6.066-10.208a.905.905 0 01.172-1.127 9.958 9.958 0 10-4.006 2.206.848.848 0 01.24-.033z"/><path d="M6.73 22.03a.632.632 0 01-.295-.073 11.374 11.374 0 01-3.144-2.404.646.646 0 11.95-.875 10.13 10.13 0 002.78 2.134.644.644 0 01-.3 1.218M2.418 17.945a.649.649 0 01-.556-.316A11.51 11.51 0 017.47 1.074a.647.647 0 01.483 1.2 10.209 10.209 0 00-4.98 14.693.647.647 0 01-.555.978M17.13 2.968a.667.667 0 01-.322-.084 10.264 10.264 0 00-6.634-1.223.647.647 0 11-.2-1.276 11.57 11.57 0 017.474 1.375.647.647 0 01-.319 1.208zM17.857 9.346H6.958a.758.758 0 110-1.516h10.899a.758.758 0 110 1.516M16.447 13.766H5.548a.758.758 0 010-1.516h10.899a.758.758 0 110 1.516z"/><path d="M6.619 17.01a.758.758 0 01-.723-.99l3.48-10.9a.758.758 0 011.444.463L7.34 16.482a.758.758 0 01-.721.528M13.3 17.007a.758.758 0 01-.723-.99l3.48-10.9a.759.759 0 011.446.463l-3.483 10.9a.758.758 0 01-.72.528"/><path d="M17.094 37.898A16.934 16.934 0 01.16 20.964a.885.885 0 011.77 0A15.165 15.165 0 1023.596 7.27a.884.884 0 01.758-1.597 16.934 16.934 0 01-7.274 32.218"/></g></g></svg>