<svg fill="none" xmlns="http://www.w3.org/2000/svg" viewBox="0 0 34 35"><path d="M23.66 14.425a7.988 7.988 0 00-1.694-2.984A7.582 7.582 0 0019.21 9.5a7.309 7.309 0 00-6.476.464 7.707 7.707 0 00-2.476 2.316 8.094 8.094 0 00-1.287 3.197 8.236 8.236 0 00.148 3.464 8.027 8.027 0 001.554 3.065" stroke="currentColor" stroke-width="2" stroke-miterlimit="10"/><path d="M16.997 34.358a15.54 15.54 0 008.89-2.81c2.632-1.832 4.683-4.437 5.895-7.485a17.337 17.337 0 00.91-9.637c-.617-3.236-2.14-6.208-4.378-8.54-2.238-2.333-5.09-3.922-8.193-4.565a15.396 15.396 0 00-9.245.95c-2.924 1.262-5.423 3.4-7.18 6.143A17.187 17.187 0 001 17.682c.005 4.421 1.692 8.66 4.69 11.786 3 3.127 7.066 4.885 11.307 4.89zm0-32.29c2.963 0 5.859.915 8.323 2.63 2.463 1.716 4.383 4.154 5.517 7.007a16.23 16.23 0 01.854 9.021c-.578 3.03-2.004 5.811-4.099 7.995s-4.764 3.671-7.669 4.274a14.412 14.412 0 01-8.654-.888c-2.737-1.182-5.077-3.183-6.723-5.75a16.089 16.089 0 01-2.524-8.675c.004-4.14 1.583-8.108 4.39-11.035C9.22 3.72 13.027 2.073 16.997 2.068z" fill="currentColor" stroke="currentColor" stroke-width=".5"/><path d="M11.42 27.346l5.127-6.276c.325-.4.787-.651 1.288-.7.5-.05 1 .107 1.391.437l1.204 1.02c.2.17.43.296.677.371a1.848 1.848 0 001.489-.182 1.95 1.95 0 00.576-.524l4.025-5.458" stroke="currentColor" stroke-width="2" stroke-miterlimit="10"/><path d="M17.362 16.843a1.4 1.4 0 01-.219.756 1.316 1.316 0 01-.584.501c-.238.103-.5.13-.754.078a1.287 1.287 0 01-.667-.372 1.377 1.377 0 01-.357-.696 1.413 1.413 0 01.075-.785c.099-.248.266-.46.48-.61a1.265 1.265 0 011.645.17c.244.254.38.599.38.958zM26.076 15.013l2.244 1.825a.152.152 0 00.155.028.154.154 0 00.066-.05.164.164 0 00.032-.078v-2.265a.155.155 0 00-.062-.11.144.144 0 00-.12-.022l-2.244.44a.121.121 0 00-.07.027.133.133 0 00.002.205" fill="currentColor"/><path d="M26.076 15.013l2.244 1.825a.152.152 0 00.155.028.154.154 0 00.066-.05.164.164 0 00.032-.078v-2.265a.155.155 0 00-.062-.11.144.144 0 00-.12-.022l-2.244.44a.12.12 0 00-.07.026.134.134 0 00-.043.142.13.13 0 00.042.064z" stroke="currentColor" stroke-width="2" stroke-miterlimit="10"/></svg>