<svg xmlns="http://www.w3.org/2000/svg" viewBox="0 0 236 278"><defs><clipPath id="a"><path fill="#fff" d="M248.127 187.279a42.686 42.686 0 00-13.318-37.86c-12.524-11.276-30.54-14.047-44.644-23.266-18.255-11.958-27.946-33.183-42.454-49.524-17.286-19.47-41.128-31.635-64.383-43.347-15.437-7.781-31.89-15.777-49.12-14.293-23.51 1.978-43.526 24.1-43.153 47.699.627 40.035 49.208 65.111 54.375 104.813 2.65 20.574-6.953 42.656 1.452 61.618 9.96 22.471 38.89 27.918 63.439 29.22 18.667.993 37.351 1.334 56.034 1.676 15.135.278 31.017.397 44.446-6.654 16.548-8.735 14.285-20.058 18.5-34.779 3.73-12.975 16.461-20.558 18.857-35.264"/></clipPath></defs><path fill="#b5dcd9" d="M5.904 120.954A2.952 2.952 0 100 120.95a2.952 2.952 0 005.904.004M19.314 120.954a2.952 2.952 0 10-5.904-.004 2.952 2.952 0 005.904.004M32.714 120.954a2.952 2.952 0 10-5.904-.004 2.952 2.952 0 005.904.004zM46.124 120.954a2.952 2.952 0 10-5.904-.004 2.952 2.952 0 005.904.004M5.904 134.362a2.952 2.952 0 10-5.904 0 2.952 2.952 0 005.904 0M19.314 134.362a2.952 2.952 0 10-5.904 0 2.952 2.952 0 005.904 0M32.714 134.362a2.952 2.952 0 10-5.904 0 2.952 2.952 0 005.904 0M46.124 134.362a2.952 2.952 0 10-5.904 0 2.952 2.952 0 005.904 0M5.904 147.75a2.952 2.952 0 10-5.904.023 2.952 2.952 0 005.904-.022zM19.314 147.75a2.952 2.952 0 100 .012M32.714 147.75a2.952 2.952 0 100 .012M46.123 147.75a2.952 2.952 0 100 .012M5.904 161.174A2.952 2.952 0 100 161.17a2.952 2.952 0 005.904.004zM19.314 161.174a2.952 2.952 0 10-5.904-.004 2.952 2.952 0 005.904.004zM46.124 161.174a2.952 2.952 0 10-5.904-.004 2.952 2.952 0 005.904.004"/><g><path fill="#356d82" d="M231.69 217.366a42.686 42.686 0 00-3.212-40.005c-9.23-14.1-25.942-21.378-37.226-33.892-14.597-16.222-18.549-39.217-28.405-58.72-11.743-23.238-31.69-41.087-51.184-58.347C98.723 14.938 84.857 3.007 67.819.043c-23.236-4.089-48.236 12.19-53.9 35.103-9.613 38.869 30.957 75.515 25.817 115.221-2.69 20.569-17.611 39.468-14.325 59.947 3.893 24.27 30.474 36.92 53.878 44.447 17.795 5.725 35.773 10.824 53.75 15.924 14.562 4.133 29.887 8.302 44.671 4.913 18.23-4.222 18.932-15.747 26.766-28.904 6.918-11.593 21.163-15.675 27.234-29.282"/><path fill="none" stroke="#356d82" stroke-miterlimit="20" stroke-width="2" d="M248.127 187.279a42.686 42.686 0 00-13.318-37.86c-12.524-11.276-30.54-14.047-44.644-23.266-18.255-11.958-27.946-33.183-42.454-49.524-17.286-19.47-41.128-31.635-64.383-43.347-15.437-7.781-31.89-15.777-49.12-14.293-23.51 1.978-43.526 24.1-43.153 47.699.627 40.035 49.208 65.111 54.375 104.813 2.65 20.574-6.953 42.656 1.452 61.618 9.96 22.471 38.89 27.918 63.439 29.22 18.667.993 37.351 1.334 56.034 1.676 15.135.278 31.017.397 44.446-6.654 16.548-8.735 14.285-20.058 18.5-34.779 3.73-12.975 16.461-20.558 18.857-35.264" clip-path="url(&quot;#a&quot;)" transform="rotate(14.79 124 139)"/></g></svg>