<svg viewBox="0 0 217 183" xmlns="http://www.w3.org/2000/svg"><path d="m206.386 177.693a5.307 5.307 0 1 0 10.614 0 5.307 5.307 0 0 0 -10.614 0m-31.18 0a5.307 5.307 0 1 0 10.614 0 5.307 5.307 0 0 0 -10.614 0zm-31.18 0a5.307 5.307 0 1 0 10.614 0 5.307 5.307 0 0 0 -10.614 0m-31.18 0a5.307 5.307 0 1 0 10.614 0 5.307 5.307 0 0 0 -10.614 0zm-31.18 0a5.307 5.307 0 1 0 10.614 0 5.307 5.307 0 0 0 -10.614 0zm-31.18 0a5.307 5.307 0 1 0 10.614 0 5.307 5.307 0 0 0 -10.614 0m155.9-31.21a5.307 5.307 0 1 0 10.614 0 5.307 5.307 0 0 0 -10.614 0m-31.18 0a5.307 5.307 0 1 0 10.614 0 5.307 5.307 0 0 0 -10.614 0m-31.18 0a5.307 5.307 0 1 0 10.614 0 5.307 5.307 0 0 0 -10.614 0m-31.18 0a5.307 5.307 0 1 0 10.614 0 5.307 5.307 0 0 0 -10.614 0m-31.18 0a5.307 5.307 0 1 0 10.614 0 5.307 5.307 0 0 0 -10.614 0m-31.18 0a5.307 5.307 0 1 0 10.614 0 5.307 5.307 0 0 0 -10.614 0m155.9-31.15a5.307 5.307 0 1 0 10.614 0 5.307 5.307 0 0 0 -10.614 0m-31.18 0a5.307 5.307 0 1 0 10.614 0 5.307 5.307 0 0 0 -10.614 0zm-31.18 0a5.307 5.307 0 1 0 10.614 0 5.307 5.307 0 0 0 -10.614 0m-31.18 0a5.307 5.307 0 1 0 10.614 0 5.307 5.307 0 0 0 -10.614 0zm-31.18 0a5.307 5.307 0 1 0 10.614 0 5.307 5.307 0 0 0 -10.614 0zm-31.18 0a5.307 5.307 0 1 0 10.614 0 5.307 5.307 0 0 0 -10.614 0m155.9-31.19a5.307 5.307 0 1 0 10.614 0 5.307 5.307 0 0 0 -10.614 0m-31.18 0a5.307 5.307 0 1 0 10.614 0 5.307 5.307 0 0 0 -10.614 0m-31.18 0a5.307 5.307 0 1 0 10.614 0 5.307 5.307 0 0 0 -10.614 0m-31.18 0a5.307 5.307 0 1 0 10.614 0 5.307 5.307 0 0 0 -10.614 0m-31.18 0a5.307 5.307 0 1 0 10.614 0 5.307 5.307 0 0 0 -10.614 0m-31.18 0a5.307 5.307 0 1 0 10.614 0 5.307 5.307 0 0 0 -10.614 0" fill="#f6f5f5"/><g fill="#1c6e85"><path d="m88.976 22.263a22.107 22.107 0 1 0 13.64-20.425 22.1 22.1 0 0 0 -13.64 20.425"/><path d="m44.755 22.263a22.107 22.107 0 1 0 44.214 0 22.107 22.107 0 0 0 -44.214 0"/><path d="m88.976 66.475a22.108 22.108 0 1 0 22.099-22.1 22.1 22.1 0 0 0 -22.1 22.1"/><path d="m44.755 66.475a22.107 22.107 0 1 0 44.214.016 22.107 22.107 0 0 0 -44.214-.016"/><path d="m88.976 110.693a22.107 22.107 0 1 0 13.64-20.425 22.1 22.1 0 0 0 -13.64 20.425"/><path d="m44.755 110.693a22.107 22.107 0 1 0 44.214 0 22.107 22.107 0 0 0 -44.214 0"/><path d="m.546 22.263a22.107 22.107 0 1 0 13.64-20.425 22.1 22.1 0 0 0 -13.64 20.425"/><path d="m.546 66.475a22.108 22.108 0 1 0 22.099-22.1 22.1 22.1 0 0 0 -22.1 22.1"/><path d="m.546 110.693a22.107 22.107 0 1 0 13.64-20.425 22.1 22.1 0 0 0 -13.64 20.425"/></g></svg>