<svg xmlns="http://www.w3.org/2000/svg" viewBox="0 0 269 362"><path fill="#ecf6f5" d="M159.124.808a53.742 53.742 0 0138.657 32.567c7.696 19.784 2.927 42.25 7.497 62.98 5.928 26.887 26.625 47.72 39.404 72.1 15.226 29.048 18.923 62.566 22.35 95.19 2.283 21.658 4.365 44.61-5.067 64.254-12.812 26.822-47.794 40.55-75.424 29.593-46.878-18.582-54.752-87.007-99.213-110.79-23.051-12.293-53.344-10.818-71.93-29.174-22.028-21.753-15.544-58.271-6.132-87.78 7.154-22.44 15.082-44.61 23.01-66.778 6.422-17.96 13.363-36.728 27.657-49.41 17.666-15.608 29.995-7.896 49.214-6.301 16.946 1.386 31.555-10.236 49.945-6.506"/></svg>