<svg viewBox="0 0 825 829" xmlns="http://www.w3.org/2000/svg"><path d="m270.975 188.983c0-55.139-44.32-99.841-98.985-99.841-54.666 0-98.99 44.702-98.99 99.84 0 55.14 44.319 99.847 98.99 99.847 54.67 0 98.985-44.702 98.985-99.846z" fill="#abded9"/><g fill="#f6f5f5"><path d="m316.29.38h4.558v211.115h-4.558zm-9.115 0h4.557v211.115h-4.558zm-9.116 0h4.558v211.115h-4.558zm-9.116 0h4.558v211.115h-4.558zm-9.122 0h4.558v211.115h-4.558zm-9.115 0h4.558v211.115h-4.558zm-9.116 0h4.558v211.115h-4.558zm-9.121 0h4.557v211.115h-4.557zm-9.116 0h4.558v211.115h-4.558zm-9.122 0h4.558v211.115h-4.558zm-9.115 0h4.557v211.115h-4.557zm-9.116 0h4.558v211.115h-4.558z"/><path d="m.11 546.683c-1.823-43.456 19.26-87.295 54.09-112.565 42.102-30.492 97.761-32.682 143.913-56.244 59.831-30.569 96.782-92.878 146.723-138.364 59.495-54.192 136.259-83.466 211.032-111.485 49.666-18.639 102.493-37.56 154.248-26.978 70.648 14.442 123.406 90.053 113.761 163.028-16.359 123.769-172.964 184.194-202.857 305.366-15.486 62.792 5.68 134.573-26.67 190.343-38.321 66.061-128.16 72.692-203.079 68.044-56.991-3.538-113.837-9.089-170.668-14.633-46.037-4.495-94.263-9.771-132.385-36.358-47.063-32.828-36.055-67.156-43.58-114.258-6.636-41.503-42.554-69.507-44.506-115.888"/></g></svg>