<svg viewBox="0 0 372 555" xmlns="http://www.w3.org/2000/svg"><path d="m168.103 108.701c0-31.779-25.543-57.543-57.05-57.543s-57.053 25.764-57.053 57.542c0 31.78 25.543 57.547 57.053 57.547s57.05-25.764 57.05-57.547z" fill="#abded9"/><g fill="#f6f5f5"><path d="m169.802 0h2.627v121.676h-2.627zm-5.253 0h2.627v121.676h-2.627zm-5.254 0h2.627v121.676h-2.627zm-5.254 0h2.627v121.676h-2.627zm-5.257 0h2.627v121.676h-2.627zm-5.254 0h2.627v121.676h-2.627zm-5.254 0h2.627v121.676h-2.627zm-5.257 0h2.627v121.676h-2.627zm-5.254 0h2.627v121.676h-2.627zm-5.257 0h2.627v121.676h-2.627zm-5.254 0h2.627v121.676h-2.627zm-5.254 0h2.627v121.676h-2.627z"/><path d="m-25.114 442.54c-10.884-21.965-10.06-49.37 2.096-70.356 14.706-25.342 42.871-39.209 61.25-61.908 23.82-29.44 28.59-69.99 43.902-104.848 18.24-41.528 51.077-74.177 83.176-105.723 21.315-20.966 44.193-42.804 73.272-49.199 39.693-8.732 84.173 18.134 95.908 57.928 19.903 67.49-46.928 134.457-34.59 203.71 6.395 35.884 33.727 68.01 29.83 104.138-4.619 42.797-49.372 66.775-89.024 81.53-30.164 11.222-60.713 21.373-91.252 31.526-24.741 8.222-50.789 16.543-76.508 11.575-31.754-6.135-33.942-26.335-48.598-48.872-12.917-19.858-37.827-26.06-49.449-49.502"/></g></svg>