<svg xmlns="http://www.w3.org/2000/svg" viewBox="0 0 36 37"><path fill="currentColor" d="M35.77 18.274c0 10.07-7.99 18.235-17.845 18.235C8.071 36.508.08 28.342.08 18.273.08 8.205 8.071.04 17.925.04S35.77 8.205 35.77 18.274zm-7.654-6.184a8.035 8.035 0 01-2.352.659 4.187 4.187 0 001.801-2.315 8.11 8.11 0 01-2.6 1.016 4.05 4.05 0 00-2.99-1.323c-2.262 0-4.097 1.875-4.097 4.185 0 .329.036.648.107.955-3.405-.175-6.423-1.841-8.443-4.373a4.243 4.243 0 00-.555 2.103c0 1.452.723 2.734 1.823 3.484a4.002 4.002 0 01-1.855-.523v.053c0 2.027 1.41 3.72 3.285 4.103a4.014 4.014 0 01-1.85.071c.522 1.663 2.034 2.873 3.827 2.907a8.108 8.108 0 01-6.065 1.734 11.414 11.414 0 006.279 1.88c7.534 0 11.654-6.378 11.654-11.908 0-.181-.004-.361-.012-.54a8.428 8.428 0 002.043-2.168z"/></svg>