<svg xmlns="http://www.w3.org/2000/svg" viewBox="0 0 37 37"><path fill="currentColor" d="M22.367 18.28a3.49 3.49 0 11-3.489-3.49 3.49 3.49 0 013.489 3.49z"/><path fill="currentColor" d="M27.398 14.043c.05 1.104.06 1.435.06 4.231s-.01 3.127-.06 4.231c-.047 1.02-.217 1.575-.36 1.944a3.466 3.466 0 01-1.986 1.987c-.37.144-.923.314-1.944.36-1.103.051-1.434.062-4.229.062-2.794 0-3.125-.01-4.228-.061-1.02-.047-1.575-.217-1.944-.36a3.239 3.239 0 01-1.203-.784 3.246 3.246 0 01-.783-1.204c-.143-.369-.313-.923-.36-1.944-.05-1.104-.061-1.435-.061-4.231s.01-3.127.061-4.231c.047-1.02.217-1.575.36-1.944.168-.455.436-.866.783-1.204a3.238 3.238 0 011.204-.783c.368-.144.922-.314 1.943-.361 1.103-.05 1.434-.061 4.229-.061 2.794 0 3.125.01 4.228.061 1.02.047 1.575.217 1.943.36a3.24 3.24 0 011.204.784c.347.338.615.749.783 1.204.143.369.313.923.36 1.944zm-3.145 4.23a5.375 5.375 0 10-10.747 0 5.375 5.375 0 1010.747 0zm1.469-5.588a1.256 1.256 0 10-2.513 0 1.256 1.256 0 002.513 0z"/><path fill="currentColor" d="M37.11 18.274c0 10.07-8.161 18.235-18.225 18.235C8.82 36.508.66 28.342.66 18.273.66 8.205 8.821.04 18.885.04 28.949.04 37.11 8.205 37.11 18.274zm-7.76 0c0-2.843-.012-3.2-.063-4.317-.05-1.114-.228-1.875-.487-2.541a5.13 5.13 0 00-1.207-1.855 5.13 5.13 0 00-1.853-1.208c-.666-.258-1.427-.435-2.54-.486-1.117-.051-1.473-.063-4.315-.063-2.842 0-3.199.012-4.315.063-1.114.05-1.874.228-2.54.487a5.126 5.126 0 00-1.854 1.207 5.13 5.13 0 00-1.207 1.855c-.259.666-.435 1.427-.486 2.541-.051 1.117-.063 1.474-.063 4.317 0 2.844.012 3.2.063 4.317.05 1.115.228 1.876.487 2.542a5.132 5.132 0 001.206 1.854 5.127 5.127 0 001.854 1.208c.666.259 1.427.436 2.54.486 1.117.051 1.473.064 4.315.064 2.842 0 3.199-.013 4.315-.064 1.113-.05 1.874-.227 2.54-.486a5.353 5.353 0 003.06-3.062c.259-.666.436-1.427.487-2.542.05-1.117.063-1.473.063-4.317z"/></svg>