<svg xmlns="http://www.w3.org/2000/svg" viewBox="0 0 38 39"><path fill="currentColor" d="M37.67 19.383c0 10.439-8.284 18.904-18.5 18.904S.67 29.822.67 19.383C.67 8.945 8.954.48 19.17.48s18.5 8.465 18.5 18.903zm-23.876-4.177H9.29v13.85h4.505zm-2.253-1.891c1.572 0 2.55-1.064 2.55-2.393-.03-1.36-.978-2.393-2.52-2.393-1.54 0-2.549 1.034-2.549 2.393 0 1.33.978 2.393 2.49 2.393zm18.5 7.8c0-4.255-2.223-6.234-5.188-6.234-2.39 0-3.461 1.342-4.06 2.286v-1.961h-4.505c.059 1.3 0 13.85 0 13.85h4.505v-7.734c0-.414.029-.828.148-1.124.326-.827 1.067-1.683 2.312-1.683 1.63 0 2.282 1.27 2.282 3.132v7.41h4.505z"/></svg>