<svg width="141" height="112" fill="none" xmlns="http://www.w3.org/2000/svg"><path d="M8.23 29.754c-.942 7.357-1.673 14.699-2.363 22.135-.23 2.624-4.832 2.34-4.773-.319A231.395 231.395 0 0 1 5.57 12.097c-.153-2.933-.278-5.716-.231-8.609a2.48 2.48 0 0 1 .436-1.549c.313-.454.77-.795 1.302-.97a2.638 2.638 0 0 1 2.965.967l.441.61a2.616 2.616 0 0 1 1.378.974l22.402 31.66c1.92 2.707-2.38 5.501-4.333 2.816L11.008 11.911l-.252 1.255c4.649 61.882 64.071 108.253 127.891 89.507.286-.093.599-.07.87.063.271.134.478.367.575.648.097.281.077.587-.057.852-.134.264-.37.465-.656.557C79.439 125.943 21.596 85.606 8.23 29.754Z" fill="#ED634D" stroke="#ED634D"/></svg>