<svg viewBox="0 0 954 731" fill="none" xmlns="http://www.w3.org/2000/svg"><path d="M824.907 448.683c1.822-43.456-19.26-87.295-54.09-112.565-42.102-30.492-97.762-32.682-143.913-56.244-59.832-30.569-96.783-92.878-146.724-138.364-59.494-54.192-136.258-83.466-211.032-111.485C219.483 11.386 166.656-7.535 114.9 3.047 44.252 17.49-8.506 93.1 1.14 166.075c16.358 123.769 172.964 184.194 202.856 305.366 15.486 62.792-5.68 134.573 26.67 190.343 38.321 66.061 128.16 72.692 203.079 68.044 56.992-3.538 113.838-9.089 170.668-14.633 46.037-4.495 94.263-9.771 132.385-36.358 47.063-32.828 36.055-67.156 43.58-114.258 6.637-41.503 42.554-69.507 44.506-115.888" fill="#F6F5F5"/></svg>