<svg width="40" height="40" fill="none" xmlns="http://www.w3.org/2000/svg"><path d="M20 3.333C10.8 3.333 3.333 10.8 3.333 20c0 9.2 7.467 16.667 16.667 16.667 9.2 0 16.667-7.467 16.667-16.667C36.667 10.8 29.2 3.333 20 3.333Zm-8.217 27.134C12.5 28.967 16.867 27.5 20 27.5c3.133 0 7.517 1.467 8.217 2.967A13.154 13.154 0 0 1 20 33.333c-3.1 0-5.95-1.066-8.217-2.866ZM30.6 28.05c-2.383-2.9-8.167-3.883-10.6-3.883s-8.217.983-10.6 3.883A13.25 13.25 0 0 1 6.667 20C6.667 12.65 12.65 6.667 20 6.667c7.35 0 13.333 5.983 13.333 13.333a13.25 13.25 0 0 1-2.733 8.05ZM20 10a5.818 5.818 0 0 0-5.833 5.833c0 3.234 2.6 5.834 5.833 5.834s5.833-2.6 5.833-5.834C25.833 12.6 23.233 10 20 10Zm0 8.333a2.497 2.497 0 0 1-2.5-2.5c0-1.383 1.117-2.5 2.5-2.5s2.5 1.117 2.5 2.5c0 1.384-1.117 2.5-2.5 2.5Z" fill="#1C6E85"/></svg>