<svg xmlns="http://www.w3.org/2000/svg" viewBox="0 0 668 757"><path fill="#f6f5f5" d="M246.626.548c39.266-2.661 79.412 15.846 103.011 47.486 28.501 38.22 31.715 89.703 54.03 131.778 28.952 54.636 86.127 87.407 128.367 132.562 50.321 53.788 78.446 124.093 105.465 192.664 17.95 45.496 36.221 93.915 27.785 142.01-11.518 65.634-78.74 116.101-144.977 108.784-112.31-12.347-170.4-155.785-280.645-180.713-57.126-12.918-121.591 8.255-172.72-20.405C6.338 520.757-1.629 437.844.93 368.424c1.953-52.749 5.726-105.447 9.502-158.116 3.055-42.663 6.776-87.325 29.982-123.18 28.667-44.25 59.961-34.845 102.392-42.857 37.437-7.064 61.944-40.9 103.848-43.737"/><path fill="#abded9" d="M404.467 123.011c0 21.682-17.248 39.306-38.467 39.306-21.219 0-38.467-17.624-38.467-39.306S344.781 83.705 366 83.705c21.22 0 38.467 17.624 38.467 39.306zm-106.467 0c0 38.418 30.402 69.483 68 69.483 37.599 0 68-31.065 68-69.483 0-38.418-30.401-69.483-68-69.483-37.598 0-68.124 31.065-68 69.483z"/><path fill="#10334d" d="M389.164 221.194a4.236 4.236 0 0 0-.685-2.32 4.102 4.102 0 0 0-1.83-1.538 4.002 4.002 0 0 0-2.36-.24c-.792.16-1.52.557-2.091 1.14a4.202 4.202 0 0 0-1.12 2.136 4.255 4.255 0 0 0 .232 2.41 4.153 4.153 0 0 0 1.504 1.873 4.02 4.02 0 0 0 5.154-.514c.38-.387.68-.846.885-1.352.205-.506.31-1.048.31-1.595m19.001-.001a4.236 4.236 0 0 0-.686-2.319 4.103 4.103 0 0 0-1.831-1.539 4.001 4.001 0 0 0-2.36-.239 4.055 4.055 0 0 0-2.091 1.142 4.2 4.2 0 0 0-1.118 2.137 4.255 4.255 0 0 0 .234 2.411c.31.763.834 1.414 1.506 1.872a4.02 4.02 0 0 0 5.152-.52 4.21 4.21 0 0 0 1.194-2.944m18.988-.012a4.23 4.23 0 0 0-.687-2.314 4.097 4.097 0 0 0-1.83-1.534 3.995 3.995 0 0 0-2.354-.237 4.05 4.05 0 0 0-2.087 1.14 4.194 4.194 0 0 0-1.116 2.132 4.247 4.247 0 0 0 .232 2.406 4.147 4.147 0 0 0 1.502 1.87c.67.457 1.458.702 2.264.702 1.081 0 2.118-.44 2.882-1.22a4.21 4.21 0 0 0 1.194-2.945m-37.988-14.293a4.236 4.236 0 0 0-.685-2.32 4.102 4.102 0 0 0-1.83-1.538 4.002 4.002 0 0 0-2.36-.24c-.792.16-1.52.557-2.091 1.14a4.202 4.202 0 0 0-1.12 2.136 4.255 4.255 0 0 0 .232 2.41 4.153 4.153 0 0 0 1.504 1.873 4.02 4.02 0 0 0 5.154-.514c.38-.387.68-.846.885-1.352.205-.506.31-1.048.31-1.595m19.001-.001a4.236 4.236 0 0 0-.686-2.319 4.103 4.103 0 0 0-1.831-1.539 4.001 4.001 0 0 0-2.36-.239 4.055 4.055 0 0 0-2.091 1.142 4.2 4.2 0 0 0-1.118 2.137 4.255 4.255 0 0 0 .234 2.411c.31.763.834 1.414 1.506 1.872a4.02 4.02 0 0 0 5.152-.52 4.21 4.21 0 0 0 1.194-2.945m18.988-.011a4.23 4.23 0 0 0-.687-2.314 4.097 4.097 0 0 0-1.83-1.534 3.995 3.995 0 0 0-2.354-.237 4.05 4.05 0 0 0-2.087 1.14 4.194 4.194 0 0 0-1.116 2.132 4.247 4.247 0 0 0 .232 2.406 4.147 4.147 0 0 0 1.502 1.87c.67.457 1.458.702 2.264.702 1.081 0 2.118-.44 2.882-1.22a4.21 4.21 0 0 0 1.194-2.945m-37.988-14.293a4.236 4.236 0 0 0-.685-2.32 4.102 4.102 0 0 0-1.83-1.538 4.002 4.002 0 0 0-2.36-.24c-.792.16-1.52.557-2.091 1.14a4.202 4.202 0 0 0-1.12 2.136 4.255 4.255 0 0 0 .232 2.41 4.153 4.153 0 0 0 1.504 1.873 4.02 4.02 0 0 0 5.154-.514c.38-.387.68-.846.885-1.352.205-.506.31-1.048.31-1.595m19.001-.001a4.236 4.236 0 0 0-.686-2.319 4.103 4.103 0 0 0-1.831-1.539 4.001 4.001 0 0 0-2.36-.239 4.055 4.055 0 0 0-2.091 1.142 4.2 4.2 0 0 0-1.118 2.137 4.255 4.255 0 0 0 .234 2.411c.31.763.834 1.414 1.506 1.872a4.02 4.02 0 0 0 5.152-.52 4.21 4.21 0 0 0 1.194-2.945m18.988-.011a4.23 4.23 0 0 0-.687-2.314 4.097 4.097 0 0 0-1.83-1.534 3.995 3.995 0 0 0-2.354-.237 4.05 4.05 0 0 0-2.087 1.14 4.194 4.194 0 0 0-1.116 2.132 4.247 4.247 0 0 0 .232 2.406 4.147 4.147 0 0 0 1.502 1.87c.67.457 1.458.702 2.264.702 1.081 0 2.118-.44 2.882-1.22a4.21 4.21 0 0 0 1.194-2.945m-37.988-14.294a4.236 4.236 0 0 0-.685-2.319 4.102 4.102 0 0 0-1.83-1.538 4.002 4.002 0 0 0-2.36-.24c-.792.16-1.52.556-2.091 1.14a4.202 4.202 0 0 0-1.12 2.136 4.255 4.255 0 0 0 .232 2.41 4.153 4.153 0 0 0 1.504 1.873 4.02 4.02 0 0 0 5.154-.515c.38-.386.68-.846.885-1.351a4.25 4.25 0 0 0 .31-1.596zm-19 42.916a4.236 4.236 0 0 0-.685-2.32 4.102 4.102 0 0 0-1.83-1.538 4.002 4.002 0 0 0-2.36-.24c-.792.16-1.52.557-2.091 1.14a4.202 4.202 0 0 0-1.12 2.136 4.255 4.255 0 0 0 .232 2.41 4.153 4.153 0 0 0 1.504 1.873 4.02 4.02 0 0 0 5.154-.514c.38-.387.68-.846.885-1.352.205-.506.31-1.048.31-1.595m.001-14.305a4.236 4.236 0 0 0-.685-2.32 4.102 4.102 0 0 0-1.83-1.538 4.002 4.002 0 0 0-2.36-.24c-.792.16-1.52.557-2.091 1.14a4.202 4.202 0 0 0-1.12 2.136 4.255 4.255 0 0 0 .232 2.41 4.153 4.153 0 0 0 1.504 1.873 4.02 4.02 0 0 0 5.154-.514c.38-.387.68-.846.885-1.352.205-.506.31-1.048.31-1.595m.001-14.305a4.236 4.236 0 0 0-.685-2.32 4.102 4.102 0 0 0-1.83-1.538 4.002 4.002 0 0 0-2.36-.24c-.792.16-1.52.557-2.091 1.14a4.202 4.202 0 0 0-1.12 2.136 4.255 4.255 0 0 0 .232 2.41 4.153 4.153 0 0 0 1.504 1.873 4.02 4.02 0 0 0 5.154-.514c.38-.387.68-.846.885-1.352.205-.506.31-1.048.31-1.595m.001-14.306a4.236 4.236 0 0 0-.685-2.319 4.102 4.102 0 0 0-1.83-1.538 4.002 4.002 0 0 0-2.36-.24c-.792.16-1.52.556-2.091 1.14a4.202 4.202 0 0 0-1.12 2.136 4.255 4.255 0 0 0 .232 2.41 4.153 4.153 0 0 0 1.504 1.873 4.02 4.02 0 0 0 5.154-.515c.38-.386.68-.846.885-1.351a4.25 4.25 0 0 0 .31-1.596m38.001 0a4.236 4.236 0 0 0-.686-2.32 4.103 4.103 0 0 0-1.831-1.538 4.001 4.001 0 0 0-2.36-.239 4.055 4.055 0 0 0-2.091 1.142 4.2 4.2 0 0 0-1.118 2.137 4.255 4.255 0 0 0 .234 2.411c.31.763.834 1.414 1.506 1.872a4.02 4.02 0 0 0 5.152-.52 4.21 4.21 0 0 0 1.194-2.945m18.988-.011a4.23 4.23 0 0 0-.687-2.315 4.097 4.097 0 0 0-1.83-1.534 3.995 3.995 0 0 0-2.354-.237 4.05 4.05 0 0 0-2.087 1.14 4.194 4.194 0 0 0-1.116 2.133 4.247 4.247 0 0 0 .232 2.406 4.147 4.147 0 0 0 1.502 1.87c.67.457 1.458.701 2.264.701a4.032 4.032 0 0 0 2.882-1.22 4.21 4.21 0 0 0 1.194-2.944"/></svg>