<svg xmlns="http://www.w3.org/2000/svg" viewBox="0 0 845 759"><path fill="#356d82" d="M433.523 466.441c3.268-36.004-2.325-72.737 4.535-108.217 9.24-47.833 39.833-87.879 63.217-130.394 23.385-42.516 39.933-95.215 19.35-139.21C493.15 29.992 417.926 18.3 354.437 14.306L152.04 1.526C116.223-.724 77.265-2.13 47.925 18.952 10.618 45.745 2.731 98.199.977 144.806-6.047 329.652 31.73 808.633 329.121 633.14c58.083-34.283 98.256-98.479 104.452-166.709"/><path fill="#f6f5f5" d="M746.751 404.691c-28.477-16.982-61.063-26.633-87.698-46.507-35.9-26.82-56.967-68.992-82.92-105.918-25.953-36.927-63.011-71.95-107.488-71.52-59.286.601-98.563 60.997-126.87 114.233l-90.228 169.764c-15.973 30.021-32.473 63.16-26.593 96.732 7.43 42.758 47.782 70.23 85.58 90.09 150.087 78.837 560.968 234.787 532.936-91.07-5.472-63.639-42.754-123.591-96.719-155.804"/></svg>