<svg xmlns="http://www.w3.org/2000/svg" viewBox="0 0 1120 1368"><path fill="#f6f5f5" d="M186.19 412.642c56.09 10.555 114.5-3.639 171.77-2.831 57.27.807 119.28 21.805 146.11 80.835 25.16 55.331 13.26 130.791 43.19 182.382 31.63 54.442 98.39 62.586 135.46 111.643 43.67 57.772 32.76 149.571 39.68 229.179 10 114.54 60.89 214.14 110.62 309.61 11.78 22.61 28.32 48.02 51.06 44.07 24.93-4.31 37.09-39.85 43.88-69.29 54.16-235.01 108.32-470.03 162.49-705.045 24.37-105.747 48-223.111 7.62-316.464-47-108.822-160.86-141.254-262.48-163.428l-397.4-86.73c-73-15.92-146.9-31.911-222-24.86C133.56 9.467-12 55.376.79 180.527c11.67 114.27 91.52 214.438 185.41 232.105"/><path fill="#abded9" d="M685.331 1029.882c-24.162-24.227-42.132-54.55-68.663-76.139-35.783-29.11-82.867-39.127-126.036-55.466-43.17-16.338-87.363-44.405-98.462-89.465-14.795-60.052 34.588-115.81 79.773-158.604l144.074-136.43c25.482-24.143 53.83-49.62 88.56-52.667 44.126-3.873 81.685 29.507 111.097 62.377 116.749 130.507 377.292 503.79 48.49 562.506-64.214 11.458-133.05-10.176-178.838-56.076"/><path fill="#fff" d="M602.985 662.836a3.64 3.64 0 0 0 .591 1.991 3.525 3.525 0 0 0 1.575 1.32 3.437 3.437 0 0 0 2.026.204 3.494 3.494 0 0 0 1.796-.98 3.609 3.609 0 0 0 .96-1.836 3.657 3.657 0 0 0-.2-2.07 3.568 3.568 0 0 0-1.292-1.609 3.454 3.454 0 0 0-1.948-.604 3.47 3.47 0 0 0-2.48 1.05 3.624 3.624 0 0 0-1.028 2.534m-20.61 0a3.64 3.64 0 0 0 .591 1.991 3.525 3.525 0 0 0 1.575 1.32 3.437 3.437 0 0 0 2.026.204 3.494 3.494 0 0 0 1.796-.98 3.609 3.609 0 0 0 .96-1.836 3.657 3.657 0 0 0-.2-2.07 3.568 3.568 0 0 0-1.292-1.609 3.454 3.454 0 0 0-1.948-.604 3.47 3.47 0 0 0-2.48 1.05 3.624 3.624 0 0 0-1.028 2.534zm-20.6 0a3.64 3.64 0 0 0 .591 1.991 3.525 3.525 0 0 0 1.575 1.32 3.437 3.437 0 0 0 2.026.204 3.494 3.494 0 0 0 1.796-.98 3.609 3.609 0 0 0 .96-1.836 3.657 3.657 0 0 0-.2-2.07 3.568 3.568 0 0 0-1.292-1.609 3.454 3.454 0 0 0-1.948-.604 3.47 3.47 0 0 0-2.48 1.05 3.624 3.624 0 0 0-1.028 2.534m-20.61 0a3.64 3.64 0 0 0 .591 1.991 3.525 3.525 0 0 0 1.575 1.32 3.437 3.437 0 0 0 2.026.204 3.494 3.494 0 0 0 1.796-.98 3.609 3.609 0 0 0 .96-1.836 3.657 3.657 0 0 0-.2-2.07 3.568 3.568 0 0 0-1.292-1.609 3.454 3.454 0 0 0-1.948-.604 3.47 3.47 0 0 0-2.48 1.05 3.624 3.624 0 0 0-1.028 2.534zm-20.61 0a3.64 3.64 0 0 0 .591 1.991 3.524 3.524 0 0 0 1.574 1.32 3.439 3.439 0 0 0 2.027.204 3.494 3.494 0 0 0 1.796-.98 3.609 3.609 0 0 0 .96-1.836 3.657 3.657 0 0 0-.2-2.07 3.568 3.568 0 0 0-1.292-1.609 3.454 3.454 0 0 0-1.948-.604 3.47 3.47 0 0 0-2.48 1.05 3.624 3.624 0 0 0-1.028 2.534zm-20.61 0a3.64 3.64 0 0 0 .59 1.991 3.525 3.525 0 0 0 1.575 1.32 3.439 3.439 0 0 0 2.027.204 3.494 3.494 0 0 0 1.796-.98 3.609 3.609 0 0 0 .96-1.836 3.657 3.657 0 0 0-.2-2.07 3.568 3.568 0 0 0-1.292-1.609 3.455 3.455 0 0 0-1.949-.604 3.47 3.47 0 0 0-2.48 1.05 3.624 3.624 0 0 0-1.027 2.534m103.04-21.08a3.64 3.64 0 0 0 .591 1.991 3.525 3.525 0 0 0 1.575 1.32 3.437 3.437 0 0 0 2.026.204 3.494 3.494 0 0 0 1.796-.98 3.609 3.609 0 0 0 .96-1.836 3.657 3.657 0 0 0-.2-2.07 3.568 3.568 0 0 0-1.292-1.609 3.454 3.454 0 0 0-1.948-.604 3.47 3.47 0 0 0-2.48 1.05 3.624 3.624 0 0 0-1.028 2.534m-20.61 0a3.64 3.64 0 0 0 .591 1.991 3.525 3.525 0 0 0 1.575 1.32 3.437 3.437 0 0 0 2.026.204 3.494 3.494 0 0 0 1.796-.98 3.609 3.609 0 0 0 .96-1.836 3.657 3.657 0 0 0-.2-2.07 3.568 3.568 0 0 0-1.292-1.609 3.454 3.454 0 0 0-1.948-.604 3.47 3.47 0 0 0-2.48 1.05 3.624 3.624 0 0 0-1.028 2.534m-20.6 0a3.64 3.64 0 0 0 .591 1.991 3.525 3.525 0 0 0 1.575 1.32 3.437 3.437 0 0 0 2.026.204 3.494 3.494 0 0 0 1.796-.98 3.609 3.609 0 0 0 .96-1.836 3.657 3.657 0 0 0-.2-2.07 3.568 3.568 0 0 0-1.292-1.609 3.454 3.454 0 0 0-1.948-.604 3.47 3.47 0 0 0-2.48 1.05 3.624 3.624 0 0 0-1.028 2.534m-20.61 0a3.64 3.64 0 0 0 .591 1.991 3.525 3.525 0 0 0 1.575 1.32 3.437 3.437 0 0 0 2.026.204 3.494 3.494 0 0 0 1.796-.98 3.609 3.609 0 0 0 .96-1.836 3.657 3.657 0 0 0-.2-2.07 3.568 3.568 0 0 0-1.292-1.609 3.454 3.454 0 0 0-1.948-.604 3.47 3.47 0 0 0-2.48 1.05 3.624 3.624 0 0 0-1.028 2.534m-20.61 0a3.64 3.64 0 0 0 .591 1.991 3.524 3.524 0 0 0 1.574 1.32 3.439 3.439 0 0 0 2.027.204 3.494 3.494 0 0 0 1.796-.98 3.609 3.609 0 0 0 .96-1.836 3.657 3.657 0 0 0-.2-2.07 3.568 3.568 0 0 0-1.292-1.609 3.454 3.454 0 0 0-1.948-.604 3.47 3.47 0 0 0-2.48 1.05 3.624 3.624 0 0 0-1.028 2.534m-20.61 0a3.64 3.64 0 0 0 .59 1.991 3.525 3.525 0 0 0 1.575 1.32 3.439 3.439 0 0 0 2.027.204 3.494 3.494 0 0 0 1.796-.98 3.609 3.609 0 0 0 .96-1.836 3.657 3.657 0 0 0-.2-2.07 3.568 3.568 0 0 0-1.292-1.609 3.455 3.455 0 0 0-1.949-.604 3.47 3.47 0 0 0-2.48 1.05 3.624 3.624 0 0 0-1.027 2.534m103.04-21.03a3.64 3.64 0 0 0 .591 1.991 3.525 3.525 0 0 0 1.575 1.32 3.437 3.437 0 0 0 2.026.204 3.494 3.494 0 0 0 1.796-.98 3.609 3.609 0 0 0 .96-1.836 3.657 3.657 0 0 0-.2-2.07 3.568 3.568 0 0 0-1.292-1.609 3.454 3.454 0 0 0-1.948-.604 3.47 3.47 0 0 0-2.48 1.05 3.624 3.624 0 0 0-1.028 2.534m-20.61 0a3.64 3.64 0 0 0 .591 1.991 3.525 3.525 0 0 0 1.575 1.32 3.437 3.437 0 0 0 2.026.204 3.494 3.494 0 0 0 1.796-.98 3.609 3.609 0 0 0 .96-1.836 3.657 3.657 0 0 0-.2-2.07 3.568 3.568 0 0 0-1.292-1.609 3.454 3.454 0 0 0-1.948-.604 3.47 3.47 0 0 0-2.48 1.05 3.624 3.624 0 0 0-1.028 2.534zm-20.6 0a3.64 3.64 0 0 0 .591 1.991 3.525 3.525 0 0 0 1.575 1.32 3.437 3.437 0 0 0 2.026.204 3.494 3.494 0 0 0 1.796-.98 3.609 3.609 0 0 0 .96-1.836 3.657 3.657 0 0 0-.2-2.07 3.568 3.568 0 0 0-1.292-1.609 3.454 3.454 0 0 0-1.948-.604 3.47 3.47 0 0 0-2.48 1.05 3.624 3.624 0 0 0-1.028 2.534m-20.61 0a3.64 3.64 0 0 0 .591 1.991 3.525 3.525 0 0 0 1.575 1.32 3.437 3.437 0 0 0 2.026.204 3.494 3.494 0 0 0 1.796-.98 3.609 3.609 0 0 0 .96-1.836 3.657 3.657 0 0 0-.2-2.07 3.568 3.568 0 0 0-1.292-1.609 3.454 3.454 0 0 0-1.948-.604 3.47 3.47 0 0 0-2.48 1.05 3.624 3.624 0 0 0-1.028 2.534zm-20.61 0a3.64 3.64 0 0 0 .591 1.991 3.524 3.524 0 0 0 1.574 1.32 3.439 3.439 0 0 0 2.027.204 3.494 3.494 0 0 0 1.796-.98 3.609 3.609 0 0 0 .96-1.836 3.657 3.657 0 0 0-.2-2.07 3.568 3.568 0 0 0-1.292-1.609 3.454 3.454 0 0 0-1.948-.604 3.47 3.47 0 0 0-2.48 1.05 3.624 3.624 0 0 0-1.028 2.534zm-20.61 0a3.64 3.64 0 0 0 .59 1.991 3.525 3.525 0 0 0 1.575 1.32 3.439 3.439 0 0 0 2.027.204 3.494 3.494 0 0 0 1.796-.98 3.609 3.609 0 0 0 .96-1.836 3.657 3.657 0 0 0-.2-2.07 3.568 3.568 0 0 0-1.292-1.609 3.455 3.455 0 0 0-1.949-.604 3.47 3.47 0 0 0-2.48 1.05 3.624 3.624 0 0 0-1.027 2.534m103.04-21.06a3.64 3.64 0 0 0 .591 1.991 3.525 3.525 0 0 0 1.575 1.32 3.437 3.437 0 0 0 2.026.204 3.494 3.494 0 0 0 1.796-.98 3.609 3.609 0 0 0 .96-1.836 3.657 3.657 0 0 0-.2-2.07 3.568 3.568 0 0 0-1.292-1.609 3.454 3.454 0 0 0-1.948-.604 3.47 3.47 0 0 0-2.48 1.05 3.624 3.624 0 0 0-1.028 2.534m-20.61 0a3.64 3.64 0 0 0 .591 1.991 3.525 3.525 0 0 0 1.575 1.32 3.437 3.437 0 0 0 2.026.204 3.494 3.494 0 0 0 1.796-.98 3.609 3.609 0 0 0 .96-1.836 3.657 3.657 0 0 0-.2-2.07 3.568 3.568 0 0 0-1.292-1.609 3.454 3.454 0 0 0-1.948-.604 3.47 3.47 0 0 0-2.48 1.05 3.624 3.624 0 0 0-1.028 2.534m-20.6 0a3.64 3.64 0 0 0 .591 1.991 3.525 3.525 0 0 0 1.575 1.32 3.437 3.437 0 0 0 2.026.204 3.494 3.494 0 0 0 1.796-.98 3.609 3.609 0 0 0 .96-1.836 3.657 3.657 0 0 0-.2-2.07 3.568 3.568 0 0 0-1.292-1.609 3.454 3.454 0 0 0-1.948-.604 3.47 3.47 0 0 0-2.48 1.05 3.624 3.624 0 0 0-1.028 2.534m-20.61 0a3.64 3.64 0 0 0 .591 1.991 3.525 3.525 0 0 0 1.575 1.32 3.437 3.437 0 0 0 2.026.204 3.494 3.494 0 0 0 1.796-.98 3.609 3.609 0 0 0 .96-1.836 3.657 3.657 0 0 0-.2-2.07 3.568 3.568 0 0 0-1.292-1.609 3.454 3.454 0 0 0-1.948-.604 3.47 3.47 0 0 0-2.48 1.05 3.624 3.624 0 0 0-1.028 2.534m-20.61 0a3.64 3.64 0 0 0 .591 1.991 3.524 3.524 0 0 0 1.574 1.32 3.439 3.439 0 0 0 2.027.204 3.494 3.494 0 0 0 1.796-.98 3.609 3.609 0 0 0 .96-1.836 3.657 3.657 0 0 0-.2-2.07 3.568 3.568 0 0 0-1.292-1.609 3.454 3.454 0 0 0-1.948-.604 3.47 3.47 0 0 0-2.48 1.05 3.624 3.624 0 0 0-1.028 2.534m-20.61 0a3.64 3.64 0 0 0 .59 1.991 3.525 3.525 0 0 0 1.575 1.32 3.439 3.439 0 0 0 2.027.204 3.494 3.494 0 0 0 1.796-.98 3.609 3.609 0 0 0 .96-1.836 3.657 3.657 0 0 0-.2-2.07 3.568 3.568 0 0 0-1.292-1.609 3.455 3.455 0 0 0-1.949-.604 3.47 3.47 0 0 0-2.48 1.05 3.624 3.624 0 0 0-1.027 2.534"/><path fill="#1c6e85" d="M525.388 557.87c0 2.953.857 5.84 2.463 8.295a14.683 14.683 0 0 0 6.558 5.5 14.322 14.322 0 0 0 8.443.848 14.516 14.516 0 0 0 7.48-4.088 15.033 15.033 0 0 0 3.998-7.645 15.232 15.232 0 0 0-.834-8.626 14.864 14.864 0 0 0-5.383-6.7 14.39 14.39 0 0 0-8.119-2.513c-1.919 0-3.818.386-5.59 1.137a14.589 14.589 0 0 0-4.74 3.236 14.952 14.952 0 0 0-3.165 4.844 15.207 15.207 0 0 0-1.11 5.712"/><path fill="#1c6e85" d="M496.168 557.87c0 2.953.857 5.84 2.462 8.295a14.684 14.684 0 0 0 6.558 5.499 14.321 14.321 0 0 0 8.441.85 14.518 14.518 0 0 0 7.482-4.087 15.033 15.033 0 0 0 3.998-7.644 15.232 15.232 0 0 0-.831-8.626 14.866 14.866 0 0 0-5.382-6.7 14.39 14.39 0 0 0-8.117-2.516c-3.875 0-7.591 1.573-10.331 4.373-2.74 2.8-4.28 6.597-4.28 10.557M525.389 587.725a15.163 15.163 0 0 0 2.46 8.297 14.684 14.684 0 0 0 6.557 5.5 14.32 14.32 0 0 0 8.442.851 14.518 14.518 0 0 0 7.483-4.086 15.033 15.033 0 0 0 3.999-7.645 15.232 15.232 0 0 0-.833-8.627 14.864 14.864 0 0 0-5.384-6.7 14.39 14.39 0 0 0-8.119-2.514c-3.874 0-7.589 1.572-10.328 4.371-2.74 2.8-4.278 6.595-4.278 10.553"/><path fill="#1c6e85" d="M496.168 587.725c0 2.953.855 5.84 2.46 8.296a14.685 14.685 0 0 0 6.556 5.501 14.321 14.321 0 0 0 8.443.852 14.516 14.516 0 0 0 7.482-4.085 15.033 15.033 0 0 0 4-7.644 15.232 15.232 0 0 0-.83-8.627 14.865 14.865 0 0 0-5.382-6.7 14.39 14.39 0 0 0-8.118-2.517c-3.874 0-7.59 1.572-10.33 4.37-2.74 2.8-4.28 6.596-4.28 10.554M525.388 617.59c0 2.953.857 5.84 2.463 8.295a14.683 14.683 0 0 0 6.558 5.5 14.322 14.322 0 0 0 8.443.848 14.516 14.516 0 0 0 7.48-4.088 15.033 15.033 0 0 0 3.998-7.645 15.232 15.232 0 0 0-.834-8.626 14.864 14.864 0 0 0-5.383-6.7 14.39 14.39 0 0 0-8.119-2.513c-1.919 0-3.818.386-5.59 1.137a14.589 14.589 0 0 0-4.74 3.236 14.952 14.952 0 0 0-3.165 4.844 15.207 15.207 0 0 0-1.11 5.712"/><path fill="#1c6e85" d="M496.168 617.59c0 2.953.857 5.84 2.462 8.295a14.684 14.684 0 0 0 6.558 5.499 14.321 14.321 0 0 0 8.441.85 14.518 14.518 0 0 0 7.482-4.087 15.033 15.033 0 0 0 3.998-7.644 15.232 15.232 0 0 0-.831-8.626 14.866 14.866 0 0 0-5.382-6.7 14.39 14.39 0 0 0-8.117-2.516c-3.875 0-7.591 1.573-10.331 4.373-2.74 2.8-4.28 6.597-4.28 10.557M466.948 557.87c0 2.953.857 5.84 2.463 8.295a14.683 14.683 0 0 0 6.558 5.5 14.322 14.322 0 0 0 8.443.848 14.516 14.516 0 0 0 7.48-4.088 15.033 15.033 0 0 0 3.998-7.645 15.232 15.232 0 0 0-.834-8.626 14.864 14.864 0 0 0-5.383-6.7 14.39 14.39 0 0 0-8.119-2.513c-1.919 0-3.818.386-5.59 1.137a14.589 14.589 0 0 0-4.74 3.236 14.952 14.952 0 0 0-3.165 4.844 15.207 15.207 0 0 0-1.11 5.712"/><path fill="#1c6e85" d="M466.948 587.725a15.163 15.163 0 0 0 2.46 8.297 14.684 14.684 0 0 0 6.558 5.5 14.32 14.32 0 0 0 8.442.851 14.517 14.517 0 0 0 7.482-4.086 15.034 15.034 0 0 0 4-7.645 15.232 15.232 0 0 0-.833-8.627 14.864 14.864 0 0 0-5.384-6.7 14.39 14.39 0 0 0-8.119-2.514c-3.874 0-7.589 1.572-10.328 4.371-2.74 2.8-4.278 6.595-4.278 10.553"/><path fill="#1c6e85" d="M466.948 617.59c0 2.953.857 5.84 2.463 8.295a14.683 14.683 0 0 0 6.558 5.5 14.322 14.322 0 0 0 8.443.848 14.516 14.516 0 0 0 7.48-4.088 15.033 15.033 0 0 0 3.998-7.645 15.232 15.232 0 0 0-.834-8.626 14.864 14.864 0 0 0-5.383-6.7 14.39 14.39 0 0 0-8.119-2.513c-1.919 0-3.818.386-5.59 1.137a14.589 14.589 0 0 0-4.74 3.236 14.952 14.952 0 0 0-3.165 4.844 15.207 15.207 0 0 0-1.11 5.712"/></svg>