<svg viewBox="0 0 614 752" fill="none" xmlns="http://www.w3.org/2000/svg"><path d="M205.035 467.033c-29.418-49.268-60.935-98.229-77.354-153.265-16.419-55.036-15.781-118.381 16.437-166.976 48.921-73.766 159.614-89.477 237.541-49.294 77.926 40.183 125.325 122.761 145.899 207.532 22.531 92.918 16.468 195.432-30.747 280.01-28.232 50.61-138.002 172.523-208.265 138.325-35.01-17.045-13.608-82.403-20.647-115.377-10.824-50.741-36.568-96.88-62.883-140.945" fill="#003350"/><path d="M110.116 180.95a7.178 7.178 0 0 0-1.163-3.937 6.956 6.956 0 0 0-3.107-2.612 6.782 6.782 0 0 0-4.005-.407 6.883 6.883 0 0 0-3.55 1.935 7.128 7.128 0 0 0-1.9 3.626 7.221 7.221 0 0 0 .392 4.092 7.052 7.052 0 0 0 2.552 3.18 6.83 6.83 0 0 0 3.852 1.194 6.796 6.796 0 0 0 2.651-.536 6.9 6.9 0 0 0 2.248-1.532 7.074 7.074 0 0 0 1.503-2.295 7.21 7.21 0 0 0 .527-2.708zm32.257 0a7.19 7.19 0 0 0-1.164-3.938 6.961 6.961 0 0 0-3.109-2.612 6.794 6.794 0 0 0-4.006-.406 6.884 6.884 0 0 0-3.551 1.938 7.129 7.129 0 0 0-1.897 3.629 7.222 7.222 0 0 0 .397 4.093 7.046 7.046 0 0 0 2.556 3.178 6.829 6.829 0 0 0 3.854 1.189 6.848 6.848 0 0 0 4.894-2.072 7.15 7.15 0 0 0 2.026-4.999zm32.236-.02a7.18 7.18 0 0 0-1.166-3.929 6.957 6.957 0 0 0-3.105-2.604 6.785 6.785 0 0 0-3.999-.402 6.872 6.872 0 0 0-3.543 1.936 7.122 7.122 0 0 0-1.893 3.62 7.216 7.216 0 0 0 .393 4.084 7.045 7.045 0 0 0 2.549 3.174 6.815 6.815 0 0 0 3.844 1.192 6.848 6.848 0 0 0 4.894-2.072 7.15 7.15 0 0 0 2.026-4.999zm-64.493-24.266a7.178 7.178 0 0 0-1.163-3.937 6.956 6.956 0 0 0-3.107-2.612 6.79 6.79 0 0 0-4.005-.408 6.883 6.883 0 0 0-3.55 1.935 7.135 7.135 0 0 0-1.9 3.627 7.221 7.221 0 0 0 .392 4.092 7.052 7.052 0 0 0 2.552 3.18 6.83 6.83 0 0 0 3.852 1.194 6.796 6.796 0 0 0 2.651-.536 6.9 6.9 0 0 0 2.248-1.532 7.085 7.085 0 0 0 1.503-2.295 7.21 7.21 0 0 0 .527-2.708zm32.257 0a7.188 7.188 0 0 0-1.164-3.938 6.97 6.97 0 0 0-3.109-2.613 6.794 6.794 0 0 0-4.006-.405 6.884 6.884 0 0 0-3.551 1.938 7.129 7.129 0 0 0-1.897 3.629 7.222 7.222 0 0 0 .397 4.093 7.052 7.052 0 0 0 2.556 3.178 6.828 6.828 0 0 0 8.748-.883 7.15 7.15 0 0 0 2.026-4.999zm32.236-.02a7.177 7.177 0 0 0-1.166-3.929 6.95 6.95 0 0 0-3.105-2.604 6.794 6.794 0 0 0-3.999-.403 6.886 6.886 0 0 0-3.543 1.936 7.125 7.125 0 0 0-1.893 3.621 7.216 7.216 0 0 0 .393 4.084 7.045 7.045 0 0 0 2.549 3.174 6.815 6.815 0 0 0 3.844 1.192 6.848 6.848 0 0 0 4.894-2.072 7.15 7.15 0 0 0 2.026-4.999zm-64.493-24.266a7.178 7.178 0 0 0-1.163-3.937 6.965 6.965 0 0 0-3.107-2.613 6.798 6.798 0 0 0-4.005-.407 6.883 6.883 0 0 0-3.55 1.935 7.135 7.135 0 0 0-1.9 3.626 7.225 7.225 0 0 0 .392 4.093 7.05 7.05 0 0 0 2.552 3.179 6.823 6.823 0 0 0 8.751-.873 7.085 7.085 0 0 0 1.503-2.295 7.214 7.214 0 0 0 .527-2.708zm32.257-.001a7.187 7.187 0 0 0-1.164-3.937 6.963 6.963 0 0 0-3.109-2.613 6.794 6.794 0 0 0-4.006-.405 6.884 6.884 0 0 0-3.551 1.938 7.13 7.13 0 0 0-1.897 3.628 7.225 7.225 0 0 0 .397 4.094 7.044 7.044 0 0 0 2.556 3.177 6.82 6.82 0 0 0 3.854 1.189 6.847 6.847 0 0 0 4.894-2.071 7.151 7.151 0 0 0 2.026-5zm32.236-.02a7.176 7.176 0 0 0-1.166-3.928 6.959 6.959 0 0 0-3.105-2.605 6.785 6.785 0 0 0-3.999-.402 6.88 6.88 0 0 0-3.543 1.936 7.126 7.126 0 0 0-1.893 3.62 7.219 7.219 0 0 0 .393 4.085 7.042 7.042 0 0 0 2.549 3.173 6.815 6.815 0 0 0 3.844 1.192 6.847 6.847 0 0 0 4.894-2.071 7.151 7.151 0 0 0 2.026-5zm-64.493-24.266a7.172 7.172 0 0 0-1.163-3.936 6.965 6.965 0 0 0-3.107-2.613 6.798 6.798 0 0 0-4.005-.407 6.883 6.883 0 0 0-3.55 1.935 7.131 7.131 0 0 0-1.9 3.626 7.225 7.225 0 0 0 .392 4.093 7.05 7.05 0 0 0 2.552 3.179 6.823 6.823 0 0 0 8.751-.873 7.096 7.096 0 0 0 1.503-2.295 7.215 7.215 0 0 0 .527-2.709zM77.86 180.95a7.193 7.193 0 0 0-1.163-3.937 6.96 6.96 0 0 0-3.108-2.612 6.783 6.783 0 0 0-4.005-.407 6.882 6.882 0 0 0-3.55 1.935 7.128 7.128 0 0 0-1.9 3.626 7.22 7.22 0 0 0 .393 4.092 7.051 7.051 0 0 0 2.552 3.18 6.83 6.83 0 0 0 3.851 1.194c.91.001 1.81-.181 2.651-.536a6.911 6.911 0 0 0 2.249-1.532 7.068 7.068 0 0 0 1.502-2.295 7.205 7.205 0 0 0 .528-2.708zm0-24.286a7.193 7.193 0 0 0-1.163-3.937 6.96 6.96 0 0 0-3.108-2.612 6.79 6.79 0 0 0-4.005-.408 6.882 6.882 0 0 0-3.55 1.935 7.135 7.135 0 0 0-1.9 3.627 7.22 7.22 0 0 0 .393 4.092 7.051 7.051 0 0 0 2.552 3.18 6.83 6.83 0 0 0 3.851 1.194c.91.001 1.81-.181 2.651-.536a6.911 6.911 0 0 0 2.249-1.532 7.079 7.079 0 0 0 1.502-2.295 7.205 7.205 0 0 0 .528-2.708zm0-24.286a7.193 7.193 0 0 0-1.163-3.937 6.968 6.968 0 0 0-3.108-2.613 6.799 6.799 0 0 0-4.005-.407 6.882 6.882 0 0 0-3.55 1.935 7.135 7.135 0 0 0-1.9 3.626 7.225 7.225 0 0 0 .393 4.093 7.049 7.049 0 0 0 2.552 3.179 6.822 6.822 0 0 0 8.75-.873 7.079 7.079 0 0 0 1.503-2.295 7.209 7.209 0 0 0 .528-2.708zm0-24.287a7.187 7.187 0 0 0-1.163-3.936 6.968 6.968 0 0 0-3.108-2.613 6.799 6.799 0 0 0-4.005-.407 6.882 6.882 0 0 0-3.55 1.935 7.131 7.131 0 0 0-1.9 3.626 7.225 7.225 0 0 0 .393 4.093 7.049 7.049 0 0 0 2.552 3.179 6.822 6.822 0 0 0 8.75-.873 7.09 7.09 0 0 0 1.503-2.295 7.21 7.21 0 0 0 .528-2.709zm64.513 0a7.19 7.19 0 0 0-1.164-3.938 6.961 6.961 0 0 0-3.109-2.612 6.794 6.794 0 0 0-4.006-.405 6.876 6.876 0 0 0-3.551 1.938 7.126 7.126 0 0 0-1.897 3.628 7.22 7.22 0 0 0 .397 4.093 7.041 7.041 0 0 0 2.556 3.178 6.829 6.829 0 0 0 3.854 1.189 6.848 6.848 0 0 0 4.894-2.072 7.15 7.15 0 0 0 2.026-4.999zm32.236-.02a7.174 7.174 0 0 0-1.166-3.928 6.953 6.953 0 0 0-3.105-2.605 6.785 6.785 0 0 0-3.999-.402 6.88 6.88 0 0 0-3.543 1.936 7.126 7.126 0 0 0-1.893 3.62 7.219 7.219 0 0 0 .393 4.085 7.042 7.042 0 0 0 2.549 3.173 6.815 6.815 0 0 0 3.844 1.192 6.844 6.844 0 0 0 4.894-2.072 7.15 7.15 0 0 0 2.026-4.999z" fill="#ED634D"/></svg>