<svg width="230" height="220" fill="none" xmlns="http://www.w3.org/2000/svg"><path d="M450.879 83.136c-10.298-.356-20.27-.347-25.934 4.955-3.835 1.707-11.106 1.194-10.809 5.583-2.883 1.224-6.699 1.853-7.591 4.286l-6.309 2.412c-4.622 1.777-6.449 4.788-8.365 7.747-1.419.954-2.805 1.914-4.224 2.868-5.112.854-6.244 3.375-6.474 6.285-1.311 1.082-2.653 2.159-3.961 3.223-6.954 5.876-14.21 11.627-15.25 19.566-8.246 3.189-8.381 9.575-13.148 14.147-1.559 3.33-3.149 6.654-4.707 9.984-4.832-4.666-1.102-8.441-.195-12.501-1.467-3.375 1.952-6.451-1.497-9.935-.018-1.047-.068-2.099-.086-3.145 3.688-5.063.457-11.002.703-16.509 2.528-5.842 2.047-12.019-.307-18.379 1.958-5.332-.958-11.035-1.58-16.558.693-2.98.336-5.858-4.5-8.383.118-.511.007-1.006-.389-1.53l.405-1.836-5.127-8.103c.748-3.501-2.351-5.609-8.238-6.679-4.109-1.47-8.187-2.935-12.297-4.405-16.733-2.964-31.658-1.892-45.298 2.102-8.64 1.879-17.075 3.883-21.172 9.08 3.396-.627 6.763-1.275 10.159-1.901-3.396.626-6.763 1.274-10.159 1.9a281.6 281.6 0 0 0-3.528 1.025c-9.16.364-8.695 6.447-14.831 8.595-2.985.29-5.973.6-5.539 3.016a3.805 3.805 0 0 0-1.047 1.437c-6.029 1.122-8.548 4.219-11.452 7.105-.776.585-1.583 1.165-2.358 1.75-9.25 7.252-18.406 14.519-23.155 23.599-.733.336-1.068.793-1.007 1.389-8.388 5.381-12.945 12.167-16.286 19.393-4.61 3.244-7.503 7.029-7.919 11.629-5.385 4.214-8.312 9.165-9.247 14.741l-6.314-.83c-.058-.614-.148-1.233-.209-1.829-.623-9.954 1.754-19.703-3.523-29.991 2.156-1.509 2.009-3.328.51-5.353 2.416-10.181.419-20.785-1.453-31.368.579-3.071 1.316-6.117-1.332-9.376l.11-1.813c4.374-7.805-.88-16.497-1.432-24.755.191-1.524.413-3.044.601-4.55l-3.654-.718c.061-.557.125-1.132.155-1.695-.7-1.984-1.435-3.955-2.135-5.94-2.379-.431-4.756-.881-6.397-1.484 1.641.603 3.986 1.047 6.397 1.485.7 1.984 1.435 3.955 2.135 5.939-.062.557-.094 1.138-.155 1.695l3.654.718c.746-6.76 1.844-13.5-2.256-20.608-.04-2.46-.113-4.907-.153-7.367-.503-3.929-1.134-7.86-1.509-11.786-.42-4.226-2.188-8.31-10.281-10.076-7.939-1.723-12.288.74-14.548 4.595-3.683.413-3.236 2.556-4.238 4.11-4.714 3.483-10.149 6.645-11.971 11.36-6.425 5.413-10.964 11.507-14.653 17.924-1.768 2.655-3.501 5.296-5.27 7.95.395.725.759 1.444 1.154 2.17 1.566.278 3.13.574 4.728.858a438.563 438.563 0 0 1-4.728-.859c-.364-.72-.758-1.444-1.122-2.164-4.177 2.016-4.027 5.355-5.197 8.291-5.74 3.441-5.526 8.713-8.258 13.075-4.258 4.803-8.173 9.682-7.988 15.7C41.96 88.217 45.73 95.18 40 99.335l-1.997 6.718c-5.287 3.241-3.556 8.124-4.713 12.327a131.849 131.849 0 0 1-1.604 3.029c2.333.516 4.67 1.014 7.003 1.53l-7.003-1.53-.006.035c-4.321 2.871-3.764 6.863-3.986 10.69-.349 1.114-.694 2.21-1.042 3.324-.041 1.787-.117 3.588-.159 5.375.042-1.787.118-3.588.16-5.375-4.607 3.995-4.455 9.055-4.862 13.986l-.493 1.786c-.58.38-.823.87-.787 1.426-5.294 3.862-4.124 9.201-5.162 14.046-.29 2.497-4.69 4.109-2.364 7.169-.071.428.051.851.334 1.282-4.9 4.02-4.481 9.216-4.872 14.241-.523 2.349-1.01 4.684-1.534 7.033-.807.195-.995.548-.567 1.077-4.116 2.996-3.757 7.011-4.116 10.888-.368 1.422-1.215 2.819-1.04 4.276.287 2.135-3.337 5.085 2.592 6.29 6.21 1.252 6.845-1.957 6.991-4.752 3.707-2.863 5.812-5.992 1.737-10.166.478-.159.714-.413.77-.751l2.507-1.671c3.84-1.541 3.02-4.35 3.498-6.816-.847-.14-1.695-.281-2.545-.404a4.249 4.249 0 0 0-.573 1.296l-6.13 1.343 6.13-1.343c.11-.458.31-.882.57-1.279.847.141 1.695.282 2.545.405.152-6.676 6.384-12.287 3.967-19.426 5.566-4.33 5.914-9.875 5.984-15.485.712-.211.935-.577.602-1.09 4.97-2.122 2.786-6.037 3.977-9.098.196-.59.42-1.157.616-1.747 3.754-9.117 9.312-17.824 10.802-27.482 3.069-4.836 7.19-9.406 6.607-15.161l-.032-.005c4.593-1.416 3.195-4.431 3.403-7.015a194.97 194.97 0 0 1-3.182-.657l3.181.657c5.911-5.426 6-12.498 9.972-18.484 6.23-2.132 2.43-6.993 5.078-10.087 5.019-5.684 9.424-11.562 9.353-18.641.684-.234.973-.608.865-1.12 12.397-6.197 15.226-16.145 22.628-24.308l.188.031c1.35-.93 2.674-1.9 4.027-2.846 1.165-2.333 2.334-4.684 3.499-7.017.46-.437.767-.917.919-1.44 2.937.378 5.383 1.187 6.658 3.01-.869 2.877-1.773 5.766-2.642 8.643.093.601.282 1.2.598 1.82 2.608 6.384-.761 12.434 3.06 18.892.113 3.754-3.805 7.112.436 11.26.975 3.805-1.431 7.379 1.489 11.324.038 1.124.073 2.264.11 3.388-1.501 4.144-2.752 8.331.832 12.936-.103 1.192-.209 2.4-.343 3.587-2.431 4.686.474 9.875.776 14.813-.701 2.447-2.007 4.849.991 7.562-2.325 15.214-.235 30.85 2.046 46.499-.244.491-.064.96.532 1.444-2.914 3.525.903 7.51 1.499 11.271l-.42 3.464c-2.274 2.405.157 4.457 3.337 6.469.806 1.928-.892 3.971 2.412 5.82 1.734 2.742 3.105 5.533 9.732 5.078 5.191-.364 9.091-1.108 10.737-4.386 3.288-6.521 5.539-13.215 6.738-20.175 6.254-.736 4.371-3.942 4.088-6.681a5.796 5.796 0 0 0 .852-1.616l34.166-47.329c2.037-1.565 4.103-3.108 6.14-4.674 7.714-1.94 7.538-6.858 9.548-10.955l2.94-1.178c7.346-3.21 13.628-7 18.108-11.785-2.192.185-4.382.352-6.575.537-1.011 2.377-3.534 3.57-7.129 4.034 3.595-.465 6.121-1.675 7.129-4.034 2.193-.185 4.383-.352 6.575-.537l-.21-.09c3.293-.972 7.058-1.683 6.582-4.618l4.796-2.627 13.015-7.194c14.081-2.383 26.666-7.012 43.248-5.648l3.16.397c2.672.61 5.342 1.236 8.015 1.845 1.956 2.193 2.46 4.767 6.474 6.422l1.383 1.951 6.14 30.353c-.612 4.805-1.92 9.531.771 14.648l-.211 3.572c-1.079 2.585-2.603 5.133.973 8.053a2.505 2.505 0 0 0-.65.99c-3.347 2.063-4.675 4.405-.512 7.477-2.905 1.934-4.269 4.106-1.145 7.024-2.204 2.179-.269 4.881-.293 7.33l-.782 3.514c-1.535 9.156-5.248 18.023-2.176 27.799-.761.111-1.003.401-.729.886-3.266 2.734-3.155 5.92-.809 9.441-.352 4.794-3.593 9.309.886 14.539-.639 2.658 1.293 4.225 6.079 4.159 5.432-.067 10.553-1.359 10.422-4.621-.324-8.843 7.221-15.938 7.541-24.582-1.013-.882-2.059-1.77-3.072-2.653-.266-1.106-.564-2.217-.83-3.324.266 1.107.564 2.218.83 3.324 1.013.883 2.059 1.771 3.072 2.653 4.933-9.599 9.896-19.192 14.829-28.79 3.893-1.477 3.18-4.342 4.063-6.722 4.508-1.869 4.616-5.404 7.093-8.05 3.241-1.823-.478-5.81 4.542-7.081 6.59-3.702 10.088-8.596 12.464-13.913a619.879 619.879 0 0 1 3.328-3.109c.568-.309.863-.718.787-1.225 4.488-.407 5.116-2.994 7.39-4.63 2.828-.318 3.611-1.524 3.306-3.168 3.826-1.653 9.14-2.363 10.486-5.581.026-.728.082-1.451.108-2.18-.057.723-.082 1.452-.108 2.18 7.097-1.531 10.131-5.384 14.047-8.725 11.668-1.851 22.289-5.542 36.28-3.162-.809-1.91-1.586-3.816-2.392-5.744l-13.521-.764.053-.12ZM29.023 141.529c3.857-1.263 5.557-3.123 6.332-5.246-.772 2.105-2.471 3.965-6.332 5.246Zm61.93-109.014c2.728-2.605 5.845-5.035 9.145-7.398-.33-.915-.828-1.602-1.484-2.114a4.359 4.359 0 0 1 1.484 2.114c-3.3 2.363-6.417 4.793-9.145 7.398ZM102.26 11.45c.202.913.536 1.81 1.43 2.637-.863-.821-1.228-1.724-1.43-2.636Zm28.971 81.826c.58 1.158.8 2.348 1.214 3.534-.414-1.186-.637-2.358-1.214-3.534Zm-.61-.98c1.009-.437 1.986-.879 2.995-1.315-1.526-2.634-3.022-5.263-4.548-7.897a4.822 4.822 0 0 1 1.342-.693c-.51.154-.937.394-1.342.693 1.526 2.634 3.022 5.263 4.548 7.897-1.009.436-1.986.878-2.995 1.315Zm7.836 89.335-2.717-.342 2.717.342Zm5.555-13.505c-.001-.568.025-1.112.055-1.675-2.043-.706-4.922-.855-6.523-1.89 1.601 1.035 4.48 1.184 6.526 1.872-.03.563-.028 1.131-.055 1.675l-.003.018Zm8.285 6.779c.263-.415.429-.826.495-1.218-.069.409-.266.816-.495 1.218Zm.504-1.272c.036-.213.069-.409.042-.634.03.207.025.426-.042.634Zm22.326-37.138c-1.303.845-2.182 2.237-3.658 2.962 1.476-.725 2.355-2.117 3.627-2.968.776-4.631 4.581-8.082 8.663-11.45-4.082 3.368-7.918 6.814-8.663 11.45l.031.006Zm18.471-20.294c.313-.717-.032-1.544-1.819-2.628.114-.677.315-1.302.788-1.81-.441.513-.674 1.133-.788 1.81 1.787 1.084 2.132 1.911 1.819 2.628Zm40.396-40.032c2.874-1.554 3.96-4.377 7.121-5.719-3.161 1.342-4.247 4.165-7.121 5.72Zm95.521 26.86s-.109.074-.255.178l.255-.178Zm7.347 29.125c-.094.754-.188 1.507-.179 2.223-.041-.721.088-1.487.179-2.223Zm1.495 27.457c-4.725 1.43-5.159 2.676-3.576 3.818-1.58-1.159-1.149-2.388 3.576-3.818Zm-8.124 29.41c.953-.683 1.451-1.535.986-2.802 1.346-.911 2.352-2.099 3.815-2.936-1.432.842-2.437 2.03-3.815 2.936.465 1.267-.036 2.136-.986 2.802Zm12.88-15.436c-.299-.142-.563-.296-.828-.449.233.148.529.307.828.449Zm1.718-8.705-.31-.271.31.271Z" fill="#B5DCD9"/></svg>