<svg width="102" height="220" fill="none" xmlns="http://www.w3.org/2000/svg"><path d="M13.125 7.49a8.26 8.26 0 0 0-1.106-4.161C11.3 2.097 10.273 1.137 9.074.57A5.812 5.812 0 0 0 5.282.144C4.01.433 2.84 1.146 1.922 2.194 1.004 3.24.38 4.575.126 6.028A8.476 8.476 0 0 0 .5 10.355c.496 1.369 1.337 2.538 2.417 3.361 1.079.823 2.348 1.263 3.646 1.263a5.858 5.858 0 0 0 2.512-.568 6.572 6.572 0 0 0 2.13-1.623 7.627 7.627 0 0 0 1.423-2.431 8.4 8.4 0 0 0 .497-2.868Zm39.125 0a8.26 8.26 0 0 0-1.105-4.161C50.424 2.097 49.399 1.137 48.2.57a5.812 5.812 0 0 0-3.792-.426c-1.273.289-2.443 1.002-3.36 2.05-.918 1.047-1.543 2.381-1.796 3.834a8.475 8.475 0 0 0 .373 4.327c.497 1.369 1.338 2.538 2.417 3.361 1.08.823 2.348 1.263 3.646 1.263a5.858 5.858 0 0 0 2.513-.568 6.571 6.571 0 0 0 2.13-1.623 7.626 7.626 0 0 0 1.422-2.431 8.4 8.4 0 0 0 .498-2.868Zm39.126 0a8.26 8.26 0 0 0-1.106-4.161c-.72-1.232-1.746-2.192-2.945-2.759a5.813 5.813 0 0 0-3.792-.426c-1.273.289-2.442 1.002-3.36 2.05-.918 1.047-1.543 2.381-1.796 3.834a8.476 8.476 0 0 0 .373 4.327c.497 1.369 1.338 2.538 2.418 3.361 1.079.823 2.348 1.263 3.646 1.263a5.858 5.858 0 0 0 2.512-.568 6.57 6.57 0 0 0 2.13-1.623 7.627 7.627 0 0 0 1.423-2.431 8.4 8.4 0 0 0 .497-2.868ZM13.125 48.468a8.26 8.26 0 0 0-1.106-4.16c-.72-1.232-1.746-2.192-2.945-2.76a5.813 5.813 0 0 0-3.792-.425c-1.273.288-2.442 1.002-3.36 2.05C1.004 44.22.38 45.553.126 47.006A8.476 8.476 0 0 0 .5 51.334c.496 1.368 1.337 2.538 2.417 3.361 1.079.823 2.348 1.262 3.646 1.262a5.856 5.856 0 0 0 2.512-.567 6.57 6.57 0 0 0 2.13-1.624 7.628 7.628 0 0 0 1.423-2.43 8.4 8.4 0 0 0 .497-2.868Zm39.125 0a8.26 8.26 0 0 0-1.105-4.16c-.721-1.232-1.746-2.192-2.945-2.76a5.813 5.813 0 0 0-3.792-.425c-1.273.288-2.443 1.002-3.36 2.05-.918 1.047-1.543 2.381-1.796 3.834a8.475 8.475 0 0 0 .373 4.327c.497 1.368 1.338 2.538 2.417 3.361 1.08.823 2.348 1.262 3.646 1.262a5.856 5.856 0 0 0 2.513-.567 6.57 6.57 0 0 0 2.13-1.624 7.627 7.627 0 0 0 1.422-2.43 8.4 8.4 0 0 0 .498-2.868Zm39.126 0a8.26 8.26 0 0 0-1.106-4.16c-.72-1.232-1.746-2.192-2.945-2.76a5.814 5.814 0 0 0-3.792-.425c-1.273.288-2.442 1.002-3.36 2.05-.918 1.047-1.543 2.381-1.796 3.834a8.476 8.476 0 0 0 .373 4.327c.497 1.368 1.338 2.538 2.418 3.361 1.079.823 2.348 1.262 3.646 1.262a5.856 5.856 0 0 0 2.512-.567 6.569 6.569 0 0 0 2.13-1.624 7.628 7.628 0 0 0 1.423-2.43 8.4 8.4 0 0 0 .497-2.868ZM13.125 89.447a8.26 8.26 0 0 0-1.106-4.161c-.72-1.232-1.746-2.192-2.945-2.759a5.812 5.812 0 0 0-3.792-.426c-1.273.29-2.442 1.002-3.36 2.05C1.004 85.198.38 86.533.126 87.986A8.476 8.476 0 0 0 .5 92.313c.496 1.368 1.337 2.538 2.417 3.36 1.079.824 2.348 1.263 3.646 1.263a5.858 5.858 0 0 0 2.512-.568 6.572 6.572 0 0 0 2.13-1.623 7.628 7.628 0 0 0 1.423-2.431c.33-.91.498-1.884.497-2.867Zm39.125 0c0-1.482-.384-2.93-1.105-4.161-.721-1.232-1.746-2.192-2.945-2.759a5.812 5.812 0 0 0-3.792-.426c-1.273.29-2.443 1.002-3.36 2.05-.918 1.047-1.543 2.382-1.796 3.835a8.475 8.475 0 0 0 .373 4.327c.497 1.368 1.338 2.538 2.417 3.36 1.08.824 2.348 1.263 3.646 1.263a5.858 5.858 0 0 0 2.513-.568 6.571 6.571 0 0 0 2.13-1.623 7.627 7.627 0 0 0 1.422-2.431 8.4 8.4 0 0 0 .498-2.867Zm39.126 0c0-1.482-.385-2.93-1.106-4.161-.72-1.232-1.746-2.192-2.945-2.759a5.812 5.812 0 0 0-3.792-.426c-1.273.29-2.442 1.002-3.36 2.05-.918 1.047-1.543 2.382-1.796 3.835a8.476 8.476 0 0 0 .373 4.327c.497 1.368 1.338 2.538 2.418 3.36 1.079.824 2.348 1.263 3.646 1.263a5.858 5.858 0 0 0 2.512-.568 6.57 6.57 0 0 0 2.13-1.623 7.628 7.628 0 0 0 1.423-2.431c.33-.91.498-1.884.497-2.867Zm-78.251 40.978a8.262 8.262 0 0 0-1.106-4.161c-.72-1.231-1.746-2.191-2.945-2.758a5.811 5.811 0 0 0-3.792-.426c-1.273.289-2.442 1.002-3.36 2.049-.918 1.048-1.543 2.382-1.796 3.835a8.475 8.475 0 0 0 .374 4.327c.496 1.369 1.337 2.538 2.417 3.361 1.079.823 2.348 1.262 3.646 1.262a5.844 5.844 0 0 0 2.512-.567 6.58 6.58 0 0 0 2.13-1.623 7.634 7.634 0 0 0 1.423-2.431 8.4 8.4 0 0 0 .497-2.868Zm39.125 0a8.263 8.263 0 0 0-1.105-4.161c-.721-1.231-1.746-2.191-2.945-2.758a5.811 5.811 0 0 0-3.792-.426c-1.273.289-2.443 1.002-3.36 2.049-.918 1.048-1.543 2.382-1.796 3.835a8.474 8.474 0 0 0 .373 4.327c.497 1.369 1.338 2.538 2.417 3.361 1.08.823 2.348 1.262 3.646 1.262a5.844 5.844 0 0 0 2.513-.567 6.58 6.58 0 0 0 2.13-1.623 7.633 7.633 0 0 0 1.422-2.431 8.41 8.41 0 0 0 .498-2.868Zm39.126 0a8.263 8.263 0 0 0-1.106-4.161c-.72-1.231-1.746-2.191-2.945-2.758a5.812 5.812 0 0 0-3.792-.426c-1.273.289-2.442 1.002-3.36 2.049-.918 1.048-1.543 2.382-1.796 3.835a8.475 8.475 0 0 0 .373 4.327c.497 1.369 1.338 2.538 2.418 3.361 1.079.823 2.348 1.262 3.646 1.262a5.844 5.844 0 0 0 2.512-.567 6.58 6.58 0 0 0 2.13-1.623 7.634 7.634 0 0 0 1.423-2.431 8.4 8.4 0 0 0 .497-2.868Zm-78.251 40.988a8.257 8.257 0 0 0-1.102-4.163c-.72-1.233-1.744-2.195-2.943-2.763a5.814 5.814 0 0 0-3.793-.43c-1.273.288-2.444 1.001-3.362 2.048-.919 1.047-1.544 2.381-1.798 3.834a8.479 8.479 0 0 0 .372 4.329c.496 1.369 1.337 2.539 2.417 3.362 1.08.824 2.348 1.263 3.647 1.263 1.739 0 3.407-.788 4.638-2.19 1.23-1.403 1.922-3.305 1.924-5.29Zm39.125 0a8.258 8.258 0 0 0-1.101-4.163c-.72-1.233-1.745-2.195-2.944-2.763a5.814 5.814 0 0 0-3.792-.43c-1.274.288-2.444 1.001-3.362 2.048-.92 1.047-1.545 2.381-1.799 3.834a8.478 8.478 0 0 0 .372 4.329c.497 1.369 1.338 2.539 2.417 3.362 1.08.824 2.349 1.263 3.647 1.263 1.74 0 3.407-.788 4.638-2.19 1.23-1.403 1.923-3.305 1.925-5.29Zm39.126 0a8.258 8.258 0 0 0-1.102-4.163c-.72-1.233-1.744-2.195-2.944-2.763a5.814 5.814 0 0 0-3.792-.43c-1.273.288-2.444 1.001-3.362 2.048-.919 1.047-1.544 2.381-1.798 3.834a8.478 8.478 0 0 0 .372 4.329c.496 1.369 1.337 2.539 2.417 3.362 1.08.824 2.348 1.263 3.647 1.263 1.739 0 3.407-.788 4.637-2.19 1.231-1.403 1.923-3.305 1.925-5.29Zm-78.251 40.978a8.263 8.263 0 0 0-1.102-4.163c-.72-1.233-1.744-2.194-2.943-2.762a5.814 5.814 0 0 0-3.793-.43c-1.273.288-2.444 1-3.362 2.048-.919 1.047-1.544 2.381-1.798 3.834a8.475 8.475 0 0 0 .372 4.328c.496 1.369 1.337 2.539 2.417 3.363 1.08.823 2.348 1.263 3.647 1.263a5.866 5.866 0 0 0 2.51-.567 6.574 6.574 0 0 0 2.13-1.621 7.633 7.633 0 0 0 1.423-2.428c.33-.908.5-1.882.5-2.865Zm39.125 0a8.264 8.264 0 0 0-1.101-4.163c-.72-1.233-1.745-2.194-2.944-2.762a5.814 5.814 0 0 0-3.792-.43c-1.274.288-2.444 1-3.362 2.048-.92 1.047-1.545 2.381-1.799 3.834a8.474 8.474 0 0 0 .372 4.328c.497 1.369 1.338 2.539 2.417 3.363 1.08.823 2.349 1.263 3.647 1.263a5.866 5.866 0 0 0 2.511-.567 6.575 6.575 0 0 0 2.13-1.621 7.63 7.63 0 0 0 1.422-2.428c.33-.908.5-1.882.5-2.865Zm39.126 0a8.264 8.264 0 0 0-1.102-4.163c-.72-1.233-1.744-2.194-2.944-2.762a5.814 5.814 0 0 0-3.792-.43c-1.273.288-2.444 1-3.362 2.048-.919 1.047-1.544 2.381-1.798 3.834a8.474 8.474 0 0 0 .372 4.328c.496 1.369 1.337 2.539 2.417 3.363 1.08.823 2.348 1.263 3.647 1.263a5.866 5.866 0 0 0 2.51-.567 6.575 6.575 0 0 0 2.13-1.621 7.628 7.628 0 0 0 1.422-2.428c.33-.908.5-1.882.5-2.865Z" fill="#ED634D"/></svg>