<svg width="98" height="98" fill="none" xmlns="http://www.w3.org/2000/svg"><path d="M89.58 0H7.96A7.96 7.96 0 0 0 0 7.96v81.62a7.96 7.96 0 0 0 7.96 7.96h81.62a7.96 7.96 0 0 0 7.96-7.96V7.96A7.96 7.96 0 0 0 89.58 0Z" fill="#96DBD3"/><path d="M54.4 16.3a5.29 5.29 0 1 0-10.58-.02 5.29 5.29 0 0 0 10.58.02Zm-8.49 0a3.21 3.21 0 1 1 6.42 0 3.21 3.21 0 0 1-6.42 0Zm-4.63 12v2.38a1 1 0 0 0 1 1h13.63a1 1 0 0 0 1-1v-2.42a5.71 5.71 0 0 0-5.71-5.71h-4.25a5.71 5.71 0 0 0-5.67 5.75Zm2.07 0a3.64 3.64 0 0 1 3.64-3.64h4.25a3.64 3.64 0 0 1 3.64 3.64v1.38H43.35V28.3Zm-6.33 8.53a5.28 5.28 0 1 0 5.28 5.28 5.29 5.29 0 0 0-5.28-5.28Zm0 8.49a3.21 3.21 0 1 1 .001-6.42 3.21 3.21 0 0 1 0 6.42Zm7.84 11.2v-2.41a5.72 5.72 0 0 0-5.71-5.71H34.9a5.71 5.71 0 0 0-5.71 5.71v2.41a1 1 0 0 0 1 1h13.6a1 1 0 0 0 1.07-1Zm-2.08-1H31.26v-1.38a3.64 3.64 0 0 1 3.64-3.64h4.25a3.64 3.64 0 0 1 3.63 3.64v1.38Zm13.15-13.41a5.28 5.28 0 1 0 5.28-5.28 5.29 5.29 0 0 0-5.28 5.28Zm8.49 0a3.21 3.21 0 1 1-6.42 0 3.21 3.21 0 0 1 6.42 0Zm4.62 14.41v-2.41a5.71 5.71 0 0 0-5.71-5.71h-4.25a5.71 5.71 0 0 0-5.71 5.71v2.41a1 1 0 0 0 1 1h13.6a.999.999 0 0 0 1.07-1Zm-2.07-1H55.45v-1.38a3.64 3.64 0 0 1 3.63-3.64h4.25a3.64 3.64 0 0 1 3.64 3.64v1.38ZM43 67.89a5.28 5.28 0 1 0 5.28-5.28A5.29 5.29 0 0 0 43 67.89Zm5.28-3.2a3.21 3.21 0 1 1-3.21 3.2 3.21 3.21 0 0 1 3.21-3.21v.01Zm7.83 17.62v-2.42a5.71 5.71 0 0 0-5.71-5.71h-4.25a5.71 5.71 0 0 0-5.71 5.71v2.42a1 1 0 0 0 1 1h13.6a1 1 0 0 0 1.07-1Zm-2.07-1H42.52v-1.38a3.64 3.64 0 0 1 3.63-3.63h4.25a3.64 3.64 0 0 1 3.64 3.63v1.38ZM21.59 67.89a5.28 5.28 0 1 0 5.28-5.28 5.29 5.29 0 0 0-5.28 5.28Zm8.49 0a3.21 3.21 0 1 1-6.42.02 3.21 3.21 0 0 1 6.42-.02ZM29 74.18h-4.29A5.71 5.71 0 0 0 19 79.89v2.42a1 1 0 0 0 1 1h13.71a1 1 0 0 0 1-1v-2.42A5.71 5.71 0 0 0 29 74.18Zm3.64 7.09H21.11v-1.38a3.64 3.64 0 0 1 3.64-3.63H29a3.64 3.64 0 0 1 3.64 3.63v1.38ZM64.4 67.89a5.28 5.28 0 1 0 5.28-5.28 5.29 5.29 0 0 0-5.28 5.28Zm8.49 0a3.21 3.21 0 1 1-6.42 0 3.21 3.21 0 0 1 6.42 0ZM62.88 83.35h13.6a1 1 0 0 0 1-1v-2.42a5.71 5.71 0 0 0-5.71-5.71h-4.25a5.71 5.71 0 0 0-5.71 5.71v2.42a.999.999 0 0 0 1.07 1Zm1-3.46a3.64 3.64 0 0 1 3.64-3.63h4.25a3.64 3.64 0 0 1 3.63 3.63v1.38H63.92l-.04-1.38ZM19.32 42.05a2.12 2.12 0 0 0 1.85 1.09h7.05a1.035 1.035 0 0 0 0-2.07L21.13 41l8.66-13.74h8.76a1.04 1.04 0 0 0 0-2.08h-9.34a1 1 0 0 0-.87.49l-9 14.23a2.12 2.12 0 0 0-.02 2.15Zm-1.54 25.33-3.7-.07 8.61-13.3h3.57a1.035 1.035 0 1 0 0-2.07h-4.13a1 1 0 0 0-.87.48l-8.92 13.76a2.1 2.1 0 0 0-.08 2.16 2.12 2.12 0 0 0 1.86 1.11h3.66a1.035 1.035 0 1 0 0-2.07Zm61.04-25.33a2.101 2.101 0 0 0-.06-2.15l-9-14.23a1 1 0 0 0-.87-.49h-8.78a1.04 1.04 0 1 0 0 2.08h8.2l8.62 13.81h-6.47a1.035 1.035 0 1 0 0 2.07h6.47a2.12 2.12 0 0 0 1.89-1.09Zm-.49 26.36a1 1 0 0 0 1 1h5.12a2.12 2.12 0 0 0 1.78-3.27l-8.92-13.76a1 1 0 0 0-.87-.48h-4.23a1.035 1.035 0 1 0 0 2.07h3.71l8.57 13.37h-5.12a1 1 0 0 0-1.04 1.07Z" fill="#00344E"/></svg>