<svg width="98" height="98" fill="none" xmlns="http://www.w3.org/2000/svg"><path d="M89.58 0H7.96A7.96 7.96 0 0 0 0 7.96v81.62a7.96 7.96 0 0 0 7.96 7.96h81.62a7.96 7.96 0 0 0 7.96-7.96V7.96A7.96 7.96 0 0 0 89.58 0Z" fill="#96DBD3"/><path d="M21.55 32.6v34.11a1.035 1.035 0 1 0 2.07 0V32.6a1.035 1.035 0 0 0-2.07 0Zm9.75 42.76a1.035 1.035 0 1 0 0 2.07h34a1.035 1.035 0 1 0 0-2.07h-34Zm45.13-8.65V33.85a1.035 1.035 0 0 0-2.07 0v32.86a1.035 1.035 0 1 0 2.07 0ZM65.27 22.55h-33a1.035 1.035 0 1 0 0 2.07h33a1.035 1.035 0 1 0 0-2.07ZM28.14 17h-11.1a1 1 0 0 0-1 1v11.1a1 1 0 0 0 1 1h11.1a1 1 0 0 0 1-1V18a1 1 0 0 0-1-1Zm-1 11.1h-9v-9h9v9ZM80.94 17H69.85a1 1 0 0 0-1 1v11.1a1 1 0 0 0 1 1h11.09a1 1 0 0 0 1-1V18a1 1 0 0 0-1-1Zm-1 11.1h-9v-9h9v9ZM16 81.94a1 1 0 0 0 1 1h11.1a1 1 0 0 0 1-1V70.85a1 1 0 0 0-1-1H17a1 1 0 0 0-1 1v11.09Zm2.08-10.06h9v9h-9v-9Zm62.86-2.07H69.85a1 1 0 0 0-1 1V81.9a1 1 0 0 0 1 1h11.09a1 1 0 0 0 1-1V70.85a.999.999 0 0 0-1-1.04Zm-1 11.1h-9v-9h9v9ZM69.06 35.98a5.26 5.26 0 0 0-7.42-.27L34.95 60.55a1.1 1.1 0 0 0-.31.53l-1.68 7.3a1.07 1.07 0 0 0 .26 1 1 1 0 0 0 .77.34h.16l7.4-1.15a1.06 1.06 0 0 0 .55-.27l.8-.74 25.89-24.09a5.25 5.25 0 0 0 .27-7.49ZM35.37 67.33l1.18-5.12 4 4.31-5.18.81Zm6.87-2.11-4.28-4.59 22.58-21 4.27 4.59-22.57 21Zm25.11-23.37-1 .93-4.28-4.6 1-.93a3.14 3.14 0 0 1 4.27 4.6h.01Zm-37.98-6.97a1.05 1.05 0 0 0-.8.58 10.56 10.56 0 0 0 13.22 14.47l1 1.29a1.05 1.05 0 0 0 .83.41 1 1 0 0 0 .64-.22 1.06 1.06 0 0 0 .2-1.48L42.97 48a1 1 0 0 0-1.29-.31 8.46 8.46 0 0 1-11.78-9.77l3.67 4.05a4.634 4.634 0 1 0 6.87-6.22l-3.67-4a8.45 8.45 0 0 1 8.56 12.69 1 1 0 0 0 .18 1.31L46.83 47a1.06 1.06 0 0 0 1.45-1.54l-.74-.69A10.55 10.55 0 0 0 34.5 30.13a1 1 0 0 0-.66.73 1.08 1.08 0 0 0 .24 1l4.84 5.35a2.53 2.53 0 0 1-3.75 3.39l-4.87-5.37a1.06 1.06 0 0 0-.93-.35ZM65.5 61.64l-7.08-6.66a1.054 1.054 0 0 0-1.44 1.54l7.07 6.66a.47.47 0 0 1 .11.533.45.45 0 0 1-.12.157l-4.83 4.36a.45.45 0 0 1-.36.12.44.44 0 0 1-.35-.12l-5.85-7.59a1.054 1.054 0 0 0-1.475-.195 1.052 1.052 0 0 0-.195 1.475l5.85 7.6a2.569 2.569 0 0 0 1.81 1h.23a2.56 2.56 0 0 0 1.73-.66l4.86-4.4a2.599 2.599 0 0 0 .647-2.934 2.63 2.63 0 0 0-.607-.886Z" fill="#00344E"/></svg>