<svg width="352" height="240" fill="none" xmlns="http://www.w3.org/2000/svg"><path d="M3.302 53.536 1.88 54.703a3.527 3.527 0 0 0-.945 1.19 3.538 3.538 0 0 0-.353 1.478 3.443 3.443 0 0 0 1.208 2.69c-.327.762-.473 1.605-.617 2.447-.066.383-.132.766-.217 1.142-.665 2.812 2.341 4.286 4.604 3.696l43.698-12.357c3.792-1.031 2.122-7.066-1.611-6.561a10033.166 10033.166 0 0 0-32.19 4.094C45.874 28.838 77.008 9.799 116.99 7.726c43.931-1.865 87.456 8.212 126.043 29.182C315.53 76.34 361.791 153.759 355.695 238.08c-.107 1.61 2.326 1.985 2.499.319C367.05 154.766 322.212 75.5 251.198 34.374a249.064 249.064 0 0 0-128.946-33.33C78.61 1.998 45.124 21.249 11.895 46.899l6.426-27.164c1.018-4.402-5.789-5.315-6.825-.964L3.302 53.536Z" fill="#ED634D" stroke="#ED634D"/></svg>