<svg width="171" height="174" fill="none" xmlns="http://www.w3.org/2000/svg"><path d="M10.824 5.53a5.616 5.616 0 0 0-.912-3.072A5.44 5.44 0 0 0 7.482.42 5.305 5.305 0 0 0 4.357.106a5.377 5.377 0 0 0-2.77 1.514A5.568 5.568 0 0 0 .103 4.45a5.642 5.642 0 0 0 .308 3.195 5.506 5.506 0 0 0 1.993 2.482 5.33 5.33 0 0 0 6.836-.686 5.533 5.533 0 0 0 1.173-1.795c.271-.671.41-1.39.41-2.117Zm31.894 0a5.616 5.616 0 0 0-.912-3.072A5.44 5.44 0 0 0 39.376.42 5.305 5.305 0 0 0 36.25.106a5.377 5.377 0 0 0-2.771 1.514 5.568 5.568 0 0 0-1.481 2.831 5.642 5.642 0 0 0 .308 3.195 5.506 5.506 0 0 0 1.993 2.482 5.33 5.33 0 0 0 6.836-.686 5.532 5.532 0 0 0 1.172-1.795c.272-.671.411-1.39.41-2.117Zm31.893 0a5.615 5.615 0 0 0-.912-3.072A5.439 5.439 0 0 0 71.271.42a5.305 5.305 0 0 0-3.127-.315 5.377 5.377 0 0 0-2.771 1.514A5.569 5.569 0 0 0 63.89 4.45a5.642 5.642 0 0 0 .308 3.195 5.506 5.506 0 0 0 1.994 2.482 5.33 5.33 0 0 0 5.078.513 5.399 5.399 0 0 0 1.757-1.199A5.533 5.533 0 0 0 74.2 7.646c.272-.671.411-1.39.41-2.117Zm31.869 0a5.621 5.621 0 0 0-.912-3.072A5.44 5.44 0 0 0 103.139.42a5.305 5.305 0 0 0-3.127-.315 5.377 5.377 0 0 0-2.771 1.514A5.569 5.569 0 0 0 95.76 4.45a5.642 5.642 0 0 0 .308 3.195 5.506 5.506 0 0 0 1.993 2.482 5.33 5.33 0 0 0 6.835-.686 5.517 5.517 0 0 0 1.173-1.795 5.64 5.64 0 0 0 .411-2.117Zm31.919 0a5.621 5.621 0 0 0-.912-3.072A5.44 5.44 0 0 0 135.058.42a5.305 5.305 0 0 0-3.127-.315 5.377 5.377 0 0 0-2.771 1.514 5.568 5.568 0 0 0-1.481 2.831 5.637 5.637 0 0 0 .308 3.195 5.508 5.508 0 0 0 1.993 2.482c.89.607 1.937.932 3.007.932a5.355 5.355 0 0 0 3.827-1.62 5.591 5.591 0 0 0 1.585-3.91Zm31.887 0a5.615 5.615 0 0 0-.912-3.073 5.44 5.44 0 0 0-2.43-2.037 5.306 5.306 0 0 0-3.128-.313 5.379 5.379 0 0 0-2.771 1.515 5.564 5.564 0 0 0-1.479 2.833 5.63 5.63 0 0 0 .31 3.196 5.507 5.507 0 0 0 1.996 2.48 5.33 5.33 0 0 0 6.833-.691 5.53 5.53 0 0 0 1.171-1.794c.272-.671.411-1.39.41-2.116ZM10.824 38.12a5.616 5.616 0 0 0-.912-3.073 5.44 5.44 0 0 0-2.43-2.037 5.305 5.305 0 0 0-3.126-.315 5.378 5.378 0 0 0-2.77 1.514A5.569 5.569 0 0 0 .103 37.04a5.642 5.642 0 0 0 .308 3.195 5.506 5.506 0 0 0 1.993 2.482 5.33 5.33 0 0 0 6.836-.686 5.533 5.533 0 0 0 1.173-1.795c.271-.67.41-1.39.41-2.117Zm31.894 0a5.617 5.617 0 0 0-.912-3.073 5.44 5.44 0 0 0-2.43-2.037 5.305 5.305 0 0 0-3.126-.315 5.378 5.378 0 0 0-2.771 1.514 5.568 5.568 0 0 0-1.481 2.831 5.642 5.642 0 0 0 .308 3.195 5.506 5.506 0 0 0 1.993 2.482 5.33 5.33 0 0 0 6.836-.686 5.53 5.53 0 0 0 1.172-1.795 5.61 5.61 0 0 0 .41-2.117Zm31.893 0a5.616 5.616 0 0 0-.912-3.073 5.439 5.439 0 0 0-2.428-2.037 5.305 5.305 0 0 0-3.127-.315 5.378 5.378 0 0 0-2.771 1.514 5.569 5.569 0 0 0-1.482 2.831 5.642 5.642 0 0 0 .308 3.195 5.506 5.506 0 0 0 1.994 2.482 5.33 5.33 0 0 0 6.835-.686 5.533 5.533 0 0 0 1.173-1.795 5.61 5.61 0 0 0 .41-2.117Zm31.869 0a5.622 5.622 0 0 0-.912-3.073 5.441 5.441 0 0 0-2.429-2.037 5.305 5.305 0 0 0-3.127-.315 5.378 5.378 0 0 0-2.771 1.514 5.57 5.57 0 0 0-1.481 2.831 5.642 5.642 0 0 0 .308 3.195 5.506 5.506 0 0 0 1.993 2.482 5.33 5.33 0 0 0 6.835-.686 5.517 5.517 0 0 0 1.173-1.795 5.64 5.64 0 0 0 .411-2.117Zm31.919 0a5.622 5.622 0 0 0-.912-3.073 5.441 5.441 0 0 0-2.429-2.037 5.305 5.305 0 0 0-3.127-.315 5.378 5.378 0 0 0-2.771 1.514 5.569 5.569 0 0 0-1.481 2.831 5.637 5.637 0 0 0 .308 3.195 5.508 5.508 0 0 0 1.993 2.482 5.312 5.312 0 0 0 5.078.511 5.418 5.418 0 0 0 1.756-1.199 5.549 5.549 0 0 0 1.173-1.794 5.63 5.63 0 0 0 .412-2.116Zm31.887 0a5.616 5.616 0 0 0-.912-3.074 5.44 5.44 0 0 0-2.43-2.036 5.306 5.306 0 0 0-3.128-.314 5.379 5.379 0 0 0-2.771 1.515 5.563 5.563 0 0 0-1.479 2.833 5.631 5.631 0 0 0 .31 3.196 5.507 5.507 0 0 0 1.996 2.48 5.332 5.332 0 0 0 5.079.508 5.398 5.398 0 0 0 1.754-1.2c.502-.513.9-1.122 1.171-1.793a5.61 5.61 0 0 0 .41-2.116ZM10.824 70.708a5.616 5.616 0 0 0-.912-3.072 5.438 5.438 0 0 0-2.43-2.037 5.304 5.304 0 0 0-3.126-.314 5.377 5.377 0 0 0-2.77 1.513 5.568 5.568 0 0 0-1.482 2.831 5.642 5.642 0 0 0 .308 3.195 5.506 5.506 0 0 0 1.993 2.482 5.33 5.33 0 0 0 6.836-.686 5.534 5.534 0 0 0 1.173-1.795c.271-.67.41-1.39.41-2.117Zm31.894 0a5.617 5.617 0 0 0-.912-3.072 5.439 5.439 0 0 0-2.43-2.037 5.304 5.304 0 0 0-3.126-.314 5.377 5.377 0 0 0-2.771 1.513 5.568 5.568 0 0 0-1.481 2.831 5.642 5.642 0 0 0 .308 3.195 5.506 5.506 0 0 0 1.993 2.482 5.33 5.33 0 0 0 6.836-.686 5.532 5.532 0 0 0 1.172-1.795 5.61 5.61 0 0 0 .41-2.117Zm31.893 0a5.616 5.616 0 0 0-.912-3.072 5.438 5.438 0 0 0-2.428-2.037 5.305 5.305 0 0 0-3.127-.314 5.376 5.376 0 0 0-2.771 1.513 5.569 5.569 0 0 0-1.482 2.831 5.642 5.642 0 0 0 .308 3.195 5.506 5.506 0 0 0 1.994 2.482 5.33 5.33 0 0 0 5.078.513 5.398 5.398 0 0 0 1.757-1.199 5.534 5.534 0 0 0 1.173-1.795 5.61 5.61 0 0 0 .41-2.117Zm31.869 0a5.622 5.622 0 0 0-.912-3.072 5.44 5.44 0 0 0-2.429-2.037 5.304 5.304 0 0 0-3.127-.314 5.376 5.376 0 0 0-2.771 1.513 5.569 5.569 0 0 0-1.481 2.831 5.642 5.642 0 0 0 .308 3.195 5.506 5.506 0 0 0 1.993 2.482 5.33 5.33 0 0 0 6.835-.686 5.518 5.518 0 0 0 1.173-1.795 5.64 5.64 0 0 0 .411-2.117Zm31.919 0a5.622 5.622 0 0 0-.912-3.072 5.44 5.44 0 0 0-2.429-2.037 5.304 5.304 0 0 0-3.127-.314 5.376 5.376 0 0 0-2.771 1.513 5.569 5.569 0 0 0-1.481 2.831 5.637 5.637 0 0 0 .308 3.195 5.508 5.508 0 0 0 1.993 2.482 5.33 5.33 0 0 0 3.007.932 5.355 5.355 0 0 0 3.827-1.62 5.591 5.591 0 0 0 1.585-3.91Zm31.887 0a5.616 5.616 0 0 0-.912-3.073 5.441 5.441 0 0 0-2.43-2.036 5.306 5.306 0 0 0-3.128-.314 5.378 5.378 0 0 0-2.771 1.515 5.564 5.564 0 0 0-1.479 2.834 5.63 5.63 0 0 0 .31 3.195 5.507 5.507 0 0 0 1.996 2.48 5.33 5.33 0 0 0 5.079.508 5.401 5.401 0 0 0 1.754-1.199 5.52 5.52 0 0 0 1.171-1.794 5.61 5.61 0 0 0 .41-2.116Zm-159.462 32.59a5.614 5.614 0 0 0-.912-3.072 5.438 5.438 0 0 0-2.43-2.037 5.304 5.304 0 0 0-3.126-.314 5.377 5.377 0 0 0-2.77 1.513 5.569 5.569 0 0 0-1.482 2.831 5.641 5.641 0 0 0 .308 3.195 5.506 5.506 0 0 0 1.993 2.482 5.328 5.328 0 0 0 6.836-.686 5.52 5.52 0 0 0 1.173-1.795c.271-.671.41-1.39.41-2.117Zm31.894 0a5.614 5.614 0 0 0-.912-3.072 5.439 5.439 0 0 0-2.43-2.037 5.304 5.304 0 0 0-3.126-.314 5.377 5.377 0 0 0-2.771 1.513 5.569 5.569 0 0 0-1.481 2.831 5.642 5.642 0 0 0 .308 3.195 5.506 5.506 0 0 0 1.993 2.482 5.327 5.327 0 0 0 6.836-.686 5.518 5.518 0 0 0 1.172-1.795c.272-.671.411-1.39.41-2.117Zm31.893 0a5.613 5.613 0 0 0-.912-3.072 5.438 5.438 0 0 0-2.428-2.037 5.305 5.305 0 0 0-3.127-.314 5.376 5.376 0 0 0-2.771 1.513 5.57 5.57 0 0 0-1.482 2.831 5.641 5.641 0 0 0 .308 3.195 5.506 5.506 0 0 0 1.994 2.482 5.328 5.328 0 0 0 6.835-.686 5.52 5.52 0 0 0 1.173-1.795c.272-.671.411-1.39.41-2.117Zm31.869 0a5.619 5.619 0 0 0-.912-3.072 5.44 5.44 0 0 0-2.429-2.037 5.304 5.304 0 0 0-3.127-.314 5.376 5.376 0 0 0-2.771 1.513 5.57 5.57 0 0 0-1.481 2.831 5.642 5.642 0 0 0 .308 3.195 5.506 5.506 0 0 0 1.993 2.482 5.327 5.327 0 0 0 6.835-.686 5.503 5.503 0 0 0 1.173-1.795c.272-.671.411-1.39.411-2.117Zm31.919 0a5.619 5.619 0 0 0-.912-3.072 5.44 5.44 0 0 0-2.429-2.037 5.304 5.304 0 0 0-3.127-.314 5.376 5.376 0 0 0-2.771 1.513 5.57 5.57 0 0 0-1.481 2.831 5.636 5.636 0 0 0 .308 3.195 5.508 5.508 0 0 0 1.993 2.482 5.33 5.33 0 0 0 3.007.932 5.356 5.356 0 0 0 3.827-1.62 5.59 5.59 0 0 0 1.585-3.91Zm31.887 0a5.616 5.616 0 0 0-.912-3.073 5.443 5.443 0 0 0-2.43-2.036 5.307 5.307 0 0 0-3.128-.314 5.38 5.38 0 0 0-2.771 1.515 5.562 5.562 0 0 0-1.479 2.833 5.631 5.631 0 0 0 .31 3.196 5.503 5.503 0 0 0 1.996 2.48 5.333 5.333 0 0 0 5.079.508 5.394 5.394 0 0 0 1.754-1.199 5.53 5.53 0 0 0 1.171-1.794c.272-.671.411-1.39.41-2.116ZM10.824 135.887a5.615 5.615 0 0 0-.91-3.074 5.444 5.444 0 0 0-2.427-2.04 5.306 5.306 0 0 0-3.127-.317 5.38 5.38 0 0 0-2.773 1.512 5.566 5.566 0 0 0-1.483 2.831 5.642 5.642 0 0 0 .307 3.196 5.506 5.506 0 0 0 1.993 2.483 5.33 5.33 0 0 0 3.008.932 5.35 5.35 0 0 0 3.824-1.617 5.593 5.593 0 0 0 1.588-3.906Zm31.894 0a5.615 5.615 0 0 0-.91-3.074 5.444 5.444 0 0 0-2.427-2.04 5.306 5.306 0 0 0-3.127-.317 5.38 5.38 0 0 0-2.773 1.512 5.566 5.566 0 0 0-1.483 2.831 5.642 5.642 0 0 0 .307 3.196 5.507 5.507 0 0 0 1.993 2.483 5.33 5.33 0 0 0 3.008.932 5.35 5.35 0 0 0 3.824-1.617 5.593 5.593 0 0 0 1.588-3.906Zm31.893 0a5.615 5.615 0 0 0-.909-3.074 5.444 5.444 0 0 0-2.427-2.04 5.306 5.306 0 0 0-3.127-.317 5.38 5.38 0 0 0-2.773 1.512 5.567 5.567 0 0 0-1.483 2.831 5.643 5.643 0 0 0 .307 3.196 5.505 5.505 0 0 0 1.993 2.483 5.33 5.33 0 0 0 3.007.932c1.434 0 2.81-.581 3.825-1.617a5.593 5.593 0 0 0 1.587-3.906Zm31.869 0a5.617 5.617 0 0 0-.909-3.074 5.445 5.445 0 0 0-2.428-2.04 5.305 5.305 0 0 0-3.127-.317 5.38 5.38 0 0 0-2.773 1.512 5.567 5.567 0 0 0-1.483 2.831 5.643 5.643 0 0 0 .307 3.196 5.506 5.506 0 0 0 1.993 2.483 5.33 5.33 0 0 0 3.008.932 5.352 5.352 0 0 0 3.824-1.617 5.594 5.594 0 0 0 1.588-3.906Zm31.919 0a5.617 5.617 0 0 0-.909-3.074 5.445 5.445 0 0 0-2.428-2.04 5.304 5.304 0 0 0-3.127-.317 5.384 5.384 0 0 0-2.773 1.512 5.575 5.575 0 0 0-1.483 2.831 5.649 5.649 0 0 0 .307 3.196 5.506 5.506 0 0 0 1.994 2.483c.89.608 1.936.932 3.007.932a5.36 5.36 0 0 0 3.822-1.619 5.598 5.598 0 0 0 1.59-3.904Zm31.887 0a5.623 5.623 0 0 0-.909-3.075 5.44 5.44 0 0 0-2.429-2.039 5.3 5.3 0 0 0-3.128-.317 5.388 5.388 0 0 0-2.773 1.514 5.575 5.575 0 0 0-1.481 2.833 5.636 5.636 0 0 0 .31 3.197 5.505 5.505 0 0 0 1.996 2.481 5.33 5.33 0 0 0 3.009.929 5.355 5.355 0 0 0 3.82-1.619 5.597 5.597 0 0 0 1.585-3.904Zm-159.462 32.59a5.615 5.615 0 0 0-.91-3.074 5.438 5.438 0 0 0-2.427-2.04 5.306 5.306 0 0 0-3.127-.317 5.374 5.374 0 0 0-2.773 1.512 5.566 5.566 0 0 0-1.483 2.831 5.642 5.642 0 0 0 .307 3.196 5.506 5.506 0 0 0 1.993 2.483 5.33 5.33 0 0 0 6.834-.683 5.529 5.529 0 0 0 1.174-1.793c.272-.67.412-1.389.412-2.115Zm31.894 0a5.615 5.615 0 0 0-.91-3.074 5.438 5.438 0 0 0-2.427-2.04 5.306 5.306 0 0 0-3.127-.317 5.373 5.373 0 0 0-2.773 1.512 5.566 5.566 0 0 0-1.483 2.831 5.642 5.642 0 0 0 .307 3.196 5.507 5.507 0 0 0 1.993 2.483 5.329 5.329 0 0 0 6.834-.683 5.529 5.529 0 0 0 1.174-1.793c.272-.67.412-1.389.412-2.115Zm31.893 0a5.615 5.615 0 0 0-.909-3.074 5.438 5.438 0 0 0-2.427-2.04 5.306 5.306 0 0 0-3.127-.317 5.374 5.374 0 0 0-2.773 1.512 5.567 5.567 0 0 0-1.483 2.831 5.643 5.643 0 0 0 .307 3.196 5.505 5.505 0 0 0 1.993 2.483 5.329 5.329 0 0 0 6.834-.683 5.53 5.53 0 0 0 1.173-1.793c.272-.67.412-1.389.412-2.115Zm31.869 0a5.617 5.617 0 0 0-.909-3.074 5.439 5.439 0 0 0-2.428-2.04 5.305 5.305 0 0 0-3.127-.317 5.374 5.374 0 0 0-2.773 1.512 5.567 5.567 0 0 0-1.483 2.831 5.643 5.643 0 0 0 .307 3.196 5.506 5.506 0 0 0 1.993 2.483 5.33 5.33 0 0 0 6.834-.683 5.54 5.54 0 0 0 1.174-1.793c.272-.67.412-1.389.412-2.115Zm31.919 0a5.617 5.617 0 0 0-.909-3.074 5.439 5.439 0 0 0-2.428-2.04 5.304 5.304 0 0 0-3.127-.317 5.377 5.377 0 0 0-2.773 1.512 5.575 5.575 0 0 0-1.483 2.831 5.649 5.649 0 0 0 .307 3.196 5.506 5.506 0 0 0 1.994 2.483c.89.608 1.936.932 3.007.932 1.434 0 2.81-.582 3.824-1.617a5.594 5.594 0 0 0 1.588-3.906Zm31.887 0a5.62 5.62 0 0 0-.909-3.075 5.44 5.44 0 0 0-2.429-2.039 5.3 5.3 0 0 0-3.128-.317 5.38 5.38 0 0 0-2.773 1.514 5.575 5.575 0 0 0-1.481 2.833 5.636 5.636 0 0 0 .31 3.197 5.505 5.505 0 0 0 1.996 2.481 5.33 5.33 0 0 0 3.009.929 5.348 5.348 0 0 0 3.822-1.618 5.585 5.585 0 0 0 1.583-3.905Z" fill="#B5DCD9"/></svg>