<svg width="98" height="98" fill="none" xmlns="http://www.w3.org/2000/svg"><path d="M89.58 0H7.96A7.96 7.96 0 0 0 0 7.96v81.62a7.96 7.96 0 0 0 7.96 7.96h81.62a7.96 7.96 0 0 0 7.96-7.96V7.96A7.96 7.96 0 0 0 89.58 0Z" fill="#96DBD3"/><path d="M39.37 72.07a.52.52 0 0 0 .59-.59v-1.79h1.32a2.63 2.63 0 0 0 1-.2c.31-.126.59-.317.82-.56.224-.249.4-.537.52-.85a3.27 3.27 0 0 0 0-2.14 2.542 2.542 0 0 0-.52-.84c-.22-.24-.49-.427-.79-.55a2.63 2.63 0 0 0-1-.2h-2.64a.6.6 0 0 0-.6.6v6.53a.52.52 0 0 0 .6.59h.7Zm.59-6.1h1a.88.88 0 0 1 .71.29 1.29 1.29 0 0 1 0 1.51.88.88 0 0 1-.74.3H40l-.04-2.1Zm7.15-1.62h-.71a.59.59 0 0 0-.59.59v6.54c0 .326.264.59.59.59h.71a.59.59 0 0 0 .59-.59v-6.54a.59.59 0 0 0-.59-.59Zm9 .2a.5.5 0 0 0-.47-.2h-.84a.77.77 0 0 0-.71.42l-.59 1.16a3.13 3.13 0 0 0-.19.36c-.06.12-.1.23-.15.32-.05.09-.09.21-.14.31 0-.1-.09-.2-.14-.31l-.15-.32-.23-.36-.62-1.17a.76.76 0 0 0-.7-.42h-.85a.48.48 0 0 0-.46.2.48.48 0 0 0 .07.51l1.92 3.18-1.91 3.12a.48.48 0 0 0-.07.51c.07.14.23.2.48.2h.77a.77.77 0 0 0 .71-.42l.66-1.2.18-.35c.06-.113.11-.213.15-.3.05-.11.1-.21.14-.31 0 .1.09.2.14.31.05.11.09.19.15.3.06.11.12.23.19.35l.66 1.2a.761.761 0 0 0 .7.42h.79a.42.42 0 0 0 .4-.71l-1.9-3.11 1.94-3.18a.52.52 0 0 0 .07-.51Zm6.39 1.38a.52.52 0 0 0 .59-.59v-.41a.52.52 0 0 0-.59-.6h-3.64a.6.6 0 0 0-.6.6v6.53a.59.59 0 0 0 .6.59h3.8a.52.52 0 0 0 .59-.59v-.43a.52.52 0 0 0-.59-.6h-2.51V69h1.76a.53.53 0 0 0 .6-.6v-.47a.52.52 0 0 0-.6-.59h-1.76v-1.41h2.35Zm4.19-1.58h-.7a.53.53 0 0 0-.6.6v6.53a.588.588 0 0 0 .6.59h3.85a.52.52 0 0 0 .6-.59v-.43a.53.53 0 0 0-.6-.6h-2.56v-5.52a.52.52 0 0 0-.59-.58ZM28.37 31.78V18a1 1 0 0 0-1-1H13a1 1 0 0 0-1 1v13.78a1 1 0 0 0 1 1h14.33a1 1 0 0 0 1.04-1Zm-2.07-1H14.04V19.04H26.3v11.74Z" fill="#00344E"/><path d="M76.14 61.68a1 1 0 0 0-1 1V77.3h-55.3V38.05h13.3a1 1 0 0 0 1-1V24.28H75.1v26.77a1.035 1.035 0 0 0 2.07 0V23.24a1 1 0 0 0-1-1h-43a1 1 0 0 0-1 1v12.74H18.8a1 1 0 0 0-1 1v41.36a1 1 0 0 0 1 1h57.34a1 1 0 0 0 1-1V62.72a.999.999 0 0 0-1-1.04Z" fill="#00344E"/><path d="M83.5 23.46a1 1 0 0 0-1 1v31.6H27.26l2.67-3.42a1.033 1.033 0 0 0-1.63-1.27l-4.2 5.38a1 1 0 0 0 .08 1.37l4.85 4.81a1.001 1.001 0 0 0 .73.3 1 1 0 0 0 .74-1.75l-3.35-3.32H83.5a1 1 0 0 0 1-1V24.49a1.001 1.001 0 0 0-1-1.03Z" fill="#00344E"/><path d="M55.1 44.67v6.38a1.04 1.04 0 0 0 2.08 0v-6.38a1.04 1.04 0 0 0-2.08 0Zm4.8-5.6v12a1.035 1.035 0 1 0 2.07 0v-12a1.035 1.035 0 1 0-2.07 0Zm4.6-7.29v19.27a1.035 1.035 0 1 0 2.07 0V31.78a1.035 1.035 0 1 0-2.07 0Zm4.83-3.97v23.24a1.035 1.035 0 1 0 2.07 0V27.81a1.035 1.035 0 0 0-2.07 0ZM43.71 52h.25a.83.83 0 0 0 .9-.93v-1.7a6.472 6.472 0 0 0 1.77-.44 5.532 5.532 0 0 0 1.57-1 4.423 4.423 0 0 0 1-1.42 4.26 4.26 0 0 0 .37-1.8 3.7 3.7 0 0 0-.69-2.3 6.11 6.11 0 0 0-1.63-1.48 12.671 12.671 0 0 0-2.13-1c-.74-.26-1.44-.54-2.06-.83a6.003 6.003 0 0 1-1.53-1 1.66 1.66 0 0 1-.56-1.31 2.058 2.058 0 0 1 .8-1.74 3.78 3.78 0 0 1 2.33-.64c.577 0 1.15.092 1.7.27a5.858 5.858 0 0 1 1.51.71.84.84 0 0 0 1.32-.21l.22-.4a.93.93 0 0 0-.24-1.27 7.299 7.299 0 0 0-1.72-.87 9.003 9.003 0 0 0-1.75-.44v-1.49a.809.809 0 0 0-.92-.86h-.23a.84.84 0 0 0-.92.92v1.51a5.74 5.74 0 0 0-3.28 1.43 4.18 4.18 0 0 0-1.29 3.14 3.63 3.63 0 0 0 .7 2.27 5.998 5.998 0 0 0 1.66 1.45c.676.402 1.389.737 2.13 1 .74.28 1.44.56 2.06.85a5.75 5.75 0 0 1 1.53 1 1.64 1.64 0 0 1 .57 1.29 2.15 2.15 0 0 1-.84 1.79 3.77 3.77 0 0 1-2.33.67 5.54 5.54 0 0 1-2.16-.47 6.422 6.422 0 0 1-2-1.33.899.899 0 0 0-1.32.06l-.31.36a1 1 0 0 0-.28.73.842.842 0 0 0 .36.6 7.997 7.997 0 0 0 2.23 1.52 7.812 7.812 0 0 0 2.31.72v1.77a.819.819 0 0 0 .9.87Z" fill="#00344E"/></svg>