<svg width="190" height="196" fill="none" xmlns="http://www.w3.org/2000/svg"><path d="M172.202 169.841c0 1.799.522 3.557 1.5 5.052a8.946 8.946 0 0 0 3.994 3.349 8.721 8.721 0 0 0 5.141.517 8.837 8.837 0 0 0 4.557-2.488 9.158 9.158 0 0 0 2.435-4.656 9.274 9.274 0 0 0-.507-5.253 9.042 9.042 0 0 0-3.277-4.081 8.764 8.764 0 0 0-8.351-.843 8.86 8.86 0 0 0-2.888 1.971 9.087 9.087 0 0 0-1.929 2.951 9.258 9.258 0 0 0-.675 3.481Zm-52.442 0c0 1.799.522 3.557 1.5 5.052a8.938 8.938 0 0 0 3.993 3.349 8.724 8.724 0 0 0 5.142.517 8.834 8.834 0 0 0 4.556-2.488 9.15 9.15 0 0 0 2.435-4.656 9.265 9.265 0 0 0-.506-5.253 9.051 9.051 0 0 0-3.278-4.081 8.761 8.761 0 0 0-11.239 1.128 9.087 9.087 0 0 0-1.929 2.951 9.257 9.257 0 0 0-.674 3.481Zm-52.443 0c0 1.799.522 3.557 1.5 5.052a8.943 8.943 0 0 0 3.994 3.349 8.724 8.724 0 0 0 5.141.517 8.832 8.832 0 0 0 4.556-2.488 9.158 9.158 0 0 0 2.436-4.656 9.274 9.274 0 0 0-.507-5.253 9.05 9.05 0 0 0-3.277-4.081 8.765 8.765 0 0 0-8.351-.843 8.865 8.865 0 0 0-2.888 1.971 9.087 9.087 0 0 0-1.93 2.951 9.255 9.255 0 0 0-.674 3.481Zm-52.401 0c0 1.799.522 3.557 1.5 5.052a8.944 8.944 0 0 0 3.994 3.349 8.723 8.723 0 0 0 5.141.517 8.833 8.833 0 0 0 4.557-2.488 9.158 9.158 0 0 0 2.435-4.656 9.275 9.275 0 0 0-.507-5.253 9.05 9.05 0 0 0-3.277-4.081 8.764 8.764 0 0 0-8.35-.843 8.867 8.867 0 0 0-2.89 1.971 9.087 9.087 0 0 0-1.928 2.951 9.255 9.255 0 0 0-.675 3.481Zm157.286-53.587c0 1.799.522 3.557 1.5 5.052a8.946 8.946 0 0 0 3.994 3.349 8.721 8.721 0 0 0 5.141.517 8.837 8.837 0 0 0 4.557-2.488 9.158 9.158 0 0 0 2.435-4.656 9.274 9.274 0 0 0-.507-5.253 9.042 9.042 0 0 0-3.277-4.081 8.764 8.764 0 0 0-8.351-.843 8.86 8.86 0 0 0-2.888 1.971 9.087 9.087 0 0 0-1.929 2.951 9.258 9.258 0 0 0-.675 3.481Zm-52.442 0c0 1.799.522 3.557 1.5 5.052a8.938 8.938 0 0 0 3.993 3.349 8.724 8.724 0 0 0 5.142.517 8.834 8.834 0 0 0 4.556-2.488 9.15 9.15 0 0 0 2.435-4.656 9.265 9.265 0 0 0-.506-5.253 9.051 9.051 0 0 0-3.278-4.081 8.761 8.761 0 0 0-11.239 1.128 9.087 9.087 0 0 0-1.929 2.951 9.257 9.257 0 0 0-.674 3.481Zm-52.443 0c0 1.799.522 3.557 1.5 5.052a8.943 8.943 0 0 0 3.994 3.349 8.724 8.724 0 0 0 5.141.517 8.832 8.832 0 0 0 4.556-2.488 9.158 9.158 0 0 0 2.436-4.656 9.274 9.274 0 0 0-.507-5.253 9.05 9.05 0 0 0-3.277-4.081 8.765 8.765 0 0 0-8.351-.843 8.865 8.865 0 0 0-2.888 1.971 9.087 9.087 0 0 0-1.93 2.951 9.255 9.255 0 0 0-.674 3.481Zm-52.401 0c0 1.799.522 3.557 1.5 5.052a8.944 8.944 0 0 0 3.994 3.349 8.723 8.723 0 0 0 5.141.517 8.833 8.833 0 0 0 4.557-2.488 9.158 9.158 0 0 0 2.435-4.656 9.275 9.275 0 0 0-.507-5.253 9.05 9.05 0 0 0-3.277-4.081 8.764 8.764 0 0 0-8.35-.843 8.867 8.867 0 0 0-2.89 1.971 9.087 9.087 0 0 0-1.928 2.951 9.255 9.255 0 0 0-.675 3.481Zm157.286-53.585a9.24 9.24 0 0 0 1.495 5.055 8.95 8.95 0 0 0 3.991 3.353 8.725 8.725 0 0 0 5.143.522 8.842 8.842 0 0 0 4.559-2.486 9.157 9.157 0 0 0 2.438-4.655 9.281 9.281 0 0 0-.504-5.255 9.058 9.058 0 0 0-3.278-4.083 8.761 8.761 0 0 0-4.945-1.533c-2.358 0-4.62.956-6.288 2.66a9.194 9.194 0 0 0-2.611 6.422Zm-52.442 0a9.24 9.24 0 0 0 1.494 5.055 8.947 8.947 0 0 0 3.992 3.353 8.722 8.722 0 0 0 5.142.522 8.838 8.838 0 0 0 4.559-2.486 9.159 9.159 0 0 0 2.439-4.655 9.282 9.282 0 0 0-.505-5.255 9.051 9.051 0 0 0-3.278-4.083 8.76 8.76 0 0 0-4.944-1.533 8.8 8.8 0 0 0-6.289 2.66 9.197 9.197 0 0 0-2.61 6.422Zm-52.443 0a9.235 9.235 0 0 0 1.495 5.055 8.944 8.944 0 0 0 3.991 3.353 8.722 8.722 0 0 0 5.142.522 8.841 8.841 0 0 0 4.56-2.486 9.156 9.156 0 0 0 2.438-4.655 9.278 9.278 0 0 0-.505-5.255 9.054 9.054 0 0 0-3.277-4.083 8.764 8.764 0 0 0-4.945-1.533c-2.358 0-4.62.956-6.289 2.66a9.194 9.194 0 0 0-2.61 6.422Zm-52.401 0a9.235 9.235 0 0 0 1.495 5.055 8.945 8.945 0 0 0 3.991 3.353 8.722 8.722 0 0 0 5.143.522 8.84 8.84 0 0 0 4.559-2.486 9.155 9.155 0 0 0 2.438-4.655 9.278 9.278 0 0 0-.505-5.255 9.054 9.054 0 0 0-3.277-4.083 8.764 8.764 0 0 0-4.945-1.533c-2.358 0-4.62.956-6.288 2.66a9.194 9.194 0 0 0-2.61 6.422ZM172.202 9.082a9.24 9.24 0 0 0 1.495 5.055 8.949 8.949 0 0 0 3.991 3.353 8.725 8.725 0 0 0 5.143.522 8.843 8.843 0 0 0 4.559-2.486 9.157 9.157 0 0 0 2.438-4.655 9.28 9.28 0 0 0-.504-5.255 9.058 9.058 0 0 0-3.278-4.083 8.762 8.762 0 0 0-8.349-.845 8.882 8.882 0 0 0-2.888 1.968 9.098 9.098 0 0 0-1.929 2.948 9.262 9.262 0 0 0-.678 3.478Zm-52.442 0a9.24 9.24 0 0 0 1.494 5.055 8.946 8.946 0 0 0 3.992 3.353 8.722 8.722 0 0 0 5.142.522 8.839 8.839 0 0 0 4.559-2.486 9.159 9.159 0 0 0 2.439-4.655 9.28 9.28 0 0 0-.505-5.255 9.051 9.051 0 0 0-3.278-4.083 8.76 8.76 0 0 0-8.349-.845 8.867 8.867 0 0 0-2.887 1.968 9.1 9.1 0 0 0-1.93 2.948 9.26 9.26 0 0 0-.677 3.478Zm-52.443 0a9.235 9.235 0 0 0 1.495 5.055 8.943 8.943 0 0 0 3.991 3.353 8.722 8.722 0 0 0 5.142.522 8.842 8.842 0 0 0 4.56-2.486 9.156 9.156 0 0 0 2.438-4.655 9.277 9.277 0 0 0-.505-5.255 9.054 9.054 0 0 0-3.277-4.083A8.764 8.764 0 0 0 76.216 0a8.723 8.723 0 0 0-3.404.688 8.88 8.88 0 0 0-2.888 1.968 9.095 9.095 0 0 0-1.929 2.948 9.253 9.253 0 0 0-.678 3.478Zm-52.401 0a9.235 9.235 0 0 0 1.495 5.055 8.944 8.944 0 0 0 3.991 3.353 8.722 8.722 0 0 0 5.143.522 8.841 8.841 0 0 0 4.559-2.486 9.155 9.155 0 0 0 2.438-4.655 9.277 9.277 0 0 0-.505-5.255 9.054 9.054 0 0 0-3.277-4.083A8.764 8.764 0 0 0 23.815 0a8.724 8.724 0 0 0-3.405.688 8.877 8.877 0 0 0-2.887 1.968 9.1 9.1 0 0 0-1.93 2.948 9.255 9.255 0 0 0-.677 3.478Z" fill="#ED634D"/></svg>