<svg width="371" height="378" fill="none" xmlns="http://www.w3.org/2000/svg"><g filter="url(#a)" fill="#ED634D"><path d="M27.014 11.758a11.94 11.94 0 0 0-1.94-6.532A11.565 11.565 0 0 0 19.91.895a11.279 11.279 0 0 0-6.648-.67 11.433 11.433 0 0 0-5.892 3.22 11.84 11.84 0 0 0-3.149 6.02 11.996 11.996 0 0 0 .655 6.793 11.707 11.707 0 0 0 4.238 5.277 11.334 11.334 0 0 0 6.393 1.982 11.282 11.282 0 0 0 4.405-.892 11.479 11.479 0 0 0 3.735-2.548 11.763 11.763 0 0 0 2.494-3.817c.578-1.427.875-2.957.873-4.501m67.812-.001a11.94 11.94 0 0 0-1.939-6.532A11.565 11.565 0 0 0 87.723.895a11.279 11.279 0 0 0-6.648-.67 11.433 11.433 0 0 0-5.892 3.219 11.84 11.84 0 0 0-3.15 6.02 11.996 11.996 0 0 0 .656 6.793 11.708 11.708 0 0 0 4.238 5.277 11.332 11.332 0 0 0 6.392 1.982 11.282 11.282 0 0 0 4.406-.892 11.48 11.48 0 0 0 3.735-2.548 11.763 11.763 0 0 0 2.494-3.817c.578-1.427.874-2.957.873-4.501m67.812 0a11.94 11.94 0 0 0-1.939-6.532 11.56 11.56 0 0 0-5.164-4.331 11.277 11.277 0 0 0-6.648-.67 11.43 11.43 0 0 0-5.892 3.219 11.841 11.841 0 0 0-3.149 6.02 11.995 11.995 0 0 0 .654 6.793 11.705 11.705 0 0 0 4.239 5.277 11.333 11.333 0 0 0 6.393 1.982 11.282 11.282 0 0 0 4.405-.892 11.48 11.48 0 0 0 3.735-2.548 11.768 11.768 0 0 0 2.494-3.817c.578-1.427.874-2.957.872-4.501m67.76 0c0-2.326-.675-4.599-1.94-6.532a11.56 11.56 0 0 0-5.164-4.331 11.277 11.277 0 0 0-6.648-.67 11.433 11.433 0 0 0-5.892 3.219 11.841 11.841 0 0 0-3.149 6.02 11.995 11.995 0 0 0 .655 6.793 11.71 11.71 0 0 0 4.238 5.277 11.333 11.333 0 0 0 6.393 1.982 11.282 11.282 0 0 0 4.405-.892 11.483 11.483 0 0 0 3.736-2.548 11.784 11.784 0 0 0 2.494-3.817c.577-1.427.873-2.957.872-4.501m67.866 0a11.94 11.94 0 0 0-1.939-6.532 11.565 11.565 0 0 0-5.164-4.331 11.28 11.28 0 0 0-6.649-.67 11.43 11.43 0 0 0-5.891 3.219 11.834 11.834 0 0 0-3.149 6.02 11.995 11.995 0 0 0 .654 6.793 11.705 11.705 0 0 0 4.239 5.277 11.333 11.333 0 0 0 6.393 1.982c3.051 0 5.978-1.24 8.136-3.444a11.888 11.888 0 0 0 3.37-8.314Zm67.8 0c0-2.326-.676-4.6-1.941-6.534a11.565 11.565 0 0 0-5.166-4.33 11.278 11.278 0 0 0-6.65-.667 11.434 11.434 0 0 0-5.892 3.222 11.842 11.842 0 0 0-3.146 6.024 12 12 0 0 0 .661 6.794 11.706 11.706 0 0 0 4.244 5.274 11.332 11.332 0 0 0 6.397 1.975c1.51 0 3.006-.305 4.401-.896a11.477 11.477 0 0 0 3.73-2.55 11.76 11.76 0 0 0 2.491-3.814c.576-1.426.873-2.955.871-4.498M27.014 81.05c0-2.325-.675-4.599-1.94-6.532a11.565 11.565 0 0 0-5.164-4.331 11.279 11.279 0 0 0-6.648-.67 11.434 11.434 0 0 0-5.892 3.219 11.84 11.84 0 0 0-3.149 6.02 11.996 11.996 0 0 0 .655 6.793 11.706 11.706 0 0 0 4.238 5.277 11.333 11.333 0 0 0 6.393 1.982 11.28 11.28 0 0 0 4.405-.892 11.48 11.48 0 0 0 3.735-2.548 11.764 11.764 0 0 0 2.494-3.816c.578-1.428.875-2.957.873-4.502m67.812 0c0-2.325-.674-4.599-1.939-6.532a11.565 11.565 0 0 0-5.164-4.331 11.279 11.279 0 0 0-6.648-.67 11.434 11.434 0 0 0-5.892 3.219 11.84 11.84 0 0 0-3.15 6.02 11.996 11.996 0 0 0 .656 6.793 11.707 11.707 0 0 0 4.238 5.277 11.332 11.332 0 0 0 6.392 1.982 11.28 11.28 0 0 0 4.406-.892 11.482 11.482 0 0 0 3.735-2.548 11.764 11.764 0 0 0 2.494-3.816c.578-1.428.874-2.957.873-4.502m67.812 0c0-2.325-.675-4.599-1.939-6.532a11.56 11.56 0 0 0-5.164-4.331 11.277 11.277 0 0 0-6.648-.67 11.43 11.43 0 0 0-5.892 3.219 11.842 11.842 0 0 0-3.149 6.02 11.995 11.995 0 0 0 .654 6.793 11.705 11.705 0 0 0 4.239 5.277 11.332 11.332 0 0 0 6.393 1.982 11.28 11.28 0 0 0 4.405-.892 11.48 11.48 0 0 0 3.735-2.548 11.769 11.769 0 0 0 2.494-3.816c.578-1.428.874-2.957.872-4.502m67.76 0c0-2.325-.675-4.599-1.94-6.532a11.56 11.56 0 0 0-5.164-4.331 11.277 11.277 0 0 0-6.648-.67 11.434 11.434 0 0 0-5.892 3.219 11.842 11.842 0 0 0-3.149 6.02 11.995 11.995 0 0 0 .655 6.793 11.709 11.709 0 0 0 4.238 5.277 11.332 11.332 0 0 0 6.393 1.982 11.28 11.28 0 0 0 4.405-.892 11.485 11.485 0 0 0 3.736-2.548 11.785 11.785 0 0 0 2.494-3.816c.577-1.428.873-2.957.872-4.502m67.866 0c0-2.325-.675-4.599-1.939-6.532a11.566 11.566 0 0 0-5.164-4.331 11.28 11.28 0 0 0-6.649-.67 11.43 11.43 0 0 0-5.891 3.219 11.834 11.834 0 0 0-3.149 6.02 11.995 11.995 0 0 0 .654 6.793 11.705 11.705 0 0 0 4.239 5.277 11.293 11.293 0 0 0 10.796 1.087 11.49 11.49 0 0 0 3.733-2.55 11.765 11.765 0 0 0 2.494-3.814c.579-1.426.876-2.955.876-4.499Zm67.8 0c0-2.326-.676-4.6-1.941-6.534a11.566 11.566 0 0 0-5.166-4.33 11.277 11.277 0 0 0-6.65-.667 11.434 11.434 0 0 0-5.892 3.222 11.842 11.842 0 0 0-3.146 6.024 12.001 12.001 0 0 0 .661 6.794 11.705 11.705 0 0 0 4.244 5.274 11.333 11.333 0 0 0 6.397 1.975c1.51 0 3.006-.305 4.401-.896a11.477 11.477 0 0 0 3.73-2.55 11.76 11.76 0 0 0 2.491-3.814c.576-1.426.873-2.955.871-4.498M27.014 150.341c0-2.326-.675-4.599-1.94-6.532a11.563 11.563 0 0 0-5.164-4.331 11.275 11.275 0 0 0-6.648-.669 11.438 11.438 0 0 0-5.892 3.218 11.836 11.836 0 0 0-3.149 6.02 11.999 11.999 0 0 0 .655 6.794 11.707 11.707 0 0 0 4.238 5.276 11.334 11.334 0 0 0 6.393 1.982 11.264 11.264 0 0 0 4.405-.892 11.478 11.478 0 0 0 3.735-2.548 11.763 11.763 0 0 0 2.494-3.816c.578-1.428.875-2.958.873-4.502m67.812 0c0-2.326-.674-4.599-1.939-6.532a11.563 11.563 0 0 0-5.164-4.331 11.275 11.275 0 0 0-6.648-.669 11.439 11.439 0 0 0-5.892 3.218 11.836 11.836 0 0 0-3.15 6.02 11.999 11.999 0 0 0 .656 6.794 11.708 11.708 0 0 0 4.238 5.276 11.332 11.332 0 0 0 6.392 1.982 11.264 11.264 0 0 0 4.406-.892 11.48 11.48 0 0 0 3.735-2.548 11.763 11.763 0 0 0 2.494-3.816c.578-1.428.874-2.958.873-4.502m67.812 0a11.94 11.94 0 0 0-1.939-6.532 11.559 11.559 0 0 0-5.164-4.331 11.274 11.274 0 0 0-6.648-.669 11.434 11.434 0 0 0-5.892 3.218 11.838 11.838 0 0 0-3.149 6.02 11.998 11.998 0 0 0 .654 6.794 11.705 11.705 0 0 0 4.239 5.276 11.332 11.332 0 0 0 6.393 1.982 11.264 11.264 0 0 0 4.405-.892 11.478 11.478 0 0 0 3.735-2.548 11.768 11.768 0 0 0 2.494-3.816c.578-1.428.874-2.958.872-4.502m67.76 0c0-2.326-.675-4.599-1.94-6.532a11.559 11.559 0 0 0-5.164-4.331 11.274 11.274 0 0 0-6.648-.669 11.438 11.438 0 0 0-5.892 3.218 11.838 11.838 0 0 0-3.149 6.02 11.998 11.998 0 0 0 .655 6.794 11.71 11.71 0 0 0 4.238 5.276 11.332 11.332 0 0 0 6.393 1.982 11.264 11.264 0 0 0 4.405-.892 11.482 11.482 0 0 0 3.736-2.548 11.784 11.784 0 0 0 2.494-3.816 12 12 0 0 0 .872-4.502m67.866 0a11.94 11.94 0 0 0-1.939-6.532 11.564 11.564 0 0 0-5.164-4.331 11.277 11.277 0 0 0-6.649-.669 11.435 11.435 0 0 0-5.891 3.218 11.83 11.83 0 0 0-3.149 6.02 11.998 11.998 0 0 0 .654 6.794 11.705 11.705 0 0 0 4.239 5.276 11.332 11.332 0 0 0 6.393 1.982c3.051 0 5.978-1.239 8.136-3.444a11.89 11.89 0 0 0 3.37-8.314Zm67.8 0c0-2.326-.676-4.6-1.941-6.534a11.56 11.56 0 0 0-5.166-4.33 11.273 11.273 0 0 0-6.65-.667 11.434 11.434 0 0 0-5.892 3.222 11.842 11.842 0 0 0-3.146 6.024 11.998 11.998 0 0 0 .661 6.794 11.706 11.706 0 0 0 4.244 5.274 11.333 11.333 0 0 0 6.397 1.975c1.51 0 3.006-.304 4.401-.895a11.479 11.479 0 0 0 3.73-2.55 11.762 11.762 0 0 0 2.491-3.814c.576-1.427.873-2.956.871-4.499M27.014 219.634c0-2.326-.675-4.599-1.94-6.533a11.567 11.567 0 0 0-5.164-4.33 11.275 11.275 0 0 0-6.648-.669 11.424 11.424 0 0 0-5.892 3.218 11.836 11.836 0 0 0-3.149 6.02 11.994 11.994 0 0 0 .655 6.793 11.704 11.704 0 0 0 4.238 5.277 11.333 11.333 0 0 0 6.393 1.981c1.511.002 3.008-.3 4.405-.891a11.478 11.478 0 0 0 3.735-2.548 11.757 11.757 0 0 0 2.494-3.817c.578-1.427.875-2.957.873-4.501m67.812 0c0-2.326-.674-4.599-1.939-6.533a11.567 11.567 0 0 0-5.164-4.33 11.275 11.275 0 0 0-6.648-.669 11.424 11.424 0 0 0-5.892 3.218 11.836 11.836 0 0 0-3.15 6.02 11.995 11.995 0 0 0 .656 6.793 11.705 11.705 0 0 0 4.238 5.277 11.331 11.331 0 0 0 6.392 1.981c1.512.002 3.01-.3 4.406-.891a11.48 11.48 0 0 0 3.735-2.548 11.757 11.757 0 0 0 2.494-3.817c.578-1.427.874-2.957.873-4.501m67.812 0c0-2.326-.675-4.599-1.939-6.533a11.563 11.563 0 0 0-5.164-4.33 11.274 11.274 0 0 0-6.648-.669 11.42 11.42 0 0 0-5.892 3.218 11.838 11.838 0 0 0-3.149 6.02 11.993 11.993 0 0 0 .654 6.793 11.703 11.703 0 0 0 4.239 5.277 11.331 11.331 0 0 0 6.393 1.981c1.511.002 3.008-.3 4.405-.891a11.478 11.478 0 0 0 3.735-2.548 11.762 11.762 0 0 0 2.494-3.817c.578-1.427.874-2.957.872-4.501m67.76 0c0-2.326-.675-4.599-1.94-6.533a11.563 11.563 0 0 0-5.164-4.33 11.274 11.274 0 0 0-6.648-.669 11.424 11.424 0 0 0-5.892 3.218 11.838 11.838 0 0 0-3.149 6.02 11.994 11.994 0 0 0 .655 6.793 11.707 11.707 0 0 0 4.238 5.277 11.331 11.331 0 0 0 6.393 1.981c1.511.002 3.008-.3 4.405-.891a11.482 11.482 0 0 0 3.736-2.548 11.778 11.778 0 0 0 2.494-3.817c.577-1.427.873-2.957.872-4.501m67.866 0c0-2.326-.675-4.599-1.939-6.533a11.568 11.568 0 0 0-5.164-4.33 11.277 11.277 0 0 0-6.649-.669 11.421 11.421 0 0 0-5.891 3.218 11.83 11.83 0 0 0-3.149 6.02 11.993 11.993 0 0 0 .654 6.793 11.703 11.703 0 0 0 4.239 5.277 11.331 11.331 0 0 0 6.393 1.981c3.051 0 5.978-1.238 8.136-3.443a11.89 11.89 0 0 0 3.37-8.314Zm67.8 0c0-2.327-.676-4.6-1.941-6.534a11.56 11.56 0 0 0-5.166-4.33 11.273 11.273 0 0 0-6.65-.667 11.434 11.434 0 0 0-5.892 3.222 11.843 11.843 0 0 0-3.146 6.023 12.002 12.002 0 0 0 .661 6.795 11.706 11.706 0 0 0 4.244 5.274 11.332 11.332 0 0 0 6.397 1.974c1.51 0 3.006-.304 4.401-.895a11.476 11.476 0 0 0 3.73-2.549 11.755 11.755 0 0 0 2.491-3.815c.576-1.426.873-2.955.871-4.498M27.014 288.925a11.94 11.94 0 0 0-1.933-6.536 11.561 11.561 0 0 0-5.161-4.337 11.28 11.28 0 0 0-6.65-.675 11.432 11.432 0 0 0-5.895 3.215 11.832 11.832 0 0 0-3.153 6.02 11.995 11.995 0 0 0 .653 6.795 11.71 11.71 0 0 0 4.237 5.279 11.33 11.33 0 0 0 6.395 1.982c3.05 0 5.974-1.236 8.132-3.438a11.888 11.888 0 0 0 3.375-8.305m67.812 0a11.94 11.94 0 0 0-1.932-6.536 11.561 11.561 0 0 0-5.161-4.337 11.281 11.281 0 0 0-6.65-.675 11.43 11.43 0 0 0-5.895 3.215 11.832 11.832 0 0 0-3.153 6.02 11.995 11.995 0 0 0 .652 6.795 11.712 11.712 0 0 0 4.239 5.279 11.328 11.328 0 0 0 6.394 1.982 11.38 11.38 0 0 0 8.131-3.438 11.89 11.89 0 0 0 3.376-8.305m67.812 0a11.944 11.944 0 0 0-1.932-6.536 11.564 11.564 0 0 0-5.161-4.337 11.283 11.283 0 0 0-6.65-.675 11.428 11.428 0 0 0-5.895 3.215 11.829 11.829 0 0 0-3.153 6.02 12 12 0 0 0 .652 6.795 11.718 11.718 0 0 0 4.238 5.279 11.331 11.331 0 0 0 6.395 1.982 11.38 11.38 0 0 0 8.131-3.438 11.888 11.888 0 0 0 3.375-8.305m67.76 0a11.944 11.944 0 0 0-1.933-6.536 11.564 11.564 0 0 0-5.161-4.337 11.283 11.283 0 0 0-6.65-.675 11.432 11.432 0 0 0-5.895 3.215 11.837 11.837 0 0 0-3.153 6.02 12 12 0 0 0 .652 6.795 11.718 11.718 0 0 0 4.238 5.279 11.331 11.331 0 0 0 6.395 1.982 11.38 11.38 0 0 0 8.131-3.438 11.89 11.89 0 0 0 3.376-8.305m67.866 0a11.944 11.944 0 0 0-1.932-6.536 11.564 11.564 0 0 0-5.161-4.337 11.283 11.283 0 0 0-6.65-.675 11.428 11.428 0 0 0-5.895 3.215 11.829 11.829 0 0 0-3.153 6.02 11.992 11.992 0 0 0 .652 6.795 11.718 11.718 0 0 0 4.238 5.279 11.331 11.331 0 0 0 6.395 1.982 11.394 11.394 0 0 0 8.127-3.442 11.902 11.902 0 0 0 3.379-8.301m67.8 0a11.952 11.952 0 0 0-1.934-6.538 11.57 11.57 0 0 0-5.163-4.337 11.288 11.288 0 0 0-6.652-.672 11.434 11.434 0 0 0-5.895 3.219 11.841 11.841 0 0 0-3.15 6.023 11.997 11.997 0 0 0 .659 6.796 11.7 11.7 0 0 0 4.243 5.277 11.338 11.338 0 0 0 6.398 1.975 11.382 11.382 0 0 0 8.123-3.443 11.891 11.891 0 0 0 3.371-8.3M27.014 358.217c.003-2.326-.67-4.6-1.933-6.536a11.565 11.565 0 0 0-5.161-4.336 11.28 11.28 0 0 0-6.65-.675 11.437 11.437 0 0 0-5.895 3.214 11.84 11.84 0 0 0-3.153 6.02 11.994 11.994 0 0 0 .653 6.795 11.708 11.708 0 0 0 4.237 5.28 11.337 11.337 0 0 0 6.395 1.982c1.51.002 3.006-.301 4.402-.89a11.47 11.47 0 0 0 3.734-2.545 11.75 11.75 0 0 0 2.495-3.811c.578-1.426.876-2.954.876-4.498m67.812 0c.003-2.326-.67-4.6-1.932-6.536a11.565 11.565 0 0 0-5.161-4.336 11.281 11.281 0 0 0-6.65-.675 11.436 11.436 0 0 0-5.895 3.214 11.84 11.84 0 0 0-3.153 6.02 11.994 11.994 0 0 0 .652 6.795 11.709 11.709 0 0 0 4.239 5.28 11.336 11.336 0 0 0 6.394 1.982c1.51.002 3.006-.301 4.402-.89a11.47 11.47 0 0 0 3.733-2.545 11.75 11.75 0 0 0 2.495-3.811c.579-1.426.876-2.954.876-4.498m67.813 0c.003-2.326-.67-4.6-1.932-6.536a11.568 11.568 0 0 0-5.161-4.336 11.283 11.283 0 0 0-6.65-.675 11.433 11.433 0 0 0-5.895 3.214 11.837 11.837 0 0 0-3.153 6.02 12 12 0 0 0 .652 6.795 11.715 11.715 0 0 0 4.238 5.28 11.339 11.339 0 0 0 6.395 1.982c1.51.002 3.006-.301 4.402-.89a11.461 11.461 0 0 0 3.733-2.545 11.739 11.739 0 0 0 2.495-3.811c.578-1.426.876-2.954.876-4.498m67.76 0c.002-2.326-.67-4.6-1.933-6.536a11.568 11.568 0 0 0-5.161-4.336 11.283 11.283 0 0 0-6.65-.675 11.437 11.437 0 0 0-5.895 3.214 11.844 11.844 0 0 0-3.153 6.02 12 12 0 0 0 .652 6.795 11.715 11.715 0 0 0 4.238 5.28 11.339 11.339 0 0 0 6.395 1.982c1.51.002 3.006-.301 4.402-.89a11.461 11.461 0 0 0 3.733-2.545 11.739 11.739 0 0 0 2.495-3.811c.579-1.426.877-2.954.877-4.498m67.866 0c.003-2.326-.67-4.6-1.932-6.536a11.568 11.568 0 0 0-5.161-4.336 11.283 11.283 0 0 0-6.65-.675 11.433 11.433 0 0 0-5.895 3.214 11.837 11.837 0 0 0-3.153 6.02 11.991 11.991 0 0 0 .652 6.795 11.715 11.715 0 0 0 4.238 5.28 11.339 11.339 0 0 0 6.395 1.982c3.049 0 5.973-1.237 8.131-3.439a11.884 11.884 0 0 0 3.375-8.305m67.8 0a11.949 11.949 0 0 0-1.934-6.537 11.564 11.564 0 0 0-5.163-4.337 11.288 11.288 0 0 0-6.652-.672 11.433 11.433 0 0 0-5.895 3.218 11.848 11.848 0 0 0-3.15 6.024 11.997 11.997 0 0 0 .659 6.796 11.698 11.698 0 0 0 4.243 5.276 11.332 11.332 0 0 0 6.398 1.976c3.049 0 5.972-1.237 8.127-3.44a11.871 11.871 0 0 0 3.367-8.304"/></g><defs><filter id="a" x="0" y="0" width="370.065" height="377.961" filterUnits="userSpaceOnUse" color-interpolation-filters="sRGB"><feFlood flood-opacity="0" result="BackgroundImageFix"/><feColorMatrix in="SourceAlpha" values="0 0 0 0 0 0 0 0 0 0 0 0 0 0 0 0 0 0 127 0" result="hardAlpha"/><feOffset dy="4"/><feGaussianBlur stdDeviation="2"/><feComposite in2="hardAlpha" operator="out"/><feColorMatrix values="0 0 0 0 0 0 0 0 0 0 0 0 0 0 0 0 0 0 0.25 0"/><feBlend in2="BackgroundImageFix" result="effect1_dropShadow_1112_4052"/><feBlend in="SourceGraphic" in2="effect1_dropShadow_1112_4052" result="shape"/></filter></defs></svg>