<svg width="51" height="35" fill="none" xmlns="http://www.w3.org/2000/svg"><path d="m5.777 16.467 1.152-.088L23.604 1.423c2.092-1.867 5.284 1.056 3.183 2.957l-13.04 11.676c8.432-.395 28.407.016 36.426.632l-.934 4.008c-7.816-.53-27.55-.874-35.663-.459a6368.346 6368.346 0 0 1 18.105 9.493c2.11 1.085.815 4.796-1.514 3.96l-27.01-9.384c-1.382-.512-2.409-2.354-1.059-3.563.179-.163.35-.336.521-.51.376-.382.753-.763 1.195-1.038a2.167 2.167 0 0 1 .337-1.821 2.21 2.21 0 0 1 1.626-.907Z" fill="#356D82" stroke="#356D82"/></svg>