<svg width="51" height="35" fill="none" xmlns="http://www.w3.org/2000/svg"><path d="m45.934 18.243-1.153.088-16.675 14.955c-2.092 1.868-5.284-1.055-3.183-2.956l13.04-11.676c-8.432.395-28.407-.016-36.426-.632l.935-4.008c7.815.53 27.548.874 35.662.459A6381.274 6381.274 0 0 1 20.028 4.98c-2.11-1.085-.815-4.796 1.514-3.96l27.01 9.384c1.382.512 2.409 2.354 1.059 3.563-.178.163-.35.336-.52.51-.377.382-.753.763-1.196 1.038a2.167 2.167 0 0 1-1.05 2.455c-.28.157-.592.25-.912.273Z" fill="#356D82" stroke="#356D82"/></svg>