<svg width="134" height="138" fill="none" xmlns="http://www.w3.org/2000/svg"><path d="M67.005 29.975c7.495 0 14.821 2.289 21.053 6.577 6.232 4.288 11.089 10.383 13.957 17.514a40.11 40.11 0 0 1 2.156 22.547c-1.462 7.57-5.071 14.524-10.37 19.982-5.3 5.458-12.052 9.174-19.403 10.68a36.879 36.879 0 0 1-21.894-2.22c-6.924-2.954-12.843-7.956-17.007-14.374C31.334 84.263 29.111 76.72 29.111 69c.01-10.347 4.007-20.267 11.111-27.583 7.104-7.316 16.736-11.431 26.783-11.442Zm0-29.975C53.754-.001 40.8 4.045 29.781 11.626 18.76 19.207 10.173 29.983 5.1 42.591a70.915 70.915 0 0 0-3.814 39.867c2.584 13.385 8.965 25.68 18.335 35.33 9.37 9.651 21.308 16.223 34.305 18.886 12.997 2.663 26.469 1.296 38.712-3.926 12.243-5.222 22.707-14.066 30.069-25.413C130.07 95.988 134 82.647 134 69a70.79 70.79 0 0 0-5.098-26.405c-3.367-8.371-8.301-15.978-14.522-22.385-6.222-6.408-13.607-11.49-21.736-14.958A65.314 65.314 0 0 0 67.005 0Z" fill="#B5DCD9"/></svg>