<svg width="338" height="345" fill="none" xmlns="http://www.w3.org/2000/svg"><path d="M21.461 10.964c0-2.168-.63-4.288-1.808-6.09a10.785 10.785 0 0 0-4.816-4.04 10.518 10.518 0 0 0-6.2-.623 10.662 10.662 0 0 0-5.494 3A11.04 11.04 0 0 0 .206 8.825a11.187 11.187 0 0 0 .61 6.335 10.917 10.917 0 0 0 3.953 4.921 10.569 10.569 0 0 0 5.961 1.848 10.52 10.52 0 0 0 4.109-.831 10.705 10.705 0 0 0 3.483-2.377 10.968 10.968 0 0 0 2.325-3.559c.54-1.33.816-2.757.814-4.198Zm63.237 0c0-2.168-.63-4.288-1.808-6.09a10.785 10.785 0 0 0-4.816-4.04 10.518 10.518 0 0 0-6.2-.623 10.661 10.661 0 0 0-5.494 3 11.04 11.04 0 0 0-2.937 5.614 11.186 11.186 0 0 0 .611 6.335 10.918 10.918 0 0 0 3.952 4.921 10.568 10.568 0 0 0 5.962 1.848 10.52 10.52 0 0 0 4.108-.831 10.706 10.706 0 0 0 3.483-2.377 10.968 10.968 0 0 0 2.326-3.559 11.14 11.14 0 0 0 .813-4.198Zm63.237 0a11.13 11.13 0 0 0-1.808-6.09 10.783 10.783 0 0 0-4.816-4.04 10.518 10.518 0 0 0-6.2-.623 10.664 10.664 0 0 0-5.494 3 11.044 11.044 0 0 0-2.936 5.614 11.188 11.188 0 0 0 .61 6.335 10.92 10.92 0 0 0 3.952 4.921 10.571 10.571 0 0 0 5.962 1.848c1.41.002 2.806-.28 4.108-.831a10.693 10.693 0 0 0 3.483-2.377 10.972 10.972 0 0 0 2.326-3.559 11.14 11.14 0 0 0 .813-4.198Zm63.188 0a11.13 11.13 0 0 0-1.808-6.09 10.783 10.783 0 0 0-4.816-4.04A10.515 10.515 0 0 0 198.3.212a10.663 10.663 0 0 0-5.495 3 11.044 11.044 0 0 0-2.936 5.614 11.188 11.188 0 0 0 .61 6.335 10.916 10.916 0 0 0 3.953 4.921 10.566 10.566 0 0 0 5.961 1.848c1.41.002 2.806-.28 4.108-.831a10.693 10.693 0 0 0 3.483-2.377 10.956 10.956 0 0 0 2.326-3.559 11.14 11.14 0 0 0 .813-4.198Zm63.289 0c0-2.168-.63-4.288-1.809-6.09a10.786 10.786 0 0 0-4.815-4.04 10.52 10.52 0 0 0-6.2-.623 10.656 10.656 0 0 0-5.494 3 11.038 11.038 0 0 0-2.937 5.614 11.18 11.18 0 0 0 .611 6.335 10.913 10.913 0 0 0 3.952 4.921 10.566 10.566 0 0 0 5.961 1.848c2.846 0 5.576-1.155 7.588-3.212a11.089 11.089 0 0 0 3.143-7.753Zm63.224 0c0-2.169-.629-4.29-1.809-6.093a10.789 10.789 0 0 0-4.818-4.038 10.516 10.516 0 0 0-6.201-.621 10.667 10.667 0 0 0-5.495 3.004 11.037 11.037 0 0 0-2.933 5.617 11.175 11.175 0 0 0 .616 6.336 10.916 10.916 0 0 0 3.957 4.919 10.572 10.572 0 0 0 5.966 1.841c1.408 0 2.803-.284 4.104-.835a10.713 10.713 0 0 0 3.479-2.377 10.978 10.978 0 0 0 2.322-3.558 11.15 11.15 0 0 0 .812-4.195ZM21.461 75.582c0-2.169-.63-4.289-1.808-6.092a10.785 10.785 0 0 0-4.816-4.038 10.518 10.518 0 0 0-6.2-.624 10.661 10.661 0 0 0-5.494 3 11.04 11.04 0 0 0-2.937 5.614 11.186 11.186 0 0 0 .61 6.335 10.917 10.917 0 0 0 3.953 4.921 10.569 10.569 0 0 0 5.961 1.848 10.52 10.52 0 0 0 4.109-.831 10.704 10.704 0 0 0 3.483-2.377 10.97 10.97 0 0 0 2.325-3.558c.54-1.332.816-2.758.814-4.198Zm63.237 0c0-2.169-.63-4.289-1.808-6.092a10.785 10.785 0 0 0-4.816-4.038 10.518 10.518 0 0 0-6.2-.624 10.661 10.661 0 0 0-5.494 3 11.04 11.04 0 0 0-2.937 5.614 11.186 11.186 0 0 0 .611 6.335 10.918 10.918 0 0 0 3.952 4.921 10.568 10.568 0 0 0 5.962 1.848 10.52 10.52 0 0 0 4.108-.831 10.706 10.706 0 0 0 3.483-2.377 10.97 10.97 0 0 0 2.326-3.558c.539-1.332.815-2.758.813-4.198Zm63.237 0c0-2.169-.629-4.289-1.808-6.092a10.783 10.783 0 0 0-4.816-4.038 10.518 10.518 0 0 0-6.2-.624 10.664 10.664 0 0 0-5.494 3 11.044 11.044 0 0 0-2.936 5.614 11.188 11.188 0 0 0 .61 6.335 10.92 10.92 0 0 0 3.952 4.921 10.571 10.571 0 0 0 5.962 1.848c1.41.002 2.806-.28 4.108-.831a10.693 10.693 0 0 0 3.483-2.377 10.973 10.973 0 0 0 2.326-3.558c.539-1.332.815-2.758.813-4.198Zm63.188 0c0-2.169-.629-4.289-1.808-6.092a10.783 10.783 0 0 0-4.816-4.038 10.515 10.515 0 0 0-6.199-.624 10.663 10.663 0 0 0-5.495 3 11.044 11.044 0 0 0-2.936 5.614 11.188 11.188 0 0 0 .61 6.335 10.916 10.916 0 0 0 3.953 4.921 10.566 10.566 0 0 0 5.961 1.848c1.41.002 2.806-.28 4.108-.831a10.693 10.693 0 0 0 3.483-2.377 10.957 10.957 0 0 0 2.326-3.558c.539-1.332.815-2.758.813-4.198Zm63.289 0c0-2.169-.63-4.289-1.809-6.092a10.786 10.786 0 0 0-4.815-4.038 10.52 10.52 0 0 0-6.2-.624 10.656 10.656 0 0 0-5.494 3 11.038 11.038 0 0 0-2.937 5.614 11.18 11.18 0 0 0 .611 6.335 10.913 10.913 0 0 0 3.952 4.921 10.533 10.533 0 0 0 10.068 1.013 10.721 10.721 0 0 0 3.481-2.376 10.986 10.986 0 0 0 2.326-3.558c.539-1.33.817-2.755.817-4.195Zm63.224 0c0-2.17-.629-4.29-1.809-6.093a10.79 10.79 0 0 0-4.818-4.039 10.517 10.517 0 0 0-6.201-.621 10.667 10.667 0 0 0-5.495 3.004 11.036 11.036 0 0 0-2.933 5.617 11.177 11.177 0 0 0 .616 6.337 10.916 10.916 0 0 0 3.957 4.917 10.572 10.572 0 0 0 5.966 1.842c1.408 0 2.803-.284 4.104-.835a10.716 10.716 0 0 0 3.479-2.377 10.978 10.978 0 0 0 2.322-3.558 11.15 11.15 0 0 0 .812-4.194ZM21.461 140.197c0-2.168-.63-4.288-1.808-6.091a10.779 10.779 0 0 0-4.816-4.038 10.518 10.518 0 0 0-6.2-.624 10.663 10.663 0 0 0-5.494 3 11.042 11.042 0 0 0-2.937 5.614 11.186 11.186 0 0 0 .61 6.335 10.916 10.916 0 0 0 3.953 4.921 10.567 10.567 0 0 0 5.961 1.848c1.41.002 2.806-.281 4.109-.831a10.708 10.708 0 0 0 3.483-2.377 10.964 10.964 0 0 0 2.325-3.559c.54-1.331.816-2.757.814-4.198Zm63.237 0c0-2.168-.63-4.288-1.808-6.091a10.779 10.779 0 0 0-4.816-4.038 10.518 10.518 0 0 0-6.2-.624 10.663 10.663 0 0 0-5.494 3 11.042 11.042 0 0 0-2.937 5.614 11.185 11.185 0 0 0 .611 6.335 10.917 10.917 0 0 0 3.952 4.921 10.567 10.567 0 0 0 5.962 1.848 10.52 10.52 0 0 0 4.108-.831 10.71 10.71 0 0 0 3.483-2.377 10.964 10.964 0 0 0 2.326-3.559c.539-1.331.815-2.757.813-4.198Zm63.237 0c0-2.168-.629-4.288-1.808-6.091a10.777 10.777 0 0 0-4.816-4.038 10.517 10.517 0 0 0-6.2-.624 10.666 10.666 0 0 0-5.494 3 11.046 11.046 0 0 0-2.936 5.614 11.188 11.188 0 0 0 .61 6.335 10.919 10.919 0 0 0 3.952 4.921 10.57 10.57 0 0 0 5.962 1.848c1.41.002 2.806-.281 4.108-.831a10.696 10.696 0 0 0 3.483-2.377 10.968 10.968 0 0 0 2.326-3.559c.539-1.331.815-2.757.813-4.198Zm63.188 0c0-2.168-.629-4.288-1.808-6.091a10.777 10.777 0 0 0-4.816-4.038 10.515 10.515 0 0 0-6.199-.624 10.665 10.665 0 0 0-5.495 3 11.046 11.046 0 0 0-2.936 5.614 11.188 11.188 0 0 0 .61 6.335 10.914 10.914 0 0 0 3.953 4.921 10.564 10.564 0 0 0 5.961 1.848c1.41.002 2.806-.281 4.108-.831a10.696 10.696 0 0 0 3.483-2.377 10.952 10.952 0 0 0 2.326-3.559c.539-1.331.815-2.757.813-4.198Zm63.289 0c0-2.168-.63-4.288-1.809-6.091a10.78 10.78 0 0 0-4.815-4.038 10.519 10.519 0 0 0-6.2-.624 10.658 10.658 0 0 0-5.494 3 11.04 11.04 0 0 0-2.937 5.614 11.18 11.18 0 0 0 .611 6.335 10.912 10.912 0 0 0 3.952 4.921 10.564 10.564 0 0 0 5.961 1.848c2.846 0 5.576-1.155 7.588-3.212a11.088 11.088 0 0 0 3.143-7.753Zm63.224 0c0-2.169-.629-4.289-1.809-6.093a10.794 10.794 0 0 0-4.818-4.038 10.513 10.513 0 0 0-6.201-.621 10.664 10.664 0 0 0-5.495 3.004 11.04 11.04 0 0 0-2.933 5.617 11.175 11.175 0 0 0 .616 6.336 10.91 10.91 0 0 0 3.957 4.918 10.579 10.579 0 0 0 5.966 1.842c1.408 0 2.803-.284 4.104-.835a10.717 10.717 0 0 0 3.479-2.377 10.98 10.98 0 0 0 2.322-3.558c.538-1.33.814-2.755.812-4.195ZM21.461 204.815c0-2.168-.63-4.288-1.808-6.091a10.787 10.787 0 0 0-4.816-4.039 10.518 10.518 0 0 0-6.2-.624 10.665 10.665 0 0 0-5.494 3.001 11.042 11.042 0 0 0-2.937 5.614 11.186 11.186 0 0 0 .61 6.335 10.916 10.916 0 0 0 3.953 4.921 10.567 10.567 0 0 0 5.961 1.848 10.54 10.54 0 0 0 4.109-.831 10.708 10.708 0 0 0 3.483-2.377 10.964 10.964 0 0 0 2.325-3.559 11.16 11.16 0 0 0 .814-4.198Zm63.237 0c0-2.168-.63-4.288-1.808-6.091a10.787 10.787 0 0 0-4.816-4.039 10.518 10.518 0 0 0-6.2-.624 10.664 10.664 0 0 0-5.494 3.001 11.042 11.042 0 0 0-2.937 5.614 11.185 11.185 0 0 0 .611 6.335 10.917 10.917 0 0 0 3.952 4.921 10.567 10.567 0 0 0 5.962 1.848c1.41.001 2.805-.281 4.108-.831a10.71 10.71 0 0 0 3.483-2.377 10.964 10.964 0 0 0 2.326-3.559 11.16 11.16 0 0 0 .813-4.198Zm63.237 0c0-2.168-.629-4.288-1.808-6.091a10.786 10.786 0 0 0-4.816-4.039 10.517 10.517 0 0 0-6.2-.624 10.667 10.667 0 0 0-5.494 3.001 11.046 11.046 0 0 0-2.936 5.614 11.188 11.188 0 0 0 .61 6.335 10.919 10.919 0 0 0 3.952 4.921 10.57 10.57 0 0 0 5.962 1.848c1.41.001 2.806-.281 4.108-.831a10.696 10.696 0 0 0 3.483-2.377 10.968 10.968 0 0 0 2.326-3.559c.539-1.331.815-2.758.813-4.198Zm63.188 0c0-2.168-.629-4.288-1.808-6.091a10.786 10.786 0 0 0-4.816-4.039 10.515 10.515 0 0 0-6.199-.624 10.666 10.666 0 0 0-5.495 3.001 11.046 11.046 0 0 0-2.936 5.614 11.188 11.188 0 0 0 .61 6.335 10.914 10.914 0 0 0 3.953 4.921 10.564 10.564 0 0 0 5.961 1.848c1.41.001 2.806-.281 4.108-.831a10.696 10.696 0 0 0 3.483-2.377 10.952 10.952 0 0 0 2.326-3.559c.539-1.331.815-2.758.813-4.198Zm63.289 0c0-2.168-.63-4.288-1.809-6.091a10.789 10.789 0 0 0-4.815-4.039 10.519 10.519 0 0 0-6.2-.624 10.66 10.66 0 0 0-5.494 3.001 11.04 11.04 0 0 0-2.937 5.614 11.18 11.18 0 0 0 .611 6.335 10.912 10.912 0 0 0 3.952 4.921 10.564 10.564 0 0 0 5.961 1.848c2.846 0 5.576-1.155 7.588-3.212a11.088 11.088 0 0 0 3.143-7.753Zm63.224 0c0-2.169-.629-4.289-1.809-6.093a10.794 10.794 0 0 0-4.818-4.038 10.521 10.521 0 0 0-6.201-.622 10.666 10.666 0 0 0-5.495 3.005 11.036 11.036 0 0 0-2.933 5.617 11.175 11.175 0 0 0 .616 6.336 10.91 10.91 0 0 0 3.957 4.918 10.571 10.571 0 0 0 5.966 1.842c1.408 0 2.803-.284 4.104-.835a10.704 10.704 0 0 0 3.479-2.378 10.976 10.976 0 0 0 2.322-3.557 11.15 11.15 0 0 0 .812-4.195ZM21.461 269.431a11.136 11.136 0 0 0-1.802-6.095 10.784 10.784 0 0 0-4.813-4.044 10.513 10.513 0 0 0-6.201-.629 10.656 10.656 0 0 0-5.498 2.997 11.042 11.042 0 0 0-2.94 5.614 11.188 11.188 0 0 0 .609 6.337 10.922 10.922 0 0 0 3.952 4.923 10.57 10.57 0 0 0 5.962 1.848c2.844 0 5.572-1.153 7.584-3.206a11.088 11.088 0 0 0 3.147-7.745Zm63.237 0a11.137 11.137 0 0 0-1.802-6.095 10.784 10.784 0 0 0-4.813-4.044 10.514 10.514 0 0 0-6.2-.629 10.654 10.654 0 0 0-5.498 2.997 11.042 11.042 0 0 0-2.94 5.614 11.188 11.188 0 0 0 .608 6.337 10.922 10.922 0 0 0 3.952 4.923 10.57 10.57 0 0 0 5.963 1.848 10.62 10.62 0 0 0 7.583-3.206 11.088 11.088 0 0 0 3.147-7.745Zm63.237 0a11.128 11.128 0 0 0-1.802-6.095 10.779 10.779 0 0 0-4.813-4.044 10.513 10.513 0 0 0-6.201-.629 10.655 10.655 0 0 0-5.497 2.997 11.04 11.04 0 0 0-2.94 5.614 11.187 11.187 0 0 0 .608 6.337 10.923 10.923 0 0 0 3.952 4.923 10.57 10.57 0 0 0 5.963 1.848c2.844 0 5.571-1.153 7.583-3.206a11.086 11.086 0 0 0 3.147-7.745Zm63.188 0a11.128 11.128 0 0 0-1.802-6.095 10.779 10.779 0 0 0-4.813-4.044 10.513 10.513 0 0 0-6.201-.629 10.655 10.655 0 0 0-5.497 2.997 11.04 11.04 0 0 0-2.94 5.614 11.187 11.187 0 0 0 .608 6.337 10.923 10.923 0 0 0 3.952 4.923 10.57 10.57 0 0 0 5.963 1.848c2.844 0 5.571-1.153 7.583-3.206a11.086 11.086 0 0 0 3.147-7.745Zm63.289 0a11.145 11.145 0 0 0-1.802-6.095 10.79 10.79 0 0 0-4.813-4.044 10.515 10.515 0 0 0-6.201-.629 10.654 10.654 0 0 0-5.498 2.997 11.04 11.04 0 0 0-2.94 5.614 11.187 11.187 0 0 0 .608 6.337 10.925 10.925 0 0 0 3.953 4.923 10.568 10.568 0 0 0 5.962 1.848 10.623 10.623 0 0 0 7.579-3.21 11.099 11.099 0 0 0 3.152-7.741Zm63.224 0a11.13 11.13 0 0 0-1.803-6.096 10.791 10.791 0 0 0-4.815-4.045 10.52 10.52 0 0 0-6.203-.626 10.658 10.658 0 0 0-5.497 3.001 11.038 11.038 0 0 0-2.937 5.617c-.414 2.128-.2 4.334.614 6.338a10.908 10.908 0 0 0 3.957 4.92 10.564 10.564 0 0 0 5.966 1.842 10.613 10.613 0 0 0 7.575-3.211 11.085 11.085 0 0 0 3.143-7.74ZM21.461 334.049a11.134 11.134 0 0 0-1.802-6.095 10.784 10.784 0 0 0-4.813-4.044 10.522 10.522 0 0 0-6.201-.63 10.664 10.664 0 0 0-5.498 2.998 11.042 11.042 0 0 0-2.94 5.614 11.184 11.184 0 0 0 .609 6.336 10.912 10.912 0 0 0 3.952 4.923A10.564 10.564 0 0 0 10.73 345c1.409.002 2.804-.28 4.106-.83a10.697 10.697 0 0 0 3.481-2.373 10.972 10.972 0 0 0 2.327-3.554c.54-1.33.817-2.755.817-4.194Zm63.237 0a11.134 11.134 0 0 0-1.802-6.095 10.784 10.784 0 0 0-4.813-4.044 10.523 10.523 0 0 0-6.2-.63 10.663 10.663 0 0 0-5.498 2.998 11.042 11.042 0 0 0-2.94 5.614 11.184 11.184 0 0 0 .608 6.336 10.912 10.912 0 0 0 3.952 4.923A10.563 10.563 0 0 0 73.968 345c1.408.002 2.803-.28 4.105-.83a10.697 10.697 0 0 0 3.482-2.373 10.972 10.972 0 0 0 2.326-3.554c.54-1.33.817-2.755.817-4.194Zm63.237 0a11.126 11.126 0 0 0-1.802-6.095 10.779 10.779 0 0 0-4.813-4.044 10.522 10.522 0 0 0-6.201-.63 10.664 10.664 0 0 0-5.497 2.998 11.04 11.04 0 0 0-2.94 5.614 11.183 11.183 0 0 0 .608 6.336 10.912 10.912 0 0 0 3.952 4.923 10.564 10.564 0 0 0 5.963 1.849c1.408.002 2.803-.28 4.105-.83a10.702 10.702 0 0 0 3.482-2.373 10.974 10.974 0 0 0 2.326-3.554c.54-1.33.817-2.755.817-4.194Zm63.188 0a11.126 11.126 0 0 0-1.802-6.095 10.779 10.779 0 0 0-4.813-4.044 10.522 10.522 0 0 0-6.201-.63 10.664 10.664 0 0 0-5.497 2.998 11.04 11.04 0 0 0-2.94 5.614 11.183 11.183 0 0 0 .608 6.336 10.912 10.912 0 0 0 3.952 4.923 10.564 10.564 0 0 0 5.963 1.849c1.408.002 2.804-.28 4.105-.83a10.702 10.702 0 0 0 3.482-2.373 10.974 10.974 0 0 0 2.326-3.554c.54-1.33.817-2.755.817-4.194Zm63.289 0a11.142 11.142 0 0 0-1.802-6.095 10.79 10.79 0 0 0-4.813-4.044 10.523 10.523 0 0 0-6.201-.63 10.663 10.663 0 0 0-5.498 2.998 11.04 11.04 0 0 0-2.94 5.614 11.183 11.183 0 0 0 .608 6.336 10.915 10.915 0 0 0 3.953 4.923 10.56 10.56 0 0 0 5.962 1.849c2.844 0 5.571-1.153 7.583-3.207a11.089 11.089 0 0 0 3.148-7.744Zm63.224 0a11.133 11.133 0 0 0-1.803-6.097 10.789 10.789 0 0 0-4.815-4.044 10.528 10.528 0 0 0-6.203-.627 10.66 10.66 0 0 0-5.497 3.002 11.038 11.038 0 0 0-2.937 5.617c-.414 2.128-.2 4.334.614 6.338a10.908 10.908 0 0 0 3.957 4.92 10.564 10.564 0 0 0 5.966 1.842c2.843 0 5.569-1.154 7.579-3.208a11.07 11.07 0 0 0 3.139-7.743Z" fill="#ED634D"/></svg>