<svg width="169" height="171" fill="none" xmlns="http://www.w3.org/2000/svg"><path d="M84.506 37.143a47.394 47.394 0 0 1 26.552 8.15c7.859 5.313 13.985 12.865 17.602 21.702a48.883 48.883 0 0 1 2.72 27.939 48.539 48.539 0 0 1-13.08 24.76 47.62 47.62 0 0 1-24.47 13.234 47.272 47.272 0 0 1-27.613-2.752c-8.732-3.66-16.197-9.858-21.448-17.81A48.768 48.768 0 0 1 36.715 85.5c.013-12.82 5.053-25.113 14.013-34.179 8.96-9.065 21.107-14.164 33.778-14.178Zm0-37.143C67.794-.001 51.456 5.012 37.56 14.406 23.662 23.8 12.831 37.153 6.434 52.776a86.44 86.44 0 0 0-4.811 49.4c3.26 16.586 11.307 31.821 23.124 43.779 11.818 11.958 26.874 20.102 43.266 23.402a83.586 83.586 0 0 0 48.822-4.865c15.441-6.471 28.639-17.43 37.924-31.49C164.044 118.941 169 102.411 169 85.5a86.367 86.367 0 0 0-6.43-32.719 85.57 85.57 0 0 0-18.315-27.738 84.433 84.433 0 0 0-27.413-18.535A83.633 83.633 0 0 0 84.506 0Z" fill="#96DBD3"/></svg>