<svg width="172" height="175" fill="none" xmlns="http://www.w3.org/2000/svg"><path d="M10.886 5.562c0-1.1-.32-2.176-.917-3.09A5.47 5.47 0 0 0 7.526.423 5.335 5.335 0 0 0 4.381.107a5.408 5.408 0 0 0-2.787 1.522 5.6 5.6 0 0 0-1.49 2.848 5.674 5.674 0 0 0 .31 3.213 5.537 5.537 0 0 0 2.005 2.496 5.361 5.361 0 0 0 5.108.516 5.43 5.43 0 0 0 1.767-1.206 5.564 5.564 0 0 0 1.18-1.805 5.658 5.658 0 0 0 .412-2.13Zm32.077 0c0-1.1-.319-2.176-.917-3.09A5.47 5.47 0 0 0 39.603.423a5.335 5.335 0 0 0-3.145-.316 5.408 5.408 0 0 0-2.787 1.522 5.6 5.6 0 0 0-1.49 2.848 5.674 5.674 0 0 0 .31 3.213 5.538 5.538 0 0 0 2.005 2.496 5.36 5.36 0 0 0 6.875-.69 5.566 5.566 0 0 0 1.18-1.805 5.662 5.662 0 0 0 .412-2.13Zm32.077 0c0-1.1-.32-2.176-.917-3.09A5.47 5.47 0 0 0 71.68.423a5.336 5.336 0 0 0-3.145-.316 5.407 5.407 0 0 0-2.787 1.522 5.6 5.6 0 0 0-1.49 2.848 5.674 5.674 0 0 0 .31 3.213 5.537 5.537 0 0 0 2.005 2.496 5.361 5.361 0 0 0 5.108.516 5.43 5.43 0 0 0 1.767-1.206 5.564 5.564 0 0 0 1.18-1.805 5.66 5.66 0 0 0 .412-2.13Zm32.052 0a5.64 5.64 0 0 0-.918-3.09 5.471 5.471 0 0 0-2.442-2.049 5.336 5.336 0 0 0-3.145-.316A5.408 5.408 0 0 0 97.8 1.629a5.6 5.6 0 0 0-1.49 2.848 5.675 5.675 0 0 0 .31 3.213 5.538 5.538 0 0 0 2.005 2.496 5.36 5.36 0 0 0 6.874-.69 5.555 5.555 0 0 0 1.18-1.805 5.663 5.663 0 0 0 .413-2.13Zm32.102 0c0-1.1-.319-2.176-.917-3.09a5.468 5.468 0 0 0-2.443-2.049 5.335 5.335 0 0 0-3.145-.316 5.415 5.415 0 0 0-2.787 1.522 5.6 5.6 0 0 0-1.489 2.848 5.674 5.674 0 0 0 .31 3.213 5.537 5.537 0 0 0 2.004 2.496 5.362 5.362 0 0 0 3.024.937 5.385 5.385 0 0 0 3.849-1.629 5.622 5.622 0 0 0 1.594-3.932Zm32.071 0c0-1.1-.319-2.176-.918-3.091a5.468 5.468 0 0 0-2.444-2.048 5.333 5.333 0 0 0-3.145-.316 5.409 5.409 0 0 0-2.787 1.524 5.598 5.598 0 0 0-1.488 2.85 5.668 5.668 0 0 0 .312 3.214 5.539 5.539 0 0 0 2.008 2.494 5.36 5.36 0 0 0 6.872-.695 5.566 5.566 0 0 0 1.178-1.804 5.655 5.655 0 0 0 .412-2.128ZM10.886 38.339c0-1.1-.32-2.176-.917-3.09A5.47 5.47 0 0 0 7.526 33.2a5.336 5.336 0 0 0-3.145-.317 5.408 5.408 0 0 0-2.787 1.523 5.6 5.6 0 0 0-1.49 2.847 5.674 5.674 0 0 0 .31 3.214 5.537 5.537 0 0 0 2.005 2.496 5.361 5.361 0 0 0 6.875-.69 5.564 5.564 0 0 0 1.18-1.805 5.659 5.659 0 0 0 .412-2.13Zm32.077 0c0-1.1-.319-2.176-.917-3.09a5.47 5.47 0 0 0-2.443-2.049 5.336 5.336 0 0 0-3.145-.317 5.408 5.408 0 0 0-2.787 1.523 5.6 5.6 0 0 0-1.49 2.847 5.674 5.674 0 0 0 .31 3.214 5.538 5.538 0 0 0 2.005 2.496 5.36 5.36 0 0 0 6.875-.69 5.566 5.566 0 0 0 1.18-1.805 5.662 5.662 0 0 0 .412-2.13Zm32.077 0c0-1.1-.32-2.176-.917-3.09A5.47 5.47 0 0 0 71.68 33.2a5.336 5.336 0 0 0-3.145-.317 5.408 5.408 0 0 0-2.787 1.523 5.6 5.6 0 0 0-1.49 2.847 5.674 5.674 0 0 0 .31 3.214 5.537 5.537 0 0 0 2.005 2.496 5.361 5.361 0 0 0 6.875-.69 5.564 5.564 0 0 0 1.18-1.805 5.66 5.66 0 0 0 .412-2.13Zm32.052 0a5.64 5.64 0 0 0-.918-3.09 5.471 5.471 0 0 0-2.442-2.049 5.336 5.336 0 0 0-3.145-.317 5.408 5.408 0 0 0-2.787 1.523 5.6 5.6 0 0 0-1.49 2.847 5.675 5.675 0 0 0 .31 3.214 5.538 5.538 0 0 0 2.005 2.496 5.36 5.36 0 0 0 6.874-.69 5.555 5.555 0 0 0 1.18-1.805 5.663 5.663 0 0 0 .413-2.13Zm32.102 0c0-1.1-.319-2.176-.917-3.09a5.469 5.469 0 0 0-2.443-2.049 5.336 5.336 0 0 0-3.145-.317 5.415 5.415 0 0 0-2.787 1.523 5.601 5.601 0 0 0-1.489 2.847 5.674 5.674 0 0 0 .31 3.214 5.537 5.537 0 0 0 2.004 2.496 5.34 5.34 0 0 0 5.107.514 5.427 5.427 0 0 0 1.766-1.206 5.57 5.57 0 0 0 1.18-1.804 5.657 5.657 0 0 0 .414-2.128Zm32.071 0c0-1.1-.319-2.176-.918-3.091a5.468 5.468 0 0 0-2.444-2.049 5.333 5.333 0 0 0-3.145-.315 5.41 5.41 0 0 0-2.787 1.524 5.598 5.598 0 0 0-1.488 2.85 5.668 5.668 0 0 0 .312 3.213 5.538 5.538 0 0 0 2.008 2.495 5.36 5.36 0 0 0 6.872-.695 5.567 5.567 0 0 0 1.178-1.805 5.654 5.654 0 0 0 .412-2.127ZM10.886 71.115c0-1.1-.32-2.176-.917-3.09a5.47 5.47 0 0 0-2.443-2.049 5.335 5.335 0 0 0-3.145-.316 5.408 5.408 0 0 0-2.787 1.522 5.6 5.6 0 0 0-1.49 2.848 5.675 5.675 0 0 0 .31 3.213A5.538 5.538 0 0 0 2.42 75.74a5.361 5.361 0 0 0 5.108.516 5.43 5.43 0 0 0 1.767-1.206 5.564 5.564 0 0 0 1.18-1.805 5.658 5.658 0 0 0 .412-2.13Zm32.077 0c0-1.1-.319-2.176-.917-3.09a5.47 5.47 0 0 0-2.443-2.049 5.335 5.335 0 0 0-3.145-.316 5.408 5.408 0 0 0-2.787 1.522 5.6 5.6 0 0 0-1.49 2.848 5.674 5.674 0 0 0 .31 3.213 5.538 5.538 0 0 0 2.005 2.496 5.36 5.36 0 0 0 6.875-.69 5.566 5.566 0 0 0 1.18-1.805 5.661 5.661 0 0 0 .412-2.13Zm32.077 0c0-1.1-.32-2.176-.917-3.09a5.47 5.47 0 0 0-2.443-2.049 5.335 5.335 0 0 0-3.145-.316 5.408 5.408 0 0 0-2.787 1.522 5.6 5.6 0 0 0-1.49 2.848 5.674 5.674 0 0 0 .31 3.213 5.537 5.537 0 0 0 2.005 2.496 5.361 5.361 0 0 0 5.108.516 5.43 5.43 0 0 0 1.767-1.206 5.564 5.564 0 0 0 1.18-1.805 5.66 5.66 0 0 0 .412-2.13Zm32.052 0a5.64 5.64 0 0 0-.918-3.09 5.47 5.47 0 0 0-2.442-2.049 5.336 5.336 0 0 0-3.145-.316 5.408 5.408 0 0 0-2.787 1.522 5.6 5.6 0 0 0-1.49 2.848 5.675 5.675 0 0 0 .31 3.213 5.538 5.538 0 0 0 2.005 2.496 5.36 5.36 0 0 0 6.874-.69 5.555 5.555 0 0 0 1.18-1.805 5.662 5.662 0 0 0 .413-2.13Zm32.102 0c0-1.1-.319-2.176-.917-3.09a5.468 5.468 0 0 0-2.443-2.049 5.335 5.335 0 0 0-3.145-.316 5.415 5.415 0 0 0-2.787 1.522 5.6 5.6 0 0 0-1.489 2.848 5.674 5.674 0 0 0 .31 3.213 5.537 5.537 0 0 0 2.004 2.496 5.362 5.362 0 0 0 3.024.938 5.385 5.385 0 0 0 3.849-1.63 5.622 5.622 0 0 0 1.594-3.932Zm32.071 0a5.64 5.64 0 0 0-.918-3.09 5.469 5.469 0 0 0-2.444-2.05 5.333 5.333 0 0 0-3.145-.314 5.408 5.408 0 0 0-2.787 1.523 5.598 5.598 0 0 0-1.488 2.85 5.667 5.667 0 0 0 .312 3.214 5.538 5.538 0 0 0 2.008 2.494 5.36 5.36 0 0 0 5.107.511c.66-.28 1.26-.69 1.765-1.206a5.566 5.566 0 0 0 1.178-1.804 5.655 5.655 0 0 0 .412-2.128ZM10.886 103.892c0-1.1-.32-2.175-.917-3.09a5.47 5.47 0 0 0-2.443-2.049 5.336 5.336 0 0 0-3.145-.316 5.408 5.408 0 0 0-2.787 1.522 5.6 5.6 0 0 0-1.49 2.848 5.673 5.673 0 0 0 .31 3.213 5.538 5.538 0 0 0 2.005 2.496 5.362 5.362 0 0 0 6.875-.689 5.573 5.573 0 0 0 1.18-1.806 5.658 5.658 0 0 0 .412-2.129Zm32.077 0a5.65 5.65 0 0 0-.917-3.09 5.47 5.47 0 0 0-2.443-2.049 5.336 5.336 0 0 0-3.145-.316 5.408 5.408 0 0 0-2.787 1.522 5.6 5.6 0 0 0-1.49 2.848 5.673 5.673 0 0 0 .31 3.213 5.539 5.539 0 0 0 2.005 2.496 5.361 5.361 0 0 0 6.875-.689 5.575 5.575 0 0 0 1.18-1.806 5.662 5.662 0 0 0 .412-2.129Zm32.077 0c0-1.1-.32-2.175-.917-3.09a5.47 5.47 0 0 0-2.443-2.049 5.336 5.336 0 0 0-3.145-.316 5.407 5.407 0 0 0-2.787 1.522 5.6 5.6 0 0 0-1.49 2.848 5.673 5.673 0 0 0 .31 3.213 5.538 5.538 0 0 0 2.005 2.496 5.362 5.362 0 0 0 6.875-.689 5.573 5.573 0 0 0 1.18-1.806 5.66 5.66 0 0 0 .412-2.129Zm32.052 0c0-1.1-.319-2.175-.918-3.09a5.471 5.471 0 0 0-2.442-2.049 5.336 5.336 0 0 0-3.145-.316 5.407 5.407 0 0 0-2.787 1.522 5.6 5.6 0 0 0-1.49 2.848 5.673 5.673 0 0 0 .31 3.213 5.539 5.539 0 0 0 2.005 2.496 5.361 5.361 0 0 0 6.874-.689 5.564 5.564 0 0 0 1.18-1.806 5.662 5.662 0 0 0 .413-2.129Zm32.102 0a5.65 5.65 0 0 0-.917-3.09 5.468 5.468 0 0 0-2.443-2.049 5.336 5.336 0 0 0-3.145-.316 5.414 5.414 0 0 0-2.787 1.522 5.601 5.601 0 0 0-1.489 2.848 5.673 5.673 0 0 0 .31 3.213 5.538 5.538 0 0 0 2.004 2.496 5.363 5.363 0 0 0 3.024.937 5.384 5.384 0 0 0 3.849-1.628 5.623 5.623 0 0 0 1.594-3.933Zm32.071 0a5.643 5.643 0 0 0-.918-3.091 5.47 5.47 0 0 0-2.444-2.048 5.333 5.333 0 0 0-3.145-.316 5.41 5.41 0 0 0-2.787 1.525 5.6 5.6 0 0 0-1.488 2.849 5.668 5.668 0 0 0 .312 3.214 5.535 5.535 0 0 0 2.008 2.494 5.35 5.35 0 0 0 5.107.511c.66-.28 1.26-.689 1.765-1.206a5.566 5.566 0 0 0 1.178-1.804 5.656 5.656 0 0 0 .412-2.128ZM10.886 136.668a5.651 5.651 0 0 0-.914-3.092 5.473 5.473 0 0 0-2.442-2.051 5.334 5.334 0 0 0-3.145-.319 5.412 5.412 0 0 0-2.789 1.52 5.603 5.603 0 0 0-1.49 2.848 5.673 5.673 0 0 0 .308 3.214 5.533 5.533 0 0 0 2.004 2.497 5.357 5.357 0 0 0 3.025.938 5.387 5.387 0 0 0 3.846-1.626 5.625 5.625 0 0 0 1.597-3.929Zm32.077 0a5.651 5.651 0 0 0-.914-3.092 5.473 5.473 0 0 0-2.441-2.051 5.334 5.334 0 0 0-3.146-.319 5.411 5.411 0 0 0-2.788 1.52 5.604 5.604 0 0 0-1.492 2.848 5.674 5.674 0 0 0 .309 3.214 5.534 5.534 0 0 0 2.005 2.497 5.356 5.356 0 0 0 3.024.938 5.386 5.386 0 0 0 3.847-1.626 5.626 5.626 0 0 0 1.596-3.929Zm32.077 0a5.651 5.651 0 0 0-.914-3.092 5.473 5.473 0 0 0-2.442-2.051 5.334 5.334 0 0 0-3.145-.319 5.412 5.412 0 0 0-2.788 1.52 5.603 5.603 0 0 0-1.492 2.848 5.673 5.673 0 0 0 .309 3.214 5.532 5.532 0 0 0 2.004 2.497 5.356 5.356 0 0 0 3.025.938 5.386 5.386 0 0 0 3.847-1.626 5.625 5.625 0 0 0 1.596-3.929Zm32.052 0a5.656 5.656 0 0 0-.914-3.092 5.475 5.475 0 0 0-2.442-2.051 5.332 5.332 0 0 0-3.145-.319 5.412 5.412 0 0 0-2.789 1.52 5.603 5.603 0 0 0-1.491 2.848 5.672 5.672 0 0 0 .308 3.214 5.534 5.534 0 0 0 2.005 2.497 5.357 5.357 0 0 0 3.025.938 5.385 5.385 0 0 0 3.846-1.626 5.625 5.625 0 0 0 1.597-3.929Zm32.102 0a5.648 5.648 0 0 0-.914-3.092 5.473 5.473 0 0 0-2.441-2.051 5.336 5.336 0 0 0-3.146-.319 5.412 5.412 0 0 0-2.788 1.52 5.607 5.607 0 0 0-1.492 2.848 5.676 5.676 0 0 0 .309 3.214 5.53 5.53 0 0 0 2.005 2.497 5.356 5.356 0 0 0 3.024.938 5.393 5.393 0 0 0 3.845-1.628 5.632 5.632 0 0 0 1.598-3.927Zm32.071 0a5.646 5.646 0 0 0-.915-3.092 5.466 5.466 0 0 0-2.442-2.052 5.336 5.336 0 0 0-3.146-.318 5.416 5.416 0 0 0-2.789 1.523 5.603 5.603 0 0 0-1.49 2.849 5.672 5.672 0 0 0 .312 3.215 5.53 5.53 0 0 0 2.007 2.495 5.36 5.36 0 0 0 3.026.935 5.39 5.39 0 0 0 3.843-1.629 5.624 5.624 0 0 0 1.594-3.926ZM10.886 169.445a5.651 5.651 0 0 0-.914-3.092 5.473 5.473 0 0 0-2.442-2.051 5.334 5.334 0 0 0-3.145-.319 5.412 5.412 0 0 0-2.789 1.52 5.603 5.603 0 0 0-1.49 2.848 5.673 5.673 0 0 0 .308 3.214 5.533 5.533 0 0 0 2.004 2.497 5.357 5.357 0 0 0 6.873-.687 5.555 5.555 0 0 0 1.18-1.802 5.666 5.666 0 0 0 .415-2.128Zm32.077 0a5.651 5.651 0 0 0-.914-3.092 5.473 5.473 0 0 0-2.441-2.051 5.334 5.334 0 0 0-3.146-.319 5.411 5.411 0 0 0-2.788 1.52 5.604 5.604 0 0 0-1.492 2.848 5.674 5.674 0 0 0 .309 3.214 5.534 5.534 0 0 0 2.005 2.497 5.356 5.356 0 0 0 6.872-.687 5.553 5.553 0 0 0 1.18-1.802 5.665 5.665 0 0 0 .415-2.128Zm32.077 0a5.651 5.651 0 0 0-.914-3.092 5.473 5.473 0 0 0-2.442-2.051 5.334 5.334 0 0 0-3.145-.319 5.412 5.412 0 0 0-2.788 1.52 5.603 5.603 0 0 0-1.492 2.848 5.673 5.673 0 0 0 .309 3.214 5.532 5.532 0 0 0 2.004 2.497 5.356 5.356 0 0 0 6.873-.687 5.554 5.554 0 0 0 1.18-1.802 5.666 5.666 0 0 0 .415-2.128Zm32.052 0a5.656 5.656 0 0 0-.914-3.092 5.475 5.475 0 0 0-2.442-2.051 5.332 5.332 0 0 0-3.145-.319 5.412 5.412 0 0 0-2.789 1.52 5.603 5.603 0 0 0-1.491 2.848 5.672 5.672 0 0 0 .308 3.214 5.534 5.534 0 0 0 2.005 2.497 5.357 5.357 0 0 0 6.873-.687 5.536 5.536 0 0 0 1.18-1.802 5.66 5.66 0 0 0 .415-2.128Zm32.102 0a5.648 5.648 0 0 0-.914-3.092 5.473 5.473 0 0 0-2.441-2.051 5.336 5.336 0 0 0-3.146-.319 5.412 5.412 0 0 0-2.788 1.52 5.607 5.607 0 0 0-1.492 2.848 5.676 5.676 0 0 0 .309 3.214 5.53 5.53 0 0 0 2.005 2.497 5.356 5.356 0 0 0 3.024.938 5.387 5.387 0 0 0 3.847-1.626 5.624 5.624 0 0 0 1.596-3.929Zm32.071 0a5.646 5.646 0 0 0-.915-3.092 5.466 5.466 0 0 0-2.442-2.052 5.344 5.344 0 0 0-3.146-.318 5.416 5.416 0 0 0-2.789 1.523 5.607 5.607 0 0 0-1.49 2.849 5.672 5.672 0 0 0 .312 3.215 5.537 5.537 0 0 0 2.007 2.496c.896.61 1.949.935 3.026.934a5.38 5.38 0 0 0 3.845-1.627 5.62 5.62 0 0 0 1.592-3.928Z" fill="#ED634D"/></svg>