<svg width="190" height="190" fill="none" xmlns="http://www.w3.org/2000/svg"><path d="M63.338 158.331A31.67 31.67 0 0 0 25.49 127.27 31.67 31.67 0 0 0 31.669 190a31.67 31.67 0 0 0 31.669-31.669Z" fill="#B5DCD9"/><path d="M126.668 158.331a31.67 31.67 0 1 0-63.336 0 31.67 31.67 0 0 0 63.336 0Z" fill="#B5DCD9"/><path d="M189.999 158.331a31.67 31.67 0 1 0-63.34.001 31.67 31.67 0 0 0 63.34-.001ZM63.338 95A31.669 31.669 0 1 0 0 95a31.669 31.669 0 0 0 63.338 0Z" fill="#B5DCD9"/><path d="M126.668 95a31.67 31.67 0 1 0-63.337.001 31.67 31.67 0 0 0 63.337 0Z" fill="#B5DCD9"/><path d="M189.999 95a31.669 31.669 0 1 0-63.337.002A31.669 31.669 0 0 0 189.999 95ZM63.338 31.669a31.669 31.669 0 1 0-31.67 31.669 31.676 31.676 0 0 0 31.67-31.67Z" fill="#B5DCD9"/><path d="M126.668 31.67a31.669 31.669 0 1 0-63.334 0 31.669 31.669 0 0 0 63.334 0Z" fill="#B5DCD9"/><path d="M189.999 31.67a31.669 31.669 0 1 0-63.337.001 31.669 31.669 0 0 0 63.337-.002Z" fill="#B5DCD9"/></svg>