<svg width="145" height="148" fill="none" xmlns="http://www.w3.org/2000/svg"><path d="M9.167 4.683c0-.926-.269-1.831-.772-2.601A4.607 4.607 0 0 0 6.338.357 4.493 4.493 0 0 0 3.689.09a4.554 4.554 0 0 0-2.347 1.282A4.716 4.716 0 0 0 .088 3.77a4.778 4.778 0 0 0 .26 2.706 4.663 4.663 0 0 0 1.689 2.102 4.514 4.514 0 0 0 5.79-.581 4.7 4.7 0 0 0 .993-1.52c.23-.569.348-1.178.347-1.794Zm27.013 0a4.76 4.76 0 0 0-.773-2.601A4.606 4.606 0 0 0 33.35.357 4.493 4.493 0 0 0 30.7.09a4.55 4.55 0 0 0-2.347 1.282A4.716 4.716 0 0 0 27.1 3.77a4.78 4.78 0 0 0 .26 2.706 4.663 4.663 0 0 0 1.69 2.102 4.514 4.514 0 0 0 5.788-.581c.426-.435.764-.952.994-1.52.23-.569.348-1.178.347-1.794Zm27.011 0c0-.926-.269-1.831-.772-2.601A4.606 4.606 0 0 0 60.362.357 4.493 4.493 0 0 0 57.713.09a4.547 4.547 0 0 0-2.346 1.282 4.716 4.716 0 0 0-1.255 2.398 4.778 4.778 0 0 0 .261 2.706 4.663 4.663 0 0 0 1.688 2.102 4.514 4.514 0 0 0 5.79-.581 4.7 4.7 0 0 0 .993-1.52c.23-.569.348-1.178.347-1.794Zm26.991 0c0-.926-.269-1.831-.773-2.601A4.606 4.606 0 0 0 87.352.357 4.493 4.493 0 0 0 84.704.09c-.89.18-1.706.627-2.347 1.282a4.716 4.716 0 0 0-1.254 2.398 4.778 4.778 0 0 0 .26 2.706 4.663 4.663 0 0 0 1.689 2.102 4.514 4.514 0 0 0 5.789-.581c.426-.435.763-.952.993-1.52.23-.569.349-1.178.348-1.794Zm27.033 0c0-.926-.269-1.831-.772-2.601a4.611 4.611 0 0 0-2.057-1.725 4.495 4.495 0 0 0-2.649-.267 4.552 4.552 0 0 0-2.346 1.282 4.718 4.718 0 0 0-1.255 2.398 4.776 4.776 0 0 0 .261 2.706 4.662 4.662 0 0 0 1.688 2.102 4.52 4.52 0 0 0 2.547.789 4.536 4.536 0 0 0 3.241-1.372 4.738 4.738 0 0 0 1.342-3.312Zm27.007 0c0-.926-.269-1.832-.773-2.602a4.606 4.606 0 0 0-2.058-1.725 4.492 4.492 0 0 0-2.649-.266 4.557 4.557 0 0 0-2.347 1.284 4.728 4.728 0 0 0-1.253 2.4 4.787 4.787 0 0 0 .263 2.706 4.662 4.662 0 0 0 1.691 2.1 4.512 4.512 0 0 0 5.787-.585c.425-.435.762-.951.992-1.52.23-.568.348-1.177.347-1.792ZM9.167 32.285c0-.926-.269-1.832-.772-2.602a4.607 4.607 0 0 0-2.057-1.725 4.493 4.493 0 0 0-2.649-.267 4.554 4.554 0 0 0-2.347 1.282 4.716 4.716 0 0 0-1.254 2.398 4.778 4.778 0 0 0 .26 2.706 4.663 4.663 0 0 0 1.689 2.102 4.515 4.515 0 0 0 5.79-.58c.425-.436.763-.952.993-1.521.23-.569.348-1.178.347-1.793Zm27.013 0c0-.926-.27-1.832-.773-2.602a4.606 4.606 0 0 0-2.057-1.725 4.493 4.493 0 0 0-2.649-.267 4.55 4.55 0 0 0-2.347 1.282 4.716 4.716 0 0 0-1.254 2.398 4.78 4.78 0 0 0 .26 2.706 4.663 4.663 0 0 0 1.69 2.102 4.514 4.514 0 0 0 5.788-.58c.426-.436.764-.952.994-1.521.23-.569.348-1.178.347-1.793Zm27.011 0c0-.926-.269-1.832-.772-2.602a4.606 4.606 0 0 0-2.057-1.725 4.493 4.493 0 0 0-2.649-.267 4.547 4.547 0 0 0-2.346 1.282 4.716 4.716 0 0 0-1.255 2.398 4.778 4.778 0 0 0 .261 2.706 4.663 4.663 0 0 0 1.688 2.102 4.514 4.514 0 0 0 5.79-.58c.425-.436.763-.952.993-1.521.23-.569.348-1.178.347-1.793Zm26.991 0c0-.926-.269-1.832-.773-2.602a4.606 4.606 0 0 0-2.057-1.725 4.493 4.493 0 0 0-2.648-.267c-.89.18-1.706.627-2.347 1.282a4.716 4.716 0 0 0-1.254 2.398 4.778 4.778 0 0 0 .26 2.706 4.663 4.663 0 0 0 1.689 2.102 4.514 4.514 0 0 0 5.789-.58c.426-.436.763-.952.993-1.521.23-.569.349-1.178.348-1.793Zm27.033 0c0-.926-.269-1.832-.772-2.602a4.611 4.611 0 0 0-2.057-1.725 4.495 4.495 0 0 0-2.649-.267 4.552 4.552 0 0 0-2.346 1.282 4.718 4.718 0 0 0-1.255 2.398 4.777 4.777 0 0 0 .261 2.706 4.662 4.662 0 0 0 1.688 2.102 4.497 4.497 0 0 0 4.301.433 4.582 4.582 0 0 0 1.487-1.016c.425-.434.763-.95.993-1.519a4.76 4.76 0 0 0 .349-1.792Zm27.007 0c0-.927-.269-1.832-.773-2.603a4.607 4.607 0 0 0-2.058-1.725 4.492 4.492 0 0 0-2.649-.265 4.557 4.557 0 0 0-2.347 1.283 4.728 4.728 0 0 0-1.253 2.4 4.788 4.788 0 0 0 .263 2.706 4.661 4.661 0 0 0 1.691 2.1 4.512 4.512 0 0 0 5.787-.585c.425-.435.762-.951.992-1.52a4.75 4.75 0 0 0 .347-1.791ZM9.167 59.886c0-.927-.269-1.832-.772-2.603a4.606 4.606 0 0 0-2.057-1.724 4.493 4.493 0 0 0-2.649-.267 4.554 4.554 0 0 0-2.347 1.282 4.716 4.716 0 0 0-1.254 2.398 4.778 4.778 0 0 0 .26 2.706 4.664 4.664 0 0 0 1.689 2.102 4.515 4.515 0 0 0 5.79-.581 4.7 4.7 0 0 0 .993-1.52c.23-.569.348-1.178.347-1.793Zm27.013 0c0-.927-.27-1.832-.773-2.603a4.606 4.606 0 0 0-2.057-1.724 4.493 4.493 0 0 0-2.649-.267 4.55 4.55 0 0 0-2.347 1.282 4.717 4.717 0 0 0-1.254 2.398 4.779 4.779 0 0 0 .26 2.706 4.664 4.664 0 0 0 1.69 2.102 4.514 4.514 0 0 0 5.788-.581c.426-.435.764-.952.994-1.52.23-.569.348-1.178.347-1.793Zm27.011 0c0-.927-.269-1.832-.772-2.603a4.606 4.606 0 0 0-2.057-1.724 4.493 4.493 0 0 0-2.649-.267 4.547 4.547 0 0 0-2.346 1.282 4.716 4.716 0 0 0-1.255 2.398 4.778 4.778 0 0 0 .261 2.706 4.664 4.664 0 0 0 1.688 2.102 4.514 4.514 0 0 0 5.79-.581 4.7 4.7 0 0 0 .993-1.52c.23-.569.348-1.178.347-1.793Zm26.991 0c0-.927-.269-1.832-.773-2.603a4.606 4.606 0 0 0-2.057-1.724 4.493 4.493 0 0 0-2.648-.267c-.89.18-1.706.627-2.347 1.282a4.717 4.717 0 0 0-1.254 2.398 4.778 4.778 0 0 0 .26 2.706 4.664 4.664 0 0 0 1.689 2.102 4.514 4.514 0 0 0 5.789-.581c.426-.435.763-.952.993-1.52.23-.569.349-1.178.348-1.793Zm27.033 0c0-.927-.269-1.832-.772-2.603a4.61 4.61 0 0 0-2.057-1.724 4.495 4.495 0 0 0-2.649-.267 4.553 4.553 0 0 0-2.346 1.282 4.718 4.718 0 0 0-1.255 2.398 4.776 4.776 0 0 0 .261 2.706 4.663 4.663 0 0 0 1.688 2.102 4.52 4.52 0 0 0 2.547.79 4.536 4.536 0 0 0 3.241-1.373 4.738 4.738 0 0 0 1.342-3.311Zm27.007 0c0-.927-.269-1.833-.773-2.603a4.606 4.606 0 0 0-2.058-1.725 4.492 4.492 0 0 0-2.649-.265 4.556 4.556 0 0 0-2.347 1.283 4.728 4.728 0 0 0-1.253 2.4 4.787 4.787 0 0 0 .263 2.706 4.662 4.662 0 0 0 1.691 2.1 4.513 4.513 0 0 0 5.787-.585c.425-.435.762-.951.992-1.52.23-.568.348-1.177.347-1.791ZM9.167 87.487c0-.926-.269-1.832-.772-2.602a4.607 4.607 0 0 0-2.057-1.725 4.493 4.493 0 0 0-2.649-.266 4.552 4.552 0 0 0-2.347 1.281 4.716 4.716 0 0 0-1.254 2.398 4.778 4.778 0 0 0 .26 2.707 4.663 4.663 0 0 0 1.689 2.101 4.515 4.515 0 0 0 5.79-.58 4.7 4.7 0 0 0 .993-1.52c.23-.57.348-1.179.347-1.794Zm27.013 0c0-.926-.27-1.832-.773-2.602a4.607 4.607 0 0 0-2.057-1.725 4.493 4.493 0 0 0-2.649-.266 4.549 4.549 0 0 0-2.347 1.281 4.716 4.716 0 0 0-1.254 2.398 4.78 4.78 0 0 0 .26 2.707 4.663 4.663 0 0 0 1.69 2.101 4.514 4.514 0 0 0 5.788-.58c.426-.435.764-.952.994-1.52.23-.57.348-1.179.347-1.794Zm27.011 0c0-.926-.269-1.832-.772-2.602a4.607 4.607 0 0 0-2.057-1.725 4.493 4.493 0 0 0-2.649-.266 4.546 4.546 0 0 0-2.346 1.281 4.716 4.716 0 0 0-1.255 2.398 4.778 4.778 0 0 0 .261 2.707 4.663 4.663 0 0 0 1.688 2.101 4.514 4.514 0 0 0 5.79-.58 4.7 4.7 0 0 0 .993-1.52c.23-.57.348-1.179.347-1.794Zm26.991 0c0-.926-.269-1.832-.773-2.602a4.607 4.607 0 0 0-2.057-1.725 4.493 4.493 0 0 0-2.648-.266c-.89.18-1.706.626-2.347 1.281a4.716 4.716 0 0 0-1.254 2.398 4.778 4.778 0 0 0 .26 2.707 4.663 4.663 0 0 0 1.689 2.101 4.514 4.514 0 0 0 5.789-.58c.426-.435.763-.952.993-1.52.23-.57.349-1.179.348-1.794Zm27.033 0c0-.926-.269-1.832-.772-2.602a4.612 4.612 0 0 0-2.057-1.725 4.495 4.495 0 0 0-2.649-.266 4.552 4.552 0 0 0-2.346 1.281 4.718 4.718 0 0 0-1.255 2.398 4.777 4.777 0 0 0 .261 2.707 4.662 4.662 0 0 0 1.688 2.101c.754.515 1.64.79 2.547.79a4.536 4.536 0 0 0 3.241-1.372 4.738 4.738 0 0 0 1.342-3.312Zm27.007 0c0-.926-.269-1.832-.773-2.602a4.607 4.607 0 0 0-2.058-1.725 4.492 4.492 0 0 0-2.649-.266 4.557 4.557 0 0 0-2.347 1.283 4.728 4.728 0 0 0-1.253 2.4 4.787 4.787 0 0 0 .263 2.707 4.662 4.662 0 0 0 1.691 2.1 4.513 4.513 0 0 0 5.787-.585c.425-.435.762-.952.992-1.52.23-.568.348-1.177.347-1.792ZM9.167 115.088a4.757 4.757 0 0 0-.77-2.604 4.61 4.61 0 0 0-2.056-1.727 4.496 4.496 0 0 0-2.648-.269c-.89.18-1.707.626-2.349 1.281a4.711 4.711 0 0 0-1.256 2.398 4.776 4.776 0 0 0 .26 2.706 4.66 4.66 0 0 0 1.688 2.103c.754.515 1.64.79 2.548.79 1.214 0 2.38-.493 3.239-1.37a4.735 4.735 0 0 0 1.344-3.308Zm27.013 0a4.757 4.757 0 0 0-.77-2.604 4.61 4.61 0 0 0-2.056-1.727 4.497 4.497 0 0 0-2.65-.269 4.555 4.555 0 0 0-2.348 1.281 4.712 4.712 0 0 0-1.256 2.398 4.777 4.777 0 0 0 .26 2.706 4.66 4.66 0 0 0 1.689 2.103 4.51 4.51 0 0 0 2.547.79c1.214 0 2.38-.493 3.239-1.37a4.735 4.735 0 0 0 1.344-3.308Zm27.011 0a4.757 4.757 0 0 0-.77-2.604 4.61 4.61 0 0 0-2.056-1.727 4.496 4.496 0 0 0-2.648-.269c-.89.18-1.707.626-2.349 1.281a4.712 4.712 0 0 0-1.255 2.398 4.777 4.777 0 0 0 .26 2.706 4.66 4.66 0 0 0 1.688 2.103c.754.515 1.64.79 2.547.79 1.214 0 2.38-.493 3.239-1.37a4.735 4.735 0 0 0 1.344-3.308Zm26.991 0a4.758 4.758 0 0 0-.77-2.604 4.61 4.61 0 0 0-2.056-1.727 4.496 4.496 0 0 0-2.649-.269c-.89.18-1.706.626-2.348 1.281a4.712 4.712 0 0 0-1.256 2.398 4.777 4.777 0 0 0 .26 2.706 4.66 4.66 0 0 0 1.688 2.103c.754.515 1.64.79 2.547.79 1.215 0 2.38-.493 3.24-1.37a4.736 4.736 0 0 0 1.344-3.308Zm27.033 0a4.758 4.758 0 0 0-.77-2.604 4.61 4.61 0 0 0-2.055-1.727 4.498 4.498 0 0 0-2.649-.269c-.89.18-1.707.626-2.348 1.281a4.706 4.706 0 0 0-1.256 2.398 4.776 4.776 0 0 0 .259 2.706 4.663 4.663 0 0 0 1.689 2.103c.754.515 1.64.79 2.547.79a4.544 4.544 0 0 0 3.237-1.371 4.743 4.743 0 0 0 1.346-3.307Zm27.007 0a4.758 4.758 0 0 0-.77-2.604 4.612 4.612 0 0 0-2.057-1.728 4.49 4.49 0 0 0-2.649-.267c-.89.18-1.707.626-2.349 1.282a4.71 4.71 0 0 0-1.254 2.399 4.771 4.771 0 0 0 .262 2.707 4.669 4.669 0 0 0 1.69 2.102 4.519 4.519 0 0 0 2.549.787 4.535 4.535 0 0 0 3.235-1.372 4.731 4.731 0 0 0 1.343-3.306ZM9.167 142.689a4.756 4.756 0 0 0-.77-2.603 4.603 4.603 0 0 0-2.056-1.727 4.488 4.488 0 0 0-2.648-.269c-.89.18-1.707.625-2.349 1.28a4.715 4.715 0 0 0-1.256 2.398 4.779 4.779 0 0 0 .26 2.707 4.665 4.665 0 0 0 1.688 2.103 4.513 4.513 0 0 0 5.788-.579c.426-.434.764-.95.994-1.518.23-.568.35-1.177.35-1.792Zm27.013 0a4.756 4.756 0 0 0-.77-2.603 4.603 4.603 0 0 0-2.056-1.727 4.489 4.489 0 0 0-2.65-.269 4.55 4.55 0 0 0-2.348 1.28 4.716 4.716 0 0 0-1.256 2.398 4.78 4.78 0 0 0 .26 2.707 4.666 4.666 0 0 0 1.689 2.103 4.512 4.512 0 0 0 5.787-.579c.426-.434.764-.95.994-1.518a4.77 4.77 0 0 0 .35-1.792Zm27.011 0a4.756 4.756 0 0 0-.77-2.603 4.603 4.603 0 0 0-2.056-1.727 4.488 4.488 0 0 0-2.648-.269c-.89.18-1.707.625-2.349 1.28a4.716 4.716 0 0 0-1.255 2.398 4.78 4.78 0 0 0 .26 2.707 4.665 4.665 0 0 0 1.688 2.103 4.513 4.513 0 0 0 5.787-.579 4.68 4.68 0 0 0 .994-1.518c.23-.568.35-1.177.35-1.792Zm26.991 0a4.757 4.757 0 0 0-.77-2.603 4.604 4.604 0 0 0-2.056-1.727 4.488 4.488 0 0 0-2.649-.269 4.55 4.55 0 0 0-2.348 1.28 4.716 4.716 0 0 0-1.256 2.398 4.78 4.78 0 0 0 .26 2.707 4.665 4.665 0 0 0 1.688 2.103 4.513 4.513 0 0 0 5.788-.579c.426-.434.763-.95.994-1.518a4.77 4.77 0 0 0 .349-1.792Zm27.033 0a4.757 4.757 0 0 0-.77-2.603 4.603 4.603 0 0 0-2.055-1.727 4.49 4.49 0 0 0-2.649-.269c-.89.18-1.707.625-2.348 1.28a4.71 4.71 0 0 0-1.256 2.398 4.78 4.78 0 0 0 .259 2.707 4.668 4.668 0 0 0 1.689 2.103c.754.515 1.64.789 2.547.789a4.536 4.536 0 0 0 3.239-1.369 4.737 4.737 0 0 0 1.344-3.309Zm27.007 0a4.76 4.76 0 0 0-.77-2.604 4.603 4.603 0 0 0-2.057-1.727 4.498 4.498 0 0 0-2.649-.268 4.563 4.563 0 0 0-2.349 1.282 4.713 4.713 0 0 0-1.254 2.4 4.771 4.771 0 0 0 .262 2.707 4.666 4.666 0 0 0 1.69 2.101 4.511 4.511 0 0 0 5.786-.583 4.728 4.728 0 0 0 1.341-3.308Z" fill="#356D82"/></svg>