<svg width="138" height="140" fill="none" xmlns="http://www.w3.org/2000/svg"><path d="M13.92 7.117a7.223 7.223 0 0 0-1.17-3.953A6.996 6.996 0 0 0 9.626.543 6.822 6.822 0 0 0 5.605.136 6.915 6.915 0 0 0 2.04 2.081 7.16 7.16 0 0 0 .134 5.722a7.256 7.256 0 0 0 .395 4.11 7.08 7.08 0 0 0 2.564 3.192 6.855 6.855 0 0 0 3.867 1.199 6.885 6.885 0 0 0 4.92-2.081 7.19 7.19 0 0 0 2.04-5.025Zm41.037 0a7.222 7.222 0 0 0-1.17-3.953A6.995 6.995 0 0 0 50.665.543a6.822 6.822 0 0 0-4.022-.407c-1.35.274-2.59.95-3.565 1.945a7.16 7.16 0 0 0-1.906 3.641 7.256 7.256 0 0 0 .395 4.11 7.081 7.081 0 0 0 2.563 3.192 6.855 6.855 0 0 0 3.868 1.199 6.884 6.884 0 0 0 4.919-2.081 7.19 7.19 0 0 0 2.04-5.025Zm41.028 0a7.222 7.222 0 0 0-1.17-3.953A6.994 6.994 0 0 0 91.69.542a6.822 6.822 0 0 0-4.022-.406 6.915 6.915 0 0 0-3.565 1.947 7.161 7.161 0 0 0-1.905 3.642 7.256 7.256 0 0 0 .397 4.11 7.081 7.081 0 0 0 2.566 3.192 6.855 6.855 0 0 0 3.868 1.196 6.88 6.88 0 0 0 4.918-2.081 7.185 7.185 0 0 0 2.037-5.025Zm41.033 0a7.224 7.224 0 0 0-1.171-3.953 6.997 6.997 0 0 0-3.122-2.621 6.823 6.823 0 0 0-4.022-.407 6.917 6.917 0 0 0-3.565 1.945 7.167 7.167 0 0 0-1.906 3.641 7.26 7.26 0 0 0 .395 4.11 7.082 7.082 0 0 0 2.564 3.192 6.852 6.852 0 0 0 3.867 1.199 6.884 6.884 0 0 0 4.919-2.081 7.194 7.194 0 0 0 2.041-5.025ZM13.92 49.023a7.223 7.223 0 0 0-1.174-3.951 6.994 6.994 0 0 0-3.123-2.62 6.822 6.822 0 0 0-4.021-.404 6.915 6.915 0 0 0-3.564 1.946 7.16 7.16 0 0 0-1.904 3.641 7.255 7.255 0 0 0 .396 4.11 7.08 7.08 0 0 0 2.563 3.19 6.854 6.854 0 0 0 3.867 1.2c.914 0 1.82-.184 2.664-.54a6.947 6.947 0 0 0 2.258-1.542 7.118 7.118 0 0 0 1.51-2.308 7.242 7.242 0 0 0 .527-2.722Zm41.037 0a7.223 7.223 0 0 0-1.172-3.951 6.995 6.995 0 0 0-3.124-2.62 6.821 6.821 0 0 0-4.021-.404 6.915 6.915 0 0 0-3.564 1.946 7.16 7.16 0 0 0-1.904 3.641 7.256 7.256 0 0 0 .396 4.11 7.081 7.081 0 0 0 2.563 3.19 6.854 6.854 0 0 0 3.867 1.2c.914 0 1.82-.184 2.664-.54a6.947 6.947 0 0 0 2.258-1.542 7.12 7.12 0 0 0 1.509-2.308c.35-.863.53-1.788.528-2.722Zm41.028 0a7.223 7.223 0 0 0-1.173-3.952 6.995 6.995 0 0 0-3.125-2.619 6.821 6.821 0 0 0-4.022-.404 6.915 6.915 0 0 0-3.563 1.948 7.161 7.161 0 0 0-1.904 3.643 7.257 7.257 0 0 0 .399 4.109 7.081 7.081 0 0 0 2.565 3.19 6.855 6.855 0 0 0 3.868 1.196c.914 0 1.819-.184 2.663-.541a6.946 6.946 0 0 0 2.257-1.542 7.117 7.117 0 0 0 1.507-2.307 7.24 7.24 0 0 0 .528-2.721Zm41.033 0a7.229 7.229 0 0 0-1.173-3.951 6.995 6.995 0 0 0-3.124-2.62 6.82 6.82 0 0 0-4.021-.404 6.912 6.912 0 0 0-3.563 1.946 7.152 7.152 0 0 0-1.905 3.641 7.25 7.25 0 0 0 .396 4.11 7.085 7.085 0 0 0 2.563 3.19 6.855 6.855 0 0 0 3.867 1.2 6.86 6.86 0 0 0 2.664-.54 6.952 6.952 0 0 0 2.259-1.542 7.115 7.115 0 0 0 1.508-2.308c.35-.863.529-1.788.529-2.722ZM13.92 90.966a7.222 7.222 0 0 0-1.174-3.95 6.994 6.994 0 0 0-3.123-2.62 6.822 6.822 0 0 0-4.021-.405 6.915 6.915 0 0 0-3.564 1.947 7.16 7.16 0 0 0-1.904 3.64 7.255 7.255 0 0 0 .396 4.11 7.08 7.08 0 0 0 2.563 3.191 6.855 6.855 0 0 0 3.867 1.199c1.846 0 3.616-.75 4.921-2.083a7.19 7.19 0 0 0 2.038-5.029Zm41.037 0a7.222 7.222 0 0 0-1.172-3.95 6.995 6.995 0 0 0-3.124-2.62 6.821 6.821 0 0 0-4.021-.405 6.915 6.915 0 0 0-3.564 1.947 7.16 7.16 0 0 0-1.904 3.64 7.256 7.256 0 0 0 .396 4.11 7.08 7.08 0 0 0 2.563 3.191 6.855 6.855 0 0 0 3.867 1.199c1.846 0 3.616-.75 4.921-2.083a7.19 7.19 0 0 0 2.038-5.029Zm41.028 0a7.223 7.223 0 0 0-1.173-3.951 6.995 6.995 0 0 0-3.125-2.62 6.822 6.822 0 0 0-4.022-.403 6.915 6.915 0 0 0-3.563 1.947 7.162 7.162 0 0 0-1.904 3.643 7.257 7.257 0 0 0 .399 4.11 7.081 7.081 0 0 0 2.565 3.19 6.854 6.854 0 0 0 3.868 1.196c.914 0 1.819-.184 2.663-.542a6.947 6.947 0 0 0 2.257-1.541 7.117 7.117 0 0 0 1.507-2.308 7.24 7.24 0 0 0 .528-2.72Zm41.033 0a7.228 7.228 0 0 0-1.173-3.95 6.995 6.995 0 0 0-3.124-2.62 6.82 6.82 0 0 0-4.021-.405 6.912 6.912 0 0 0-3.563 1.947 7.152 7.152 0 0 0-1.905 3.64 7.25 7.25 0 0 0 .396 4.11 7.085 7.085 0 0 0 2.563 3.191 6.856 6.856 0 0 0 3.867 1.199c1.846 0 3.616-.75 4.921-2.083a7.192 7.192 0 0 0 2.039-5.029ZM13.92 132.894a7.226 7.226 0 0 0-1.17-3.953 6.995 6.995 0 0 0-3.123-2.621 6.82 6.82 0 0 0-4.022-.407 6.919 6.919 0 0 0-3.565 1.945 7.157 7.157 0 0 0-1.906 3.641 7.257 7.257 0 0 0 .395 4.11 7.085 7.085 0 0 0 2.564 3.192A6.852 6.852 0 0 0 6.96 140a6.887 6.887 0 0 0 4.92-2.081 7.191 7.191 0 0 0 2.04-5.025Zm41.037 0a7.225 7.225 0 0 0-1.17-3.953 6.994 6.994 0 0 0-3.122-2.621 6.821 6.821 0 0 0-4.022-.407 6.918 6.918 0 0 0-3.565 1.945 7.157 7.157 0 0 0-1.906 3.641 7.257 7.257 0 0 0 .395 4.11 7.086 7.086 0 0 0 2.563 3.192A6.852 6.852 0 0 0 47.998 140a6.887 6.887 0 0 0 4.919-2.081 7.191 7.191 0 0 0 2.04-5.025Zm41.028 0a7.222 7.222 0 0 0-1.17-3.953 6.998 6.998 0 0 0-3.124-2.622 6.823 6.823 0 0 0-4.022-.406 6.92 6.92 0 0 0-3.565 1.947 7.16 7.16 0 0 0-1.905 3.642 7.255 7.255 0 0 0 .397 4.11 7.08 7.08 0 0 0 2.566 3.192A6.855 6.855 0 0 0 89.03 140a6.882 6.882 0 0 0 4.918-2.081 7.187 7.187 0 0 0 2.037-5.025Zm41.033 0a7.228 7.228 0 0 0-1.171-3.953 6.996 6.996 0 0 0-3.122-2.621 6.822 6.822 0 0 0-4.022-.407 6.921 6.921 0 0 0-3.565 1.945 7.164 7.164 0 0 0-1.906 3.641 7.262 7.262 0 0 0 .395 4.11 7.087 7.087 0 0 0 2.564 3.192 6.85 6.85 0 0 0 3.867 1.199 6.886 6.886 0 0 0 4.919-2.081 7.195 7.195 0 0 0 2.041-5.025Z" fill="#1C6E83"/></svg>