<svg width="280" height="287" fill="none" xmlns="http://www.w3.org/2000/svg"><path d="M262.203 277.014a9.23 9.23 0 0 0 1.499 5.051 8.94 8.94 0 0 0 3.994 3.349 8.722 8.722 0 0 0 5.141.518 8.846 8.846 0 0 0 4.557-2.489 9.155 9.155 0 0 0 2.435-4.655 9.286 9.286 0 0 0-.506-5.254 9.056 9.056 0 0 0-3.278-4.081 8.764 8.764 0 0 0-8.351-.843 8.887 8.887 0 0 0-2.888 1.971 9.108 9.108 0 0 0-1.929 2.951 9.238 9.238 0 0 0-.674 3.482Zm-52.443 0c0 1.798.522 3.556 1.5 5.051a8.937 8.937 0 0 0 3.993 3.349 8.726 8.726 0 0 0 5.142.518 8.839 8.839 0 0 0 4.556-2.489 9.157 9.157 0 0 0 2.436-4.655 9.277 9.277 0 0 0-.507-5.254 9.054 9.054 0 0 0-3.277-4.081 8.767 8.767 0 0 0-4.944-1.532 8.72 8.72 0 0 0-3.407.689 8.89 8.89 0 0 0-2.889 1.971 9.105 9.105 0 0 0-1.928 2.951 9.259 9.259 0 0 0-.675 3.482Zm-52.443 0c0 1.798.522 3.556 1.5 5.051a8.94 8.94 0 0 0 3.994 3.349 8.722 8.722 0 0 0 5.141.518 8.839 8.839 0 0 0 4.556-2.489 9.157 9.157 0 0 0 2.436-4.655 9.286 9.286 0 0 0-.506-5.254 9.063 9.063 0 0 0-3.278-4.081 8.764 8.764 0 0 0-8.351-.843 8.876 8.876 0 0 0-2.888 1.971 9.108 9.108 0 0 0-1.929 2.951 9.259 9.259 0 0 0-.675 3.482Zm-52.401 0c0 1.798.522 3.556 1.5 5.051a8.94 8.94 0 0 0 3.994 3.349 8.722 8.722 0 0 0 5.141.518 8.839 8.839 0 0 0 4.556-2.489 9.15 9.15 0 0 0 2.436-4.655 9.277 9.277 0 0 0-.507-5.254 9.054 9.054 0 0 0-3.277-4.081 8.764 8.764 0 0 0-8.351-.843 8.876 8.876 0 0 0-2.888 1.971 9.108 9.108 0 0 0-1.929 2.951 9.259 9.259 0 0 0-.675 3.482Zm-52.484 0c0 1.798.522 3.556 1.5 5.051a8.937 8.937 0 0 0 3.994 3.349 8.723 8.723 0 0 0 5.141.518 8.841 8.841 0 0 0 4.557-2.489 9.155 9.155 0 0 0 2.435-4.655 9.278 9.278 0 0 0-.506-5.254 9.056 9.056 0 0 0-3.278-4.081 8.765 8.765 0 0 0-4.944-1.532c-2.36 0-4.623.958-6.292 2.663a9.194 9.194 0 0 0-2.607 6.43Zm-52.432 0c0 1.799.522 3.557 1.5 5.053a8.946 8.946 0 0 0 3.996 3.348 8.719 8.719 0 0 0 5.143.516 8.848 8.848 0 0 0 4.556-2.491 9.16 9.16 0 0 0 2.433-4.659 9.274 9.274 0 0 0-.51-5.254 9.051 9.051 0 0 0-3.283-4.079 8.764 8.764 0 0 0-8.35-.835 8.87 8.87 0 0 0-2.885 1.972 9.093 9.093 0 0 0-1.926 2.95A9.253 9.253 0 0 0 0 277.014Zm262.203-53.587c0 1.799.521 3.557 1.499 5.052a8.946 8.946 0 0 0 3.994 3.349 8.73 8.73 0 0 0 5.141.518 8.846 8.846 0 0 0 4.557-2.489 9.158 9.158 0 0 0 2.435-4.656 9.283 9.283 0 0 0-.506-5.253 9.051 9.051 0 0 0-3.278-4.081 8.764 8.764 0 0 0-8.351-.843 8.871 8.871 0 0 0-2.888 1.971 9.087 9.087 0 0 0-1.929 2.951 9.237 9.237 0 0 0-.674 3.481Zm-52.443 0c0 1.799.522 3.557 1.5 5.052a8.943 8.943 0 0 0 3.993 3.349 8.734 8.734 0 0 0 5.142.518 8.839 8.839 0 0 0 4.556-2.489 9.16 9.16 0 0 0 2.436-4.656 9.275 9.275 0 0 0-.507-5.253 9.049 9.049 0 0 0-3.277-4.081 8.767 8.767 0 0 0-4.944-1.532 8.702 8.702 0 0 0-3.407.689 8.875 8.875 0 0 0-2.889 1.971 9.084 9.084 0 0 0-1.928 2.951 9.258 9.258 0 0 0-.675 3.481Zm-52.443 0c0 1.799.522 3.557 1.5 5.052a8.946 8.946 0 0 0 3.994 3.349 8.73 8.73 0 0 0 5.141.518 8.839 8.839 0 0 0 4.556-2.489 9.16 9.16 0 0 0 2.436-4.656 9.283 9.283 0 0 0-.506-5.253 9.058 9.058 0 0 0-3.278-4.081 8.764 8.764 0 0 0-8.351-.843 8.86 8.86 0 0 0-2.888 1.971 9.087 9.087 0 0 0-1.929 2.951 9.258 9.258 0 0 0-.675 3.481Zm-52.401 0c0 1.799.522 3.557 1.5 5.052a8.946 8.946 0 0 0 3.994 3.349 8.73 8.73 0 0 0 5.141.518 8.839 8.839 0 0 0 4.556-2.489 9.152 9.152 0 0 0 2.436-4.656 9.275 9.275 0 0 0-.507-5.253 9.049 9.049 0 0 0-3.277-4.081 8.764 8.764 0 0 0-8.351-.843 8.86 8.86 0 0 0-2.888 1.971 9.087 9.087 0 0 0-1.929 2.951 9.258 9.258 0 0 0-.675 3.481Zm-52.484 0c0 1.799.522 3.557 1.5 5.052a8.944 8.944 0 0 0 3.994 3.349 8.731 8.731 0 0 0 5.141.518 8.841 8.841 0 0 0 4.557-2.489 9.158 9.158 0 0 0 2.435-4.656 9.275 9.275 0 0 0-.506-5.253 9.05 9.05 0 0 0-3.278-4.081 8.733 8.733 0 0 0-8.35-.84 8.88 8.88 0 0 0-2.886 1.971 9.106 9.106 0 0 0-1.93 2.95 9.261 9.261 0 0 0-.677 3.479Zm-52.432 0c0 1.799.522 3.558 1.5 5.053a8.941 8.941 0 0 0 3.996 3.349 8.727 8.727 0 0 0 5.143.516 8.843 8.843 0 0 0 4.556-2.492 9.157 9.157 0 0 0 2.433-4.658 9.278 9.278 0 0 0-.51-5.255 9.054 9.054 0 0 0-3.283-4.078 8.764 8.764 0 0 0-8.35-.835 8.87 8.87 0 0 0-2.885 1.972 9.093 9.093 0 0 0-1.926 2.95A9.252 9.252 0 0 0 0 223.427Zm262.203-53.585a9.23 9.23 0 0 0 1.499 5.051 8.94 8.94 0 0 0 3.994 3.349 8.73 8.73 0 0 0 5.141.518 8.846 8.846 0 0 0 4.557-2.489 9.158 9.158 0 0 0 2.435-4.656 9.283 9.283 0 0 0-.506-5.253 9.051 9.051 0 0 0-3.278-4.081 8.764 8.764 0 0 0-8.351-.843 8.887 8.887 0 0 0-2.888 1.971 9.097 9.097 0 0 0-1.929 2.951 9.238 9.238 0 0 0-.674 3.482Zm-52.443 0c0 1.798.522 3.556 1.5 5.051a8.937 8.937 0 0 0 3.993 3.349 8.734 8.734 0 0 0 5.142.518 8.839 8.839 0 0 0 4.556-2.489 9.16 9.16 0 0 0 2.436-4.656 9.275 9.275 0 0 0-.507-5.253 9.049 9.049 0 0 0-3.277-4.081 8.767 8.767 0 0 0-4.944-1.532 8.72 8.72 0 0 0-3.407.689 8.89 8.89 0 0 0-2.889 1.971 9.094 9.094 0 0 0-1.928 2.951 9.259 9.259 0 0 0-.675 3.482Zm-52.443 0c0 1.798.522 3.556 1.5 5.051a8.94 8.94 0 0 0 3.994 3.349 8.73 8.73 0 0 0 5.141.518 8.839 8.839 0 0 0 4.556-2.489 9.16 9.16 0 0 0 2.436-4.656 9.283 9.283 0 0 0-.506-5.253 9.058 9.058 0 0 0-3.278-4.081 8.764 8.764 0 0 0-8.351-.843 8.876 8.876 0 0 0-2.888 1.971 9.097 9.097 0 0 0-1.929 2.951 9.259 9.259 0 0 0-.675 3.482Zm-52.401 0c0 1.798.522 3.556 1.5 5.051a8.94 8.94 0 0 0 3.994 3.349 8.73 8.73 0 0 0 5.141.518 8.839 8.839 0 0 0 4.556-2.489 9.152 9.152 0 0 0 2.436-4.656 9.275 9.275 0 0 0-.507-5.253 9.049 9.049 0 0 0-3.277-4.081 8.764 8.764 0 0 0-8.351-.843 8.876 8.876 0 0 0-2.888 1.971 9.097 9.097 0 0 0-1.929 2.951 9.259 9.259 0 0 0-.675 3.482Zm-52.484 0c0 1.798.522 3.556 1.5 5.051a8.937 8.937 0 0 0 3.994 3.349 8.731 8.731 0 0 0 5.141.518 8.841 8.841 0 0 0 4.557-2.489 9.158 9.158 0 0 0 2.435-4.656 9.275 9.275 0 0 0-.506-5.253 9.05 9.05 0 0 0-3.278-4.081 8.765 8.765 0 0 0-4.944-1.532c-2.36 0-4.623.958-6.292 2.663a9.194 9.194 0 0 0-2.607 6.43Zm-52.432 0c0 1.798.522 3.557 1.5 5.052a8.941 8.941 0 0 0 3.996 3.349 8.719 8.719 0 0 0 5.143.516 8.843 8.843 0 0 0 4.556-2.492 9.153 9.153 0 0 0 2.433-4.658 9.278 9.278 0 0 0-.51-5.255 9.054 9.054 0 0 0-3.283-4.078 8.764 8.764 0 0 0-8.35-.835 8.87 8.87 0 0 0-2.885 1.972 9.093 9.093 0 0 0-1.926 2.95A9.253 9.253 0 0 0 0 169.842Zm262.203-53.587a9.23 9.23 0 0 0 1.499 5.051 8.94 8.94 0 0 0 3.994 3.349 8.722 8.722 0 0 0 5.141.518 8.846 8.846 0 0 0 4.557-2.489 9.155 9.155 0 0 0 2.435-4.655 9.286 9.286 0 0 0-.506-5.254 9.051 9.051 0 0 0-3.278-4.081 8.764 8.764 0 0 0-8.351-.843 8.871 8.871 0 0 0-2.888 1.971 9.097 9.097 0 0 0-1.929 2.951 9.238 9.238 0 0 0-.674 3.482Zm-52.443 0c0 1.798.522 3.556 1.5 5.051a8.937 8.937 0 0 0 3.993 3.349 8.726 8.726 0 0 0 5.142.518 8.839 8.839 0 0 0 4.556-2.489 9.157 9.157 0 0 0 2.436-4.655 9.277 9.277 0 0 0-.507-5.254 9.049 9.049 0 0 0-3.277-4.081 8.767 8.767 0 0 0-4.944-1.532 8.72 8.72 0 0 0-3.407.689 8.875 8.875 0 0 0-2.889 1.971 9.094 9.094 0 0 0-1.928 2.951 9.259 9.259 0 0 0-.675 3.482Zm-52.443 0c0 1.798.522 3.556 1.5 5.051a8.94 8.94 0 0 0 3.994 3.349 8.722 8.722 0 0 0 5.141.518 8.839 8.839 0 0 0 4.556-2.489 9.157 9.157 0 0 0 2.436-4.655 9.286 9.286 0 0 0-.506-5.254 9.058 9.058 0 0 0-3.278-4.081 8.764 8.764 0 0 0-8.351-.843 8.86 8.86 0 0 0-2.888 1.971 9.097 9.097 0 0 0-1.929 2.951 9.259 9.259 0 0 0-.675 3.482Zm-52.401 0c0 1.798.522 3.556 1.5 5.051a8.94 8.94 0 0 0 3.994 3.349 8.722 8.722 0 0 0 5.141.518 8.839 8.839 0 0 0 4.556-2.489 9.15 9.15 0 0 0 2.436-4.655 9.277 9.277 0 0 0-.507-5.254 9.049 9.049 0 0 0-3.277-4.081 8.764 8.764 0 0 0-8.351-.843 8.86 8.86 0 0 0-2.888 1.971 9.097 9.097 0 0 0-1.929 2.951 9.259 9.259 0 0 0-.675 3.482Zm-52.484 0c0 1.798.522 3.556 1.5 5.051a8.937 8.937 0 0 0 3.994 3.349 8.723 8.723 0 0 0 5.141.518 8.841 8.841 0 0 0 4.557-2.489 9.155 9.155 0 0 0 2.435-4.655 9.278 9.278 0 0 0-.506-5.254 9.05 9.05 0 0 0-3.278-4.081 8.765 8.765 0 0 0-4.944-1.532c-2.36 0-4.623.958-6.292 2.663a9.194 9.194 0 0 0-2.607 6.43Zm-52.432 0a9.23 9.23 0 0 0 1.5 5.052 8.941 8.941 0 0 0 3.996 3.349 8.719 8.719 0 0 0 5.143.516 8.843 8.843 0 0 0 4.556-2.492 9.157 9.157 0 0 0 2.433-4.658 9.278 9.278 0 0 0-.51-5.255 9.054 9.054 0 0 0-3.283-4.078 8.764 8.764 0 0 0-8.35-.835 8.87 8.87 0 0 0-2.885 1.972 9.093 9.093 0 0 0-1.926 2.95A9.253 9.253 0 0 0 0 116.255Zm262.203-53.586a9.231 9.231 0 0 0 1.494 5.054 8.947 8.947 0 0 0 3.992 3.354 8.72 8.72 0 0 0 5.142.522 8.842 8.842 0 0 0 4.559-2.486 9.15 9.15 0 0 0 2.438-4.656 9.28 9.28 0 0 0-.504-5.255 9.058 9.058 0 0 0-3.278-4.082 8.761 8.761 0 0 0-4.945-1.533 8.8 8.8 0 0 0-6.288 2.659 9.188 9.188 0 0 0-2.61 6.422Zm-52.443 0a9.232 9.232 0 0 0 1.495 5.054 8.939 8.939 0 0 0 3.991 3.354 8.722 8.722 0 0 0 5.142.522 8.838 8.838 0 0 0 4.559-2.486 9.152 9.152 0 0 0 2.439-4.656 9.281 9.281 0 0 0-.505-5.255 9.056 9.056 0 0 0-3.277-4.082 8.766 8.766 0 0 0-4.945-1.533c-2.358 0-4.62.956-6.289 2.659a9.197 9.197 0 0 0-2.61 6.422Zm-52.442 0a9.223 9.223 0 0 0 1.494 5.054 8.944 8.944 0 0 0 3.991 3.354 8.725 8.725 0 0 0 5.143.522 8.846 8.846 0 0 0 4.559-2.486 9.158 9.158 0 0 0 2.438-4.656 9.273 9.273 0 0 0-.505-5.255 9.05 9.05 0 0 0-3.277-4.082 8.764 8.764 0 0 0-4.945-1.533c-2.358 0-4.62.956-6.289 2.659a9.192 9.192 0 0 0-2.609 6.422Zm-52.402 0a9.232 9.232 0 0 0 1.495 5.054 8.944 8.944 0 0 0 3.991 3.354 8.725 8.725 0 0 0 5.143.522 8.842 8.842 0 0 0 4.559-2.486 9.158 9.158 0 0 0 2.438-4.656 9.28 9.28 0 0 0-.504-5.255 9.058 9.058 0 0 0-3.278-4.082 8.761 8.761 0 0 0-4.945-1.533 8.8 8.8 0 0 0-6.288 2.659 9.193 9.193 0 0 0-2.611 6.422Zm-52.484 0a9.234 9.234 0 0 0 1.495 5.054 8.943 8.943 0 0 0 3.991 3.354 8.723 8.723 0 0 0 5.143.522 8.84 8.84 0 0 0 4.559-2.486 9.156 9.156 0 0 0 2.438-4.656 9.278 9.278 0 0 0-.504-5.255 9.054 9.054 0 0 0-3.278-4.082 8.764 8.764 0 0 0-4.945-1.533 8.813 8.813 0 0 0-6.285 2.662 9.205 9.205 0 0 0-2.614 6.42ZM0 62.669a9.235 9.235 0 0 0 1.496 5.055 8.943 8.943 0 0 0 3.993 3.354c1.626.69 3.416.87 5.144.52a8.842 8.842 0 0 0 4.559-2.489 9.156 9.156 0 0 0 2.435-4.658 9.278 9.278 0 0 0-.509-5.256 9.053 9.053 0 0 0-3.282-4.08 8.764 8.764 0 0 0-4.947-1.528 8.803 8.803 0 0 0-6.282 2.663A9.194 9.194 0 0 0 0 62.669ZM262.203 9.082a9.231 9.231 0 0 0 1.494 5.055 8.946 8.946 0 0 0 3.992 3.353 8.72 8.72 0 0 0 5.142.522 8.843 8.843 0 0 0 4.559-2.486 9.15 9.15 0 0 0 2.438-4.655 9.28 9.28 0 0 0-.504-5.255 9.058 9.058 0 0 0-3.278-4.083 8.762 8.762 0 0 0-8.349-.845 8.867 8.867 0 0 0-2.887 1.968 9.084 9.084 0 0 0-1.93 2.948 9.26 9.26 0 0 0-.677 3.478Zm-52.443 0a9.232 9.232 0 0 0 1.495 5.055 8.938 8.938 0 0 0 3.991 3.353 8.722 8.722 0 0 0 5.142.522 8.839 8.839 0 0 0 4.559-2.486 9.151 9.151 0 0 0 2.439-4.655 9.28 9.28 0 0 0-.505-5.255 9.056 9.056 0 0 0-3.277-4.083A8.766 8.766 0 0 0 218.659 0a8.727 8.727 0 0 0-3.405.688 8.889 8.889 0 0 0-2.887 1.968 9.098 9.098 0 0 0-1.929 2.948 9.242 9.242 0 0 0-.678 3.478Zm-52.442 0a9.223 9.223 0 0 0 1.494 5.055 8.944 8.944 0 0 0 3.991 3.353 8.725 8.725 0 0 0 5.143.522 8.846 8.846 0 0 0 4.559-2.486 9.157 9.157 0 0 0 2.438-4.655 9.272 9.272 0 0 0-.505-5.255 9.05 9.05 0 0 0-3.277-4.083A8.764 8.764 0 0 0 166.216 0a8.719 8.719 0 0 0-3.404.688 8.882 8.882 0 0 0-2.888 1.968 9.098 9.098 0 0 0-1.929 2.948 9.26 9.26 0 0 0-.677 3.478Zm-52.402 0a9.232 9.232 0 0 0 1.495 5.055 8.944 8.944 0 0 0 3.991 3.353 8.725 8.725 0 0 0 5.143.522 8.843 8.843 0 0 0 4.559-2.486 9.157 9.157 0 0 0 2.438-4.655 9.28 9.28 0 0 0-.504-5.255 9.058 9.058 0 0 0-3.278-4.083 8.762 8.762 0 0 0-8.349-.845 8.882 8.882 0 0 0-2.888 1.968 9.098 9.098 0 0 0-1.929 2.948 9.262 9.262 0 0 0-.678 3.478Zm-52.484 0a9.234 9.234 0 0 0 1.495 5.055 8.942 8.942 0 0 0 3.991 3.353 8.723 8.723 0 0 0 5.143.522 8.841 8.841 0 0 0 4.559-2.486 9.155 9.155 0 0 0 2.438-4.655 9.277 9.277 0 0 0-.504-5.255 9.054 9.054 0 0 0-3.278-4.083A8.765 8.765 0 0 0 61.331 0c-2.358 0-4.62.956-6.288 2.66a9.194 9.194 0 0 0-2.61 6.422ZM0 9.082a9.235 9.235 0 0 0 1.496 5.056 8.943 8.943 0 0 0 3.993 3.353c1.626.69 3.416.87 5.144.52a8.842 8.842 0 0 0 4.559-2.489 9.156 9.156 0 0 0 2.435-4.658 9.278 9.278 0 0 0-.509-5.256 9.053 9.053 0 0 0-3.282-4.08A8.764 8.764 0 0 0 8.89 0a8.793 8.793 0 0 0-6.285 2.66A9.183 9.183 0 0 0 0 9.082Z" fill="#ED634D"/></svg>