<svg width="209" height="242" fill="none" xmlns="http://www.w3.org/2000/svg"><path d="m198.314 20.259 1.832-.17a3.527 3.527 0 0 1 1.507.183 3.495 3.495 0 0 1 2.118 2.073c.177.479.247.988.203 1.493.769.312 1.465.808 2.16 1.307.316.226.632.452.956.66 2.45 1.532 1.348 4.694-.677 5.865l-39.77 21.922c-3.422 1.93-6.475-3.536-3.465-5.8a9987.93 9987.93 0 0 1 25.775-19.712c-38.281 4.529-73.81 12.868-103.709 39.494-32.562 29.549-56.442 67.308-69.153 109.345-23.858 79.004-2.355 166.59 61.244 222.288 1.209 1.07-.258 3.047-1.553 1.983-65.079-53.27-88.892-141.169-67.28-220.335A249.06 249.06 0 0 1 76.805 66.519c31.715-29.995 69.065-39.835 110.73-44.943L163.872 6.768c-3.818-2.415.383-7.849 4.178-5.482l30.264 18.973Z" fill="#356D82" stroke="#356D82"/></svg>