<svg width="200" height="200" fill="none" xmlns="http://www.w3.org/2000/svg"><path d="M66.478 166.182A33.24 33.24 0 1 0 0 166.181a33.24 33.24 0 0 0 66.478.001Z" fill="#356D82"/><path d="M132.949 166.182a33.242 33.242 0 0 0-20.519-30.709 33.234 33.234 0 0 0-45.32 24.225 33.237 33.237 0 0 0 32.6 39.723 33.227 33.227 0 0 0 30.711-20.518 33.213 33.213 0 0 0 2.528-12.721Z" fill="#356D82"/><path d="M199.419 166.182a33.243 33.243 0 0 0-20.52-30.709 33.233 33.233 0 0 0-45.32 24.225 33.24 33.24 0 0 0 63.311 19.205 33.214 33.214 0 0 0 2.529-12.721ZM66.478 99.71A33.239 33.239 0 1 0 0 99.71a33.239 33.239 0 0 0 66.478 0Z" fill="#356D82"/><path d="M132.949 99.71a33.241 33.241 0 0 0-20.519-30.709 33.236 33.236 0 0 0-36.224 7.205 33.24 33.24 0 1 0 54.215 36.225 33.209 33.209 0 0 0 2.528-12.72Z" fill="#356D82"/><path d="M199.419 99.71a33.242 33.242 0 0 0-39.724-32.6 33.24 33.24 0 1 0 19.206 63.311 33.218 33.218 0 0 0 17.989-17.99 33.21 33.21 0 0 0 2.529-12.72ZM66.478 33.24A33.239 33.239 0 1 0 33.24 66.477 33.247 33.247 0 0 0 66.48 33.24Z" fill="#356D82"/><path d="M132.949 33.24A33.242 33.242 0 0 0 112.43 2.53a33.237 33.237 0 0 0-45.32 24.225 33.24 33.24 0 0 0 56.104 29.988 33.237 33.237 0 0 0 9.735-23.504Z" fill="#356D82"/><path d="M199.419 33.24a33.243 33.243 0 0 0-20.52-30.71 33.236 33.236 0 0 0-45.32 24.225 33.244 33.244 0 0 0 14.134 34.122 33.236 33.236 0 0 0 41.97-4.134 33.238 33.238 0 0 0 9.736-23.504Z" fill="#356D82"/></svg>