<svg width="238" height="237" fill="none" xmlns="http://www.w3.org/2000/svg"><path d="M15.146 7.532a7.5 7.5 0 0 0-1.276-4.184A7.565 7.565 0 0 0 10.471.573 7.611 7.611 0 0 0 6.096.145a7.586 7.586 0 0 0-3.878 2.061A7.52 7.52 0 0 0 .146 6.063a7.494 7.494 0 0 0 .43 4.352 7.54 7.54 0 0 0 2.79 3.38 7.603 7.603 0 0 0 4.207 1.27 7.601 7.601 0 0 0 5.358-2.204 7.487 7.487 0 0 0 2.216-5.329Zm44.571 0a7.5 7.5 0 0 0-1.276-4.184 7.565 7.565 0 0 0-3.4-2.775 7.611 7.611 0 0 0-4.375-.428 7.586 7.586 0 0 0-3.877 2.061 7.52 7.52 0 0 0-2.073 3.857 7.494 7.494 0 0 0 .431 4.352 7.541 7.541 0 0 0 2.79 3.38 7.603 7.603 0 0 0 4.207 1.27 7.601 7.601 0 0 0 5.358-2.204 7.487 7.487 0 0 0 2.215-5.329Zm44.571 0a7.5 7.5 0 0 0-1.276-4.184A7.564 7.564 0 0 0 99.613.573a7.612 7.612 0 0 0-4.376-.428 7.586 7.586 0 0 0-3.877 2.061 7.52 7.52 0 0 0-2.073 3.857 7.494 7.494 0 0 0 .431 4.352 7.541 7.541 0 0 0 2.79 3.38 7.603 7.603 0 0 0 4.207 1.27 7.602 7.602 0 0 0 5.358-2.204 7.494 7.494 0 0 0 2.215-5.329Zm44.571 0c0-1.49-.444-2.946-1.277-4.184a7.566 7.566 0 0 0-3.398-2.775 7.613 7.613 0 0 0-4.376-.428 7.59 7.59 0 0 0-3.878 2.061 7.497 7.497 0 0 0-1.641 8.208 7.542 7.542 0 0 0 2.789 3.38 7.605 7.605 0 0 0 4.207 1.27 7.602 7.602 0 0 0 2.9-.57 7.566 7.566 0 0 0 2.458-1.633 7.512 7.512 0 0 0 2.216-5.329Zm44.57 0a7.5 7.5 0 0 0-1.276-4.184 7.564 7.564 0 0 0-3.399-2.775 7.612 7.612 0 0 0-4.376-.428 7.584 7.584 0 0 0-3.877 2.061 7.497 7.497 0 0 0-1.642 8.208 7.538 7.538 0 0 0 2.79 3.38 7.6 7.6 0 0 0 9.562-.936 7.512 7.512 0 0 0 2.218-5.326Zm44.571 0a7.51 7.51 0 0 0-1.277-4.186 7.565 7.565 0 0 0-3.401-2.774 7.609 7.609 0 0 0-8.254 1.637 7.5 7.5 0 0 0-1.636 8.212 7.543 7.543 0 0 0 2.794 3.378 7.6 7.6 0 0 0 4.21 1.265 7.596 7.596 0 0 0 5.351-2.206A7.503 7.503 0 0 0 238 7.532ZM15.146 51.921a7.5 7.5 0 0 0-1.276-4.184 7.565 7.565 0 0 0-3.399-2.775 7.612 7.612 0 0 0-4.375-.428 7.586 7.586 0 0 0-3.878 2.061 7.52 7.52 0 0 0-2.072 3.857 7.494 7.494 0 0 0 .43 4.352 7.54 7.54 0 0 0 2.79 3.38 7.602 7.602 0 0 0 4.207 1.27 7.6 7.6 0 0 0 5.358-2.204 7.52 7.52 0 0 0 2.215-5.329Zm44.571 0a7.5 7.5 0 0 0-1.276-4.184 7.565 7.565 0 0 0-3.4-2.775 7.611 7.611 0 0 0-4.375-.428 7.586 7.586 0 0 0-3.877 2.061 7.52 7.52 0 0 0-2.073 3.857 7.494 7.494 0 0 0 .431 4.352 7.541 7.541 0 0 0 2.79 3.38 7.602 7.602 0 0 0 4.207 1.27 7.6 7.6 0 0 0 5.358-2.204 7.486 7.486 0 0 0 2.215-5.329Zm44.571 0a7.5 7.5 0 0 0-1.276-4.184 7.564 7.564 0 0 0-3.399-2.775 7.612 7.612 0 0 0-4.376-.428 7.586 7.586 0 0 0-3.877 2.061 7.52 7.52 0 0 0-2.073 3.857 7.494 7.494 0 0 0 .431 4.352 7.541 7.541 0 0 0 2.79 3.38 7.602 7.602 0 0 0 4.207 1.27 7.6 7.6 0 0 0 5.358-2.204 7.494 7.494 0 0 0 2.215-5.329Zm44.571 0c0-1.49-.444-2.946-1.277-4.184a7.567 7.567 0 0 0-3.398-2.775 7.613 7.613 0 0 0-4.376-.428 7.59 7.59 0 0 0-3.878 2.061 7.497 7.497 0 0 0-1.641 8.208 7.542 7.542 0 0 0 2.789 3.381 7.604 7.604 0 0 0 4.207 1.27 7.6 7.6 0 0 0 2.9-.571 7.565 7.565 0 0 0 2.458-1.633 7.51 7.51 0 0 0 2.216-5.329Zm44.57 0a7.5 7.5 0 0 0-1.276-4.184 7.564 7.564 0 0 0-3.399-2.775 7.612 7.612 0 0 0-4.376-.428 7.584 7.584 0 0 0-3.877 2.061 7.497 7.497 0 0 0-1.642 8.208 7.537 7.537 0 0 0 2.79 3.381 7.6 7.6 0 0 0 7.105.696 7.541 7.541 0 0 0 4.099-4.076c.38-.914.576-1.893.576-2.883Zm44.571 0c0-1.49-.445-2.946-1.277-4.185a7.566 7.566 0 0 0-3.401-2.774 7.609 7.609 0 0 0-8.254 1.637 7.5 7.5 0 0 0-1.636 8.212 7.543 7.543 0 0 0 2.794 3.377 7.6 7.6 0 0 0 4.21 1.265 7.594 7.594 0 0 0 5.351-2.206A7.502 7.502 0 0 0 238 51.92ZM15.146 96.31c0-1.49-.444-2.947-1.276-4.185a7.565 7.565 0 0 0-3.399-2.774 7.61 7.61 0 0 0-8.253 1.632A7.52 7.52 0 0 0 .146 94.84a7.494 7.494 0 0 0 .43 4.352 7.538 7.538 0 0 0 2.79 3.38 7.6 7.6 0 0 0 4.207 1.27 7.577 7.577 0 0 0 5.358-2.204 7.52 7.52 0 0 0 2.215-5.329Zm44.571 0c0-1.49-.444-2.947-1.276-4.185a7.565 7.565 0 0 0-3.4-2.774 7.61 7.61 0 0 0-8.252 1.632 7.52 7.52 0 0 0-2.073 3.857 7.494 7.494 0 0 0 .431 4.352 7.538 7.538 0 0 0 2.79 3.38 7.6 7.6 0 0 0 4.207 1.27 7.578 7.578 0 0 0 5.358-2.204 7.487 7.487 0 0 0 2.215-5.329Zm44.571 0c0-1.49-.444-2.947-1.276-4.185a7.564 7.564 0 0 0-3.399-2.774 7.612 7.612 0 0 0-4.376-.429 7.586 7.586 0 0 0-3.877 2.061 7.52 7.52 0 0 0-2.073 3.857 7.494 7.494 0 0 0 .431 4.352 7.538 7.538 0 0 0 2.79 3.38 7.6 7.6 0 0 0 4.207 1.27 7.583 7.583 0 0 0 5.358-2.204 7.494 7.494 0 0 0 2.215-5.329Zm44.571 0c0-1.49-.444-2.947-1.277-4.185a7.566 7.566 0 0 0-3.398-2.774 7.612 7.612 0 0 0-4.376-.429 7.591 7.591 0 0 0-3.878 2.061 7.497 7.497 0 0 0-1.641 8.209 7.54 7.54 0 0 0 2.789 3.38 7.602 7.602 0 0 0 4.207 1.27 7.575 7.575 0 0 0 5.358-2.204 7.51 7.51 0 0 0 2.216-5.329Zm44.57 0c0-1.49-.444-2.947-1.276-4.185a7.563 7.563 0 0 0-3.399-2.774 7.612 7.612 0 0 0-4.376-.429 7.584 7.584 0 0 0-3.877 2.061 7.497 7.497 0 0 0-1.642 8.209 7.535 7.535 0 0 0 2.79 3.38 7.597 7.597 0 0 0 9.562-.937 7.51 7.51 0 0 0 2.218-5.326Zm44.571 0a7.51 7.51 0 0 0-1.277-4.186 7.566 7.566 0 0 0-3.401-2.774 7.61 7.61 0 0 0-8.254 1.637 7.5 7.5 0 0 0-1.636 8.212 7.54 7.54 0 0 0 2.794 3.377 7.603 7.603 0 0 0 4.21 1.266 7.589 7.589 0 0 0 5.351-2.207A7.508 7.508 0 0 0 238 96.309ZM15.146 140.699a7.5 7.5 0 0 0-1.276-4.184 7.564 7.564 0 0 0-3.399-2.775 7.609 7.609 0 0 0-8.253 1.633 7.52 7.52 0 0 0-2.072 3.857 7.495 7.495 0 0 0 .43 4.352 7.544 7.544 0 0 0 2.79 3.38 7.6 7.6 0 0 0 4.207 1.269 7.605 7.605 0 0 0 2.9-.571 7.529 7.529 0 0 0 4.1-4.077c.38-.915.575-1.894.573-2.884Zm44.571 0a7.5 7.5 0 0 0-1.276-4.184 7.564 7.564 0 0 0-3.4-2.775 7.609 7.609 0 0 0-8.252 1.633 7.52 7.52 0 0 0-2.073 3.857 7.495 7.495 0 0 0 .431 4.352 7.544 7.544 0 0 0 2.79 3.38 7.599 7.599 0 0 0 4.207 1.269 7.605 7.605 0 0 0 5.358-2.203 7.488 7.488 0 0 0 2.215-5.329Zm44.571 0a7.5 7.5 0 0 0-1.276-4.184 7.563 7.563 0 0 0-3.399-2.775 7.61 7.61 0 0 0-8.253 1.633 7.52 7.52 0 0 0-2.073 3.857 7.495 7.495 0 0 0 .431 4.352 7.544 7.544 0 0 0 2.79 3.38 7.6 7.6 0 0 0 4.207 1.269 7.606 7.606 0 0 0 2.9-.571 7.532 7.532 0 0 0 4.1-4.077 7.513 7.513 0 0 0 .573-2.884Zm44.571 0c0-1.49-.444-2.946-1.277-4.184a7.565 7.565 0 0 0-3.398-2.775 7.61 7.61 0 0 0-8.254 1.633 7.499 7.499 0 0 0-1.641 8.209 7.545 7.545 0 0 0 2.789 3.38 7.601 7.601 0 0 0 4.207 1.269 7.606 7.606 0 0 0 2.9-.571 7.557 7.557 0 0 0 4.1-4.077c.38-.915.575-1.894.574-2.884Zm44.57 0a7.5 7.5 0 0 0-1.276-4.184 7.562 7.562 0 0 0-3.399-2.775 7.61 7.61 0 0 0-8.253 1.633 7.499 7.499 0 0 0-1.642 8.209 7.54 7.54 0 0 0 2.79 3.38 7.597 7.597 0 0 0 4.207 1.269 7.59 7.59 0 0 0 5.355-2.206 7.51 7.51 0 0 0 2.218-5.326Zm44.571 0c0-1.49-.445-2.946-1.277-4.185a7.568 7.568 0 0 0-3.401-2.775 7.619 7.619 0 0 0-4.376-.427 7.593 7.593 0 0 0-3.878 2.064 7.501 7.501 0 0 0-1.636 8.212 7.54 7.54 0 0 0 2.794 3.378 7.594 7.594 0 0 0 4.21 1.265 7.568 7.568 0 0 0 5.351-2.206 7.507 7.507 0 0 0 2.213-5.326ZM15.146 185.088a7.504 7.504 0 0 0-1.272-4.188 7.572 7.572 0 0 0-3.397-2.778 7.612 7.612 0 0 0-8.256 1.627 7.518 7.518 0 0 0-2.075 3.857 7.494 7.494 0 0 0 .43 4.353 7.54 7.54 0 0 0 2.789 3.382 7.602 7.602 0 0 0 4.208 1.269 7.596 7.596 0 0 0 5.352-2.202 7.512 7.512 0 0 0 2.221-5.32Zm44.571 0a7.504 7.504 0 0 0-1.272-4.188 7.572 7.572 0 0 0-3.397-2.778 7.612 7.612 0 0 0-4.376-.432 7.588 7.588 0 0 0-3.88 2.059 7.518 7.518 0 0 0-2.075 3.857 7.494 7.494 0 0 0 .43 4.353 7.54 7.54 0 0 0 2.788 3.382 7.601 7.601 0 0 0 4.209 1.269 7.596 7.596 0 0 0 5.352-2.202 7.512 7.512 0 0 0 2.22-5.32Zm44.571 0a7.503 7.503 0 0 0-1.272-4.188 7.572 7.572 0 0 0-3.397-2.778 7.612 7.612 0 0 0-8.256 1.627 7.518 7.518 0 0 0-2.075 3.857 7.494 7.494 0 0 0 .43 4.353 7.54 7.54 0 0 0 2.789 3.382 7.602 7.602 0 0 0 4.208 1.269 7.596 7.596 0 0 0 5.352-2.202 7.51 7.51 0 0 0 2.221-5.32Zm44.571 0a7.511 7.511 0 0 0-1.272-4.188 7.576 7.576 0 0 0-3.397-2.778 7.612 7.612 0 0 0-8.256 1.627 7.502 7.502 0 0 0-1.646 8.21 7.538 7.538 0 0 0 2.789 3.382 7.602 7.602 0 0 0 4.208 1.269 7.596 7.596 0 0 0 5.352-2.202 7.515 7.515 0 0 0 2.222-5.32Zm44.57 0a7.503 7.503 0 0 0-1.272-4.188 7.571 7.571 0 0 0-3.397-2.778 7.61 7.61 0 0 0-8.256 1.627 7.519 7.519 0 0 0-2.075 3.857 7.493 7.493 0 0 0 .429 4.353 7.54 7.54 0 0 0 2.79 3.382 7.6 7.6 0 0 0 9.557-.936 7.518 7.518 0 0 0 2.224-5.317Zm44.571 0a7.504 7.504 0 0 0-1.273-4.188 7.563 7.563 0 0 0-3.398-2.779 7.609 7.609 0 0 0-8.258 1.632 7.519 7.519 0 0 0-2.073 3.858 7.49 7.49 0 0 0 .434 4.354 7.536 7.536 0 0 0 2.793 3.38 7.597 7.597 0 0 0 4.21 1.265 7.588 7.588 0 0 0 5.346-2.206 7.513 7.513 0 0 0 2.219-5.316ZM15.146 229.477a7.503 7.503 0 0 0-1.272-4.187 7.566 7.566 0 0 0-3.397-2.778 7.612 7.612 0 0 0-8.256 1.627 7.52 7.52 0 0 0-2.075 3.856 7.493 7.493 0 0 0 .43 4.353 7.54 7.54 0 0 0 2.789 3.382A7.603 7.603 0 0 0 7.573 237a7.596 7.596 0 0 0 5.355-2.2 7.519 7.519 0 0 0 2.218-5.323Zm44.571 0a7.503 7.503 0 0 0-1.272-4.187 7.566 7.566 0 0 0-3.397-2.778 7.612 7.612 0 0 0-4.376-.432 7.581 7.581 0 0 0-3.88 2.059 7.519 7.519 0 0 0-2.075 3.856 7.492 7.492 0 0 0 .43 4.353 7.54 7.54 0 0 0 2.788 3.382 7.602 7.602 0 0 0 4.209 1.27 7.596 7.596 0 0 0 5.354-2.2 7.519 7.519 0 0 0 2.219-5.323Zm44.571 0a7.502 7.502 0 0 0-1.272-4.187 7.566 7.566 0 0 0-3.397-2.778 7.612 7.612 0 0 0-8.256 1.627 7.52 7.52 0 0 0-2.075 3.856 7.492 7.492 0 0 0 .43 4.353 7.54 7.54 0 0 0 2.789 3.382 7.603 7.603 0 0 0 4.208 1.27 7.594 7.594 0 0 0 5.355-2.2 7.51 7.51 0 0 0 2.218-5.323Zm44.571 0a7.51 7.51 0 0 0-1.272-4.187 7.57 7.57 0 0 0-3.397-2.778 7.612 7.612 0 0 0-8.256 1.627 7.5 7.5 0 0 0-1.646 8.209 7.538 7.538 0 0 0 2.789 3.382 7.603 7.603 0 0 0 4.208 1.27 7.595 7.595 0 0 0 5.355-2.2 7.528 7.528 0 0 0 1.642-2.442 7.48 7.48 0 0 0 .577-2.881Zm44.57 0a7.502 7.502 0 0 0-1.272-4.187 7.565 7.565 0 0 0-3.397-2.778 7.61 7.61 0 0 0-8.256 1.627 7.52 7.52 0 0 0-2.075 3.856 7.492 7.492 0 0 0 .429 4.353 7.54 7.54 0 0 0 2.79 3.382 7.6 7.6 0 0 0 9.56-.933 7.508 7.508 0 0 0 2.221-5.32Zm44.571 0a7.507 7.507 0 0 0-1.273-4.188 7.56 7.56 0 0 0-3.398-2.778 7.617 7.617 0 0 0-4.378-.431 7.592 7.592 0 0 0-3.88 2.062 7.526 7.526 0 0 0-2.073 3.859 7.49 7.49 0 0 0 .434 4.354 7.542 7.542 0 0 0 2.793 3.38 7.597 7.597 0 0 0 4.21 1.265 7.582 7.582 0 0 0 5.349-2.203 7.503 7.503 0 0 0 2.216-5.32Z" fill="#B5DCD9"/></svg>