<svg width="102" height="105" fill="none" xmlns="http://www.w3.org/2000/svg"><path d="M51.004 22.807a28.258 28.258 0 0 1 16.025 5.004c4.744 3.263 8.44 7.9 10.624 13.326a30.505 30.505 0 0 1 1.641 17.156c-1.113 5.76-3.86 11.05-7.894 15.203-4.034 4.153-9.173 6.98-14.769 8.127a28.08 28.08 0 0 1-16.666-1.69c-5.27-2.248-9.775-6.054-12.945-10.937A30.318 30.318 0 0 1 22.16 52.5c.007-7.873 3.05-15.42 8.457-20.987 5.407-5.567 12.74-8.698 20.387-8.706Zm0-22.807C40.917 0 31.056 3.078 22.669 8.846 14.28 14.614 7.744 22.813 3.883 32.406A53.936 53.936 0 0 0 .98 62.74c1.968 10.184 6.825 19.539 13.957 26.882 7.133 7.342 16.22 12.343 26.113 14.369a49.644 49.644 0 0 0 29.467-2.987c9.32-3.973 17.285-10.703 22.889-19.336C99.009 73.034 102 62.884 102 52.5a53.827 53.827 0 0 0-3.88-20.09 52.625 52.625 0 0 0-11.055-17.033A50.923 50.923 0 0 0 70.52 3.997 49.734 49.734 0 0 0 51.004 0Z" fill="#96DBD3"/></svg>