<svg width="115" height="118" fill="none" xmlns="http://www.w3.org/2000/svg"><path d="M11.683 5.973c0-1.18-.341-2.335-.983-3.317a5.87 5.87 0 0 0-2.62-2.2A5.725 5.725 0 0 0 4.704.114a5.804 5.804 0 0 0-2.992 1.633 6.01 6.01 0 0 0-1.6 3.056 6.09 6.09 0 0 0 .332 3.449 5.942 5.942 0 0 0 2.152 2.68 5.753 5.753 0 0 0 3.245 1.005 5.779 5.779 0 0 0 4.13-1.746 6.035 6.035 0 0 0 1.712-4.218Zm34.444 0c0-1.18-.341-2.335-.983-3.317a5.87 5.87 0 0 0-2.62-2.2 5.726 5.726 0 0 0-3.376-.342 5.804 5.804 0 0 0-2.992 1.633 6.01 6.01 0 0 0-1.6 3.056 6.09 6.09 0 0 0 .332 3.449 5.943 5.943 0 0 0 2.152 2.68 5.753 5.753 0 0 0 3.245 1.005 5.779 5.779 0 0 0 4.13-1.746 6.036 6.036 0 0 0 1.712-4.218Zm34.434 0a6.061 6.061 0 0 0-.982-3.318 5.87 5.87 0 0 0-2.622-2.2 5.726 5.726 0 0 0-3.376-.34 5.804 5.804 0 0 0-2.992 1.633 6.01 6.01 0 0 0-1.599 3.057 6.09 6.09 0 0 0 .334 3.45 5.942 5.942 0 0 0 2.153 2.678 5.753 5.753 0 0 0 3.247 1.004 5.774 5.774 0 0 0 4.127-1.746 6.031 6.031 0 0 0 1.71-4.218Zm34.439 0a6.063 6.063 0 0 0-.982-3.317 5.877 5.877 0 0 0-2.621-2.2 5.725 5.725 0 0 0-3.375-.342 5.8 5.8 0 0 0-2.992 1.633 6.007 6.007 0 0 0-1.6 3.056 6.088 6.088 0 0 0 .332 3.449 5.94 5.94 0 0 0 2.151 2.68 5.753 5.753 0 0 0 3.246 1.005 5.78 5.78 0 0 0 4.129-1.746A6.036 6.036 0 0 0 115 5.973ZM11.683 41.145a6.06 6.06 0 0 0-.985-3.316 5.87 5.87 0 0 0-2.621-2.199 5.726 5.726 0 0 0-3.375-.34 5.804 5.804 0 0 0-2.991 1.634A6.01 6.01 0 0 0 .112 39.98a6.09 6.09 0 0 0 .333 3.449 5.943 5.943 0 0 0 2.151 2.679 5.753 5.753 0 0 0 3.245 1.006c.768 0 1.527-.154 2.236-.454a5.83 5.83 0 0 0 1.896-1.293 5.975 5.975 0 0 0 1.266-1.937 6.1 6.1 0 0 0 .444-2.285Zm34.444 0a6.06 6.06 0 0 0-.985-3.316 5.87 5.87 0 0 0-2.621-2.199 5.726 5.726 0 0 0-3.375-.34 5.804 5.804 0 0 0-2.991 1.634 6.01 6.01 0 0 0-1.599 3.056 6.089 6.089 0 0 0 .333 3.449 5.943 5.943 0 0 0 2.151 2.679 5.753 5.753 0 0 0 3.245 1.006c.768 0 1.527-.154 2.236-.454a5.83 5.83 0 0 0 1.896-1.293 5.975 5.975 0 0 0 1.266-1.937 6.08 6.08 0 0 0 .444-2.285Zm34.434 0c0-1.18-.343-2.335-.985-3.317a5.87 5.87 0 0 0-2.622-2.198 5.725 5.725 0 0 0-3.375-.339 5.8 5.8 0 0 0-2.991 1.635 6.01 6.01 0 0 0-1.598 3.057 6.09 6.09 0 0 0 .334 3.45 5.943 5.943 0 0 0 2.154 2.677 5.753 5.753 0 0 0 3.246 1.004c.767 0 1.526-.155 2.235-.455a5.83 5.83 0 0 0 1.894-1.294 5.975 5.975 0 0 0 1.265-1.936 6.07 6.07 0 0 0 .443-2.284Zm34.439 0a6.06 6.06 0 0 0-.985-3.316 5.867 5.867 0 0 0-2.621-2.199 5.726 5.726 0 0 0-3.375-.34 5.805 5.805 0 0 0-2.991 1.634 6.006 6.006 0 0 0-1.598 3.056 6.085 6.085 0 0 0 .332 3.449 5.945 5.945 0 0 0 2.151 2.679 5.754 5.754 0 0 0 3.246 1.006c.767 0 1.527-.154 2.236-.454a5.829 5.829 0 0 0 1.895-1.293 5.98 5.98 0 0 0 1.267-1.937 6.079 6.079 0 0 0 .443-2.285ZM11.683 76.348c0-1.18-.343-2.334-.985-3.316a5.87 5.87 0 0 0-2.621-2.198 5.726 5.726 0 0 0-3.375-.34 5.803 5.803 0 0 0-2.991 1.634 6.01 6.01 0 0 0-1.599 3.056 6.09 6.09 0 0 0 .333 3.448 5.943 5.943 0 0 0 2.151 2.679 5.753 5.753 0 0 0 3.245 1.006c1.55 0 3.035-.629 4.13-1.748a6.035 6.035 0 0 0 1.712-4.22Zm34.444 0c0-1.18-.343-2.334-.985-3.316a5.87 5.87 0 0 0-2.621-2.198 5.725 5.725 0 0 0-3.375-.34 5.804 5.804 0 0 0-2.991 1.634 6.01 6.01 0 0 0-1.599 3.056 6.089 6.089 0 0 0 .333 3.448 5.943 5.943 0 0 0 2.151 2.679 5.754 5.754 0 0 0 3.245 1.006c1.55 0 3.035-.629 4.13-1.748a6.035 6.035 0 0 0 1.712-4.22Zm34.434 0a6.06 6.06 0 0 0-.985-3.316 5.87 5.87 0 0 0-2.622-2.199 5.725 5.725 0 0 0-3.375-.338 5.798 5.798 0 0 0-2.991 1.634 6.01 6.01 0 0 0-1.598 3.057 6.09 6.09 0 0 0 .334 3.45 5.943 5.943 0 0 0 2.154 2.677 5.753 5.753 0 0 0 3.246 1.004c.767 0 1.526-.155 2.235-.455a5.83 5.83 0 0 0 1.894-1.294 5.975 5.975 0 0 0 1.265-1.936 6.07 6.07 0 0 0 .443-2.284Zm34.439 0a6.06 6.06 0 0 0-.985-3.316 5.867 5.867 0 0 0-2.621-2.198 5.725 5.725 0 0 0-3.375-.34 5.805 5.805 0 0 0-2.991 1.634 6.005 6.005 0 0 0-1.598 3.056 6.085 6.085 0 0 0 .332 3.448 5.945 5.945 0 0 0 2.151 2.679 5.755 5.755 0 0 0 3.246 1.006 5.777 5.777 0 0 0 4.13-1.748 6.033 6.033 0 0 0 1.711-4.22Zm-103.317 35.19a6.06 6.06 0 0 0-.983-3.317 5.876 5.876 0 0 0-2.62-2.201 5.727 5.727 0 0 0-3.376-.341 5.809 5.809 0 0 0-2.992 1.632 6.011 6.011 0 0 0-1.6 3.056 6.093 6.093 0 0 0 .332 3.45 5.941 5.941 0 0 0 2.152 2.679 5.753 5.753 0 0 0 3.245 1.006 5.78 5.78 0 0 0 4.13-1.746 6.037 6.037 0 0 0 1.712-4.218Zm34.444 0a6.06 6.06 0 0 0-.983-3.317 5.876 5.876 0 0 0-2.62-2.201 5.727 5.727 0 0 0-3.376-.341 5.809 5.809 0 0 0-2.992 1.632 6.012 6.012 0 0 0-1.6 3.056 6.092 6.092 0 0 0 .332 3.45 5.941 5.941 0 0 0 2.152 2.679 5.753 5.753 0 0 0 3.245 1.006 5.78 5.78 0 0 0 4.13-1.746 6.038 6.038 0 0 0 1.712-4.218Zm34.434 0a6.064 6.064 0 0 0-.982-3.318 5.87 5.87 0 0 0-2.622-2.2 5.73 5.73 0 0 0-3.376-.341 5.803 5.803 0 0 0-2.992 1.634 6.01 6.01 0 0 0-1.599 3.057 6.092 6.092 0 0 0 .334 3.45 5.937 5.937 0 0 0 2.153 2.678 5.748 5.748 0 0 0 7.374-.743 6.029 6.029 0 0 0 1.71-4.217Zm34.439 0a6.061 6.061 0 0 0-.982-3.317 5.883 5.883 0 0 0-2.621-2.201 5.726 5.726 0 0 0-3.375-.341 5.805 5.805 0 0 0-2.992 1.632 6.009 6.009 0 0 0-1.6 3.056 6.09 6.09 0 0 0 .332 3.45 5.938 5.938 0 0 0 2.151 2.679 5.754 5.754 0 0 0 3.246 1.006 5.782 5.782 0 0 0 4.129-1.746 6.038 6.038 0 0 0 1.712-4.218Z" fill="#ED634D"/></svg>