<svg width="100" height="103" fill="none" xmlns="http://www.w3.org/2000/svg"><path d="M10.159 5.194c0-1.027-.297-2.03-.854-2.885A5.105 5.105 0 0 0 7.025.396 4.979 4.979 0 0 0 4.092.1C3.105.3 2.2.793 1.489 1.52A5.226 5.226 0 0 0 .098 4.176a5.296 5.296 0 0 0 .288 3 5.168 5.168 0 0 0 1.871 2.33c.835.57 1.818.874 2.822.874a5.025 5.025 0 0 0 3.59-1.518 5.248 5.248 0 0 0 1.49-3.668Zm29.951 0a5.27 5.27 0 0 0-.855-2.885A5.105 5.105 0 0 0 36.977.396 4.979 4.979 0 0 0 34.042.1c-.986.2-1.891.694-2.602 1.42a5.226 5.226 0 0 0-1.391 2.657 5.296 5.296 0 0 0 .288 3 5.168 5.168 0 0 0 1.87 2.33 5.01 5.01 0 0 0 2.823.874 5.025 5.025 0 0 0 3.59-1.518 5.248 5.248 0 0 0 1.49-3.668Zm29.943 0a5.27 5.27 0 0 0-.855-2.885A5.105 5.105 0 0 0 66.92.396 4.979 4.979 0 0 0 63.984.1c-.986.2-1.892.694-2.602 1.42a5.226 5.226 0 0 0-1.39 2.659 5.296 5.296 0 0 0 .29 3 5.168 5.168 0 0 0 1.872 2.328 5 5 0 0 0 2.823.873 5.021 5.021 0 0 0 3.59-1.519 5.244 5.244 0 0 0 1.486-3.667Zm29.947 0a5.269 5.269 0 0 0-.854-2.885A5.105 5.105 0 0 0 96.867.396 4.979 4.979 0 0 0 93.932.1c-.986.2-1.891.694-2.602 1.42a5.226 5.226 0 0 0-1.391 2.657 5.296 5.296 0 0 0 .288 3 5.167 5.167 0 0 0 1.871 2.33c.836.57 1.818.874 2.823.874a5.025 5.025 0 0 0 3.59-1.518A5.248 5.248 0 0 0 100 5.194ZM10.159 35.779c0-1.027-.298-2.03-.856-2.884a5.105 5.105 0 0 0-2.28-1.912 4.98 4.98 0 0 0-2.935-.295c-.985.2-1.89.695-2.6 1.42a5.226 5.226 0 0 0-1.39 2.658 5.295 5.295 0 0 0 .289 2.999 5.168 5.168 0 0 0 1.87 2.329 5.003 5.003 0 0 0 4.767.48 5.07 5.07 0 0 0 1.648-1.124 5.195 5.195 0 0 0 1.101-1.685c.255-.63.386-1.305.386-1.986Zm29.951 0c0-1.027-.298-2.03-.856-2.884a5.105 5.105 0 0 0-2.28-1.912 4.979 4.979 0 0 0-2.935-.295c-.985.2-1.89.695-2.6 1.42a5.226 5.226 0 0 0-1.39 2.658 5.296 5.296 0 0 0 .288 2.999 5.168 5.168 0 0 0 1.871 2.329 5.003 5.003 0 0 0 4.767.48 5.07 5.07 0 0 0 1.648-1.124 5.194 5.194 0 0 0 1.101-1.685c.255-.63.386-1.305.386-1.986Zm29.943-.001a5.27 5.27 0 0 0-.856-2.883 5.104 5.104 0 0 0-2.28-1.912 4.978 4.978 0 0 0-2.936-.295c-.985.2-1.89.696-2.6 1.422a5.226 5.226 0 0 0-1.39 2.658 5.296 5.296 0 0 0 .29 3 5.167 5.167 0 0 0 1.873 2.328 5.003 5.003 0 0 0 4.767.478 5.071 5.071 0 0 0 1.647-1.126 5.195 5.195 0 0 0 1.1-1.684 5.31 5.31 0 0 0 .385-1.986Zm29.947.001a5.27 5.27 0 0 0-.856-2.884 5.104 5.104 0 0 0-2.28-1.912 4.979 4.979 0 0 0-2.934-.295 5.05 5.05 0 0 0-2.601 1.42 5.226 5.226 0 0 0-1.39 2.658 5.295 5.295 0 0 0 .289 2.999 5.168 5.168 0 0 0 1.87 2.329 5.003 5.003 0 0 0 4.767.48 5.07 5.07 0 0 0 1.648-1.124 5.196 5.196 0 0 0 1.101-1.685c.255-.63.387-1.305.386-1.986ZM10.159 66.39a5.27 5.27 0 0 0-.856-2.883 5.105 5.105 0 0 0-2.28-1.912 4.979 4.979 0 0 0-2.935-.295 5.04 5.04 0 0 0-2.6 1.42 5.226 5.226 0 0 0-1.39 2.658 5.296 5.296 0 0 0 .289 2.998 5.167 5.167 0 0 0 1.87 2.33c.836.57 1.818.874 2.822.874a5.02 5.02 0 0 0 3.592-1.52 5.248 5.248 0 0 0 1.488-3.67Zm29.951 0a5.27 5.27 0 0 0-.856-2.883 5.106 5.106 0 0 0-2.28-1.912 4.979 4.979 0 0 0-2.935-.295 5.04 5.04 0 0 0-2.6 1.42 5.226 5.226 0 0 0-1.39 2.658 5.296 5.296 0 0 0 .288 2.998 5.167 5.167 0 0 0 1.871 2.33c.836.57 1.818.874 2.822.874 1.347 0 2.64-.546 3.592-1.52a5.248 5.248 0 0 0 1.488-3.67Zm29.943 0c0-1.026-.298-2.03-.856-2.884a5.104 5.104 0 0 0-2.28-1.911 4.978 4.978 0 0 0-2.936-.295c-.985.2-1.89.695-2.6 1.422a5.226 5.226 0 0 0-1.39 2.658 5.295 5.295 0 0 0 .29 2.999 5.167 5.167 0 0 0 1.873 2.328 5.003 5.003 0 0 0 4.767.478 5.071 5.071 0 0 0 1.647-1.125 5.195 5.195 0 0 0 1.1-1.684 5.31 5.31 0 0 0 .385-1.986Zm29.947 0a5.27 5.27 0 0 0-.856-2.883 5.105 5.105 0 0 0-2.28-1.912 4.979 4.979 0 0 0-2.934-.295c-.986.2-1.89.694-2.601 1.42a5.226 5.226 0 0 0-1.39 2.658 5.295 5.295 0 0 0 .289 2.998 5.167 5.167 0 0 0 1.87 2.33c.836.57 1.818.874 2.823.874a5.02 5.02 0 0 0 3.591-1.52A5.249 5.249 0 0 0 100 66.39Zm-89.841 30.6c0-1.026-.297-2.03-.854-2.884a5.105 5.105 0 0 0-2.28-1.914 4.98 4.98 0 0 0-2.934-.297c-.986.2-1.891.694-2.602 1.42a5.226 5.226 0 0 0-1.391 2.657 5.295 5.295 0 0 0 .288 3 5.171 5.171 0 0 0 1.871 2.33c.835.57 1.818.875 2.822.875a5.027 5.027 0 0 0 3.59-1.519 5.25 5.25 0 0 0 1.49-3.668Zm29.951 0a5.27 5.27 0 0 0-.855-2.884 5.105 5.105 0 0 0-2.278-1.914 4.98 4.98 0 0 0-2.935-.297c-.986.2-1.891.694-2.602 1.42a5.226 5.226 0 0 0-1.391 2.657 5.296 5.296 0 0 0 .288 3 5.172 5.172 0 0 0 1.87 2.33c.836.57 1.819.875 2.823.875a5.027 5.027 0 0 0 3.59-1.519 5.249 5.249 0 0 0 1.49-3.668Zm29.943 0a5.27 5.27 0 0 0-.855-2.885 5.104 5.104 0 0 0-2.279-1.913 4.979 4.979 0 0 0-2.935-.296c-.986.2-1.892.694-2.602 1.42a5.226 5.226 0 0 0-1.39 2.659 5.296 5.296 0 0 0 .29 3 5.167 5.167 0 0 0 1.872 2.328 5.01 5.01 0 0 0 2.823.874 5.02 5.02 0 0 0 3.59-1.52 5.242 5.242 0 0 0 1.486-3.667Zm29.947 0a5.27 5.27 0 0 0-.854-2.884 5.105 5.105 0 0 0-2.279-1.914 4.979 4.979 0 0 0-2.935-.297c-.986.2-1.891.694-2.602 1.42a5.226 5.226 0 0 0-1.391 2.657 5.296 5.296 0 0 0 .288 3 5.171 5.171 0 0 0 1.871 2.33 5.01 5.01 0 0 0 2.823.875 5.028 5.028 0 0 0 3.59-1.519A5.25 5.25 0 0 0 100 96.99Z" fill="#356D82"/></svg>