<svg width="85" height="55" fill="none" xmlns="http://www.w3.org/2000/svg"><path d="M79.58 51.559c0 .547.158 1.083.456 1.538.298.455.72.81 1.216 1.02.495.209 1.04.264 1.565.157a2.692 2.692 0 0 0 1.387-.758c.378-.387.637-.88.741-1.417a2.823 2.823 0 0 0-.154-1.6 2.756 2.756 0 0 0-.998-1.242 2.667 2.667 0 0 0-3.42.345 2.799 2.799 0 0 0-.794 1.957Zm-15.917 0c0 .547.16 1.083.457 1.538.298.455.72.81 1.216 1.02.495.209 1.04.264 1.565.157a2.69 2.69 0 0 0 1.386-.758c.38-.387.637-.88.742-1.417a2.824 2.824 0 0 0-.154-1.6 2.755 2.755 0 0 0-.998-1.242 2.667 2.667 0 0 0-3.42.345 2.799 2.799 0 0 0-.794 1.957Zm-15.913 0c0 .547.16 1.083.457 1.538.297.455.72.81 1.216 1.02.495.209 1.04.264 1.564.157a2.692 2.692 0 0 0 1.387-.758c.38-.387.637-.88.742-1.417a2.824 2.824 0 0 0-.154-1.6 2.755 2.755 0 0 0-.998-1.242 2.667 2.667 0 0 0-3.42.345 2.799 2.799 0 0 0-.794 1.957Zm-15.916 0c0 .547.16 1.083.457 1.538.298.455.72.81 1.216 1.02a2.657 2.657 0 0 0 1.565.157 2.69 2.69 0 0 0 1.386-.758c.38-.387.637-.88.742-1.417a2.824 2.824 0 0 0-.154-1.6 2.755 2.755 0 0 0-.998-1.242 2.667 2.667 0 0 0-3.42.345 2.799 2.799 0 0 0-.794 1.957Zm-15.918 0c0 .547.16 1.083.457 1.538.297.455.72.81 1.215 1.02a2.66 2.66 0 0 0 1.566.157 2.692 2.692 0 0 0 1.387-.758c.378-.387.636-.88.74-1.417a2.824 2.824 0 0 0-.153-1.6 2.756 2.756 0 0 0-.998-1.242 2.667 2.667 0 0 0-3.42.345 2.799 2.799 0 0 0-.794 1.957ZM0 51.559c0 .547.16 1.083.457 1.538.298.455.721.81 1.216 1.02a2.66 2.66 0 0 0 1.566.157 2.691 2.691 0 0 0 1.386-.758c.38-.387.637-.88.742-1.417a2.824 2.824 0 0 0-.154-1.6 2.756 2.756 0 0 0-.998-1.242 2.668 2.668 0 0 0-1.505-.466 2.68 2.68 0 0 0-1.915.81A2.8 2.8 0 0 0 0 51.56ZM79.58 35.28c0 .547.158 1.082.456 1.537.298.455.72.81 1.216 1.02a2.65 2.65 0 0 0 1.565.157 2.692 2.692 0 0 0 1.387-.757 2.79 2.79 0 0 0 .741-1.418 2.823 2.823 0 0 0-.154-1.599 2.756 2.756 0 0 0-.998-1.242 2.668 2.668 0 0 0-3.42.344 2.798 2.798 0 0 0-.794 1.957Zm-15.917 0c0 .547.16 1.082.457 1.537.298.455.72.81 1.216 1.02a2.65 2.65 0 0 0 1.565.157 2.691 2.691 0 0 0 1.386-.757c.38-.388.637-.88.742-1.418a2.823 2.823 0 0 0-.154-1.599 2.756 2.756 0 0 0-.998-1.242 2.667 2.667 0 0 0-3.42.344 2.799 2.799 0 0 0-.794 1.957Zm-15.913 0c0 .547.16 1.082.457 1.537.297.455.72.81 1.216 1.02.495.21 1.04.264 1.564.157a2.692 2.692 0 0 0 1.387-.757c.38-.388.637-.88.742-1.418a2.823 2.823 0 0 0-.154-1.599 2.756 2.756 0 0 0-.998-1.242 2.667 2.667 0 0 0-3.42.344 2.798 2.798 0 0 0-.794 1.957Zm-15.916 0c0 .547.16 1.082.457 1.537.298.455.72.81 1.216 1.02.495.21 1.039.264 1.565.157a2.691 2.691 0 0 0 1.386-.757c.38-.388.637-.88.742-1.418a2.823 2.823 0 0 0-.154-1.599 2.756 2.756 0 0 0-.998-1.242 2.668 2.668 0 0 0-3.42.344 2.799 2.799 0 0 0-.794 1.957Zm-15.918 0c0 .547.16 1.082.457 1.537.297.455.72.81 1.215 1.02.495.21 1.04.264 1.566.157a2.692 2.692 0 0 0 1.387-.757 2.823 2.823 0 0 0 .587-3.016 2.757 2.757 0 0 0-.998-1.243 2.668 2.668 0 0 0-3.42.344 2.799 2.799 0 0 0-.794 1.957ZM0 35.28c0 .547.16 1.082.457 1.537.298.455.721.81 1.216 1.02.495.21 1.04.264 1.566.157a2.692 2.692 0 0 0 1.386-.757c.38-.388.637-.88.742-1.418a2.824 2.824 0 0 0-.154-1.599 2.756 2.756 0 0 0-.998-1.242 2.67 2.67 0 0 0-1.505-.467 2.68 2.68 0 0 0-1.915.811A2.799 2.799 0 0 0 0 35.28Zm79.58-16.249c0 .548.158 1.083.456 1.538.298.455.72.81 1.216 1.02a2.65 2.65 0 0 0 1.565.157 2.692 2.692 0 0 0 1.387-.757c.378-.387.637-.88.741-1.418a2.823 2.823 0 0 0-.154-1.599 2.756 2.756 0 0 0-.998-1.242 2.668 2.668 0 0 0-3.42.344 2.799 2.799 0 0 0-.794 1.957Zm-15.917 0c0 .548.16 1.083.457 1.538.298.455.72.81 1.216 1.02a2.65 2.65 0 0 0 1.565.157 2.69 2.69 0 0 0 1.386-.757c.38-.387.637-.88.742-1.418a2.824 2.824 0 0 0-.154-1.599 2.755 2.755 0 0 0-.998-1.242 2.668 2.668 0 0 0-3.42.344 2.799 2.799 0 0 0-.794 1.957Zm-15.913 0c0 .548.16 1.083.457 1.538.297.455.72.81 1.216 1.02.495.21 1.04.264 1.564.157a2.692 2.692 0 0 0 1.387-.757c.38-.387.637-.88.742-1.418a2.824 2.824 0 0 0-.154-1.599 2.755 2.755 0 0 0-.998-1.242 2.668 2.668 0 0 0-3.42.344 2.799 2.799 0 0 0-.794 1.957Zm-15.916 0c0 .548.16 1.083.457 1.538.298.455.72.81 1.216 1.02.495.21 1.039.264 1.565.157a2.69 2.69 0 0 0 1.386-.757c.38-.387.637-.88.742-1.418a2.824 2.824 0 0 0-.154-1.599 2.755 2.755 0 0 0-.998-1.242 2.668 2.668 0 0 0-3.42.344 2.799 2.799 0 0 0-.794 1.957Zm-15.918 0c0 .548.16 1.083.457 1.538.297.455.72.81 1.215 1.02.495.21 1.04.264 1.566.157a2.692 2.692 0 0 0 1.387-.757 2.824 2.824 0 0 0 .587-3.017 2.756 2.756 0 0 0-.998-1.242 2.668 2.668 0 0 0-3.42.344 2.799 2.799 0 0 0-.794 1.957ZM0 19.031c0 .548.16 1.083.457 1.538.298.455.721.81 1.216 1.02.495.21 1.04.264 1.566.157a2.691 2.691 0 0 0 1.386-.757c.38-.387.637-.88.742-1.418a2.824 2.824 0 0 0-.154-1.599 2.756 2.756 0 0 0-.998-1.242 2.67 2.67 0 0 0-1.505-.467 2.68 2.68 0 0 0-1.915.811A2.8 2.8 0 0 0 0 19.031ZM79.58 2.768c0 .547.158 1.083.456 1.538.298.455.72.81 1.216 1.02.495.209 1.04.264 1.565.157a2.692 2.692 0 0 0 1.387-.758c.378-.387.637-.88.741-1.417a2.823 2.823 0 0 0-.154-1.6 2.756 2.756 0 0 0-.998-1.242 2.668 2.668 0 0 0-3.42.345 2.798 2.798 0 0 0-.794 1.957Zm-15.917 0c0 .547.16 1.083.457 1.538.298.455.72.81 1.216 1.02.495.209 1.04.264 1.565.157a2.69 2.69 0 0 0 1.386-.758c.38-.387.637-.88.742-1.417a2.824 2.824 0 0 0-.154-1.6 2.756 2.756 0 0 0-.998-1.242 2.667 2.667 0 0 0-3.42.345 2.799 2.799 0 0 0-.794 1.957Zm-15.913 0c0 .547.16 1.083.457 1.538.297.455.72.81 1.216 1.02.495.209 1.04.264 1.564.157a2.692 2.692 0 0 0 1.387-.758c.38-.387.637-.88.742-1.417a2.824 2.824 0 0 0-.154-1.6 2.756 2.756 0 0 0-.998-1.242 2.667 2.667 0 0 0-3.42.345 2.798 2.798 0 0 0-.794 1.957Zm-15.916 0c0 .547.16 1.083.457 1.538.298.455.72.81 1.216 1.02a2.657 2.657 0 0 0 1.565.157 2.69 2.69 0 0 0 1.386-.758c.38-.387.637-.88.742-1.417a2.824 2.824 0 0 0-.154-1.6 2.756 2.756 0 0 0-.998-1.242 2.667 2.667 0 0 0-3.42.345 2.799 2.799 0 0 0-.794 1.957Zm-15.918 0c0 .547.16 1.083.457 1.538.297.455.72.81 1.215 1.02a2.66 2.66 0 0 0 1.566.157 2.692 2.692 0 0 0 1.387-.758c.378-.387.636-.88.74-1.417a2.824 2.824 0 0 0-.153-1.6A2.757 2.757 0 0 0 20.13.467a2.668 2.668 0 0 0-3.42.345 2.799 2.799 0 0 0-.794 1.957ZM0 2.768c0 .547.16 1.083.457 1.538.298.455.721.81 1.216 1.02a2.66 2.66 0 0 0 1.566.157 2.691 2.691 0 0 0 1.386-.758c.38-.387.637-.88.742-1.417a2.824 2.824 0 0 0-.154-1.6A2.756 2.756 0 0 0 4.215.467 2.669 2.669 0 0 0 2.71 0 2.68 2.68 0 0 0 .795.81 2.8 2.8 0 0 0 0 2.769Z" fill="#ED634D"/></svg>