<svg xmlns="http://www.w3.org/2000/svg" viewBox="0 0 119 95"><path fill="#b5dcd9" d="M119 47.5C119 73.733 97.733 95 71.5 95S24 73.733 24 47.5 45.267 0 71.5 0 119 21.267 119 47.5z" opacity=".3"/><path fill="#10334d" d="M11.37 37.804c0-2.868 2.333-5.2 5.2-5.2 1.279 0 2.45.464 3.357 1.232l7.668-6.04a5.168 5.168 0 0 1-.555-2.334c0-2.867 2.333-5.2 5.2-5.2s5.2 2.333 5.2 5.2c0 .847-.205 1.647-.566 2.354l7.558 6.006a5.176 5.176 0 0 1 3.34-1.219 5.17 5.17 0 0 1 2.027.412l9.763-14.208a5.182 5.182 0 0 1-1.46-3.607c0-2.867 2.333-5.2 5.2-5.2 2.868 0 5.2 2.333 5.2 5.2 0 2.868-2.332 5.2-5.2 5.2a5.17 5.17 0 0 1-2.027-.412l-9.763 14.209a5.181 5.181 0 0 1 1.46 3.607c0 2.867-2.333 5.2-5.2 5.2a5.206 5.206 0 0 1-5.2-5.2c0-.847.204-1.647.565-2.355l-7.557-6.005a5.176 5.176 0 0 1-3.34 1.218 5.176 5.176 0 0 1-3.356-1.233l-7.67 6.04c.355.703.556 1.496.556 2.335 0 2.867-2.332 5.2-5.2 5.2a5.206 5.206 0 0 1-5.2-5.2zM60.183 15.2c0 1.72 1.4 3.12 3.12 3.12 1.72 0 3.12-1.4 3.12-3.12 0-1.72-1.4-3.12-3.12-3.12-1.72 0-3.12 1.4-3.12 3.12zM44.65 37.804c0 1.72 1.4 3.12 3.12 3.12 1.72 0 3.12-1.4 3.12-3.12 0-1.72-1.4-3.12-3.12-3.12-1.72 0-3.12 1.4-3.12 3.12zM29.12 25.462c0 1.72 1.4 3.12 3.12 3.12 1.72 0 3.12-1.4 3.12-3.12 0-1.72-1.4-3.12-3.12-3.12-1.72 0-3.12 1.4-3.12 3.12zM13.45 37.804c0 1.72 1.4 3.12 3.12 3.12 1.72 0 3.12-1.4 3.12-3.12 0-1.72-1.4-3.12-3.12-3.12-1.72 0-3.12 1.4-3.12 3.12zm56.51 36.267H36.61a1.04 1.04 0 1 0 0 2.08h32.31v2.774H3.12a1.03 1.03 0 0 1-.736-.307 1.028 1.028 0 0 1-.304-.733V64.78a1.04 1.04 0 0 0-2.08 0v13.105c0 .834.325 1.618.913 2.204a3.1 3.1 0 0 0 2.207.916h66.84a1.04 1.04 0 0 0 1.04-1.04V75.11a1.04 1.04 0 0 0-1.04-1.04z"/><path fill="#10334d" d="M1.04 61.1a1.04 1.04 0 0 0 1.04-1.04V12.08h2.774v63.026c0 .575.465 1.04 1.04 1.04h26a1.04 1.04 0 0 0 0-2.08H6.935V11.04A1.04 1.04 0 0 0 5.894 10H1.04A1.04 1.04 0 0 0 0 11.04v49.02c0 .575.466 1.04 1.04 1.04z"/><path fill="#10334d" d="M20.314 49.38c.574 0 1.04.466 1.04 1.04v19.414a1.04 1.04 0 0 1-1.04 1.04H13.38a1.04 1.04 0 0 1-1.04-1.04V50.42c0-.574.466-1.04 1.04-1.04zm-1.04 2.08H14.42v17.334h4.854zm16.43-14.42c.574 0 1.04.466 1.04 1.04v31.756a1.04 1.04 0 0 1-1.04 1.04H28.77a1.04 1.04 0 0 1-1.04-1.04V38.08c0-.574.466-1.04 1.04-1.04zm-1.04 2.08H29.81v29.676h4.854zm16.58 10.26c.574 0 1.04.466 1.04 1.04v19.414a1.04 1.04 0 0 1-1.04 1.04H44.31a1.04 1.04 0 0 1-1.04-1.04V50.42c0-.574.466-1.04 1.04-1.04zm-1.04 2.08H45.35v17.334h4.854zm16.57-24.68c.574 0 1.04.466 1.04 1.04v42.018a1.04 1.04 0 0 1-1.04 1.04H59.84a1.04 1.04 0 0 1-1.04-1.04V27.82c0-.574.466-1.04 1.04-1.04zm-1.04 2.08H60.88v39.938h4.854z"/></svg>