<svg width="112" height="216" fill="none" xmlns="http://www.w3.org/2000/svg"><path d="m67.875 214.03-.776.666a1.945 1.945 0 0 1-1.583.45 1.923 1.923 0 0 1-1.35-.928c-.448.104-.922.102-1.396.098a12.56 12.56 0 0 0-.644.006c-1.6.089-2.11-1.707-1.566-2.891l11.02-22.773c.934-1.98 4.064-.469 3.423 1.531a5710.104 5710.104 0 0 1-5.384 17.268c15.902-14.366 29.34-29.583 34.385-51.329a135.913 135.913 0 0 0-3.591-72.068C85.988 40.378 48.263 7.36 1.646 2.406c-.889-.1-.856-1.472.07-1.404C48.229 4.375 87.1 36.793 102.596 79.827a139.677 139.677 0 0 1 5.57 74.07c-4.791 23.865-18.575 40.353-35.826 56.069l15.454-.853c2.503-.126 2.335 3.701-.142 3.842l-19.776 1.075Z" fill="#ED634D" stroke="#ED634D"/></svg>