<svg xmlns="http://www.w3.org/2000/svg" viewBox="0 0 63 63"><path fill="#356d82" d="M28.686 61.86a11.43 11.43 0 0 1-3.15-.444l-3.979-1.143a9.281 9.281 0 0 0-3.505-.314l-7.493.754v1.151a1.047 1.047 0 0 1-1.047 1.047H1.137A1.047 1.047 0 0 1 .09 61.864V46.161a1.047 1.047 0 0 1 1.047-1.047h8.375a1.047 1.047 0 0 1 1.047 1.047v1.03h6.386a9.317 9.317 0 0 0 4.964-1.436l4.083-2.568a11.384 11.384 0 0 1 4.083-1.579L41.29 39.62a3.14 3.14 0 0 1 3.227 4.711 6.956 6.956 0 0 1-2.425 2.44 1.126 1.126 0 0 1-.128.064l-6.655 2.814 1.06 1.068a1.028 1.028 0 0 0 1.114.23l7.463-3a9.345 9.345 0 0 0 2.737-1.7l9.767-8.713a3.124 3.124 0 0 1 4.15-.009l.245.218a3.146 3.146 0 0 1 .369 4.329l-8.657 10.8a11.517 11.517 0 0 1-4.187 3.26l-10.282 4.7a11.339 11.339 0 0 1-4.744 1.033zM8.465 47.208H2.184v13.61h6.281zm17.644 12.196a9.36 9.36 0 0 0 2.573.362h5.663a9.25 9.25 0 0 0 3.873-.843l10.283-4.7a9.421 9.421 0 0 0 3.42-2.662l8.655-10.798a1.055 1.055 0 0 0-.122-1.452l-.245-.216a1.028 1.028 0 0 0-1.367 0l-9.768 8.713a11.431 11.431 0 0 1-3.35 2.08l-7.458 3.001a3.118 3.118 0 0 1-3.38-.697l-2.153-2.167a1.048 1.048 0 0 1 .334-1.702l8.008-3.38a4.87 4.87 0 0 0 1.64-1.675 1.047 1.047 0 0 0-.036-1.152 1.02 1.02 0 0 0-1.026-.431l-11.217 1.989a9.285 9.285 0 0 0-3.337 1.29l-4.082 2.568a11.4 11.4 0 0 1-6.071 1.753H10.56v9.327l7.284-.733a11.436 11.436 0 0 1 4.292.386z"/><path fill="#356d82" d="M4.28 56.63h2.094v2.094H4.28zM13.7 8.467a1.047 1.047 0 0 1 1.047-1.047h33.5a1.047 1.047 0 0 1 1.047 1.047v27.219a1.047 1.047 0 0 1-1.047 1.047h-33.5a1.047 1.047 0 0 1-1.047-1.047zm2.094 26.172H47.2V9.514H15.794z"/><path fill="#356d82" d="M40.034 19.07a1.047 1.047 0 0 1 .592 1.766l-3.82 3.913.905 5.539a1.047 1.047 0 0 1-1.54 1.084l-4.67-2.58-4.669 2.58a1.046 1.046 0 0 1-1.54-1.084l.905-5.54-3.82-3.912a1.047 1.047 0 0 1 .592-1.766l5.234-.8 2.352-5.008a1.047 1.047 0 0 1 1.895 0l2.35 5.008zM37.7 20.83l-3.77-.575a1.047 1.047 0 0 1-.788-.59L31.5 16.17l-1.64 3.494a1.047 1.047 0 0 1-.789.59l-3.774.576 2.765 2.834a1.047 1.047 0 0 1 .284.9l-.642 3.932 3.29-1.818a1.047 1.047 0 0 1 1.012 0l3.29 1.818-.642-3.932a1.046 1.046 0 0 1 .284-.9zM30.45.09h2.094v4.188H30.45zm23.03 20.94h4.188v2.094H53.48zm-48.15 0h4.188v2.094H5.33zM7.293 3.542l1.48-1.48 2.962 2.96-1.48 1.481zm43.965 1.485 2.96-2.961 1.481 1.48-2.96 2.961z"/></svg>