<svg xmlns="http://www.w3.org/2000/svg" viewBox="0 0 124 60"><path fill="#b5dcd9" d="M118.695 12.497h4.457v47.428h-4.457zm-8.913 0h4.456v47.428h-4.456zm-8.914 0h4.457v47.428h-4.457zm-8.914 0h4.457v47.428h-4.457zm-8.914 0h4.458v47.428H83.04zm-8.913 0h4.457v47.428h-4.457zm-8.913 0h4.457v47.428h-4.457zm-8.914 0h4.457v47.428H56.3zm-8.913 0h4.456v47.428h-4.456zm-8.914 0h4.457v47.428h-4.457zm-8.913 0h4.456v47.428H29.56zm-8.914 0h4.457v47.428h-4.457z"/><path fill="#10334d" d="M14.226 24.568c0-.43-.124-.853-.359-1.212a2.147 2.147 0 0 0-.958-.804 2.1 2.1 0 0 0-1.236-.126 2.125 2.125 0 0 0-1.095.596 2.22 2.22 0 0 0-.465 2.377c.162.399.436.74.787.979a2.108 2.108 0 0 0 2.7-.269 2.215 2.215 0 0 0 .626-1.54m9.951-.001c0-.431-.125-.853-.36-1.212a2.147 2.147 0 0 0-.959-.804 2.099 2.099 0 0 0-1.235-.125 2.125 2.125 0 0 0-1.096.596 2.22 2.22 0 0 0-.463 2.378c.163.399.437.74.79.978a2.108 2.108 0 0 0 2.697-.271c.4-.409.626-.962.626-1.54m9.943-.006c0-.43-.124-.851-.359-1.21a2.145 2.145 0 0 0-.958-.801 2.096 2.096 0 0 0-1.233-.124 2.122 2.122 0 0 0-1.093.596 2.19 2.19 0 0 0-.584 1.115c-.083.422-.04.86.121 1.257.162.398.435.738.786.977a2.105 2.105 0 0 0 2.696-.27c.4-.409.625-.962.625-1.54M14.226 17.09c0-.43-.124-.853-.359-1.212a2.147 2.147 0 0 0-.958-.804 2.1 2.1 0 0 0-1.236-.125 2.125 2.125 0 0 0-1.095.595 2.22 2.22 0 0 0-.465 2.377c.162.399.436.74.787.979a2.108 2.108 0 0 0 2.7-.269 2.215 2.215 0 0 0 .626-1.54m9.951-.001c0-.431-.125-.853-.36-1.212a2.147 2.147 0 0 0-.959-.804 2.099 2.099 0 0 0-1.235-.125 2.125 2.125 0 0 0-1.096.597 2.192 2.192 0 0 0-.585 1.117 2.22 2.22 0 0 0 .122 1.26c.163.399.437.74.79.979a2.108 2.108 0 0 0 2.697-.272c.4-.409.626-.962.626-1.54m9.943-.006c0-.43-.124-.851-.359-1.21a2.145 2.145 0 0 0-.958-.801 2.096 2.096 0 0 0-1.233-.124 2.122 2.122 0 0 0-1.093.596 2.19 2.19 0 0 0-.584 1.115c-.083.422-.04.86.121 1.257.162.398.435.738.786.977a2.105 2.105 0 0 0 2.696-.27c.4-.409.625-.962.625-1.54M14.226 9.613a2.21 2.21 0 0 0-.359-1.212 2.147 2.147 0 0 0-.958-.805 2.1 2.1 0 0 0-1.236-.125 2.125 2.125 0 0 0-1.095.596c-.3.304-.503.693-.586 1.116a2.22 2.22 0 0 0 .121 1.26c.162.399.436.74.787.98a2.108 2.108 0 0 0 2.7-.27 2.215 2.215 0 0 0 .626-1.54m9.951 0c0-.432-.125-.854-.36-1.213a2.147 2.147 0 0 0-.959-.804 2.099 2.099 0 0 0-1.235-.125 2.125 2.125 0 0 0-1.096.597 2.192 2.192 0 0 0-.585 1.117 2.22 2.22 0 0 0 .122 1.26c.163.399.437.74.79.979a2.108 2.108 0 0 0 2.697-.272c.4-.408.626-.962.626-1.54m9.943-.005c0-.431-.124-.852-.359-1.21a2.145 2.145 0 0 0-.958-.802 2.096 2.096 0 0 0-1.233-.124 2.122 2.122 0 0 0-1.093.596 2.19 2.19 0 0 0-.584 1.115c-.083.422-.04.86.121 1.258.162.397.435.738.786.977a2.105 2.105 0 0 0 2.696-.271 2.2 2.2 0 0 0 .625-1.54M14.226 2.135c0-.431-.124-.853-.359-1.212a2.147 2.147 0 0 0-.958-.805 2.1 2.1 0 0 0-1.236-.125 2.125 2.125 0 0 0-1.095.596 2.19 2.19 0 0 0-.586 1.116 2.22 2.22 0 0 0 .121 1.26c.162.399.436.74.787.98a2.108 2.108 0 0 0 2.7-.27 2.215 2.215 0 0 0 .626-1.54zM4.275 24.568a2.215 2.215 0 0 0-.358-1.212 2.147 2.147 0 0 0-.959-.804 2.1 2.1 0 0 0-1.235-.126 2.125 2.125 0 0 0-1.096.596A2.22 2.22 0 0 0 .162 25.4c.162.399.436.74.788.979a2.108 2.108 0 0 0 2.7-.269 2.215 2.215 0 0 0 .626-1.54m-.001-7.48a2.215 2.215 0 0 0-.358-1.212 2.147 2.147 0 0 0-.959-.804 2.1 2.1 0 0 0-1.235-.125 2.125 2.125 0 0 0-1.096.595 2.22 2.22 0 0 0-.465 2.377c.162.399.436.74.788.979a2.108 2.108 0 0 0 2.7-.269 2.215 2.215 0 0 0 .626-1.54m-.001-7.478a2.21 2.21 0 0 0-.358-1.212 2.147 2.147 0 0 0-.959-.805 2.1 2.1 0 0 0-1.235-.125 2.125 2.125 0 0 0-1.096.596 2.19 2.19 0 0 0-.586 1.116 2.22 2.22 0 0 0 .121 1.26c.162.399.436.74.788.98a2.108 2.108 0 0 0 2.7-.27 2.215 2.215 0 0 0 .626-1.54m-.001-7.478A2.212 2.212 0 0 0 3.917.923a2.147 2.147 0 0 0-.959-.804 2.1 2.1 0 0 0-1.235-.126A2.125 2.125 0 0 0 .627.59a2.191 2.191 0 0 0-.586 1.115 2.22 2.22 0 0 0 .121 1.26c.162.4.436.74.788.98a2.108 2.108 0 0 0 2.7-.27 2.215 2.215 0 0 0 .626-1.54m19.901 0c0-.432-.125-.854-.36-1.213a2.147 2.147 0 0 0-.959-.804 2.099 2.099 0 0 0-1.236-.125 2.125 2.125 0 0 0-1.095.597 2.192 2.192 0 0 0-.585 1.117 2.22 2.22 0 0 0 .122 1.26c.163.4.437.74.789.979a2.108 2.108 0 0 0 2.698-.272c.4-.408.626-.962.626-1.54m9.943-.005c0-.43-.124-.852-.359-1.21a2.145 2.145 0 0 0-.958-.802 2.096 2.096 0 0 0-1.233-.124 2.122 2.122 0 0 0-1.093.596 2.19 2.19 0 0 0-.584 1.115c-.083.422-.04.86.121 1.258.162.398.435.738.786.977a2.105 2.105 0 0 0 2.696-.27c.4-.41.625-.963.625-1.54"/></svg>