<svg fill="none" xmlns="http://www.w3.org/2000/svg" viewBox="0 0 1157 1221"><path d="M516.905 874.841c1.757-43.524-15.074-86.202-20.624-129.571-5.549-43.368 3.282-92.481 44.05-119.011 38.226-24.855 95.387-23.829 130.299-51.923 36.875-29.661 35.697-80.988 67.993-114.201 38.028-39.117 107.141-40.554 165.297-54.195 83.658-19.566 151.87-68.638 217.17-116.311 15.46-11.296 32.46-26.474 27.1-43.255-5.89-18.394-33.46-23.833-56.01-25.863l-539.184-48.418c-80.873-7.26-170.254-12.729-234.977 27.644-75.44 47.06-87.161 136.535-92.613 215.701a3659526.35 3659526.35 0 0 1-21.299 309.613c-3.912 56.847-7.762 114.438 5.554 170.47 14.658 61.661 64.328 166.859 155.536 143.959 83.264-20.85 148.789-91.849 151.725-164.676" fill="#F6F5F5"/></svg>