<svg width="184" height="168" fill="none" xmlns="http://www.w3.org/2000/svg"><path d="m18.733 163.945.339.965a1.95 1.95 0 0 0 1.146 1.181 1.922 1.922 0 0 0 1.633-.129c.335.315.747.549 1.16.783.187.106.374.213.554.328 1.342.876 2.681-.424 2.803-1.721l1.842-25.232c.181-2.182-3.285-2.438-3.73-.386a5582.447 5582.447 0 0 0-3.97 17.647c-6.59-20.393-10.619-40.29-4.115-61.645A135.905 135.905 0 0 1 55.54 35.118C89.873 4.502 139.052-5.23 181.9 13.788c.82.358 1.478-.847.641-1.251C140.575-7.798 90.701.84 55.766 30.362a139.685 139.685 0 0 0-41.86 61.361c-7.782 23.063-4.09 44.234 2.992 66.471l-12.957-8.467c-2.104-1.359-3.872 2.038-1.798 3.398l16.59 10.82Z" fill="#ED634D" stroke="#ED634D"/></svg>