<svg fill="none" height="536" width="481" xmlns="http://www.w3.org/2000/svg"><mask id="a" fill="#fff"><path d="M453.704 295.873a65.093 65.093 0 0 0 .273-31.536 65.063 65.063 0 0 0-14.583-27.959c-17.242-19.05-44.138-26.056-64.095-42.233-25.828-20.977-37.225-54.677-56.689-81.72-23.19-32.22-57.46-54.379-90.91-75.76-22.203-14.205-45.914-28.892-72.28-29.32-35.964-.658-69.765 29.782-72.87 65.633-5.277 60.822 64.507 106.413 66.168 167.434.82 31.618-17.181 63.617-7.382 93.685 11.612 35.632 54.643 48.394 91.675 54.188 28.159 4.409 56.444 7.834 84.728 11.258 22.914 2.776 46.984 5.427 68.449-3.179 26.458-10.674 24.788-28.2 33.47-49.873 7.676-19.099 28.165-28.621 34.088-50.553"/></mask><path d="M25.016 211.513a5.506 5.506 0 0 0-6.58-5.407 5.51 5.51 0 0 0-1.988 9.982 5.51 5.51 0 0 0 8.568-4.575zm25.015 0a5.506 5.506 0 0 0-6.58-5.407 5.509 5.509 0 1 0 4.966 9.299 5.508 5.508 0 0 0 1.614-3.892zm25.016 0a5.51 5.51 0 0 0-3.399-5.092 5.505 5.505 0 0 0-6.004 1.193 5.508 5.508 0 1 0 9.403 3.899zm25.015 0a5.504 5.504 0 0 0-3.397-5.092 5.513 5.513 0 0 0-6.004 1.192 5.506 5.506 0 0 0 3.893 9.403 5.507 5.507 0 0 0 5.508-5.503zm-75.046 25.011a5.51 5.51 0 0 0-6.582-5.402 5.507 5.507 0 0 0 1.074 10.91c.724 0 1.44-.142 2.109-.418a5.519 5.519 0 0 0 2.98-2.982 5.5 5.5 0 0 0 .419-2.108zm25.015 0a5.51 5.51 0 0 0-6.582-5.402 5.507 5.507 0 1 0 6.582 5.402zm25.015 0a5.509 5.509 0 0 0-10.91-1.072 5.51 5.51 0 0 0 9.3 4.966 5.49 5.49 0 0 0 1.61-3.894zm25.016 0a5.51 5.51 0 0 0-6.582-5.402 5.507 5.507 0 1 0 6.582 5.402zm-75.046 24.995a5.508 5.508 0 1 0-11.016.04 5.508 5.508 0 0 0 11.016-.04zm25.015 0a5.511 5.511 0 0 0-3.414-5.074 5.503 5.503 0 0 0-5.995 1.207 5.51 5.51 0 0 0 .844 8.468 5.507 5.507 0 0 0 8.565-4.581m25.016-.02a5.507 5.507 0 1 0 0 .02m25.015-.02a5.51 5.51 0 0 0-6.595-5.379 5.51 5.51 0 0 0-4 7.512 5.506 5.506 0 0 0 8.982 1.782 5.509 5.509 0 0 0 1.613-3.895m-75.046 25.02a5.506 5.506 0 0 0-6.58-5.407 5.51 5.51 0 0 0-1.988 9.982 5.51 5.51 0 0 0 8.568-4.575zm25.015 0a5.506 5.506 0 0 0-6.58-5.407 5.509 5.509 0 1 0 4.966 9.299 5.508 5.508 0 0 0 1.614-3.892zm50.031 0a5.504 5.504 0 0 0-3.397-5.091 5.505 5.505 0 0 0-7.512 4.011 5.506 5.506 0 0 0 5.401 6.583 5.507 5.507 0 0 0 5.508-5.503z" fill="#b5dcd9"/><path d="M268.033 353.386c-15.25-7.86-32.44-11.88-46.81-21.26-19.37-12.66-31.44-33.53-45.91-51.6s-34.66-34.87-57.76-33.44c-30.79 1.92-49.59 33.7-62.88 61.54l-42.36 88.78c-7.5 15.7-15.19 33-11.24 49.91 5 21.54 26.7 34.41 46.87 43.48 80.09 36 297.75 104.11 274.5-60.82-4.54-32.21-25.51-61.68-54.41-76.59z" fill="#f6f5f5"/><path d="m439.394 236.378.748-.664-.007-.007zm-64.095-42.233-.631.777h.001zm-56.689-81.72.812-.584zm-90.91-75.76-.539.842h.001l.538-.843zm-72.28-29.32-.018 1h.002zM82.55 72.978l.996.087-.997-.087zm66.168 167.434 1-.026-.001-.001zm-7.382 93.685.951-.31zm91.675 54.188.154-.988zm84.728 11.258.121-.993zm68.449-3.179.372.928.002-.001zm33.47-49.873-.928-.373v.001zm35.014-50.367a66.088 66.088 0 0 0 .278-32.021l-1.945.467a64.094 64.094 0 0 1-.27 31.053zm.278-32.021a66.075 66.075 0 0 0-14.808-28.389l-1.496 1.327a64.064 64.064 0 0 1 14.359 27.529zm-14.815-28.396c-8.746-9.663-19.916-16.245-31.295-22.402-11.423-6.182-23.025-11.923-32.912-19.936l-1.259 1.553c10.071 8.163 21.895 14.014 33.22 20.142 11.369 6.152 22.267 12.598 30.763 21.985zm-64.206-42.338c-12.771-10.372-22.004-23.915-30.5-38.317-8.466-14.353-16.24-29.641-26.007-43.211l-1.623 1.169c9.697 13.473 17.353 28.556 25.908 43.058 8.525 14.453 17.905 28.249 30.961 38.854zm-56.507-81.528c-23.32-32.4-57.761-54.655-91.183-76.02l-1.077 1.686c33.477 21.4 67.577 43.463 90.637 75.503zm-91.183-76.019c-22.161-14.177-46.108-29.043-72.802-29.477l-.033 2c26.037.423 49.512 14.93 71.757 29.162zm-72.8-29.477c-36.491-.667-70.735 30.172-73.886 66.547l1.993.173c3.06-35.328 36.418-65.369 71.856-64.72zM81.553 72.892c-2.672 30.8 13.672 57.685 30.636 84.266 17.042 26.704 34.708 53.105 35.529 83.282l1.999-.055c-.839-30.845-18.896-57.75-35.842-84.303-17.024-26.675-32.934-52.996-30.33-83.017zm66.165 167.546c.407 15.661-3.846 31.396-7.038 47.2-3.176 15.725-5.281 31.468-.295 46.768l1.902-.619c-4.813-14.767-2.816-30.058.353-45.753 3.154-15.618 7.492-31.691 7.078-47.648zm-7.333 93.968c5.918 18.159 19.829 30.43 36.811 38.87 16.974 8.436 37.107 13.094 55.66 15.997l.309-1.976c-18.478-2.891-38.376-7.51-55.079-15.812-16.694-8.297-30.105-20.224-35.799-37.698zm92.471 54.867c28.179 4.412 56.482 7.839 84.763 11.263l.241-1.986c-28.288-3.424-56.556-6.847-84.695-11.253zm84.763 11.263c22.869 2.77 47.199 5.473 68.941-3.244l-.744-1.856c-21.189 8.495-44.999 5.895-67.956 3.114zm68.943-3.245c13.46-5.43 19.848-12.658 23.931-21.312 2.023-4.287 3.474-8.91 4.95-13.762 1.481-4.869 2.992-9.984 5.143-15.354l-1.856-.744c-2.19 5.466-3.726 10.67-5.201 15.516-1.479 4.863-2.892 9.353-4.845 13.49-3.866 8.196-9.873 15.068-22.87 20.312zm34.024-50.427c3.756-9.345 10.643-16.353 17.513-23.915 6.829-7.516 13.583-15.533 16.612-26.75l-1.931-.521c-2.894 10.715-9.346 18.425-16.161 25.927-6.774 7.456-13.968 14.758-17.889 24.513z" fill="#356d82" mask="url(#a)"/></svg>