<svg width="185" height="326" fill="none" xmlns="http://www.w3.org/2000/svg"><path d="M450.885 95.823c-10.299-.362-20.272-.357-25.935 4.955-3.835 1.708-11.107 1.191-10.808 5.59-2.883 1.225-6.7 1.854-7.591 4.292l-6.309 2.415c-4.621 1.778-6.448 4.794-8.362 7.759-1.419.956-2.805 1.917-4.223 2.873-5.113.853-6.244 3.379-6.473 6.295-1.31 1.084-2.652 2.163-3.96 3.229-6.952 5.885-14.207 11.646-15.244 19.601-8.246 3.192-8.378 9.591-13.145 14.171-1.557 3.337-3.146 6.668-4.703 10.004-4.835-4.679-1.105-8.459-.2-12.528-1.469-3.383 1.95-6.463-1.501-9.957-.019-1.048-.069-2.103-.087-3.151 3.686-5.073.452-11.025.696-16.544 2.526-5.853 2.042-12.043-.315-18.418 1.957-5.343-.962-11.059-1.587-16.594.692-2.985.334-5.87-4.504-8.402.118-.513.007-1.008-.389-1.533l.404-1.84-5.131-8.123c.747-3.508-2.354-5.621-8.242-6.696-4.11-1.475-8.189-2.945-12.3-4.42-16.737-2.977-31.663-1.909-45.304 2.09-8.64 1.878-17.075 3.883-21.171 9.088 3.396-.625 6.764-1.274 10.16-1.9-3.396.626-6.764 1.275-10.16 1.9-1.185.335-2.339.674-3.528 1.026-9.161.36-8.694 6.457-14.829 8.607-2.986.29-5.974.599-5.539 3.02a3.821 3.821 0 0 0-1.047 1.44c-6.029 1.122-8.547 4.224-11.45 7.116-.776.586-1.583 1.166-2.358 1.753-9.249 7.263-18.402 14.542-23.148 23.639-.734.336-1.069.794-1.007 1.391-8.387 5.389-12.942 12.188-16.281 19.428-4.608 3.249-7.5 7.041-7.915 11.65-5.384 4.221-8.309 9.181-9.242 14.768l-6.315-.833c-.059-.616-.149-1.236-.21-1.834-.627-9.975 1.746-19.743-3.536-30.055 2.156-1.512 2.009-3.335.508-5.365 2.413-10.202.411-20.829-1.466-31.435.578-3.077 1.314-6.129-1.336-9.397l.11-1.816c4.371-7.82-.888-16.532-1.443-24.808.191-1.528.412-3.05.6-4.56l-3.656-.72c.061-.559.125-1.135.155-1.699-.701-1.988-1.436-3.964-2.137-5.953-2.381-.434-4.758-.885-6.4-1.49 1.642.605 3.988 1.051 6.4 1.49.701 1.989 1.436 3.965 2.137 5.953-.061.559-.094 1.14-.155 1.699l3.656.72c.743-6.774 1.838-13.527-2.265-20.652-.041-2.465-.115-4.918-.156-7.383-.504-3.937-1.138-7.877-1.514-11.811-.422-4.236-2.192-8.329-10.287-10.102-7.941-1.73-12.29.737-14.548 4.599-3.683.412-3.235 2.56-4.237 4.118-4.713 3.488-10.147 6.654-11.968 11.377-6.424 5.423-10.96 11.528-14.648 17.958-1.767 2.659-3.5 5.305-5.266 7.964.395.727.758 1.448 1.154 2.174 1.566.28 3.13.578 4.729.863-1.567-.28-3.134-.56-4.73-.863-.363-.721-.758-1.447-1.122-2.169-4.177 2.019-4.026 5.365-5.195 8.307-5.738 3.446-5.523 8.729-8.253 13.098-4.256 4.813-8.17 9.7-7.983 15.731-6.867 3.826-3.094 10.804-8.823 14.967l-1.995 6.73c-5.286 3.246-3.553 8.141-4.708 12.351a128.51 128.51 0 0 1-1.604 3.035c2.334.518 4.671 1.018 7.005 1.536l-7.005-1.536-.006.036c-4.32 2.875-3.761 6.876-3.982 10.71l-1.04 3.331c-.04 1.791-.116 3.595-.157 5.386.041-1.791.116-3.595.157-5.386-4.605 4.002-4.45 9.073-4.856 14.014l-.492 1.789c-.58.381-.824.872-.787 1.429-5.293 3.868-4.121 9.219-5.157 14.074-.289 2.502-4.689 4.116-2.361 7.183-.071.428.051.852.334 1.285-4.9 4.026-4.478 9.233-4.866 14.269-.522 2.353-1.01 4.694-1.532 7.047-.807.195-.995.549-.567 1.079-4.115 3.001-3.754 7.025-4.112 10.909-.367 1.425-1.214 2.825-1.038 4.286.288 2.139-3.335 5.094 2.594 6.304 6.213 1.257 6.846-1.958 6.991-4.76 3.706-2.867 5.81-6.002 1.733-10.187.478-.158.714-.413.77-.752l2.507-1.673c3.84-1.542 3.019-4.358 3.495-6.829-.847-.141-1.695-.283-2.546-.406-.263.414-.463.84-.572 1.298.11-.458.31-.884.57-1.281.847.142 1.695.283 2.545.407.149-6.69 6.38-12.31 3.96-19.466 5.564-4.337 5.91-9.893 5.978-15.515.713-.211.935-.578.601-1.092 4.97-2.125 2.785-6.049 3.975-9.116.195-.591.42-1.159.615-1.75 3.751-9.135 9.306-17.858 10.792-27.536 3.068-4.846 7.188-9.424 6.602-15.191l-.032-.005c4.593-1.417 3.194-4.439 3.4-7.028-1.061-.214-2.123-.428-3.182-.66l3.182.66c5.91-5.436 5.995-12.522 9.965-18.52 6.23-2.133 2.428-7.006 5.076-10.105 5.016-5.695 9.42-11.583 9.346-18.677.684-.235.972-.609.865-1.122 12.395-6.206 15.22-16.174 22.62-24.35l.189.03c1.349-.93 2.673-1.902 4.026-2.85 1.164-2.338 2.332-4.693 3.497-7.03.46-.437.766-.918.918-1.443 2.938.38 5.384 1.192 6.661 3.02-.869 2.882-1.771 5.777-2.64 8.66.093.602.284 1.202.599 1.824 2.611 6.398-.756 12.46 3.069 18.933.114 3.762-3.804 7.126.44 11.283.977 3.814-1.428 7.394 1.494 11.35.038 1.125.073 2.269.112 3.394-1.5 4.153-2.749 8.348.837 12.965a134.484 134.484 0 0 1-.342 3.594c-2.429 4.695.479 9.896.782 14.845-.7 2.452-2.005 4.858.994 7.578-2.318 15.245-.222 30.915 2.066 46.598-.244.492-.064.962.533 1.447-2.913 3.532.906 7.527 1.503 11.296l-.418 3.471c-2.274 2.41.158 4.467 3.339 6.484.807 1.933-.89 3.979 2.415 5.834 1.736 2.748 3.108 5.546 9.735 5.092 5.192-.362 9.092-1.106 10.738-4.391 3.285-6.533 5.534-13.24 6.73-20.214 6.255-.736 4.371-3.949 4.086-6.694a5.838 5.838 0 0 0 .852-1.619l34.151-47.415c2.037-1.568 4.102-3.114 6.139-4.682 7.714-1.941 7.536-6.87 9.545-10.974l2.939-1.179c7.346-3.214 13.628-7.01 18.107-11.803-2.193.184-4.383.351-6.576.535-1.011 2.382-3.534 3.575-7.129 4.04 3.595-.465 6.121-1.676 7.129-4.04 2.193-.184 4.383-.35 6.576-.535l-.211-.09c3.293-.973 7.058-1.684 6.581-4.626l4.796-2.63 13.014-7.204c14.081-2.383 26.666-7.016 43.251-5.642l3.16.399c2.674.611 5.344 1.24 8.018 1.852 1.956 2.198 2.462 4.777 6.477 6.438l1.384 1.956 6.153 30.419c-.61 4.816-1.916 9.551.778 14.679l-.211 3.58c-1.077 2.59-2.601 5.143.977 8.07a2.518 2.518 0 0 0-.65.993c-3.346 2.065-4.674 4.412-.508 7.492-2.905 1.937-4.269 4.113-1.143 7.039-2.203 2.182-.267 4.89-.29 7.345l-.781 3.521c-1.531 9.175-5.241 18.059-2.165 27.857-.76.111-1.002.401-.729.887-3.264 2.739-3.152 5.932-.804 9.461-.35 4.804-3.59 9.327.892 14.57-.638 2.664 1.294 4.234 6.081 4.171 5.433-.066 10.554-1.357 10.422-4.627-.328-8.861 7.216-15.969 7.532-24.631-1.014-.885-2.06-1.775-3.074-2.66-.267-1.108-.565-2.222-.832-3.331.267 1.109.565 2.223.832 3.331 1.014.885 2.06 1.775 3.074 2.66 4.929-9.617 9.89-19.228 14.819-28.845 3.893-1.479 3.179-4.35 4.061-6.735 4.507-1.871 4.614-5.413 7.09-8.063 3.242-1.826-.48-5.823 4.541-7.095 6.589-3.707 10.086-8.61 12.459-13.938 1.111-1.044 2.221-2.088 3.328-3.114.568-.309.862-.718.786-1.226 4.489-.407 5.115-2.999 7.389-4.638 2.829-.317 3.611-1.526 3.305-3.173 3.827-1.655 9.141-2.364 10.486-5.589.025-.729.081-1.454.106-2.184-.056.725-.081 1.455-.106 2.184 7.097-1.531 10.13-5.391 14.045-8.737 11.668-1.851 22.289-5.545 36.284-3.154-.81-1.915-1.588-3.825-2.395-5.758l-13.523-.77.052-.12Zm-421.89 58.344c3.858-1.264 5.557-3.127 6.332-5.255-.772 2.11-2.47 3.973-6.332 5.255ZM90.89 44.947c2.727-2.61 5.844-5.043 9.143-7.41-.33-.917-.829-1.606-1.486-2.119a4.373 4.373 0 0 1 1.486 2.12c-3.3 2.366-6.416 4.8-9.143 7.409Zm11.3-21.104c.202.915.536 1.815 1.431 2.643-.863-.823-1.229-1.728-1.431-2.643Zm29.008 82.011c.581 1.161.801 2.354 1.216 3.542-.415-1.188-.638-2.363-1.216-3.542Zm-.611-.983c1.009-.437 1.987-.879 2.996-1.316-1.528-2.64-3.025-5.275-4.553-7.915.405-.3.864-.535 1.342-.694a4.32 4.32 0 0 0-1.342.694c1.528 2.64 3.025 5.275 4.553 7.915-1.009.437-1.987.879-2.996 1.316Zm7.874 89.528-2.718-.343 2.718.343Zm5.55-13.531c-.001-.569.025-1.115.055-1.679-2.044-.708-4.924-.858-6.526-1.896 1.602 1.038 4.482 1.188 6.529 1.878-.03.564-.028 1.133-.055 1.679l-.003.018Zm8.29 6.796c.262-.415.428-.827.494-1.22-.069.41-.266.818-.494 1.22Zm.503-1.274c.035-.214.068-.41.041-.635.03.207.026.426-.041.635Zm22.314-37.208c-1.303.847-2.181 2.241-3.658 2.967 1.477-.726 2.355-2.12 3.627-2.972.774-4.641 4.578-8.098 8.659-11.471-4.081 3.373-7.916 6.825-8.659 11.471l.031.005Zm18.464-20.329c.314-.719-.032-1.547-1.819-2.634.113-.678.315-1.305.787-1.814-.441.514-.674 1.136-.787 1.814 1.787 1.087 2.133 1.915 1.819 2.634Zm40.386-40.1c2.874-1.557 3.959-4.385 7.12-5.729-3.161 1.344-4.246 4.172-7.12 5.729Zm95.545 26.956s-.109.073-.255.177l.255-.177Zm7.36 29.189c-.094.755-.188 1.51-.178 2.227-.041-.722.087-1.49.178-2.227Zm1.507 27.516c-4.725 1.431-5.159 2.68-3.576 3.825-1.58-1.163-1.149-2.394 3.576-3.825Zm-8.114 29.469c.953-.685 1.451-1.538.985-2.808 1.346-.913 2.352-2.103 3.815-2.941-1.432.844-2.437 2.034-3.815 2.941.466 1.27-.035 2.141-.985 2.808Zm12.876-15.464a11.081 11.081 0 0 1-.829-.45c.234.149.53.308.829.45Zm1.714-8.723-.31-.272.31.272Z" fill="#B5DCD9"/></svg>