<svg width="102" height="331" fill="none" xmlns="http://www.w3.org/2000/svg"><path d="M20.59 10.52c0-2.081-.604-4.115-1.735-5.845a10.346 10.346 0 0 0-4.62-3.874A10.091 10.091 0 0 0 8.287.202a10.23 10.23 0 0 0-5.272 2.88A10.593 10.593 0 0 0 .198 8.466a10.733 10.733 0 0 0 .586 6.078 10.474 10.474 0 0 0 3.791 4.721 10.14 10.14 0 0 0 5.72 1.773c1.352.002 2.692-.27 3.942-.798a10.269 10.269 0 0 0 3.341-2.28 10.525 10.525 0 0 0 2.232-3.414c.516-1.277.782-2.646.78-4.027Zm60.672 0c0-2.081-.604-4.115-1.735-5.845a10.346 10.346 0 0 0-4.62-3.874 10.091 10.091 0 0 0-5.948-.599 10.23 10.23 0 0 0-5.272 2.88 10.592 10.592 0 0 0-2.817 5.385 10.732 10.732 0 0 0 .586 6.078 10.474 10.474 0 0 0 3.791 4.721 10.139 10.139 0 0 0 5.72 1.773c1.352.002 2.692-.27 3.942-.798a10.27 10.27 0 0 0 3.341-2.28 10.525 10.525 0 0 0 2.232-3.414c.517-1.277.782-2.646.78-4.027ZM20.59 72.514c0-2.08-.604-4.114-1.735-5.844a10.346 10.346 0 0 0-4.62-3.875 10.091 10.091 0 0 0-5.948-.598 10.23 10.23 0 0 0-5.272 2.879 10.593 10.593 0 0 0-2.817 5.386 10.733 10.733 0 0 0 .586 6.078 10.474 10.474 0 0 0 3.791 4.721 10.14 10.14 0 0 0 5.72 1.773c1.352.001 2.692-.27 3.942-.797a10.272 10.272 0 0 0 3.341-2.28 10.526 10.526 0 0 0 2.232-3.415c.516-1.277.782-2.646.78-4.028Zm60.672 0c0-2.08-.604-4.114-1.735-5.844a10.346 10.346 0 0 0-4.62-3.875 10.091 10.091 0 0 0-5.948-.598 10.23 10.23 0 0 0-5.272 2.879 10.592 10.592 0 0 0-2.817 5.386 10.732 10.732 0 0 0 .586 6.078 10.475 10.475 0 0 0 3.791 4.721 10.139 10.139 0 0 0 5.72 1.773c1.352.001 2.692-.27 3.942-.797a10.273 10.273 0 0 0 3.341-2.28 10.526 10.526 0 0 0 2.232-3.415c.517-1.277.782-2.646.78-4.028ZM20.59 134.508c0-2.08-.604-4.114-1.735-5.844a10.343 10.343 0 0 0-4.62-3.874 10.084 10.084 0 0 0-5.948-.599 10.231 10.231 0 0 0-5.272 2.879 10.594 10.594 0 0 0-2.817 5.386 10.733 10.733 0 0 0 .586 6.078 10.475 10.475 0 0 0 3.791 4.721 10.14 10.14 0 0 0 5.72 1.773c1.352.002 2.692-.27 3.942-.798a10.256 10.256 0 0 0 3.341-2.28 10.522 10.522 0 0 0 2.232-3.414c.516-1.277.782-2.646.78-4.028Zm60.672 0c0-2.08-.604-4.114-1.735-5.844a10.343 10.343 0 0 0-4.62-3.874 10.084 10.084 0 0 0-5.948-.599 10.231 10.231 0 0 0-5.272 2.879 10.593 10.593 0 0 0-2.817 5.386 10.732 10.732 0 0 0 .586 6.078 10.476 10.476 0 0 0 3.791 4.721 10.138 10.138 0 0 0 5.72 1.773c1.352.002 2.692-.27 3.942-.798a10.257 10.257 0 0 0 3.341-2.28 10.522 10.522 0 0 0 2.232-3.414c.517-1.277.782-2.646.78-4.028ZM20.59 196.504a10.68 10.68 0 0 0-1.735-5.844 10.346 10.346 0 0 0-4.62-3.875 10.092 10.092 0 0 0-5.948-.599 10.231 10.231 0 0 0-5.272 2.879 10.597 10.597 0 0 0-2.817 5.387 10.73 10.73 0 0 0 .586 6.077 10.472 10.472 0 0 0 3.791 4.722 10.146 10.146 0 0 0 5.72 1.772 10.087 10.087 0 0 0 3.942-.797 10.272 10.272 0 0 0 3.341-2.28 10.526 10.526 0 0 0 2.232-3.415 10.71 10.71 0 0 0 .78-4.027Zm60.672 0a10.68 10.68 0 0 0-1.735-5.844 10.346 10.346 0 0 0-4.62-3.875 10.092 10.092 0 0 0-5.948-.599 10.231 10.231 0 0 0-5.272 2.879 10.596 10.596 0 0 0-2.817 5.387 10.73 10.73 0 0 0 .586 6.077 10.473 10.473 0 0 0 3.791 4.722 10.145 10.145 0 0 0 5.72 1.772 10.087 10.087 0 0 0 3.942-.797 10.273 10.273 0 0 0 3.341-2.28 10.526 10.526 0 0 0 2.232-3.415c.517-1.277.782-2.645.78-4.027ZM20.59 258.498a10.68 10.68 0 0 0-1.73-5.848 10.344 10.344 0 0 0-4.617-3.88 10.096 10.096 0 0 0-5.949-.604 10.238 10.238 0 0 0-5.274 2.876 10.593 10.593 0 0 0-2.821 5.386 10.734 10.734 0 0 0 .583 6.08 10.471 10.471 0 0 0 3.792 4.723 10.136 10.136 0 0 0 5.721 1.774c2.728 0 5.345-1.107 7.275-3.077a10.635 10.635 0 0 0 3.02-7.43Zm60.672 0c.002-2.081-.6-4.116-1.729-5.848a10.343 10.343 0 0 0-4.618-3.88 10.097 10.097 0 0 0-5.949-.604 10.237 10.237 0 0 0-5.274 2.876 10.593 10.593 0 0 0-2.821 5.386 10.734 10.734 0 0 0 .583 6.08 10.471 10.471 0 0 0 3.792 4.723 10.135 10.135 0 0 0 5.72 1.774c2.73 0 5.346-1.107 7.276-3.077a10.636 10.636 0 0 0 3.02-7.43ZM20.59 320.493a10.68 10.68 0 0 0-1.73-5.848 10.348 10.348 0 0 0-4.617-3.879 10.08 10.08 0 0 0-5.949-.604 10.223 10.223 0 0 0-5.274 2.876 10.593 10.593 0 0 0-2.821 5.386 10.73 10.73 0 0 0 .583 6.079 10.471 10.471 0 0 0 3.792 4.723 10.136 10.136 0 0 0 9.66.978 10.263 10.263 0 0 0 3.34-2.277 10.522 10.522 0 0 0 2.232-3.41 10.7 10.7 0 0 0 .784-4.024Zm60.672 0c.002-2.081-.6-4.116-1.729-5.848a10.347 10.347 0 0 0-4.618-3.879 10.08 10.08 0 0 0-5.949-.604 10.223 10.223 0 0 0-5.274 2.876 10.593 10.593 0 0 0-2.821 5.386 10.73 10.73 0 0 0 .583 6.079 10.471 10.471 0 0 0 3.792 4.723 10.135 10.135 0 0 0 9.66.978 10.264 10.264 0 0 0 3.34-2.277 10.522 10.522 0 0 0 2.232-3.41 10.7 10.7 0 0 0 .784-4.024Z" fill="#ED634D"/></svg>