<svg width="100" height="100" fill="none" xmlns="http://www.w3.org/2000/svg"><path d="M91.81 100H8.166A8.167 8.167 0 0 1 0 91.833V8.167A8.167 8.167 0 0 1 8.167 0h83.666A8.167 8.167 0 0 1 100 8.167v83.666A8.167 8.167 0 0 1 91.833 100" fill="#96DBD3"/><path d="M64.877 83.049c-.34.003-.677-.04-1.005-.131a4.019 4.019 0 0 1-2.451-1.829L50.84 63.276a20.627 20.627 0 1 1 9.856-5.446l10.4 17.513c.536.907.695 1.99.441 3.014a4.018 4.018 0 0 1-1.828 2.451l-2.813 1.668a4.02 4.02 0 0 1-2.01.563l-.01.01ZM51.424 60.774a1.165 1.165 0 0 1 1.005.563L63.48 79.894a1.628 1.628 0 0 0 1.005.773 1.648 1.648 0 0 0 1.266-.19l2.813-1.668a1.667 1.667 0 0 0 .583-2.291L58.266 58.212a1.166 1.166 0 0 1 .221-1.457 18.307 18.307 0 1 0-7.364 4.02 1.08 1.08 0 0 1 .311 0" fill="#003350"/><path d="M46.801 52.284a15.845 15.845 0 0 1-13.684-7.897 1.156 1.156 0 0 1 0-1.165 15.803 15.803 0 0 1 27.369 0 1.155 1.155 0 0 1 0 1.165A15.864 15.864 0 0 1 46.8 52.284Zm-11.323-8.48a13.483 13.483 0 0 0 22.646 0 13.474 13.474 0 0 0-22.646 0Z" fill="#003350"/><path d="M46.8 48.889a5.134 5.134 0 1 1 5.125-5.125 5.124 5.124 0 0 1-5.124 5.124Zm0-7.938a2.813 2.813 0 1 0 2.804 2.813 2.823 2.823 0 0 0-2.803-2.813Z" fill="#003350"/><path d="M64.876 83.049c-.34.003-.678-.04-1.005-.131a3.928 3.928 0 0 1-2.452-1.829L50.84 63.276c-3.547.852-7.259.74-10.75-.322a1.155 1.155 0 0 1-.548-1.843 1.158 1.158 0 0 1 1.232-.367 18.305 18.305 0 0 0 10.318.14 1.155 1.155 0 0 1 1.306.523L63.45 79.974a1.627 1.627 0 0 0 1.005.764c.429.108.884.043 1.266-.181l2.813-1.678a1.667 1.667 0 0 0 .582-2.29l-10.88-18.306a1.166 1.166 0 0 1 .22-1.457 18.376 18.376 0 0 0 1.407-25.751 1.155 1.155 0 0 1 .932-1.923 1.156 1.156 0 0 1 .796.386 21.26 21.26 0 0 1 2.321 3.175 20.687 20.687 0 0 1-3.205 25.178l10.399 17.512a4.02 4.02 0 0 1-1.387 5.475l-2.813 1.668a4.018 4.018 0 0 1-2.01.563m-27.71-21.451a1.256 1.256 0 0 1-.533-.13 20.408 20.408 0 0 1-5.636-4.32 1.157 1.157 0 0 1 .446-1.876 1.157 1.157 0 0 1 1.252.308 18.43 18.43 0 0 0 5.023 3.828 1.165 1.165 0 0 1-.532 2.19m-7.756-7.324a1.125 1.125 0 0 1-1.004-.573A20.606 20.606 0 0 1 35.639 25.5a19.848 19.848 0 0 1 2.854-1.417 1.16 1.16 0 0 1 .864 2.15 18.336 18.336 0 0 0-8.922 26.374 1.156 1.156 0 0 1-1.005 1.748m26.404-26.877c-.2 0-.397-.053-.573-.15a18.346 18.346 0 0 0-11.895-2.191 1.175 1.175 0 0 1-1.327-1.005 1.146 1.146 0 0 1 1.005-1.316c4.618-.713 9.34.154 13.403 2.462a1.166 1.166 0 0 1-.573 2.17" fill="#003350"/><path d="M39.136 83.973c-.123 0-.245-.02-.362-.06a1.147 1.147 0 0 1-.673-.573L16.128 40.61a1.156 1.156 0 0 1 .502-1.558l3.637-1.869a1.156 1.156 0 1 1 1.065 2.01l-2.612 1.336L39.628 81.2l14.066-7.233a1.155 1.155 0 1 1 1.065 2.01l-15.07 7.766a1.193 1.193 0 0 1-.523.13m31.357-16.046a1.175 1.175 0 0 1-1.004-.623 1.166 1.166 0 0 1 .502-1.567l10.258-5.295-20.908-40.67-3.667 1.878a1.155 1.155 0 1 1-1.005-2.01l4.692-2.41a1.125 1.125 0 0 1 .884-.07 1.144 1.144 0 0 1 .674.572l21.973 42.73a1.156 1.156 0 0 1-.503 1.557l-11.343 5.828a1.07 1.07 0 0 1-.522.13" fill="#003350"/></svg>