<svg width="110" height="127" fill="none" xmlns="http://www.w3.org/2000/svg"><path d="M28.046 118.489c6.771 1.311 13.542 2.425 20.402 3.508 2.422.368 1.886 4.619-.578 4.407a215.374 215.374 0 0 1-36.368-6.498c-2.732-.033-5.32-.083-8.003-.298a2.307 2.307 0 0 1-1.412-.496 2.37 2.37 0 0 1-.824-1.266 2.45 2.45 0 0 1 1.073-2.691l.593-.373a2.43 2.43 0 0 1 .985-1.22L34.62 94.669c2.626-1.62 4.965 2.534 2.357 4.187L11.65 114.85l1.15.309c57.704-.632 104.251-52.98 90.627-113.278a1.086 1.086 0 0 1 .11-.804 1.06 1.06 0 0 1 .635-.494 1.02 1.02 0 0 1 .788.104c.237.14.409.37.478.641 16.084 56.843-24.77 108.086-77.392 117.16Z" fill="#ED634D" stroke="#ED634D"/></svg>