<svg width="91" height="331" fill="none" xmlns="http://www.w3.org/2000/svg"><path d="M30.276 10.52c0-2.081-.604-4.115-1.735-5.845A10.347 10.347 0 0 0 23.92.801a10.09 10.09 0 0 0-5.949-.599 10.229 10.229 0 0 0-5.27 2.88 10.593 10.593 0 0 0-2.818 5.385 10.733 10.733 0 0 0 .585 6.078 10.474 10.474 0 0 0 3.792 4.721 10.14 10.14 0 0 0 5.72 1.773c2.73 0 5.349-1.108 7.28-3.081a10.637 10.637 0 0 0 3.015-7.438Zm60.659 0a10.68 10.68 0 0 0-1.736-5.846A10.347 10.347 0 0 0 84.577.8a10.09 10.09 0 0 0-5.95-.597 10.23 10.23 0 0 0-5.271 2.882 10.593 10.593 0 0 0-2.814 5.39 10.732 10.732 0 0 0 .59 6.079 10.474 10.474 0 0 0 3.797 4.718 10.14 10.14 0 0 0 5.724 1.767c1.35 0 2.69-.272 3.938-.8a10.272 10.272 0 0 0 3.337-2.282 10.524 10.524 0 0 0 2.228-3.413c.516-1.276.78-2.644.78-4.024ZM30.276 72.514c0-2.08-.604-4.114-1.735-5.844a10.347 10.347 0 0 0-4.62-3.875 10.09 10.09 0 0 0-5.949-.598 10.229 10.229 0 0 0-5.27 2.879 10.593 10.593 0 0 0-2.818 5.386 10.733 10.733 0 0 0 .585 6.078 10.474 10.474 0 0 0 3.792 4.72 10.104 10.104 0 0 0 9.66.972 10.283 10.283 0 0 0 3.34-2.28 10.54 10.54 0 0 0 2.231-3.412 10.71 10.71 0 0 0 .784-4.026Zm60.659 0c0-2.08-.604-4.115-1.736-5.845a10.347 10.347 0 0 0-4.622-3.875 10.09 10.09 0 0 0-5.95-.596 10.23 10.23 0 0 0-5.271 2.882 10.592 10.592 0 0 0-2.814 5.39 10.733 10.733 0 0 0 .59 6.079 10.474 10.474 0 0 0 3.797 4.718 10.14 10.14 0 0 0 5.724 1.767c1.35 0 2.69-.272 3.938-.801a10.272 10.272 0 0 0 3.337-2.281 10.525 10.525 0 0 0 2.228-3.413 10.74 10.74 0 0 0 .78-4.025Zm-60.659 61.994c0-2.08-.604-4.114-1.735-5.844a10.344 10.344 0 0 0-4.62-3.874 10.084 10.084 0 0 0-5.949-.599 10.231 10.231 0 0 0-5.27 2.879 10.594 10.594 0 0 0-2.818 5.386 10.733 10.733 0 0 0 .585 6.078 10.476 10.476 0 0 0 3.792 4.721 10.139 10.139 0 0 0 5.72 1.773 10.19 10.19 0 0 0 7.28-3.081 10.639 10.639 0 0 0 3.015-7.439Zm60.659 0a10.68 10.68 0 0 0-1.736-5.845 10.344 10.344 0 0 0-4.622-3.875 10.088 10.088 0 0 0-5.95-.596 10.233 10.233 0 0 0-5.271 2.882 10.594 10.594 0 0 0-2.814 5.39 10.733 10.733 0 0 0 .59 6.079 10.47 10.47 0 0 0 3.797 4.718 10.147 10.147 0 0 0 5.724 1.767c1.35 0 2.69-.272 3.938-.801a10.274 10.274 0 0 0 3.337-2.281 10.527 10.527 0 0 0 2.228-3.413 10.74 10.74 0 0 0 .78-4.025Zm-60.659 61.996c0-2.081-.604-4.115-1.735-5.845a10.35 10.35 0 0 0-4.62-3.874 10.092 10.092 0 0 0-5.949-.599 10.231 10.231 0 0 0-5.27 2.879 10.594 10.594 0 0 0-2.818 5.386 10.733 10.733 0 0 0 .585 6.078 10.465 10.465 0 0 0 3.792 4.721 10.139 10.139 0 0 0 5.72 1.773c2.73 0 5.349-1.108 7.28-3.081a10.636 10.636 0 0 0 3.015-7.438Zm60.659 0a10.68 10.68 0 0 0-1.736-5.846 10.349 10.349 0 0 0-4.622-3.874 10.088 10.088 0 0 0-5.95-.597 10.227 10.227 0 0 0-5.271 2.883 10.59 10.59 0 0 0-2.814 5.389 10.732 10.732 0 0 0 .59 6.079 10.478 10.478 0 0 0 3.797 4.719 10.138 10.138 0 0 0 9.662.965 10.274 10.274 0 0 0 3.337-2.281 10.516 10.516 0 0 0 2.228-3.413c.516-1.276.78-2.644.78-4.024Zm-60.659 61.994c.002-2.081-.6-4.116-1.73-5.848a10.35 10.35 0 0 0-4.617-3.88 10.097 10.097 0 0 0-5.95-.604 10.237 10.237 0 0 0-5.273 2.876 10.594 10.594 0 0 0-2.822 5.386 10.734 10.734 0 0 0 .584 6.08 10.472 10.472 0 0 0 3.792 4.723 10.136 10.136 0 0 0 5.721 1.774 10.2 10.2 0 0 0 7.271-3.08 10.651 10.651 0 0 0 3.024-7.427Zm60.659 0a10.68 10.68 0 0 0-1.73-5.849 10.348 10.348 0 0 0-4.62-3.88 10.093 10.093 0 0 0-5.95-.602 10.233 10.233 0 0 0-5.275 2.88 10.59 10.59 0 0 0-2.818 5.389 10.734 10.734 0 0 0 .59 6.081 10.476 10.476 0 0 0 3.796 4.72 10.143 10.143 0 0 0 5.724 1.768 10.19 10.19 0 0 0 7.268-3.081 10.637 10.637 0 0 0 3.015-7.426Zm-60.659 61.995c.002-2.081-.6-4.116-1.73-5.848a10.356 10.356 0 0 0-4.617-3.88 10.089 10.089 0 0 0-5.95-.603 10.222 10.222 0 0 0-5.273 2.876 10.59 10.59 0 0 0-2.822 5.386 10.73 10.73 0 0 0 .584 6.079 10.472 10.472 0 0 0 3.792 4.723A10.136 10.136 0 0 0 19.981 331c2.728 0 5.345-1.107 7.275-3.077a10.635 10.635 0 0 0 3.02-7.43Zm60.659 0a10.68 10.68 0 0 0-1.73-5.849 10.348 10.348 0 0 0-4.62-3.88 10.093 10.093 0 0 0-5.95-.602 10.233 10.233 0 0 0-5.275 2.88 10.595 10.595 0 0 0-2.818 5.389 10.734 10.734 0 0 0 .59 6.081 10.47 10.47 0 0 0 3.796 4.72A10.135 10.135 0 0 0 80.652 331a10.17 10.17 0 0 0 7.271-3.078 10.622 10.622 0 0 0 3.012-7.429Z" fill="#ED634D"/></svg>