<svg width="202" height="195" fill="none" xmlns="http://www.w3.org/2000/svg"><path d="M67.145 161.742c0-6.395-1.968-12.646-5.657-17.964-3.69-5.317-8.933-9.462-15.067-11.909a34.77 34.77 0 0 0-19.398-1.839c-6.513 1.247-12.495 4.327-17.19 8.849-4.695 4.522-7.892 10.283-9.188 16.555a31.23 31.23 0 0 0 1.91 18.682c2.542 5.908 6.844 10.958 12.366 14.511 5.52 3.553 12.011 5.449 18.651 5.449 8.904 0 17.444-3.407 23.74-9.47 6.296-6.064 9.833-14.288 9.833-22.864Z" fill="#356D82"/><path d="M134.282 161.742c0-6.395-1.968-12.646-5.657-17.964-3.689-5.317-8.933-9.462-15.067-11.909a34.768 34.768 0 0 0-19.397-1.839c-6.513 1.247-12.496 4.327-17.19 8.849-4.696 4.522-7.893 10.283-9.189 16.555a31.23 31.23 0 0 0 1.91 18.682c2.542 5.908 6.845 10.958 12.366 14.511 5.521 3.553 12.012 5.449 18.652 5.449a34.689 34.689 0 0 0 12.848-2.459 33.702 33.702 0 0 0 10.894-7.009 32.294 32.294 0 0 0 7.277-10.491 31.288 31.288 0 0 0 2.553-12.375Z" fill="#356D82"/><path d="M201.42 161.742c0-6.395-1.969-12.646-5.658-17.964-3.689-5.317-8.932-9.462-15.067-11.909a34.767 34.767 0 0 0-19.397-1.839c-6.513 1.247-12.495 4.327-17.19 8.849-4.695 4.522-7.892 10.283-9.188 16.555a31.233 31.233 0 0 0 1.911 18.682c2.541 5.908 6.844 10.958 12.365 14.511 5.521 3.553 12.012 5.449 18.652 5.449a34.689 34.689 0 0 0 12.848-2.459 33.698 33.698 0 0 0 10.893-7.009 32.282 32.282 0 0 0 7.278-10.491 31.306 31.306 0 0 0 2.553-12.375ZM67.145 97.075c0-6.395-1.968-12.647-5.657-17.964-3.69-5.317-8.933-9.462-15.067-11.91a34.77 34.77 0 0 0-19.398-1.84c-6.513 1.248-12.495 4.328-17.19 8.85C5.138 78.733 1.941 84.495.645 90.767a31.226 31.226 0 0 0 1.91 18.681c2.542 5.909 6.844 10.958 12.366 14.511 5.52 3.553 12.011 5.449 18.651 5.449 8.904 0 17.444-3.406 23.74-9.47 6.296-6.064 9.833-14.288 9.833-22.863Z" fill="#356D82"/><path d="M134.282 97.075c0-6.395-1.968-12.647-5.657-17.964-3.689-5.317-8.933-9.462-15.067-11.91a34.77 34.77 0 0 0-19.397-1.84c-6.513 1.248-12.496 4.328-17.19 8.85-4.696 4.522-7.893 10.284-9.189 16.556a31.226 31.226 0 0 0 1.91 18.681c2.542 5.909 6.845 10.958 12.366 14.511 5.521 3.553 12.012 5.449 18.652 5.449a34.669 34.669 0 0 0 12.848-2.459 33.669 33.669 0 0 0 10.894-7.009 32.284 32.284 0 0 0 7.277-10.491 31.287 31.287 0 0 0 2.553-12.374Z" fill="#356D82"/><path d="M201.42 97.075c0-6.395-1.969-12.647-5.658-17.964-3.689-5.317-8.932-9.462-15.067-11.91a34.768 34.768 0 0 0-19.397-1.84c-6.513 1.248-12.495 4.328-17.19 8.85-4.695 4.522-7.892 10.284-9.188 16.556a31.229 31.229 0 0 0 1.911 18.681c2.541 5.909 6.844 10.958 12.365 14.511 5.521 3.553 12.012 5.449 18.652 5.449a34.669 34.669 0 0 0 12.848-2.459 33.665 33.665 0 0 0 10.893-7.009 32.271 32.271 0 0 0 7.278-10.491 31.305 31.305 0 0 0 2.553-12.374ZM67.145 32.405c0-6.395-1.969-12.646-5.658-17.964-3.689-5.317-8.932-9.46-15.066-11.908A34.77 34.77 0 0 0 27.023.693C20.51 1.94 14.528 5.02 9.833 9.542 5.138 14.064 1.94 19.825.645 26.097a31.229 31.229 0 0 0 1.91 18.682C5.098 50.688 9.4 55.739 14.92 59.291c5.521 3.553 12.012 5.449 18.652 5.449 8.904-.002 17.442-3.41 23.737-9.473 6.296-6.064 9.834-14.287 9.836-22.862Z" fill="#356D82"/><path d="M134.282 32.406c0-6.395-1.968-12.646-5.657-17.963-3.689-5.318-8.933-9.462-15.067-11.91A34.77 34.77 0 0 0 94.161.694c-6.513 1.248-12.496 4.328-17.19 8.85-4.696 4.522-7.893 10.283-9.189 16.555a31.23 31.23 0 0 0 1.91 18.683c2.542 5.908 6.845 10.958 12.366 14.51 5.521 3.553 12.012 5.45 18.652 5.45 8.904 0 17.443-3.407 23.74-9.471 6.296-6.064 9.832-14.288 9.832-22.864Z" fill="#356D82"/><path d="M201.42 32.406c0-6.395-1.969-12.646-5.658-17.963-3.689-5.318-8.932-9.462-15.067-11.91a34.768 34.768 0 0 0-19.397-1.84c-6.513 1.248-12.495 4.328-17.19 8.85-4.695 4.522-7.892 10.283-9.188 16.555a31.232 31.232 0 0 0 1.911 18.683c2.541 5.908 6.844 10.958 12.365 14.51 5.521 3.553 12.012 5.45 18.652 5.45 8.904 0 17.443-3.407 23.739-9.471 6.296-6.064 9.833-14.288 9.833-22.864Z" fill="#356D82"/></svg>