<svg width="238" height="229" fill="none" xmlns="http://www.w3.org/2000/svg"><path d="M15.146 7.397a7.039 7.039 0 0 0-1.276-4.03A7.513 7.513 0 0 0 10.471.695 7.883 7.883 0 0 0 6.096.282a7.677 7.677 0 0 0-3.878 1.986A7.165 7.165 0 0 0 .146 5.982a6.97 6.97 0 0 0 .43 4.191 7.33 7.33 0 0 0 2.79 3.256 7.812 7.812 0 0 0 4.207 1.222 7.852 7.852 0 0 0 2.9-.55 7.593 7.593 0 0 0 2.458-1.572 7.232 7.232 0 0 0 1.641-2.355 6.98 6.98 0 0 0 .574-2.777Zm44.571 0a7.039 7.039 0 0 0-1.276-4.03 7.513 7.513 0 0 0-3.4-2.672 7.883 7.883 0 0 0-4.375-.413 7.682 7.682 0 0 0-3.877 1.986 7.165 7.165 0 0 0-2.073 3.714 6.97 6.97 0 0 0 .431 4.191 7.33 7.33 0 0 0 2.79 3.256 7.812 7.812 0 0 0 4.207 1.222 7.852 7.852 0 0 0 2.9-.55 7.594 7.594 0 0 0 2.458-1.572 7.233 7.233 0 0 0 1.64-2.355c.381-.88.576-1.824.575-2.777Zm44.571 0a7.04 7.04 0 0 0-1.276-4.03A7.512 7.512 0 0 0 99.613.695a7.884 7.884 0 0 0-4.376-.413 7.682 7.682 0 0 0-3.877 1.986 7.165 7.165 0 0 0-2.073 3.714 6.97 6.97 0 0 0 .431 4.191 7.331 7.331 0 0 0 2.79 3.256 7.812 7.812 0 0 0 4.207 1.222 7.852 7.852 0 0 0 2.9-.55 7.6 7.6 0 0 0 2.458-1.572 7.235 7.235 0 0 0 1.641-2.355c.38-.88.575-1.824.574-2.777Zm44.571 0a7.033 7.033 0 0 0-1.277-4.03 7.514 7.514 0 0 0-3.398-2.672 7.885 7.885 0 0 0-4.376-.413 7.687 7.687 0 0 0-3.878 1.986 7.164 7.164 0 0 0-2.072 3.714 6.974 6.974 0 0 0 .431 4.191 7.332 7.332 0 0 0 2.789 3.256 7.814 7.814 0 0 0 4.207 1.222 7.853 7.853 0 0 0 2.9-.55 7.591 7.591 0 0 0 2.458-1.572 7.223 7.223 0 0 0 1.642-2.355c.38-.88.575-1.824.574-2.777Zm44.57 0a7.04 7.04 0 0 0-1.276-4.03 7.512 7.512 0 0 0-3.399-2.672 7.881 7.881 0 0 0-4.375-.413 7.677 7.677 0 0 0-3.878 1.986 7.172 7.172 0 0 0-2.073 3.714 6.974 6.974 0 0 0 .431 4.191 7.328 7.328 0 0 0 2.79 3.256 7.81 7.81 0 0 0 4.207 1.222c2.009 0 3.935-.764 5.355-2.124 1.42-1.361 2.218-3.206 2.218-5.13Zm44.571 0a7.043 7.043 0 0 0-1.277-4.031 7.514 7.514 0 0 0-3.401-2.672 7.88 7.88 0 0 0-4.376-.411 7.681 7.681 0 0 0-3.878 1.988 7.161 7.161 0 0 0-2.07 3.716 6.976 6.976 0 0 0 .434 4.192 7.334 7.334 0 0 0 2.794 3.254 7.808 7.808 0 0 0 4.209 1.218 7.85 7.85 0 0 0 2.897-.552 7.582 7.582 0 0 0 2.455-1.573 7.216 7.216 0 0 0 1.639-2.354c.38-.88.575-1.823.574-2.775ZM15.146 50.149a7.04 7.04 0 0 0-1.276-4.03 7.513 7.513 0 0 0-3.399-2.672 7.882 7.882 0 0 0-4.375-.413c-1.47.28-2.819.97-3.878 1.985a7.165 7.165 0 0 0-2.072 3.714 6.97 6.97 0 0 0 .43 4.192 7.331 7.331 0 0 0 2.79 3.255 7.812 7.812 0 0 0 4.207 1.223 7.855 7.855 0 0 0 2.9-.55 7.595 7.595 0 0 0 2.458-1.572 7.233 7.233 0 0 0 1.641-2.355 6.98 6.98 0 0 0 .574-2.777Zm44.571 0a7.04 7.04 0 0 0-1.276-4.03 7.513 7.513 0 0 0-3.4-2.672 7.883 7.883 0 0 0-4.375-.413 7.682 7.682 0 0 0-3.877 1.985 7.165 7.165 0 0 0-2.073 3.714 6.97 6.97 0 0 0 .431 4.192 7.33 7.33 0 0 0 2.79 3.255 7.81 7.81 0 0 0 4.207 1.223 7.856 7.856 0 0 0 2.9-.55 7.596 7.596 0 0 0 2.458-1.572 7.234 7.234 0 0 0 1.64-2.355c.381-.88.576-1.824.575-2.777Zm44.571 0a7.04 7.04 0 0 0-1.276-4.03 7.512 7.512 0 0 0-3.399-2.672 7.883 7.883 0 0 0-4.376-.413 7.682 7.682 0 0 0-3.877 1.985 7.165 7.165 0 0 0-2.073 3.714 6.97 6.97 0 0 0 .431 4.192 7.331 7.331 0 0 0 2.79 3.255 7.812 7.812 0 0 0 4.207 1.223 7.856 7.856 0 0 0 2.9-.55 7.6 7.6 0 0 0 2.458-1.572 7.236 7.236 0 0 0 1.641-2.355c.38-.88.575-1.824.574-2.777Zm44.571 0a7.033 7.033 0 0 0-1.277-4.03 7.514 7.514 0 0 0-3.398-2.672 7.884 7.884 0 0 0-4.376-.413 7.687 7.687 0 0 0-3.878 1.985 7.163 7.163 0 0 0-2.072 3.714 6.974 6.974 0 0 0 .431 4.192 7.332 7.332 0 0 0 2.789 3.255 7.813 7.813 0 0 0 4.207 1.223 7.856 7.856 0 0 0 2.9-.55 7.593 7.593 0 0 0 2.458-1.572 7.224 7.224 0 0 0 1.642-2.355c.38-.88.575-1.824.574-2.777Zm44.57 0a7.04 7.04 0 0 0-1.276-4.03 7.512 7.512 0 0 0-3.399-2.672 7.88 7.88 0 0 0-4.375-.413c-1.47.28-2.819.97-3.878 1.985a7.172 7.172 0 0 0-2.073 3.714 6.974 6.974 0 0 0 .431 4.192 7.328 7.328 0 0 0 2.79 3.255 7.808 7.808 0 0 0 4.207 1.223c.995 0 1.979-.188 2.898-.552a7.6 7.6 0 0 0 2.457-1.573 7.255 7.255 0 0 0 1.642-2.353c.38-.88.576-1.824.576-2.776Zm44.571 0a7.043 7.043 0 0 0-1.277-4.032 7.514 7.514 0 0 0-3.401-2.671 7.88 7.88 0 0 0-4.376-.412 7.681 7.681 0 0 0-3.878 1.988 7.16 7.16 0 0 0-2.07 3.717 6.977 6.977 0 0 0 .434 4.192 7.334 7.334 0 0 0 2.794 3.254 7.808 7.808 0 0 0 4.209 1.218c.995 0 1.979-.188 2.897-.553a7.58 7.58 0 0 0 2.455-1.572 7.215 7.215 0 0 0 1.639-2.354c.38-.88.575-1.823.574-2.775ZM15.146 92.9a7.04 7.04 0 0 0-1.276-4.031 7.513 7.513 0 0 0-3.399-2.672 7.882 7.882 0 0 0-4.375-.413 7.677 7.677 0 0 0-3.878 1.986 7.165 7.165 0 0 0-2.072 3.714 6.97 6.97 0 0 0 .43 4.191 7.331 7.331 0 0 0 2.79 3.256 7.812 7.812 0 0 0 4.207 1.222 7.837 7.837 0 0 0 2.9-.55 7.596 7.596 0 0 0 2.458-1.572 7.234 7.234 0 0 0 1.641-2.354c.38-.881.576-1.825.574-2.778Zm44.571 0a7.04 7.04 0 0 0-1.276-4.031 7.513 7.513 0 0 0-3.4-2.672 7.883 7.883 0 0 0-4.375-.413 7.682 7.682 0 0 0-3.877 1.986 7.165 7.165 0 0 0-2.073 3.714 6.971 6.971 0 0 0 .431 4.191 7.33 7.33 0 0 0 2.79 3.256 7.811 7.811 0 0 0 4.207 1.222 7.837 7.837 0 0 0 2.9-.55 7.597 7.597 0 0 0 2.458-1.572 7.235 7.235 0 0 0 1.64-2.354 6.975 6.975 0 0 0 .575-2.778Zm44.571 0a7.04 7.04 0 0 0-1.276-4.031 7.512 7.512 0 0 0-3.399-2.672 7.883 7.883 0 0 0-4.376-.413 7.682 7.682 0 0 0-3.877 1.986 7.165 7.165 0 0 0-2.073 3.714 6.97 6.97 0 0 0 .431 4.191 7.331 7.331 0 0 0 2.79 3.256 7.812 7.812 0 0 0 4.207 1.222 7.838 7.838 0 0 0 2.9-.55 7.603 7.603 0 0 0 2.458-1.572 7.237 7.237 0 0 0 1.641-2.354c.38-.881.575-1.825.574-2.778Zm44.571 0a7.034 7.034 0 0 0-1.277-4.031 7.514 7.514 0 0 0-3.398-2.672 7.884 7.884 0 0 0-4.376-.413 7.687 7.687 0 0 0-3.878 1.986 7.163 7.163 0 0 0-2.072 3.714 6.974 6.974 0 0 0 .431 4.191 7.332 7.332 0 0 0 2.789 3.256 7.814 7.814 0 0 0 4.207 1.222 7.838 7.838 0 0 0 2.9-.55 7.594 7.594 0 0 0 2.458-1.572 7.225 7.225 0 0 0 1.642-2.354c.38-.881.575-1.825.574-2.778Zm44.57 0a7.04 7.04 0 0 0-1.276-4.031 7.511 7.511 0 0 0-3.399-2.672 7.88 7.88 0 0 0-4.375-.413 7.677 7.677 0 0 0-3.878 1.986 7.172 7.172 0 0 0-2.073 3.714 6.974 6.974 0 0 0 .431 4.191 7.328 7.328 0 0 0 2.79 3.256 7.809 7.809 0 0 0 4.207 1.222c2.009 0 3.935-.764 5.355-2.124 1.42-1.36 2.218-3.206 2.218-5.13Zm44.571 0a7.043 7.043 0 0 0-1.277-4.032 7.513 7.513 0 0 0-3.401-2.672 7.88 7.88 0 0 0-4.376-.411 7.681 7.681 0 0 0-3.878 1.988 7.161 7.161 0 0 0-2.07 3.716 6.976 6.976 0 0 0 .434 4.192 7.334 7.334 0 0 0 2.794 3.254 7.806 7.806 0 0 0 4.209 1.218 7.85 7.85 0 0 0 2.897-.552 7.58 7.58 0 0 0 2.455-1.573 7.215 7.215 0 0 0 1.639-2.353c.38-.88.575-1.824.574-2.776ZM15.146 135.651a7.038 7.038 0 0 0-1.276-4.03 7.513 7.513 0 0 0-3.399-2.672 7.883 7.883 0 0 0-4.375-.413 7.68 7.68 0 0 0-3.878 1.986 7.163 7.163 0 0 0-2.072 3.714 6.97 6.97 0 0 0 .43 4.191 7.329 7.329 0 0 0 2.79 3.256 7.813 7.813 0 0 0 4.207 1.222 7.859 7.859 0 0 0 2.9-.549 7.608 7.608 0 0 0 2.458-1.573 7.232 7.232 0 0 0 1.641-2.355c.38-.88.576-1.824.574-2.777Zm44.571 0a7.038 7.038 0 0 0-1.276-4.03 7.513 7.513 0 0 0-3.4-2.672 7.883 7.883 0 0 0-4.375-.413 7.68 7.68 0 0 0-3.877 1.986 7.163 7.163 0 0 0-2.073 3.714 6.97 6.97 0 0 0 .431 4.191 7.329 7.329 0 0 0 2.79 3.256 7.812 7.812 0 0 0 4.207 1.222 7.86 7.86 0 0 0 2.9-.549 7.61 7.61 0 0 0 2.458-1.573 7.234 7.234 0 0 0 1.64-2.355c.381-.88.576-1.824.575-2.777Zm44.571 0a7.038 7.038 0 0 0-1.276-4.03 7.512 7.512 0 0 0-3.399-2.672 7.883 7.883 0 0 0-4.376-.413 7.68 7.68 0 0 0-3.877 1.986 7.163 7.163 0 0 0-2.073 3.714 6.97 6.97 0 0 0 .431 4.191 7.33 7.33 0 0 0 2.79 3.256 7.813 7.813 0 0 0 4.207 1.222 7.86 7.86 0 0 0 2.9-.549 7.614 7.614 0 0 0 2.458-1.573 7.236 7.236 0 0 0 1.641-2.355c.38-.88.575-1.824.574-2.777Zm44.571 0a7.032 7.032 0 0 0-1.277-4.03 7.514 7.514 0 0 0-3.398-2.672 7.884 7.884 0 0 0-4.376-.413 7.685 7.685 0 0 0-3.878 1.986 7.161 7.161 0 0 0-2.072 3.714 6.973 6.973 0 0 0 .431 4.191 7.33 7.33 0 0 0 2.789 3.256 7.815 7.815 0 0 0 4.207 1.222 7.86 7.86 0 0 0 2.9-.549 7.606 7.606 0 0 0 2.458-1.573 7.223 7.223 0 0 0 1.642-2.355c.38-.88.575-1.824.574-2.777Zm44.57 0a7.038 7.038 0 0 0-1.276-4.03 7.511 7.511 0 0 0-3.399-2.672 7.88 7.88 0 0 0-4.375-.413 7.677 7.677 0 0 0-3.878 1.986 7.17 7.17 0 0 0-2.073 3.714 6.973 6.973 0 0 0 .431 4.191 7.326 7.326 0 0 0 2.79 3.256 7.81 7.81 0 0 0 4.207 1.222c2.009 0 3.935-.764 5.355-2.124 1.42-1.361 2.218-3.206 2.218-5.13Zm44.571 0a7.043 7.043 0 0 0-1.277-4.031 7.517 7.517 0 0 0-3.401-2.672 7.875 7.875 0 0 0-4.376-.411 7.672 7.672 0 0 0-3.878 1.988 7.157 7.157 0 0 0-2.07 3.716 6.976 6.976 0 0 0 .434 4.192 7.33 7.33 0 0 0 2.794 3.254 7.806 7.806 0 0 0 4.209 1.218c.995 0 1.979-.187 2.897-.552a7.582 7.582 0 0 0 2.455-1.573 7.217 7.217 0 0 0 1.639-2.353c.38-.881.575-1.824.574-2.776ZM15.146 178.402a7.04 7.04 0 0 0-1.272-4.033 7.508 7.508 0 0 0-3.397-2.675 7.885 7.885 0 0 0-4.376-.417 7.678 7.678 0 0 0-3.88 1.984 7.162 7.162 0 0 0-2.075 3.714 6.97 6.97 0 0 0 .43 4.192 7.328 7.328 0 0 0 2.789 3.257 7.808 7.808 0 0 0 4.208 1.223c2.007 0 3.932-.762 5.352-2.121 1.42-1.359 2.219-3.202 2.221-5.124Zm44.571 0a7.04 7.04 0 0 0-1.272-4.033 7.508 7.508 0 0 0-3.397-2.675 7.886 7.886 0 0 0-4.376-.417 7.677 7.677 0 0 0-3.88 1.984 7.162 7.162 0 0 0-2.075 3.714 6.969 6.969 0 0 0 .43 4.192 7.329 7.329 0 0 0 2.788 3.257 7.807 7.807 0 0 0 4.209 1.223c2.007 0 3.931-.762 5.352-2.121 1.42-1.359 2.218-3.202 2.22-5.124Zm44.571 0a7.039 7.039 0 0 0-1.272-4.033 7.508 7.508 0 0 0-3.397-2.675 7.886 7.886 0 0 0-4.376-.417 7.678 7.678 0 0 0-3.88 1.984 7.162 7.162 0 0 0-2.075 3.714 6.97 6.97 0 0 0 .43 4.192 7.328 7.328 0 0 0 2.789 3.257 7.808 7.808 0 0 0 4.208 1.223c2.007 0 3.932-.762 5.352-2.121 1.42-1.359 2.219-3.202 2.221-5.124Zm44.571 0a7.046 7.046 0 0 0-1.272-4.033 7.512 7.512 0 0 0-3.397-2.675 7.886 7.886 0 0 0-4.376-.417 7.676 7.676 0 0 0-3.88 1.984 7.164 7.164 0 0 0-2.076 3.714 6.976 6.976 0 0 0 .43 4.192 7.326 7.326 0 0 0 2.789 3.257 7.808 7.808 0 0 0 4.208 1.223c2.007 0 3.932-.762 5.352-2.121 1.42-1.359 2.219-3.202 2.222-5.124Zm44.57 0a7.039 7.039 0 0 0-1.272-4.033 7.51 7.51 0 0 0-3.396-2.675 7.888 7.888 0 0 0-4.377-.417 7.676 7.676 0 0 0-3.88 1.984 7.162 7.162 0 0 0-2.075 3.714 6.968 6.968 0 0 0 .429 4.192 7.328 7.328 0 0 0 2.79 3.257 7.805 7.805 0 0 0 4.208 1.223c2.006-.002 3.93-.766 5.349-2.124 1.42-1.358 2.219-3.199 2.224-5.121Zm44.571 0a7.04 7.04 0 0 0-1.273-4.033 7.505 7.505 0 0 0-3.398-2.676 7.882 7.882 0 0 0-4.378-.415c-1.47.28-2.82.971-3.88 1.986a7.169 7.169 0 0 0-2.073 3.716 6.972 6.972 0 0 0 .433 4.193 7.341 7.341 0 0 0 2.794 3.256 7.81 7.81 0 0 0 4.21 1.218c2.006-.002 3.928-.766 5.346-2.124 1.418-1.359 2.216-3.2 2.219-5.121ZM15.146 221.154a7.04 7.04 0 0 0-1.272-4.033 7.508 7.508 0 0 0-3.397-2.675 7.876 7.876 0 0 0-4.376-.417c-1.47.279-2.82.97-3.88 1.984a7.162 7.162 0 0 0-2.075 3.714 6.97 6.97 0 0 0 .43 4.192 7.328 7.328 0 0 0 2.789 3.257 7.808 7.808 0 0 0 4.208 1.223 7.83 7.83 0 0 0 2.898-.549 7.585 7.585 0 0 0 2.457-1.57 7.24 7.24 0 0 0 1.642-2.351c.38-.88.576-1.823.576-2.775Zm44.571 0a7.04 7.04 0 0 0-1.272-4.033 7.508 7.508 0 0 0-3.397-2.675 7.877 7.877 0 0 0-4.376-.417c-1.47.279-2.82.97-3.88 1.984a7.162 7.162 0 0 0-2.075 3.714 6.969 6.969 0 0 0 .43 4.192 7.329 7.329 0 0 0 2.788 3.257 7.807 7.807 0 0 0 4.209 1.223 7.829 7.829 0 0 0 2.897-.549 7.582 7.582 0 0 0 2.457-1.57 7.238 7.238 0 0 0 1.642-2.351c.38-.88.577-1.823.577-2.775Zm44.571 0a7.039 7.039 0 0 0-1.272-4.033 7.508 7.508 0 0 0-3.397-2.675 7.877 7.877 0 0 0-4.376-.417c-1.47.279-2.82.97-3.88 1.984a7.162 7.162 0 0 0-2.075 3.714 6.97 6.97 0 0 0 .43 4.192 7.328 7.328 0 0 0 2.789 3.257 7.808 7.808 0 0 0 4.208 1.223 7.828 7.828 0 0 0 2.897-.549 7.594 7.594 0 0 0 2.458-1.57 7.23 7.23 0 0 0 1.641-2.351 6.98 6.98 0 0 0 .577-2.775Zm44.571 0a7.046 7.046 0 0 0-1.272-4.033 7.512 7.512 0 0 0-3.397-2.675 7.877 7.877 0 0 0-4.376-.417c-1.47.279-2.82.97-3.88 1.984a7.164 7.164 0 0 0-2.076 3.714 6.976 6.976 0 0 0 .43 4.192 7.326 7.326 0 0 0 2.789 3.257 7.808 7.808 0 0 0 4.208 1.223 7.83 7.83 0 0 0 2.898-.549 7.577 7.577 0 0 0 2.457-1.57 7.248 7.248 0 0 0 1.642-2.351 6.98 6.98 0 0 0 .577-2.775Zm44.57 0a7.039 7.039 0 0 0-1.272-4.033 7.51 7.51 0 0 0-3.396-2.675 7.88 7.88 0 0 0-4.377-.417c-1.47.279-2.82.97-3.88 1.984a7.162 7.162 0 0 0-2.075 3.714 6.968 6.968 0 0 0 .429 4.192 7.328 7.328 0 0 0 2.79 3.257 7.805 7.805 0 0 0 4.208 1.223c2.007 0 3.932-.763 5.352-2.121 1.42-1.359 2.219-3.202 2.221-5.124Zm44.571 0a7.043 7.043 0 0 0-1.273-4.034 7.51 7.51 0 0 0-3.398-2.675 7.882 7.882 0 0 0-4.378-.415c-1.47.28-2.82.971-3.88 1.986a7.169 7.169 0 0 0-2.073 3.716 6.972 6.972 0 0 0 .433 4.193 7.341 7.341 0 0 0 2.794 3.256 7.81 7.81 0 0 0 4.21 1.218c2.007 0 3.93-.763 5.349-2.122s2.216-3.201 2.216-5.123Z" fill="#B5DCD9"/></svg>