<svg width="232" height="144" fill="none" xmlns="http://www.w3.org/2000/svg"><path d="m229.124 104.476.849-.8a2.28 2.28 0 0 0 .721-1.749 2.229 2.229 0 0 0-.239-.929 2.143 2.143 0 0 0-.606-.726c.179-.498.242-1.039.304-1.58.028-.246.057-.492.097-.733.321-1.814-1.606-2.622-3-2.151l-26.887 9.691c-2.334.815-1.088 4.575 1.227 4.096a6183.66 6183.66 0 0 0 19.973-3.96c-18.207 16.319-37.02 29.719-61.93 32.727-27.384 3.042-54.915-1.512-79.726-13.188C33.29 103.214 1.792 56.035 2.772 2.261c.013-1.027-1.52-1.162-1.572-.097-2.727 53.455 27.945 101.866 73.69 124.964 25.225 12.692 53.433 18.114 81.679 15.697 27.234-2.451 47.508-16.086 67.408-33.771l-3.103 17.512c-.489 2.837 3.794 3.128 4.296.323l3.953-22.413Z" fill="#ED634D" stroke="#ED634D"/></svg>