<svg width="330" height="522" fill="none" xmlns="http://www.w3.org/2000/svg"><path d="M465.231 258.342c-9.141 4.758-18.146 9.044-25.543 6.687-4.197.108-10.539 3.703-12.162-.396-3.13.135-6.845 1.209-8.699-.608l-6.734.535c-4.937.382-7.884-1.554-10.888-3.406-1.691-.253-3.356-.524-5.048-.777-4.982 1.43-7.091-.364-8.551-2.897-1.65-.415-3.325-.811-4.964-1.211-8.808-2.321-17.836-4.4-22.195-11.134-8.817.666-11.69-5.053-17.963-7.137-2.842-2.342-5.709-4.665-8.55-7.006-2.351 6.303 2.642 8.111 5.209 11.395.13 3.685 4.542 4.995 2.93 9.633.434.955.843 1.928 1.277 2.883 5.511 2.992 5.152 9.757 7.747 14.634 4.798 4.197 7.025 9.993 7.641 16.761 4.065 3.981 3.89 10.397 5.707 15.662 1.909 2.397 2.828 5.156-.45 9.523.327.412.44.907.308 1.551l1.157 1.488-1.137 9.539c2.183 2.846.294 6.088-4.558 9.591-3.076 3.1-6.126 6.182-9.202 9.283-13.827 9.888-27.761 15.347-41.795 17.607-8.608 2.022-17.084 3.842-23.022.905 3.335-.896 6.654-1.76 9.989-2.656-3.335.896-6.654 1.76-9.989 2.656-1.214.208-2.401.398-3.626.592-8.424 3.616-10.626-2.088-17.089-1.388-2.82 1.022-5.651 2.029-6.3-.343a3.818 3.818 0 0 1-1.564-.85c-5.925 1.582-9.534-.135-13.398-1.496-.953-.195-1.931-.373-2.883-.568-11.474-2.577-22.869-5.209-31.067-11.379-.807.013-1.306-.257-1.507-.823-9.89-1.255-16.927-5.432-23.056-10.532-5.558-.949-9.801-3.128-12.158-7.111-6.676-1.493-11.452-4.712-14.697-9.354l-5.342 3.47c.211.581.397 1.179.598 1.745 3.727 9.274 10.072 17.071 9.741 28.653 2.597.436 3.248 2.145 2.767 4.624 6.568 8.171 9.333 18.625 12.203 29.007 1.846 2.529 3.823 4.967 2.837 9.057l.88 1.592c7.311 5.179 6.313 15.306 9.373 23.015.829 1.297 1.684 2.576 2.503 3.858l-2.99 2.223c.295.478.601.971.87 1.467.223 2.097.41 4.197.633 6.293-1.962 1.416-3.914 2.847-5.136 4.099 1.222-1.252 3.148-2.665 5.136-4.099-.223-2.096-.41-4.196-.633-6.293-.295-.478-.575-.989-.87-1.467l2.99-2.223c3.586 5.796 7.48 11.42 6.841 19.617 1.025 2.243 2.013 4.489 3.037 6.732 1.238 3.771 2.362 7.6 3.716 11.313 1.44 4.006 1.604 8.462-4.94 13.546-6.424 4.977-11.411 4.622-15.111 2.108-3.503 1.212-4.022-.92-5.597-1.894-5.755-1.121-12.023-1.641-15.699-5.121-8.132-2.131-14.854-5.69-20.949-9.908-2.739-1.639-5.442-3.283-8.181-4.923.044-.826.062-1.633.106-2.459 1.294-.927 2.578-1.868 3.898-2.814a442.993 442.993 0 0 0-3.898 2.814c-.018.808-.062 1.633-.08 2.441-4.639-.024-5.942-3.11-8.263-5.263-6.663-.641-8.742-5.503-13.087-8.273-5.912-2.512-11.549-5.24-13.974-10.765-7.846-.499-7.442-8.421-14.405-9.714l-4.697-5.217c-6.168-.656-6.71-5.819-9.564-9.123-.91-.69-1.818-1.379-2.754-2.05 1.885-1.472 3.779-2.929 5.663-4.401l-5.662 4.401-.021-.03c-5.137-.736-6.355-4.588-8.204-7.954l-2.372-2.56c-.807-1.599-1.651-3.195-2.459-4.794.808 1.599 1.652 3.195 2.46 4.794-5.88-1.63-7.922-6.274-10.414-10.56l-1.215-1.404c-.687-.094-1.118-.432-1.325-.95-6.442-1.215-7.686-6.55-10.71-10.486-1.337-2.135-6.004-1.698-5.222-5.469-.25-.356-.32-.791-.252-1.303-6.155-1.526-8.015-6.409-10.532-10.787-1.484-1.9-2.931-3.803-4.414-5.702-.813.171-1.135-.068-.977-.731-5.006-.938-6.412-4.725-8.406-8.078-.945-1.128-2.311-2.027-2.781-3.421-.66-2.056-5.203-3.164-.37-6.808 5.066-3.807 7.022-1.178 8.358 1.289 4.579.994 7.827 2.918 5.947 8.45.5-.062.823.065 1.02.347l2.982.432c4.13-.259 4.6 2.636 6.094 4.661-.705.492-1.409.985-2.124 1.462a4.258 4.258 0 0 1-1.075-.926l-6.112 1.424 6.112-1.424c.296.367.66.665 1.065.911.704-.492 1.409-.985 2.123-1.462 3.013 5.975 11.056 8.367 11.95 15.868 6.89 1.521 9.593 6.387 12.072 11.433.735-.116 1.093.119 1.014.727 5.4-.221 5.116 4.262 7.51 6.519.43.449.877.866 1.308 1.315 7.316 6.632 16.084 12.116 21.59 20.213 4.854 3.054 10.543 5.414 12.496 10.872l-.027.018c4.756-.697 4.793 2.633 6.094 4.882-.867.65-1.733 1.299-2.589 1.964l2.589-1.964c7.673 2.363 10.799 8.723 16.963 12.429 6.542-.754 5.207 5.28 8.93 6.939 6.979 2.981 13.488 6.402 16.473 12.838.719-.083 1.14.13 1.264.64 13.859.269 20.699 8.051 30.897 12.248l.157-.109c1.618.259 3.231.567 4.86.841 2.058 1.609 4.125 3.233 6.182 4.842.604.196 1.087.498 1.45.907 2.489-1.608 4.348-3.393 4.713-5.592-2.024-2.228-4.084-4.453-6.108-6.681a6.006 6.006 0 0 1-.245-1.905c-.396-6.9-6.044-10.922-5.376-18.411-1.516-3.445-6.5-4.796-4.458-10.375-.759-3.864-4.47-6.061-3.535-10.888-.45-1.033-.91-2.08-1.36-3.112-3.141-3.104-6.073-6.353-4.822-12.064a137.679 137.679 0 0 0-1.855-3.097c-4.214-3.193-3.826-9.139-5.682-13.737-1.687-1.912-3.9-3.522-2.363-7.269-8.653-12.763-13.503-27.811-18.186-42.952-.431-.339-.472-.841-.142-1.536-4.149-1.934-2.42-7.184-3.503-10.843l-1.871-2.954c-3.089-1.196-1.779-4.1.225-7.289-.104-2.092-2.516-3.21-.331-6.306.385-3.227.42-6.343 6.597-8.786 4.843-1.906 8.683-2.913 11.582-.656 5.777 4.484 10.693 9.571 14.773 15.352 5.963-2.027 5.645 1.684 6.569 4.284.556.295 1.045.66 1.465 1.095l51.23 28.107c2.514.539 5.043 1.045 7.556 1.584 7.799-1.566 9.759 2.959 13.338 5.8l3.162-.201c8.014-.259 15.317.464 21.422 2.864-2.059.777-4.107 1.569-6.166 2.346-1.937-1.715-4.728-1.707-8.173-.579 3.445-1.128 6.246-1.121 8.173.579 2.059-.777 4.107-1.569 6.166-2.346l-.151.172c3.391-.538 7.096-1.517 7.931 1.344l5.461.311 14.847.903c13.737-3.908 27.091-5.141 41.471-13.517l2.681-1.72c2.15-1.702 4.29-3.419 6.44-5.122.821-2.826.167-5.372 3.077-8.599l.407-2.36-7.534-30.108c-2.622-4.084-5.84-7.796-5.614-13.585l-1.73-3.14c-2.088-1.875-4.561-3.524-2.591-7.706a2.51 2.51 0 0 1-1.014-.616c-3.909-.425-6.117-1.972-3.683-6.545-3.455-.499-5.622-1.876-4.059-5.862-2.929-1.022-2.346-4.299-3.423-6.506l-2.22-2.842c-5.33-7.623-12.502-14.047-13.94-24.215-.735.227-1.078.07-1.04-.487-4.126-1.068-5.398-3.998-4.797-8.194-2.383-4.186-7.254-6.875-5.464-13.536-1.723-2.131-.654-4.379 3.695-6.382 4.932-2.278 10.111-3.316 11.398-.307 3.517 8.14 13.385 11.31 17.398 18.993-.535 1.235-1.096 2.488-1.631 3.723.236 1.116.447 2.25.683 3.365-.236-1.115-.447-2.249-.683-3.365.535-1.235 1.096-2.488 1.631-3.723 8.587 6.56 17.201 13.102 25.788 19.662 4.151-.341 4.741 2.559 6.564 4.332 4.874-.25 6.494 2.9 9.87 4.228 3.711.253 2.072 5.463 7.151 4.451 7.543.511 12.809 3.432 17.245 7.22a614.1 614.1 0 0 0 4.343 1.379c.646.035 1.088.278 1.237.769 4.228-1.564 5.909.507 8.667 1.007 2.689-.931 3.916-.176 4.348 1.442 4.166-.152 9.268-1.799 11.87.533.337.648.699 1.278 1.036 1.926-.363-.63-.699-1.278-1.036-1.926 7.066-1.672 11.464.508 16.438 1.845 11.329-3.351 22.507-4.586 34.111-12.766.093 2.077.212 4.136.315 6.228l-11.875 6.515.098.085ZM59.289 387.206c4.026-.518 6.361.433 7.976 2.02-1.604-1.573-3.94-2.523-7.976-2.02Zm102.867 71.961c3.584 1.182 7.445 2.037 11.442 2.754.096.97-.057 1.806-.429 2.552.372-.746.551-1.6.429-2.552-3.997-.717-7.858-1.572-11.442-2.754Zm19.281 14.187c-.211-.912-.297-1.868.155-3-.425 1.114-.366 2.088-.155 3Zm-9.102-86.512c.025-1.298-.29-2.469-.426-3.72.136 1.251.44 2.408.426 3.72Zm-.128 1.15c1.098-.04 2.171-.061 3.27-.1-.244 3.04-.461 6.063-.704 9.104.494.096 1.01.111 1.51.048a4.309 4.309 0 0 1-1.51-.048c.243-3.041.46-6.064.704-9.104-1.099.039-2.172.06-3.27.1Zm-31.415-84.204-2.306 1.479 2.306-1.479Zm10.832 9.826c.244.515.502.996.772 1.492-1.541 1.519-4.075 2.894-5.075 4.52 1-1.626 3.534-3.001 5.085-4.505-.269-.496-.512-1.011-.771-1.492l-.011-.015Zm4.559-9.701c.416.261.743.562.971.889-.239-.342-.592-.625-.971-.889Zm1.002.933c.124.178.238.341.311.556a1.41 1.41 0 0 0-.311-.556Zm36.153 23.986c-1.541-.203-2.933-1.084-4.579-1.104 1.646.02 3.038.901 4.553 1.123 2.696 3.856 7.617 5.339 12.753 6.629-5.136-1.29-10.083-2.755-12.753-6.629l.026-.019Zm25.415 10.407c.592.513.636 1.41-.509 3.16.394.564.846 1.043 1.49 1.299-.618-.274-1.096-.735-1.49-1.299 1.145-1.75 1.101-2.647.509-3.16Zm53.71 18.821c3.264.168 5.461 2.254 8.892 2.107-3.431.147-5.628-1.939-8.892-2.107Zm74.65-65.445s-.13-.019-.307-.05l.307.05Zm-5.917-29.516c-.409-.641-.818-1.282-1.119-1.933.274.669.72 1.307 1.119 1.933Zm-10.479-25.486c-4.881.741-5.81-.199-4.873-1.915-.927 1.73-.008 2.656 4.873 1.915Zm-20.004-23.111c1.155.208 1.971.764 2.097 2.111 1.609.245 3.028.886 4.71 1.013-1.656-.145-3.075-.786-4.71-1.013-.126-1.347-.952-1.918-2.097-2.111Zm18.277 8.42c-.209.256-.381.509-.554.762a7.82 7.82 0 0 1 .554-.762Zm5.301 7.136-.163.378.163-.378Z" fill="#B5DCD9"/></svg>