<svg width="126" height="184" fill="none" xmlns="http://www.w3.org/2000/svg"><path d="M63.338 152.775c0-6.032-1.857-11.929-5.337-16.945-3.48-5.016-8.426-8.926-14.212-11.234a32.793 32.793 0 0 0-18.298-1.735c-6.144 1.177-11.786 4.082-16.215 8.347-4.43 4.266-7.446 9.7-8.668 15.617a29.456 29.456 0 0 0 1.803 17.622c2.397 5.573 6.455 10.337 11.663 13.688 5.208 3.352 11.331 5.141 17.595 5.141 8.399 0 16.454-3.214 22.393-8.934 5.94-5.72 9.276-13.478 9.276-21.567Z" fill="#356D82"/><path d="M126.668 152.775c0-6.032-1.857-11.929-5.337-16.945-3.479-5.016-8.425-8.926-14.212-11.234a32.792 32.792 0 0 0-18.297-1.735c-6.144 1.177-11.787 4.082-16.216 8.347-4.429 4.266-7.445 9.7-8.667 15.617a29.455 29.455 0 0 0 1.802 17.622c2.397 5.573 6.457 10.337 11.665 13.688 5.207 3.352 11.33 5.141 17.594 5.141a32.726 32.726 0 0 0 12.12-2.32 31.777 31.777 0 0 0 10.275-6.612 30.435 30.435 0 0 0 6.865-9.896 29.516 29.516 0 0 0 2.408-11.673Zm-63.33-60.994c0-6.032-1.857-11.93-5.337-16.945-3.48-5.016-8.426-8.925-14.212-11.234a32.799 32.799 0 0 0-18.298-1.736c-6.144 1.177-11.786 4.082-16.215 8.348-4.43 4.265-7.446 9.7-8.668 15.617a29.455 29.455 0 0 0 1.803 17.622c2.397 5.573 6.455 10.337 11.663 13.688 5.208 3.352 11.331 5.14 17.595 5.14 8.399 0 16.454-3.213 22.393-8.933 5.94-5.72 9.276-13.477 9.276-21.567Z" fill="#356D82"/><path d="M126.668 91.781c0-6.032-1.857-11.93-5.337-16.945-3.479-5.016-8.425-8.925-14.212-11.234a32.797 32.797 0 0 0-18.297-1.736c-6.144 1.177-11.787 4.082-16.216 8.347-4.429 4.266-7.445 9.701-8.667 15.618a29.455 29.455 0 0 0 1.802 17.622c2.397 5.573 6.457 10.337 11.665 13.688 5.207 3.352 11.33 5.14 17.594 5.14a32.725 32.725 0 0 0 12.12-2.319 31.76 31.76 0 0 0 10.275-6.612 30.435 30.435 0 0 0 6.865-9.896 29.52 29.52 0 0 0 2.408-11.673Zm-63.33-60.995c0-6.032-1.857-11.93-5.337-16.945-3.48-5.016-8.426-8.925-14.212-11.233A32.799 32.799 0 0 0 25.49.872C19.347 2.049 13.705 4.954 9.276 9.219c-4.43 4.266-7.446 9.7-8.668 15.617a29.458 29.458 0 0 0 1.803 17.623c2.397 5.573 6.455 10.337 11.663 13.688 5.208 3.352 11.331 5.14 17.595 5.14 8.398-.002 16.452-3.216 22.39-8.936 5.94-5.72 9.277-13.476 9.279-21.565Z" fill="#356D82"/><path d="M126.668 30.787c0-6.033-1.857-11.93-5.337-16.946-3.479-5.015-8.425-8.924-14.212-11.233A32.797 32.797 0 0 0 88.822.872C82.678 2.05 77.035 4.954 72.606 9.22c-4.429 4.265-7.445 9.7-8.667 15.616A29.458 29.458 0 0 0 65.74 42.46c2.397 5.573 6.457 10.337 11.665 13.688 5.207 3.352 11.33 5.14 17.594 5.14 8.399 0 16.454-3.213 22.393-8.933s9.275-13.478 9.275-21.567Z" fill="#356D82"/></svg>