<svg width="114" height="116" fill="none" xmlns="http://www.w3.org/2000/svg"><path d="M57.004 25.196c6.377 0 12.61 1.924 17.911 5.529 5.301 3.604 9.434 8.727 11.874 14.722A33.339 33.339 0 0 1 88.623 64.4 32.985 32.985 0 0 1 79.8 81.196a32.07 32.07 0 0 1-16.506 8.977 31.723 31.723 0 0 1-18.627-1.866c-5.89-2.483-10.925-6.688-14.468-12.082A33.214 33.214 0 0 1 24.766 58c.01-8.697 3.409-17.036 9.453-23.185 6.044-6.15 14.238-9.61 22.785-9.619Zm0-25.196C45.731 0 34.71 3.4 25.336 9.773 15.962 16.145 8.655 25.203 4.34 35.8a58.946 58.946 0 0 0-3.245 33.511c2.199 11.253 7.627 21.589 15.598 29.7 7.972 8.111 18.128 13.636 29.185 15.874a56.088 56.088 0 0 0 32.934-3.3c10.416-4.389 19.318-11.823 25.581-21.362C110.657 80.685 114 69.472 114 58a58.872 58.872 0 0 0-4.337-22.195 58.066 58.066 0 0 0-12.355-18.817A56.94 56.94 0 0 0 78.817 4.415 56.144 56.144 0 0 0 57.004 0Z" fill="#FF654E"/></svg>