<svg width="153" height="208" fill="none" xmlns="http://www.w3.org/2000/svg"><path d="M151.029 225.625c2.029-3.344 1.444-6.729.146-10.136a2.819 2.819 0 0 0-1.276-.856c3.097-3.344.984-6.917.481-10.428.775-1.735-.627-2.592-1.485-3.657 1.109-1.359 2.72-2.613.858-4.514-.293-1.756-.565-3.49-.858-5.245-.314-.836-.627-1.651-.941-2.466.397-7.858-.105-15.611-2.448-23.176l.167-.083c.858-2.006-.941-2.424-1.987-3.323 4.853-4.347-3.096-6.332-1.862-9.801 2.238-6.332-.774-11.556-3.033-16.99 1.861-5.579-5.503-9.863-2.218-15.652 1.339-1.86-.523-3.239-.711-4.848-.733-1.964-1.465-3.95-2.197-5.914.628-2.57-1.757-3.344-2.908-4.848 1.925-2.111.439-3.553-.983-5.016l.565-.292-.126-.627c.9-3.95-3.222-5.83-3.766-9.195 2.239-5.58-2.928-3.866-5.062-5.12.962-2.528 6.004-4.514 1.004-7.815.941-1.819 1.213-3.511-.9-4.765-1.422-3.657-5.355-5.956-5.565-10.26-.292-1.672.879-5.309-2.991-2.279-1.067-.731-3.327-1.713-1.632-2.904 4.393-3.135.209-3.532-1.213-4.89 1.987-3.825-1.067-5.83-2.971-8.255-.167-5.705-6.737-7.377-7.866-12.455l-1.632 1.881c-4.665-1.526 2.573-7-2.761-8.296l-12.992-2.508c-1.925.94-4.163 1.651-5.523.125 1.36 1.526 3.598.836 5.523-.125L94.858 23.4c-3.87-5.663-10.503-7.252-15.88-10.7-1.443-.982-2.865-1.943-4.309-2.925-3.452-1.547-1.59-8.464-7.552-7.46-2.134-1.485-4.289-4.41-6.339.083-4.854-3.97-8.828.815-13.243 1.316l-2.824.565c-2.573-.523-5.146-1.045-7.72-1.589-3.598-.522-5.46 1.463-6.548 4.535-1.82.899-4.56-1.922-5.795 1.421-7.154.857-10.334 7.272-15.418 11.034-2.197 1.755-4.749 3.218-6.506 5.35-1.59 1.943-9.31 1.358-3.348 7.042 1.005.961-.606 1.505-1.213 1.484-4.686-.167-5.314 4.367-7.824 6.666-3.829 1.045-4.791 3.887-4.666 7.419-4.518 2.8-6.339 5.956-1.36 10.01-.209.376-.46.731-.732 1.066l-5.67.23c.44 6.08-8.284 8.212-6.443 14.878.607.356 1.214.732 1.841 1.087.419-.063.837-.125 1.235-.188l-1.256.188c-.606-.355-1.213-.731-1.82-1.087-2.803.69-2.238 3.93-4.037 5.371-5.147.627-3.013 3.323-1.632 5.81-1.339 2.465-9.184.564-4.644 6.938-1.988 2.528-2.636 5.537-3.055 8.63-6.443-3.49 1.716 4.138-2.05 2.696-6.946 1.818-.481 5.329-1.025 7.962-2.95 3.364-5.795 6.771-4.33 11.744h.083c-.272 1.087-.565 2.174-.837 3.26-4.581.69-5.104 2.278-2.343 7.084-1.234 2.111-1.318 3.95 1.297 5.079 2.092 4.43-5.67 5.955-3.096 10.511-.335 2.027 3.243 4.221-1.736 6.186-3.682 1.462.962 1.776 2.029 2.486-2.26 2.153-1.109 5.914-4.686 7.941-2.992 1.693.586 3.511 1.966 4.974-2.07 1.4-3.912 2.863-1.276 5.371-2.197 1.964-3.494 4.117-4.142 7.272-1.067 5.078-.46 9.989-.23 14.963-.67.94-1.318 1.88-1.988 2.8-.335 3.49.544 7.92-1.276 10.302-3.975 5.183 1.297 4.117 2.908 5.559.502 3.281-3.326-.355-3.326 2.09-.67 2.424.062 4.305 2.175 5.663-3.033 2.758-9.853 3.03-6.506 9.947 2.824 3.302 3.326 7.565 4.707 11.473 1.13 1.797 2.364 3.553 1.904 5.851-1.716-.648-4.414-4.681-4.916-1.066-.733 5.392-4.1 11.473.69 16.802l.502 2.821c-.376.418-4.1 7.816-4.017 7.983-1.025 1.923-.69 3.553 1.005 4.932-1.841 2.319-3.348 5.83-2.113 7.774 3.556 5.579 1.213 10.866.627 16.3-1.025 3.636-2.26 7.23-3.012 10.929-.481 2.424 1.088 2.675 2.991 1.797.46 2.424.9 4.849 1.36 7.294-4.226 3.74-2.343 7.355.21 10.971-1.486 2.988-.252 5.245 1.987 7.209-4.289 3.198-1.486 5.204 1.192 7.231-1.869 2.967-1.583 4.751.858 5.35 5.251 4.012-1.444 7.962-.084 11.953-2.343 4.368 3.682 6.332 2.971 10.24-5.293-1.38-6.213.188-3.954 5.078 1.778 3.845 6.15 2.09 8.285 4.702-.482.982-.984 1.943-1.465 2.925-1.673-.125-3.347-.25-5.21-.397 1.089 3.511 5.566 1.484 6.152 4.89.795 2.822 1.61 5.643 2.405 8.485l.126.606.607.125c-2.302 3.845-5.063 7.858 1.548 10.261 1.192.439 2.05.439 1.694 1.964-1.736 7.461 2.385 12.079 7.845 16.008 1.36 2.361 2.155 5.663 4.185 6.938 5.334 3.322 6.255 12.977 15.355 10.783 7.176 10.135 17.573 14.043 29.373 15.255 3.096 2.8 5.92-.836 8.912-.397.627 1.066 1.36.648 2.092.125 2.531-.104 5.44 1.609 7.364-1.484 2.803-2.549 6.736.418 9.581-1.964 3.494.92 3.473-4.388 6.779-3.803 4.184 1.672 2.49-3.971 6.297-4.66 9.581-1.714 15.439-9.091 19.581-17.638 8.64-6.269 13.536-15.13 17.302-24.784l.502-.397-.105-.627c2.364-1.15 5.21-2.006 3.745-5.663 5.481-7.565 13.221-13.333 17.364-21.943 4.163-.857 4.393-5.538 7.364-7.565 5.46-.146 2.887-6.394 6.213-8.15 2.887.356 4.352-.271 2.26-3.322l.125-1.693c1.214-1.17 2.929-2.111 3.515-3.532 1.966-4.681 7.364-8.275 4.958-14.44l.376-.272.084-.459c5.628-.585 5.46-4.953 5.858-8.944v-.063c2.259-2.194 4.1-4.598 3.452-8.046 3.682-11.765 9.874-22.82 9.686-35.63 3.117-1.504 2.782-4.284 2.343-6.875-.502-2.863-2.72-5.663 0-8.526 1.653-2.424 4.665-4.66 1.109-7.816.627-.94 1.904-1.964 1.799-2.779-1.402-9.718-1.611-19.372.795-28.964-1.109-3.866 1.967-8.401-1.862-11.849l.021-.146Zm-217.552 70.382c-.732-.877-1.234-1.692-1.38-2.424.146.753.648 1.568 1.38 2.424.293-.23.586-.543.9-.815-.314.272-.607.585-.9.815Zm-1.59-10.239c.46.522 1.088.815 2.134.48-1.046.335-1.653.042-2.134-.48Zm3.556 38.827-1.673 1.797c.565-.606 1.13-1.191 1.673-1.797Zm-3.66-46.81c0 2.445 3.242 4.054 3.012 6.561.23-2.507-3.013-4.116-3.013-6.561 1.13-1.317 2.866-2.278 3.745-3.72-.879 1.442-2.615 2.403-3.745 3.72Zm9.058 84.697c-.628.272-1.13.564-1.506.878.397-.314.9-.606 1.506-.878Zm-4.917-106.64c.544-.856 1.11-1.692 1.046-2.591.063.899-.502 1.735-1.046 2.591 1.695 1.38 2.302 2.968 2.427 4.619-.125-1.651-.732-3.239-2.427-4.619Zm2.113 125.761c.607.105 1.172.188 1.674.188-.502 0-1.046-.083-1.673-.188Zm.984-9.989c-.105-1.651-.942-3.448-1.046-5.099.104 1.651.941 3.448 1.046 5.099.816 2.048 1.61 4.096 2.447 6.123-.857-2.027-1.631-4.075-2.447-6.123Zm5.544-180.345c.774-4.555 1.569-9.132 2.343-13.688-1.381.147-2.804.46-3.87-.313 1.046.773 2.489.439 3.87.313-.795 4.556-1.57 9.133-2.343 13.688Zm1.61 216.017c.942-.856 1.988-1.065 3.097-1.024-1.109-.041-2.176.168-3.096 1.024Zm1.737-67.415c.502-.982 1.025-1.964 1.527-2.967-4.728-1.756-3.452-2.968-1.736-4.159-1.716 1.191-2.992 2.403 1.736 4.159a131.24 131.24 0 0 0-1.527 2.967Zm180.502-47.625c-1.444.689-2.866 1.379-4.31 2.069 1.444-.69 2.866-1.38 4.31-2.069 1.025-1.317 2.05-2.633 3.075-3.971.858-.23 1.486-.125 1.988.167-.502-.292-1.13-.397-1.988-.167-1.025 1.317-2.05 2.633-3.075 3.971Zm-8.034-47.124 2.385-.564-2.385.564c-.962.836-1.631 2.445-2.782 2.8 1.151-.355 1.82-1.964 2.782-2.8Zm-2.384-8.171c.272.167.564.314.857.46.607-.815 1.193-1.651 1.799-2.466-.606.815-1.192 1.651-1.799 2.466a6.856 6.856 0 0 1-.857-.46Zm7.782 37.051c.356.356.711.69 1.088 1.045l-1.632 2.759 1.632-2.759a47.81 47.81 0 0 1-1.088-1.045c-2.908-1.609-3.787-3.552-3.452-5.747-.335 2.174.544 4.138 3.452 5.726v.021Zm-2.197-37.218.251-.272-.251.272Zm3.264 16.906c-.942-1.338-1.862-2.696-2.803-4.033.125-.627.46-1.254.648-1.902-.188.627-.523 1.254-.648 1.902.941 1.337 1.861 2.695 2.803 4.033Zm1.841-66.517c.209.147.397.293.565.46-.168-.167-.377-.313-.565-.46-1.234-1.776-1.255-3.343-.774-4.827-.481 1.484-.46 3.051.774 4.827Zm-.732-21.461c.125.94.355 1.859.627 2.758-.272-.899-.523-1.818-.627-2.758Zm4.1 40.791c-.188-.815-.356-1.63-.544-2.445.168-.585-.104-1.17-.481-1.755.377.585.649 1.17.481 1.755.188.815.356 1.63.544 2.445Zm1.276 25.955c-.062-.752-.502-1.672-.669-2.466.104-.898.23-1.797.335-2.696-.105.899-.231 1.798-.335 2.696.167.794.607 1.735.669 2.466Zm-.188-6.144.167-.355-.167.355Zm1.464 44.595c1.716-2.883.628-5.997.356-9.048.272 3.051 1.381 6.165-.356 9.048l1.36 3.595c-.46-1.191-.899-2.403-1.36-3.595-2.28.063-4.56.105-6.841.168 2.281-.063 4.561-.105 6.841-.168Zm-.272-52.243c.063-.23.105-.418.126-.627 0 .188-.042.397-.126.627Zm1.925 30.782c-.732.982-1.485 1.964-2.217 2.946.732-.982 1.485-1.964 2.217-2.946Zm-1.443-30.323c.146.147.251.314.376.46a6.312 6.312 0 0 0-.376-.46Zm-2.218 57.28c-.377.627-.837 1.213-1.192 1.839.355-.626.815-1.232 1.192-1.839Zm-1.904-38.702c-.962-.083-1.966-.292-2.929-.376l-.502.669.502-.669c.963.084 1.967.293 2.929.376Zm-.418-13.458c.481-.271.837-.376 1.088-.334-.251-.042-.628.084-1.088.355v-.021Zm-.502 26.227a4.577 4.577 0 0 0-.816.376c-.126.188-.272.376-.398.564l.398-.564a3.99 3.99 0 0 1 .816-.376Zm-1.569-54.584c1.129.647 2.238 1.295 3.368 1.922-1.13-.648-2.259-1.296-3.368-1.922Zm.816 14.941c.502 1.15.983 2.299 1.485 3.448-.439.753-.858 1.484-1.297 2.236-4.54-1.755-2.824-3.699-.167-5.684h-.021Zm-2.95 44.136c-.293.501-.586.982-.879 1.462.314-.48.607-.961.879-1.462Zm-5.209 53.121-2.323-7.836c.21-.523.314-1.066.293-1.61 0 .565-.083 1.108-.293 1.61l2.323 7.836Zm-.942-26.665c-.544 1.316-.23 3.03 1.402 5.308-1.632-2.278-1.946-3.992-1.402-5.308Zm.272 35.149 4.393-2.131-4.393 2.131c-.188 2.048-1.318 1.86-2.447 1.672 1.129.188 2.259.376 2.447-1.672Zm12.364-33.895c1.025.146 2.009-.376 2.95-1.087.377-.272.774-.585 1.151-.899-.377.314-.774.607-1.151.899-.962.711-1.925 1.233-2.95 1.087Zm4.268-75.607c-.502.48-.774 1.191-.607 2.361-.167-1.17.105-1.902.607-2.361Zm-.628 2.382a1251.286 1251.286 0 0 1-3.577 5.496c.397.564.962 1.045 1.381 1.609-.419-.564-.984-1.045-1.381-1.609 1.192-1.839 2.385-3.678 3.577-5.496Zm-2.677-73.141c.711 3.197 2.594 6.645 1.903 9.529.691-2.884-1.213-6.332-1.903-9.529 1.15-3.866-1.444-6.541-3.201-9.592 1.736 3.051 4.351 5.726 3.201 9.592Zm-3.473-25.704c-1.339 2.278-1.214 4.681-1.088 7.063-.126-2.382-.251-4.785 1.088-7.063-2.783-1.421-3.829-3.678-4.205-6.29.397 2.591 1.422 4.869 4.226 6.29h-.021Zm-5.209 48.754c.125.627.251 1.254.397 1.88.69 1.15 2.218 1.798 2.699 3.072-.481-1.295-2.009-1.922-2.699-3.072a60.508 60.508 0 0 0-.397-1.88c.481-2.069-.816-3.741-1.758-5.475.942 1.734 2.239 3.406 1.758 5.475Zm-5.126-76.987c.188-1.107.398-2.215.586-3.322-.188 1.107-.398 2.215-.586 3.322-.125.063-.293.084-.418.147.146-.042.293-.084.418-.147Zm-2.28 33.583c-.774 1.818-2.72 3.866-1.109 5.955 1.883 4.075 3.075 8.401 4.686 12.602-1.611-4.18-2.803-8.527-4.686-12.602-1.59-2.068.335-4.137 1.109-5.955Zm-5-56.57c-.461.962-.67 1.965-.189 3.093-.585 2.152-.209 3.866.586 5.392-.795-1.526-1.171-3.26-.586-5.392-.481-1.128-.272-2.132.189-3.093Zm-2.364 31.158c.251 1.526.397 3.072.544 4.619-.126-1.547-.272-3.093-.544-4.619ZM-7.863 48.121c-.334 1.651-1.129 3.156-3.2 3.95 2.071-.794 2.866-2.299 3.2-3.95ZM-18.97 69.73a9.472 9.472 0 0 1-1.674 2.237c.649-.648 1.214-1.359 1.674-2.237Zm-14.686 27.878c.314 1.066.21 1.985-.126 2.821.335-.857.44-1.776.126-2.821Zm.02-5.873c-.334 1.923-.46 3.846-.083 5.852-.355-2.006-.25-3.95.084-5.852Zm-4.518 11.849Zm-6.423 302.387c-.836.543-1.757.669-2.698.606.941.042 1.862-.063 2.698-.627v.021Zm4.143 21.775c-.712.272-1.486.355-1.988.063.502.292 1.276.209 1.988-.063.732.313 1.569 1.024 2.364 1.4-.795-.397-1.632-1.107-2.364-1.4Zm18.159 8.672c.355.126.732.209 1.13.293a14.717 14.717 0 0 1-1.13-.293Zm25.502 24.827c1.527-1.86 3.745-1.798 6.38.271-2.635-2.069-4.853-2.131-6.38-.271Zm7.929 1.671c-.293.46-.565.941-.858 1.401-1.38.041-2.95-.23-4.226.041 1.276-.271 2.824 0 4.226-.041.293-.46.565-.941.858-1.401.439-.564.878-1.107 1.318-1.65-.44.543-.88 1.107-1.318 1.65Zm4.937-.397c-.942-.752-1.883-1.483-2.845-2.236-.858-1.985-2.009-3.636-3.369-4.973a16.53 16.53 0 0 1 3.369 4.973c.941.753 1.883 1.484 2.845 2.236Zm38.41-24.303a96.09 96.09 0 0 1 4.268 0c-1.277 0-2.7-.021-4.268 0Zm7.448-24.304c-2.574 4.367-4.017 9.466-7.05 13.5-.252 1.274-.482 2.549-.733 3.845.251-1.275.481-2.55.732-3.845 3.034-4.034 4.498-9.153 7.05-13.5.524-.878 1.068-1.714 1.695-2.508a20.239 20.239 0 0 0-1.694 2.508Zm1.945 23.907.188.188-.188-.188Zm7.908-22.653Zm12.573-49.611c.523.46 1.276.982 1.57 1.567-.293-.564-1.068-1.086-1.59-1.567 2.238-.71 4.12-1.86 5.125-3.469-1.004 1.609-2.887 2.759-5.126 3.469h.021Zm13.661-20.208c-.334-.773-.606-1.546-.46-2.34.69-1.359 1.548-2.654 2.364-3.971-.816 1.296-1.674 2.591-2.364 3.971-.146.794.105 1.567.46 2.34Zm-1.673-9.424c.606-2.905 1.548-5.726 3.41-8.276-1.862 2.55-2.825 5.35-3.431 8.276h.02Zm1.82-25.098c-.398.877-.795 1.755-1.213 2.633-.273 1.734-7.971.627-1.842 4.785-1.82 3.051 1.214 4.744 1.988 7.064-.711 3.51-8.013 3.385-5.858 6.499 3.18 4.597.335 6.875-1.527 9.404-2.469 3.385.858 3.051 2.03 4.158-3.432.376-4.06 5.977-6.151 5.308-5.482-1.713-2.302 3.197-3.913 4.138 4.75 2.821.544 6.415.816 9.634-.836 1.274-1.736 2.528-.292 3.97-3.913 2.361-7.636 4.368-8.515 9.905-.649 3.992-5.942 8.13-7.908 9.216-10.188 5.622-3.347 10.282-.67 15.402-5.9 2.988-5.585 11.18-11.84 14.001-3.745 1.693 2.28 3.385.313 5.308-2.343-.084-4.393.501-5.753 2.591-1.632 5.538-6.443 8.297-10.376 11.828-3.703-.48-3.745 2.989-5.272 4.869-3.369-.627-3.808 3.699-6.653 3.971-5.398 2.048-11.318 1.484-16.695 1.609-4.518.104-10.648 2.675-14.749-2.382-1.715-3.26-8.912-7.858-11.59-7.398-.816-.857-1.652-1.693-2.468-2.55.209-1.755-.565-2.842-2.26-3.28.084-2.822-.92-5.058-3.472-6.458.188-2.654-1.946-3.197-3.703-4.096-1.34-1.818.544-4.785-2.155-6.123.21-2.57-2.113-3.03-3.557-4.242 2.427-2.925 1.235-5.245-1.213-7.377.105-2.528-.042-4.994-1.339-7.272.126-3.239-2.092-5.078-4.142-7.042 2.343-2.842 1.36-5.601-.21-8.339.607-1.734-.773-2.507-1.694-3.489 2.406-3.051.879-5.852-.544-8.652 2.845-2.967-.25-5.809-.188-8.693.586-3.219-1.778-5.455-2.72-8.15 3.494-4.326 2.678-8.297-.941-12.058.962-2.173 1.966-4.347.962-6.792.377-3.678 3.18-7.606-1.15-10.783l-.44-2.863c2.322-2.821 2.594-5.747.481-8.819 2.74-6.645 1.402-13.332.335-20.04.356-3.365.711-6.729 1.088-10.094-.188-7.063 1.883-14.168-.356-21.211 2.804-6.979 2.95-14.461 4.038-21.775.105-.648-1.485-1.525-2.301-2.319 1.36-6.541 4.037-12.936 2.636-19.811-.46-2.278.92-2.884 2.531-3.49.649-2.947 2.26-5.893.063-8.861-2.532-7.105 2.238-13.353 2.364-20.166.084-4.388 2.51-8.547 1.36-13.082.46-1.88 3.138-3.009 1.903-5.496.293-.397.398-.815.314-1.295 1.758-2.571 3.766-5.099.607-8.025 4.581-2.675 1.945-6.332 1.318-9.717-1.15-4.138 7.636-5.434 3.012-10.553 3.787-12.831 7.595-25.663 11.381-38.494 2.218-3.552 5.502-6.499 6.046-10.97.21-3.804 8.515-4.138 4.247-9.864.544-.857 1.109-1.714 1.653-2.57C-1.084 70.752-.477 66.28.632 62.164c8.849-10.178 17.112-20.877 27.092-30.03 5.272-.982 7.029-6.311 11.004-8.902 8.954-2.738 17.238-2.696 26.067 2.006 5.25 2.8 8.41 7.397 11.61 11.138 4.645 5.412 6.988 12.727 13.515 17.136 2.071 1.4-4.456 6.645 2.155 7.816 2.113 2.382-1.067 7.94 4.833 8.045.314.752.627 1.505.941 2.236-2.74 2.947-1.234 7.858.377 8.171 5.753 1.129 2.866 5.392 4.226 7.711 3.221 5.538-2.469 14.67 7.196 17.387 1.674.481 1.339 2.863.419 4.535-2.992 5.287-.105 8.589 3.975 11.431 1.067 3.155-3.62 6.77-1.967 7.732 8.536 5.099 4.979 12.643 4.979 19.497.46 2.382.921 4.765 1.381 7.168-.251.522-.502 1.066-.774 1.588-.502 2.779.962 4.702 2.824 6.437l.063 4.054a3020.72 3020.72 0 0 1 3.87 13.04c-2.887 3.051-1.339 5.788.586 8.484-2.887 2.968-3.054 5.517 1.171 7.377-.899 2.508-5.648 4.535-.941 7.711.523 1.526-1.527 3.657 1.088 4.723.293.48.711.836 1.213 1.087-6.15 2.486-4.267 7.544-3.849 12.12-5.962.815-7.197 4.869-6.946 9.989-1.694.585-5.439-1.525-4.058 3.093 3.242 1.379.523 4.284 1.59 6.206 1.569 1.965-6.611 4.284.23 6.061.167.794.335 1.609.523 2.403-.628 2.173-2.824 2.32-4.331 3.364-.565 2.32-7.364 2.278-2.489 6.625-2.134 2.737-2.908 5.308.983 7.23.314 3.887-1.046 7.043-4.121 9.467-.272.063-.67.042-.816.209-4.645 5.266.209 14.168-7.03 18.452.963.397 1.904.815 2.867 1.212-.628 4.87-1.276 9.718-1.904 14.587v.063Zm12.615-1.986c-2.155 3.595 1.088 6.499 5.586 9.3-.251.459-.523.898-.795 1.337.272-.439.523-.898.795-1.337-4.498-2.821-7.741-5.705-5.586-9.3Zm4.184-15.861c.188-.522.356-1.024.439-1.484-.083.481-.251.983-.439 1.484-.753 2.048-1.904 4.263.084 5.204-1.988-.941-.858-3.135-.084-5.204Zm-.146-33.018c.397.418.669.92.878 1.463a4.715 4.715 0 0 0-.878-1.463Zm-11.841 72.034a12.495 12.495 0 0 1-.775 2.821c.356-.899.628-1.839.775-2.821Zm4.121-51.951c-.398 3.427-.795 6.875-1.193 10.302.356 1.505.733 3.009 1.088 4.493-.355-1.505-.732-3.009-1.088-4.493.398-3.427.795-6.875 1.193-10.302a7.192 7.192 0 0 1-1.151-1.087c.314.397.712.752 1.151 1.087Zm3.515 59.307c-.816.919-1.57 1.442-2.218 1.546.648-.104 1.381-.627 2.218-1.546.167.146.334.25.502.397-.168-.126-.335-.251-.502-.397Zm9.288-4.222c-.544 4.096-1.778 6.667-4.163 6.688 2.406-.021 3.64-2.613 4.163-6.688 2.113 1.505 4.77.251 7.26-.188-2.49.439-5.147 1.693-7.26.188Zm5.858-21.273c.502 2.8.607 5.517.105 8.066.502-2.549.397-5.266-.105-8.066Zm4.791-17.805c-1.214.481-2.448.982-3.661 1.463-.502.042-1.005.104-1.507.146.502-.042 1.005-.104 1.507-.146 1.213-.481 2.447-.982 3.661-1.463 3.222.397 5.586 0 5.355-2.8.231 2.779-2.113 3.197-5.355 2.8Zm4.749-5.141c1.318-.188 2.468-.522 3.452-1.003-.984.481-2.134.815-3.452 1.003Zm7.28-87.644a240.437 240.437 0 0 0 1.925-3.009 240.437 240.437 0 0 0-1.925 3.009Zm3.243 73.664Zm-.691-67.833c.586-.962 1.172-1.902 1.758-2.863-.586.961-1.172 1.901-1.758 2.863 1.046.898 2.176 1.755 1.862 3.406.461.355.921.711 1.381 1.087-.46-.356-.92-.711-1.381-1.087.314-1.651-.795-2.508-1.862-3.406Zm3.661 61.668a11.737 11.737 0 0 0-1.129-.878c.104-2.612.837-5.893 1.171-8.547-.334 2.654-1.067 5.935-1.171 8.547.397.272.774.565 1.129.878Z" fill="#B5DCD9"/></svg>