<svg width="132" height="133" fill="none" xmlns="http://www.w3.org/2000/svg"><path d="M44.003 110.009a22.001 22.001 0 1 0-44.002-.002 22.001 22.001 0 0 0 44.002.002Z" fill="#B5DCD9"/><path d="M88.001 110.009a22 22 0 0 0-37.559-15.558 22.003 22.003 0 0 0 3.335 33.851 21.998 21.998 0 0 0 20.643 2.035 22.004 22.004 0 0 0 13.581-20.328Z" fill="#B5DCD9"/><path d="M132 110.009a22.005 22.005 0 0 0-13.582-20.327A22.002 22.002 0 1 0 132 110.009ZM44.003 66.006a22.002 22.002 0 1 0-44.004 0 22.002 22.002 0 0 0 44.004 0Z" fill="#B5DCD9"/><path d="M88.001 66.006a22.001 22.001 0 1 0-13.58 20.328A22 22 0 0 0 88 66.006Z" fill="#B5DCD9"/><path d="M132 66.006a22.007 22.007 0 0 0-13.582-20.327A22.002 22.002 0 1 0 132 66.006ZM44.003 22.002A22.002 22.002 0 1 0 0 22a22.002 22.002 0 0 0 44.004 0Z" fill="#B5DCD9"/><path d="M88.001 22.002a22.001 22.001 0 1 0-44.002 0 22.001 22.001 0 0 0 44.002 0Z" fill="#B5DCD9"/><path d="M132 22.002a22.006 22.006 0 0 0-13.582-20.327A22.002 22.002 0 1 0 132 22.002Z" fill="#B5DCD9"/></svg>