<svg width="100" height="100" fill="none" xmlns="http://www.w3.org/2000/svg"><path d="M91.84 0H8.16A8.16 8.16 0 0 0 0 8.16v83.68A8.16 8.16 0 0 0 8.16 100h83.68a8.16 8.16 0 0 0 8.16-8.16V8.16A8.16 8.16 0 0 0 91.84 0Z" fill="#96DBD3"/><path d="M76.38 33.75a1.025 1.025 0 0 0-1.026 1.026v38.117H34.745V53.281a1.05 1.05 0 1 0-2.101 0v20.73a1.025 1.025 0 0 0 1.025 1.025h42.69a1.025 1.025 0 0 0 1.025-1.025V34.837a1.026 1.026 0 0 0-1.005-1.087Zm-42.69 3.343a1.025 1.025 0 0 0 1.026-1.026V17.46h40.578v2.184a1.056 1.056 0 0 0 2.112 0v-3.24a1.025 1.025 0 0 0-1.025-1.025H33.69a1.025 1.025 0 0 0-1.026 1.026v19.632a1.025 1.025 0 0 0 1.026 1.056Z" fill="#00344E"/><path d="M69.388 75.405a1.025 1.025 0 0 0-1.026 1.025v1.846H24.627V22.8h5.854a1.025 1.025 0 1 0 0-2.05h-6.9a1.025 1.025 0 0 0-1.025 1.025v57.617a1.025 1.025 0 0 0 1.025 1.025h45.807a1.025 1.025 0 0 0 1.025-1.025v-2.901a1.024 1.024 0 0 0-1.025-1.087Z" fill="#00344E"/><path d="M47.037 67.48a1.025 1.025 0 0 0 1.025-1.025V51.753a1.025 1.025 0 0 0-1.025-1.025h-6.151a1.025 1.025 0 0 0-1.026 1.025v14.671a1.026 1.026 0 0 0 1.026 1.025l6.15.031Zm-5.065-14.67h4.009v12.558h-4.009V52.809ZM57.3 67.48a1.025 1.025 0 0 0 1.026-1.025V43.54a1.025 1.025 0 0 0-1.025-1.025h-6.152a1.025 1.025 0 0 0-1.025 1.025v22.883a1.025 1.025 0 0 0 1.025 1.025l6.152.031Zm-5.064-22.883h4.009v20.771h-4.009v-20.77ZM67.563 67.48a1.025 1.025 0 0 0 1.025-1.025V36.036a1.025 1.025 0 0 0-1.025-1.025h-6.151a1.025 1.025 0 0 0-1.025 1.025v30.388a1.025 1.025 0 0 0 1.025 1.025l6.151.031ZM62.5 37.092h4.008v28.276H62.5V37.092Z" fill="#00344E"/><path d="M76.38 22.319a4.848 4.848 0 0 0-4.829 4.726l-13.133 2.87a1.026 1.026 0 0 0-.656.462l-4.214 6.53-15.285 5.65a4.798 4.798 0 1 0 .645 2.358v-.338l15.737-5.813c.217-.078.401-.226.523-.42l4.173-6.46 12.661-2.768a4.84 4.84 0 1 0 4.42-6.797h-.042ZM34.07 47.652a2.737 2.737 0 1 1-.021-5.475 2.737 2.737 0 0 1 .02 5.475Zm42.31-17.767a2.727 2.727 0 1 1 0-5.453 2.727 2.727 0 0 1 0 5.453Z" fill="#00344E"/></svg>