<svg width="367" height="220" fill="none" xmlns="http://www.w3.org/2000/svg"><path d="M350.885 82.823c-10.299-.362-20.272-.357-25.935 4.955-3.835 1.708-11.107 1.191-10.809 5.59-2.883 1.225-6.699 1.854-7.59 4.292l-6.309 2.415c-4.621 1.778-6.448 4.794-8.363 7.759-1.418.956-2.805 1.917-4.223 2.873-5.112.853-6.244 3.379-6.472 6.295-1.311 1.084-2.653 2.163-3.96 3.229-6.953 5.885-14.208 11.646-15.245 19.601-8.246 3.192-8.378 9.591-13.144 14.171-1.557 3.337-3.146 6.668-4.703 10.004-4.835-4.679-1.106-8.459-.201-12.528-1.468-3.383 1.95-6.463-1.501-9.957-.018-1.048-.068-2.103-.087-3.151 3.687-5.073.453-11.025.696-16.544 2.526-5.853 2.042-12.043-.315-18.418 1.957-5.343-.961-11.059-1.587-16.594.692-2.985.335-5.87-4.503-8.402.118-.513.007-1.008-.39-1.533l.404-1.84-5.131-8.123c.747-3.508-2.353-5.622-8.241-6.696-4.111-1.475-8.19-2.945-12.3-4.42-16.737-2.977-31.664-1.909-45.305 2.09-8.64 1.878-17.075 3.883-21.171 9.089 3.397-.626 6.764-1.275 10.161-1.9-3.397.625-6.764 1.274-10.161 1.9-1.185.334-2.339.673-3.527 1.025-9.161.36-8.694 6.457-14.83 8.607-2.985.29-5.973.599-5.538 3.02-.492.432-.83.907-1.048 1.44-6.028 1.122-8.547 4.224-11.45 7.115-.775.587-1.582 1.168-2.358 1.754-9.248 7.263-18.402 14.542-23.148 23.639-.733.336-1.068.794-1.006 1.391-8.387 5.389-12.943 12.188-16.281 19.428-4.609 3.249-7.5 7.041-7.915 11.65-5.384 4.221-8.31 9.181-9.242 14.768l-6.315-.833c-.06-.616-.15-1.236-.21-1.834-.627-9.975 1.745-19.743-3.536-30.055 2.156-1.512 2.008-3.335.508-5.365 2.412-10.202.41-20.829-1.466-31.435.578-3.077 1.313-6.129-1.337-9.397.036-.6.075-1.216.11-1.816 4.371-7.82-.887-16.532-1.442-24.808.19-1.528.412-3.05.6-4.56l-3.656-.72c.06-.559.125-1.135.154-1.699-.7-1.988-1.436-3.964-2.137-5.953-2.38-.434-4.757-.885-6.4-1.49 1.643.605 3.989 1.051 6.4 1.49.701 1.989 1.436 3.965 2.137 5.953-.06.559-.093 1.14-.154 1.699l3.655.72c.744-6.774 1.839-13.527-2.265-20.652-.04-2.465-.115-4.918-.155-7.383-.505-3.937-1.138-7.877-1.514-11.811C30.71 6.632 28.942 2.539 20.847.766c-7.941-1.73-12.29.737-14.548 4.599-3.684.412-3.235 2.56-4.238 4.118C-2.652 12.97-8.086 16.137-9.907 20.86c-6.423 5.423-10.96 11.528-14.647 17.958-1.767 2.659-3.5 5.305-5.267 7.964.395.727.759 1.448 1.154 2.174 1.567.28 3.131.578 4.73.863-1.568-.28-3.134-.56-4.73-.863-.364-.721-.759-1.447-1.122-2.169-4.178 2.019-4.026 5.365-5.195 8.307-5.739 3.445-5.523 8.729-8.253 13.098-4.257 4.813-8.17 9.7-7.983 15.731-6.867 3.826-3.094 10.804-8.824 14.966-.664 2.238-1.33 4.494-1.995 6.731-5.285 3.246-3.553 8.141-4.707 12.351a128.51 128.51 0 0 1-1.604 3.035c2.334.518 4.67 1.018 7.005 1.536l-7.005-1.536-.006.036c-4.32 2.875-3.762 6.876-3.982 10.71-.348 1.117-.693 2.215-1.04 3.331-.041 1.791-.116 3.595-.157 5.386.04-1.791.116-3.595.157-5.386-4.606 4.002-4.451 9.073-4.857 14.014l-.492 1.789c-.58.381-.823.872-.787 1.429-5.293 3.868-4.12 9.219-5.157 14.074-.288 2.502-4.688 4.116-2.36 7.183-.072.428.05.852.334 1.285-4.9 4.026-4.478 9.233-4.867 14.269-.522 2.353-1.01 4.694-1.531 7.047-.807.195-.995.549-.567 1.079-4.116 3.001-3.755 7.025-4.113 10.909-.367 1.425-1.213 2.825-1.038 4.286.289 2.139-3.335 5.094 2.595 6.304 6.212 1.257 6.846-1.958 6.99-4.76 3.706-2.867 5.811-6.002 1.733-10.187.479-.158.715-.413.771-.752l2.506-1.673c3.84-1.542 3.019-4.358 3.496-6.829-.848-.141-1.696-.283-2.546-.406-.263.414-.463.84-.572 1.298l-6.13 1.344 6.13-1.344c.109-.458.309-.884.569-1.281.847.142 1.695.283 2.546.407.148-6.69 6.38-12.31 3.959-19.466 5.565-4.337 5.911-9.893 5.978-15.515.713-.211.936-.578.602-1.092 4.97-2.125 2.785-6.049 3.974-9.116.196-.591.42-1.159.615-1.75 3.751-9.135 9.306-17.858 10.792-27.536 3.068-4.846 7.189-9.424 6.602-15.191l-.031-.005c4.593-1.417 3.193-4.439 3.4-7.028a193.061 193.061 0 0 1-3.182-.66l3.182.66c5.91-5.436 5.995-12.522 9.965-18.52 6.23-2.133 2.428-7.006 5.075-10.105 5.017-5.695 9.42-11.583 9.346-18.677.685-.235.973-.609.865-1.122 12.396-6.206 15.221-16.174 22.621-24.35l.188.03c1.35-.93 2.674-1.902 4.026-2.85 1.165-2.338 2.333-4.693 3.497-7.03.46-.437.767-.918.919-1.443 2.938.38 5.384 1.192 6.66 3.02-.868 2.882-1.77 5.777-2.64 8.66.094.602.284 1.202.6 1.824 2.61 6.398-.757 12.46 3.068 18.933.115 3.762-3.803 7.126.44 11.283.978 3.815-1.427 7.394 1.495 11.35.038 1.125.073 2.269.111 3.394-1.5 4.153-2.749 8.348.837 12.965a136.416 136.416 0 0 1-.341 3.594c-2.43 4.695.478 9.895.782 14.845-.7 2.452-2.005 4.858.994 7.578-2.319 15.245-.223 30.915 2.065 46.598-.243.492-.064.962.533 1.447-2.913 3.532.906 7.527 1.504 11.296l-.418 3.471c-2.274 2.41.158 4.467 3.339 6.484.807 1.933-.89 3.979 2.415 5.834 1.735 2.748 3.108 5.546 9.735 5.092 5.192-.362 9.092-1.106 10.737-4.391 3.285-6.533 5.534-13.24 6.73-20.214 6.255-.736 4.371-3.949 4.087-6.694a5.825 5.825 0 0 0 .851-1.619l34.152-47.415c2.036-1.568 4.101-3.114 6.138-4.682 7.715-1.941 7.537-6.87 9.545-10.974.969-.39 1.971-.79 2.94-1.18 7.346-3.213 13.627-7.009 18.106-11.802-2.193.184-4.383.351-6.576.535-1.011 2.382-3.533 3.575-7.129 4.04 3.596-.465 6.121-1.676 7.129-4.04 2.193-.184 4.383-.35 6.576-.535l-.211-.09c3.293-.973 7.059-1.684 6.582-4.626l4.795-2.63 13.014-7.204c14.082-2.383 26.667-7.016 43.251-5.642l3.161.399c2.673.611 5.344 1.24 8.017 1.852 1.957 2.198 2.462 4.777 6.477 6.438l1.384 1.956 6.154 30.419c-.61 4.816-1.917 9.551.777 14.679l-.21 3.58c-1.078 2.59-2.601 5.143.976 8.07a2.516 2.516 0 0 0-.649.993c-3.346 2.065-4.674 4.412-.509 7.492-2.905 1.937-4.268 4.113-1.142 7.039-2.204 2.182-.268 4.89-.29 7.345l-.781 3.521c-1.532 9.175-5.242 18.059-2.165 27.857-.761.111-1.003.401-.729.887-3.265 2.739-3.152 5.932-.805 9.461-.35 4.804-3.59 9.327.892 14.57-.638 2.664 1.295 4.234 6.082 4.171 5.432-.066 10.553-1.357 10.421-4.627-.328-8.861 7.216-15.969 7.532-24.631-1.014-.885-2.059-1.775-3.073-2.66-.267-1.108-.565-2.222-.832-3.331.267 1.109.565 2.223.832 3.331 1.014.885 2.059 1.775 3.073 2.66 4.93-9.617 9.89-19.228 14.819-28.845 3.894-1.479 3.179-4.35 4.061-6.735 4.508-1.871 4.615-5.413 7.091-8.063 3.241-1.826-.481-5.823 4.54-7.095 6.589-3.707 10.086-8.61 12.46-13.938 1.11-1.044 2.22-2.088 3.327-3.114.568-.309.863-.718.786-1.226 4.489-.407 5.116-2.999 7.39-4.638 2.828-.317 3.611-1.526 3.305-3.173 3.826-1.655 9.14-2.364 10.486-5.589.024-.729.081-1.454.106-2.184a48.014 48.014 0 0 0-.106 2.184c7.097-1.53 10.129-5.391 14.044-8.737 11.669-1.85 22.29-5.545 36.284-3.154-.809-1.915-1.588-3.825-2.395-5.758l-13.522-.77.052-.12Zm-421.89 58.344c3.858-1.264 5.556-3.127 6.331-5.255-.772 2.11-2.47 3.973-6.331 5.255Zm61.894-109.22c2.727-2.61 5.844-5.043 9.144-7.41-.331-.917-.83-1.606-1.486-2.119a4.375 4.375 0 0 1 1.486 2.12c-3.3 2.366-6.417 4.8-9.144 7.409Zm11.3-21.104c.203.915.537 1.815 1.431 2.643-.863-.823-1.228-1.728-1.43-2.643Zm29.008 82.01c.581 1.162.802 2.355 1.216 3.543-.414-1.188-.638-2.363-1.215-3.542Zm-.61-.982c1.009-.437 1.986-.879 2.995-1.316-1.528-2.64-3.024-5.275-4.552-7.915.405-.3.863-.535 1.342-.694a4.31 4.31 0 0 0-1.342.694c1.528 2.64 3.024 5.275 4.552 7.915-1.009.437-1.986.88-2.995 1.316Zm7.874 89.528-2.718-.343 2.718.343Zm5.55-13.531c-.002-.569.025-1.115.054-1.679-2.044-.708-4.923-.858-6.525-1.896 1.602 1.038 4.481 1.188 6.528 1.878-.03.564-.027 1.133-.054 1.679l-.003.018Zm8.29 6.796c.262-.415.428-.827.493-1.22-.068.41-.265.818-.494 1.22Zm.502-1.274c.036-.214.069-.41.042-.635.03.207.025.426-.042.635Zm22.315-37.208c-1.304.847-2.182 2.241-3.658 2.967 1.476-.726 2.354-2.12 3.626-2.972.775-4.641 4.579-8.098 8.66-11.471-4.081 3.373-7.917 6.825-8.66 11.471l.032.005Zm18.464-20.329c.314-.719-.032-1.547-1.82-2.634.114-.678.315-1.305.787-1.814-.44.514-.673 1.136-.787 1.814 1.788 1.087 2.133 1.915 1.82 2.634Zm40.385-40.1c2.874-1.557 3.96-4.385 7.121-5.729-3.161 1.344-4.247 4.172-7.121 5.729Zm95.546 26.956s-.109.073-.256.177l.256-.177Zm7.359 29.189c-.094.755-.187 1.51-.178 2.227-.041-.722.087-1.49.178-2.227Zm1.507 27.516c-4.725 1.431-5.159 2.68-3.575 3.825-1.581-1.163-1.15-2.394 3.575-3.825Zm-8.114 29.469c.954-.685 1.451-1.538.985-2.808 1.347-.913 2.352-2.103 3.815-2.941-1.431.844-2.437 2.034-3.815 2.941.466 1.27-.034 2.141-.985 2.808Zm12.876-15.464c-.299-.142-.563-.296-.828-.45.233.149.529.308.828.45Zm1.715-8.723-.31-.272.31.272Z" fill="#B5DCD9"/></svg>