<svg width="132" height="119" fill="none" xmlns="http://www.w3.org/2000/svg"><path d="m129.41 104.071.661-.337a1.418 1.418 0 0 0 .738-.938 1.395 1.395 0 0 0-.25-1.161c.194-.272.323-.59.451-.909.058-.145.117-.29.182-.431.5-1.048-.563-1.886-1.507-1.848l-18.314 1.11c-1.586.08-1.436 2.596.082 2.718 4.357.391 8.712.775 13.067 1.152-14.021 6.703-27.935 11.517-43.91 8.902A98.557 98.557 0 0 1 33.263 90.04C7.947 68.315-3.791 33.905 5.745 1.273c.179-.623-.751-.98-.96-.34-10.57 32.125.45 67.14 25.038 89.403a101.305 101.305 0 0 0 48.142 24.169c17.327 3.37 32.188-1.327 47.488-8.561l-4.836 10.129c-.774 1.644 1.839 2.587 2.616.965l6.177-12.967Z" fill="#ED634D" stroke="#ED634D"/></svg>