<svg width="139" height="139" fill="none" xmlns="http://www.w3.org/2000/svg"><path d="M8.838 4.395c0-.87-.259-1.719-.744-2.442A4.414 4.414 0 0 0 6.11.335a4.441 4.441 0 0 0-4.816.952 4.373 4.373 0 0 0-.958 4.79A4.4 4.4 0 0 0 1.964 8.05a4.436 4.436 0 0 0 4.147.407 4.415 4.415 0 0 0 2.392-2.38 4.369 4.369 0 0 0 .335-1.682Zm26.008 0c0-.87-.26-1.719-.745-2.442A4.415 4.415 0 0 0 32.118.335a4.442 4.442 0 0 0-4.816.952 4.373 4.373 0 0 0-.958 4.79 4.4 4.4 0 0 0 1.628 1.973 4.436 4.436 0 0 0 4.147.407 4.416 4.416 0 0 0 2.392-2.38 4.368 4.368 0 0 0 .335-1.682Zm26.008 0c0-.87-.259-1.719-.745-2.442A4.414 4.414 0 0 0 58.127.335a4.442 4.442 0 0 0-4.816.952 4.372 4.372 0 0 0-.958 4.79A4.4 4.4 0 0 0 53.98 8.05a4.436 4.436 0 0 0 4.147.407 4.416 4.416 0 0 0 2.392-2.38 4.368 4.368 0 0 0 .335-1.682Zm26.008 0c0-.87-.259-1.719-.745-2.442A4.414 4.414 0 0 0 84.134.335a4.442 4.442 0 0 0-4.816.952 4.373 4.373 0 0 0-.958 4.79 4.4 4.4 0 0 0 1.628 1.973 4.436 4.436 0 0 0 4.147.407 4.415 4.415 0 0 0 2.392-2.38 4.37 4.37 0 0 0 .335-1.682Zm26.008 0c0-.87-.259-1.719-.745-2.442a4.413 4.413 0 0 0-1.983-1.618 4.441 4.441 0 0 0-4.816.952 4.384 4.384 0 0 0-.958 4.79c.335.803.901 1.49 1.628 1.973a4.434 4.434 0 0 0 5.58-.547 4.386 4.386 0 0 0 1.294-3.108Zm26.008 0c0-.87-.259-1.72-.745-2.442a4.414 4.414 0 0 0-1.984-1.619 4.442 4.442 0 0 0-4.817.955 4.387 4.387 0 0 0-1.208 2.252 4.366 4.366 0 0 0 .254 2.54 4.42 4.42 0 0 0 4.086 2.709 4.439 4.439 0 0 0 3.123-1.287 4.373 4.373 0 0 0 1.291-3.108ZM8.838 30.297c0-.869-.259-1.719-.744-2.442a4.414 4.414 0 0 0-1.984-1.618 4.441 4.441 0 0 0-4.816.952 4.373 4.373 0 0 0-.958 4.79 4.4 4.4 0 0 0 1.628 1.973 4.436 4.436 0 0 0 4.147.407 4.414 4.414 0 0 0 2.392-2.379 4.369 4.369 0 0 0 .335-1.683Zm26.008 0c0-.869-.26-1.719-.745-2.442a4.414 4.414 0 0 0-1.983-1.618 4.441 4.441 0 0 0-4.816.952 4.373 4.373 0 0 0-.958 4.79 4.4 4.4 0 0 0 1.628 1.973 4.436 4.436 0 0 0 4.147.407 4.415 4.415 0 0 0 2.392-2.379 4.368 4.368 0 0 0 .335-1.683Zm26.008 0c0-.869-.259-1.719-.745-2.442a4.413 4.413 0 0 0-1.983-1.618 4.442 4.442 0 0 0-4.816.952 4.372 4.372 0 0 0-.958 4.79 4.4 4.4 0 0 0 1.628 1.973c.727.483 1.581.74 2.455.74a4.435 4.435 0 0 0 3.127-1.285 4.387 4.387 0 0 0 1.292-3.11Zm26.008 0c0-.869-.259-1.719-.745-2.442a4.413 4.413 0 0 0-1.983-1.618 4.441 4.441 0 0 0-4.816.952 4.373 4.373 0 0 0-.958 4.79 4.4 4.4 0 0 0 1.628 1.973 4.435 4.435 0 0 0 4.147.407 4.414 4.414 0 0 0 2.392-2.379 4.37 4.37 0 0 0 .335-1.683Zm26.008 0c0-.869-.259-1.719-.745-2.442a4.412 4.412 0 0 0-1.983-1.618 4.44 4.44 0 0 0-4.816.952 4.384 4.384 0 0 0-.958 4.79c.335.803.901 1.49 1.628 1.973a4.434 4.434 0 0 0 6.538-1.973 4.375 4.375 0 0 0 .336-1.682Zm26.008 0c0-.87-.259-1.72-.745-2.442a4.414 4.414 0 0 0-1.984-1.619 4.442 4.442 0 0 0-4.817.955 4.387 4.387 0 0 0-1.208 2.252 4.367 4.367 0 0 0 .254 2.54 4.42 4.42 0 0 0 4.086 2.709 4.424 4.424 0 0 0 3.123-1.288 4.372 4.372 0 0 0 1.291-3.107ZM8.838 56.199c0-.87-.259-1.72-.744-2.442a4.414 4.414 0 0 0-1.984-1.619 4.442 4.442 0 0 0-4.816.953 4.373 4.373 0 0 0-.958 4.79 4.4 4.4 0 0 0 1.628 1.972 4.437 4.437 0 0 0 4.147.408 4.416 4.416 0 0 0 2.392-2.38 4.37 4.37 0 0 0 .335-1.682Zm26.008 0c0-.87-.26-1.72-.745-2.442a4.414 4.414 0 0 0-1.983-1.619 4.442 4.442 0 0 0-4.816.953 4.373 4.373 0 0 0-.958 4.79c.335.803.901 1.49 1.628 1.972a4.437 4.437 0 0 0 4.147.408 4.416 4.416 0 0 0 2.392-2.38 4.368 4.368 0 0 0 .335-1.682Zm26.008 0c0-.87-.259-1.72-.745-2.442a4.414 4.414 0 0 0-1.983-1.619 4.442 4.442 0 0 0-4.816.953 4.372 4.372 0 0 0-.958 4.79 4.4 4.4 0 0 0 1.628 1.972 4.437 4.437 0 0 0 4.147.408 4.417 4.417 0 0 0 2.392-2.38 4.368 4.368 0 0 0 .335-1.682Zm26.008 0c0-.87-.259-1.72-.745-2.442a4.413 4.413 0 0 0-1.983-1.619 4.442 4.442 0 0 0-4.816.953 4.373 4.373 0 0 0-.958 4.79 4.4 4.4 0 0 0 1.628 1.972 4.436 4.436 0 0 0 4.147.408 4.415 4.415 0 0 0 2.392-2.38 4.37 4.37 0 0 0 .335-1.682Zm26.008 0c0-.87-.259-1.72-.745-2.442a4.413 4.413 0 0 0-1.983-1.619 4.442 4.442 0 0 0-4.816.953 4.383 4.383 0 0 0-.958 4.79c.335.803.901 1.49 1.628 1.972a4.435 4.435 0 0 0 5.58-.547 4.386 4.386 0 0 0 1.294-3.107Zm26.008 0c0-.87-.259-1.72-.745-2.443a4.414 4.414 0 0 0-1.984-1.618 4.442 4.442 0 0 0-4.817.955 4.387 4.387 0 0 0-1.208 2.251 4.367 4.367 0 0 0 .254 2.54 4.395 4.395 0 0 0 1.63 1.971 4.438 4.438 0 0 0 5.579-.55 4.373 4.373 0 0 0 1.291-3.108ZM8.838 82.1c0-.868-.259-1.718-.744-2.44a4.414 4.414 0 0 0-1.984-1.62 4.441 4.441 0 0 0-4.816.953 4.373 4.373 0 0 0-.958 4.79 4.4 4.4 0 0 0 1.628 1.972 4.436 4.436 0 0 0 4.147.408 4.414 4.414 0 0 0 2.392-2.38 4.37 4.37 0 0 0 .335-1.682Zm26.008 0c0-.868-.26-1.718-.745-2.44a4.414 4.414 0 0 0-1.983-1.62 4.441 4.441 0 0 0-4.816.953 4.373 4.373 0 0 0-.958 4.79 4.4 4.4 0 0 0 1.628 1.972 4.436 4.436 0 0 0 4.147.408 4.415 4.415 0 0 0 2.392-2.38 4.368 4.368 0 0 0 .335-1.682Zm26.008 0a4.37 4.37 0 0 0-.745-2.44 4.413 4.413 0 0 0-1.983-1.62 4.442 4.442 0 0 0-4.816.953 4.372 4.372 0 0 0-.958 4.79 4.4 4.4 0 0 0 1.628 1.972 4.436 4.436 0 0 0 2.455.741 4.433 4.433 0 0 0 3.127-1.286 4.387 4.387 0 0 0 1.292-3.11Zm26.008 0a4.37 4.37 0 0 0-.745-2.44 4.413 4.413 0 0 0-1.983-1.62 4.441 4.441 0 0 0-4.816.953 4.373 4.373 0 0 0-.958 4.79 4.4 4.4 0 0 0 1.628 1.972 4.435 4.435 0 0 0 4.147.408 4.414 4.414 0 0 0 2.392-2.38 4.37 4.37 0 0 0 .335-1.682Zm26.008 0a4.37 4.37 0 0 0-.745-2.44 4.412 4.412 0 0 0-1.983-1.62 4.44 4.44 0 0 0-4.816.953 4.384 4.384 0 0 0-.958 4.79c.335.803.901 1.49 1.628 1.972a4.434 4.434 0 0 0 5.58-.546 4.386 4.386 0 0 0 1.294-3.108Zm26.008 0c0-.869-.259-1.718-.745-2.441a4.414 4.414 0 0 0-1.984-1.62 4.441 4.441 0 0 0-4.817.956 4.387 4.387 0 0 0-1.208 2.252 4.367 4.367 0 0 0 .254 2.54 4.395 4.395 0 0 0 1.63 1.971c.727.482 1.582.74 2.456.738a4.424 4.424 0 0 0 3.123-1.288 4.372 4.372 0 0 0 1.291-3.108ZM8.838 108.003a4.38 4.38 0 0 0-.742-2.444 4.42 4.42 0 0 0-1.982-1.621 4.445 4.445 0 0 0-2.554-.252 4.424 4.424 0 0 0-2.264 1.202 4.384 4.384 0 0 0-.96 4.79 4.4 4.4 0 0 0 1.627 1.973 4.43 4.43 0 0 0 2.456.741 4.431 4.431 0 0 0 3.123-1.285 4.383 4.383 0 0 0 1.296-3.104Zm26.008 0a4.381 4.381 0 0 0-.742-2.444 4.42 4.42 0 0 0-1.982-1.621 4.445 4.445 0 0 0-2.554-.252 4.423 4.423 0 0 0-2.264 1.202 4.373 4.373 0 0 0-.96 4.79c.334.803.9 1.49 1.627 1.973a4.43 4.43 0 0 0 2.456.741 4.431 4.431 0 0 0 3.123-1.285 4.383 4.383 0 0 0 1.296-3.104Zm26.008 0a4.38 4.38 0 0 0-.742-2.444 4.42 4.42 0 0 0-1.982-1.621 4.445 4.445 0 0 0-2.554-.252 4.423 4.423 0 0 0-2.264 1.202 4.384 4.384 0 0 0-.96 4.79 4.4 4.4 0 0 0 1.628 1.973 4.43 4.43 0 0 0 2.455.741 4.431 4.431 0 0 0 3.123-1.285 4.383 4.383 0 0 0 1.296-3.104Zm26.008 0a4.38 4.38 0 0 0-.742-2.444 4.42 4.42 0 0 0-1.982-1.621 4.445 4.445 0 0 0-2.554-.252 4.423 4.423 0 0 0-2.264 1.202 4.373 4.373 0 0 0-.96 4.79 4.4 4.4 0 0 0 1.627 1.973 4.43 4.43 0 0 0 2.456.741 4.432 4.432 0 0 0 3.123-1.285 4.383 4.383 0 0 0 1.296-3.104Zm26.008 0a4.38 4.38 0 0 0-.742-2.444 4.422 4.422 0 0 0-4.536-1.873 4.423 4.423 0 0 0-2.264 1.202 4.381 4.381 0 0 0-.96 4.79c.334.803.9 1.49 1.627 1.973a4.432 4.432 0 0 0 5.577-.545 4.388 4.388 0 0 0 1.298-3.103Zm26.008 0a4.371 4.371 0 0 0-.743-2.444 4.437 4.437 0 0 0-6.801-.669 4.38 4.38 0 0 0 .673 6.764 4.442 4.442 0 0 0 5.577-.549 4.383 4.383 0 0 0 1.294-3.102ZM8.838 133.905a4.375 4.375 0 0 0-.742-2.443 4.437 4.437 0 0 0-6.8-.672 4.384 4.384 0 0 0-.96 4.79 4.4 4.4 0 0 0 1.627 1.974 4.438 4.438 0 0 0 4.147.408 4.405 4.405 0 0 0 2.392-2.376 4.368 4.368 0 0 0 .336-1.681Zm26.008 0a4.376 4.376 0 0 0-.742-2.443 4.437 4.437 0 0 0-6.8-.672 4.373 4.373 0 0 0-.96 4.79 4.4 4.4 0 0 0 1.627 1.974 4.438 4.438 0 0 0 4.147.408 4.405 4.405 0 0 0 2.392-2.376 4.37 4.37 0 0 0 .336-1.681Zm26.008 0a4.375 4.375 0 0 0-.742-2.443 4.437 4.437 0 0 0-6.8-.672 4.384 4.384 0 0 0-.96 4.79c.334.804.9 1.49 1.628 1.974a4.438 4.438 0 0 0 4.146.408 4.405 4.405 0 0 0 2.392-2.376 4.37 4.37 0 0 0 .336-1.681Zm26.008 0a4.375 4.375 0 0 0-.742-2.443 4.437 4.437 0 0 0-6.8-.672 4.373 4.373 0 0 0-.96 4.79 4.4 4.4 0 0 0 1.627 1.974 4.438 4.438 0 0 0 4.147.408 4.405 4.405 0 0 0 2.392-2.376 4.37 4.37 0 0 0 .336-1.681Zm26.008 0a4.375 4.375 0 0 0-.742-2.443 4.438 4.438 0 0 0-6.8-.672 4.381 4.381 0 0 0 .667 6.764 4.44 4.44 0 0 0 5.579-.545 4.382 4.382 0 0 0 1.296-3.104Zm26.008 0a4.373 4.373 0 0 0-.743-2.444 4.407 4.407 0 0 0-1.983-1.621 4.437 4.437 0 0 0-4.818.952 4.378 4.378 0 0 0 .673 6.764c.728.483 1.583.74 2.457.739a4.427 4.427 0 0 0 3.121-1.286 4.377 4.377 0 0 0 1.293-3.104Z" fill="#B5DCD9"/></svg>