<svg width="161" height="136" fill="none" xmlns="http://www.w3.org/2000/svg"><path d="M141.055 62.903c3.257-5.535.868-12.39-2.444-16.82-6.945-9.25-21.704-15.748-12.294-30.324 7.43-11.511 21.558-12.92 33.417-14.239.706-.09.721-1.336-.005-1.307-14.756.73-39.275 5.173-39.088 25.684.105 10.823 10.353 14.594 15.73 22.058 4.204 5.845 5.85 13.2-4.739 17.646-2.463 1.049-5.792.975-8.423 1.332a231.733 231.733 0 0 1-23.872 1.956c-23.482.634-48.981-3.058-70.66 10.6C13.99 88.73 4.494 106.743 9.82 122.975a14.972 14.972 0 0 1-3.622-2.594c-.844-1.062-1.713-2.119-2.548-3.196-1.251-1.629-3.507.415-2.53 2.098a17.987 17.987 0 0 0 3.516 4.416 153.323 153.323 0 0 0 10.594 11.566c.172.215.4.376.659.468.26.092.542.111.82.056.278-.056.541-.183.764-.373.223-.187.396-.429.504-.7 2.144-4.29 4.274-8.588 6.389-12.897.93-1.896-1.953-2.861-2.9-1.001-1.803 3.534-3.563 7.098-5.324 10.663a182.768 182.768 0 0 1-4.03-4.235c.287.078.593.072.886-.02a1.772 1.772 0 0 0 1.188-1.323 1.64 1.64 0 0 0-.062-.899c-12.5-26.537 16.827-47.41 39.783-51.553 22.957-4.144 45.511-.434 68.247-3.432 5.981-.702 15.158-.786 18.9-7.117Z" fill="#ED634D"/></svg>