<svg width="161" height="21" fill="none" xmlns="http://www.w3.org/2000/svg"><path d="M152.186 12.287 160.719.502V20.31h-2.901V9.652l-5.66 7.675-5.603-7.675V20.31h-2.901V.472l8.532 11.816Zm-66.299 2.868c-.056-1.014-.511-3.041-3.1-5.155l-2.275-2.027c-.967-.782-1.422-1.622-1.45-2.607 0-1.13.739-1.911 1.848-1.97.028 0 1.422-.173 2.275 1.043l.029.058 2.304-1.592-.029-.058c-.398-.638-2.19-2.375-4.607-2.26-1.366.059-2.589.609-3.442 1.478-.882.926-1.308 2.143-1.223 3.562.085 1.65 1.024 3.185 2.987 4.807l2.133 1.912c1.194.984 1.706 1.824 1.763 2.809a2.643 2.643 0 0 1-.654 1.94c-.398.463-.853.666-1.48.724h-.141c-1.792 0-2.532-1.303-2.958-2.085l-.114-.203-2.475 1.216c.228.637 1.565 3.852 5.49 3.852h.057c1.422-.087 2.73-.666 3.669-1.65.967-.985 1.479-2.346 1.393-3.794ZM28.946.385c-5.518 0-10.012 4.576-10.012 10.194 0 5.618 4.494 10.194 10.012 10.194 5.518 0 10.012-4.576 10.012-10.194C38.986 4.96 34.492.385 28.946.385Zm0 17.463c-3.925 0-7.11-3.244-7.11-7.24 0-3.997 3.185-7.24 7.11-7.24 3.925 0 7.11 3.243 7.11 7.24.029 3.967-3.185 7.24-7.11 7.24ZM129.888.385c-5.518 0-10.012 4.576-10.012 10.194 0 5.618 4.494 10.194 10.012 10.194 5.518 0 10.011-4.576 10.011-10.194 0-5.618-4.493-10.194-10.011-10.194Zm0 17.463c-3.925 0-7.111-3.244-7.111-7.24 0-3.997 3.186-7.24 7.111-7.24s7.11 3.243 7.11 7.24c0 3.967-3.185 7.24-7.11 7.24ZM15.123 20.802V.877h-2.901v12.366L.816.472V20.28h2.902V8.117l.113.116 11.292 12.569ZM100.535.877H88.362V3.6h4.58v16.68h3.014V3.6h4.579V.877Zm12.714 12.106.057-.03c.313-.144.626-.347.882-.55 1.564-1.187 2.502-3.127 2.502-5.241 0-3.476-2.531-6.314-5.631-6.314h-6.713v19.404h2.902v-6.806h2.815l.029.029 4.408 6.777h3.499l-4.75-7.27Zm-2.503-2.462h-3.47V3.773h3.47c1.678 0 3.015 1.506 3.015 3.36 0 1.882-1.337 3.388-3.015 3.388ZM64.726.877h-4.721v19.404h4.721c4.608 0 8.249-4.344 8.249-9.702 0-5.329-3.67-9.702-8.249-9.702ZM64.641 17.5h-1.763V3.686h1.763c3.129 0 5.49 3.1 5.49 6.922 0 3.794-2.361 6.892-5.49 6.892Zm-12.998-4.517.057-.03c.313-.144.625-.347.881-.55 1.565-1.187 2.503-3.127 2.503-5.241 0-3.476-2.531-6.314-5.631-6.314H42.74v19.404h2.901v-6.806h2.818l.028.029 4.408 6.777h3.47l-4.721-7.27ZM49.14 10.52h-3.47V3.773h3.47c1.678 0 3.015 1.506 3.015 3.36 0 1.882-1.337 3.388-3.015 3.388Z" fill="#000"/></svg>