<svg width="224" height="358" fill="none" xmlns="http://www.w3.org/2000/svg"><path d="M451.434 112.264c-10.427-.615-20.512-.868-26.061 4.118-3.821 1.551-11.192.864-10.743 5.122-2.875 1.109-6.713 1.618-7.533 3.952l-6.299 2.17c-4.614 1.599-6.361 4.467-8.198 7.282-1.403.887-2.773 1.78-4.175 2.667-5.141.692-6.202 3.104-6.336 5.916-1.289 1.014-2.61 2.021-3.896 3.018-6.835 5.507-13.979 10.886-14.763 18.547-8.232 2.871-8.152 9.052-12.819 13.355-1.464 3.183-2.96 6.361-4.423 9.545-5.045-4.646-1.4-8.203-.62-12.112-1.598-3.307 1.757-6.195-1.85-9.66-.053-1.014-.139-2.034-.193-3.048 3.559-4.807.091-10.642.153-15.969 2.359-5.591 1.664-11.585-.932-17.807 1.801-5.112-1.341-10.711-2.157-16.076.6-2.867.142-5.665-4.834-8.237.102-.492-.027-.974-.445-1.491l.347-1.768-5.459-7.982c.638-3.37-2.567-5.493-8.557-6.684-4.206-1.532-8.38-3.058-12.586-4.59-17.023-3.309-32.082-2.663-45.742.848-8.675 1.592-17.137 3.31-21.106 8.236 3.414-.517 6.797-1.057 10.211-1.574-3.414.517-6.797 1.057-10.211 1.573-1.187.293-2.343.591-3.533.9-9.252.112-8.576 6.015-14.709 7.934-3.009.204-6.021.424-5.5 2.775a3.402 3.402 0 0 0-1.011 1.365c-6.059.928-8.503 3.861-11.342 6.58-.765.546-1.561 1.086-2.326 1.633-9.11 6.779-18.124 13.577-22.62 22.245-.731.306-1.054.74-.971 1.318-8.302 4.991-12.682 11.443-15.817 18.354-4.552 3.02-7.35 6.61-7.615 11.053-5.304 3.939-8.097 8.658-8.854 14.033l-6.414-.97c-.08-.596-.191-1.198-.274-1.777-.965-9.656 1.108-19.034-4.576-29.136 2.13-1.405 1.92-3.17.335-5.171 2.1-9.796-.279-20.117-2.53-30.415.483-2.959 1.124-5.889-1.664-9.115.016-.579.035-1.174.05-1.753 4.16-7.444-1.448-15.999-2.285-24.01.142-1.472.316-2.937.455-4.391l-3.721-.79c.043-.54.089-1.094.1-1.639-.775-1.94-1.584-3.868-2.359-5.807-2.422-.481-4.841-.98-6.521-1.606 1.68.627 4.067 1.119 6.521 1.606.775 1.94 1.584 3.868 2.359 5.807-.043.539-.057 1.1-.1 1.638l3.721.79c.526-6.527 1.408-13.024-2.979-20.015-.123-2.383-.28-4.756-.403-7.139-.641-3.818-1.413-7.642-1.924-11.453-.569-4.104-2.494-8.105-10.739-10.028-8.088-1.876-12.403.395-14.558 4.068-3.711.303-3.186 2.39-4.148 3.87-4.65 3.249-10.039 6.168-11.723 10.685-6.315 5.074-10.7 10.856-14.214 16.974-1.698 2.524-3.362 5.037-5.06 7.56.424.713.816 1.419 1.24 2.131 1.593.311 3.185.64 4.81.956-1.593-.31-3.187-.622-4.81-.956-.392-.706-.816-1.418-1.208-2.125-4.157 1.843-3.892 5.08-4.976 7.893-5.688 3.181-5.294 8.292-7.91 12.444-4.144 4.54-7.939 9.163-7.548 14.995-6.817 3.52-2.769 10.361-8.424 14.235l-1.793 6.453c-5.237 3-3.322 7.774-4.349 11.813-.496.966-.992 1.932-1.52 2.892 2.377.561 4.757 1.104 7.134 1.665l-7.135-1.665-.004.034c-4.274 2.667-3.575 6.548-3.67 10.247-.315 1.07-.627 2.122-.941 3.192.018 1.73.002 3.471.02 5.201-.018-1.73-.002-3.471-.02-5.201-4.524 3.748-4.2 8.653-4.444 13.417l-.438 1.716c-.574.353-.804.822-.749 1.36-5.223 3.602-3.86 8.803-4.745 13.467-.209 2.411-4.605 3.857-2.148 6.881-.059.412.08.825.38 1.25-4.82 3.764-4.22 8.808-4.446 13.664-.449 2.26-.864 4.509-1.313 6.77-.81.168-.988.505-.538 1.028-4.062 2.794-3.562 6.691-3.795 10.436-.323 1.367-1.133 2.698-.907 4.114.363 2.075-3.203 4.837 2.834 6.159 6.324 1.376 6.857-1.715 6.91-4.418 3.652-2.675 5.676-5.65 1.413-9.8.479-.141.709-.38.755-.706l2.478-1.553c3.832-1.391 2.908-4.133 3.308-6.508-.862-.159-1.724-.318-2.589-.459-.252.394-.44.8-.535 1.24l-6.154 1.14 6.154-1.14c.095-.44.283-.846.533-1.223.862.159 1.724.317 2.588.459-.073-6.461 6.04-11.731 3.355-18.709 5.483-4.047 5.648-9.408 5.529-14.838.713-.186.926-.534.572-1.04 4.954-1.924 2.614-5.773 3.715-8.706.178-.567.385-1.11.563-1.676 3.49-8.73 8.816-17.017 9.996-26.33 2.941-4.603 6.955-8.921 6.17-14.509l-.032-.006c4.598-1.25 3.082-4.207 3.204-6.704a202.64 202.64 0 0 1-3.24-.72l3.24.72c5.795-5.099 5.645-11.945 9.46-17.638 6.228-1.901 2.222-6.709 4.796-9.635 4.883-5.373 9.14-10.95 8.828-17.807.685-.209.964-.563.837-1.061C88.027 64.75 90.553 55.19 97.763 47.48l.191.035c1.334-.864 2.64-1.769 3.976-2.65 1.1-2.23 2.203-4.475 3.302-6.704.451-.41.745-.867.881-1.37 2.984.443 5.485 1.291 6.836 3.09-.782 2.763-1.598 5.537-2.381 8.3.115.585.327 1.17.667 1.779 2.854 6.25-.35 12.021 3.734 18.375.241 3.639-3.609 6.788.821 10.916 1.115 3.71-1.198 7.108 1.889 11.006.076 1.089.149 2.195.225 3.283-1.378 3.975-2.501 7.996 1.279 12.55a124.6 124.6 0 0 1-.226 3.465c-2.3 4.474.814 9.575 1.285 14.365-.626 2.352-1.865 4.643 1.258 7.349-1.837 14.673.805 29.87 3.641 45.085-.23.468-.032.927.587 1.411-2.828 3.338 1.167 7.297 1.897 10.955l-.307 3.344c-2.22 2.269.308 4.32 3.592 6.352.881 1.888-.767 3.822 2.637 5.7 1.846 2.7 3.328 5.44 10.014 5.173 5.238-.216 9.157-.834 10.711-3.966 3.104-6.229 5.155-12.652 6.133-19.36 6.3-.549 4.288-3.703 3.909-6.363.362-.479.631-.993.807-1.543l32.955-44.936c2.007-1.463 4.044-2.903 6.051-4.365 7.736-1.677 7.392-6.444 9.286-10.359l2.934-1.063c7.321-2.916 13.546-6.421 17.916-10.937-2.211.121-4.421.225-6.632.347-.943 2.275-3.454 3.363-7.074 3.719 3.62-.356 6.134-1.461 7.074-3.719 2.211-.122 4.421-.226 6.632-.347l-.216-.093c3.297-.855 7.081-1.445 6.501-4.3l4.762-2.418 12.92-6.624c14.16-1.94 26.731-6.09 43.548-4.334l3.209.467c2.724.66 5.445 1.337 8.169 1.997 2.052 2.175 2.649 4.68 6.764 6.39l1.465 1.925 7.236 29.556c-.457 4.637-1.62 9.18 1.275 14.205l-.094 3.453c-1.003 2.476-2.459 4.903 1.257 7.825-.302.279-.51.593-.624.942-3.315 1.909-4.579 4.143-.265 7.227-2.873 1.797-4.179 3.864-.92 6.772-2.156 2.052-.108 4.72-.049 7.091l-.673 3.382c-1.243 8.827-4.698 17.317-1.261 26.864-.765.088-1 .362-.707.839-3.211 2.562-2.99 5.651-.499 9.122-.194 4.633-3.319 8.92 1.388 14.103-.557 2.558 1.45 4.125 6.288 4.187 5.491.078 10.627-1.038 10.384-4.201-.627-8.572 6.765-15.245 6.796-23.608-1.055-.881-2.141-1.768-3.196-2.649-.307-1.079-.646-2.163-.952-3.241.306 1.078.645 2.162.952 3.241 1.055.881 2.141 1.768 3.196 2.649 4.665-9.166 9.361-18.326 14.025-27.491 3.888-1.328 3.069-4.122 3.882-6.403 4.496-1.692 4.486-5.112 6.901-7.609 3.217-1.681-.68-5.64 4.355-6.739 6.54-3.412 9.912-8.059 12.135-13.146 1.088-.98 2.176-1.961 3.261-2.924.564-.283.848-.672.754-1.165 4.526-.276 5.073-2.765 7.318-4.29 2.85-.233 3.601-1.381 3.237-2.981 3.814-1.5 9.164-2.048 10.417-5.129.001-.705.033-1.403.034-2.108-.033.699-.033 1.403-.034 2.108 7.125-1.296 10.063-4.948 13.911-8.081 11.738-1.486 22.355-4.782 36.586-2.109-.883-1.872-1.734-3.737-2.614-5.626l-13.7-1.094.049-.115ZM26.756 157.733c3.86-1.122 5.515-2.879 6.227-4.915-.71 2.019-2.365 3.776-6.227 4.915Zm58.95-103.945c2.67-2.45 5.742-4.722 9-6.924-.366-.895-.892-1.573-1.574-2.086a4.605 4.605 0 0 1 1.573 2.086c-3.257 2.202-6.328 4.473-8.999 6.924ZM96.43 33.687c.235.889.603 1.767 1.535 2.59-.9-.817-1.3-1.701-1.535-2.59Zm32.066 80.002c.625 1.137.888 2.295 1.347 3.454-.459-1.159-.724-2.3-1.347-3.454Zm-.651-.966c1.006-.396 1.98-.798 2.985-1.194-1.633-2.591-3.234-5.176-4.867-7.767a4.63 4.63 0 0 1 1.334-.635c-.51.135-.934.356-1.334.635 1.633 2.591 3.234 5.176 4.867 7.767-1.005.396-1.979.798-2.985 1.194Zm10.945 86.72-2.76-.402 2.76.402Zm5.162-12.932a26.55 26.55 0 0 1-.001-1.621c-2.091-.737-5.008-.957-6.662-2.002 1.654 1.045 4.571 1.265 6.664 1.985-.011.544.01 1.094.001 1.621l-.002.017Zm8.608 6.782c.252-.395.406-.789.459-1.167-.055.395-.241.784-.459 1.167Zm.466-1.218c.029-.206.056-.395.021-.613.037.201.04.412-.021.613Zm21.325-35.38c-1.289.785-2.131 2.11-3.6 2.773 1.469-.663 2.311-1.988 3.569-2.779.628-4.464 4.36-7.706 8.374-10.861-4.014 3.155-7.778 6.391-8.374 10.861l.031.006Zm17.995-19.168c.293-.686-.084-1.495-1.928-2.592.092-.652.275-1.253.735-1.732-.428.485-.643 1.08-.735 1.732 1.844 1.097 2.221 1.906 1.928 2.592Zm39.502-37.706c2.855-1.43 3.858-4.135 7.009-5.351-3.151 1.216-4.154 3.921-7.009 5.351Zm97.515 28.521s-.108.068-.252.165l.252-.165Zm8.414 28.398c-.069.727-.139 1.454-.105 2.147-.066-.699.038-1.437.105-2.147Zm2.441 26.629c-4.73 1.261-5.128 2.456-3.488 3.603-1.637-1.164-1.242-2.342 3.488-3.603Zm-7.223 28.268c.941-.638 1.416-1.449.902-2.688 1.332-.848 2.309-1.972 3.76-2.744-1.419.778-2.397 1.902-3.76 2.744.514 1.239.037 2.068-.902 2.688Zm12.505-14.611c-.307-.145-.58-.301-.853-.457.241.15.546.312.853.457Zm1.443-8.385-.322-.271.322.271Z" fill="#B5DCD9"/></svg>