<svg width="100" height="100" fill="none" xmlns="http://www.w3.org/2000/svg"><path d="M91.84 0H8.16A8.16 8.16 0 0 0 0 8.16v83.68A8.16 8.16 0 0 0 8.16 100h83.68a8.16 8.16 0 0 0 8.16-8.16V8.16A8.16 8.16 0 0 0 91.84 0Z" fill="#96DBD3"/><path d="M74.473 36.017a1.128 1.128 0 0 0 1.127 1.127h5.762v36.529a1.13 1.13 0 0 0 1.957.866 1.128 1.128 0 0 0 .288-.866V36.016a1.12 1.12 0 0 0-1.117-1.127H75.6a1.128 1.128 0 0 0-1.127 1.127ZM17.901 74.8a1.128 1.128 0 0 0 1.128-1.127V37.144h9.309a1.128 1.128 0 1 0 0-2.255H17.9a1.128 1.128 0 0 0-1.128 1.127v37.657a1.139 1.139 0 0 0 1.128 1.128Zm70.74.431H66.435a1.087 1.087 0 0 0-.533.134l-5.864 3.106H38.272l-5.228-3.076a1.159 1.159 0 0 0-.585-.153H10.847a1.128 1.128 0 0 0-1.127 1.127 10.887 10.887 0 0 0 10.867 10.868h58.304A10.877 10.877 0 0 0 89.76 76.369a1.119 1.119 0 0 0-1.118-1.138Zm-9.75 9.74H20.587a8.633 8.633 0 0 1-8.489-7.525h20.105l5.228 3.075c.178.103.38.156.585.154h22.268c.186.002.37-.044.533-.133l5.823-3.137h20.75a8.632 8.632 0 0 1-8.499 7.566ZM65.198 25.63h-26.85a5.512 5.512 0 0 0-3.914 1.637 5.633 5.633 0 0 0-1.627 3.953v20.641a5.645 5.645 0 0 0 1.626 3.958 5.523 5.523 0 0 0 3.915 1.644H43.6l-.266 9.905a1.291 1.291 0 0 0 .787 1.228c.153.066.319.098.485.093a1.26 1.26 0 0 0 .926-.397l10.747-11.437 9.035-.188a5.548 5.548 0 0 0 3.834-1.69 5.668 5.668 0 0 0 1.592-3.911v-19.88a5.632 5.632 0 0 0-1.64-3.931 5.51 5.51 0 0 0-3.9-1.625Zm2.997 25.436a3.058 3.058 0 0 1-.856 2.114 2.993 2.993 0 0 1-2.071.915l-9.567.199a1.248 1.248 0 0 0-.903.409l-8.826 9.355.208-7.882a1.33 1.33 0 0 0-.37-.935 1.259 1.259 0 0 0-.903-.386h-6.559a2.992 2.992 0 0 1-2.115-.89 3.057 3.057 0 0 1-.881-2.139V31.22c.003-.8.32-1.568.881-2.134a2.98 2.98 0 0 1 2.115-.883h26.85a2.98 2.98 0 0 1 2.115.883c.562.566.879 1.333.882 2.134v19.846Z" fill="#00344E"/><path d="M60.948 29.967a1.365 1.365 0 0 0-1.182-.169l-6.99 2.123a1.284 1.284 0 0 0-.675.456 1.154 1.154 0 0 0-.236.75v.929h-9.572c-.34 0-.667.127-.908.353a1.17 1.17 0 0 0-.376.853v7.733c0 .32.135.627.376.853.241.226.568.353.909.353h1.76v.084l3.224 7.238c.1.239.28.441.51.578.231.136.503.2.775.182a1.63 1.63 0 0 0 .514-.096c.163-.06.31-.151.434-.267.124-.116.222-.255.287-.407a1.143 1.143 0 0 0-.027-.955l-2.827-6.309h4.946v.941c-.012.268.071.532.236.75.166.218.404.38.677.457l6.989 2.11c.133.04.271.06.41.06.279 0 .55-.084.772-.24a1.23 1.23 0 0 0 .4-.438c.095-.175.142-.368.139-.564V30.968c0-.198-.051-.392-.15-.567a1.235 1.235 0 0 0-.415-.434ZM51.89 41.74h-8.248v-5.247h8.248v5.247Zm6.99 3.824-4.42-1.315V33.984l4.355-1.303.064 12.883Z" fill="#00344E"/></svg>