<svg width="82" height="237" fill="none" xmlns="http://www.w3.org/2000/svg"><path d="M37.43 7.532a7.5 7.5 0 0 0-1.277-4.184A7.565 7.565 0 0 0 32.754.573 7.612 7.612 0 0 0 28.38.145a7.586 7.586 0 0 0-3.88 2.061 7.52 7.52 0 0 0-2.073 3.857 7.494 7.494 0 0 0 .431 4.352 7.541 7.541 0 0 0 2.79 3.38 7.603 7.603 0 0 0 9.562-.937 7.511 7.511 0 0 0 2.218-5.326Zm44.57 0a7.51 7.51 0 0 0-1.277-4.186 7.564 7.564 0 0 0-3.4-2.774 7.61 7.61 0 0 0-8.255 1.637 7.52 7.52 0 0 0-2.07 3.86 7.494 7.494 0 0 0 .434 4.352 7.541 7.541 0 0 0 2.794 3.378 7.603 7.603 0 0 0 4.21 1.265 7.568 7.568 0 0 0 5.352-2.207A7.488 7.488 0 0 0 82 7.532ZM37.43 51.921a7.5 7.5 0 0 0-1.277-4.184 7.565 7.565 0 0 0-3.399-2.775 7.612 7.612 0 0 0-4.375-.428 7.586 7.586 0 0 0-3.878 2.061 7.52 7.52 0 0 0-2.073 3.857 7.494 7.494 0 0 0 .431 4.352 7.541 7.541 0 0 0 2.79 3.38 7.602 7.602 0 0 0 9.562-.937 7.497 7.497 0 0 0 2.218-5.326Zm44.57 0c0-1.49-.445-2.946-1.277-4.185a7.565 7.565 0 0 0-3.4-2.774 7.61 7.61 0 0 0-8.255 1.637 7.52 7.52 0 0 0-2.07 3.858 7.495 7.495 0 0 0 .434 4.353 7.541 7.541 0 0 0 2.794 3.378 7.603 7.603 0 0 0 4.21 1.265 7.6 7.6 0 0 0 5.351-2.206A7.52 7.52 0 0 0 82 51.92ZM37.43 96.31c0-1.49-.445-2.947-1.277-4.185a7.565 7.565 0 0 0-3.399-2.774 7.61 7.61 0 0 0-8.253 1.632 7.52 7.52 0 0 0-2.073 3.857 7.494 7.494 0 0 0 .431 4.352 7.538 7.538 0 0 0 2.79 3.38 7.6 7.6 0 0 0 9.562-.937 7.51 7.51 0 0 0 2.218-5.326Zm44.57 0a7.51 7.51 0 0 0-1.277-4.186 7.565 7.565 0 0 0-3.4-2.774 7.611 7.611 0 0 0-4.377-.427 7.587 7.587 0 0 0-3.878 2.064 7.52 7.52 0 0 0-2.07 3.859 7.495 7.495 0 0 0 .434 4.352 7.539 7.539 0 0 0 2.794 3.378 7.606 7.606 0 0 0 9.561-.941A7.488 7.488 0 0 0 82 96.309Zm-44.57 44.389a7.5 7.5 0 0 0-1.277-4.184 7.564 7.564 0 0 0-3.399-2.775 7.609 7.609 0 0 0-8.253 1.633 7.52 7.52 0 0 0-2.073 3.857 7.495 7.495 0 0 0 .431 4.352 7.544 7.544 0 0 0 2.79 3.38 7.6 7.6 0 0 0 4.207 1.269 7.592 7.592 0 0 0 5.355-2.206 7.51 7.51 0 0 0 2.218-5.326Zm44.57 0c0-1.49-.445-2.946-1.277-4.185a7.566 7.566 0 0 0-3.4-2.775 7.62 7.62 0 0 0-4.377-.427 7.594 7.594 0 0 0-3.878 2.064 7.526 7.526 0 0 0-2.07 3.859 7.496 7.496 0 0 0 .434 4.353 7.538 7.538 0 0 0 2.794 3.378 7.597 7.597 0 0 0 4.21 1.265 7.58 7.58 0 0 0 5.352-2.206A7.52 7.52 0 0 0 82 140.699Zm-44.57 44.389a7.504 7.504 0 0 0-1.273-4.188 7.573 7.573 0 0 0-3.396-2.778 7.612 7.612 0 0 0-4.377-.432 7.589 7.589 0 0 0-3.88 2.059 7.519 7.519 0 0 0-2.075 3.857 7.494 7.494 0 0 0 .43 4.353 7.54 7.54 0 0 0 2.789 3.382 7.602 7.602 0 0 0 9.557-.936 7.52 7.52 0 0 0 2.224-5.317Zm44.57 0a7.501 7.501 0 0 0-1.273-4.188 7.565 7.565 0 0 0-3.398-2.779 7.608 7.608 0 0 0-8.258 1.632 7.495 7.495 0 0 0-1.64 8.212 7.54 7.54 0 0 0 2.794 3.38 7.6 7.6 0 0 0 4.21 1.265 7.59 7.59 0 0 0 5.346-2.206A7.51 7.51 0 0 0 82 185.088Zm-44.57 44.389a7.503 7.503 0 0 0-1.273-4.187 7.566 7.566 0 0 0-3.396-2.778 7.612 7.612 0 0 0-4.377-.432 7.581 7.581 0 0 0-3.88 2.059 7.52 7.52 0 0 0-2.075 3.856 7.492 7.492 0 0 0 .43 4.353 7.54 7.54 0 0 0 2.789 3.382 7.603 7.603 0 0 0 9.56-.933 7.51 7.51 0 0 0 2.221-5.32Zm44.57 0a7.504 7.504 0 0 0-1.273-4.188 7.563 7.563 0 0 0-3.398-2.778 7.616 7.616 0 0 0-4.378-.431 7.59 7.59 0 0 0-3.88 2.062 7.495 7.495 0 0 0-1.64 8.213 7.545 7.545 0 0 0 2.794 3.38 7.6 7.6 0 0 0 4.21 1.265c2.007 0 3.93-.792 5.349-2.203a7.504 7.504 0 0 0 2.216-5.32Z" fill="#B5DCD9"/></svg>