<svg width="206" height="125" fill="none" xmlns="http://www.w3.org/2000/svg"><path d="m203.347 34.456.742.69c.208.191.37.426.479.687a1.915 1.915 0 0 1-.078 1.63 1.895 1.895 0 0 1-.54.63c.153.43.204.898.253 1.367.023.212.046.425.08.634.267 1.568-1.441 2.274-2.667 1.87l-23.64-8.308c-2.052-.699-.919-3.956 1.119-3.549a5491.527 5491.527 0 0 1 17.59 3.369c-15.922-14.07-32.404-25.613-54.359-28.143a134.141 134.141 0 0 0-70.47 11.65C30.525 36.127 2.31 77.053 2.699 123.594c.002.888-1.352 1.01-1.389.088-1.932-46.258 25.564-88.25 66.137-108.375a137.876 137.876 0 0 1 72.215-13.828c24.011 2.041 41.781 13.782 59.185 29.03l-2.584-15.147c-.406-2.454 3.377-2.72 3.794-.293l3.29 19.387Z" fill="#ED634D" stroke="#ED634D"/></svg>