<svg width="173" height="176" fill="none" xmlns="http://www.w3.org/2000/svg"><path d="M10.948 5.593a5.68 5.68 0 0 0-.922-3.107A5.502 5.502 0 0 0 7.569.426c-1-.424-2.1-.534-3.163-.319a5.44 5.44 0 0 0-2.803 1.531A5.632 5.632 0 0 0 .105 4.502a5.707 5.707 0 0 0 .312 3.232 5.569 5.569 0 0 0 2.016 2.51 5.392 5.392 0 0 0 5.137.519A5.462 5.462 0 0 0 9.347 9.55a5.597 5.597 0 0 0 1.186-1.816 5.692 5.692 0 0 0 .415-2.142Zm32.261 0a5.68 5.68 0 0 0-.923-3.107 5.502 5.502 0 0 0-2.457-2.06c-1-.424-2.1-.534-3.163-.319a5.44 5.44 0 0 0-2.802 1.531 5.633 5.633 0 0 0-1.498 2.864 5.707 5.707 0 0 0 .311 3.232 5.57 5.57 0 0 0 2.016 2.51 5.391 5.391 0 0 0 5.137.519 5.462 5.462 0 0 0 1.777-1.212 5.596 5.596 0 0 0 1.187-1.816 5.692 5.692 0 0 0 .415-2.142Zm32.26 0a5.68 5.68 0 0 0-.923-3.107A5.501 5.501 0 0 0 72.09.426a5.366 5.366 0 0 0-3.163-.319 5.439 5.439 0 0 0-2.803 1.531 5.632 5.632 0 0 0-1.498 2.864 5.706 5.706 0 0 0 .311 3.232 5.57 5.57 0 0 0 2.016 2.51 5.392 5.392 0 0 0 5.138.519 5.462 5.462 0 0 0 1.776-1.212 5.596 5.596 0 0 0 1.187-1.816 5.692 5.692 0 0 0 .415-2.142Zm32.235 0a5.677 5.677 0 0 0-.923-3.107 5.496 5.496 0 0 0-2.457-2.06 5.364 5.364 0 0 0-3.162-.319 5.44 5.44 0 0 0-2.803 1.531 5.632 5.632 0 0 0-1.498 2.864 5.706 5.706 0 0 0 .311 3.232 5.57 5.57 0 0 0 2.016 2.51 5.39 5.39 0 0 0 6.914-.693 5.593 5.593 0 0 0 1.187-1.816 5.706 5.706 0 0 0 .415-2.142Zm32.285 0a5.684 5.684 0 0 0-.922-3.107 5.506 5.506 0 0 0-2.457-2.06 5.366 5.366 0 0 0-3.163-.319 5.438 5.438 0 0 0-2.802 1.531 5.636 5.636 0 0 0-1.499 2.864 5.712 5.712 0 0 0 .312 3.232 5.568 5.568 0 0 0 2.016 2.51 5.39 5.39 0 0 0 3.041.943c1.452 0 2.845-.59 3.871-1.638a5.654 5.654 0 0 0 1.603-3.956Zm32.254 0a5.679 5.679 0 0 0-.923-3.108 5.499 5.499 0 0 0-2.457-2.06 5.367 5.367 0 0 0-3.164-.317 5.439 5.439 0 0 0-2.803 1.533 5.63 5.63 0 0 0-1.496 2.865 5.696 5.696 0 0 0 .314 3.233 5.568 5.568 0 0 0 2.019 2.509 5.391 5.391 0 0 0 6.911-.7 5.588 5.588 0 0 0 1.185-1.814 5.698 5.698 0 0 0 .414-2.14ZM10.948 38.558a5.681 5.681 0 0 0-.922-3.108 5.502 5.502 0 0 0-2.457-2.06c-1-.423-2.1-.534-3.163-.319a5.44 5.44 0 0 0-2.803 1.531 5.633 5.633 0 0 0-1.498 2.864 5.707 5.707 0 0 0 .312 3.232 5.57 5.57 0 0 0 2.016 2.51 5.392 5.392 0 0 0 6.914-.693 5.597 5.597 0 0 0 1.186-1.816 5.692 5.692 0 0 0 .415-2.141Zm32.261 0a5.681 5.681 0 0 0-.923-3.108 5.502 5.502 0 0 0-2.457-2.06c-1-.423-2.1-.534-3.163-.319a5.44 5.44 0 0 0-2.802 1.531 5.633 5.633 0 0 0-1.498 2.864 5.707 5.707 0 0 0 .311 3.232 5.57 5.57 0 0 0 2.016 2.51 5.391 5.391 0 0 0 6.914-.693 5.597 5.597 0 0 0 1.187-1.816 5.692 5.692 0 0 0 .415-2.141Zm32.26 0a5.681 5.681 0 0 0-.923-3.108 5.502 5.502 0 0 0-2.456-2.06 5.367 5.367 0 0 0-3.163-.319 5.44 5.44 0 0 0-2.803 1.531 5.632 5.632 0 0 0-1.498 2.864 5.706 5.706 0 0 0 .311 3.232 5.57 5.57 0 0 0 2.016 2.51 5.392 5.392 0 0 0 6.914-.693 5.597 5.597 0 0 0 1.187-1.816 5.692 5.692 0 0 0 .415-2.141Zm32.235 0a5.677 5.677 0 0 0-.923-3.108 5.496 5.496 0 0 0-2.457-2.06 5.364 5.364 0 0 0-3.162-.319 5.44 5.44 0 0 0-2.803 1.531 5.632 5.632 0 0 0-1.498 2.864 5.707 5.707 0 0 0 .311 3.232 5.57 5.57 0 0 0 2.016 2.51 5.39 5.39 0 0 0 6.914-.693 5.594 5.594 0 0 0 1.187-1.816 5.706 5.706 0 0 0 .415-2.141Zm32.285 0a5.685 5.685 0 0 0-.922-3.108 5.507 5.507 0 0 0-2.457-2.06 5.367 5.367 0 0 0-3.163-.319 5.439 5.439 0 0 0-2.802 1.531 5.637 5.637 0 0 0-1.499 2.864 5.712 5.712 0 0 0 .312 3.232 5.57 5.57 0 0 0 2.016 2.51 5.372 5.372 0 0 0 5.136.517 5.466 5.466 0 0 0 1.776-1.212 5.592 5.592 0 0 0 1.187-1.815 5.7 5.7 0 0 0 .416-2.14Zm32.254 0a5.679 5.679 0 0 0-.923-3.109 5.498 5.498 0 0 0-2.457-2.06 5.367 5.367 0 0 0-3.164-.317 5.44 5.44 0 0 0-2.803 1.533 5.63 5.63 0 0 0-1.496 2.865 5.697 5.697 0 0 0 .314 3.233 5.567 5.567 0 0 0 2.019 2.509 5.391 5.391 0 0 0 6.911-.7 5.588 5.588 0 0 0 1.185-1.814 5.697 5.697 0 0 0 .414-2.14ZM10.948 71.521a5.68 5.68 0 0 0-.922-3.108 5.501 5.501 0 0 0-2.457-2.06c-1-.423-2.1-.534-3.163-.318a5.44 5.44 0 0 0-2.803 1.53A5.633 5.633 0 0 0 .105 70.43a5.707 5.707 0 0 0 .312 3.232 5.57 5.57 0 0 0 2.016 2.51 5.392 5.392 0 0 0 6.914-.694 5.596 5.596 0 0 0 1.186-1.816 5.692 5.692 0 0 0 .415-2.141Zm32.261 0a5.68 5.68 0 0 0-.923-3.108 5.502 5.502 0 0 0-2.457-2.06c-1-.423-2.1-.534-3.163-.318a5.44 5.44 0 0 0-2.802 1.53 5.633 5.633 0 0 0-1.498 2.865 5.707 5.707 0 0 0 .311 3.232 5.57 5.57 0 0 0 2.016 2.51 5.391 5.391 0 0 0 6.914-.694 5.596 5.596 0 0 0 1.187-1.816 5.691 5.691 0 0 0 .415-2.141Zm32.26 0a5.68 5.68 0 0 0-.923-3.108 5.5 5.5 0 0 0-2.456-2.06 5.367 5.367 0 0 0-3.163-.318 5.44 5.44 0 0 0-2.803 1.53 5.632 5.632 0 0 0-1.498 2.865 5.706 5.706 0 0 0 .311 3.232 5.57 5.57 0 0 0 2.016 2.51 5.392 5.392 0 0 0 5.138.518 5.461 5.461 0 0 0 1.776-1.212 5.596 5.596 0 0 0 1.187-1.816 5.691 5.691 0 0 0 .415-2.141Zm32.235 0a5.677 5.677 0 0 0-.923-3.108 5.495 5.495 0 0 0-2.457-2.06 5.364 5.364 0 0 0-3.162-.318 5.44 5.44 0 0 0-2.803 1.53 5.632 5.632 0 0 0-1.498 2.865 5.707 5.707 0 0 0 .311 3.232 5.57 5.57 0 0 0 2.016 2.51 5.39 5.39 0 0 0 6.914-.694 5.593 5.593 0 0 0 1.187-1.816 5.705 5.705 0 0 0 .415-2.141Zm32.285 0a5.684 5.684 0 0 0-.922-3.108 5.506 5.506 0 0 0-2.457-2.06 5.367 5.367 0 0 0-3.163-.318 5.439 5.439 0 0 0-2.802 1.53 5.637 5.637 0 0 0-1.499 2.865 5.712 5.712 0 0 0 .312 3.232 5.57 5.57 0 0 0 2.016 2.51 5.39 5.39 0 0 0 3.041.943c1.452 0 2.845-.59 3.871-1.639a5.654 5.654 0 0 0 1.603-3.955Zm32.254 0a5.679 5.679 0 0 0-.923-3.108 5.498 5.498 0 0 0-2.457-2.06 5.367 5.367 0 0 0-3.164-.317 5.44 5.44 0 0 0-2.803 1.532 5.63 5.63 0 0 0-1.496 2.866 5.696 5.696 0 0 0 .314 3.232 5.567 5.567 0 0 0 2.019 2.509 5.391 5.391 0 0 0 6.911-.7 5.588 5.588 0 0 0 1.185-1.814 5.698 5.698 0 0 0 .414-2.14ZM10.948 104.485a5.68 5.68 0 0 0-.922-3.107 5.501 5.501 0 0 0-2.457-2.06c-1-.424-2.1-.534-3.163-.319a5.44 5.44 0 0 0-2.803 1.531 5.631 5.631 0 0 0-1.498 2.864 5.708 5.708 0 0 0 .312 3.232 5.565 5.565 0 0 0 2.016 2.51 5.389 5.389 0 0 0 6.914-.693 5.603 5.603 0 0 0 1.186-1.816 5.693 5.693 0 0 0 .415-2.142Zm32.261 0a5.68 5.68 0 0 0-.923-3.107 5.501 5.501 0 0 0-2.457-2.06c-1-.424-2.1-.534-3.163-.319a5.44 5.44 0 0 0-2.802 1.531 5.632 5.632 0 0 0-1.498 2.864 5.708 5.708 0 0 0 .311 3.232 5.566 5.566 0 0 0 2.016 2.51 5.389 5.389 0 0 0 6.914-.693 5.603 5.603 0 0 0 1.187-1.816 5.693 5.693 0 0 0 .415-2.142Zm32.26 0a5.68 5.68 0 0 0-.923-3.107 5.5 5.5 0 0 0-2.456-2.06 5.366 5.366 0 0 0-3.163-.319 5.44 5.44 0 0 0-2.803 1.531 5.631 5.631 0 0 0-1.498 2.864 5.707 5.707 0 0 0 .311 3.232 5.566 5.566 0 0 0 2.016 2.51 5.39 5.39 0 0 0 6.914-.693 5.603 5.603 0 0 0 1.187-1.816 5.693 5.693 0 0 0 .415-2.142Zm32.235 0a5.676 5.676 0 0 0-.923-3.107 5.495 5.495 0 0 0-2.457-2.06 5.363 5.363 0 0 0-3.162-.319 5.44 5.44 0 0 0-2.803 1.531 5.631 5.631 0 0 0-1.498 2.864 5.707 5.707 0 0 0 .311 3.232 5.566 5.566 0 0 0 2.016 2.51 5.387 5.387 0 0 0 6.914-.693 5.6 5.6 0 0 0 1.187-1.816 5.707 5.707 0 0 0 .415-2.142Zm32.285 0a5.683 5.683 0 0 0-.922-3.107 5.506 5.506 0 0 0-2.457-2.06 5.366 5.366 0 0 0-3.163-.319 5.438 5.438 0 0 0-2.802 1.531 5.635 5.635 0 0 0-1.499 2.864 5.713 5.713 0 0 0 .312 3.232 5.565 5.565 0 0 0 2.016 2.51 5.39 5.39 0 0 0 3.041.943 5.414 5.414 0 0 0 3.871-1.638 5.655 5.655 0 0 0 1.603-3.956Zm32.254 0a5.68 5.68 0 0 0-.923-3.108 5.499 5.499 0 0 0-2.457-2.06 5.367 5.367 0 0 0-3.164-.317 5.436 5.436 0 0 0-2.803 1.533 5.63 5.63 0 0 0-1.496 2.865 5.698 5.698 0 0 0 .314 3.233 5.56 5.56 0 0 0 2.019 2.508 5.392 5.392 0 0 0 5.137.514 5.438 5.438 0 0 0 1.774-1.213 5.58 5.58 0 0 0 1.185-1.815 5.692 5.692 0 0 0 .414-2.14ZM10.948 137.449a5.677 5.677 0 0 0-.92-3.109 5.506 5.506 0 0 0-2.455-2.064 5.36 5.36 0 0 0-3.163-.32 5.438 5.438 0 0 0-2.804 1.529 5.63 5.63 0 0 0-1.5 2.863 5.707 5.707 0 0 0 .31 3.233 5.569 5.569 0 0 0 2.016 2.512 5.39 5.39 0 0 0 3.042.943c1.45 0 2.842-.589 3.869-1.636a5.657 5.657 0 0 0 1.605-3.951Zm32.261 0a5.677 5.677 0 0 0-.92-3.109 5.505 5.505 0 0 0-2.455-2.064 5.361 5.361 0 0 0-3.164-.32 5.438 5.438 0 0 0-2.804 1.529 5.63 5.63 0 0 0-1.5 2.863 5.707 5.707 0 0 0 .31 3.233 5.568 5.568 0 0 0 2.017 2.512 5.39 5.39 0 0 0 3.041.943 5.418 5.418 0 0 0 3.869-1.636 5.657 5.657 0 0 0 1.605-3.951Zm32.26 0a5.677 5.677 0 0 0-.92-3.109 5.506 5.506 0 0 0-2.455-2.064 5.361 5.361 0 0 0-3.163-.32 5.438 5.438 0 0 0-2.805 1.529 5.63 5.63 0 0 0-1.5 2.863 5.707 5.707 0 0 0 .31 3.233 5.569 5.569 0 0 0 2.017 2.512 5.39 5.39 0 0 0 3.042.943c1.45 0 2.842-.589 3.868-1.636a5.657 5.657 0 0 0 1.606-3.951Zm32.235 0a5.677 5.677 0 0 0-.92-3.109 5.502 5.502 0 0 0-2.455-2.064 5.36 5.36 0 0 0-3.163-.32 5.436 5.436 0 0 0-2.805 1.529 5.631 5.631 0 0 0-1.5 2.863 5.708 5.708 0 0 0 .31 3.233 5.569 5.569 0 0 0 2.016 2.512 5.39 5.39 0 0 0 3.042.943 5.418 5.418 0 0 0 3.869-1.636 5.66 5.66 0 0 0 1.606-3.951Zm32.285 0a5.668 5.668 0 0 0-.919-3.109 5.507 5.507 0 0 0-2.455-2.064 5.363 5.363 0 0 0-3.164-.32 5.437 5.437 0 0 0-2.804 1.529 5.634 5.634 0 0 0-1.5 2.863 5.706 5.706 0 0 0 .31 3.233 5.565 5.565 0 0 0 2.017 2.512 5.39 5.39 0 0 0 3.041.943 5.423 5.423 0 0 0 3.867-1.638 5.66 5.66 0 0 0 1.607-3.949Zm32.254 0a5.674 5.674 0 0 0-.919-3.11 5.499 5.499 0 0 0-2.457-2.063 5.363 5.363 0 0 0-3.164-.32 5.439 5.439 0 0 0-2.805 1.531 5.64 5.64 0 0 0-1.498 2.866 5.708 5.708 0 0 0 .313 3.233 5.57 5.57 0 0 0 2.019 2.51 5.396 5.396 0 0 0 3.044.94 5.415 5.415 0 0 0 3.864-1.639 5.65 5.65 0 0 0 1.603-3.948ZM10.948 170.413a5.68 5.68 0 0 0-.92-3.109 5.497 5.497 0 0 0-2.455-2.063 5.361 5.361 0 0 0-3.163-.321 5.438 5.438 0 0 0-2.804 1.529 5.633 5.633 0 0 0-1.5 2.864 5.704 5.704 0 0 0 .31 3.232 5.569 5.569 0 0 0 2.016 2.512 5.39 5.39 0 0 0 6.912-.691 5.6 5.6 0 0 0 1.187-1.813 5.698 5.698 0 0 0 .417-2.14Zm32.261 0a5.68 5.68 0 0 0-.92-3.109 5.497 5.497 0 0 0-2.455-2.063 5.362 5.362 0 0 0-3.164-.321 5.438 5.438 0 0 0-2.804 1.529 5.633 5.633 0 0 0-1.5 2.864 5.704 5.704 0 0 0 .31 3.232 5.568 5.568 0 0 0 2.017 2.512 5.39 5.39 0 0 0 6.912-.691 5.598 5.598 0 0 0 1.187-1.813 5.698 5.698 0 0 0 .416-2.14Zm32.26 0a5.68 5.68 0 0 0-.92-3.109 5.497 5.497 0 0 0-2.455-2.063 5.361 5.361 0 0 0-3.163-.321 5.438 5.438 0 0 0-2.805 1.529 5.633 5.633 0 0 0-1.5 2.864 5.704 5.704 0 0 0 .31 3.232 5.569 5.569 0 0 0 2.017 2.512 5.39 5.39 0 0 0 6.912-.691 5.6 5.6 0 0 0 1.187-1.813 5.698 5.698 0 0 0 .417-2.14Zm32.235 0a5.68 5.68 0 0 0-.92-3.109 5.493 5.493 0 0 0-2.455-2.063 5.36 5.36 0 0 0-3.163-.321 5.436 5.436 0 0 0-2.805 1.529 5.634 5.634 0 0 0-1.5 2.864 5.705 5.705 0 0 0 .31 3.232 5.569 5.569 0 0 0 2.016 2.512 5.39 5.39 0 0 0 6.913-.691 5.603 5.603 0 0 0 1.187-1.813 5.703 5.703 0 0 0 .417-2.14Zm32.285 0a5.67 5.67 0 0 0-.919-3.109 5.499 5.499 0 0 0-2.455-2.063 5.363 5.363 0 0 0-3.164-.321 5.437 5.437 0 0 0-2.804 1.529 5.637 5.637 0 0 0-1.5 2.864 5.703 5.703 0 0 0 .31 3.232 5.565 5.565 0 0 0 2.017 2.512 5.39 5.39 0 0 0 3.041.943 5.415 5.415 0 0 0 3.869-1.636 5.655 5.655 0 0 0 1.605-3.951Zm32.254 0a5.674 5.674 0 0 0-.919-3.11 5.499 5.499 0 0 0-2.457-2.063 5.371 5.371 0 0 0-3.164-.32 5.446 5.446 0 0 0-2.805 1.531 5.64 5.64 0 0 0-1.498 2.866 5.707 5.707 0 0 0 .313 3.233 5.57 5.57 0 0 0 2.019 2.51 5.396 5.396 0 0 0 3.044.94 5.41 5.41 0 0 0 3.866-1.636 5.652 5.652 0 0 0 1.601-3.951Z" fill="#356D82"/></svg>