<svg width="98" height="98" fill="none" xmlns="http://www.w3.org/2000/svg"><path d="M89.58 0H7.96A7.96 7.96 0 0 0 0 7.96v81.62a7.96 7.96 0 0 0 7.96 7.96h81.62a7.96 7.96 0 0 0 7.96-7.96V7.96A7.96 7.96 0 0 0 89.58 0Z" fill="#96DBD3"/><path d="M41.217 61.861a16.91 16.91 0 0 0 5 2.68 19.507 19.507 0 0 0 6.45 1c.913.008 1.825-.046 2.73-.16a14.063 14.063 0 0 0 1.94-.4c.64-.11.86-.49.67-1.13l-.11-.5a.83.83 0 0 0-1.18-.62l-1.72.28c-.77.118-1.55.174-2.33.17-1.854.028-3.7-.24-5.47-.79a14.32 14.32 0 0 1-4.22-2.14 12.61 12.61 0 0 1-3-3.18c-.8-1.203-1.4-2.526-1.78-3.92h14.36a1.07 1.07 0 0 0 1.07-.84l.06-.34c.11-.71-.17-1.07-.85-1.07h-15.14c-.123-.66-.19-1.329-.2-2-.02-.706.027-1.413.14-2.11h16.06a1.06 1.06 0 0 0 1.07-.84l.06-.34c.11-.71-.17-1.07-.84-1.07h-15.86a14 14 0 0 1 1.74-3.94 12.871 12.871 0 0 1 3-3.27 13.82 13.82 0 0 1 4.25-2.22 17.318 17.318 0 0 1 5.55-.82c.67 0 1.337.047 2 .14l1.64.25a.9.9 0 0 0 1.18-.67l.11-.45c.11-.68-.13-1.07-.73-1.18l-1.83-.29a16.076 16.076 0 0 0-2.39-.17c-2.28-.038-4.55.317-6.71 1.05a17 17 0 0 0-5.06 2.76 14.05 14.05 0 0 0-3.47 4 16.55 16.55 0 0 0-1.88 4.81h-3a.852.852 0 0 0-1 1v.32a.85.85 0 0 0 1 1h2.65c-.08.694-.11 1.392-.09 2.09 0 .67.07 1.35.14 2h-2.7a.85.85 0 0 0-1 1v.34a.838.838 0 0 0 1 .95h3.17a18 18 0 0 0 2.05 4.79 14.997 14.997 0 0 0 3.47 3.83ZM22.807 24.58a1.72 1.72 0 1 0 0-3.44 1.72 1.72 0 0 0 0 3.44Zm58.25 46.92h-1.7v-1.7a1.035 1.035 0 0 0-2.07 0v1.7h-1.69a1.035 1.035 0 1 0 0 2.07h1.69v1.7a1.035 1.035 0 1 0 2.07 0v-1.7h1.7a1.035 1.035 0 0 0 0-2.07Z" fill="#00344E"/><path d="M36.827 75.48a28.62 28.62 0 0 1 8.8-54.51l-2.8 3.61a1 1 0 0 0 .82 1.67 1.05 1.05 0 0 0 .82-.4l4.23-5.39a1 1 0 0 0 .04-1.19.752.752 0 0 0-.13-.18l-.06-.06-4.85-4.73a1.034 1.034 0 0 0-1.766.74 1.036 1.036 0 0 0 .306.73l3.19 3.14a30.7 30.7 0 0 0-9.46 58.46c.136.06.282.09.43.09a1.023 1.023 0 0 0 .43-2v.02Zm33.87-47.41a30.37 30.37 0 0 0-17.43-9 1.012 1.012 0 1 0-.31 2 28.62 28.62 0 1 1-10.62 56.2l3.35-3.3a1.032 1.032 0 1 0-1.45-1.47l-4.86 4.78a1 1 0 0 0-.1 1.37l4.18 5.4a1.051 1.051 0 0 0 .82.4 1 1 0 0 0 .64-.22 1 1 0 0 0 .18-1.45l-2.59-3.35a30.68 30.68 0 0 0 28.19-51.36Z" fill="#00344E"/></svg>