<svg width="98" height="98" fill="none" xmlns="http://www.w3.org/2000/svg"><path d="M89.58 0H7.96A7.96 7.96 0 0 0 0 7.96v81.62a7.96 7.96 0 0 0 7.96 7.96h81.62a7.96 7.96 0 0 0 7.96-7.96V7.96A7.96 7.96 0 0 0 89.58 0Z" fill="#00344E"/><path d="M62.276 33.735c-.11-.23-.37-.34-.78-.34h-.67a1.27 1.27 0 0 0-1.13.62l-7.54 12.44c-.3.49-.59 1-.88 1.5l-.76 1.38c-.26.49-.52.95-.78 1.4h-.12l-.79-1.49c-.22-.41-.47-.86-.76-1.35-.29-.49-.57-1-.87-1.47l-7.54-12.44a1.28 1.28 0 0 0-1.13-.62h-.7c-.41 0-.67.11-.79.34a.76.76 0 0 0 .17.79l8.23 13.4h-5.47a.841.841 0 0 0-.95 1v.35a.839.839 0 0 0 .95 1h6.86l1.69 2.7v1.81h-8.51a.842.842 0 0 0-.95.95v.34a.84.84 0 0 0 .95 1h8.51v7.88a.85.85 0 0 0 .95 1h.51a.85.85 0 0 0 1-1v-7.88h8.33a.85.85 0 0 0 1-1v-.34a.85.85 0 0 0-1-.95h-8.33v-1.81l1.63-2.7h6.7a.85.85 0 0 0 1-1v-.33a.85.85 0 0 0-1-1h-5.29l8.16-13.4a.72.72 0 0 0 .1-.78Zm18.5 39.91a1.72 1.72 0 1 0 0-3.44 1.72 1.72 0 0 0 0 3.44Zm-61.68-50.4h1.73v1.69a1.035 1.035 0 1 0 2.07 0v-1.69h1.7a1.04 1.04 0 0 0 0-2.08h-1.77v-1.69a1.035 1.035 0 1 0-2.07 0v1.77h-1.69a1.04 1.04 0 1 0 0 2.08l.03-.08Z" fill="#fff"/><path d="M78.246 40.305a1.042 1.042 0 0 0-2 .58 28.621 28.621 0 0 1-47.16 28.72l4.57-.21a1 1 0 0 0 1-1.09 1 1 0 0 0-1.08-1l-6.82.32a1 1 0 0 0-.9.65 1.398 1.398 0 0 0-.06.22v.09a.524.524 0 0 0 0 .13l-.47 6.67a1 1 0 0 0 1 1.11h.07a1 1 0 0 0 1-1l.32-4.46a30.58 30.58 0 0 0 18.11 8.33c1 .09 2 .14 3 .14a30.709 30.709 0 0 0 29.44-39.2h-.02Zm-57.99 5.81a28.61 28.61 0 0 1 53.8-10.63l-4.68-.41a1.04 1.04 0 0 0-.18 2.07l6.8.58h.09a1 1 0 0 0 1-.83l1.38-6.68a1.023 1.023 0 0 0-2-.42l-.86 4.15a30.69 30.69 0 1 0-52.91 31.06 1 1 0 0 0 .88.49 1.14 1.14 0 0 0 .55-.15 1 1 0 0 0 .33-1.43 28.29 28.29 0 0 1-4.2-17.8Z" fill="#fff"/></svg>