<svg width="160" height="164" fill="none" xmlns="http://www.w3.org/2000/svg"><path d="M10.166 5.194a5.274 5.274 0 0 0-.857-2.886A5.108 5.108 0 0 0 7.03.395 4.982 4.982 0 0 0 4.09.1a5.05 5.05 0 0 0-2.6 1.42A5.23 5.23 0 0 0 .099 4.18a5.299 5.299 0 0 0 .289 3A5.171 5.171 0 0 0 2.26 9.511a5.006 5.006 0 0 0 6.42-.644 5.197 5.197 0 0 0 1.1-1.685c.255-.63.386-1.306.385-1.988Zm29.955 0a5.275 5.275 0 0 0-.857-2.886 5.109 5.109 0 0 0-2.28-1.913A4.982 4.982 0 0 0 34.045.1a5.05 5.05 0 0 0-2.602 1.421 5.23 5.23 0 0 0-1.391 2.66 5.3 5.3 0 0 0 .289 3 5.172 5.172 0 0 0 1.872 2.331 5.006 5.006 0 0 0 6.42-.644 5.196 5.196 0 0 0 1.102-1.686c.255-.63.386-1.306.385-1.988Zm29.955 0a5.275 5.275 0 0 0-.857-2.886A5.108 5.108 0 0 0 66.94.395 4.983 4.983 0 0 0 64 .1a5.05 5.05 0 0 0-2.6 1.42 5.23 5.23 0 0 0-1.391 2.66 5.298 5.298 0 0 0 .289 3 5.171 5.171 0 0 0 1.872 2.331 5.006 5.006 0 0 0 6.42-.644 5.196 5.196 0 0 0 1.102-1.686c.255-.63.386-1.306.385-1.988Zm29.931 0a5.274 5.274 0 0 0-.856-2.886A5.108 5.108 0 0 0 96.87.395 4.982 4.982 0 0 0 93.933.1a5.05 5.05 0 0 0-2.603 1.42 5.23 5.23 0 0 0-1.39 2.66 5.299 5.299 0 0 0 .288 3 5.171 5.171 0 0 0 1.873 2.331 5.006 5.006 0 0 0 6.42-.644 5.196 5.196 0 0 0 1.101-1.686c.255-.63.386-1.306.385-1.988Zm29.979 0a5.278 5.278 0 0 0-.856-2.886 5.112 5.112 0 0 0-2.282-1.913A4.979 4.979 0 0 0 123.912.1c-.986.2-1.892.695-2.603 1.421a5.228 5.228 0 0 0-1.391 2.66 5.298 5.298 0 0 0 .289 3 5.172 5.172 0 0 0 1.872 2.331 5.006 5.006 0 0 0 2.824.876 5.028 5.028 0 0 0 3.594-1.522 5.249 5.249 0 0 0 1.489-3.672Zm29.949 0a5.273 5.273 0 0 0-.857-2.886 5.11 5.11 0 0 0-2.282-1.913A4.98 4.98 0 0 0 153.859.1a5.05 5.05 0 0 0-2.603 1.423 5.232 5.232 0 0 0-1.39 2.661 5.3 5.3 0 0 0 .292 3.002 5.172 5.172 0 0 0 1.875 2.33 5.006 5.006 0 0 0 6.417-.65 5.195 5.195 0 0 0 1.101-1.685c.254-.63.385-1.306.384-1.987ZM10.166 35.802a5.275 5.275 0 0 0-.857-2.885 5.108 5.108 0 0 0-2.28-1.913 4.982 4.982 0 0 0-2.938-.296A5.05 5.05 0 0 0 1.49 32.13a5.23 5.23 0 0 0-1.391 2.659 5.3 5.3 0 0 0 .289 3 5.171 5.171 0 0 0 1.872 2.332 5.006 5.006 0 0 0 6.42-.644 5.196 5.196 0 0 0 1.1-1.687c.255-.63.386-1.306.385-1.989Zm29.955 0a5.275 5.275 0 0 0-.857-2.885 5.109 5.109 0 0 0-2.28-1.913 4.982 4.982 0 0 0-2.938-.296c-.986.2-1.891.695-2.602 1.422a5.231 5.231 0 0 0-1.391 2.659 5.3 5.3 0 0 0 .289 3 5.172 5.172 0 0 0 1.872 2.332 5.006 5.006 0 0 0 6.42-.644 5.196 5.196 0 0 0 1.102-1.686c.255-.63.386-1.306.385-1.989Zm29.955 0a5.275 5.275 0 0 0-.857-2.885 5.108 5.108 0 0 0-2.28-1.913A4.983 4.983 0 0 0 64 30.708a5.05 5.05 0 0 0-2.6 1.422 5.23 5.23 0 0 0-1.391 2.659 5.299 5.299 0 0 0 .289 3 5.171 5.171 0 0 0 1.872 2.332 5.006 5.006 0 0 0 6.42-.644 5.196 5.196 0 0 0 1.102-1.686c.255-.63.386-1.306.385-1.989Zm29.931 0a5.275 5.275 0 0 0-.856-2.885 5.108 5.108 0 0 0-2.281-1.913 4.982 4.982 0 0 0-2.937-.296 5.05 5.05 0 0 0-2.603 1.422 5.23 5.23 0 0 0-1.39 2.659 5.299 5.299 0 0 0 .288 3 5.171 5.171 0 0 0 1.873 2.332 5.006 5.006 0 0 0 6.42-.644 5.196 5.196 0 0 0 1.101-1.686c.255-.63.386-1.306.385-1.989Zm29.979 0a5.279 5.279 0 0 0-.856-2.885 5.112 5.112 0 0 0-2.282-1.913 4.98 4.98 0 0 0-2.936-.296c-.986.2-1.892.695-2.603 1.422a5.228 5.228 0 0 0-1.391 2.659 5.298 5.298 0 0 0 .289 3 5.172 5.172 0 0 0 1.872 2.332 4.984 4.984 0 0 0 4.769.48 5.073 5.073 0 0 0 1.649-1.126 5.197 5.197 0 0 0 1.102-1.685c.256-.63.387-1.306.387-1.988Zm29.949 0a5.273 5.273 0 0 0-.857-2.886 5.11 5.11 0 0 0-2.282-1.913 4.98 4.98 0 0 0-2.937-.294 5.05 5.05 0 0 0-2.603 1.423 5.232 5.232 0 0 0-1.39 2.66 5.3 5.3 0 0 0 .292 3.002 5.171 5.171 0 0 0 1.875 2.33 5.006 5.006 0 0 0 6.417-.65 5.195 5.195 0 0 0 1.101-1.685c.254-.63.385-1.305.384-1.987ZM10.166 66.41a5.275 5.275 0 0 0-.857-2.885 5.108 5.108 0 0 0-2.28-1.913 4.982 4.982 0 0 0-2.938-.296 5.05 5.05 0 0 0-2.602 1.422 5.23 5.23 0 0 0-1.391 2.66 5.299 5.299 0 0 0 .289 3 5.171 5.171 0 0 0 1.872 2.33 5.006 5.006 0 0 0 6.42-.643 5.196 5.196 0 0 0 1.102-1.686c.255-.63.386-1.306.385-1.989Zm29.955 0a5.275 5.275 0 0 0-.857-2.885 5.109 5.109 0 0 0-2.28-1.913 4.982 4.982 0 0 0-2.938-.296c-.986.2-1.891.695-2.602 1.422a5.23 5.23 0 0 0-1.391 2.66 5.3 5.3 0 0 0 .289 3 5.172 5.172 0 0 0 1.872 2.33 5.006 5.006 0 0 0 6.42-.643 5.196 5.196 0 0 0 1.102-1.686c.255-.63.386-1.306.385-1.989Zm29.955 0a5.275 5.275 0 0 0-.857-2.885 5.107 5.107 0 0 0-2.28-1.913A4.983 4.983 0 0 0 64 61.316a5.05 5.05 0 0 0-2.602 1.422 5.23 5.23 0 0 0-1.391 2.66 5.298 5.298 0 0 0 .289 3 5.171 5.171 0 0 0 1.872 2.33 5.006 5.006 0 0 0 6.42-.643 5.196 5.196 0 0 0 1.102-1.686c.255-.63.386-1.306.385-1.989Zm29.931 0a5.275 5.275 0 0 0-.856-2.885 5.108 5.108 0 0 0-2.281-1.913 4.982 4.982 0 0 0-2.937-.296 5.05 5.05 0 0 0-2.603 1.422 5.229 5.229 0 0 0-1.39 2.66 5.298 5.298 0 0 0 .288 3 5.171 5.171 0 0 0 1.873 2.33 5.006 5.006 0 0 0 6.42-.643 5.196 5.196 0 0 0 1.101-1.686c.255-.63.386-1.306.385-1.989Zm29.979 0a5.279 5.279 0 0 0-.856-2.885 5.112 5.112 0 0 0-2.282-1.913 4.98 4.98 0 0 0-2.936-.296c-.986.2-1.892.695-2.603 1.422a5.227 5.227 0 0 0-1.391 2.66 5.297 5.297 0 0 0 .289 3 5.172 5.172 0 0 0 1.872 2.33 4.998 4.998 0 0 0 2.824.876 5.028 5.028 0 0 0 3.594-1.521 5.248 5.248 0 0 0 1.489-3.673Zm29.949 0a5.273 5.273 0 0 0-.857-2.886 5.11 5.11 0 0 0-2.282-1.913 4.98 4.98 0 0 0-2.937-.294 5.05 5.05 0 0 0-2.603 1.423 5.232 5.232 0 0 0-1.39 2.66 5.3 5.3 0 0 0 .292 3.002 5.171 5.171 0 0 0 1.875 2.33 5.006 5.006 0 0 0 6.417-.65 5.195 5.195 0 0 0 1.101-1.685c.254-.63.385-1.305.384-1.987ZM10.166 97.019a5.274 5.274 0 0 0-.857-2.885 5.109 5.109 0 0 0-2.28-1.913 4.982 4.982 0 0 0-2.938-.296 5.05 5.05 0 0 0-2.602 1.422 5.23 5.23 0 0 0-1.391 2.659 5.299 5.299 0 0 0 .289 3 5.174 5.174 0 0 0 1.872 2.332c.836.57 1.819.875 2.824.875a4.975 4.975 0 0 0 1.946-.394 5.068 5.068 0 0 0 1.65-1.126 5.19 5.19 0 0 0 1.102-1.686c.255-.63.386-1.306.385-1.988Zm29.955 0a5.275 5.275 0 0 0-.857-2.885 5.109 5.109 0 0 0-2.28-1.913 4.982 4.982 0 0 0-2.938-.296 5.05 5.05 0 0 0-2.602 1.422 5.23 5.23 0 0 0-1.391 2.659 5.3 5.3 0 0 0 .289 3 5.175 5.175 0 0 0 1.872 2.332c.836.57 1.819.875 2.824.875a4.975 4.975 0 0 0 1.946-.394 5.07 5.07 0 0 0 1.65-1.126 5.19 5.19 0 0 0 1.102-1.686c.255-.63.386-1.306.385-1.988Zm29.955 0a5.275 5.275 0 0 0-.857-2.885 5.108 5.108 0 0 0-2.28-1.913A4.983 4.983 0 0 0 64 91.925a5.05 5.05 0 0 0-2.602 1.422 5.23 5.23 0 0 0-1.391 2.659 5.298 5.298 0 0 0 .289 3 5.174 5.174 0 0 0 1.872 2.332c.836.57 1.819.875 2.824.875a4.975 4.975 0 0 0 1.946-.394 5.067 5.067 0 0 0 1.65-1.126 5.19 5.19 0 0 0 1.102-1.686c.255-.63.386-1.306.385-1.988Zm29.931 0a5.274 5.274 0 0 0-.856-2.885 5.108 5.108 0 0 0-2.281-1.913 4.982 4.982 0 0 0-2.937-.296 5.05 5.05 0 0 0-2.603 1.422 5.229 5.229 0 0 0-1.39 2.659 5.298 5.298 0 0 0 .288 3 5.174 5.174 0 0 0 1.873 2.332 5.01 5.01 0 0 0 2.823.875 4.974 4.974 0 0 0 1.946-.394 5.067 5.067 0 0 0 1.65-1.126 5.19 5.19 0 0 0 1.102-1.686c.255-.63.386-1.306.385-1.988Zm29.979 0a5.278 5.278 0 0 0-.856-2.885 5.112 5.112 0 0 0-2.282-1.913 4.98 4.98 0 0 0-2.936-.296c-.986.2-1.892.695-2.603 1.422a5.227 5.227 0 0 0-1.391 2.659 5.297 5.297 0 0 0 .289 3 5.175 5.175 0 0 0 1.872 2.332c.836.57 1.819.875 2.824.875a5.028 5.028 0 0 0 3.594-1.521 5.25 5.25 0 0 0 1.489-3.673Zm29.949 0a5.272 5.272 0 0 0-.857-2.886 5.11 5.11 0 0 0-2.282-1.913 4.98 4.98 0 0 0-2.937-.294 5.05 5.05 0 0 0-2.603 1.423 5.231 5.231 0 0 0-1.39 2.66 5.3 5.3 0 0 0 .292 3.002 5.173 5.173 0 0 0 1.875 2.33 5.007 5.007 0 0 0 4.77.476 5.055 5.055 0 0 0 1.647-1.126 5.19 5.19 0 0 0 1.101-1.685c.254-.63.385-1.305.384-1.987ZM10.166 127.627a5.276 5.276 0 0 0-.854-2.887 5.108 5.108 0 0 0-2.28-1.916 4.988 4.988 0 0 0-2.937-.298c-.986.2-1.893.694-2.604 1.42a5.231 5.231 0 0 0-1.393 2.659 5.3 5.3 0 0 0 .288 3.002 5.174 5.174 0 0 0 1.872 2.332 5.006 5.006 0 0 0 2.825.876 5.031 5.031 0 0 0 3.592-1.519 5.252 5.252 0 0 0 1.49-3.669Zm29.955 0a5.276 5.276 0 0 0-.854-2.887 5.108 5.108 0 0 0-2.28-1.916 4.989 4.989 0 0 0-2.937-.298c-.986.2-1.892.694-2.604 1.42a5.231 5.231 0 0 0-1.393 2.659 5.3 5.3 0 0 0 .288 3.002 5.173 5.173 0 0 0 1.873 2.332 5.006 5.006 0 0 0 2.824.876 5.031 5.031 0 0 0 3.592-1.519 5.252 5.252 0 0 0 1.491-3.669Zm29.955 0a5.276 5.276 0 0 0-.854-2.887 5.108 5.108 0 0 0-2.28-1.916 4.988 4.988 0 0 0-2.937-.298c-.986.2-1.892.694-2.604 1.42a5.23 5.23 0 0 0-1.393 2.659 5.3 5.3 0 0 0 .288 3.002 5.174 5.174 0 0 0 1.873 2.332 5.006 5.006 0 0 0 2.824.876 5.031 5.031 0 0 0 3.592-1.519 5.252 5.252 0 0 0 1.49-3.669Zm29.931 0a5.269 5.269 0 0 0-.853-2.887 5.109 5.109 0 0 0-2.28-1.916 4.988 4.988 0 0 0-2.938-.298c-.986.2-1.892.694-2.604 1.42a5.232 5.232 0 0 0-1.392 2.659 5.3 5.3 0 0 0 .288 3.002 5.173 5.173 0 0 0 1.872 2.332 5.006 5.006 0 0 0 2.824.876 5.031 5.031 0 0 0 3.592-1.519 5.25 5.25 0 0 0 1.491-3.669Zm29.979 0a5.283 5.283 0 0 0-.853-2.887 5.114 5.114 0 0 0-2.28-1.916 4.99 4.99 0 0 0-2.938-.298c-.986.2-1.892.694-2.604 1.42a5.238 5.238 0 0 0-1.393 2.659 5.301 5.301 0 0 0 .289 3.002 5.17 5.17 0 0 0 1.872 2.332 5.006 5.006 0 0 0 2.824.876 5.035 5.035 0 0 0 3.59-1.521 5.256 5.256 0 0 0 1.493-3.667Zm29.949 0a5.277 5.277 0 0 0-.854-2.888 5.102 5.102 0 0 0-2.281-1.915 4.974 4.974 0 0 0-2.938-.297c-.986.2-1.893.695-2.604 1.421a5.233 5.233 0 0 0-1.391 2.661 5.293 5.293 0 0 0 .291 3.002 5.161 5.161 0 0 0 1.874 2.331c.837.57 1.821.874 2.826.873a5.027 5.027 0 0 0 3.588-1.522 5.247 5.247 0 0 0 1.489-3.666ZM10.166 158.236a5.273 5.273 0 0 0-.854-2.887 5.108 5.108 0 0 0-2.28-1.916 4.98 4.98 0 0 0-2.937-.298c-.986.2-1.893.694-2.604 1.42a5.227 5.227 0 0 0-1.393 2.659 5.3 5.3 0 0 0 .288 3.002 5.174 5.174 0 0 0 1.872 2.332 5.005 5.005 0 0 0 6.419-.642 5.204 5.204 0 0 0 1.102-1.683c.255-.63.387-1.305.387-1.987Zm29.955 0a5.273 5.273 0 0 0-.854-2.887 5.108 5.108 0 0 0-2.28-1.916 4.98 4.98 0 0 0-2.937-.298c-.986.2-1.892.694-2.604 1.42a5.227 5.227 0 0 0-1.393 2.659 5.3 5.3 0 0 0 .288 3.002 5.173 5.173 0 0 0 1.873 2.332 5.005 5.005 0 0 0 6.418-.642 5.205 5.205 0 0 0 1.102-1.683c.255-.63.387-1.305.387-1.987Zm29.955 0a5.274 5.274 0 0 0-.854-2.887 5.108 5.108 0 0 0-2.28-1.916 4.98 4.98 0 0 0-2.937-.298c-.986.2-1.892.694-2.604 1.42a5.227 5.227 0 0 0-1.393 2.659 5.3 5.3 0 0 0 .288 3.002 5.174 5.174 0 0 0 1.873 2.332 5.005 5.005 0 0 0 6.418-.642 5.203 5.203 0 0 0 1.102-1.683c.255-.63.387-1.305.387-1.987Zm29.931 0a5.266 5.266 0 0 0-.853-2.887 5.109 5.109 0 0 0-2.28-1.916 4.98 4.98 0 0 0-2.938-.298c-.986.2-1.892.694-2.604 1.42a5.228 5.228 0 0 0-1.392 2.659 5.3 5.3 0 0 0 .288 3.002 5.173 5.173 0 0 0 1.872 2.332 5.005 5.005 0 0 0 6.418-.642 5.203 5.203 0 0 0 1.102-1.683c.256-.63.387-1.305.387-1.987Zm29.979 0a5.28 5.28 0 0 0-.853-2.887 5.114 5.114 0 0 0-2.28-1.916 4.983 4.983 0 0 0-2.938-.298c-.986.2-1.892.694-2.604 1.42a5.234 5.234 0 0 0-1.393 2.659 5.302 5.302 0 0 0 .289 3.002 5.17 5.17 0 0 0 1.872 2.332 5.005 5.005 0 0 0 2.824.875 5.027 5.027 0 0 0 3.592-1.519 5.248 5.248 0 0 0 1.491-3.668Zm29.949 0a5.277 5.277 0 0 0-.854-2.888 5.11 5.11 0 0 0-2.281-1.916 4.99 4.99 0 0 0-2.938-.297 5.056 5.056 0 0 0-2.604 1.422 5.233 5.233 0 0 0-1.391 2.661 5.293 5.293 0 0 0 .291 3.002 5.172 5.172 0 0 0 1.874 2.331 5.003 5.003 0 0 0 6.416-.647 5.246 5.246 0 0 0 1.487-3.668Z" fill="#ED634D"/></svg>