<svg width="93" height="60" fill="none" xmlns="http://www.w3.org/2000/svg"><path d="M87.879 18.578c-.092 4.605-.311 9.182-.564 13.813-.098 1.633 2.752 1.878 2.958.239.988-8.183 1.27-16.43.846-24.657.361-1.788.69-3.485.925-5.267.07-.335.025-.683-.126-.991A1.584 1.584 0 0 0 91.207 1a1.636 1.636 0 0 0-1.908.324l-.327.335c-.356.05-.685.217-.934.472L71.406 19.538c-1.425 1.488.96 3.596 2.403 2.125l13.989-14.3.04.794c-8.486 37.59-49.181 60.66-86.648 43.327a.721.721 0 0 0-.54-.04.707.707 0 0 0-.412.345.68.68 0 0 0-.042.529.69.69 0 0 0 .352.402c34.866 18.456 74.043-1.05 87.33-34.142Z" fill="#ED634D"/></svg>