<svg width="132" height="88" fill="none" xmlns="http://www.w3.org/2000/svg"><path d="M6.415 61.927c-.036-6.652.115-13.268.312-19.964.082-2.361-4.043-2.611-4.28-.238a207.713 207.713 0 0 0-.324 35.631c-.457 2.594-.87 5.058-1.145 7.638-.088.487-.01.988.219 1.427.229.439.598.792 1.052 1.007a2.363 2.363 0 0 0 2.743-.538l.46-.495a2.344 2.344 0 0 0 1.33-.716l23.382-25.737c2.003-2.2-1.516-5.158-3.548-2.981L6.94 78.116l-.087-1.145C17.738 22.388 75.654-12.401 130.38 11.262c.245.114.526.128.781.039a1.02 1.02 0 0 0 .582-.514.978.978 0 0 0 .042-.764 1.003 1.003 0 0 0-.522-.569C80.25-15.924 24.396 13.665 6.415 61.927Z" fill="#ED634D"/></svg>