<svg width="89" height="55" fill="none" xmlns="http://www.w3.org/2000/svg"><path d="m5.863 3.212.008-.412a.779.779 0 0 1 .289-.593.767.767 0 0 1 .642-.15c.089-.161.217-.302.345-.442.059-.063.117-.127.171-.193.403-.5 1.082-.164 1.293.32l3.91 9.476c.347.817-.949 1.337-1.38.602a2273.977 2273.977 0 0 1-3.763-6.3c.064 8.64 1.047 16.78 6.252 24.198a55.924 55.924 0 0 0 22.702 18.54c17.048 7.592 37.135 5.349 51.143-7.176.269-.238.674.146.404.403-13.502 12.924-33.716 15.672-50.856 8.574a57.472 57.472 0 0 1-23.837-18.495C7.274 23.644 6 15.056 5.89 5.646L2 10.478c-.634.779-1.744-.313-1.121-1.088l4.984-6.178Z" fill="#00344E" stroke="#00344E"/></svg>