<svg width="98" height="98" fill="none" xmlns="http://www.w3.org/2000/svg"><path d="M89.58 0H7.96A7.96 7.96 0 0 0 0 7.96v81.62a7.96 7.96 0 0 0 7.96 7.96h81.62a7.96 7.96 0 0 0 7.96-7.96V7.96A7.96 7.96 0 0 0 89.58 0Z" fill="#00344E"/><path d="M22.16 62.51a1.001 1.001 0 0 0 .58-1.35 28.62 28.62 0 0 1 44.25-33l-4.53.65a.999.999 0 0 0-.88 1.17 1 1 0 0 0 1 .89h.22l6.76-1a1 1 0 0 0 .83-.73.76.76 0 0 0 .05-.3.33.33 0 0 0 0-.14l-.16-6.68a1.002 1.002 0 0 0-1.06-1 .999.999 0 0 0-1 1.06l.11 4.47A30.7 30.7 0 0 0 20.8 61.92a1 1 0 0 0 1 .66c.123-.003.245-.027.36-.07ZM73.8 32.12a1.038 1.038 0 0 0-1.65 1.26A28.31 28.31 0 0 1 78 50.71a28.61 28.61 0 0 1-52.57 15.65h4.71a1.04 1.04 0 0 0 0-2.08h-6.82a1 1 0 0 0-1 .92l-.75 6.79a1 1 0 0 0 .91 1.14h.12a1 1 0 0 0 1-.92l.46-4.21A30.69 30.69 0 1 0 73.8 32.12Zm-54.08 1.43a1.72 1.72 0 1 0 0-3.44 1.72 1.72 0 0 0 0 3.44Zm59.59 42.78h-1.7v-1.7a1.035 1.035 0 0 0-2.07 0v1.7H73.8a1.035 1.035 0 1 0 0 2.07h1.7v1.72a1.035 1.035 0 1 0 2.07 0v-1.69h1.7a1.035 1.035 0 0 0 0-2.07l.04-.03Z" fill="#fff"/><path d="M48.46 71.12h.51a.85.85 0 0 0 1-1v-4.28a11.492 11.492 0 0 0 3.83-.72 9.91 9.91 0 0 0 3-1.8 8 8 0 0 0 2-2.68 8.13 8.13 0 0 0 .7-3.41 6.69 6.69 0 0 0-1.32-4.3 11.32 11.32 0 0 0-3.29-2.79 25.72 25.72 0 0 0-4.31-1.94 40.559 40.559 0 0 1-4.31-1.78 12.54 12.54 0 0 1-3.29-2.25 4.56 4.56 0 0 1-1.33-3.44 5.998 5.998 0 0 1 .62-2.81A5.32 5.32 0 0 1 43.96 36a7.68 7.68 0 0 1 2.4-1.07 11.44 11.44 0 0 1 2.78-.33c1.582-.056 3.158.23 4.62.84a13.96 13.96 0 0 1 2.65 1.52 1 1 0 0 0 1.35-.11l.34-.4a1 1 0 0 0-.12-1.35 13.13 13.13 0 0 0-2.62-1.57 13.701 13.701 0 0 0-4.7-1.19v-3.77a.85.85 0 0 0-1-1h-.51a.85.85 0 0 0-1 1v3.77c-1.2.11-2.382.364-3.52.76a8.55 8.55 0 0 0-4.77 4.34 8.069 8.069 0 0 0-.73 3.55 6.49 6.49 0 0 0 1.32 4.22 11.137 11.137 0 0 0 3.29 2.73 29.407 29.407 0 0 0 4.31 1.95c1.56.56 3 1.15 4.31 1.77a11.811 11.811 0 0 1 3.29 2.23 4.521 4.521 0 0 1 1.33 3.37 5.85 5.85 0 0 1-.62 2.76 6 6 0 0 1-1.69 2 7.2 7.2 0 0 1-2.45 1.21c-.943.27-1.92.405-2.9.4a11.64 11.64 0 0 1-3.32-.45 13.86 13.86 0 0 1-2.71-1.1c-.71-.383-1.38-.836-2-1.35-.57-.47-1-.88-1.36-1.21a.9.9 0 0 0-1.35-.12l-.45.4a.82.82 0 0 0-.05 1.35c.402.441.833.855 1.29 1.24a13.8 13.8 0 0 0 2 1.44c.869.512 1.783.944 2.73 1.29 1.1.392 2.246.638 3.41.73v4.27a.84.84 0 0 0 .95 1Z" fill="#fff"/></svg>