<svg width="98" height="98" fill="none" xmlns="http://www.w3.org/2000/svg"><path d="M89.58 0H7.96A7.96 7.96 0 0 0 0 7.96v81.62a7.96 7.96 0 0 0 7.96 7.96h81.62a7.96 7.96 0 0 0 7.96-7.96V7.96A7.96 7.96 0 0 0 89.58 0Z" fill="#96DBD3"/><path d="m82.335 56.985-4.12 1.74a30.689 30.689 0 0 0-50.4-31.08 1 1 0 0 0 0 1.46 1 1 0 0 0 1.47 0 28.62 28.62 0 0 1 47 29l-2.27-4a1 1 0 0 0-1.41-.39 1 1 0 0 0-.39 1.41l3.39 5.93a1 1 0 0 0 .9.52h.05c.16-.002.316-.04.46-.11l6.17-2.62a1.035 1.035 0 1 0-.8-1.91l-.05.05Zm-7.63 7.52a1 1 0 0 0-1.42.35 28.608 28.608 0 0 1-48.286 1.154 28.61 28.61 0 0 1 .426-32.444l1.77 4.36a1 1 0 0 0 1 .65.997.997 0 0 0 .38-.08 1 1 0 0 0 .58-1.35l-2.57-6.32a1 1 0 0 0-1.23-.61l-6.58 1.8a1 1 0 0 0-.73 1.27 1 1 0 0 0 1.27.72l4.09-1.11a30.68 30.68 0 1 0 51.7 33 .998.998 0 0 0-.4-1.39Z" fill="#00344E"/><path d="M20.835 72.165a1.72 1.72 0 1 0 0-3.44 1.72 1.72 0 0 0 0 3.44Zm49.5-50.36h1.7v1.7a1.035 1.035 0 0 0 2.07 0v-1.7h1.7a1.035 1.035 0 0 0 0-2.07h-1.7v-1.7a1.035 1.035 0 1 0-2.07 0v1.7h-1.7a1.035 1.035 0 1 0 0 2.07Zm-33.26 40.59a.86.86 0 0 0-1 1v.29a.86.86 0 0 0 1 1h23.93a.86.86 0 0 0 1-1v-.29a.86.86 0 0 0-1-1h-18.81v-11.72h12.73a.85.85 0 0 0 1-1v-.29a.86.86 0 0 0-1-1h-12.73v-6.56a7.998 7.998 0 0 1 .56-3 7.24 7.24 0 0 1 1.69-2.5 8.169 8.169 0 0 1 2.79-1.74 10.619 10.619 0 0 1 3.86-.64 10.78 10.78 0 0 1 4 .67c.88.332 1.727.747 2.53 1.24a.931.931 0 0 0 1.35-.17l.34-.39c.49-.53.43-1-.17-1.35a22.747 22.747 0 0 0-3.07-1.43 14.56 14.56 0 0 0-9.49-.07 10.539 10.539 0 0 0-3.57 2.1 9.469 9.469 0 0 0-2.34 3.16 9.12 9.12 0 0 0-.84 3.88v6.77h-1.64a.85.85 0 0 0-1 1v.29c0 .66.31 1 1 1h1.64v11.72l-2.76.03Z" fill="#00344E"/></svg>