<svg width="251" height="75" fill="none" xmlns="http://www.w3.org/2000/svg"><path d="M226.608 47.913c-4.173 7.156-8.609 14.122-13.166 21.136-1.627 2.464 4.558 6.062 6.432 3.711 9.266-11.784 17.006-24.466 23.139-37.91 2.351-2.412 4.553-4.716 6.615-7.26.443-.45.644-1.049.57-1.705-.074-.655-.418-1.332-.979-1.929a5.526 5.526 0 0 0-2.134-1.374c-.823-.295-1.675-.389-2.426-.265l-1.022.16c-.843-.321-1.724-.43-2.502-.308L188.82 30.86c-4.479.74-.945 6.75 3.562 6.059l43.706-6.775-.594 1.297C184.069 81.13 72.888 71.63 3.755 2.084a2.464 2.464 0 0 0-1.176-.672c-.45-.11-.89-.082-1.222.08-.332.162-.53.445-.55.786-.02.34.139.711.442 1.03 62.331 68.385 167.036 81.79 225.359 44.605Z" fill="#ED634D" stroke="#ED634D"/></svg>