<svg fill="none" xmlns="http://www.w3.org/2000/svg" viewBox="0 0 161 232"><path d="M-11.92 10.853a36.187 36.187 0 0 0-29.879 16.3c-7.734 12.02-7.603 27.485-13.401 40.549-7.521 16.945-23.974 27.913-35.68 42.284-13.945 17.123-20.885 38.742-27.525 59.809-4.414 13.985-8.869 28.85-5.282 43.077 4.852 19.418 26.092 33.173 45.794 29.652 33.426-5.968 47.807-50.06 80.336-59.784 16.86-5.017 36.65.023 51.379-9.593 17.454-11.397 18.079-36.363 15.83-57.098-1.708-15.767-3.964-31.459-6.22-47.15-1.825-12.713-3.886-26.029-11.614-36.316-9.562-12.67-18.732-9.237-31.628-10.764C8.823 20.459.744 10.829-11.89 10.82" fill="#356D82"/><path d="M92.832 153.845c-10.268-5.293-21.843-8-31.52-14.316-13.042-8.524-21.17-22.577-30.912-34.745-9.745-12.167-23.34-23.48-38.894-22.516-20.733 1.292-33.392 22.691-42.34 41.437l-28.523 59.78c-5.05 10.572-10.228 22.221-7.569 33.607 3.367 14.504 17.979 23.17 31.56 29.277 53.928 24.241 200.489 70.102 184.834-40.953-3.057-21.688-17.177-41.532-36.637-51.571z" fill="#AADCD8"/><path d="M99.651 185.289a3.42 3.42 0 1 0-6.84-.006 3.42 3.42 0 0 0 6.84.006zm20.167 0a3.413 3.413 0 0 0-4.085-3.358 3.422 3.422 0 0 0-1.235 6.199 3.418 3.418 0 0 0 4.318-.424 3.42 3.42 0 0 0 1.002-2.417zm20.163 0a3.419 3.419 0 0 0-4.087-3.357 3.422 3.422 0 0 0-1.232 6.199 3.417 3.417 0 0 0 5.319-2.842zm20.165 0a3.421 3.421 0 1 0-5.321 2.841 3.418 3.418 0 0 0 4.318-.424 3.425 3.425 0 0 0 1.003-2.417zm-60.495 20.154a3.422 3.422 0 0 0-4.087-3.354 3.423 3.423 0 0 0-2.493 4.663 3.421 3.421 0 0 0 6.58-1.309zm20.167 0a3.42 3.42 0 1 0-6.84 0 3.42 3.42 0 0 0 6.84 0zm20.163 0a3.421 3.421 0 1 0-6.842.003 3.421 3.421 0 0 0 6.842-.003zm20.165 0a3.421 3.421 0 1 0-6.842.003 3.421 3.421 0 0 0 6.842-.003zm-60.495 20.173a3.417 3.417 0 0 0-2.111-3.16 3.42 3.42 0 1 0 2.111 3.16zm20.167 0a3.415 3.415 0 0 0-2.111-3.16 3.419 3.419 0 0 0-3.209 6.004 3.42 3.42 0 0 0 5.32-2.844zm20.163 0a3.422 3.422 0 0 0-5.84-2.418 3.417 3.417 0 0 0-.74 3.728 3.422 3.422 0 0 0 6.58-1.31zm20.165 0a3.416 3.416 0 0 0-2.112-3.16 3.419 3.419 0 0 0-3.209 6.004 3.42 3.42 0 0 0 5.321-2.844z" fill="#1C6E83"/></svg>