<svg xmlns="http://www.w3.org/2000/svg" viewBox="0 0 62 62"><path fill="#003350" d="M30.953 61.93a30.83 30.83 0 0 1-21.69-8.86 1.153 1.153 0 0 1 1.62-1.64 28.68 28.68 0 0 0 42-2 1.16 1.16 0 1 1 1.77 1.5 30.92 30.92 0 0 1-23.7 11m26.908-16.879a1.131 1.131 0 0 1-1.084-.77 1.15 1.15 0 0 1 .054-.88 28.76 28.76 0 0 0-1.19-27.07 1.161 1.161 0 1 1 2-1.18 31 31 0 0 1 1.31 29.25 1.16 1.16 0 0 1-1 .65M6.946 14.5a1.19 1.19 0 0 1-.69-.23 1.15 1.15 0 0 1-.24-1.61 31 31 0 0 1 45.8-4.64 1.154 1.154 0 1 1-1.55 1.71 28.67 28.67 0 0 0-42.39 4.3 1.18 1.18 0 0 1-.93.47M4.69 46.21a1.15 1.15 0 0 1-1-.61A31 31 0 0 1 0 30.93a30.69 30.69 0 0 1 3.21-13.75 1.16 1.16 0 0 1 2.07 1 28.37 28.37 0 0 0-3 12.72 28.7 28.7 0 0 0 3.39 13.54 1.14 1.14 0 0 1-1 1.7"/><path fill="#003350" d="M30.417 43.5a11.65 11.65 0 0 1-6.27-2.05 9.05 9.05 0 0 1-3.22-4.29.92.92 0 0 1 .43-1.13l.27-.14a.89.89 0 0 1 1.25.52 7.12 7.12 0 0 0 2.4 3.32 9.86 9.86 0 0 0 5.14 2V30.62a32.704 32.704 0 0 1-4.66-1.26 7.29 7.29 0 0 1-3-2.05 5.43 5.43 0 0 1-1.21-3.72 6.9 6.9 0 0 1 1.06-3.72 7.68 7.68 0 0 1 3.1-2.76 11 11 0 0 1 4.74-1.13v-3.32a.9.9 0 1 1 1.8 0v3.32a10 10 0 0 1 5.37 1.65 9.32 9.32 0 0 1 3 3.65.92.92 0 0 1-.24 1.11l-.19.15a.91.91 0 0 1-1.39-.35 7.41 7.41 0 0 0-2.17-2.88 7.94 7.94 0 0 0-4.37-1.53v11.37c1.576.302 3.127.723 4.64 1.26a7.22 7.22 0 0 1 3 2 5.49 5.49 0 0 1 1.22 3.76 6.33 6.33 0 0 1-2.41 5.14 10.6 10.6 0 0 1-6.46 2.14v3.32a.9.9 0 1 1-1.8 0zm0-25.76a8.15 8.15 0 0 0-5.06 1.67 5 5 0 0 0-1.84 4 4 4 0 0 0 .92 2.72 5.839 5.839 0 0 0 2.35 1.59c1.185.43 2.398.781 3.63 1.05zm6.8 22.52a4.55 4.55 0 0 0 1.9-3.87 4.05 4.05 0 0 0-.92-2.74 5.81 5.81 0 0 0-2.34-1.63c-1.183-.435-2.4-.77-3.64-1v10.79a8.88 8.88 0 0 0 5-1.52z"/><path fill="#003350" d="M31.323 47.988a1.17 1.17 0 0 1-1.16-1.17v-3.07a11.871 11.871 0 0 1-6.17-2.09 9.27 9.27 0 0 1-3.31-4.41 1.18 1.18 0 0 1 .55-1.45l.28-.14a1.1 1.1 0 0 1 .94-.05 1.2 1.2 0 0 1 .69.72 6.86 6.86 0 0 0 2.3 3.19 9.59 9.59 0 0 0 4.72 1.92v-10.61a33.123 33.123 0 0 1-4.49-1.22 7.58 7.58 0 0 1-3.14-2.12 5.73 5.73 0 0 1-1.28-3.9 7.16 7.16 0 0 1 1.11-3.86 8 8 0 0 1 3.19-2.86 11.27 11.27 0 0 1 4.61-1.14v-3.07a1.17 1.17 0 1 1 2.33 0v3.07a10.16 10.16 0 0 1 5.26 1.69 9.5 9.5 0 0 1 3.07 3.75 1.17 1.17 0 0 1-.32 1.43l-.18.15a1.171 1.171 0 0 1-1 .22 1.18 1.18 0 0 1-.81-.67 7.23 7.23 0 0 0-2.09-2.78 7.58 7.58 0 0 0-3.94-1.45v10.86c1.517.3 3.011.708 4.47 1.22a7.61 7.61 0 0 1 3.11 2.12 5.78 5.78 0 0 1 1.28 3.94 6.61 6.61 0 0 1-2.5 5.35 10.79 10.79 0 0 1-6.36 2.18v3.07a1.17 1.17 0 0 1-1.17 1.17zm-9.3-11.94a.579.579 0 0 0-.28.07l-.27.14a.66.66 0 0 0-.3.8 8.75 8.75 0 0 0 3.13 4.16 11.33 11.33 0 0 0 6.13 2h.25v3.57a.63.63 0 0 0 1.26 0v-3.58h.26a10.4 10.4 0 0 0 6.3-2.07 6.1 6.1 0 0 0 2.31-4.94 5.3 5.3 0 0 0-1.15-3.59 7.1 7.1 0 0 0-2.9-2 32.734 32.734 0 0 0-4.6-1.25h-.22v-11.87h.29a8.26 8.26 0 0 1 4.51 1.59 7.85 7.85 0 0 1 2.26 3 .63.63 0 0 0 .44.37.59.59 0 0 0 .54-.12l.18-.14a.66.66 0 0 0 .17-.79 9 9 0 0 0-2.9-3.55 9.9 9.9 0 0 0-5.23-1.6h-.26v-3.57a.63.63 0 0 0-1.26 0v3.58h-.26a10.64 10.64 0 0 0-4.63 1.1 7.41 7.41 0 0 0-3 2.66 6.71 6.71 0 0 0-1 3.58 5.23 5.23 0 0 0 1.15 3.55 7.11 7.11 0 0 0 2.92 2c1.512.528 3.059.945 4.63 1.25h.21v11.64h-.3a10.251 10.251 0 0 1-5.27-2.07 7.39 7.39 0 0 1-2.49-3.44.67.67 0 0 0-.37-.4.618.618 0 0 0-.23 0zm9.94 6.08v-11.46l.33.06c1.252.232 2.483.566 3.68 1a6.19 6.19 0 0 1 2.44 1.7 4.3 4.3 0 0 1 1 2.92 4.819 4.819 0 0 1-2 4.08 9.23 9.23 0 0 1-5.15 1.58zm.54-.56a8.38 8.38 0 0 0 4.57-1.46 4.23 4.23 0 0 0 1.79-3.65 3.8 3.8 0 0 0-.85-2.57 5.64 5.64 0 0 0-2.24-1.55 22.102 22.102 0 0 0-3.27-.95zm-1.8-12.39-.33-.07a27.425 27.425 0 0 1-3.67-1.06 6.16 6.16 0 0 1-2.45-1.66 4.26 4.26 0 0 1-1-2.9 5.28 5.28 0 0 1 1.93-4.21 8.45 8.45 0 0 1 5.22-1.74h.28zm-.53-11.09a7.75 7.75 0 0 0-4.63 1.59 4.72 4.72 0 0 0-1.74 3.81 3.77 3.77 0 0 0 .85 2.55 5.561 5.561 0 0 0 2.24 1.51c1.07.405 2.166.74 3.28 1zM9.605 59.98a1.14 1.14 0 0 1-1.14-1l-.75-7.51a1.16 1.16 0 0 1 1-1.26l7.72-1.11a1.17 1.17 0 0 1 1.283 1.452 1.15 1.15 0 0 1-.973.848l-6.63 1 .63 6.41a1.15 1.15 0 0 1-1 1.26h-.12M43.67 10.85a1.16 1.16 0 0 1-1.15-1.15 1.14 1.14 0 0 1 1.14-1.16l6.7-.05.24-6.44a1.16 1.16 0 0 1 2.31.08l-.28 7.55a1.16 1.16 0 0 1-1.15 1.11l-7.8.06zM14.507 21h-5.64a.87.87 0 0 1 0-1.73h5.64a.87.87 0 0 1 0 1.73"/><path fill="#003350" d="M11.695 23.823a.87.87 0 0 1-.87-.86v-5.64a.87.87 0 1 1 1.73 0v5.61a.86.86 0 0 1-.86.86M52.49 43.59a1.47 1.47 0 1 1-2.94.02 1.47 1.47 0 0 1 2.94-.02"/></svg>