<svg fill="none" viewBox="0 0 612 676" xmlns="http://www.w3.org/2000/svg"><mask id="a" fill="#fff"><path d="M105.009 260.717c8.489-16.588 21.135-30.897 27.884-48.306 9.095-23.481 6.518-49.826 7.832-75.134 1.314-25.307 8.502-53.032 29.841-66.104 28.443-17.42 65.244-.44 94.67 16.424l93.83 53.77c16.598 9.516 34.36 20.308 41.627 38.062 9.239 22.566-1.761 47.662-13.842 68.393-47.94 82.321-197.171 279.186-281.325 115.867-16.428-31.905-16.612-71.535-.517-102.972z"/></mask><path d="M3.093 403.384c1.739 31.071 19.815 60.836 46.396 76.374 32.095 18.77 71.908 16.436 106.409 29.986 44.745 17.575 75.41 59.361 114.171 88.262 46.159 34.424 102.859 49.868 158.084 64.613 36.675 9.795 75.619 19.574 111.738 8.413 49.302-15.235 81.58-72.767 69.608-124.062-20.311-86.995-136.062-119.062-165.835-203.26-15.412-43.625-5.372-96.229-32.31-133.681-31.925-44.363-96.359-42.793-149.387-34.237-40.336 6.508-80.43 14.442-120.501 22.382-32.476 6.426-66.448 13.556-91.735 35.156-31.22 26.671-20.983 50.353-23.041 84.419-1.822 30.024-25.441 52.478-23.586 85.646" fill="#f6f5f5"/><path d="m132.893 212.411.933.361zm37.673-141.238-.522-.853zm94.67 16.424-.497.868zm93.83 53.77.497-.868zm41.627 38.062-.925.379zm-13.842 68.393-.864-.504-.001.001zM105.526 363.689l-.889.457v.001zm.373-102.516c4.215-8.236 9.458-15.9 14.544-23.758 5.07-7.833 9.968-15.835 13.383-24.643l-1.865-.723c-3.335 8.602-8.135 16.459-13.197 24.279-5.047 7.797-10.371 15.581-14.645 23.934zm27.927-48.401c4.603-11.884 6.24-24.462 6.9-37.191.329-6.365.415-12.784.5-19.176.085-6.399.17-12.771.498-19.076l-1.998-.103c-.329 6.349-.415 12.76-.5 19.152-.085 6.399-.17 12.779-.498 19.099-.654 12.641-2.276 24.976-6.767 36.573zm7.898-75.443c1.311-25.256 8.48-52.51 29.365-65.303l-1.045-1.706c-21.795 13.35-29.001 41.546-30.318 66.906zm29.365-65.303c13.906-8.518 29.91-8.667 46.197-4.528 16.296 4.14 32.756 12.544 47.453 20.967l.995-1.736c-14.729-8.44-31.383-16.96-47.955-21.17-16.581-4.212-33.199-4.142-47.735 4.761zm93.65 16.439 93.83 53.769.994-1.735-93.829-53.77zm93.829 53.769c16.651 9.547 34.083 20.187 41.2 37.574l1.851-.758c-7.418-18.121-25.51-29.065-42.056-38.551zm41.2 37.574c4.511 11.02 4.101 22.699 1.032 34.249-3.071 11.557-8.789 22.923-14.813 33.261l1.728 1.007c6.056-10.393 11.879-21.94 15.018-33.755 3.142-11.822 3.613-23.974-1.114-35.52zm-13.782 67.511c-23.946 41.119-73.154 110.773-126.805 149.742-26.831 19.489-54.614 31.187-80.817 28.007-26.131-3.17-51.001-21.184-71.949-61.837l-1.778.916c21.13 41.006 46.471 59.629 73.487 62.907 26.944 3.269 55.244-8.772 82.232-28.375 53.988-39.213 103.365-109.152 127.359-150.354zM106.415 363.231c-16.284-31.623-16.461-70.913-.516-102.058l-1.78-.911c-16.244 31.728-16.055 71.698.518 103.884z" fill="#b5dcd9" mask="url(#a)"/></svg>