<svg viewBox="0 0 416 384" xmlns="http://www.w3.org/2000/svg"><path d="M151.623 291.699c.768-19.024-6.588-37.677-9.012-56.632s1.438-40.42 19.257-52.015c16.708-10.861 41.692-10.412 56.952-22.69 16.118-12.963 15.604-35.396 29.72-49.91 16.622-17.097 46.83-17.723 72.248-23.684 36.565-8.547 66.38-29.992 94.92-50.827 6.757-4.937 14.188-11.57 11.848-18.904-2.573-8.04-14.625-10.418-24.478-11.306l-235.66-21.179c-35.347-3.176-74.412-5.568-102.702 12.075C31.742 17.192 26.617 56.298 24.232 90.9c-3.105 45.106-6.212 90.213-9.32 135.32-1.71 24.846-3.395 50.017 2.423 74.507 6.404 26.951 28.11 72.933 67.975 62.925 36.392-9.111 65.034-40.14 66.32-71.97" fill="#f6f5f5"/><path d="M239.53 233.454a30.885 30.885 0 0 0-4.802-28.633c-7.529-9.586-20.026-13.793-28.935-22.111-11.529-10.784-15.806-27.11-24.122-40.554-9.909-16.016-25.393-27.64-40.516-38.867-10.038-7.459-20.773-15.194-33.236-16.272-17-1.502-34.005 11.784-36.663 28.65-4.512 28.61 27.004 52.5 25.77 81.434-.66 14.99-10.24 29.539-6.599 44.093 4.316 17.25 24.258 24.715 41.592 28.684 13.181 3.02 26.454 5.578 39.727 8.135 10.753 2.073 22.057 4.125 32.5.763 12.876-4.175 12.667-12.525 17.494-22.495 4.265-8.784 14.278-12.61 17.808-22.795" fill="#abded9"/><g fill="#1c6e85"><path d="M196.55 302.876a6.774 6.774 0 1 0-13.55-.003 6.774 6.774 0 0 0 13.55.003"/><path d="M210.1 302.876a6.775 6.775 0 1 0-13.55-.003 6.775 6.775 0 0 0 13.55.003"/><path d="M223.65 302.876a6.775 6.775 0 1 0-13.55-.003 6.775 6.775 0 0 0 13.55.003m-27.1-13.55a6.774 6.774 0 1 0-13.55-.003 6.774 6.774 0 0 0 13.55.003"/><path d="M210.1 289.326a6.775 6.775 0 1 0-13.55-.003 6.775 6.775 0 0 0 13.55.003"/><path d="M223.65 289.326a6.775 6.775 0 1 0-13.55-.003 6.775 6.775 0 0 0 13.55.003zm-27.1-13.551a6.775 6.775 0 1 0-13.55 0 6.775 6.775 0 0 0 13.55 0"/><path d="M210.1 275.775a6.775 6.775 0 1 0-13.55 0 6.775 6.775 0 0 0 13.55 0z"/><path d="M223.65 275.775a6.775 6.775 0 1 0-13.55 0 6.775 6.775 0 0 0 13.55 0"/></g></svg>