<svg xmlns="http://www.w3.org/2000/svg" viewBox="0 0 37 39"><g fill="currentColor"><path d="m27.877 25.344-5.198-1.256a.524.524 0 0 1-.275-.468v-3.405a7.02 7.02 0 0 0 2.863-5.651V8.94h-1.59v5.63a5.448 5.448 0 0 1-10.896 0V8.94H11.19v5.63a7.037 7.037 0 0 0 3.52 6.086v2.961a.523.523 0 0 1-.275.468l-5.198 1.257a7.811 7.811 0 0 0-6.006 7.615v5.225a.797.797 0 0 0 1.592 0v-5.225a6.224 6.224 0 0 1 4.775-6.067l5.266-1.273a.78.78 0 0 0 .113-.036 2.104 2.104 0 0 0 1.32-1.96v-2.286a6.941 6.941 0 0 0 4.515-.223v2.508a2.103 2.103 0 0 0 1.32 1.96.901.901 0 0 0 .113.037l5.267 1.273a6.224 6.224 0 0 1 4.777 6.067v4.634a.795.795 0 1 0 1.59 0v-4.634a7.81 7.81 0 0 0-5.993-7.613M1.59 22.14A16.57 16.57 0 0 1 7.735 9.232a.796.796 0 0 0-1.004-1.235 18.23 18.23 0 0 0-5.3 21.231.792.792 0 0 0 1.043.42.797.797 0 0 0 .42-1.041 16.517 16.517 0 0 1-1.306-6.469M27.92 6.733a.795.795 0 0 0-.85 1.345 16.652 16.652 0 0 1 6.876 19.435.794.794 0 0 0 1.216.9.795.795 0 0 0 .288-.397 18.23 18.23 0 0 0-7.53-21.283"/><path d="M10.65 38.758a2.412 2.412 0 0 1-2.41-2.41V33.44a2.412 2.412 0 0 1 2.41-2.409h14.143a2.412 2.412 0 0 1 2.409 2.41v2.909a2.412 2.412 0 0 1-2.41 2.409zm0-5.954a.638.638 0 0 0-.636.635v2.91a.638.638 0 0 0 .635.64h14.144a.638.638 0 0 0 .635-.635V33.44a.638.638 0 0 0-.635-.635zm-.714-19.306H9.91a.888.888 0 0 1-.86-.913c.107-3.787 1.413-4.422 1.968-4.52.058-.01.116-.014.174-.015 8.377.185 10.973-3.575 11-3.621a.888.888 0 0 1 1.493.96c-.118.186-3.025 4.562-12.26 4.44-.16.199-.55.87-.6 2.809a.888.888 0 0 1-.887.86"/><path d="M25.811 10.715a.888.888 0 0 1-.841-.605c-.427-.45-2.803-1.375-5.182-2.024a.888.888 0 1 1 .462-1.713c6.136 1.65 6.361 2.89 6.436 3.3a.891.891 0 0 1-.875 1.045z"/><path d="M27.949 24.641a.888.888 0 0 1-.888-.888V10.797a9.029 9.029 0 0 0-9.02-9.02h-.724a9.029 9.029 0 0 0-9.02 9.02v12.956a.888.888 0 1 1-1.777 0V10.797A10.808 10.808 0 0 1 17.317 0h.723a10.808 10.808 0 0 1 10.797 10.797v12.956a.888.888 0 0 1-.888.888"/><path d="m27.877 25.344-5.198-1.256a.524.524 0 0 1-.275-.468v-3.405a7.02 7.02 0 0 0 2.863-5.651V8.94h-1.59v5.63a5.448 5.448 0 0 1-10.896 0V8.94H11.19v5.63a7.037 7.037 0 0 0 3.52 6.086v2.961a.523.523 0 0 1-.275.468l-5.198 1.257a7.811 7.811 0 0 0-6.006 7.615v5.225a.797.797 0 0 0 1.592 0v-5.225a6.224 6.224 0 0 1 4.775-6.067l5.266-1.273a.78.78 0 0 0 .113-.036 2.104 2.104 0 0 0 1.32-1.96v-2.286a6.941 6.941 0 0 0 4.515-.223v2.508a2.103 2.103 0 0 0 1.32 1.96.901.901 0 0 0 .113.037l5.267 1.273a6.224 6.224 0 0 1 4.777 6.067v4.634a.795.795 0 1 0 1.59 0v-4.634a7.81 7.81 0 0 0-5.993-7.613M1.59 22.14A16.57 16.57 0 0 1 7.735 9.232a.796.796 0 0 0-1.004-1.235 18.23 18.23 0 0 0-5.3 21.231.792.792 0 0 0 1.043.42.797.797 0 0 0 .42-1.041 16.517 16.517 0 0 1-1.306-6.469M27.92 6.733a.795.795 0 0 0-.85 1.345 16.652 16.652 0 0 1 6.876 19.435.794.794 0 0 0 1.216.9.795.795 0 0 0 .288-.397 18.23 18.23 0 0 0-7.53-21.283"/><path d="M10.65 38.758a2.412 2.412 0 0 1-2.41-2.41V33.44a2.412 2.412 0 0 1 2.41-2.409h14.143a2.412 2.412 0 0 1 2.409 2.41v2.909a2.412 2.412 0 0 1-2.41 2.409zm0-5.954a.638.638 0 0 0-.636.635v2.91a.638.638 0 0 0 .635.64h14.144a.638.638 0 0 0 .635-.635V33.44a.638.638 0 0 0-.635-.635zm-.714-19.306H9.91a.888.888 0 0 1-.86-.913c.107-3.787 1.413-4.422 1.968-4.52.058-.01.116-.014.174-.015 8.377.185 10.973-3.575 11-3.621a.888.888 0 0 1 1.493.96c-.118.186-3.025 4.562-12.26 4.44-.16.199-.55.87-.6 2.809a.888.888 0 0 1-.887.86"/><path d="M25.811 10.715a.888.888 0 0 1-.841-.605c-.427-.45-2.803-1.375-5.182-2.024a.888.888 0 1 1 .462-1.713c6.136 1.65 6.361 2.89 6.436 3.3a.891.891 0 0 1-.875 1.045z"/><path d="M27.949 24.641a.888.888 0 0 1-.888-.888V10.797a9.029 9.029 0 0 0-9.02-9.02h-.724a9.029 9.029 0 0 0-9.02 9.02v12.956a.888.888 0 1 1-1.777 0V10.797A10.808 10.808 0 0 1 17.317 0h.723a10.808 10.808 0 0 1 10.797 10.797v12.956a.888.888 0 0 1-.888.888"/></g></svg>