<svg xmlns="http://www.w3.org/2000/svg" viewBox="0 0 53 60"><path fill="#003350" d="M40.52 34.754a11.34 11.34 0 0 1 8.7 11v9.91a1.16 1.16 0 0 1-2.31 0v-9.91a9 9 0 0 0-6.93-8.81l-7.64-1.84-.16-.06a3 3 0 0 1-1.92-2.84v-3.64a10.14 10.14 0 0 1-3.75.72 10 10 0 0 1-2.8-.4v3.32a3.06 3.06 0 0 1-1.91 2.84l-.17.06-7.64 1.84a9 9 0 0 0-6.93 8.81v10.79a1.15 1.15 0 1 1-2.3 0v-10.78a11.33 11.33 0 0 1 8.69-11l7.54-1.82a.771.771 0 0 0 .42-.68v-4.3a10.21 10.21 0 0 1-5.11-8.83v-5.3c-2.42-.47-2.89-1.19-3.07-1.92-.36-1.45 1.1-2.49 2.93-3.38a7.12 7.12 0 0 1 1.53-5.56c2.23-2.6 6.53-3.5 12.79-2.68 7.45.98 6.57 8.57 6.24 11.43a1.16 1.16 0 0 1-.19.5c.04.063.073.13.1.2v.08a1.42 1.42 0 0 1 0 .2v6.36a10.2 10.2 0 0 1-4.15 8.2v4.93a.76.76 0 0 0 .41.68l7.54 1.82zm-22.61-24.5c-.728.3-1.425.672-2.08 1.11 2.04.67 9.06.98 18.59.4a1.129 1.129 0 0 1 0-.32c.68-5.87-.55-8.39-4.24-8.87-5.34-.71-9.06-.06-10.73 1.88a5.21 5.21 0 0 0-.89 4.42 1.17 1.17 0 0 1-.64 1.38zm.57 8.8a7.91 7.91 0 1 0 15.81 0v-5c-1.85.1-5.53.29-9.22.29h-.3c-2.61 0-4.62-.08-6.17-.22v5z"/><path fill="#003350" d="M35.77 46.84a.87.87 0 0 1 .48 1.48l-4.28 4.17 1 5.89a.86.86 0 0 1-.34.85.879.879 0 0 1-.91.06l-5.29-2.78-5.29 2.78a.79.79 0 0 1-.4.1.86.86 0 0 1-.51-.16.88.88 0 0 1-.34-.85l1-5.89-4.28-4.17a.87.87 0 0 1 .48-1.48l5.91-.85 2.65-5.36a.84.84 0 0 1 .77-.48.86.86 0 0 1 .78.48l2.64 5.36 5.91.85zm-2 1.46-4.63-.67a.88.88 0 0 1-.65-.47l-2.07-4.19-2.07 4.19a.86.86 0 0 1-.65.47l-4.63.67 3.35 3.25a.85.85 0 0 1 .25.77l-.79 4.6 4.14-2.17a.84.84 0 0 1 .8 0l4.16 2.19-.79-4.6a.87.87 0 0 1 .25-.77zM2.3 30.04a24 24 0 0 1 8.92-18.72 1.155 1.155 0 0 0-1.46-1.79 26.48 26.48 0 0 0-7.69 30.8 1.16 1.16 0 0 0 1.07.7 1.15 1.15 0 0 0 1.06-1.6 23.91 23.91 0 0 1-1.9-9.39M40.499 7.684a1.174 1.174 0 1 0-1.23 2 24.13 24.13 0 0 1 10 28.2 1.16 1.16 0 0 0 .72 1.46c.123.04.251.06.38.06a1.15 1.15 0 0 0 1.09-.78 26.49 26.49 0 0 0-10.94-30.89"/></svg>