<svg fill="none" xmlns="http://www.w3.org/2000/svg" viewBox="0 0 37 37"><path d="M18.508 36A17.5 17.5 0 1 0 1 18.5 17.519 17.519 0 0 0 18.497 36h.011zm-.01-33.89A16.382 16.382 0 1 1 2.114 18.49 16.398 16.398 0 0 1 18.497 2.11z" fill="currentColor"/><path d="M18.508 36A17.5 17.5 0 1 0 1 18.5 17.519 17.519 0 0 0 18.508 36zm0-33.89A16.382 16.382 0 1 1 2.126 18.49 16.398 16.398 0 0 1 18.508 2.12v-.01z" stroke="currentColor" stroke-width=".5" stroke-miterlimit="10"/><path d="m19.03 9.102 2.549 4.982a.57.57 0 0 0 .181.207.598.598 0 0 0 .261.101l5.703.801c.107.016.209.06.292.128a.545.545 0 0 1 .03.834L23.92 20.03a.558.558 0 0 0-.169.5l.973 5.476a.545.545 0 0 1-.035.307.568.568 0 0 1-.197.244.598.598 0 0 1-.615.043l-5.091-2.584a.593.593 0 0 0-.537 0L13.16 26.6a.602.602 0 0 1-.617-.041.567.567 0 0 1-.198-.245.545.545 0 0 1-.034-.308l.94-5.474a.542.542 0 0 0-.169-.5l-4.127-3.876a.545.545 0 0 1 .031-.835.594.594 0 0 1 .294-.126l5.702-.801a.602.602 0 0 0 .26-.102.574.574 0 0 0 .182-.206l2.549-4.983a.57.57 0 0 1 .215-.237.6.6 0 0 1 .627-.002.57.57 0 0 1 .216.237z" stroke="currentColor" stroke-width="2" stroke-miterlimit="10"/></svg>