<svg xmlns="http://www.w3.org/2000/svg" viewBox="0 0 72 71"><path fill="#00334e" d="M46.708 59.914h-.68a11.868 11.868 0 0 1-11.856-11.855V26.38a9.132 9.132 0 1 0-18.255 0v16.444a1.362 1.362 0 0 1-2.724 0V26.379a11.855 11.855 0 1 1 23.703 0v21.68a9.145 9.145 0 0 0 9.131 9.131h.681a9.144 9.144 0 0 0 9.131-9.13V27.733a1.362 1.362 0 0 1 2.724 0v20.325a11.868 11.868 0 0 1-11.855 11.855"/><path fill="#00334e" d="M14.558 70.902a14.55 14.55 0 1 1 14.544-14.544 14.564 14.564 0 0 1-14.544 14.544zm0-26.372a11.828 11.828 0 1 0 11.82 11.828 11.841 11.841 0 0 0-11.82-11.828zm42.893-15.428a14.551 14.551 0 1 1 14.551-14.55 14.565 14.565 0 0 1-14.55 14.55zm0-26.372A11.828 11.828 0 1 0 69.28 14.551a11.835 11.835 0 0 0-11.83-11.82z"/></svg>