<svg width="90" height="249" fill="none" xmlns="http://www.w3.org/2000/svg"><path d="M-30.49 54.085c13.478 0 26.655 4.13 37.863 11.867C18.58 73.69 27.316 84.687 32.474 97.553c5.159 12.867 6.508 27.025 3.878 40.684-2.63 13.659-9.12 26.206-18.652 36.054-9.531 9.848-21.674 16.554-34.895 19.271-13.22 2.717-26.923 1.322-39.377-4.007-12.453-5.33-23.097-14.355-30.586-25.935-7.488-11.579-11.485-25.193-11.485-39.12.019-18.669 7.206-36.568 19.983-49.769 12.776-13.2 30.1-20.626 48.17-20.646Zm0-54.085c-23.834-.002-47.132 7.298-66.95 20.977-19.817 13.68-35.263 33.123-44.385 55.872-9.122 22.75-11.509 47.783-6.861 71.934 4.649 24.151 16.125 46.336 32.976 63.748 16.852 17.413 38.323 29.271 61.698 34.076s47.604 2.34 69.623-7.083c22.02-9.423 40.84-25.381 54.08-45.855C82.934 173.195 90 149.124 90 124.5a128.087 128.087 0 0 0-9.17-47.643c-6.054-15.105-14.929-28.83-26.117-40.391C43.523 24.905 30.24 15.734 15.62 9.477A117.125 117.125 0 0 0-30.49 0Z" fill="#10334D"/></svg>