<svg width="184" height="239" fill="none" xmlns="http://www.w3.org/2000/svg"><path d="M59.723 7.909a7.69 7.69 0 0 0-1.25-4.207 7.449 7.449 0 0 0-3.325-2.79 7.265 7.265 0 0 0-4.283-.43 7.364 7.364 0 0 0-3.794 2.072 7.625 7.625 0 0 0-2.029 3.877 7.727 7.727 0 0 0 .422 4.376 7.542 7.542 0 0 0 2.73 3.399 7.299 7.299 0 0 0 6.955.702c.9-.38 1.717-.938 2.406-1.641a7.576 7.576 0 0 0 1.606-2.459 7.709 7.709 0 0 0 .562-2.9Zm61.955 0a7.686 7.686 0 0 0-1.249-4.207 7.448 7.448 0 0 0-3.326-2.79 7.264 7.264 0 0 0-4.282-.43 7.361 7.361 0 0 0-3.795 2.072 7.623 7.623 0 0 0-2.029 3.877 7.726 7.726 0 0 0 .422 4.376 7.54 7.54 0 0 0 2.73 3.399 7.3 7.3 0 0 0 4.118 1.276 7.334 7.334 0 0 0 5.241-2.218 7.66 7.66 0 0 0 2.17-5.355Zm61.956 0a7.69 7.69 0 0 0-1.25-4.209 7.45 7.45 0 0 0-3.328-2.789 7.263 7.263 0 0 0-4.283-.43 7.364 7.364 0 0 0-3.795 2.076 7.627 7.627 0 0 0-2.026 3.88 7.729 7.729 0 0 0 .425 4.376 7.538 7.538 0 0 0 2.734 3.397 7.3 7.3 0 0 0 6.955.696 7.399 7.399 0 0 0 2.403-1.643 7.594 7.594 0 0 0 1.604-2.457 7.721 7.721 0 0 0 .561-2.897ZM59.723 52.54a7.691 7.691 0 0 0-1.25-4.207 7.449 7.449 0 0 0-3.325-2.79 7.264 7.264 0 0 0-4.283-.43 7.363 7.363 0 0 0-3.794 2.072 7.625 7.625 0 0 0-2.029 3.878 7.727 7.727 0 0 0 .422 4.375 7.54 7.54 0 0 0 2.73 3.4 7.299 7.299 0 0 0 6.955.702 7.39 7.39 0 0 0 2.406-1.642 7.574 7.574 0 0 0 1.606-2.458c.372-.92.563-1.905.562-2.9Zm61.955 0a7.686 7.686 0 0 0-1.249-4.207 7.448 7.448 0 0 0-3.326-2.79 7.264 7.264 0 0 0-4.282-.43 7.36 7.36 0 0 0-3.795 2.072 7.623 7.623 0 0 0-2.029 3.878 7.726 7.726 0 0 0 .422 4.375 7.54 7.54 0 0 0 2.73 3.4 7.273 7.273 0 0 0 6.954.7 7.416 7.416 0 0 0 2.405-1.642 7.581 7.581 0 0 0 1.606-2.458 7.705 7.705 0 0 0 .564-2.898Zm61.956 0a7.69 7.69 0 0 0-1.25-4.208 7.45 7.45 0 0 0-3.328-2.79 7.263 7.263 0 0 0-4.283-.429 7.365 7.365 0 0 0-3.795 2.075 7.627 7.627 0 0 0-2.026 3.88 7.73 7.73 0 0 0 .425 4.377 7.539 7.539 0 0 0 2.734 3.397 7.3 7.3 0 0 0 6.955.695 7.397 7.397 0 0 0 2.403-1.642 7.593 7.593 0 0 0 1.604-2.457 7.72 7.72 0 0 0 .561-2.898ZM59.723 97.171a7.691 7.691 0 0 0-1.25-4.208 7.448 7.448 0 0 0-3.325-2.789 7.265 7.265 0 0 0-4.283-.43 7.364 7.364 0 0 0-3.794 2.072 7.625 7.625 0 0 0-2.029 3.878 7.726 7.726 0 0 0 .422 4.375 7.54 7.54 0 0 0 2.73 3.399 7.3 7.3 0 0 0 6.955.702 7.4 7.4 0 0 0 2.406-1.641 7.585 7.585 0 0 0 1.606-2.458c.372-.92.563-1.905.562-2.9Zm61.955 0a7.686 7.686 0 0 0-1.249-4.208 7.447 7.447 0 0 0-3.326-2.789 7.264 7.264 0 0 0-4.282-.43 7.361 7.361 0 0 0-3.795 2.072 7.624 7.624 0 0 0-2.029 3.878 7.725 7.725 0 0 0 .422 4.375 7.539 7.539 0 0 0 2.73 3.399 7.302 7.302 0 0 0 4.118 1.276 7.335 7.335 0 0 0 5.241-2.218 7.66 7.66 0 0 0 2.17-5.355Zm61.956 0a7.69 7.69 0 0 0-1.25-4.208 7.449 7.449 0 0 0-3.328-2.79 7.262 7.262 0 0 0-4.283-.429 7.363 7.363 0 0 0-3.795 2.075 7.627 7.627 0 0 0-2.026 3.88 7.73 7.73 0 0 0 .425 4.377 7.54 7.54 0 0 0 2.734 3.396 7.299 7.299 0 0 0 6.955.696 7.408 7.408 0 0 0 2.403-1.642 7.609 7.609 0 0 0 1.604-2.457c.371-.92.562-1.904.561-2.898ZM59.723 141.803a7.694 7.694 0 0 0-1.25-4.208 7.45 7.45 0 0 0-3.325-2.789 7.268 7.268 0 0 0-4.283-.431 7.357 7.357 0 0 0-3.794 2.073 7.622 7.622 0 0 0-2.029 3.877 7.729 7.729 0 0 0 .422 4.376 7.54 7.54 0 0 0 2.73 3.399 7.3 7.3 0 0 0 6.955.702 7.4 7.4 0 0 0 2.406-1.641 7.578 7.578 0 0 0 1.606-2.459 7.701 7.701 0 0 0 .562-2.899Zm61.955 0a7.689 7.689 0 0 0-1.249-4.208 7.448 7.448 0 0 0-3.326-2.789 7.268 7.268 0 0 0-4.282-.431 7.354 7.354 0 0 0-3.795 2.073 7.621 7.621 0 0 0-2.029 3.877 7.728 7.728 0 0 0 .422 4.376 7.539 7.539 0 0 0 2.73 3.399 7.302 7.302 0 0 0 4.118 1.276 7.335 7.335 0 0 0 5.241-2.218 7.661 7.661 0 0 0 2.17-5.355Zm61.956 0a7.69 7.69 0 0 0-1.25-4.209 7.453 7.453 0 0 0-3.328-2.789 7.262 7.262 0 0 0-4.283-.429 7.365 7.365 0 0 0-3.795 2.075 7.626 7.626 0 0 0-2.026 3.88 7.727 7.727 0 0 0 .425 4.376 7.537 7.537 0 0 0 2.734 3.397 7.299 7.299 0 0 0 6.955.695 7.377 7.377 0 0 0 2.403-1.642 7.587 7.587 0 0 0 1.604-2.457 7.72 7.72 0 0 0 .561-2.897ZM59.723 186.434a7.693 7.693 0 0 0-1.245-4.21 7.442 7.442 0 0 0-3.324-2.793 7.263 7.263 0 0 0-4.283-.435 7.367 7.367 0 0 0-3.797 2.07 7.63 7.63 0 0 0-2.031 3.878 7.728 7.728 0 0 0 .42 4.377 7.539 7.539 0 0 0 2.73 3.4 7.296 7.296 0 0 0 4.118 1.277 7.334 7.334 0 0 0 5.238-2.215 7.656 7.656 0 0 0 2.174-5.349Zm61.955 0a7.693 7.693 0 0 0-1.244-4.21 7.448 7.448 0 0 0-3.325-2.793 7.264 7.264 0 0 0-4.283-.435 7.366 7.366 0 0 0-3.797 2.07 7.635 7.635 0 0 0-2.031 3.878 7.732 7.732 0 0 0 .42 4.377 7.542 7.542 0 0 0 2.73 3.4 7.298 7.298 0 0 0 4.119 1.277 7.345 7.345 0 0 0 5.235-2.218 7.661 7.661 0 0 0 2.176-5.346Zm61.956 0a7.688 7.688 0 0 0-1.246-4.211 7.443 7.443 0 0 0-3.325-2.793 7.262 7.262 0 0 0-4.285-.433 7.364 7.364 0 0 0-3.797 2.073 7.618 7.618 0 0 0-2.028 3.879 7.726 7.726 0 0 0 .423 4.378 7.546 7.546 0 0 0 2.734 3.398 7.293 7.293 0 0 0 4.121 1.273 7.335 7.335 0 0 0 5.232-2.218 7.66 7.66 0 0 0 2.171-5.346ZM59.723 231.065a7.693 7.693 0 0 0-1.245-4.21 7.455 7.455 0 0 0-3.324-2.793 7.263 7.263 0 0 0-4.283-.435 7.361 7.361 0 0 0-3.797 2.071 7.627 7.627 0 0 0-2.031 3.877 7.726 7.726 0 0 0 .42 4.377 7.539 7.539 0 0 0 2.73 3.4 7.296 7.296 0 0 0 9.359-.935 7.576 7.576 0 0 0 1.607-2.455 7.707 7.707 0 0 0 .564-2.897Zm61.955 0a7.693 7.693 0 0 0-1.244-4.21 7.46 7.46 0 0 0-3.325-2.793 7.264 7.264 0 0 0-4.283-.435 7.36 7.36 0 0 0-3.797 2.071 7.632 7.632 0 0 0-2.031 3.877 7.73 7.73 0 0 0 .42 4.377 7.542 7.542 0 0 0 2.73 3.4 7.298 7.298 0 0 0 4.119 1.277 7.327 7.327 0 0 0 5.237-2.215 7.654 7.654 0 0 0 2.174-5.349Zm61.956 0a7.69 7.69 0 0 0-1.246-4.211 7.443 7.443 0 0 0-3.325-2.793 7.27 7.27 0 0 0-4.285-.433 7.364 7.364 0 0 0-3.797 2.073 7.621 7.621 0 0 0-2.028 3.88 7.726 7.726 0 0 0 .423 4.378 7.551 7.551 0 0 0 2.734 3.398 7.3 7.3 0 0 0 4.121 1.272 7.324 7.324 0 0 0 5.234-2.215 7.648 7.648 0 0 0 2.169-5.349Z" fill="#ED634D"/></svg>