<svg width="153" height="154" fill="none" xmlns="http://www.w3.org/2000/svg"><path d="M140.514.5H12.486C5.59.5 0 6.09 0 12.986v128.028C0 147.91 5.59 153.5 12.486 153.5h128.028c6.896 0 12.486-5.59 12.486-12.486V12.986C153 6.09 147.41.5 140.514.5Z" fill="#96DBD3"/><path d="M31.67 82.004h.188a1.71 1.71 0 0 0 1.71-1.57 44.47 44.47 0 0 1 10.98-24.814 1.726 1.726 0 0 0-2.038-2.699 1.71 1.71 0 0 0-.535.409 47.874 47.874 0 0 0-11.92 26.666 1.741 1.741 0 0 0 1.615 2.008Zm71.104 40.767a44.845 44.845 0 0 1-45.975 2.055 1.72 1.72 0 0 0-2.08.029 1.727 1.727 0 0 0 .511 2.998 48.25 48.25 0 0 0 49.52-2.212 1.72 1.72 0 0 0 .383-2.315 1.728 1.728 0 0 0-2.281-.555h-.078Zm19.795-42.273a1.724 1.724 0 0 0 1.726 1.569h.188a1.726 1.726 0 0 0 1.569-1.914 48.238 48.238 0 0 0-14.51-29.459 1.706 1.706 0 0 0-1.874-.375 1.741 1.741 0 0 0-.934.936 1.73 1.73 0 0 0 .377 1.886 44.768 44.768 0 0 1 13.458 27.357ZM54.242 67.165a1.726 1.726 0 0 0 0-3.451 4.094 4.094 0 0 1-4.094-4.094v-7.624L79.214 36.42l23.623 13.255v9.96a4.097 4.097 0 0 1-4.094 4.095 1.725 1.725 0 1 0 0 3.45 7.562 7.562 0 0 0 7.592-7.56V25.613a7.565 7.565 0 0 0-7.545-7.545H54.242a7.56 7.56 0 0 0-7.514 7.545V59.62a7.56 7.56 0 0 0 7.514 7.545Zm0-45.646h44.5a4.095 4.095 0 0 1 4.095 4.094v20.093l-22.76-12.752a1.74 1.74 0 0 0-1.663 0L50.148 48.106V25.613a4.094 4.094 0 0 1 4.094-4.094Z" fill="#00344E"/><path d="M60.438 38.24a6.274 6.274 0 1 0 .156-12.547 6.274 6.274 0 0 0-.156 12.547Zm0-8.94a2.745 2.745 0 1 1-2.73 2.744 2.744 2.744 0 0 1 2.73-2.76v.015Zm3.451 83.918v-6.054a1.724 1.724 0 0 0-1.726-1.726 1.724 1.724 0 0 0-1.725 1.726v6.054a5.05 5.05 0 0 1-5.051 5.051H21.976a5.051 5.051 0 0 1-5.05-5.051V93.721a5.035 5.035 0 0 1 5.034-5.035h26.462a1.726 1.726 0 0 0 0-3.451H21.976a8.501 8.501 0 0 0-8.486 8.486v19.497a8.486 8.486 0 0 0 8.486 8.487h33.41a8.502 8.502 0 0 0 8.503-8.487Zm66.915-27.983H106.24a1.727 1.727 0 0 0-1.22 2.945c.324.324.763.506 1.22.506h24.564a5.05 5.05 0 0 1 5.051 5.035v19.497a5.051 5.051 0 0 1-5.051 5.051h-33.41a5.05 5.05 0 0 1-5.036-5.051 1.727 1.727 0 0 0-2.945-1.22 1.727 1.727 0 0 0-.505 1.22 8.485 8.485 0 0 0 8.486 8.487h33.41a8.503 8.503 0 0 0 8.502-8.487V93.721a8.504 8.504 0 0 0-8.502-8.486Z" fill="#00344E"/><path d="m53.19 95.807 3.452 5.961a3.528 3.528 0 0 0 4.25 1.568l4.032-1.474a20.94 20.94 0 0 0 2.62 1.804c.922.529 1.88.99 2.87 1.38l.721 4.078a3.546 3.546 0 0 0 3.498 3.138h6.87a3.53 3.53 0 0 0 3.483-2.981l.737-4.219c.986-.387 1.94-.848 2.855-1.381a20.051 20.051 0 0 0 2.635-1.803l3.938 1.427a3.53 3.53 0 0 0 4.36-1.569l3.373-5.835a3.562 3.562 0 0 0-.722-4.58l-3.294-2.76a3.936 3.936 0 0 0 0-.424c.124-.91.187-1.827.188-2.745 0-.913-.062-1.825-.188-2.73a4.54 4.54 0 0 0 0-.455l3.294-2.744.094-.095a3.543 3.543 0 0 0 .69-4.376l-3.435-5.96a1.573 1.573 0 0 0-.125-.173 3.483 3.483 0 0 0-4.141-1.365l-4.032 1.459a22.835 22.835 0 0 0-2.62-1.804 21.844 21.844 0 0 0-2.87-1.365l-.721-4.078a3.514 3.514 0 0 0-3.483-3.137h-6.886a3.514 3.514 0 0 0-3.482 2.917l-.737 4.22a20.74 20.74 0 0 0-2.855 1.365 21.744 21.744 0 0 0-2.635 1.803l-3.937-1.427a3.56 3.56 0 0 0-4.361 1.569l-3.372 5.85a3.56 3.56 0 0 0 .721 4.58l3.294 2.746v.439c-.123.91-.186 1.827-.188 2.745.002.913.065 1.825.188 2.73a4.233 4.233 0 0 0 0 .439l-3.278 2.745a3.498 3.498 0 0 0-.8 4.517Zm7.06-5.223a1.677 1.677 0 0 0 .58-1.569c0-.408-.141-.816-.204-1.223-.097-.76-.15-1.525-.157-2.29.008-.771.06-1.541.157-2.306 0-.408.125-.816.204-1.224a1.679 1.679 0 0 0-.58-1.647l-4.032-3.545 1.694-2.933 1.851-2.98 4.91 1.788a1.79 1.79 0 0 0 1.741-.33 17.552 17.552 0 0 1 6.07-3.513 1.757 1.757 0 0 0 1.161-1.35l.988-5.254h6.886l.989 5.255a1.709 1.709 0 0 0 1.145 1.349 17.544 17.544 0 0 1 6.07 3.513 1.757 1.757 0 0 0 1.741.33l5.035-1.788.095.14 3.34 5.914V77l-3.968 3.325a1.725 1.725 0 0 0-.58 1.647c0 .408.157.816.204 1.24a16.8 16.8 0 0 1 0 4.58c0 .423-.126.815-.204 1.207a1.741 1.741 0 0 0 .58 1.663l4.047 3.404v.157l-1.678 2.918-1.867 2.995-5.004-1.835a1.726 1.726 0 0 0-1.74.33 17.559 17.559 0 0 1-6.071 3.513 1.702 1.702 0 0 0-1.145 1.334l-1.004 5.27h-6.87l-.989-5.27a1.713 1.713 0 0 0-1.16-1.334 18.219 18.219 0 0 1-6.071-3.513 1.71 1.71 0 0 0-1.741-.33l-5.051 1.773-3.482-6.086 4.11-3.404Zm-12.204 11.388-12.753-7.357a1.694 1.694 0 0 0-1.725 0 1.726 1.726 0 0 0-.863 1.49v14.745a1.723 1.723 0 0 0 .863 1.49 1.69 1.69 0 0 0 1.725 0l12.753-7.357a1.726 1.726 0 0 0 0-2.996v-.015Zm-11.89 5.866v-8.737l7.576 4.377-7.576 4.36Z" fill="#00344E"/><path d="M78.1 93.847a8.423 8.423 0 1 0-8.423-8.424 8.44 8.44 0 0 0 8.423 8.424Zm0-13.412a4.988 4.988 0 1 1 .031 9.976 4.988 4.988 0 0 1-.031-9.976Zm49.348 18.18a1.727 1.727 0 0 0 1.22-2.946 1.727 1.727 0 0 0-1.22-.505h-13.271a1.727 1.727 0 0 0-1.22 2.946 1.73 1.73 0 0 0 1.22.505h13.271Zm-21.114 4.862c0 .458.182.897.506 1.22.323.324.762.506 1.22.506h19.435a1.726 1.726 0 0 0 0-3.451h-19.482a1.727 1.727 0 0 0-1.679 1.725Zm-9.411 6.573a1.725 1.725 0 0 0 1.725 1.725h28.768a1.726 1.726 0 1 0 0-3.45H98.68a1.723 1.723 0 0 0-1.757 1.725Z" fill="#00344E"/></svg>