<svg width="153" height="154" fill="none" xmlns="http://www.w3.org/2000/svg"><path d="M140.514.5H12.486C5.59.5 0 6.09 0 12.986v128.028C0 147.91 5.59 153.5 12.486 153.5h128.028c6.896 0 12.486-5.59 12.486-12.486V12.986C153 6.09 147.41.5 140.514.5Z" fill="#96DBD3"/><path d="M34.76 98.551a1.569 1.569 0 0 0 .91-2.117 44.893 44.893 0 0 1 69.41-51.764l-7.106 1.02a1.57 1.57 0 0 0-1.38 1.835 1.568 1.568 0 0 0 1.568 1.396h.345l10.604-1.569a1.57 1.57 0 0 0 1.302-1.144 1.2 1.2 0 0 0 .078-.471.508.508 0 0 0 0-.22l-.251-10.478a1.568 1.568 0 0 0-1.662-1.568 1.57 1.57 0 0 0-1.569 1.662l.173 7.012A48.158 48.158 0 0 0 31.151 66.79a48.155 48.155 0 0 0 1.476 30.836 1.569 1.569 0 0 0 1.568 1.035c.193-.004.385-.04.565-.11Zm81.002-47.669a1.63 1.63 0 0 0-2.908.772 1.614 1.614 0 0 0 .32 1.204 44.41 44.41 0 0 1 9.176 27.184 44.883 44.883 0 0 1-32.073 43.035A44.876 44.876 0 0 1 39.89 104.59h7.388a1.631 1.631 0 0 0 0-3.263H36.58a1.568 1.568 0 0 0-1.568 1.444l-1.177 10.65a1.57 1.57 0 0 0 1.428 1.789h.188a1.568 1.568 0 0 0 1.569-1.444l.721-6.603a48.132 48.132 0 0 0 31.496 20.783 48.145 48.145 0 0 0 49.856-22.477 48.138 48.138 0 0 0-3.33-54.587Zm-84.829 2.243a2.698 2.698 0 1 0 0-5.396 2.698 2.698 0 0 0 0 5.396Zm93.472 67.104h-2.667v-2.666a1.623 1.623 0 1 0-3.247 0v2.666h-2.729a1.62 1.62 0 0 0-1.148.476 1.62 1.62 0 0 0 0 2.296c.304.304.717.475 1.148.475h2.666v2.698a1.62 1.62 0 0 0 1.624 1.623 1.623 1.623 0 0 0 1.623-1.623v-2.651h2.667a1.625 1.625 0 0 0 1.623-1.623 1.623 1.623 0 0 0-1.623-1.624l.063-.047Z" fill="#00344E"/><path d="M76.014 112.057h.8a1.329 1.329 0 0 0 1.203-.365 1.331 1.331 0 0 0 .365-1.204v-6.714a18.002 18.002 0 0 0 6.008-1.129 15.56 15.56 0 0 0 4.706-2.823 12.55 12.55 0 0 0 3.137-4.204 12.753 12.753 0 0 0 1.098-5.35 10.494 10.494 0 0 0-2.07-6.744 17.757 17.757 0 0 0-5.161-4.376 40.348 40.348 0 0 0-6.761-3.043 63.62 63.62 0 0 1-6.76-2.793 19.672 19.672 0 0 1-5.161-3.529 7.154 7.154 0 0 1-2.087-5.396 9.411 9.411 0 0 1 .973-4.408 8.345 8.345 0 0 1 2.65-3.011 12.047 12.047 0 0 1 3.766-1.679 17.942 17.942 0 0 1 4.36-.517 17.255 17.255 0 0 1 7.247 1.317 21.924 21.924 0 0 1 4.157 2.385A1.568 1.568 0 0 0 90.6 58.3l.534-.627a1.568 1.568 0 0 0-.189-2.118 20.591 20.591 0 0 0-4.11-2.463 21.487 21.487 0 0 0-7.371-1.866v-5.914a1.335 1.335 0 0 0-1.57-1.568h-.8a1.333 1.333 0 0 0-1.568 1.568v5.914a23.354 23.354 0 0 0-5.521 1.192 13.411 13.411 0 0 0-4.44 2.698 13.179 13.179 0 0 0-3.042 4.11 12.659 12.659 0 0 0-1.145 5.568 10.18 10.18 0 0 0 2.07 6.62 17.475 17.475 0 0 0 5.16 4.282 46.154 46.154 0 0 0 6.762 3.058c2.446.879 4.705 1.804 6.76 2.777a18.527 18.527 0 0 1 5.16 3.498 7.09 7.09 0 0 1 2.087 5.286 9.176 9.176 0 0 1-.973 4.33 9.412 9.412 0 0 1-2.65 3.136 11.294 11.294 0 0 1-3.843 1.898c-1.48.426-3.01.637-4.55.628a18.265 18.265 0 0 1-5.207-.706 21.63 21.63 0 0 1-4.251-1.726 19.152 19.152 0 0 1-3.137-2.117c-.894-.737-1.569-1.38-2.133-1.898a1.41 1.41 0 0 0-2.118-.188l-.706.627a1.286 1.286 0 0 0-.078 2.118c.63.693 1.306 1.342 2.023 1.945.976.845 2.026 1.6 3.137 2.259a25.951 25.951 0 0 0 4.282 2.023 20.753 20.753 0 0 0 5.35 1.145v6.698a1.318 1.318 0 0 0 1.49 1.569Z" fill="#00344E"/></svg>