<svg width="187" height="94" fill="none" xmlns="http://www.w3.org/2000/svg"><path d="M18.997 9.713A9.857 9.857 0 0 0 17.4 4.319 9.546 9.546 0 0 0 13.138.74 9.31 9.31 0 0 0 7.65.186 9.438 9.438 0 0 0 2.785 2.84 9.773 9.773 0 0 0 .183 7.81a9.903 9.903 0 0 0 .54 5.608 9.664 9.664 0 0 0 3.498 4.357 9.355 9.355 0 0 0 5.277 1.636 9.397 9.397 0 0 0 6.715-2.84 9.814 9.814 0 0 0 2.784-6.858Zm56.008 0a9.858 9.858 0 0 0-1.597-5.394A9.547 9.547 0 0 0 69.147.74a9.31 9.31 0 0 0-5.49-.555 9.437 9.437 0 0 0-4.864 2.654 9.773 9.773 0 0 0-2.602 4.97 9.903 9.903 0 0 0 .54 5.608 9.664 9.664 0 0 0 3.498 4.357 9.355 9.355 0 0 0 5.278 1.636 9.397 9.397 0 0 0 6.713-2.84 9.814 9.814 0 0 0 2.785-6.858Zm55.994 0a9.862 9.862 0 0 0-1.598-5.395A9.543 9.543 0 0 0 125.139.74a9.312 9.312 0 0 0-5.49-.554 9.438 9.438 0 0 0-4.865 2.657 9.77 9.77 0 0 0-2.6 4.97 9.904 9.904 0 0 0 .542 5.61 9.666 9.666 0 0 0 3.502 4.356 9.353 9.353 0 0 0 5.28 1.632 9.39 9.39 0 0 0 6.711-2.84 9.807 9.807 0 0 0 2.78-6.858Zm56.001 0a9.867 9.867 0 0 0-1.597-5.394A9.546 9.546 0 0 0 181.141.74a9.308 9.308 0 0 0-5.488-.555 9.443 9.443 0 0 0-4.866 2.654 9.772 9.772 0 0 0-2.601 4.97 9.9 9.9 0 0 0 .539 5.608 9.662 9.662 0 0 0 3.499 4.357 9.352 9.352 0 0 0 5.277 1.636 9.397 9.397 0 0 0 6.714-2.84A9.811 9.811 0 0 0 187 9.713ZM18.997 66.906a9.86 9.86 0 0 0-1.6-5.392 9.546 9.546 0 0 0-4.263-3.575 9.31 9.31 0 0 0-5.489-.552 9.438 9.438 0 0 0-4.863 2.656 9.773 9.773 0 0 0-2.6 4.97 9.902 9.902 0 0 0 .541 5.607 9.663 9.663 0 0 0 3.498 4.356 9.355 9.355 0 0 0 5.277 1.636c1.248 0 2.484-.25 3.637-.737a9.48 9.48 0 0 0 3.082-2.104 9.716 9.716 0 0 0 2.059-3.15 9.884 9.884 0 0 0 .721-3.715Zm56.008 0a9.86 9.86 0 0 0-1.6-5.392 9.546 9.546 0 0 0-4.264-3.575 9.31 9.31 0 0 0-5.488-.552 9.437 9.437 0 0 0-4.863 2.656 9.773 9.773 0 0 0-2.6 4.97 9.901 9.901 0 0 0 .541 5.607 9.663 9.663 0 0 0 3.498 4.356 9.355 9.355 0 0 0 5.278 1.636c1.247 0 2.483-.25 3.636-.737a9.48 9.48 0 0 0 3.082-2.104 9.715 9.715 0 0 0 2.059-3.15 9.88 9.88 0 0 0 .721-3.715Zm55.994 0c0-1.92-.557-3.797-1.601-5.393a9.546 9.546 0 0 0-4.264-3.575 9.31 9.31 0 0 0-5.489-.55 9.439 9.439 0 0 0-4.864 2.658 9.776 9.776 0 0 0-2.598 4.97 9.91 9.91 0 0 0 .544 5.61 9.662 9.662 0 0 0 3.501 4.353 9.357 9.357 0 0 0 5.28 1.633 9.313 9.313 0 0 0 3.633-.74 9.492 9.492 0 0 0 3.081-2.103 9.73 9.73 0 0 0 2.057-3.15 9.892 9.892 0 0 0 .72-3.713Zm56.001 0c0-1.92-.557-3.796-1.601-5.392a9.546 9.546 0 0 0-4.263-3.575 9.31 9.31 0 0 0-5.488-.552 9.437 9.437 0 0 0-4.863 2.656 9.773 9.773 0 0 0-2.6 4.97 9.906 9.906 0 0 0 .541 5.607 9.663 9.663 0 0 0 3.498 4.356 9.356 9.356 0 0 0 5.277 1.636c1.248 0 2.484-.25 3.637-.737a9.485 9.485 0 0 0 3.082-2.104 9.72 9.72 0 0 0 2.059-3.15 9.882 9.882 0 0 0 .721-3.715Z" fill="#B5DCD9"/></svg>