<svg width="77" height="237" fill="none" xmlns="http://www.w3.org/2000/svg"><path d="M15.146 7.532a7.5 7.5 0 0 0-1.276-4.184A7.565 7.565 0 0 0 10.471.573 7.611 7.611 0 0 0 6.096.145a7.586 7.586 0 0 0-3.878 2.061A7.52 7.52 0 0 0 .146 6.063a7.494 7.494 0 0 0 .43 4.352 7.54 7.54 0 0 0 2.79 3.38 7.603 7.603 0 0 0 4.207 1.27 7.601 7.601 0 0 0 5.358-2.204 7.487 7.487 0 0 0 2.216-5.329Zm44.571 0a7.5 7.5 0 0 0-1.276-4.184 7.565 7.565 0 0 0-3.4-2.775 7.611 7.611 0 0 0-4.375-.428 7.586 7.586 0 0 0-3.877 2.061 7.52 7.52 0 0 0-2.073 3.857 7.494 7.494 0 0 0 .431 4.352 7.541 7.541 0 0 0 2.79 3.38 7.603 7.603 0 0 0 4.207 1.27 7.601 7.601 0 0 0 5.358-2.204 7.487 7.487 0 0 0 2.215-5.329ZM15.146 51.921a7.5 7.5 0 0 0-1.276-4.184 7.565 7.565 0 0 0-3.399-2.775 7.612 7.612 0 0 0-4.375-.428 7.586 7.586 0 0 0-3.878 2.061 7.52 7.52 0 0 0-2.072 3.857 7.494 7.494 0 0 0 .43 4.352 7.54 7.54 0 0 0 2.79 3.38 7.602 7.602 0 0 0 4.207 1.27 7.6 7.6 0 0 0 5.358-2.204 7.52 7.52 0 0 0 2.215-5.329Zm44.571 0a7.5 7.5 0 0 0-1.276-4.184 7.565 7.565 0 0 0-3.4-2.775 7.611 7.611 0 0 0-4.375-.428 7.586 7.586 0 0 0-3.877 2.061 7.52 7.52 0 0 0-2.073 3.857 7.494 7.494 0 0 0 .431 4.352 7.541 7.541 0 0 0 2.79 3.38 7.602 7.602 0 0 0 4.207 1.27 7.6 7.6 0 0 0 5.358-2.204 7.486 7.486 0 0 0 2.215-5.329ZM15.146 96.31c0-1.49-.444-2.947-1.276-4.185a7.565 7.565 0 0 0-3.399-2.774 7.61 7.61 0 0 0-8.253 1.632A7.52 7.52 0 0 0 .146 94.84a7.494 7.494 0 0 0 .43 4.352 7.538 7.538 0 0 0 2.79 3.38 7.6 7.6 0 0 0 4.207 1.27 7.577 7.577 0 0 0 5.358-2.204 7.52 7.52 0 0 0 2.215-5.329Zm44.571 0c0-1.49-.444-2.947-1.276-4.185a7.565 7.565 0 0 0-3.4-2.774 7.61 7.61 0 0 0-8.252 1.632 7.52 7.52 0 0 0-2.073 3.857 7.494 7.494 0 0 0 .431 4.352 7.538 7.538 0 0 0 2.79 3.38 7.6 7.6 0 0 0 4.207 1.27 7.578 7.578 0 0 0 5.358-2.204 7.487 7.487 0 0 0 2.215-5.329Zm-44.571 44.389a7.5 7.5 0 0 0-1.276-4.184 7.564 7.564 0 0 0-3.399-2.775 7.609 7.609 0 0 0-8.253 1.633 7.52 7.52 0 0 0-2.072 3.857 7.495 7.495 0 0 0 .43 4.352 7.544 7.544 0 0 0 2.79 3.38 7.6 7.6 0 0 0 4.207 1.269 7.605 7.605 0 0 0 2.9-.571 7.529 7.529 0 0 0 4.1-4.077c.38-.915.575-1.894.573-2.884Zm44.571 0a7.5 7.5 0 0 0-1.276-4.184 7.564 7.564 0 0 0-3.4-2.775 7.609 7.609 0 0 0-8.252 1.633 7.52 7.52 0 0 0-2.073 3.857 7.495 7.495 0 0 0 .431 4.352 7.544 7.544 0 0 0 2.79 3.38 7.599 7.599 0 0 0 4.207 1.269 7.605 7.605 0 0 0 5.358-2.203 7.488 7.488 0 0 0 2.215-5.329Zm-44.571 44.389a7.504 7.504 0 0 0-1.272-4.188 7.572 7.572 0 0 0-3.397-2.778 7.612 7.612 0 0 0-8.256 1.627 7.518 7.518 0 0 0-2.075 3.857 7.494 7.494 0 0 0 .43 4.353 7.54 7.54 0 0 0 2.789 3.382 7.602 7.602 0 0 0 4.208 1.269 7.596 7.596 0 0 0 5.352-2.202 7.512 7.512 0 0 0 2.221-5.32Zm44.571 0a7.504 7.504 0 0 0-1.272-4.188 7.572 7.572 0 0 0-3.397-2.778 7.612 7.612 0 0 0-4.376-.432 7.588 7.588 0 0 0-3.88 2.059 7.518 7.518 0 0 0-2.075 3.857 7.494 7.494 0 0 0 .43 4.353 7.54 7.54 0 0 0 2.788 3.382 7.601 7.601 0 0 0 4.209 1.269 7.596 7.596 0 0 0 5.352-2.202 7.512 7.512 0 0 0 2.22-5.32Zm-44.571 44.389a7.503 7.503 0 0 0-1.272-4.187 7.566 7.566 0 0 0-3.397-2.778 7.612 7.612 0 0 0-8.256 1.627 7.52 7.52 0 0 0-2.075 3.856 7.493 7.493 0 0 0 .43 4.353 7.54 7.54 0 0 0 2.789 3.382A7.603 7.603 0 0 0 7.573 237a7.596 7.596 0 0 0 5.355-2.2 7.519 7.519 0 0 0 2.218-5.323Zm44.571 0a7.503 7.503 0 0 0-1.272-4.187 7.566 7.566 0 0 0-3.397-2.778 7.612 7.612 0 0 0-4.376-.432 7.581 7.581 0 0 0-3.88 2.059 7.519 7.519 0 0 0-2.075 3.856 7.492 7.492 0 0 0 .43 4.353 7.54 7.54 0 0 0 2.788 3.382 7.602 7.602 0 0 0 4.209 1.27 7.596 7.596 0 0 0 5.354-2.2 7.519 7.519 0 0 0 2.219-5.323Z" fill="#356D82"/></svg>