<svg width="238" height="449" fill="none" xmlns="http://www.w3.org/2000/svg"><path d="M-302.158 235.524c12.113 3.438 23.865 6.47 30.864 3.749 4.624-.262 13.161 2.384 13.08-1.388 3.472-.147 8.008.488 9.207-1.281l7.583-.1c5.555-.082 7.892-2.05 10.331-3.948 1.729-.368 3.422-.75 5.152-1.119 6.077.843 7.565-.927 8.014-3.297 1.61-.509 3.258-1.003 4.864-1.497 8.554-2.808 17.456-5.421 19.167-11.762 9.913-.161 10.461-5.476 16.359-7.858 2.04-2.318 4.117-4.622 6.156-6.94 5.41 5.387.783 7.416-.533 10.545 1.523 3.278-2.695 4.815 1.157 8.789-.042.883-.048 1.781-.091 2.664-4.655 3.123-1.21 9.088-1.835 13.632-3.336 4.13-3.147 9.457-.761 15.509-2.634 3.876.455 9.548.851 14.37-.998 2.288-.754 4.811 4.791 8.403-.17.392-.07.841.365 1.401l-.589 1.417 5.547 8.359c-1.095 2.708 2.428 5.421 9.3 8.113 4.753 2.485 9.47 4.957 14.223 7.443 19.539 7.586 37.193 11.236 53.512 12.043 10.296 1.058 20.359 1.948 25.505-1.162-4.04-.51-8.048-.992-12.089-1.503 4.04.511 8.049.993 12.09 1.503 1.416.081 2.797.149 4.219.216 10.817 2.487 10.64-2.757 18.003-2.688 3.535.665 7.076 1.317 6.712-.842.606-.211 1.033-.507 1.322-.886 7.173.896 10.331-.933 13.93-2.469.95-.254 1.936-.495 2.886-.749 11.343-3.263 22.577-6.568 28.727-12.736.886-.058 1.308-.339 1.272-.858 10.213-1.956 16-6.259 20.378-11.302 5.63-1.316 9.27-3.609 10.042-7.34 6.603-1.893 10.355-5.154 11.797-9.545l7.39 2.62c.032.533.1 1.079.136 1.598.125 8.539-3.27 15.991 2.32 26.229-2.634.608-2.572 2.178-.928 4.334-3.47 7.803-1.763 17.306-.203 26.753-.87 2.399-1.924 4.729.997 8.27-.078.491-.162.996-.24 1.487-5.631 5.213.03 14.105.176 21.199-.318 1.221-.673 2.427-.987 3.634l4.264 1.715c-.106.449-.217.912-.287 1.375.704 1.877 1.45 3.754 2.153 5.632 2.778 1.087 5.552 2.189 7.45 3.195-1.898-1.006-4.635-2.094-7.45-3.195-.704-1.878-1.449-3.755-2.153-5.632.107-.449.18-.926.287-1.375l-4.264-1.715c-1.292 5.442-2.996 10.76 1.401 17.972-.103 2.075-.166 4.15-.27 6.225.353 3.449.857 6.939 1.059 10.346.238 3.673 2.071 7.637 11.501 11.585 9.251 3.864 14.527 3.124 17.425.58 4.366.776 3.969-1.158 5.246-2.156 5.768-1.485 12.365-2.48 14.801-5.878 7.903-2.583 13.623-6.311 18.363-10.569 2.245-1.687 4.449-3.375 6.695-5.062-.421-.728-.805-1.442-1.226-2.17-1.83-.712-3.654-1.437-5.52-2.162a782.65 782.65 0 0 1 5.52 2.162c.384.714.805 1.442 1.189 2.156 5.046-.417 5.073-3.263 6.631-5.37 6.974-1.136 7.045-5.623 10.53-8.449 5.311-2.731 10.223-5.63 10.373-10.734 8.326-1.111 4.309-8.099 11.316-9.838l2.764-5.026c6.427-1.107 4.686-5.73 6.306-8.902a77.457 77.457 0 0 1 2.076-2.052c-2.719-1.144-5.442-2.274-8.16-3.418l8.16 3.418.009-.028c5.267-1.091 4.855-4.609 5.35-7.751.478-.828.952-1.642 1.43-2.47.158-1.487.358-2.974.516-4.46-.158 1.486-.358 2.973-.516 4.46 5.672-1.947 5.802-6.238 6.583-10.25l.69-1.347c.707-.142 1.024-.479 1.015-.956 6.475-1.626 5.422-6.461 6.941-10.208.494-2.006 5.778-2.017 3.223-5.292.11-.337-.008-.73-.315-1.178 6.021-1.877 5.844-6.363 6.611-10.459.759-1.81 1.477-3.621 2.237-5.431.963.082 1.206-.157.735-.731 5.033-1.258 4.855-4.735 5.515-7.877.52-1.081 1.604-1.994 1.487-3.27-.209-1.879 4.242-3.248-2.671-6.066-7.243-2.943-8.187-.445-8.529 1.855-4.543 1.272-7.216 3.254-2.668 7.998-.573-.013-.867.128-.954.394l-3.056.638c-4.619.122-3.825 2.728-4.538 4.65.99.377 1.98.753 2.975 1.116.335-.267.597-.562.753-.913-.156.351-.418.646-.749.899-.99-.377-1.98-.753-2.975-1.116-.586 5.554-8.273 8.36-5.86 15.085-6.824 1.936-7.573 6.48-7.998 11.164-.853-.04-1.137.199-.776.731-5.986.265-3.652 4.214-5.243 6.418-.266.436-.565.843-.832 1.278-4.981 6.502-12.062 12.112-14.408 19.758-3.912 3.121-9.049 5.698-8.712 10.702l.037.014c-5.499-.212-4.036 2.743-4.438 4.847 1.238.502 2.476 1.004 3.709 1.521l-3.709-1.521c-7.297 2.75-7.833 8.654-12.879 12.464-7.472-.111-3.292 5.125-6.601 6.912-6.262 3.238-11.812 6.825-12.16 12.785-.821-.012-1.184.213-1.088.675-14.988 1.42-18.929 8.902-28.151 13.492l-.22-.084c-1.647.368-3.267.778-4.919 1.16-1.516 1.602-3.036 3.218-4.552 4.819-.57.226-.96.535-1.171.928-.24.73-.787 1.264-1.713 1.574.927-.31 1.473-.844 1.713-1.574-3.439-1.212-6.272-2.637-7.663-4.555 1.2-2.147 2.441-4.295 3.642-6.443-.073-.533-.26-1.093-.594-1.709-2.684-6.15 1.656-10.197-2.453-16.778.096-3.183 4.92-4.806.174-9.577-.917-3.489 2.136-5.753-1.064-9.953.024-.953.053-1.921.078-2.874 2.022-3.019 3.751-6.149-.191-11.104.194-.968.392-1.95.623-2.904 3.151-3.189.044-8.427-.01-12.661.976-1.839 2.661-3.455-.706-6.644 3.669-12.052 2.16-25.804.428-39.625.317-.337.134-.785-.54-1.373 3.65-2.068-.605-6.574-1.077-9.91l.706-2.778c2.827-1.324.088-3.786-3.537-6.442-.832-1.863 1.294-3.059-2.487-5.617-1.876-2.828-3.322-5.588-11.159-7.225-6.14-1.277-10.781-1.842-12.922.405-4.272 4.468-7.334 9.396-9.172 14.868-7.415-1.288-5.392 1.974-5.226 4.358a3.56 3.56 0 0 0-1.102 1.096l-43.154 29.283c-2.497.692-5.025 1.356-7.521 2.048-9.21-.723-9.303 3.455-11.921 6.279l-3.537.092c-8.854.453-16.488 1.717-22.06 4.365 2.595.513 5.186 1.04 7.782 1.554 1.337-1.686 4.383-1.916 8.648-1.21-4.265-.706-7.316-.462-8.648 1.21-2.596-.514-5.187-1.041-7.782-1.554l.243.139c-3.94-.188-8.421-.739-8.04 1.868l-5.812.742-15.777 2.066c-16.74-2.292-31.853-2.246-51.312-8.444l-3.699-1.296c-3.113-1.326-6.221-2.665-9.334-3.991-2.171-2.435-2.608-4.747-7.237-7.36l-1.51-2.057-5.383-27.33c1.014-3.844 2.845-7.409-.015-12.521.158-.982.31-1.949.468-2.931 1.429-1.84 3.381-3.513-.655-7.051.38-.155.656-.366.826-.633 4.07-.71 5.778-2.27 1.059-6.115 3.542-.737 5.283-2.143 1.779-5.542 2.73-1.156.615-4.012.793-6.059l1.136-2.709c2.368-7.212 7.285-13.517 4.262-22.653.903.139 1.206-.03.913-.52 4.016-1.299 4.079-4.005 1.529-7.673.708-3.913 4.803-6.712-.156-12.464.915-2.035-1.265-3.938-6.91-5.342-6.406-1.599-12.519-2.077-12.564.7-.158 7.515-9.484 11.166-10.388 18.319 1.14 1.049 2.318 2.112 3.458 3.162.247 1.009.53 2.031.776 3.04-.246-1.009-.529-2.031-.776-3.04-1.14-1.05-2.318-2.113-3.458-3.162-6.399 6.547-12.835 13.081-19.234 19.628-4.678.052-4.012 2.673-5.198 4.4-5.427.193-5.77 3.125-8.85 4.589-3.932.541.208 5.019-5.786 4.555-7.992 1.097-12.414 4.135-15.538 7.871a576.266 576.266 0 0 1-4.112 1.593c-.689.086-1.06.339-1.002.787-5.314-1.026-6.212.953-8.992 1.632-3.352-.596-4.349.177-4.089 1.649-4.611.22-10.916-.804-12.699 1.485-.074.603-.185 1.192-.26 1.795.111-.589.186-1.192.26-1.795-8.457-.88-12.268 1.428-17.086 3.036-13.864-2.003-26.606-2.145-42.949-8.406.836 1.849 1.636 3.684 2.468 5.547l15.887 4.762-.068.084Zm500.715 79.605c.125-.379.13-.771.057-1.178.073.407.068.799-.057 1.178-4.623-.116-6.739.926-7.783 2.47 1.039-1.53 3.155-2.572 7.783-2.47Zm-79.64 72.559c-3.373 1.353-7.196 2.441-11.229 3.417.334.868.878 1.596 1.621 2.226-.743-.63-1.324-1.372-1.621-2.226 4.033-.976 7.856-2.064 11.229-3.417Zm-14.611 14.22c-.182-.827-.521-1.681-1.524-2.647.967.952 1.342 1.82 1.524 2.647ZM75.16 324.447c-.613-1.148-.8-2.213-1.215-3.334.416 1.121.607 2.172 1.215 3.334Zm.66 1.008c-1.216.059-2.395.132-3.61.19 1.638 2.675 3.24 5.336 4.878 8.01a6.053 6.053 0 0 1-1.624.172 5.402 5.402 0 0 0 1.624-.172c-1.639-2.674-3.24-5.335-4.879-8.01 1.216-.058 2.395-.131 3.61-.19Zm-3.78-77.317 3.181 1.115-3.182-1.115Zm-7.372 9.634c-.033.476-.097.925-.167 1.388 2.365 1.215 5.749 2.217 7.573 3.573-1.824-1.356-5.208-2.358-7.578-3.559.07-.463.103-.94.168-1.388l.004-.014Zm-9.35-8.211c-.335.267-.556.562-.657.871.106-.323.363-.604.657-.871Zm-.671.913c-.055.168-.106.322-.088.519a.807.807 0 0 1 .088-.519Zm-28.58 24.345c1.588-.312 2.709-1.212 4.494-1.37-1.785.158-2.905 1.058-4.456 1.384-1.198 3.648-5.893 5.382-10.909 6.963 5.016-1.581 9.748-3.302 10.909-6.963l-.037-.014ZM3.063 286.21c-.413.506-.057 1.304 1.982 2.758-.175.533-.45.997-1.038 1.278.55-.295.863-.745 1.038-1.278-2.039-1.454-2.395-2.252-1.982-2.758Zm-50.05 21.264c-3.483.428-4.935 2.464-8.742 2.626 3.807-.162 5.26-2.198 8.741-2.626ZM-157.92 255.83s.133-.028.312-.07l-.312.07Zm-6.879-26.667c.157-.603.313-1.207.346-1.809.004.616-.194 1.22-.346 1.809Zm-.086-23.485c5.655.24 6.243-.672 4.447-2.113 1.792 1.455 1.208 2.353-4.447 2.113Zm11.37-22.191c-1.165.283-1.804.845-1.333 2.05-1.643.354-2.9 1.043-4.676 1.299 1.739-.27 2.997-.959 4.676-1.299-.471-1.205.172-1.781 1.333-2.05Zm-16.122 9.021c.344.21.646.419.949.629a13.725 13.725 0 0 0-.949-.629Zm-2.555 6.778.348.322-.348-.322Z" fill="#B5DCD9"/></svg>