<svg width="153" height="154" fill="none" xmlns="http://www.w3.org/2000/svg"><path d="M140.514.5H12.486C5.59.5 0 6.09 0 12.986v128.028C0 147.91 5.59 153.5 12.486 153.5h128.028c6.896 0 12.486-5.59 12.486-12.486V12.986C153 6.09 147.41.5 140.514.5Z" fill="#96DBD3"/><path d="M111.448 29.707H41.536a11.67 11.67 0 0 0-11.654 11.67v39.419a1.726 1.726 0 0 0 1.725 1.725h15.059a1.726 1.726 0 0 0 0-3.45H33.333V55.164h86.272v15.012a1.72 1.72 0 0 0 1.065 1.594 1.725 1.725 0 0 0 2.386-1.594v-28.8a11.687 11.687 0 0 0-11.608-11.67Zm-78.115 21.96v-10.29a8.204 8.204 0 0 1 8.203-8.203h69.912a8.22 8.22 0 0 1 8.22 8.203v10.337l-86.335-.047Zm88.06 44.234a1.725 1.725 0 0 0-1.725 1.725v13.663a8.238 8.238 0 0 1-8.22 8.219H41.536a8.219 8.219 0 0 1-8.203-8.219V87.76a1.726 1.726 0 0 0-3.451 0v23.529a11.655 11.655 0 0 0 11.654 11.655h69.912a11.671 11.671 0 0 0 11.67-11.655V97.626a1.72 1.72 0 0 0-1.065-1.594 1.721 1.721 0 0 0-.66-.13Z" fill="#00344E"/><path d="M45.583 41.11h-4a1.726 1.726 0 0 0 0 3.452h4a1.726 1.726 0 0 0 0-3.451Zm11.262 0h-4a1.725 1.725 0 1 0 0 3.452h4a1.726 1.726 0 0 0 0-3.451Zm41.819 23.764H54.32a1.726 1.726 0 0 0-1.725 1.726v36.532a1.723 1.723 0 0 0 1.725 1.726h44.344a1.724 1.724 0 0 0 1.726-1.726v-20.61h14.399l-5.866 7.418a1.727 1.727 0 0 0 1.611 2.633 1.725 1.725 0 0 0 1.118-.546l8.094-10.275a1.722 1.722 0 0 0 0-2.101l-8.094-10.698a1.733 1.733 0 0 0-1.149-.78 1.725 1.725 0 0 0-1.596 2.85l6.055 8.047h-14.604V66.6a1.721 1.721 0 0 0-1.694-1.725Zm-1.725 36.564H56.046V68.325h40.893v33.113Z" fill="#00344E"/><path d="M87.73 75.588H72.893a1.569 1.569 0 0 0 0 3.043h12.69l-3.137 9.13h-12.55V72.826a1.569 1.569 0 0 0-1.569-1.568H65.19a1.568 1.568 0 0 0 0 3.043h1.569v14.933a1.569 1.569 0 0 0 1.568 1.568h15.121a1.569 1.569 0 0 0 1.428-1.02l4.235-12.171a1.57 1.57 0 0 0-.188-1.38 1.568 1.568 0 0 0-1.192-.644ZM69.3 93a2.322 2.322 0 1 0 2.306 2.305A2.306 2.306 0 0 0 69.3 93Zm12.769 0a2.322 2.322 0 1 0 2.305 2.305A2.306 2.306 0 0 0 82.07 93Z" fill="#00344E"/></svg>