<svg width="300" height="31" fill="none" xmlns="http://www.w3.org/2000/svg"><path d="m78.568 29.425.194-1.05c3.534-.069 1.067 1.181 4.325.87 1.234-1.494 5.432.052 6.539-.73-.001.115 1.576.135 1.488.6.47-.808 1.643-.212 2.633-.43.36-.23-.27-.241-.552-.477l2.306-.303c.913.246 1.145.72.166.814 3.023.131 11.788.273 20.607.432 4.411.079 8.834.142 12.562.15 3.729.008 6.758.02 8.384-.073-.835-.615-2.843-.21-3.612-1.172 1.724-.525 2.538.203 3.295-.354.66 1.42 3.784.356 5.08 1.798l.496-.802.853.495c7.57-.79 1.734-.417 8.416-.16 3.882-.076 5.744-1.17 7.896-.732-.321-.003-1.173-.515-.162-.706.157.706 2.687-.479 3.153.24.99-.077 4.181.04 3.117-.924.522.482 3.38.726 1.673 1.1.962.041 1.891.202 2.587.024l-1.228-.293c3.246-.078 5.001.702 7.133-.134l-1.19-.407c1.941-.025 3.566-.064 4.304.902l-1.995.258a39.58 39.58 0 0 0 7.856-.468l-.957-.042c1.719-.46 7.06-.74 12.369-1.08 5.31-.341 10.594-.687 12.198-1.22l-1.424-.788 2.74-.516c-.321-.003-1.411 2.36-1.671 2.114 5.811.055 36.057.582 41.382 1.413 2.136.507.31 1.19.277 1.308 2.631-.16 1.185-.731 3.418-.57.604.163-.163.573-.532.662.984-.04 1.875.256 1.979-.084-1.207-.326-.625-1.214-1.103-1.837l2.874.212-.168.572c.636.05 1.739-1.511 4.548-1.04 4.729.499 9.951.57 14.717.956-.103.34-1.13.493-2.157.646.641.05 1.63.015 2.201.291-1.109-.671 2.049-.3 1.163-.606 3.635-1.229 8.069.346 11.253-.436.365-1.26 8.669-21.436 8.83-22.946.753.027 1.501.132 2.233.314-.218-.37-2.098-.654-3.151-.507l-.255.795c-2.368.145-.521-.51-2.798-.569.012-.73 2.132-.711 3.999-.693-1.666-.179-3.286-.757-4.034-.076-1.574-.367.25-.8-1.619-1.191-1.368.112-3.198.658-4.735.172l.038-.113c-3.704-.908-5.844.655-9.228-.195l.386-.203c-1.184-.444-3.623-.034-5.78-.596.614.163 1.12.672-.206.681-2.487-.565-4.242-.219-6.051-.832l-1.819.558c-2.197-.162-5.999-.263-10.61-.409a967.57 967.57 0 0 0-15.527-.379l-15.538-.248-10.712-.139.353-.094-27.344-.343c-5.17-.049-10.35-.033-15.11.004-4.76.037-9.1.18-12.578.359-2.145-.665-5.112-.547-7.356-.752 1.244.283.813.728-.159.692-6.836-.107-.467.44-7.369.684-1.99.139-5.388.188-9.469.182-4.081-.006-8.856-.023-13.604-.128l-13.446-.261c-3.975-.097-7.208-.214-8.98-.334-3.774.967-8.528.348-12.225.97l.365-.23c-3.98.38-26.612-.017-31.234.465l.625.114c-4.014.705-3.51-.347-6.716-.572.474 1.045-2.962 1.75-4.278 1.867l.04-.233c-1.986.236-6.445 1.278-9.718 1.535l.09-.585c-2.7.717-7.896.647-9.837.775-4.523-.091-11.563-.791-17.505.231L1.925 4.182l-.527.19A58.692 58.692 0 0 0 .099 14.948c-.13 5.536.78 11.554 4.87 13.505l-.08.584 1.548-.142c1.881.207 2.692-.517 2.629.084l-2.556.035c1.882.088.6.45-.087.807a11.72 11.72 0 0 1 2.18.21c.355-.235-.286-.225-.585-.341.986-.246 2.348-.845 3.593-.633 1.92-.03.19.928 2.426.895 5.907-.042 11.723.05 17.55.04 5.827-.01 11.66-.042 17.61-.279.282.23-.039.233-.376.349 3.574-.346 6.761-.37 9.999-.698a2.902 2.902 0 0 1 1.46.827c-.282-.236 4.211-.47 8.835-.627 2.305-.076 4.64-.14 6.413-.173 1.773-.032 2.966.007 3.04.034Z" fill="#B5DCD9" fill-opacity=".6" style="mix-blend-mode:multiply"/></svg>