<svg width="101" height="100" fill="none" xmlns="http://www.w3.org/2000/svg"><path d="M92.832 0H9.153a8.16 8.16 0 0 0-8.16 8.16v83.68a8.16 8.16 0 0 0 8.16 8.16h83.679a8.16 8.16 0 0 0 8.16-8.16V8.16A8.16 8.16 0 0 0 92.832 0Z" fill="#96DBD3"/><path d="m54.43 63.335-6.98-1.685a.703.703 0 0 1-.38-.63v-4.563a9.444 9.444 0 0 0 3.842-7.592v-5.887a1.3 1.3 0 0 0 0-.186v-.074a1.151 1.151 0 0 0-.092-.185c.093-.138.154-.297.175-.463.306-2.647 1.12-9.674-5.776-10.581-5.796-.76-9.776.074-11.84 2.481a6.593 6.593 0 0 0-1.417 5.147c-1.694.824-3.046 1.787-2.713 3.13.167.675.602 1.342 2.842 1.777v4.906a9.452 9.452 0 0 0 4.731 8.175v3.98a.712.712 0 0 1-.389.63l-6.98 1.685a10.49 10.49 0 0 0-8.045 10.183v9.98a1.065 1.065 0 0 0 2.13 0v-9.989a8.332 8.332 0 0 1 6.415-8.156l7.073-1.703.157-.056a2.833 2.833 0 0 0 1.768-2.629v-3.074c.842.246 1.715.37 2.592.37a9.379 9.379 0 0 0 3.472-.666v3.37a2.778 2.778 0 0 0 1.777 2.63l.149.055 7.072 1.703a8.332 8.332 0 0 1 6.416 8.156v9.174a1.074 1.074 0 0 0 2.139 0v-9.174a10.498 10.498 0 0 0-8.055-10.183l-.083-.056ZM33.591 40.71a1.083 1.083 0 0 0 .593-1.278 4.823 4.823 0 0 1 .824-4.092c1.546-1.796 4.99-2.398 9.933-1.74 3.416.444 4.555 2.777 3.925 8.211a1.043 1.043 0 0 0 0 .297c-8.822.536-15.321.25-17.21-.37a11.04 11.04 0 0 1 1.926-1.028h.01Zm.63 8.211v-4.629c1.435.13 3.295.204 5.712.204h.277c3.416 0 6.823-.176 8.536-.269v4.63a7.322 7.322 0 1 1-14.637 0M19.13 59.03a22.217 22.217 0 0 1 8.258-17.33 1.068 1.068 0 0 0-.568-1.892 1.068 1.068 0 0 0-.784.235 24.514 24.514 0 0 0-7.119 28.513 1.073 1.073 0 0 0 .99.648 1.064 1.064 0 0 0 .981-1.481 22.135 22.135 0 0 1-1.758-8.693Z" fill="#003350"/><path d="M54.494 38.33a1.088 1.088 0 1 0-1.139 1.852 22.338 22.338 0 0 1 9.258 26.106 1.073 1.073 0 0 0 .667 1.352c.113.036.232.055.351.055a1.065 1.065 0 0 0 1.01-.722 24.523 24.523 0 0 0-10.128-28.596" fill="#003350"/><path d="M81.924 16.001H63.079a3.986 3.986 0 0 0-3.987 3.986v14.34a3.986 3.986 0 0 0 3.987 3.987h3.547l-.179 6.747a.996.996 0 0 0 .628.996c.127.052.262.079.398.08a.998.998 0 0 0 .738-.319l7.514-7.902 6.288-.13A4.045 4.045 0 0 0 86 33.8V20.017a3.985 3.985 0 0 0-4.076-4.016ZM83.917 33.8a1.993 1.993 0 0 1-1.933 1.993l-6.717.14a.997.997 0 0 0-.718.318l-5.98 6.279.13-5.133a.998.998 0 0 0-.289-.737.997.997 0 0 0-.737-.32h-4.594a1.993 1.993 0 0 1-1.993-1.992v-14.33a1.993 1.993 0 0 1 1.993-1.994h18.845a1.993 1.993 0 0 1 1.993 1.993V33.8Z" fill="#00344E"/><path d="m79.153 23.744-3.986-.578-1.764-3.587a1.076 1.076 0 0 0-1.844 0l-1.763 3.587-3.987.578a.997.997 0 0 0-.568 1.744l2.87 2.8-.677 3.987a.997.997 0 0 0 .408.996.998.998 0 0 0 1.076.08l3.538-1.863 3.548 1.863c.15.071.313.109.478.11a.997.997 0 0 0 .997-1.196l-.678-3.986 2.87-2.8a.997.997 0 0 0-.568-1.745l.05.01Zm-4.116 3.448a.996.996 0 0 0-.299.907l.419 2.422-2.182-1.146a1.077 1.077 0 0 0-.997 0l-2.182 1.146.418-2.422a1.055 1.055 0 0 0-.299-.907l-1.764-1.724 2.442-.349a.997.997 0 0 0 .767-.558l1.086-2.212 1.097 2.212a.996.996 0 0 0 .767.558l2.441.35-1.714 1.723Z" fill="#00344E"/></svg>