<svg width="159" height="40" fill="none" xmlns="http://www.w3.org/2000/svg"><path fill-rule="evenodd" clip-rule="evenodd" d="M88.33 25.025c0 .325-.024.65-.122.925a3.245 3.245 0 0 1-1.179 1.608 3.132 3.132 0 0 1-1.878.592c-1.248 0-2.239-.725-2.239-2.275 0-2.35 2.532-3 5.419-2.988v2.138Zm4.526-4.1c0-3.875-1.627-7.3-7.106-7.3-2.813 0-5.051.8-6.275 1.525l.893 3.125a9.037 9.037 0 0 1 4.575-1.313c2.788 0 3.24 1.613 3.24 2.638v.25c-6.066 0-9.906 2.137-9.906 6.512 0 2.676 1.957 5.176 5.357 5.176 2.08 0 3.828-.85 4.88-2.213h.098s.697 2.963 4.525 1.825c-.208-1.237-.281-2.55-.281-4.125v-6.1ZM0 8.338l4.599 19.287c.734 3.15 2.067 4.313 5.895 3.525l2.483-10.287c.624-2.563 1.052-4.375 1.455-6.988h.061c.294 2.625.698 4.438 1.211 7L17.221 28c.526 2.45 1.957 4 5.724 3.15L28.84 8.338h-4.77L22.064 18.2c-.55 2.875-1.04 5.125-1.419 7.75h-.06c-.343-2.613-.783-4.762-1.346-7.563l-2.08-10.05h-4.965l-2.25 9.788C9.32 21.1 8.72 23.5 8.354 26.038H8.28a290.075 290.075 0 0 0-1.467-8.288L5.015 8.338H0Zm37.56 16.687c0 .325-.024.65-.122.925a3.245 3.245 0 0 1-1.179 1.608 3.132 3.132 0 0 1-1.878.592c-1.248 0-2.239-.725-2.239-2.275 0-2.35 2.532-3 5.419-2.988v2.138Zm4.526-4.1c0-3.875-1.614-7.3-7.094-7.3-2.813 0-5.063.8-6.286 1.525l.893 3.125a9.048 9.048 0 0 1 4.574-1.313c2.788 0 3.24 1.613 3.24 2.638v.25c-6.065 0-9.906 2.137-9.906 6.512 0 2.676 1.957 5.176 5.357 5.176 2.08 0 3.828-.85 4.88-2.213h.098s.697 2.963 4.525 1.825c-.207-1.237-.28-2.55-.28-4.125v-6.1Zm7.008 5.375V8.35H44.57v22.813h4.525V26.3Zm57.681-17.95v16.825c0 2.325.428 3.95 1.345 4.938.795.875 2.104 1.437 3.681 1.437 1.346 0 2.655-.25 3.278-.5l-.049-3.625a6.428 6.428 0 0 1-1.724.212c-1.541 0-2.067-1-2.067-3.087v-6.438h3.95v-4.374h-3.95v-5.4h-4.464v.012ZM95.07 14.012V31.15h4.672v-8.775c0-.475.037-.875.11-1.262.342-1.838 1.712-3.013 3.694-3.013.538 0 .929.05 1.345.125v-4.5a4.402 4.402 0 0 0-1.027-.1c-1.749 0-3.731 1.15-4.562 3.625h-.123V14h-4.11v.012ZM51.736 14v17.15h4.526V21.1c0-.475.06-.975.22-1.4.367-1.012 1.296-2.2 2.764-2.2 1.834 0 2.703 1.587 2.703 3.875v9.775h4.55V20.975c0-.45.06-1 .195-1.388a2.938 2.938 0 0 1 1.039-1.508 2.834 2.834 0 0 1 1.713-.579c1.86 0 2.752 1.563 2.752 4.25v9.4h4.562v-10.1c0-5.313-2.654-7.425-5.626-7.425-1.333 0-2.373.338-3.314.925-.795.5-1.517 1.212-2.128 2.137h-.074a4.854 4.854 0 0 0-1.83-2.278 4.694 4.694 0 0 0-2.78-.784 5.178 5.178 0 0 0-2.826.643 5.326 5.326 0 0 0-2.067 2.07h-.061v-2.326h-4.33" fill="#000"/><path fill-rule="evenodd" clip-rule="evenodd" d="M139.675 13.25c.905 0 1.639-.488 1.749-1.1l.881-10.3c0-1.013-1.162-1.85-2.63-1.85-1.467 0-2.629.838-2.629 1.85l.893 10.3c.097.625.843 1.088 1.736 1.088v.012Zm-5.442 3.212c.452-.8.415-1.7-.062-2.1l-8.28-5.925c-.856-.512-2.14.1-2.874 1.4-.734 1.3-.612 2.75.245 3.25l9.173 4.363c.575.213 1.345-.2 1.798-1v.012Zm10.885-.012c.453.8 1.223 1.213 1.81 1l9.161-4.362c.856-.5.978-1.95.257-3.25-.734-1.3-2.03-1.913-2.887-1.4l-8.28 5.925c-.465.4-.501 1.3-.049 2.1l-.012-.013Zm-5.443 9.637c.905 0 1.639.488 1.749 1.1l.881 10.3c0 1.013-1.162 1.85-2.63 1.85-1.467 0-2.629-.837-2.629-1.85l.893-10.3c.097-.625.843-1.087 1.736-1.087v-.013Zm5.443-3.2c.453-.8 1.223-1.212 1.81-1l9.161 4.363c.856.5.978 1.962.257 3.25-.734 1.3-2.03 1.913-2.887 1.4l-8.28-5.925c-.465-.4-.501-1.3-.049-2.088h-.012Zm-10.885 0c.452.788.415 1.688-.062 2.088l-8.28 5.925c-.856.5-2.14-.1-2.874-1.4-.734-1.3-.612-2.75.245-3.25l9.173-4.363c.575-.212 1.345.2 1.798 1ZM158.021 30h.086c.098 0 .184-.038.184-.125 0-.075-.049-.125-.172-.125h-.098V30Zm0 .45h-.195v-.813l.306-.024c.159 0 .22.024.281.062a.22.22 0 0 1 .085.175c0 .1-.073.162-.171.2.074.025.123.1.147.2.024.125.037.175.061.2h-.196a.596.596 0 0 1-.073-.188c-.012-.087-.061-.125-.159-.125h-.098v.325l.012-.012Zm.123-1.075c-.367 0-.624.3-.624.663 0 .362.269.65.624.65.354 0 .611-.288.611-.65a.64.64 0 0 0-.165-.466.604.604 0 0 0-.446-.196Zm0-.163a.81.81 0 0 1 .819.826.818.818 0 0 1-.819.825.794.794 0 0 1-.587-.233.833.833 0 0 1-.245-.592.82.82 0 0 1 .832-.826Z" fill="#F3B53B"/></svg>