<svg width="51" height="35" viewBox="0 0 51 35" fill="none" xmlns="http://www.w3.org/2000/svg">
<path d="M45.9335 18.2426L44.7806 18.3311L28.1062 33.2865C26.0137 35.1542 22.8217 32.2308 24.9228 30.3302L37.9633 18.6538C29.5314 19.0493 9.5555 18.6381 1.53693 18.0222L2.47154 14.0137C10.2871 14.5448 30.0201 14.8877 38.1335 14.4728C32.0953 11.319 26.0607 8.15512 20.0286 4.97987C17.9183 3.89467 19.2138 0.183879 21.5431 1.01911L48.5536 10.4039C49.935 10.9156 50.9616 12.7583 49.6116 13.9672C49.4335 14.13 49.2622 14.3034 49.0911 14.4768C48.7153 14.8592 48.3385 15.2404 47.8961 15.5153C47.978 15.8234 47.9901 16.1463 47.9325 16.4618C47.8736 16.7763 47.7465 17.0753 47.5586 17.3359C47.3707 17.5966 47.1275 17.8133 46.8469 17.9704C46.5653 18.1265 46.2537 18.2199 45.9335 18.2426Z" fill="#356D82" stroke="#356D82"/>
</svg>
