<svg width="51" height="35" viewBox="0 0 51 35" fill="none" xmlns="http://www.w3.org/2000/svg">
<path d="M5.77653 16.4674L6.92945 16.3789L23.6038 1.42347C25.6963 -0.444247 28.8883 2.47918 26.7872 4.37975L13.7467 16.0561C22.1786 15.6607 42.1545 16.0719 50.1731 16.6878L49.2385 20.6963C41.423 20.1652 21.6899 19.8222 13.5765 20.2372C19.6147 23.391 25.6493 26.5548 31.6814 29.7301C33.7917 30.8153 32.4963 34.5261 30.1669 33.6908L3.15637 24.3061C1.77506 23.7943 0.7484 21.9517 2.09838 20.7427C2.27657 20.58 2.44783 20.4065 2.61896 20.2332C2.99477 19.8508 3.37155 19.4696 3.81389 19.1947C3.73199 18.8865 3.71988 18.5637 3.77753 18.2482C3.8364 17.9337 3.9635 17.6347 4.15142 17.374C4.33935 17.1134 4.58248 16.8967 4.86307 16.7395C5.14477 16.5835 5.4563 16.4901 5.77653 16.4674Z" fill="#356D82" stroke="#356D82"/>
</svg>
