<svg width="1512" height="71" viewBox="0 0 1512 71" fill="none" xmlns="http://www.w3.org/2000/svg">
<path d="M1342.11 13.5246C1495.15 -19.6036 1480.47 15.5742 1638.47 39.675C1646.18 40.8516 1652 47.4563 1652 55.2591C1652 63.8973 1645 70.8999 1636.36 70.8999L1268.6 70.8999L88.9803 79C27.8715 72.7577 -81.9075 67.0287 -149.8 64.2882C-169.667 64.8313 -186.078 64.7703 -197.724 63.9249C-225.709 61.8935 -198.555 62.3203 -149.8 64.2882C-26.8966 60.9285 228.32 34.4475 306.695 27.4746C397.739 19.3745 411.498 21.6114 743.255 46.8248C843.912 54.4748 992.009 72.3903 1096.12 60.3248C1212.61 46.8248 1232.97 37.1497 1342.11 13.5246Z" fill="#F8F8F8"/>
</svg>
