<svg width="1512" height="102" viewBox="0 0 1512 102" fill="none" xmlns="http://www.w3.org/2000/svg">
<path d="M1261.09 81.7991C1399.66 130.53 1388.67 80.3099 1527.05 44.3899C1538.03 41.5394 1546 31.7358 1546 20.3901C1546 6.97453 1535.12 -3.90091 1521.71 -3.90091L1193.5 -3.90094L196.989 -15.0179C138.418 -15.6713 79.92 -10.9674 21.6467 -5.03173C-24.5029 -0.330972 -74.1079 3.58351 -110.571 5.97466C-128.838 5.16342 -143.925 5.25468 -154.633 6.5174C-180.362 9.55153 -155.397 8.91417 -110.571 5.97466C2.42553 10.993 237.071 50.547 309.129 60.9622C392.835 73.0611 405.485 69.7199 710.501 32.0593C803.045 20.6328 939.205 -6.12709 1034.93 11.8948C1142.03 32.0594 1160.75 46.5109 1261.09 81.7991Z" fill="#F8F8F8"/>
</svg>
