<svg width="90" height="249" viewBox="0 0 90 249" fill="none" xmlns="http://www.w3.org/2000/svg">
<path d="M-30.4908 54.0851C-17.0115 54.0851 -3.83475 58.2148 7.37289 65.9521C18.5805 73.6894 27.3159 84.6867 32.4742 97.5534C37.6325 110.42 38.9821 124.578 36.3524 138.237C33.7227 151.896 27.2317 164.443 17.7003 174.291C8.16904 184.139 -3.97446 190.845 -17.1948 193.562C-30.4151 196.279 -44.1184 194.884 -56.5717 189.555C-69.025 184.225 -79.669 175.2 -87.1577 163.62C-94.6464 152.041 -98.6434 138.427 -98.6434 124.5C-98.624 105.831 -91.4373 87.9321 -78.6605 74.7311C-65.8836 61.5301 -48.56 54.1052 -30.4908 54.0851ZM-30.4908 3.61753e-07C-54.3239 -0.00187634 -77.6221 7.29823 -97.4394 20.9773C-117.257 34.6564 -132.703 54.0999 -141.825 76.8492C-150.947 99.5984 -153.334 124.632 -148.686 148.783C-144.037 172.934 -132.561 195.119 -115.71 212.531C-98.8577 229.944 -77.3866 241.802 -54.0116 246.607C-30.6367 251.412 -6.40767 248.947 15.6114 239.524C37.6304 230.101 56.4504 214.143 69.6915 193.669C82.9326 173.195 90 149.124 90 124.5C90.0012 108.151 86.8855 91.9616 80.8308 76.8566C74.7761 61.7516 65.9012 48.0266 54.7125 36.4656C43.5238 24.9046 30.2405 15.7339 15.6212 9.47703C1.00201 3.2202 -14.6669 3.14264e-07 -30.4908 3.61753e-07Z" fill="#10334D"/>
</svg>
