<svg width="141" height="112" viewBox="0 0 141 112" fill="none" xmlns="http://www.w3.org/2000/svg">
<path d="M8.23002 29.7541C7.28817 37.1111 6.55723 44.4528 5.86672 51.8892C5.63715 54.5135 1.03535 54.2289 1.09382 51.5703C1.45222 38.3032 2.94955 25.0988 5.57016 12.0967C5.41672 9.16359 5.29242 6.38144 5.3388 3.48839C5.30798 2.93793 5.46098 2.39417 5.77468 1.93945C6.0884 1.48473 6.5455 1.14379 7.07708 0.968307C7.60868 0.792826 8.18582 0.79239 8.72068 0.966932C9.25552 1.14149 9.71955 1.48167 10.0419 1.93582L10.4831 2.54676C11.0392 2.7116 11.5242 3.05422 11.8606 3.51966L34.2633 35.1796C36.1831 37.8868 31.8838 40.6811 29.9296 37.9963L11.0082 11.9106L10.7564 13.1661C15.405 75.0479 74.8271 121.419 138.647 102.673C138.933 102.58 139.246 102.603 139.517 102.736C139.788 102.87 139.995 103.103 140.092 103.384C140.189 103.665 140.169 103.971 140.035 104.236C139.901 104.5 139.665 104.701 139.379 104.793C79.4388 125.943 21.5956 85.6062 8.23002 29.7541Z" fill="#ED634D" stroke="#ED634D"/>
</svg>
