<svg width="153" height="154" viewBox="0 0 153 154" fill="none" xmlns="http://www.w3.org/2000/svg">
<path d="M140.514 0.5H12.4859C5.59014 0.5 0 6.09015 0 12.986V141.014C0 147.91 5.59014 153.5 12.4859 153.5H140.514C147.41 153.5 153 147.91 153 141.014V12.986C153 6.09015 147.41 0.5 140.514 0.5Z" fill="#96DBD3"/>
<path d="M111.448 29.707H41.5362C38.4438 29.7112 35.4794 30.9426 33.2942 33.1307C31.109 35.3189 29.8816 38.2849 29.8816 41.3773V80.7959C29.8816 81.2535 30.0634 81.6924 30.387 82.016C30.7106 82.3396 31.1494 82.5214 31.607 82.5214H46.6655C47.1231 82.5214 47.562 82.3396 47.8856 82.016C48.2092 81.6924 48.3909 81.2535 48.3909 80.7959C48.3909 80.3383 48.2092 79.8994 47.8856 79.5759C47.562 79.2523 47.1231 79.0705 46.6655 79.0705H33.3325V55.1652H119.605V70.1766C119.605 70.4032 119.649 70.6276 119.736 70.8369C119.823 71.0462 119.95 71.2364 120.11 71.3967C120.27 71.5569 120.461 71.684 120.67 71.7707C120.879 71.8574 121.104 71.902 121.33 71.902C121.557 71.902 121.781 71.8574 121.991 71.7707C122.2 71.684 122.39 71.5569 122.55 71.3967C122.711 71.2364 122.838 71.0462 122.924 70.8369C123.011 70.6276 123.056 70.4032 123.056 70.1766V41.3773C123.052 38.2943 121.829 35.3377 119.655 33.1518C117.481 30.9659 114.531 29.7277 111.448 29.707V29.707ZM33.3325 51.6673V41.3773C33.3325 39.2016 34.1968 37.1149 35.7353 35.5764C37.2738 34.0379 39.3604 33.1736 41.5362 33.1736H111.448C113.625 33.1736 115.714 34.0374 117.255 35.5755C118.796 37.1135 119.663 39.2001 119.668 41.3773V51.7143L33.3325 51.6673Z" fill="#00344E"/>
<path d="M121.393 95.9011C120.935 95.9011 120.497 96.0829 120.173 96.4065C119.849 96.73 119.668 97.1689 119.668 97.6265V111.289C119.663 113.468 118.796 115.556 117.256 117.096C115.715 118.637 113.627 119.504 111.448 119.508H41.5362C39.359 119.504 37.2724 118.636 35.7344 117.095C34.1963 115.554 33.3325 113.466 33.3325 111.289V87.7601C33.3325 87.3025 33.1507 86.8636 32.8271 86.54C32.5035 86.2165 32.0647 86.0347 31.607 86.0347C31.1494 86.0347 30.7106 86.2165 30.387 86.54C30.0634 86.8636 29.8816 87.3025 29.8816 87.7601V111.289C29.8816 114.38 31.1095 117.344 33.2952 119.53C35.4808 121.716 38.4452 122.944 41.5362 122.944H111.448C114.541 122.944 117.507 121.716 119.695 119.531C121.883 117.346 123.114 114.381 123.118 111.289V97.6265C123.118 97.3999 123.074 97.1756 122.987 96.9662C122.9 96.7569 122.773 96.5667 122.613 96.4065C122.453 96.2462 122.263 96.1191 122.053 96.0324C121.844 95.9457 121.62 95.9011 121.393 95.9011V95.9011Z" fill="#00344E"/>
<path d="M45.583 41.1108H41.5831C41.1255 41.1108 40.6866 41.2926 40.363 41.6162C40.0395 41.9398 39.8577 42.3787 39.8577 42.8363C39.8577 43.2939 40.0395 43.7328 40.363 44.0564C40.6866 44.3799 41.1255 44.5617 41.5831 44.5617H45.583C46.0406 44.5617 46.4795 44.3799 46.8031 44.0564C47.1267 43.7328 47.3085 43.2939 47.3085 42.8363C47.3085 42.3787 47.1267 41.9398 46.8031 41.6162C46.4795 41.2926 46.0406 41.1108 45.583 41.1108V41.1108Z" fill="#00344E"/>
<path d="M56.8453 41.1108H52.8454C52.3878 41.1108 51.9489 41.2926 51.6254 41.6162C51.3018 41.9398 51.12 42.3787 51.12 42.8363C51.12 43.2939 51.3018 43.7328 51.6254 44.0564C51.9489 44.3799 52.3878 44.5617 52.8454 44.5617H56.8453C57.3029 44.5617 57.7418 44.3799 58.0654 44.0564C58.389 43.7328 58.5708 43.2939 58.5708 42.8363C58.5708 42.3787 58.389 41.9398 58.0654 41.6162C57.7418 41.2926 57.3029 41.1108 56.8453 41.1108V41.1108Z" fill="#00344E"/>
<path d="M98.6644 64.8745H54.3204C53.8628 64.8745 53.4239 65.0563 53.1003 65.3799C52.7767 65.7035 52.595 66.1423 52.595 66.6V103.132C52.595 103.59 52.7767 104.029 53.1003 104.352C53.4239 104.676 53.8628 104.858 54.3204 104.858H98.6644C99.122 104.858 99.5609 104.676 99.8845 104.352C100.208 104.029 100.39 103.59 100.39 103.132V82.5211H114.789L108.923 89.9405C108.696 90.3048 108.612 90.7407 108.689 91.163C108.766 91.5853 108.998 91.9638 109.339 92.2245C109.68 92.4852 110.106 92.6094 110.534 92.5729C110.962 92.5363 111.36 92.3416 111.652 92.0268L119.746 81.7525C119.978 81.4511 120.103 81.0816 120.103 80.7016C120.103 80.3215 119.978 79.952 119.746 79.6506L111.652 68.9528C111.525 68.7505 111.357 68.5768 111.16 68.4426C110.962 68.3085 110.738 68.217 110.503 68.1738C110.268 68.1306 110.027 68.1367 109.794 68.1917C109.562 68.2467 109.343 68.3494 109.152 68.4933C108.961 68.6372 108.803 68.8192 108.686 69.0277C108.569 69.2362 108.497 69.4666 108.474 69.7045C108.451 69.9424 108.477 70.1824 108.552 70.4094C108.627 70.6365 108.748 70.8455 108.907 71.0234L114.962 79.0702H100.358V66.6C100.359 66.1477 100.181 65.7135 99.8642 65.3908C99.5474 65.0681 99.1165 64.8827 98.6644 64.8745V64.8745ZM96.9389 101.438H56.0459V68.3254H96.9389V101.438Z" fill="#00344E"/>
<path d="M87.7308 75.5881H72.8919C72.5528 75.6731 72.2517 75.869 72.0366 76.1446C71.8215 76.4203 71.7047 76.76 71.7047 77.1096C71.7047 77.4593 71.8215 77.7989 72.0366 78.0746C72.2517 78.3502 72.5528 78.5461 72.8919 78.6311H85.5818L82.4447 87.7603H69.896V72.8274C69.896 72.4114 69.7307 72.0124 69.4365 71.7182C69.1424 71.424 68.7434 71.2588 68.3274 71.2588H65.1902C64.851 71.3438 64.55 71.5397 64.3349 71.8154C64.1198 72.091 64.0029 72.4307 64.0029 72.7803C64.0029 73.13 64.1198 73.4696 64.3349 73.7453C64.55 74.021 64.851 74.2168 65.1902 74.3018H66.7588V89.2348C66.7588 89.6508 66.924 90.0498 67.2182 90.344C67.5124 90.6381 67.9113 90.8034 68.3274 90.8034H83.4485C83.761 90.795 84.0638 90.6934 84.3181 90.5118C84.5724 90.3301 84.7667 90.0766 84.8759 89.7838L89.1112 77.6116C89.1882 77.3825 89.2113 77.1388 89.1787 76.8993C89.146 76.6599 89.0585 76.4312 88.9229 76.2312C88.7849 76.0417 88.6062 75.8856 88.3999 75.7743C88.1936 75.663 87.9649 75.5994 87.7308 75.5881V75.5881Z" fill="#00344E"/>
<path d="M69.3 92.9996C68.8396 92.9965 68.3886 93.1304 68.0044 93.3843C67.6202 93.6382 67.3202 94.0006 67.1426 94.4254C66.9649 94.8502 66.9177 95.3183 67.0067 95.7701C67.0958 96.2219 67.3172 96.637 67.6428 96.9626C67.9684 97.2882 68.3835 97.5096 68.8353 97.5987C69.2871 97.6877 69.7552 97.6405 70.18 97.4628C70.6048 97.2852 70.9673 96.9852 71.2212 96.601C71.475 96.2168 71.609 95.7659 71.6059 95.3054C71.6059 94.6938 71.3629 94.1073 70.9305 93.6749C70.4981 93.2425 69.9116 92.9996 69.3 92.9996V92.9996Z" fill="#00344E"/>
<path d="M82.0685 92.9996C81.608 92.9965 81.157 93.1304 80.7728 93.3843C80.3887 93.6382 80.0887 94.0006 79.911 94.4254C79.7334 94.8502 79.6861 95.3183 79.7752 95.7701C79.8643 96.2219 80.0857 96.637 80.4113 96.9626C80.7369 97.2882 81.152 97.5096 81.6038 97.5987C82.0556 97.6877 82.5236 97.6405 82.9484 97.4628C83.3733 97.2852 83.7357 96.9852 83.9896 96.601C84.2435 96.2168 84.3774 95.7659 84.3743 95.3054C84.3743 94.6938 84.1313 94.1073 83.6989 93.6749C83.2665 93.2425 82.68 92.9996 82.0685 92.9996V92.9996Z" fill="#00344E"/>
</svg>
