<svg width="184" height="239" viewBox="0 0 184 239" fill="none" xmlns="http://www.w3.org/2000/svg">
<path d="M59.7229 7.90888C59.7229 6.41103 59.2883 4.94696 58.4739 3.70155C57.6595 2.45614 56.5019 1.48539 55.1476 0.912186C53.7933 0.338985 52.3031 0.188996 50.8654 0.481211C49.4277 0.773426 48.107 1.4947 47.0705 2.55384C46.0339 3.61297 45.328 4.96244 45.0421 6.4315C44.7561 7.90057 44.9029 9.42326 45.4638 10.8071C46.0248 12.1909 46.9749 13.3737 48.1937 14.2059C49.4125 15.0381 50.8453 15.4822 52.3112 15.4822C53.2849 15.4834 54.2492 15.2882 55.1489 14.908C56.0486 14.5278 56.8663 13.9701 57.5548 13.2666C58.2433 12.5631 58.7892 11.7278 59.1612 10.8084C59.5333 9.88906 59.7241 8.90374 59.7229 7.90888Z" fill="#ED634D"/>
<path d="M121.678 7.90888C121.678 6.41103 121.244 4.94696 120.429 3.70155C119.615 2.45614 118.457 1.48539 117.103 0.912186C115.749 0.338985 114.258 0.188996 112.821 0.481211C111.383 0.773426 110.062 1.4947 109.026 2.55384C107.989 3.61297 107.283 4.96244 106.997 6.4315C106.711 7.90057 106.858 9.42326 107.419 10.8071C107.98 12.1909 108.93 13.3737 110.149 14.2059C111.368 15.0381 112.801 15.4822 114.267 15.4822C116.232 15.4822 118.118 14.6842 119.508 13.2639C120.897 11.8437 121.678 9.91742 121.678 7.90888Z" fill="#ED634D"/>
<path d="M183.634 7.90888C183.634 6.41065 183.199 4.94606 182.384 3.70045C181.569 2.45484 180.411 1.48424 179.056 0.911304C177.702 0.338371 176.211 0.188929 174.773 0.481881C173.335 0.774833 172.014 1.4969 170.978 2.55695C169.942 3.61699 169.237 4.96739 168.952 6.43705C168.667 7.90671 168.815 9.42964 169.377 10.8133C169.939 12.197 170.891 13.3793 172.111 14.2103C173.331 15.0414 174.765 15.484 176.231 15.4822C177.204 15.4822 178.167 15.2863 179.066 14.9056C179.965 14.5249 180.781 13.9668 181.469 13.2635C182.156 12.5601 182.701 11.7252 183.073 10.8064C183.444 9.88766 183.635 8.90298 183.634 7.90888Z" fill="#ED634D"/>
<path d="M59.7229 52.5404C59.7229 51.0426 59.2883 49.5783 58.4739 48.3329C57.6595 47.0875 56.5019 46.1167 55.1476 45.5435C53.7933 44.9703 52.3031 44.8203 50.8654 45.1126C49.4277 45.4048 48.107 46.126 47.0705 47.1852C46.0339 48.2443 45.328 49.5938 45.0421 51.0628C44.7561 52.5319 44.9029 54.0546 45.4638 55.4384C46.0248 56.8223 46.9749 58.0051 48.1937 58.8372C49.4125 59.6694 50.8453 60.1135 52.3112 60.1135C53.2849 60.1147 54.2492 59.9197 55.1489 59.5396C56.0486 59.1594 56.8663 58.6016 57.5548 57.8981C58.2433 57.1947 58.7892 56.3594 59.1612 55.44C59.5333 54.5206 59.7241 53.5353 59.7229 52.5404Z" fill="#ED634D"/>
<path d="M121.678 52.5404C121.678 51.0426 121.244 49.5783 120.429 48.3329C119.615 47.0875 118.457 46.1167 117.103 45.5435C115.749 44.9703 114.258 44.8203 112.821 45.1126C111.383 45.4048 110.062 46.126 109.026 47.1852C107.989 48.2443 107.283 49.5938 106.997 51.0628C106.711 52.5319 106.858 54.0546 107.419 55.4384C107.98 56.8223 108.93 58.0051 110.149 58.8372C111.368 59.6694 112.801 60.1135 114.267 60.1135C115.24 60.1135 116.204 59.9177 117.103 59.5371C118.002 59.1565 118.819 58.5987 119.508 57.8955C120.196 57.1922 120.742 56.3573 121.114 55.4384C121.487 54.5196 121.678 53.535 121.678 52.5404Z" fill="#ED634D"/>
<path d="M183.634 52.5405C183.634 51.0422 183.199 49.5776 182.384 48.332C181.569 47.0864 180.411 46.1156 179.056 45.5427C177.702 44.9697 176.211 44.8203 174.773 45.1132C173.335 45.4062 172.014 46.1285 170.978 47.1885C169.942 48.2486 169.237 49.5987 168.952 51.0684C168.667 52.5381 168.815 54.0612 169.377 55.4449C169.939 56.8285 170.891 58.0106 172.111 58.8417C173.331 59.6727 174.765 60.1153 176.231 60.1135C177.204 60.1135 178.167 59.9176 179.066 59.5369C179.965 59.1562 180.781 58.5982 181.469 57.8948C182.156 57.1915 182.701 56.3566 183.073 55.4378C183.444 54.519 183.635 53.5346 183.634 52.5405Z" fill="#ED634D"/>
<path d="M59.7229 97.1711C59.7229 95.6732 59.2883 94.2089 58.4739 92.9635C57.6595 91.7181 56.5019 90.7476 55.1476 90.1744C53.7933 89.6012 52.3031 89.4512 50.8654 89.7434C49.4277 90.0356 48.107 90.7569 47.0705 91.816C46.0339 92.8752 45.328 94.2246 45.0421 95.6937C44.7561 97.1628 44.9029 98.6855 45.4638 100.069C46.0248 101.453 46.9749 102.636 48.1937 103.468C49.4125 104.3 50.8453 104.744 52.3112 104.744C53.2849 104.746 54.2492 104.55 55.1489 104.17C56.0486 103.79 56.8663 103.232 57.5548 102.529C58.2433 101.825 58.7892 100.99 59.1612 100.071C59.5333 99.1513 59.7241 98.166 59.7229 97.1711Z" fill="#ED634D"/>
<path d="M121.678 97.1711C121.678 95.6732 121.244 94.2089 120.429 92.9635C119.615 91.7181 118.457 90.7476 117.103 90.1744C115.749 89.6012 114.258 89.4512 112.821 89.7434C111.383 90.0356 110.062 90.7569 109.026 91.816C107.989 92.8752 107.283 94.2246 106.997 95.6937C106.711 97.1628 106.858 98.6855 107.419 100.069C107.98 101.453 108.93 102.636 110.149 103.468C111.368 104.3 112.801 104.744 114.267 104.744C116.232 104.744 118.118 103.946 119.508 102.526C120.897 101.106 121.678 99.1796 121.678 97.1711Z" fill="#ED634D"/>
<path d="M183.634 97.1711C183.634 95.6729 183.199 94.2083 182.384 92.9627C181.569 91.717 180.411 90.7464 179.056 90.1735C177.702 89.6006 176.211 89.4511 174.773 89.7441C173.335 90.037 172.014 90.7591 170.978 91.8192C169.942 92.8792 169.237 94.2296 168.952 95.6993C168.667 97.1689 168.815 98.6918 169.377 100.076C169.939 101.459 170.891 102.641 172.111 103.472C173.331 104.303 174.765 104.746 176.231 104.744C177.204 104.744 178.167 104.548 179.066 104.168C179.965 103.787 180.781 103.229 181.469 102.526C182.156 101.822 182.701 100.987 183.073 100.069C183.444 99.1499 183.635 98.1652 183.634 97.1711Z" fill="#ED634D"/>
<path d="M59.7229 141.803C59.7229 140.305 59.2883 138.841 58.4739 137.595C57.6595 136.35 56.5019 135.379 55.1476 134.806C53.7933 134.233 52.3031 134.083 50.8654 134.375C49.4277 134.667 48.107 135.388 47.0705 136.448C46.0339 137.507 45.328 138.856 45.0421 140.325C44.7561 141.794 44.9029 143.317 45.4638 144.701C46.0248 146.085 46.9749 147.268 48.1937 148.1C49.4125 148.932 50.8453 149.376 52.3112 149.376C53.2849 149.377 54.2492 149.182 55.1489 148.802C56.0486 148.422 56.8663 147.864 57.5548 147.161C58.2433 146.457 58.7892 145.622 59.1612 144.702C59.5333 143.783 59.7241 142.798 59.7229 141.803Z" fill="#ED634D"/>
<path d="M121.678 141.803C121.678 140.305 121.244 138.841 120.429 137.595C119.615 136.35 118.457 135.379 117.103 134.806C115.749 134.233 114.258 134.083 112.821 134.375C111.383 134.667 110.062 135.388 109.026 136.448C107.989 137.507 107.283 138.856 106.997 140.325C106.711 141.794 106.858 143.317 107.419 144.701C107.98 146.085 108.93 147.268 110.149 148.1C111.368 148.932 112.801 149.376 114.267 149.376C116.232 149.376 118.118 148.578 119.508 147.158C120.897 145.738 121.678 143.811 121.678 141.803Z" fill="#ED634D"/>
<path d="M183.634 141.803C183.634 140.304 183.199 138.84 182.384 137.594C181.569 136.349 180.411 135.378 179.056 134.805C177.702 134.232 176.211 134.083 174.773 134.376C173.335 134.669 172.014 135.391 170.978 136.451C169.942 137.511 169.237 138.861 168.952 140.331C168.667 141.801 168.815 143.324 169.377 144.707C169.939 146.091 170.891 147.273 172.111 148.104C173.331 148.935 174.765 149.378 176.231 149.376C177.204 149.376 178.167 149.18 179.066 148.799C179.965 148.419 180.781 147.861 181.469 147.157C182.156 146.454 182.701 145.619 183.073 144.7C183.444 143.781 183.635 142.797 183.634 141.803Z" fill="#ED634D"/>
<path d="M59.7229 186.434C59.7247 184.936 59.2915 183.471 58.4782 182.224C57.6649 180.977 56.5078 180.005 55.1537 179.431C53.7995 178.856 52.3091 178.705 50.8708 178.996C49.4325 179.287 48.1111 180.008 47.0737 181.066C46.0363 182.125 45.3294 183.475 45.0427 184.944C44.756 186.413 44.9023 187.936 45.463 189.321C46.0237 190.705 46.9736 191.889 48.1926 192.721C49.4116 193.554 50.845 193.998 52.3112 193.998C54.2754 193.998 56.1593 193.201 57.549 191.783C58.9387 190.365 59.7206 188.441 59.7229 186.434Z" fill="#ED634D"/>
<path d="M121.678 186.434C121.68 184.936 121.247 183.471 120.434 182.224C119.62 180.977 118.463 180.005 117.109 179.431C115.755 178.856 114.264 178.705 112.826 178.996C111.388 179.287 110.066 180.008 109.029 181.066C107.992 182.125 107.285 183.475 106.998 184.944C106.711 186.413 106.858 187.936 107.418 189.321C107.979 190.705 108.929 191.889 110.148 192.721C111.367 193.554 112.801 193.998 114.267 193.998C116.23 193.995 118.112 193.198 119.502 191.78C120.891 190.363 121.674 188.44 121.678 186.434Z" fill="#ED634D"/>
<path d="M183.634 186.434C183.636 184.935 183.202 183.47 182.388 182.223C181.575 180.976 180.417 180.004 179.063 179.43C177.708 178.855 176.217 178.705 174.778 178.997C173.34 179.289 172.018 180.01 170.981 181.07C169.944 182.129 169.238 183.48 168.953 184.949C168.667 186.419 168.814 187.943 169.376 189.327C169.939 190.711 170.89 191.894 172.11 192.725C173.33 193.557 174.764 194 176.231 193.998C178.194 193.995 180.075 193.198 181.463 191.78C182.851 190.362 183.631 188.439 183.634 186.434Z" fill="#ED634D"/>
<path d="M59.7229 231.065C59.7247 229.567 59.2915 228.102 58.4782 226.855C57.6649 225.609 56.5078 224.637 55.1537 224.062C53.7995 223.487 52.3091 223.336 50.8708 223.627C49.4325 223.918 48.1111 224.639 47.0737 225.698C46.0363 226.757 45.3294 228.106 45.0427 229.575C44.756 231.045 44.9023 232.568 45.463 233.952C46.0237 235.336 46.9736 236.52 48.1926 237.352C49.4116 238.185 50.845 238.629 52.3112 238.629C53.2841 238.631 54.2478 238.436 55.1469 238.056C56.0461 237.676 56.8632 237.12 57.5516 236.417C58.2399 235.715 58.786 234.88 59.1586 233.962C59.5312 233.044 59.7229 232.059 59.7229 231.065Z" fill="#ED634D"/>
<path d="M121.678 231.065C121.68 229.567 121.247 228.102 120.434 226.855C119.62 225.609 118.463 224.637 117.109 224.062C115.755 223.487 114.264 223.336 112.826 223.627C111.388 223.918 110.066 224.639 109.029 225.698C107.992 226.757 107.285 228.106 106.998 229.575C106.711 231.045 106.858 232.568 107.418 233.952C107.979 235.336 108.929 236.52 110.148 237.352C111.367 238.185 112.801 238.629 114.267 238.629C116.231 238.629 118.115 237.833 119.504 236.414C120.894 234.996 121.676 233.072 121.678 231.065Z" fill="#ED634D"/>
<path d="M183.634 231.065C183.636 229.567 183.202 228.101 182.388 226.854C181.575 225.607 180.417 224.635 179.063 224.061C177.708 223.487 176.217 223.336 174.778 223.628C173.34 223.92 172.018 224.641 170.981 225.701C169.944 226.761 169.238 228.111 168.953 229.581C168.667 231.051 168.814 232.574 169.376 233.959C169.939 235.343 170.89 236.525 172.11 237.357C173.33 238.188 174.764 238.631 176.231 238.629C178.194 238.629 180.077 237.832 181.465 236.414C182.854 234.995 183.634 233.071 183.634 231.065Z" fill="#ED634D"/>
</svg>
