<svg width="238" height="237" viewBox="0 0 238 237" fill="none" xmlns="http://www.w3.org/2000/svg">
<path d="M15.1464 7.53206C15.1464 6.04235 14.7022 4.58623 13.8701 3.34758C13.0379 2.10893 11.8551 1.14345 10.4713 0.573362C9.0875 0.00327388 7.56481 -0.145901 6.09576 0.144727C4.62671 0.435356 3.27725 1.15271 2.21813 2.2061C1.159 3.25948 0.437729 4.60162 0.145516 6.06271C-0.146696 7.5238 0.00329173 9.03823 0.576488 10.4145C1.14968 11.7909 2.12021 12.9672 3.36561 13.7949C4.61101 14.6225 6.07529 15.0643 7.57312 15.0643C8.56798 15.0654 9.55329 14.8713 10.4726 14.4932C11.392 14.1151 12.2273 13.5603 12.9308 12.8607C13.6343 12.161 14.192 11.3302 14.5722 10.4159C14.9524 9.50149 15.1476 8.52153 15.1464 7.53206" fill="#356D82"/>
<path d="M59.7168 7.53206C59.7168 6.04235 59.2727 4.58623 58.4405 3.34758C57.6084 2.10893 56.4256 1.14345 55.0418 0.573362C53.6579 0.00327388 52.1352 -0.145901 50.6662 0.144727C49.1971 0.435356 47.8477 1.15271 46.7886 2.2061C45.7294 3.25948 45.0082 4.60162 44.716 6.06271C44.4237 7.5238 44.5737 9.03823 45.1469 10.4145C45.7201 11.7909 46.6909 12.9672 47.9363 13.7949C49.1817 14.6225 50.6457 15.0643 52.1436 15.0643C53.1384 15.0654 54.1237 14.8713 55.0431 14.4932C55.9624 14.1151 56.798 13.5603 57.5014 12.8607C58.2049 12.161 58.7627 11.3302 59.1429 10.4159C59.523 9.50149 59.718 8.52153 59.7168 7.53206" fill="#356D82"/>
<path d="M104.288 7.53206C104.288 6.04235 103.844 4.58623 103.012 3.34758C102.18 2.10893 100.997 1.14345 99.6132 0.573362C98.2294 0.00327388 96.7065 -0.145901 95.2374 0.144727C93.7684 0.435356 92.4192 1.15271 91.36 2.2061C90.3009 3.25948 89.5796 4.60162 89.2874 6.06271C88.9952 7.5238 89.145 9.03823 89.7182 10.4145C90.2914 11.7909 91.2621 12.9672 92.5075 13.7949C93.7529 14.6225 95.2172 15.0643 96.715 15.0643C97.7099 15.0654 98.6952 14.8713 99.6146 14.4932C100.534 14.1151 101.369 13.5603 102.073 12.8607C102.776 12.161 103.334 11.3302 103.714 10.4159C104.094 9.50149 104.289 8.52153 104.288 7.53206" fill="#356D82"/>
<path d="M148.859 7.53206C148.859 6.04235 148.415 4.58623 147.582 3.34758C146.75 2.10893 145.567 1.14345 144.184 0.573362C142.8 0.00327388 141.277 -0.145901 139.808 0.144727C138.339 0.435356 136.99 1.15271 135.93 2.2061C134.871 3.25948 134.15 4.60162 133.858 6.06271C133.566 7.5238 133.716 9.03823 134.289 10.4145C134.862 11.7909 135.833 12.9672 137.078 13.7949C138.324 14.6225 139.788 15.0643 141.285 15.0643C142.28 15.0654 143.266 14.8713 144.185 14.4932C145.104 14.1151 145.94 13.5603 146.643 12.8607C147.347 12.161 147.905 11.3302 148.285 10.4159C148.665 9.50149 148.86 8.52153 148.859 7.53206" fill="#356D82"/>
<path d="M193.429 7.53206C193.429 6.04235 192.985 4.58623 192.153 3.34758C191.321 2.10893 190.138 1.14345 188.754 0.573362C187.37 0.00327388 185.848 -0.145901 184.378 0.144727C182.909 0.435356 181.56 1.15271 180.501 2.2061C179.442 3.25948 178.72 4.60162 178.428 6.06271C178.136 7.52379 178.286 9.03823 178.859 10.4145C179.432 11.7909 180.403 12.9672 181.649 13.7949C182.894 14.6225 184.358 15.0643 185.856 15.0643C187.865 15.0643 189.791 14.2706 191.211 12.858C192.631 11.4455 193.429 9.5297 193.429 7.53206Z" fill="#356D82"/>
<path d="M238 7.53207C238 6.04197 237.555 4.58533 236.723 3.34648C235.89 2.10764 234.707 1.14231 233.322 0.572485C231.938 0.00266307 230.415 -0.145968 228.946 0.145394C227.476 0.436755 226.127 1.1549 225.068 2.20919C224.009 3.26348 223.289 4.60654 222.998 6.06823C222.707 7.52991 222.858 9.04456 223.432 10.4207C224.007 11.7969 224.979 12.9728 226.226 13.7993C227.472 14.6259 228.937 15.066 230.436 15.0643C231.43 15.0643 232.414 14.8694 233.332 14.4908C234.251 14.1121 235.085 13.5571 235.787 12.8576C236.49 12.158 237.047 11.3277 237.426 10.4139C237.806 9.5001 238.001 8.52077 238 7.53207" fill="#356D82"/>
<path d="M15.1464 51.9214C15.1464 50.4317 14.7022 48.9754 13.8701 47.7367C13.0379 46.4981 11.8551 45.5326 10.4713 44.9625C9.0875 44.3924 7.56481 44.2433 6.09576 44.5339C4.62671 44.8245 3.27725 45.5419 2.21813 46.5953C1.159 47.6486 0.437729 48.9908 0.145516 50.4519C-0.146696 51.913 0.00329173 53.4274 0.576488 54.8037C1.14968 56.18 2.12021 57.3564 3.36561 58.184C4.61101 59.0117 6.07529 59.4534 7.57312 59.4534C8.56798 59.4546 9.55329 59.2607 10.4726 58.8826C11.392 58.5045 12.2273 57.9497 12.9308 57.25C13.6343 56.5504 14.192 55.7196 14.5722 54.8052C14.9524 53.8909 15.1476 52.9109 15.1464 51.9214" fill="#356D82"/>
<path d="M59.7168 51.9214C59.7168 50.4317 59.2727 48.9754 58.4405 47.7367C57.6084 46.4981 56.4256 45.5326 55.0418 44.9625C53.6579 44.3924 52.1352 44.2433 50.6662 44.5339C49.1971 44.8245 47.8477 45.5419 46.7886 46.5953C45.7294 47.6486 45.0082 48.9908 44.716 50.4519C44.4237 51.913 44.5737 53.4274 45.1469 54.8037C45.7201 56.18 46.6909 57.3564 47.9363 58.184C49.1817 59.0117 50.6457 59.4534 52.1436 59.4534C53.1384 59.4546 54.1237 59.2607 55.0431 58.8826C55.9624 58.5045 56.798 57.9497 57.5014 57.25C58.2049 56.5504 58.7627 55.7196 59.1429 54.8052C59.523 53.8909 59.718 52.9109 59.7168 51.9214" fill="#356D82"/>
<path d="M104.288 51.9214C104.288 50.4317 103.844 48.9754 103.012 47.7367C102.18 46.4981 100.997 45.5326 99.6132 44.9625C98.2294 44.3924 96.7065 44.2433 95.2374 44.5339C93.7684 44.8245 92.4192 45.5419 91.36 46.5953C90.3009 47.6486 89.5796 48.9908 89.2874 50.4519C88.9952 51.913 89.145 53.4274 89.7182 54.8037C90.2914 56.18 91.2621 57.3564 92.5075 58.184C93.7529 59.0117 95.2172 59.4534 96.715 59.4534C97.7099 59.4546 98.6952 59.2607 99.6146 58.8826C100.534 58.5045 101.369 57.9497 102.073 57.25C102.776 56.5504 103.334 55.7196 103.714 54.8052C104.094 53.8909 104.289 52.9109 104.288 51.9214" fill="#356D82"/>
<path d="M148.859 51.9214C148.859 50.4317 148.415 48.9754 147.582 47.7367C146.75 46.4981 145.567 45.5326 144.184 44.9625C142.8 44.3924 141.277 44.2433 139.808 44.5339C138.339 44.8245 136.99 45.5419 135.93 46.5953C134.871 47.6486 134.15 48.9908 133.858 50.4519C133.566 51.913 133.716 53.4274 134.289 54.8037C134.862 56.18 135.833 57.3564 137.078 58.184C138.324 59.0117 139.788 59.4534 141.285 59.4534C142.28 59.4546 143.266 59.2607 144.185 58.8826C145.104 58.5045 145.94 57.9497 146.643 57.25C147.347 56.5504 147.905 55.7196 148.285 54.8052C148.665 53.8909 148.86 52.9109 148.859 51.9214" fill="#356D82"/>
<path d="M193.429 51.9214C193.429 50.4317 192.985 48.9754 192.153 47.7367C191.321 46.4981 190.138 45.5326 188.754 44.9625C187.37 44.3924 185.848 44.2433 184.378 44.5339C182.909 44.8245 181.56 45.5419 180.501 46.5953C179.442 47.6486 178.72 48.9908 178.428 50.4519C178.136 51.913 178.286 53.4274 178.859 54.8037C179.432 56.18 180.403 57.3564 181.649 58.184C182.894 59.0117 184.358 59.4534 185.856 59.4534C186.851 59.4534 187.835 59.2587 188.754 58.8801C189.673 58.5016 190.508 57.9468 191.211 57.2474C191.914 56.548 192.472 55.7175 192.853 54.8037C193.233 53.8899 193.429 52.9106 193.429 51.9214Z" fill="#356D82"/>
<path d="M238 51.9214C238 50.4313 237.555 48.9747 236.723 47.7359C235.89 46.497 234.707 45.5315 233.322 44.9616C231.938 44.3918 230.415 44.2432 228.946 44.5346C227.476 44.8259 226.127 45.5443 225.068 46.5986C224.009 47.6529 223.289 48.9957 222.998 50.4574C222.707 51.9191 222.858 53.4339 223.432 54.8101C224.007 56.1863 224.979 57.3619 226.226 58.1885C227.472 59.015 228.937 59.4552 230.436 59.4534C231.43 59.4534 232.414 59.2586 233.332 58.8799C234.251 58.5013 235.085 57.9463 235.787 57.2467C236.49 56.5472 237.047 55.7168 237.426 54.803C237.806 53.8893 238.001 52.9102 238 51.9214" fill="#356D82"/>
<path d="M15.1464 96.3094C15.1464 94.8197 14.7022 93.3634 13.8701 92.1247C13.0379 90.8861 11.8551 89.9208 10.4713 89.3507C9.0875 88.7806 7.56481 88.6314 6.09576 88.9221C4.62671 89.2127 3.27725 89.9301 2.21813 90.9834C1.159 92.0368 0.437729 93.379 0.145516 94.8401C-0.146696 96.3011 0.00329173 97.8156 0.576488 99.1919C1.14968 100.568 2.12021 101.745 3.36561 102.572C4.61101 103.4 6.07529 103.842 7.57312 103.842C8.56798 103.843 9.55329 103.649 10.4726 103.271C11.392 102.892 12.2273 102.338 12.9308 101.638C13.6343 100.938 14.192 100.108 14.5722 99.1932C14.9524 98.2788 15.1476 97.2989 15.1464 96.3094" fill="#356D82"/>
<path d="M59.7168 96.3094C59.7168 94.8197 59.2727 93.3634 58.4405 92.1247C57.6084 90.8861 56.4256 89.9208 55.0418 89.3507C53.6579 88.7806 52.1352 88.6314 50.6662 88.9221C49.1971 89.2127 47.8477 89.9301 46.7886 90.9834C45.7294 92.0368 45.0082 93.379 44.716 94.8401C44.4237 96.3011 44.5737 97.8156 45.1469 99.1919C45.7201 100.568 46.6909 101.745 47.9363 102.572C49.1817 103.4 50.6457 103.842 52.1436 103.842C53.1384 103.843 54.1237 103.649 55.0431 103.271C55.9624 102.892 56.798 102.338 57.5014 101.638C58.2049 100.938 58.7627 100.108 59.1429 99.1932C59.523 98.2788 59.718 97.2989 59.7168 96.3094" fill="#356D82"/>
<path d="M104.288 96.3094C104.288 94.8197 103.844 93.3634 103.012 92.1247C102.18 90.8861 100.997 89.9208 99.6132 89.3507C98.2294 88.7806 96.7065 88.6314 95.2374 88.9221C93.7684 89.2127 92.4192 89.9301 91.36 90.9834C90.3009 92.0368 89.5796 93.379 89.2874 94.8401C88.9952 96.3011 89.145 97.8156 89.7182 99.1919C90.2914 100.568 91.2621 101.745 92.5075 102.572C93.7529 103.4 95.2172 103.842 96.715 103.842C97.7099 103.843 98.6952 103.649 99.6146 103.271C100.534 102.892 101.369 102.338 102.073 101.638C102.776 100.938 103.334 100.108 103.714 99.1932C104.094 98.2788 104.289 97.2989 104.288 96.3094" fill="#356D82"/>
<path d="M148.859 96.3094C148.859 94.8197 148.415 93.3634 147.582 92.1247C146.75 90.8861 145.567 89.9208 144.184 89.3507C142.8 88.7806 141.277 88.6314 139.808 88.9221C138.339 89.2127 136.99 89.9301 135.93 90.9834C134.871 92.0368 134.15 93.379 133.858 94.8401C133.566 96.3011 133.716 97.8156 134.289 99.1919C134.862 100.568 135.833 101.745 137.078 102.572C138.324 103.4 139.788 103.842 141.285 103.842C142.28 103.843 143.266 103.649 144.185 103.271C145.104 102.892 145.94 102.338 146.643 101.638C147.347 100.938 147.905 100.108 148.285 99.1932C148.665 98.2788 148.86 97.2989 148.859 96.3094" fill="#356D82"/>
<path d="M193.429 96.3094C193.429 94.8197 192.985 93.3634 192.153 92.1247C191.321 90.8861 190.138 89.9208 188.754 89.3507C187.37 88.7806 185.848 88.6314 184.378 88.9221C182.909 89.2127 181.56 89.9301 180.501 90.9834C179.442 92.0368 178.72 93.379 178.428 94.8401C178.136 96.3011 178.286 97.8156 178.859 99.1919C179.432 100.568 180.403 101.745 181.649 102.572C182.894 103.4 184.358 103.842 185.856 103.842C187.865 103.842 189.791 103.048 191.211 101.635C192.631 100.223 193.429 98.307 193.429 96.3094Z" fill="#356D82"/>
<path d="M238 96.3094C238 94.8193 237.555 93.3627 236.723 92.1238C235.89 90.885 234.707 89.9197 233.322 89.3498C231.938 88.78 230.415 88.6314 228.946 88.9227C227.476 89.2141 226.127 89.9322 225.068 90.9865C224.009 92.0408 223.289 93.3839 222.998 94.8456C222.707 96.3073 222.858 97.8219 223.432 99.1981C224.007 100.574 224.979 101.75 226.226 102.576C227.472 103.403 228.937 103.843 230.436 103.842C231.43 103.842 232.414 103.647 233.332 103.268C234.251 102.889 235.085 102.334 235.787 101.635C236.49 100.935 237.047 100.105 237.426 99.1912C237.806 98.2774 238.001 97.2981 238 96.3094" fill="#356D82"/>
<path d="M15.1464 140.699C15.1464 139.209 14.7022 137.753 13.8701 136.515C13.0379 135.276 11.8551 134.31 10.4713 133.74C9.0875 133.17 7.56481 133.021 6.09576 133.312C4.62671 133.602 3.27725 134.32 2.21813 135.373C1.159 136.426 0.437729 137.769 0.145516 139.23C-0.146696 140.691 0.00329173 142.205 0.576488 143.582C1.14968 144.958 2.12021 146.134 3.36561 146.962C4.61101 147.79 6.07529 148.231 7.57312 148.231C8.56798 148.232 9.55329 148.038 10.4726 147.66C11.392 147.282 12.2273 146.728 12.9308 146.028C13.6343 145.328 14.192 144.497 14.5722 143.583C14.9524 142.668 15.1476 141.689 15.1464 140.699" fill="#356D82"/>
<path d="M59.7168 140.699C59.7168 139.209 59.2727 137.753 58.4405 136.515C57.6084 135.276 56.4256 134.31 55.0418 133.74C53.6579 133.17 52.1352 133.021 50.6662 133.312C49.1971 133.602 47.8477 134.32 46.7886 135.373C45.7294 136.426 45.0082 137.769 44.716 139.23C44.4237 140.691 44.5737 142.205 45.1469 143.582C45.7201 144.958 46.6909 146.134 47.9363 146.962C49.1817 147.79 50.6457 148.231 52.1436 148.231C53.1384 148.232 54.1237 148.038 55.0431 147.66C55.9624 147.282 56.798 146.728 57.5014 146.028C58.2049 145.328 58.7627 144.497 59.1429 143.583C59.523 142.668 59.718 141.689 59.7168 140.699" fill="#356D82"/>
<path d="M104.288 140.699C104.288 139.209 103.844 137.753 103.012 136.515C102.18 135.276 100.997 134.31 99.6132 133.74C98.2294 133.17 96.7065 133.021 95.2374 133.312C93.7684 133.602 92.4192 134.32 91.36 135.373C90.3009 136.426 89.5796 137.769 89.2874 139.23C88.9952 140.691 89.145 142.205 89.7182 143.582C90.2914 144.958 91.2621 146.134 92.5075 146.962C93.7529 147.79 95.2172 148.231 96.715 148.231C97.7099 148.232 98.6952 148.038 99.6146 147.66C100.534 147.282 101.369 146.728 102.073 146.028C102.776 145.328 103.334 144.497 103.714 143.583C104.094 142.668 104.289 141.689 104.288 140.699" fill="#356D82"/>
<path d="M148.859 140.699C148.859 139.209 148.415 137.753 147.582 136.515C146.75 135.276 145.567 134.31 144.184 133.74C142.8 133.17 141.277 133.021 139.808 133.312C138.339 133.602 136.99 134.32 135.93 135.373C134.871 136.426 134.15 137.769 133.858 139.23C133.566 140.691 133.716 142.205 134.289 143.582C134.862 144.958 135.833 146.134 137.078 146.962C138.324 147.79 139.788 148.231 141.285 148.231C142.28 148.232 143.266 148.038 144.185 147.66C145.104 147.282 145.94 146.728 146.643 146.028C147.347 145.328 147.905 144.497 148.285 143.583C148.665 142.668 148.86 141.689 148.859 140.699" fill="#356D82"/>
<path d="M193.429 140.699C193.429 139.209 192.985 137.753 192.153 136.515C191.321 135.276 190.138 134.31 188.754 133.74C187.37 133.17 185.848 133.021 184.378 133.312C182.909 133.602 181.56 134.32 180.501 135.373C179.442 136.426 178.72 137.769 178.428 139.23C178.136 140.691 178.286 142.205 178.859 143.582C179.432 144.958 180.403 146.134 181.649 146.962C182.894 147.79 184.358 148.231 185.856 148.231C187.865 148.231 189.791 147.438 191.211 146.025C192.631 144.613 193.429 142.697 193.429 140.699Z" fill="#356D82"/>
<path d="M238 140.699C238 139.209 237.555 137.753 236.723 136.514C235.89 135.275 234.707 134.309 233.322 133.739C231.938 133.17 230.415 133.021 228.946 133.312C227.476 133.604 226.127 134.322 225.068 135.376C224.009 136.431 223.289 137.774 222.998 139.235C222.707 140.697 222.858 142.212 223.432 143.588C224.007 144.964 224.979 146.14 226.226 146.966C227.472 147.793 228.937 148.233 230.436 148.231C231.43 148.231 232.414 148.036 233.332 147.658C234.251 147.279 235.085 146.724 235.787 146.025C236.49 145.325 237.047 144.495 237.426 143.581C237.806 142.667 238.001 141.688 238 140.699" fill="#356D82"/>
<path d="M15.1464 185.088C15.1482 183.597 14.7054 182.14 13.8743 180.9C13.0433 179.661 11.8612 178.694 10.4775 178.122C9.09387 177.551 7.57096 177.4 6.10131 177.69C4.63166 177.98 3.28127 178.696 2.22123 179.749C1.1612 180.802 0.439136 182.144 0.146186 183.606C-0.146763 185.067 0.00267758 186.582 0.575606 187.959C1.14853 189.336 2.11913 190.513 3.36473 191.341C4.61033 192.169 6.07491 192.61 7.57313 192.61C9.58009 192.61 11.505 191.818 12.925 190.408C14.345 188.997 15.144 187.084 15.1464 185.088" fill="#356D82"/>
<path d="M59.7168 185.088C59.7186 183.597 59.276 182.14 58.445 180.9C57.6139 179.661 56.4318 178.694 55.0482 178.122C53.6645 177.551 52.1414 177.4 50.6717 177.69C49.2021 177.98 47.8519 178.696 46.7919 179.749C45.7319 180.802 45.0096 182.144 44.7166 183.606C44.4237 185.067 44.5731 186.582 45.146 187.959C45.719 189.336 46.6898 190.513 47.9354 191.341C49.181 192.169 50.6453 192.61 52.1436 192.61C54.1505 192.61 56.0755 191.818 57.4955 190.408C58.9154 188.997 59.7144 187.084 59.7168 185.088" fill="#356D82"/>
<path d="M104.288 185.088C104.29 183.597 103.847 182.14 103.016 180.9C102.185 179.661 101.003 178.694 99.6194 178.122C98.2357 177.551 96.7128 177.4 95.2432 177.69C93.7735 177.98 92.4231 178.696 91.3631 179.749C90.303 180.802 89.581 182.144 89.288 183.606C88.9951 185.067 89.1445 186.582 89.7175 187.959C90.2904 189.336 91.261 190.513 92.5066 191.341C93.7522 192.169 95.2168 192.61 96.715 192.61C98.7219 192.61 100.647 191.818 102.067 190.408C103.487 188.997 104.286 187.084 104.288 185.088" fill="#356D82"/>
<path d="M148.859 185.088C148.86 183.597 148.418 182.14 147.587 180.9C146.756 179.661 145.573 178.694 144.19 178.122C142.806 177.551 141.283 177.4 139.814 177.69C138.344 177.98 136.994 178.696 135.934 179.749C134.874 180.802 134.151 182.144 133.858 183.606C133.566 185.067 133.715 186.582 134.288 187.959C134.861 189.336 135.831 190.513 137.077 191.341C138.323 192.169 139.787 192.61 141.285 192.61C143.292 192.61 145.217 191.818 146.637 190.408C148.057 188.997 148.856 187.084 148.859 185.088" fill="#356D82"/>
<path d="M193.429 185.088C193.431 183.597 192.988 182.14 192.157 180.9C191.326 179.661 190.144 178.694 188.76 178.122C187.377 177.551 185.854 177.4 184.384 177.69C182.914 177.98 181.564 178.696 180.504 179.749C179.444 180.802 178.722 182.144 178.429 183.606C178.136 185.067 178.285 186.582 178.858 187.959C179.431 189.336 180.402 190.513 181.648 191.341C182.893 192.169 184.358 192.61 185.856 192.61C187.862 192.608 189.786 191.815 191.205 190.405C192.625 188.995 193.424 187.083 193.429 185.088" fill="#356D82"/>
<path d="M238 185.088C238.001 183.597 237.559 182.14 236.727 180.9C235.896 179.659 234.713 178.693 233.329 178.121C231.945 177.55 230.421 177.4 228.951 177.691C227.481 177.981 226.131 178.699 225.071 179.753C224.012 180.806 223.29 182.149 222.998 183.611C222.706 185.073 222.857 186.588 223.432 187.965C224.006 189.342 224.978 190.518 226.225 191.345C227.471 192.172 228.937 192.612 230.435 192.61C232.441 192.608 234.363 191.815 235.781 190.404C237.199 188.994 237.997 187.082 238 185.088" fill="#356D82"/>
<path d="M15.1464 229.477C15.1482 227.987 14.7054 226.53 13.8743 225.29C13.0433 224.05 11.8612 223.084 10.4775 222.512C9.09387 221.941 7.57096 221.79 6.10131 222.08C4.63166 222.369 3.28127 223.086 2.22123 224.139C1.1612 225.192 0.439136 226.534 0.146186 227.995C-0.146763 229.457 0.00267758 230.972 0.575606 232.348C1.14853 233.725 2.11913 234.902 3.36473 235.73C4.61033 236.558 6.07491 237 7.57313 237C8.56722 237.001 9.55189 236.808 10.4707 236.43C11.3894 236.053 12.2243 235.499 12.9277 234.8C13.631 234.101 14.1891 233.272 14.5698 232.358C14.9505 231.445 15.1464 230.466 15.1464 229.477" fill="#356D82"/>
<path d="M59.7168 229.477C59.7186 227.987 59.276 226.53 58.445 225.29C57.6139 224.05 56.4318 223.084 55.0482 222.512C53.6645 221.941 52.1414 221.79 50.6717 222.08C49.2021 222.369 47.8519 223.086 46.7919 224.139C45.7319 225.192 45.0096 226.534 44.7166 227.995C44.4237 229.457 44.5731 230.972 45.146 232.348C45.719 233.725 46.6898 234.902 47.9354 235.73C49.181 236.558 50.6453 237 52.1436 237C53.1377 237.001 54.1223 236.808 55.0411 236.43C55.9599 236.053 56.7948 235.499 57.4981 234.8C58.2015 234.101 58.7595 233.272 59.1402 232.358C59.5209 231.445 59.7168 230.466 59.7168 229.477" fill="#356D82"/>
<path d="M104.288 229.477C104.29 227.987 103.847 226.53 103.016 225.29C102.185 224.05 101.003 223.084 99.6194 222.512C98.2357 221.941 96.7128 221.79 95.2432 222.08C93.7735 222.369 92.4231 223.086 91.3631 224.139C90.303 225.192 89.581 226.534 89.288 227.995C88.9951 229.457 89.1445 230.972 89.7175 232.348C90.2904 233.725 91.261 234.902 92.5066 235.73C93.7522 236.558 95.2168 237 96.715 237C97.7091 237.001 98.6935 236.808 99.6123 236.43C100.531 236.053 101.366 235.499 102.07 234.8C102.773 234.101 103.331 233.272 103.711 232.358C104.092 231.445 104.288 230.466 104.288 229.477" fill="#356D82"/>
<path d="M148.859 229.477C148.86 227.987 148.418 226.53 147.587 225.29C146.756 224.05 145.573 223.084 144.19 222.512C142.806 221.941 141.283 221.79 139.814 222.08C138.344 222.369 136.994 223.086 135.934 224.139C134.874 225.192 134.151 226.534 133.858 227.995C133.566 229.457 133.715 230.972 134.288 232.348C134.861 233.725 135.831 234.902 137.077 235.73C138.323 236.558 139.787 237 141.285 237C142.28 237.001 143.264 236.808 144.183 236.43C145.102 236.053 145.937 235.499 146.64 234.8C147.343 234.101 147.901 233.272 148.282 232.358C148.663 231.445 148.859 230.466 148.859 229.477" fill="#356D82"/>
<path d="M193.429 229.477C193.431 227.987 192.988 226.53 192.157 225.29C191.326 224.05 190.144 223.084 188.76 222.512C187.377 221.941 185.854 221.79 184.384 222.08C182.914 222.369 181.564 223.086 180.504 224.139C179.444 225.192 178.722 226.534 178.429 227.995C178.136 229.457 178.285 230.972 178.858 232.348C179.431 233.725 180.402 234.902 181.648 235.73C182.893 236.558 184.358 237 185.856 237C187.863 237 189.788 236.208 191.208 234.797C192.628 233.387 193.427 231.473 193.429 229.477" fill="#356D82"/>
<path d="M238 229.477C238.001 227.987 237.559 226.529 236.727 225.289C235.896 224.049 234.713 223.082 233.329 222.511C231.945 221.94 230.421 221.79 228.951 222.08C227.481 222.371 226.131 223.088 225.071 224.142C224.012 225.196 223.29 226.539 222.998 228.001C222.706 229.463 222.857 230.978 223.432 232.355C224.006 233.731 224.978 234.908 226.225 235.735C227.471 236.562 228.937 237.002 230.435 237C232.442 237 234.366 236.208 235.784 234.797C237.203 233.386 238 231.472 238 229.477" fill="#356D82"/>
</svg>
