<svg width="187" height="94" viewBox="0 0 187 94" fill="none" xmlns="http://www.w3.org/2000/svg">
<path d="M18.9971 9.71292C18.9985 7.79301 18.4426 5.91582 17.3997 4.31877C16.3569 2.72172 14.8739 1.47651 13.1384 0.740794C11.4029 0.00507582 9.49292 -0.188028 7.64991 0.185646C5.80689 0.55932 4.11367 1.48308 2.78455 2.84015C1.45544 4.19723 0.550126 5.92654 0.183044 7.80946C-0.184039 9.69238 0.0036286 11.6443 0.722343 13.4182C1.44106 15.1921 2.65847 16.7083 4.22066 17.7751C5.78284 18.8419 7.61954 19.4114 9.49848 19.4114C12.0164 19.4114 14.4315 18.3899 16.2126 16.5713C17.9937 14.7527 18.9952 12.2858 18.9971 9.71292Z" fill="#B5DCD9"/>
<path d="M75.0052 9.71292C75.0066 7.79301 74.4507 5.91582 73.4079 4.31877C72.365 2.72172 70.882 1.47651 69.1465 0.740794C67.411 0.00507582 65.5009 -0.188028 63.6578 0.185646C61.8148 0.55932 60.1218 1.48308 58.7927 2.84015C57.4636 4.19723 56.5581 5.92654 56.191 7.80946C55.8239 9.69238 56.0116 11.6443 56.7303 13.4182C57.449 15.1921 58.6666 16.7083 60.2288 17.7751C61.791 18.8419 63.6277 19.4114 65.5066 19.4114C68.0245 19.4114 70.4394 18.3899 72.2205 16.5713C74.0016 14.7527 75.0033 12.2858 75.0052 9.71292Z" fill="#B5DCD9"/>
<path d="M130.999 9.71288C131 7.79266 130.444 5.91522 129.401 4.31801C128.358 2.7208 126.875 1.47572 125.139 0.740217C123.403 0.00471353 121.492 -0.188128 119.649 0.186136C117.806 0.5604 116.113 1.48479 114.784 2.8426C113.455 4.2004 112.55 5.93046 112.184 7.81386C111.818 9.69726 112.006 11.6495 112.726 13.4233C113.446 15.1971 114.665 16.7127 116.228 17.7786C117.791 18.8445 119.628 19.4128 121.508 19.4113C124.025 19.4113 126.439 18.3895 128.219 16.5707C129.999 14.7519 130.999 12.2851 130.999 9.71288Z" fill="#B5DCD9"/>
<path d="M187 9.71292C187.001 7.79301 186.445 5.91582 185.403 4.31877C184.36 2.72172 182.877 1.47651 181.141 0.740794C179.406 0.00507582 177.496 -0.188028 175.653 0.185646C173.81 0.55932 172.117 1.48308 170.787 2.84015C169.458 4.19723 168.553 5.92654 168.186 7.80946C167.819 9.69238 168.006 11.6443 168.725 13.4182C169.444 15.1921 170.661 16.7083 172.224 17.7751C173.786 18.8419 175.622 19.4114 177.501 19.4114C180.019 19.4114 182.434 18.3899 184.215 16.5713C185.997 14.7527 186.998 12.2858 187 9.71292Z" fill="#B5DCD9"/>
<path d="M18.9971 66.906C18.9971 64.9864 18.44 63.1099 17.3963 61.5138C16.3525 59.9177 14.8692 58.6737 13.1335 57.9391C11.3979 57.2045 9.48792 57.0123 7.64538 57.3868C5.80284 57.7613 4.11052 58.6857 2.78212 60.043C1.45372 61.4004 0.549023 63.1298 0.182518 65.0125C-0.183986 66.8952 0.004111 68.8467 0.723036 70.6202C1.44196 72.3937 2.65932 73.9096 4.22135 74.976C5.78338 76.0425 7.61984 76.6118 9.49848 76.6118C10.7461 76.6127 11.9817 76.3622 13.1346 75.8748C14.2874 75.3874 15.3349 74.6726 16.2171 73.7712C17.0993 72.8697 17.799 71.7994 18.276 70.6214C18.753 69.4434 18.998 68.1809 18.9971 66.906Z" fill="#B5DCD9"/>
<path d="M75.0052 66.906C75.0052 64.9864 74.4481 63.1099 73.4044 61.5138C72.3607 59.9177 70.8771 58.6737 69.1415 57.9391C67.4058 57.2045 65.496 57.0123 63.6535 57.3868C61.8109 57.7613 60.1184 58.6857 58.7901 60.043C57.4617 61.4004 56.557 63.1298 56.1905 65.0125C55.8239 66.8952 56.012 68.8467 56.731 70.6202C57.4499 72.3937 58.6674 73.9096 60.2295 74.976C61.7915 76.0425 63.6279 76.6118 65.5066 76.6118C66.7542 76.6127 67.9898 76.3622 69.1427 75.8748C70.2955 75.3874 71.343 74.6726 72.2252 73.7712C73.1074 72.8697 73.8069 71.7994 74.2839 70.6214C74.761 69.4434 75.0062 68.1809 75.0052 66.906Z" fill="#B5DCD9"/>
<path d="M130.999 66.906C130.999 64.9861 130.442 63.1093 129.398 61.5131C128.354 59.9168 126.87 58.6729 125.134 57.9385C123.398 57.2041 121.488 57.0122 119.645 57.3872C117.802 57.7623 116.109 58.6876 114.781 60.0457C113.453 61.4038 112.549 63.1337 112.183 65.0169C111.818 66.9001 112.007 68.8519 112.727 70.6253C113.447 72.3986 114.665 73.9139 116.228 74.9795C117.791 76.0451 119.629 76.6132 121.508 76.6117C122.755 76.6117 123.989 76.3606 125.141 75.8728C126.293 75.3849 127.34 74.6698 128.222 73.7685C129.103 72.8671 129.802 71.7971 130.279 70.6196C130.755 69.4421 131 68.1802 130.999 66.906Z" fill="#B5DCD9"/>
<path d="M187 66.906C187 64.9864 186.443 63.1099 185.399 61.5138C184.355 59.9177 182.872 58.6737 181.136 57.9391C179.401 57.2045 177.491 57.0123 175.648 57.3868C173.806 57.7613 172.113 58.6857 170.785 60.043C169.456 61.4004 168.552 63.1298 168.185 65.0125C167.819 66.8952 168.007 68.8467 168.726 70.6202C169.445 72.3937 170.662 73.9096 172.224 74.976C173.786 76.0425 175.623 76.6118 177.501 76.6118C178.749 76.6127 179.985 76.3622 181.138 75.8748C182.29 75.3874 183.338 74.6726 184.22 73.7712C185.102 72.8697 185.802 71.7994 186.279 70.6214C186.756 69.4434 187.001 68.1809 187 66.906Z" fill="#B5DCD9"/>
</svg>
