<svg width="91" height="225" viewBox="0 0 91 225" fill="none" xmlns="http://www.w3.org/2000/svg">
<g opacity="0.5">
<path d="M141 215.219L141 225L1.52588e-05 225L1.53754e-05 215.219L141 215.219Z" fill="#F6F5F5"/>
<path d="M141 195.659L141 205.44L0 205.44L1.16634e-07 195.659L141 195.659Z" fill="#F6F5F5"/>
<path d="M141 176.096L141 185.877L0 185.877L1.16637e-07 176.096L141 176.096Z" fill="#F6F5F5"/>
<path d="M141 156.536L141 166.317L0 166.317L1.16634e-07 156.536L141 156.536Z" fill="#F6F5F5"/>
<path d="M141 136.957L141 146.738L0 146.738L1.16638e-07 136.957L141 136.957Z" fill="#F6F5F5"/>
<path d="M141 117.397L141 127.177L0 127.177L1.16637e-07 117.397L141 117.397Z" fill="#F6F5F5"/>
<path d="M141 97.834L141 107.615L0 107.615L1.16637e-07 97.834L141 97.834Z" fill="#F6F5F5"/>
<path d="M141 78.2619L141 88.0428L0 88.0428L1.16637e-07 78.2619L141 78.2619Z" fill="#F6F5F5"/>
<path d="M141 58.695L141 68.4758L0 68.4758L1.16635e-07 58.695L141 58.695Z" fill="#F6F5F5"/>
<path d="M141 39.1231L141 48.9037L0 48.9037L1.16633e-07 39.1231L141 39.1231Z" fill="#F6F5F5"/>
<path d="M141 19.5604L141 29.3412L0 29.3412L1.16634e-07 19.5604L141 19.5604Z" fill="#F6F5F5"/>
<path d="M141 -5.34058e-05L141 9.78076L0 9.78076L1.16635e-07 -5.50872e-05L141 -5.34058e-05Z" fill="#F6F5F5"/>
</g>
</svg>
