<svg width="153" height="154" viewBox="0 0 153 154" fill="none" xmlns="http://www.w3.org/2000/svg">
<path d="M140.514 0.5H12.486C5.59015 0.5 0 6.09015 0 12.986V141.014C0 147.91 5.59015 153.5 12.486 153.5H140.514C147.41 153.5 153 147.91 153 141.014V12.986C153 6.09015 147.41 0.5 140.514 0.5Z" fill="#96DBD3"/>
<path d="M31.6699 82.0035H31.8581C32.2881 82.005 32.7029 81.8443 33.0198 81.5536C33.3367 81.2629 33.5324 80.8635 33.5679 80.4349C34.5531 71.2213 38.392 62.5456 44.548 55.6199C44.8508 55.2783 45.006 54.8307 44.9795 54.3751C44.9531 53.9194 44.7471 53.4927 44.4068 53.1885C44.2386 53.0366 44.042 52.9197 43.8282 52.8445C43.6144 52.7693 43.3878 52.7373 43.1616 52.7504C42.9354 52.7636 42.714 52.8215 42.5104 52.921C42.3068 53.0204 42.125 53.1594 41.9755 53.3297C35.3209 60.7595 31.1531 70.0822 30.0542 79.9957C30.0166 80.2354 30.0296 80.4804 30.0922 80.7148C30.1548 80.9492 30.2657 81.168 30.4178 81.3571C30.57 81.5461 30.7599 81.7013 30.9755 81.8126C31.1912 81.9239 31.4277 81.9889 31.6699 82.0035Z" fill="#00344E"/>
<path d="M102.774 122.771C96.0113 127.235 88.1653 129.784 80.0701 130.145C71.9748 130.507 63.9328 128.669 56.7987 124.826C56.5979 124.678 56.3675 124.576 56.1235 124.526C55.8794 124.477 55.6275 124.48 55.3849 124.537C55.1424 124.594 54.915 124.702 54.7185 124.855C54.5219 125.008 54.3608 125.202 54.2462 125.423C54.1316 125.644 54.0662 125.888 54.0546 126.137C54.043 126.385 54.0854 126.634 54.1789 126.865C54.2724 127.096 54.4148 127.303 54.5962 127.474C54.7777 127.645 54.994 127.774 55.2301 127.853C62.9124 131.999 71.5754 133.982 80.296 133.593C89.0167 133.203 97.4683 130.455 104.75 125.641C105.095 125.375 105.325 124.988 105.396 124.559C105.467 124.129 105.373 123.689 105.133 123.326C104.893 122.962 104.525 122.703 104.102 122.601C103.679 122.498 103.232 122.559 102.852 122.771H102.774Z" fill="#00344E"/>
<path d="M122.569 80.4977C122.609 80.9276 122.808 81.3271 123.127 81.6175C123.446 81.9079 123.863 82.068 124.295 82.0662H124.483C124.713 82.0467 124.937 81.9813 125.141 81.8739C125.345 81.7665 125.525 81.6192 125.672 81.4408C125.818 81.2624 125.927 81.0564 125.992 80.8352C126.057 80.6139 126.078 80.3818 126.052 80.1526C124.809 68.9384 119.675 58.5146 111.542 50.6945C111.383 50.5337 111.194 50.4061 110.985 50.319C110.777 50.2319 110.553 50.187 110.327 50.187C110.1 50.187 109.877 50.2319 109.668 50.319C109.459 50.4061 109.27 50.5337 109.111 50.6945C108.95 50.8548 108.822 51.0455 108.734 51.2555C108.647 51.4654 108.602 51.6906 108.602 51.918C108.602 52.1454 108.647 52.3706 108.734 52.5805C108.822 52.7905 108.95 52.9811 109.111 53.1415C116.659 60.4047 121.422 70.0852 122.569 80.4977Z" fill="#00344E"/>
<path d="M54.2418 67.1647C54.6994 67.1647 55.1383 66.9829 55.4619 66.6593C55.7855 66.3357 55.9672 65.8968 55.9672 65.4392C55.9672 64.9816 55.7855 64.5427 55.4619 64.2191C55.1383 63.8956 54.6994 63.7138 54.2418 63.7138C53.156 63.7138 52.1147 63.2824 51.3469 62.5147C50.5791 61.7469 50.1478 60.7055 50.1478 59.6197V51.9964L79.2137 36.4203L102.837 49.6749V59.6354C102.837 60.7212 102.405 61.7626 101.638 62.5303C100.87 63.2981 99.8284 63.7295 98.7426 63.7295C98.285 63.7295 97.8461 63.9112 97.5225 64.2348C97.199 64.5584 97.0172 64.9973 97.0172 65.4549C97.0172 65.9125 97.199 66.3514 97.5225 66.675C97.8461 66.9986 98.285 67.1803 98.7426 67.1803C99.7381 67.1845 100.725 66.992 101.646 66.6139C102.566 66.2358 103.404 65.6795 104.109 64.977C104.814 64.2745 105.374 63.4397 105.756 62.5203C106.138 61.601 106.335 60.6153 106.335 59.6197V25.6128C106.33 23.613 105.534 21.6963 104.12 20.2823C102.706 18.8683 100.789 18.072 98.7897 18.0679H54.2418C52.2475 18.0803 50.3389 18.8802 48.9316 20.2933C47.5243 21.7065 46.7324 23.6184 46.7283 25.6128V59.6197C46.7324 61.6141 47.5243 63.5261 48.9316 64.9392C50.3389 66.3524 52.2475 67.1522 54.2418 67.1647ZM54.2418 21.5188H98.7426C99.8284 21.5188 100.87 21.9501 101.638 22.7179C102.405 23.4857 102.837 24.527 102.837 25.6128V45.7064L80.0764 32.9538C79.8213 32.8151 79.5355 32.7425 79.2451 32.7425C78.9547 32.7425 78.6689 32.8151 78.4137 32.9538L50.1478 48.1063V25.6128C50.1478 24.527 50.5791 23.4857 51.3469 22.7179C52.1147 21.9501 53.156 21.5188 54.2418 21.5188Z" fill="#00344E"/>
<path d="M60.4379 38.2401C61.6853 38.2556 62.9091 37.8989 63.9529 37.2154C64.9966 36.532 65.8129 35.5529 66.2975 34.4033C66.7821 33.2537 66.913 31.9857 66.6734 30.7613C66.4338 29.5369 65.8346 28.4118 64.9524 27.5296C64.0703 26.6474 62.9451 26.0483 61.7207 25.8087C60.4964 25.5691 59.2284 25.7 58.0788 26.1845C56.9291 26.6691 55.95 27.4854 55.2666 28.5292C54.5832 29.5729 54.2264 30.7967 54.2419 32.0442C54.2623 33.6811 54.9216 35.2453 56.0792 36.4029C57.2368 37.5605 58.8009 38.2198 60.4379 38.2401ZM60.4379 29.2992C60.9814 29.2961 61.5137 29.4544 61.9672 29.7541C62.4206 30.0539 62.7749 30.4815 62.9851 30.9828C63.1953 31.4841 63.2519 32.0365 63.1477 32.57C63.0436 33.1036 62.7834 33.5941 62.4001 33.9796C62.0169 34.3651 61.5278 34.6281 60.9949 34.7353C60.462 34.8425 59.9092 34.789 59.4067 34.5817C58.9042 34.3744 58.4746 34.0226 58.1723 33.5709C57.8699 33.1191 57.7085 32.5878 57.7085 32.0442C57.7064 31.6837 57.7754 31.3264 57.9115 30.9925C58.0475 30.6587 58.248 30.3549 58.5014 30.0986C58.7549 29.8422 59.0563 29.6383 59.3886 29.4984C59.7208 29.3586 60.0774 29.2855 60.4379 29.2835V29.2992Z" fill="#00344E"/>
<path d="M63.8887 113.218V107.164C63.8887 106.706 63.7069 106.267 63.3833 105.944C63.0597 105.62 62.6209 105.438 62.1632 105.438C61.7056 105.438 61.2668 105.62 60.9432 105.944C60.6196 106.267 60.4378 106.706 60.4378 107.164V113.218C60.4378 114.558 59.9057 115.843 58.9584 116.79C58.0112 117.737 56.7265 118.269 55.3869 118.269H21.976C20.6365 118.269 19.3518 117.737 18.4046 116.79C17.4573 115.843 16.9252 114.558 16.9252 113.218V93.7209C16.9252 92.3855 17.4557 91.1048 18.4 90.1605C19.3442 89.2162 20.6249 88.6858 21.9604 88.6858H48.4224C48.88 88.6858 49.3189 88.504 49.6425 88.1804C49.9661 87.8568 50.1479 87.4179 50.1479 86.9603C50.1479 86.5027 49.9661 86.0638 49.6425 85.7402C49.3189 85.4166 48.88 85.2349 48.4224 85.2349H21.976C19.7267 85.239 17.5706 86.1344 15.9801 87.725C14.3895 89.3155 13.4941 91.4716 13.49 93.7209V113.218C13.49 115.469 14.3841 117.628 15.9755 119.219C17.5669 120.81 19.7254 121.705 21.976 121.705H55.3869C57.639 121.705 59.7991 120.811 61.393 119.22C62.987 117.629 63.8845 115.471 63.8887 113.218Z" fill="#00344E"/>
<path d="M130.804 85.2349H106.24C105.783 85.2349 105.344 85.4166 105.02 85.7402C104.697 86.0638 104.515 86.5027 104.515 86.9603C104.515 87.4179 104.697 87.8568 105.02 88.1804C105.344 88.504 105.783 88.6858 106.24 88.6858H130.804C132.141 88.6858 133.424 89.2157 134.37 90.1596C135.317 91.1034 135.851 92.3841 135.855 93.7209V113.218C135.855 114.558 135.323 115.843 134.376 116.79C133.429 117.737 132.144 118.269 130.804 118.269H97.3935C96.0567 118.265 94.776 117.731 93.8322 116.784C92.8883 115.838 92.3584 114.555 92.3584 113.218C92.3584 112.761 92.1766 112.322 91.853 111.998C91.5294 111.675 91.0905 111.493 90.6329 111.493C90.1753 111.493 89.7364 111.675 89.4128 111.998C89.0893 112.322 88.9075 112.761 88.9075 113.218C88.9075 115.469 89.8015 117.628 91.393 119.219C92.9844 120.81 95.1429 121.705 97.3935 121.705H130.804C133.057 121.705 135.217 120.811 136.811 119.22C138.404 117.629 139.302 115.471 139.306 113.218V93.7209C139.302 91.4688 138.404 89.3104 136.811 87.7194C135.217 86.1284 133.057 85.2349 130.804 85.2349Z" fill="#00344E"/>
<path d="M53.1908 95.8072L56.6417 101.768C57.0535 102.487 57.705 103.038 58.4822 103.324C59.2593 103.611 60.1126 103.615 60.8925 103.336L64.9238 101.862C65.7501 102.529 66.6258 103.132 67.5433 103.666C68.4655 104.195 69.4249 104.656 70.4139 105.046L71.1354 109.124C71.235 109.984 71.6456 110.778 72.29 111.356C72.9343 111.934 73.7679 112.256 74.6334 112.262H81.5038C82.344 112.261 83.1562 111.96 83.7945 111.414C84.4329 110.867 84.8553 110.111 84.986 109.281L85.7233 105.062C86.7086 104.675 87.663 104.214 88.5781 103.681C89.5031 103.151 90.3843 102.548 91.2133 101.878L95.1505 103.305C95.9443 103.614 96.8229 103.625 97.6243 103.337C98.4258 103.048 99.0959 102.48 99.5112 101.736L102.884 95.9013C103.33 95.1775 103.503 94.3177 103.371 93.4776C103.238 92.6375 102.81 91.8725 102.162 91.321L98.868 88.5603C98.8756 88.4192 98.8756 88.2778 98.868 88.1368C98.9921 87.227 99.055 86.3099 99.0563 85.3917C99.0566 84.4787 98.9937 83.5667 98.868 82.6624C98.8756 82.5109 98.8756 82.359 98.868 82.2075L102.162 79.4625L102.256 79.3684C102.851 78.8258 103.244 78.0967 103.369 77.3013C103.495 76.5059 103.345 75.6914 102.946 74.992L99.5112 69.0314C99.4733 68.9711 99.4314 68.9134 99.3857 68.8588C98.9539 68.194 98.3081 67.6963 97.5552 67.4482C96.8022 67.2 95.9871 67.2163 95.2446 67.4942L91.2133 68.953C90.3831 68.2915 89.5078 67.6888 88.5938 67.1491C87.6714 66.6251 86.712 66.169 85.7233 65.7844L85.0017 61.7061C84.9091 60.8463 84.5026 60.0509 83.8601 59.472C83.2176 58.8932 82.3842 58.5716 81.5195 58.5689H74.6334C73.8015 58.5643 72.995 58.855 72.3573 59.3892C71.7196 59.9235 71.2922 60.6666 71.1511 61.4865L70.4139 65.706C69.4289 66.0875 68.4745 66.5437 67.559 67.0706C66.6376 67.6065 65.7568 68.2094 64.9238 68.8745L60.9867 67.4471C60.1922 67.1451 59.316 67.1372 58.5162 67.4249C57.7165 67.7126 57.046 68.2768 56.626 69.0157L53.2535 74.8665C52.807 75.5903 52.6342 76.4501 52.7666 77.2902C52.8989 78.1303 53.3276 78.8953 53.9751 79.4468L57.2691 82.1918C57.2691 82.3487 57.2691 82.4899 57.2691 82.631C57.1456 83.5409 57.0827 84.4579 57.0809 85.3761C57.0827 86.289 57.1456 87.2008 57.2691 88.1054C57.2615 88.2517 57.2615 88.3983 57.2691 88.5446L53.9908 91.2896C53.3355 91.8199 52.8937 92.5689 52.7467 93.3989C52.5997 94.229 52.7574 95.0842 53.1908 95.8072ZM60.2494 90.5838C60.4749 90.3959 60.6471 90.1522 60.7489 89.8769C60.8507 89.6017 60.8786 89.3046 60.8298 89.0152C60.8298 88.6074 60.6886 88.1995 60.6259 87.7917C60.5289 87.032 60.4765 86.2673 60.469 85.5015C60.4765 84.7305 60.5289 83.9606 60.6259 83.1957C60.6259 82.7879 60.7514 82.3801 60.8298 81.9722C60.8935 81.6709 60.873 81.3578 60.7707 81.0673C60.6683 80.7768 60.488 80.5201 60.2494 80.3252L56.2182 76.7802L57.9122 73.8469L59.7632 70.8666L64.6728 72.6548C64.9667 72.7559 65.2818 72.7787 65.5871 72.721C65.8924 72.6632 66.1774 72.5269 66.414 72.3254C68.1805 70.7577 70.2451 69.5627 72.4844 68.8118C72.7805 68.7106 73.0442 68.5323 73.2482 68.2951C73.4523 68.058 73.5893 67.7706 73.6452 67.4628L74.6334 62.208H81.5195L82.5077 67.4628C82.5573 67.7707 82.6903 68.0592 82.8921 68.2969C83.094 68.5347 83.357 68.7127 83.6527 68.8118C85.892 69.5627 87.9567 70.7577 89.7232 72.3254C89.9582 72.5297 90.2432 72.6678 90.5492 72.7257C90.8551 72.7836 91.1709 72.7591 91.4643 72.6548L96.4995 70.8666L96.5936 71.0078L99.9347 76.9214V76.9998L95.9662 80.3252C95.7317 80.5233 95.5542 80.7803 95.4522 81.0699C95.3502 81.3594 95.3273 81.6709 95.3858 81.9722C95.3858 82.3801 95.5426 82.7879 95.5897 83.2114C95.7988 84.731 95.7988 86.2721 95.5897 87.7917C95.5897 88.2152 95.4642 88.6073 95.3858 88.9995C95.326 89.3032 95.3482 89.6174 95.4502 89.9096C95.5523 90.2019 95.7303 90.4617 95.9662 90.6622L100.013 94.066V94.2229L98.3347 97.1405L96.4681 100.136L91.4643 98.3012C91.1714 98.1936 90.8548 98.1673 90.5482 98.2253C90.2416 98.2833 89.9565 98.4234 89.7232 98.6306C87.9567 100.198 85.892 101.393 83.6527 102.144C83.3582 102.241 83.0957 102.416 82.8938 102.651C82.6919 102.886 82.5583 103.172 82.5077 103.478L81.5038 108.748H74.6334L73.6452 103.478C73.5915 103.171 73.455 102.884 73.2505 102.649C73.0459 102.414 72.781 102.24 72.4844 102.144C70.2525 101.377 68.1909 100.184 66.414 98.6306C66.0997 98.3477 65.6918 98.1912 65.2689 98.1914C65.065 98.1889 64.8625 98.2262 64.6728 98.3012L59.622 100.074L56.1397 93.9876L60.2494 90.5838Z" fill="#00344E"/>
<path d="M48.0459 101.972L35.2932 94.615C35.032 94.4605 34.7341 94.3789 34.4305 94.3789C34.127 94.3789 33.829 94.4605 33.5678 94.615C33.3061 94.7661 33.0887 94.9833 32.9373 95.2448C32.7859 95.5063 32.7058 95.803 32.7051 96.1052V110.85C32.7058 111.152 32.7859 111.449 32.9373 111.71C33.0887 111.972 33.3061 112.189 33.5678 112.34C33.829 112.495 34.127 112.576 34.4305 112.576C34.7341 112.576 35.032 112.495 35.2932 112.34L48.0459 104.983C48.3099 104.832 48.5294 104.614 48.682 104.351C48.8347 104.088 48.9151 103.79 48.9151 103.485C48.9151 103.181 48.8347 102.883 48.682 102.619C48.5294 102.356 48.3099 102.138 48.0459 101.987V101.972ZM36.156 107.838V99.1012L43.7322 103.478L36.156 107.838Z" fill="#00344E"/>
<path d="M78.0998 93.8466C79.7658 93.8466 81.3944 93.3526 82.7796 92.427C84.1648 91.5015 85.2444 90.1859 85.882 88.6468C86.5195 87.1076 86.6863 85.414 86.3613 83.78C86.0363 82.146 85.234 80.6452 84.056 79.4671C82.878 78.2891 81.3771 77.4869 79.7431 77.1619C78.1092 76.8368 76.4155 77.0036 74.8764 77.6412C73.3372 78.2787 72.0217 79.3584 71.0961 80.7436C70.1705 82.1288 69.6765 83.7573 69.6765 85.4233C69.6807 87.656 70.5695 89.7961 72.1482 91.3749C73.727 92.9537 75.8671 93.8425 78.0998 93.8466ZM78.0998 80.4352C79.087 80.4321 80.053 80.722 80.8753 81.2682C81.6977 81.8144 82.3395 82.5924 82.7194 83.5036C83.0994 84.4147 83.2004 85.4182 83.0097 86.3868C82.819 87.3554 82.3452 88.2457 81.6482 88.9449C80.9512 89.644 80.0625 90.1207 79.0944 90.3144C78.1264 90.5081 77.1227 90.4103 76.2103 90.0332C75.2979 89.6561 74.518 89.0168 73.9692 88.1962C73.4204 87.3756 73.1274 86.4105 73.1274 85.4233C73.1274 84.1031 73.6508 82.8367 74.5828 81.9017C75.5149 80.9667 76.7796 80.4394 78.0998 80.4352Z" fill="#00344E"/>
<path d="M127.448 98.6149C127.905 98.6149 128.344 98.4332 128.668 98.1096C128.991 97.786 129.173 97.3471 129.173 96.8895C129.173 96.4319 128.991 95.993 128.668 95.6694C128.344 95.3458 127.905 95.1641 127.448 95.1641H114.177C113.72 95.1641 113.281 95.3458 112.957 95.6694C112.634 95.993 112.452 96.4319 112.452 96.8895C112.452 97.3471 112.634 97.786 112.957 98.1096C113.281 98.4332 113.72 98.6149 114.177 98.6149H127.448Z" fill="#00344E"/>
<path d="M106.334 103.477C106.334 103.935 106.516 104.374 106.84 104.697C107.163 105.021 107.602 105.203 108.06 105.203H127.495C127.952 105.203 128.391 105.021 128.715 104.697C129.038 104.374 129.22 103.935 129.22 103.477C129.22 103.02 129.038 102.581 128.715 102.257C128.391 101.934 127.952 101.752 127.495 101.752H108.013C107.563 101.764 107.137 101.951 106.823 102.274C106.51 102.596 106.334 103.028 106.334 103.477Z" fill="#00344E"/>
<path d="M96.9231 110.05C96.9231 110.508 97.1049 110.946 97.4285 111.27C97.752 111.594 98.1909 111.775 98.6485 111.775H127.416C127.874 111.775 128.313 111.594 128.637 111.27C128.96 110.946 129.142 110.508 129.142 110.05C129.142 109.592 128.96 109.153 128.637 108.83C128.313 108.506 127.874 108.325 127.416 108.325H98.6799C98.4507 108.32 98.2229 108.362 98.01 108.447C97.797 108.532 97.6031 108.658 97.4395 108.819C97.276 108.979 97.146 109.171 97.0574 109.382C96.9687 109.594 96.9231 109.821 96.9231 110.05Z" fill="#00344E"/>
</svg>
