<svg width="153" height="154" viewBox="0 0 153 154" fill="none" xmlns="http://www.w3.org/2000/svg">
<path d="M140.514 0.5H12.486C5.59015 0.5 0 6.09015 0 12.986V141.014C0 147.91 5.59015 153.5 12.486 153.5H140.514C147.41 153.5 153 147.91 153 141.014V12.986C153 6.09015 147.41 0.5 140.514 0.5Z" fill="#96DBD3"/>
<path d="M34.76 98.5512C34.9641 98.4791 35.151 98.3654 35.3091 98.2175C35.4671 98.0695 35.5928 97.8904 35.6783 97.6915C35.7637 97.4926 35.8071 97.2781 35.8056 97.0616C35.8042 96.8451 35.7579 96.6313 35.6697 96.4336C32.085 87.2734 31.6081 77.1894 34.3123 67.7318C37.0165 58.2742 42.7521 49.9666 50.6374 44.086C58.5227 38.2054 68.1212 35.0775 77.9573 35.183C87.7933 35.2886 97.3224 38.6218 105.08 44.6702L97.974 45.6898C97.7597 45.7123 97.5524 45.7788 97.3649 45.8849C97.1774 45.9911 97.0138 46.1348 96.8843 46.3069C96.7548 46.4791 96.6622 46.6761 96.6122 46.8857C96.5622 47.0953 96.5559 47.3129 96.5937 47.525C96.6363 47.9105 96.8202 48.2665 97.1099 48.5243C97.3996 48.7821 97.7745 48.9235 98.1622 48.9211H98.5073L109.111 47.3525C109.417 47.3108 109.703 47.1798 109.935 46.9762C110.166 46.7725 110.332 46.5052 110.413 46.2075C110.47 46.0575 110.497 45.8974 110.491 45.7368C110.507 45.6645 110.507 45.5897 110.491 45.5173L110.24 35.0391C110.241 34.825 110.197 34.613 110.113 34.4163C110.028 34.2196 109.904 34.0422 109.748 33.8953C109.592 33.7483 109.408 33.6349 109.207 33.5618C109.006 33.4887 108.791 33.4577 108.578 33.4706C108.364 33.4702 108.152 33.5136 107.955 33.5983C107.758 33.6829 107.581 33.807 107.434 33.9627C107.287 34.1185 107.173 34.3027 107.1 34.504C107.027 34.7053 106.996 34.9195 107.009 35.1333L107.182 42.1448C98.8673 35.6197 88.6372 32.0111 78.069 31.8755C67.5008 31.74 57.1815 35.0851 48.7026 41.3948C40.2236 47.7045 34.056 56.6284 31.1508 66.7903C28.2456 76.9522 28.7642 87.7877 32.6267 97.6257C32.7413 97.9445 32.956 98.2176 33.2388 98.4043C33.5215 98.5909 33.8571 98.681 34.1953 98.661C34.3884 98.6575 34.5795 98.6204 34.76 98.5512Z" fill="#00344E"/>
<path d="M115.762 50.8818C115.632 50.7118 115.47 50.5691 115.285 50.4618C115.1 50.3544 114.896 50.2845 114.684 50.2561C114.472 50.2277 114.257 50.2414 114.05 50.2962C113.843 50.3511 113.649 50.4461 113.479 50.5759C113.309 50.7057 113.167 50.8676 113.059 51.0526C112.952 51.2375 112.882 51.4418 112.854 51.6537C112.825 51.8656 112.839 52.081 112.894 52.2877C112.949 52.4944 113.044 52.6883 113.174 52.8582C119.156 60.6545 122.383 70.2149 122.35 80.0418C122.355 89.7134 119.235 99.1278 113.456 106.883C107.677 114.637 99.5466 120.318 90.2771 123.077C81.0075 125.837 71.0945 125.528 62.0148 122.197C52.9351 118.865 45.1745 112.69 39.8891 104.59H47.2772C47.7098 104.59 48.1248 104.418 48.4307 104.112C48.7367 103.806 48.9085 103.392 48.9085 102.959C48.9085 102.526 48.7367 102.111 48.4307 101.805C48.1248 101.499 47.7098 101.327 47.2772 101.327H36.5794C36.1843 101.326 35.8032 101.474 35.5124 101.742C35.2216 102.009 35.0425 102.377 35.0108 102.771L33.8344 113.421C33.8037 113.634 33.8168 113.85 33.873 114.057C33.9292 114.264 34.0271 114.457 34.1609 114.624C34.2947 114.792 34.4614 114.93 34.6508 115.031C34.8401 115.132 35.0481 115.192 35.2618 115.21H35.4501C35.8452 115.211 36.2263 115.063 36.5171 114.795C36.8079 114.528 36.987 114.16 37.0186 113.766L37.7402 107.163C41.3197 112.57 45.9547 117.198 51.367 120.769C56.7792 124.34 62.8572 126.781 69.2362 127.946C75.6152 129.11 82.1637 128.974 88.4887 127.545C94.8137 126.116 100.785 123.424 106.044 119.631C111.303 115.837 115.741 111.02 119.092 105.469C122.444 99.9178 124.639 93.7467 125.547 87.3261C126.454 80.9056 126.055 74.3678 124.374 68.1052C122.693 61.8426 119.763 55.9843 115.762 50.8818Z" fill="#00344E"/>
<path d="M30.9326 53.1249C32.4226 53.1249 33.6306 51.9171 33.6306 50.427C33.6306 48.937 32.4226 47.729 30.9326 47.729C29.4425 47.729 28.2346 48.937 28.2346 50.427C28.2346 51.9171 29.4425 53.1249 30.9326 53.1249Z" fill="#00344E"/>
<path d="M124.405 120.229H121.738V117.563C121.738 117.132 121.567 116.719 121.263 116.415C120.958 116.11 120.545 115.939 120.115 115.939C119.684 115.939 119.271 116.11 118.967 116.415C118.662 116.719 118.491 117.132 118.491 117.563V120.229H115.762C115.331 120.229 114.918 120.4 114.614 120.705C114.309 121.009 114.138 121.422 114.138 121.853C114.138 122.283 114.309 122.696 114.614 123.001C114.918 123.305 115.331 123.476 115.762 123.476H118.428V126.174C118.428 126.605 118.599 127.018 118.904 127.322C119.208 127.627 119.621 127.797 120.052 127.797C120.482 127.797 120.895 127.627 121.2 127.322C121.504 127.018 121.675 126.605 121.675 126.174V123.523H124.342C124.773 123.523 125.185 123.352 125.49 123.048C125.794 122.743 125.965 122.33 125.965 121.9C125.965 121.469 125.794 121.056 125.49 120.752C125.185 120.447 124.773 120.276 124.342 120.276L124.405 120.229Z" fill="#00344E"/>
<path d="M76.0136 112.057H76.8135C77.0287 112.1 77.2512 112.089 77.4612 112.025C77.6712 111.962 77.8623 111.847 78.0174 111.692C78.1726 111.537 78.2871 111.346 78.3507 111.136C78.4143 110.926 78.4251 110.703 78.3821 110.488V103.774C80.4344 103.743 82.4662 103.361 84.3898 102.645C86.1134 101.99 87.7069 101.034 89.0956 99.8216C90.4258 98.6569 91.4949 97.2244 92.2328 95.6178C92.9807 93.935 93.3553 92.1102 93.3308 90.2688C93.4398 87.8489 92.7082 85.4659 91.2603 83.5239C89.8365 81.7478 88.0844 80.2621 86.0996 79.1476C83.9442 77.9279 81.6811 76.9092 79.339 76.1045C77.0338 75.3042 74.7765 74.372 72.5784 73.3124C70.681 72.4186 68.9388 71.2271 67.4177 69.7831C66.7134 69.0785 66.164 68.2347 65.8047 67.3055C65.4455 66.3763 65.2843 65.3823 65.3315 64.3871C65.2933 62.8608 65.6271 61.348 66.304 59.9794C66.9296 58.7749 67.8395 57.7411 68.9549 56.9678C70.1041 56.1962 71.3776 55.6284 72.7195 55.2894C74.1464 54.9389 75.6109 54.7651 77.0802 54.7717C79.5625 54.6842 82.0345 55.1337 84.3271 56.0894C85.7955 56.7301 87.1894 57.5296 88.4838 58.4736C88.7941 58.7158 89.184 58.8324 89.5763 58.8004C89.9686 58.7684 90.3345 58.5902 90.6014 58.301L91.1348 57.6736C91.375 57.3615 91.489 56.9704 91.4541 56.5781C91.4192 56.1858 91.238 55.8209 90.9465 55.556C89.6771 54.578 88.2979 53.7515 86.8368 53.0933C84.5099 52.0377 82.0133 51.4056 79.4645 51.2267V45.3132C79.5074 45.098 79.4966 44.8755 79.433 44.6655C79.3694 44.4555 79.2549 44.2644 79.0998 44.1093C78.9446 43.9541 78.7535 43.8396 78.5435 43.776C78.3335 43.7124 78.1111 43.7016 77.8959 43.7446H77.0959C76.8807 43.7016 76.6582 43.7124 76.4482 43.776C76.2382 43.8396 76.0472 43.9541 75.892 44.1093C75.7369 44.2644 75.6224 44.4555 75.5588 44.6655C75.4952 44.8755 75.4843 45.098 75.5273 45.3132V51.2267C73.6454 51.3992 71.7914 51.7995 70.0059 52.4188C68.3645 53.0202 66.8565 53.9368 65.5668 55.1168C64.2938 56.2749 63.26 57.6711 62.5237 59.2265C61.7248 60.9719 61.3332 62.876 61.3787 64.795C61.2728 67.1758 62.0055 69.5184 63.4492 71.4145C64.8768 73.1617 66.6293 74.6158 68.6098 75.6967C70.7776 76.8961 73.0385 77.919 75.3705 78.7555C77.8174 79.6339 80.0762 80.5593 82.1311 81.5318C84.0365 82.3979 85.7815 83.5807 87.2917 85.0298C87.9852 85.7194 88.5286 86.545 88.8876 87.4547C89.2467 88.3644 89.4136 89.3386 89.3779 90.3159C89.4128 91.8169 89.0789 93.3034 88.4054 94.6453C87.7635 95.8734 86.8583 96.9446 85.7545 97.7824C84.6064 98.6546 83.3019 99.2988 81.9115 99.6804C80.4329 100.106 78.9011 100.317 77.3626 100.308C75.6017 100.325 73.8476 100.087 72.1548 99.6019C70.6807 99.1791 69.2558 98.6007 67.904 97.8765C66.7909 97.276 65.7401 96.5666 64.7668 95.7589C63.8727 95.0217 63.1982 94.3786 62.6335 93.861C62.515 93.6982 62.3629 93.5627 62.1877 93.4636C62.0125 93.3644 61.818 93.3038 61.6175 93.286C61.4169 93.2681 61.2148 93.2935 61.0249 93.3601C60.8349 93.4268 60.6613 93.5335 60.5159 93.6727L59.8101 94.3001C59.634 94.4119 59.4878 94.5648 59.384 94.7457C59.2802 94.9265 59.222 95.1299 59.2143 95.3383C59.2065 95.5467 59.2496 95.7538 59.3397 95.9418C59.4299 96.1299 59.5644 96.2933 59.7316 96.4178C60.3618 97.1107 61.0378 97.7605 61.7551 98.3628C62.7314 99.2077 63.7813 99.9636 64.8923 100.622C66.255 101.425 67.6884 102.103 69.1745 102.645C70.8991 103.261 72.6977 103.646 74.5234 103.79V110.488C74.4805 110.696 74.4885 110.912 74.5469 111.116C74.6052 111.32 74.7122 111.508 74.8586 111.662C75.005 111.816 75.1865 111.932 75.3876 112.001C75.5887 112.07 75.8035 112.089 76.0136 112.057Z" fill="#00344E"/>
</svg>
