<svg width="238" height="449" viewBox="0 0 238 449" fill="none" xmlns="http://www.w3.org/2000/svg">
<path d="M-302.158 235.524C-290.045 238.962 -278.293 241.994 -271.294 239.273C-266.67 239.011 -258.133 241.657 -258.214 237.885C-254.742 237.738 -250.206 238.373 -249.007 236.604L-241.424 236.504C-235.869 236.422 -233.532 234.454 -231.093 232.556C-229.364 232.188 -227.671 231.806 -225.941 231.437C-219.864 232.28 -218.376 230.51 -217.927 228.14C-216.317 227.631 -214.669 227.137 -213.063 226.643C-204.509 223.835 -195.607 221.222 -193.896 214.881C-183.983 214.72 -183.435 209.405 -177.537 207.023C-175.497 204.705 -173.42 202.401 -171.381 200.083C-165.971 205.47 -170.598 207.499 -171.914 210.628C-170.391 213.906 -174.609 215.443 -170.757 219.417C-170.799 220.3 -170.805 221.198 -170.848 222.081C-175.503 225.204 -172.058 231.169 -172.683 235.713C-176.019 239.843 -175.83 245.17 -173.444 251.222C-176.078 255.098 -172.989 260.77 -172.593 265.592C-173.591 267.88 -173.347 270.403 -167.802 273.995C-167.972 274.387 -167.872 274.836 -167.437 275.396C-167.635 275.873 -167.828 276.336 -168.026 276.813C-166.177 279.599 -164.328 282.386 -162.479 285.172C-163.574 287.88 -160.051 290.593 -153.179 293.285C-148.426 295.77 -143.709 298.242 -138.956 300.728C-119.417 308.314 -101.763 311.964 -85.4437 312.771C-75.1476 313.829 -65.0851 314.719 -59.9388 311.609C-63.9791 311.099 -67.9874 310.617 -72.0278 310.106C-67.9874 310.617 -63.9791 311.099 -59.9388 311.609C-58.5215 311.69 -57.1409 311.758 -55.719 311.825C-44.902 314.312 -45.0781 309.068 -37.7161 309.137C-34.1806 309.802 -30.6404 310.454 -31.0043 308.295C-30.3985 308.084 -29.9715 307.788 -29.682 307.409C-22.5093 308.305 -19.3509 306.476 -15.7525 304.94C-14.8027 304.686 -13.8161 304.445 -12.8663 304.191C-1.52277 300.928 9.71071 297.623 15.8614 291.455C16.7467 291.397 17.1691 291.116 17.1332 290.597C27.3465 288.641 33.1321 284.338 37.5106 279.295C43.1406 277.979 46.7813 275.686 47.5526 271.955C54.1559 270.062 57.908 266.801 59.3499 262.41C61.8256 263.288 64.2647 264.152 66.7404 265.03C66.7717 265.563 66.8398 266.109 66.8757 266.628C67.0012 275.167 63.6055 282.619 69.1962 292.857C66.5624 293.465 66.6244 295.035 68.2681 297.191C64.7985 304.994 66.5051 314.497 68.065 323.944C67.1947 326.343 66.141 328.673 69.0624 332.214C68.9837 332.705 68.9004 333.21 68.8218 333.701C63.1908 338.914 68.8522 347.806 68.9981 354.9C69.3656 354.535 69.8018 354.211 70.2976 353.958C69.8018 354.211 69.3656 354.535 68.9981 354.9C68.6799 356.121 68.325 357.327 68.0114 358.534C69.4325 359.105 70.8536 359.677 72.2748 360.249C72.1686 360.698 72.0579 361.161 71.9885 361.624C72.6922 363.501 73.4372 365.378 74.1409 367.256C76.9191 368.343 79.6926 369.445 81.5901 370.451C79.6926 369.445 76.9557 368.357 74.1409 367.256C73.4372 365.378 72.6922 363.501 71.9885 361.624C72.0946 361.175 72.1686 360.698 72.2748 360.249C70.8536 359.677 69.4325 359.105 68.0114 358.534C66.7193 363.976 65.0146 369.294 69.4124 376.506C69.3086 378.581 69.246 380.656 69.1421 382.731C69.495 386.18 69.9992 389.67 70.2008 393.077C70.4387 396.75 72.2724 400.714 81.7022 404.662C90.9531 408.526 96.2291 407.786 99.1271 405.242C103.493 406.018 103.096 404.084 104.373 403.086C110.141 401.601 116.738 400.606 119.174 397.208C127.077 394.625 132.797 390.897 137.537 386.639C139.782 384.952 141.986 383.264 144.232 381.577C143.811 380.849 143.427 380.135 143.006 379.407C141.176 378.695 139.352 377.97 137.486 377.245C139.315 377.956 141.144 378.667 143.006 379.407C143.39 380.121 143.811 380.849 144.195 381.563C149.241 381.146 149.268 378.3 150.826 376.193C157.8 375.057 157.871 370.57 161.356 367.744C166.667 365.013 171.579 362.114 171.729 357.01C180.055 355.899 176.038 348.911 183.045 347.172C183.965 345.501 184.889 343.817 185.809 342.146C192.236 341.039 190.495 336.416 192.115 333.244C192.794 332.555 193.474 331.867 194.191 331.192C191.472 330.048 188.749 328.918 186.031 327.774L194.191 331.192L194.2 331.164C199.467 330.073 199.055 326.555 199.55 323.413C200.028 322.585 200.502 321.771 200.98 320.943C201.138 319.456 201.338 317.969 201.496 316.483C201.338 317.969 201.138 319.456 200.98 320.943C206.652 318.996 206.782 314.705 207.563 310.693C207.793 310.244 208.023 309.795 208.253 309.346C208.96 309.204 209.277 308.867 209.268 308.39C215.743 306.764 214.69 301.929 216.209 298.182C216.703 296.176 221.987 296.165 219.432 292.89C219.542 292.553 219.424 292.16 219.117 291.712C225.138 289.835 224.961 285.349 225.728 281.253C226.487 279.443 227.205 277.632 227.965 275.822C228.928 275.904 229.171 275.665 228.7 275.091C233.733 273.833 233.555 270.356 234.215 267.214C234.735 266.133 235.819 265.22 235.702 263.944C235.493 262.065 239.944 260.696 233.031 257.878C225.788 254.935 224.844 257.433 224.502 259.733C219.959 261.005 217.286 262.987 221.834 267.731C221.261 267.718 220.967 267.859 220.88 268.125C219.861 268.338 218.843 268.55 217.824 268.763C213.205 268.885 213.999 271.491 213.286 273.413C214.276 273.79 215.266 274.166 216.261 274.529C216.596 274.262 216.858 273.967 217.014 273.616C219.45 273.863 221.885 274.11 224.32 274.357C221.885 274.11 219.45 273.863 217.014 273.616C216.858 273.967 216.596 274.262 216.265 274.515C215.275 274.138 214.285 273.762 213.29 273.399C212.704 278.953 205.017 281.759 207.43 288.484C200.606 290.42 199.857 294.964 199.432 299.648C198.579 299.608 198.295 299.847 198.656 300.379C192.67 300.644 195.004 304.593 193.413 306.797C193.147 307.233 192.848 307.64 192.581 308.075C187.6 314.577 180.519 320.187 178.173 327.833C174.261 330.954 169.124 333.531 169.461 338.535L169.498 338.549C163.999 338.337 165.462 341.292 165.06 343.396C166.298 343.898 167.536 344.4 168.769 344.917L165.06 343.396C157.763 346.146 157.227 352.05 152.181 355.86C144.709 355.749 148.889 360.985 145.58 362.772C139.318 366.01 133.768 369.597 133.42 375.557C132.599 375.545 132.236 375.77 132.332 376.232C117.344 377.652 113.403 385.134 104.181 389.724L103.961 389.64C102.314 390.008 100.694 390.418 99.0421 390.8C97.5261 392.402 96.0056 394.018 94.4896 395.619C93.9205 395.845 93.5302 396.154 93.3186 396.547C93.079 397.277 92.5325 397.811 91.6055 398.121C92.5325 397.811 93.079 397.277 93.3186 396.547C89.8801 395.335 87.0474 393.91 85.6557 391.992C86.8559 389.845 88.0974 387.697 89.2977 385.549C89.225 385.016 89.0378 384.456 88.7038 383.84C86.02 377.69 90.3604 373.643 86.2507 367.062C86.3469 363.879 91.1701 362.256 86.4248 357.485C85.5078 353.996 88.5613 351.732 85.361 347.532C85.3853 346.579 85.4142 345.611 85.4385 344.658C87.461 341.639 89.1901 338.509 85.2478 333.554C85.4418 332.586 85.6404 331.604 85.8711 330.65C89.0223 327.461 85.9152 322.223 85.8616 317.989C86.8366 316.15 88.5223 314.534 85.1555 311.345C88.8237 299.293 87.3158 285.541 85.5832 271.72C85.9002 271.383 85.7173 270.935 85.0438 270.347C88.6934 268.279 84.4385 263.773 83.9662 260.437L84.672 257.659C87.4994 256.335 84.7599 253.873 81.1354 251.217C80.3032 249.354 82.4287 248.158 78.6481 245.6C76.7715 242.772 75.3259 240.012 67.4891 238.375C61.349 237.098 56.7079 236.533 54.5672 238.78C50.295 243.248 47.2331 248.176 45.3952 253.648C37.9799 252.36 40.0027 255.622 40.1691 258.006C39.6962 258.315 39.3287 258.68 39.0667 259.102C24.682 268.863 10.2973 278.624 -4.08744 288.385C-6.58372 289.077 -9.11207 289.741 -11.6083 290.433C-20.8179 289.71 -20.911 293.888 -23.5295 296.712C-24.6946 296.743 -25.901 296.773 -27.0661 296.804C-35.9195 297.257 -43.554 298.521 -49.1263 301.169C-46.5308 301.682 -43.9399 302.209 -41.3445 302.723C-40.0073 301.037 -36.9612 300.807 -32.6964 301.513C-36.9612 300.807 -40.0119 301.051 -41.3445 302.723C-43.9399 302.209 -46.5308 301.682 -49.1263 301.169L-48.8834 301.308C-52.8233 301.12 -57.304 300.569 -56.9224 303.176L-62.735 303.918L-78.5124 305.984C-95.2515 303.692 -110.365 303.738 -129.824 297.54L-133.523 296.244C-133.831 296.3 -134.212 296.329 -134.624 296.33C-134.212 296.329 -133.831 296.3 -133.523 296.244C-136.636 294.918 -139.744 293.579 -142.857 292.253C-145.028 289.818 -145.465 287.506 -150.094 284.893L-151.604 282.836C-152.544 282.179 -153.52 281.634 -154.529 281.187C-153.52 281.634 -152.544 282.179 -151.604 282.836C-153.399 273.726 -155.193 264.616 -156.987 255.506C-155.973 251.662 -154.142 248.097 -157.002 242.985C-156.844 242.003 -156.692 241.036 -156.534 240.054C-155.105 238.214 -153.153 236.541 -157.189 233.003C-156.809 232.848 -156.533 232.637 -156.363 232.37C-152.293 231.66 -150.585 230.1 -155.304 226.255C-151.762 225.518 -150.021 224.112 -153.525 220.713C-150.795 219.557 -152.91 216.701 -152.732 214.654C-152.355 213.756 -151.973 212.843 -151.596 211.945C-149.228 204.733 -144.311 198.428 -147.334 189.292C-146.431 189.431 -146.128 189.262 -146.421 188.772C-142.405 187.473 -142.342 184.767 -144.892 181.099C-144.184 177.186 -140.089 174.387 -145.048 168.635C-144.133 166.6 -146.313 164.697 -151.958 163.293C-158.364 161.694 -164.477 161.216 -164.522 163.993C-164.68 171.508 -174.006 175.159 -174.91 182.312C-173.77 183.361 -172.592 184.424 -171.452 185.474C-171.205 186.483 -170.922 187.505 -170.676 188.514C-170.922 187.505 -171.205 186.483 -171.452 185.474C-172.592 184.424 -173.77 183.361 -174.91 182.312C-181.309 188.859 -187.745 195.393 -194.144 201.94C-198.822 201.992 -198.156 204.613 -199.342 206.34C-204.769 206.533 -205.112 209.465 -208.192 210.929C-212.124 211.47 -207.984 215.948 -213.978 215.484C-221.97 216.581 -226.392 219.619 -229.516 223.355C-230.888 223.891 -232.261 224.426 -233.628 224.948C-234.317 225.034 -234.688 225.287 -234.63 225.735C-239.944 224.709 -240.842 226.688 -243.622 227.367C-246.974 226.771 -247.971 227.544 -247.711 229.016C-252.322 229.236 -258.627 228.212 -260.41 230.501C-260.484 231.104 -260.595 231.693 -260.67 232.296C-260.559 231.707 -260.484 231.104 -260.41 230.501C-268.867 229.621 -272.678 231.929 -277.496 233.537C-291.36 231.534 -304.102 231.392 -320.445 225.131C-319.609 226.98 -318.809 228.815 -317.977 230.678C-312.681 232.266 -307.385 233.853 -302.09 235.44L-302.158 235.524ZM198.557 315.129C198.682 314.75 198.687 314.358 198.614 313.951C198.687 314.358 198.682 314.75 198.557 315.129C193.934 315.013 191.818 316.055 190.774 317.599C191.813 316.069 193.929 315.027 198.557 315.129ZM118.917 387.688C115.544 389.041 111.721 390.129 107.688 391.105C108.022 391.973 108.566 392.701 109.309 393.331C108.566 392.701 107.985 391.959 107.688 391.105C111.721 390.129 115.544 389.041 118.917 387.688ZM104.306 401.908C104.124 401.081 103.785 400.227 102.782 399.261C103.749 400.213 104.124 401.081 104.306 401.908ZM75.1603 324.447C74.5473 323.299 74.3607 322.234 73.9449 321.113C74.3607 322.234 74.5519 323.285 75.1603 324.447ZM75.8194 325.455C74.6038 325.514 73.4248 325.587 72.2092 325.645C73.8475 328.32 75.4492 330.981 77.0875 333.655C76.5919 333.782 76.0369 333.84 75.4635 333.827C76.0735 333.854 76.5919 333.782 77.0875 333.655C75.4492 330.981 73.8475 328.32 72.2092 325.645C73.4248 325.587 74.6038 325.514 75.8194 325.455ZM72.0393 248.138C73.1121 248.514 74.1482 248.876 75.221 249.253C74.1482 248.876 73.1121 248.514 72.0393 248.138ZM64.6682 257.772C64.6354 258.248 64.5706 258.697 64.5011 259.16C66.8662 260.375 70.25 261.377 72.0736 262.733C70.25 261.377 66.8662 260.375 64.4965 259.174C64.566 258.711 64.5987 258.234 64.6636 257.786L64.6682 257.772ZM55.3179 249.561C54.9827 249.828 54.7621 250.123 54.6608 250.432C54.7667 250.109 55.024 249.828 55.3179 249.561ZM54.6469 250.474C54.5916 250.642 54.541 250.796 54.5591 250.993C54.5364 250.811 54.555 250.628 54.6469 250.474ZM26.0679 274.819C27.6554 274.507 28.776 273.607 30.5605 273.449C28.776 273.607 27.6555 274.507 26.1046 274.833C24.9069 278.481 20.212 280.215 15.1962 281.796C20.212 280.215 24.9435 278.494 26.1046 274.833L26.0679 274.819ZM3.06207 286.21C2.64853 286.716 3.00518 287.514 5.04429 288.968C4.86923 289.501 4.59338 289.965 4.00586 290.246C4.55671 289.951 4.86923 289.501 5.04429 288.968C3.00518 287.514 2.64853 286.716 3.06207 286.21ZM-46.9886 307.474C-50.4707 307.902 -51.923 309.938 -55.7303 310.1C-51.923 309.938 -50.4707 307.902 -46.9886 307.474ZM-157.919 255.83C-157.919 255.83 -157.786 255.802 -157.607 255.76L-157.919 255.83ZM-164.798 229.163C-164.641 228.56 -164.485 227.956 -164.452 227.354C-164.448 227.97 -164.646 228.574 -164.798 229.163ZM-164.884 205.678C-159.229 205.918 -158.641 205.006 -160.437 203.565C-158.645 205.02 -159.229 205.918 -164.884 205.678ZM-153.514 183.487C-154.679 183.77 -155.318 184.332 -154.847 185.537C-156.49 185.891 -157.747 186.58 -159.523 186.836C-157.784 186.566 -156.526 185.877 -154.847 185.537C-155.318 184.332 -154.675 183.756 -153.514 183.487ZM-169.636 192.508C-169.292 192.718 -168.99 192.927 -168.687 193.137C-168.953 192.941 -169.292 192.718 -169.636 192.508ZM-172.191 199.286L-171.843 199.608L-172.191 199.286Z" fill="#B5DCD9"/>
</svg>
